<svg xmlns="http://www.w3.org/2000/svg" version="1.2" width="186.76" height="293" viewBox="0 0 186.76 571.853"><path d="M217.361 151.858l-1.499.808c-.002.002-.605.328-1.905.947-9.091 4.322-50.495 21.988-120.376 21.988-39.936 0-70.567-5.769-91.188-11.52-10.31-2.875-18.117-5.745-23.329-7.89a120.775 120.775 0 0 1-5.862-2.579c-1.3-.619-1.903-.947-1.906-.947l-1.501-.808-56.52 56.521 180.303 360.62 2.048-4.1 178.256-356.52-56.521-56.52z"/><path fill="#004083" d="M268.311 209.284l-51.812-51.81L54.722 481.035l38.858 77.72z"/><path d="M93.58 180.181c-72.182.002-114.551-18.646-122.92-22.708l-51.812 51.811L54.722 481.037l161.777-323.564c-8.368 4.061-50.738 22.71-122.919 22.708zm14.271 285.939c1.434.511 5.305 1.884 7.559-2.623 1.495-2.99.266-4.937-1.004-5.57-2.212-1.107-4.117.756-6.596 3.768-2.581 3.216-8.029 9.812-14.748 6.452-2.499-1.25-4.077-3.625-4.527-5.899-.471-2.13-.656-5.14 2.192-10.835 2.232-4.465 6.185-10.733 14.769-7.722l-3.729 8.787c-1.25-.369-4.137-1.25-6.042 2.561-1.167 2.335-.43 3.728.717 4.301 1.229.615 2.375-.246 4.219-2.499 5.204-6.514 10.079-11.758 16.879-8.357 3.031 1.516 9.156 6.78 3.543 18.005-3.667 7.333-6.882 8.747-9.074 9.238-3.933.902-6.739-.246-7.948-.696l3.79-8.912zm17.401-29.583l8.152 4.076-4.363 8.727-8.152-4.077 4.363-8.726zm-11.684-29.582c.758-1.516 2.622-4.834 5.408-6.718 5.489-3.708 12.167-1.393 15.936.491 4.22 2.11 9.402 5.47 10.099 12.167.307 3.072-1.659 7.825-2.109 8.726l-6.719 13.437-29.332-14.666 6.717-13.437zm4.446 7.702l16.059 8.03 1.106-2.212c2.171-4.342 2.499-7.046-4.629-10.61-6.923-3.46-9.381-1.516-11.409 2.54l-1.127 2.252zm29.662-22.967l8.152 4.075-4.363 8.726-8.152-4.076 4.363-8.726zm.526-54.003l6.309 3.154-7.62 15.24 4.67 2.335 7.067-14.133 5.94 2.97-7.067 14.133 5.776 2.888 7.845-15.69 6.637 3.318-12.372 24.744-29.332-14.666 12.147-24.293zm7.379-14.76l29.332 14.666-4.527 9.054-29.332-14.666 4.527-9.054zm11.67-23.339c3.933-7.866 9.914-6 11.675-5.12 3.605 1.801 4.486 4.853 4.015 7.946l.082.041c1.086-1.352 4.527-5.367 10.263-2.499 4.096 2.048 4.937 5.695 5.039 7.64.103 2.356-2.376 7.927-2.396 7.968l-7.784 15.567-29.332-14.666 8.438-16.877zm7.599 13.58l1.967-3.933c.615-1.229 1.864-3.83-.963-5.244-2.704-1.353-3.953 1.146-4.588 2.417l-1.986 3.974 5.57 2.786zm11.512 5.756l2.314-4.629c.553-1.106 2.13-4.26-.942-5.797-2.827-1.413-4.425 1.578-5.039 2.806l-2.315 4.63 5.982 2.99zm16.313-29.041l4.178 3.831-4.649 9.3-23.822-25.687 4.957-9.914 34.842 3.646-4.732 9.463-5.612-.962-5.162 10.323zm-2.09-11.593l-12.126-2.069-.041.082 8.931 8.46 3.236-6.473zm-10.245-24.882l7.559-15.117c1.68-3.359 3.38-6.555 6.678-7.825 2.786-1.065 5.387-.327 7.148.553 2.95 1.475 6.309 4.588 4.67 11.143l.083.042c.983-1.045 1.884-1.823 3.072-2.15 1.25-.349 2.56-.718 3.892-.718l10.651-.103-5.121 10.242-11.368.307c-1.823.062-3.728.184-4.875 2.48l-.41.818 11.88 5.94-4.527 9.054-29.332-14.666zm16.407-3.113l1.966-3.933c.164-.328.328-.758.45-1.209.533-1.884.513-2.048.369-2.785a3.18 3.18 0 0 0-1.638-1.946c-2.909-1.454-4.261 1.25-5.039 2.806l-2.048 4.097 5.94 2.97z" fill="#fff"/><path d="M93.58 162.096c43.935-.002 79.546-35.614 79.547-79.548h.001C173.126 38.614 137.514 3.002 93.58 3c-43.936.003-79.548 35.615-79.549 79.55.002 43.933 35.614 79.545 79.549 79.547z"/><path d="M20.171 97.813c13.733 9.846 27.804 11.961 37.146 11.961h.04c3.558 0 6.431-.298 8.378-.583-.054 10.727-3.088 20.531-6.149 27.653a81.913 81.913 0 0 1-4.237 8.504c-.271.47-.518.885-.741 1.251a75.373 75.373 0 0 1-14.039-11.042c-10.14-10.143-17.383-23.168-20.398-37.744zm96.667 11.067c.035 18.81 8.385 34.441 11.727 39.972-9.81 5.187-20.906 8.25-32.694 8.604v-90.23c10.073.246 17.274 2.087 21.996 3.891 2.536.967 4.36 1.927 5.528 2.625.089.054.149.094.231.145-1.903 4.762-6.775 18.53-6.788 34.992z" fill="#a95932"/><path d="M91.29 157.456c-11.789-.354-22.885-3.417-32.694-8.604 3.342-5.53 11.693-21.164 11.726-39.973-.013-16.462-4.885-30.23-6.787-34.994 3.148-1.935 11.903-6.244 27.756-6.643v90.214zm55.3-21.899a75.324 75.324 0 0 1-14.042 11.043c-3.042-5.007-11.055-19.99-11.125-37.409 1.948.285 4.821.582 8.378.583h.041c9.342 0 23.411-2.116 37.147-11.963-3.014 14.578-10.257 27.602-20.399 37.746z" fill="#a95932"/><path d="M168.548 82.548c0 2.933-.187 5.821-.514 8.666-13.941 11.664-28.687 13.972-38.232 13.98a54.148 54.148 0 0 1-7.434-.493 37.12 37.12 0 0 1-.821-.124c.424-7.91 1.929-15.042 3.45-20.417a91.26 91.26 0 0 1 2.457-7.486c.241-.636.449-1.157.618-1.569 18.733-3.098 31.024-13.054 36.068-17.92a74.857 74.857 0 0 1 4.408 25.363zm-6.259-29.997c-3.306 3.487-15.563 14.943-35.264 18.073-2.869-1.96-12.676-7.559-31.155-7.982V7.64c19.795.595 37.649 8.831 50.72 21.898a75.132 75.132 0 0 1 15.699 23.014zM40.57 29.537C53.641 16.47 71.494 8.234 91.29 7.64v55.003c-18.514.425-28.322 6.042-31.17 7.993-11.569-1.847-20.563-6.544-26.701-10.84a60.532 60.532 0 0 1-7.136-5.824 44.98 44.98 0 0 1-1.413-1.417 75.124 75.124 0 0 1 15.7-23.017zM23.021 57.183c5.043 4.866 17.333 14.823 36.068 17.921.168.412.375.933.617 1.568 1.802 4.741 5.237 15.33 5.909 27.902-1.728.277-4.592.62-8.258.62-9.546-.009-24.293-2.315-38.23-13.98a75.568 75.568 0 0 1-.514-8.667c0-8.906 1.56-17.442 4.408-25.364z" fill="#a95932"/><path fill="none" stroke="#000" stroke-width="1.222" d="M216.499 157.473v-5.813"/><path fill="#e62627" d="M54.722 246.985l-28.503-28.503-28.502 28.503 28.502 28.502-28.502 28.503 28.502 28.502 28.503-28.502 28.503 28.502 28.502-28.502-28.502-28.503 28.502-28.502-28.502-28.503z"/><path d="M118.433 15.452a24.54 7.865 0 1 1-49.08 0 24.54 7.865 0 1 1 49.08 0zm-.297 134.211a24.54 7.865 0 1 1-49.08 0 24.54 7.865 0 1 1 49.08 0zm-.148-74.082a24.54 8.459 0 1 1-49.081 0 24.54 8.459 0 1 1 49.08 0z" fill="#a95932"/><path fill="#a95932" d="M90.235 22.782h7.634v39.896h-7.634z"/><rect width="13.339" height="67.395" x="87.371" y="78.395" ry="0" fill="#a95932"/><path d="M98.019 62.896a4.412.297 0 1 1-8.825 0 4.412.297 0 1 1 8.825 0z"/></svg>