<svg xmlns="http://www.w3.org/2000/svg" viewBox="0 0 113.12 119.46"><path d="M56.56 6.33a56.57 56.57 0 1 0 56.56 56.56A56.56 56.56 0 0 0 56.56 6.33zm0 93.26A36.72 36.72 0 0 1 30.75 36.9a36.57 36.57 0 0 1 62.38 26 36.68 36.68 0 0 1-36.57 36.69z" fill="#231f20"/><path d="M96 23.45a55.78 55.78 0 1 0 16.33 39.44A55.41 55.41 0 0 0 96 23.45zm-39.44 76.93a37.52 37.52 0 0 1-26.38-64 37.36 37.36 0 0 1 63.74 26.51 37.46 37.46 0 0 1-37.36 37.49z" fill="#243f87"/><path d="M15.42 65.14a9.88 9.88 0 0 1-.59 3.7l-2.63.07a6.13 6.13 0 0 0 .62-1.54A6.38 6.38 0 0 0 13 65.7a3.48 3.48 0 0 0-.42-1.59A2.85 2.85 0 0 0 11.49 63a3.06 3.06 0 0 0-1.57-.36 2.49 2.49 0 0 0-2 .9 3.31 3.31 0 0 0-.63 2.17v.71h1.23v-1.3l2.22-.12.12 4.09-5.63.16c0-.13-.1-.38-.18-.74s-.16-.81-.25-1.39a14.52 14.52 0 0 1-.16-1.79 11.65 11.65 0 0 1 .07-1.62 5.73 5.73 0 0 1 .34-1.37 6.16 6.16 0 0 1 .68-1.29 4.42 4.42 0 0 1 .92-1A4.91 4.91 0 0 1 8 59.34 4.49 4.49 0 0 1 9.65 59a5.61 5.61 0 0 1 2.38.42 5.07 5.07 0 0 1 1.81 1.32 6.15 6.15 0 0 1 1.14 2 7.92 7.92 0 0 1 .44 2.4zm.24 4.77l2 7.57-2.15.57L14.45 74l-1.82.48 1 3.73-2.11.55-1-3.73-1.9.5 1.1 4.13-2.19.57-2-7.62zm1.92 7.63l4.73 9L20 87.78l-1.53-2.91-7 3.61-1.7-3.24 7-3.61-1.51-2.88zm6.29 10.72l2.49 2.92-4.88 10.43-2.36-2.77.88-1.62-3.09-3.63-1.75.57-2.34-2.73zM23 91.47l-4.22 1.45 2.13 2.5zm6.77 3.11L36 99l-1.29 1.79-3.29-2.35L30.3 100l3.08 2.21-1.29 1.79-3.09-2.19-2.43 3.36-3-2.11zm6.68 4.68l7.21 3.2-.9 2-3.89-1.73-.76 1.7 3.55 1.57-.9 2-3.55-1.58-.79 1.77 3.93 1.81-.93 2-7.25-3.21zm17.95 4.88a10.41 10.41 0 0 1 2 .3 8.88 8.88 0 0 1 1.69.66l-.23 3a10.15 10.15 0 0 0-1.43-.83 4.65 4.65 0 0 0-1.53-.35 3.77 3.77 0 0 0-1.56.17 2.4 2.4 0 0 0-1.13.78 2.37 2.37 0 0 0-.49 1.35 2.56 2.56 0 0 0 .27 1.46 2.45 2.45 0 0 0 1 1 4 4 0 0 0 1.57.41 5.93 5.93 0 0 0 3.12-.67l-.2 2.77a8.79 8.79 0 0 1-1.29.42 8 8 0 0 1-1.31.2 10.59 10.59 0 0 1-1.48 0 6.87 6.87 0 0 1-2.35-.56 5.42 5.42 0 0 1-1.78-1.25 4.77 4.77 0 0 1-1-1.77 5.45 5.45 0 0 1-.25-2.11 5.34 5.34 0 0 1 1-2.85 5 5 0 0 1 2.29-1.71 7 7 0 0 1 3.09-.42zm7.41 6.7a2 2 0 0 1 1 .14 1.82 1.82 0 0 1 .77.6 1.75 1.75 0 0 1 .37.91 1.87 1.87 0 0 1-.74 1.72 1.81 1.81 0 0 1-.94.37 1.84 1.84 0 0 1-1-.16 2 2 0 0 1-.76-.6 1.76 1.76 0 0 1-.35-.9 1.89 1.89 0 0 1 1.64-2.08zm2.29-7.08l7.4-2 .6 2.13-3.89 1.07.51 1.83 3.65-1 .59 2.12-3.65 1 1.11 4-3.5 1zm12.42 3.04a1.83 1.83 0 0 1 1-.17 1.91 1.91 0 0 1 .93.31 1.76 1.76 0 0 1 .64.76 1.83 1.83 0 0 1 .17 1 1.86 1.86 0 0 1-.33.91 1.8 1.8 0 0 1-.77.64 1.78 1.78 0 0 1-1 .16 1.81 1.81 0 0 1-.91-.34 1.68 1.68 0 0 1-.62-.73 1.85 1.85 0 0 1-.07-1.44 1.77 1.77 0 0 1 .96-1.1zm6.37-12.18a5 5 0 0 1 3.23-1.23l1.78 2.11a8.4 8.4 0 0 0-1.64.09 2.47 2.47 0 0 0-1.24.55 1.44 1.44 0 0 0-.45.6.58.58 0 0 0 .1.64.7.7 0 0 0 .43.21 1.51 1.51 0 0 0 .56 0l1.92-.39a2.89 2.89 0 0 1 3.06.94 2.76 2.76 0 0 1 .62 2.48 3.27 3.27 0 0 1-.56 1.26 6.84 6.84 0 0 1-1.1 1.12 9.14 9.14 0 0 1-1.47 1 12.62 12.62 0 0 1-1.68.69l-1.83-2.18.67-.12c.23 0 .46-.1.7-.16a5.26 5.26 0 0 0 .74-.28 3 3 0 0 0 .7-.45q.84-.69.39-1.23a.79.79 0 0 0-.82-.22l-2.06.4a3.13 3.13 0 0 1-2.92-1 2.81 2.81 0 0 1-.71-1.62 3.09 3.09 0 0 1 .35-1.69 4.65 4.65 0 0 1 1.23-1.52zm9.68.29a1.78 1.78 0 0 1 .8-.54 1.92 1.92 0 0 1 1-.08 1.81 1.81 0 0 1 .89.43 1.89 1.89 0 0 1 .55.81 2 2 0 0 1 .07 1 1.76 1.76 0 0 1-.45.89 1.71 1.71 0 0 1-.81.54 2 2 0 0 1-1 0 1.88 1.88 0 0 1-1.52-1.71 1.79 1.79 0 0 1 .47-1.34zm-1.15-9.75l1.91-3.33 11.54 1-1.81 3.17-1.82-.24-2.37 4.14 1.13 1.4-1.79 3.12zm3.34-.3l2.81 3.45 1.64-2.85zm7.64-7.09a1.85 1.85 0 0 1 .52-.81 1.82 1.82 0 0 1 .86-.47 1.89 1.89 0 0 1 1 0 1.92 1.92 0 0 1 .81.52 1.85 1.85 0 0 1 .41 1.86 1.85 1.85 0 0 1-.53.81 2 2 0 0 1-.87.44 1.78 1.78 0 0 1-1 0 1.85 1.85 0 0 1-1.11-.92 1.76 1.76 0 0 1-.09-1.43zM97 73l.62-5.25a6.62 6.62 0 0 1 .62-2.14 5.42 5.42 0 0 1 1.28-1.66 5 5 0 0 1 1.84-1 5.5 5.5 0 0 1 2.27-.17 5.44 5.44 0 0 1 2.56.93 4.6 4.6 0 0 1 1.6 2 5.18 5.18 0 0 1 .34 2.65l-.69 5.87zm2.91-3.35l5.46.64.08-.7a5.1 5.1 0 0 0 0-1.6 1.84 1.84 0 0 0-.69-1 3.4 3.4 0 0 0-1.63-.53 2.68 2.68 0 0 0-2.22.49 3.16 3.16 0 0 0-.86 2zm4.69-10.45a1.85 1.85 0 0 1 .17-1 2 2 0 0 1 .62-.75 1.75 1.75 0 0 1 .94-.33 1.87 1.87 0 0 1 1 .17 1.8 1.8 0 0 1 .67.71 1.78 1.78 0 0 1 .34.94 1.85 1.85 0 0 1-.19 1 1.92 1.92 0 0 1-.64.72 1.9 1.9 0 0 1-.91.33 1.84 1.84 0 0 1-1.38-.45 1.71 1.71 0 0 1-.62-1.34z" fill="#fff"/><path d="M73.71 21.1a17.54 17.54 0 0 1-34.31-7.32 17.54 17.54 0 0 1 34.31 7.32z" fill="#231f20"/><path d="M61.46 2.29l.66-.41a15.45 15.45 0 0 0-2.07-.6 16.72 16.72 0 0 0-8 .25l.85.71zm1.99 6.14l-3.04 4.97 1.54 5.37 5 2.24 4.33-2.68-2.74-9.54-5.09-.36zm-18.79-.79l-.34-1.37a16.52 16.52 0 0 0-4 7.7 16.19 16.19 0 0 0-.32 4.14l1.19-.74zm27.57 10.7l.88.73A16.48 16.48 0 0 0 69.75 7.4l-.39 1zm-20.84.19l1.87-5.1-2.91-5.09-4.85-.35-3.4 9.43 3.89 3.25 5.4-2.14zM60.91 33l-.16.41a16.7 16.7 0 0 0 9-6l-1.15-.08zM53.9 12.73l5.73.21 3.13-5.13-1.15-4.62-8.47-.04-1.97 4.81 2.73 4.77zm-2.24 6.66l-5.39 2.14-1.94 4.76 7.14 5.05 4.37-2.7.24-5.81-4.42-3.44zm10.11.29l-4.78 3.19-.24 5.71 4.05 3.39 7.07-5.16-1.23-4.95-4.87-2.18zM43.5 26.81h-.65a16.53 16.53 0 0 0 8.61 6.41l-.21-.88z" fill="#fff"/><path d="M84.83 33.06H27.89v41.12a28.67 28.67 0 0 0 57.34 0V33.06z" fill="#231f20"/><path d="M37.43 53c0-.07.07-.15.12-.23h-8.86v7.38h8.17a7.41 7.41 0 0 1 .57-7.15zm1.09-8.9a.38.38 0 0 1 .4.34 6.46 6.46 0 0 0 1.82 2.65V47a28.29 28.29 0 0 0-.27-3.92V43a.39.39 0 0 1 .71-.23 14.74 14.74 0 0 1 1.83 4 6.91 6.91 0 0 0 .76-2.57.4.4 0 0 1 .31-.39.4.4 0 0 1 .45.22 7.78 7.78 0 0 1 .6 3c.16-.22.35-.44.53-.66V33.86h-7.43v10.41a.4.4 0 0 1 .29-.17z" fill="#ebe84f"/><path d="M38.23 46.22v1l.2.2c-.09-.42-.15-.83-.2-1.2z" fill="#f3dd44"/><path d="M43.16 65.58a.37.37 0 0 1-.29 0 12.92 12.92 0 0 1-4.64-3.54V95a27.91 27.91 0 0 0 7.43 4.67V63.61a9.81 9.81 0 0 1-2.5 1.97zm5.05-5.44h8.35v-7.38h-9.21a7.34 7.34 0 0 1 .86 7.38z" fill="#ebe84f"/><path d="M56.56 33.86H46.45V46a.42.42 0 0 1 .15.22 7.92 7.92 0 0 1 0 3.29 3.47 3.47 0 0 0-.13.51v1.38a1.85 1.85 0 0 0 .26.55h9.85zM36.51 46.77a.38.38 0 0 1 .14-.37.44.44 0 0 1 .4 0 2.56 2.56 0 0 1 .39.22V33.86h-8.75V52h8.75v-1.78a14.42 14.42 0 0 1-.93-3.45zM46.45 100a27.83 27.83 0 0 0 10.11 1.91V60.93h-8.79a18.35 18.35 0 0 1-1.32 1.8zM28.69 60.93v13.25a27.53 27.53 0 0 0 8.75 20.11V61.11l-.13-.18z" fill="#bf2026"/><path d="M77.36 48.87h.16l-.16-2c-.06-.18-.33-.74-.76-.74a8.88 8.88 0 0 1-3.18-1c0-.29 1.56-.59 3.31-.59h.15L77.4 43c.13-.43.4-.9.56-.9s.43.47.55.89l.49 1.45h.15c1.76 0 3.3.3 3.3.64a9.78 9.78 0 0 1-3.17 1c-.43 0-.69.56-.74.67l-.18 2.07.36.13c0 .18.22 1.18.29 1.53h-2.15c.06-.35.25-1.35.28-1.53zm-14.8 0h.16l-.16-2c-.06-.18-.33-.74-.76-.74a8.83 8.83 0 0 1-3.17-1c0-.29 1.55-.59 3.3-.59h.15L62.6 43c.13-.43.4-.9.56-.9s.43.47.55.89l.52 1.41h.15c1.76 0 3.3.3 3.3.64a9.78 9.78 0 0 1-3.17 1c-.42 0-.69.56-.74.67l-.18 2.07.41.22c0 .18.22 1.18.29 1.53h-2.23c.06-.35.25-1.35.28-1.53a1.69 1.69 0 0 0 .22-.13zm14.8 18.96h.16l-.16-2C77.3 65.6 77 65 76.6 65a8.81 8.81 0 0 1-3.18-1c0-.29 1.56-.59 3.31-.59h.15L77.4 62c.13-.44.4-.91.56-.91s.43.47.55.89L79 63.4h.15c1.76 0 3.3.3 3.3.64a9.78 9.78 0 0 1-3.17 1c-.43 0-.69.56-.74.67l-.18 2.07.36.13c0 .18.22 1.18.29 1.53h-2.15c.06-.35.25-1.35.28-1.53zm-14.79 0h.15l-.16-2c-.06-.18-.33-.74-.76-.74A8.83 8.83 0 0 1 58.63 64c0-.29 1.55-.59 3.3-.59h.15L62.6 62c.13-.43.4-.91.56-.91s.43.47.55.89l.52 1.41h.15c1.76 0 3.3.3 3.3.64a9.78 9.78 0 0 1-3.17 1c-.42 0-.69.56-.74.67l-.18 2.07.36.13c0 .18.22 1.18.29 1.53h-2.18c.06-.35.25-1.35.28-1.53zM77.36 86.8l.16-.06-.16-2c-.06-.17-.36-.74-.76-.74a8.81 8.81 0 0 1-3.18-1c0-.29 1.56-.59 3.31-.59h.15L77.4 81c.13-.43.4-.9.56-.9s.43.46.55.88l.49 1.38h.15c1.76 0 3.3.3 3.3.64a9.78 9.78 0 0 1-3.17 1c-.43 0-.69.57-.74.68l-.18 2.06.36.13c0 .18.22 1.18.29 1.54h-2.15c.06-.36.25-1.35.28-1.54zm-14.8 0l.16-.06-.16-2c-.06-.18-.33-.75-.76-.75a8.83 8.83 0 0 1-3.17-1c0-.29 1.55-.59 3.3-.59h.15l.52-1.4c.13-.43.4-.9.56-.9s.43.46.55.88l.52 1.41h.15c1.76 0 3.3.3 3.3.64a9.78 9.78 0 0 1-3.17 1c-.42 0-.69.57-.74.68l-.18 2.06.36.13c0 .18.22 1.18.29 1.54h-2.18c.06-.36.25-1.35.28-1.53zm7.34-29.25h.16l-.16-2c-.07-.18-.33-.75-.76-.75a8.88 8.88 0 0 1-3.18-1c0-.29 1.59-.59 3.31-.6h.15l.52-1.39c.13-.43.4-.9.56-.9s.43.47.55.89l.52 1.4h.15c1.73 0 3.3.31 3.3.64a9.62 9.62 0 0 1-3.17 1c-.43 0-.7.57-.74.68l-.18 2.06.36.14c0 .18.22 1.17.29 1.53h-2.19c.07-.36.26-1.35.29-1.53zm0 19.89l.16-.06-.16-2c-.07-.18-.33-.74-.76-.74a8.88 8.88 0 0 1-3.18-1c0-.29 1.56-.59 3.31-.59h.15l.52-1.39c.13-.44.4-.91.56-.91s.43.47.55.89l.52 1.36h.15c1.76 0 3.3.3 3.3.64a9.86 9.86 0 0 1-3.17 1c-.43 0-.7.56-.74.67l-.18 2.07.36.13c0 .18.22 1.18.29 1.54h-2.19c.07-.36.26-1.35.29-1.54z" fill="#fff"/><path d="M37.08 58.31c0 .11.05.23.08.35h10.75a6 6 0 0 0 .17-1.36v-.31a30.1 30.1 0 0 0-4.89.32 22.43 22.43 0 0 1-6.11 1z" fill="#ebe84f"/><path d="M46.41 52.88a2.81 2.81 0 0 1-.87-2.07 4.5 4.5 0 0 1 .3-1.53 3.61 3.61 0 0 0 .16-1.15c0-.29 0-.58-.05-.85a12.13 12.13 0 0 0-1 1.63.41.41 0 0 1-.49.2.4.4 0 0 1-.26-.37.28.28 0 0 1 0-.09 7.27 7.27 0 0 0 .17-1.55 6.83 6.83 0 0 0-.12-1.26 14.66 14.66 0 0 1-1 2.23.39.39 0 0 1-.41.19.38.38 0 0 1-.32-.31 11.59 11.59 0 0 0-1.06-3.1c0 .62.08 1.33.08 2.15v1a.38.38 0 0 1-.23.35.42.42 0 0 1-.42-.06 15.14 15.14 0 0 1-1.83-2 11.25 11.25 0 0 0 .63 2.71.78.78 0 0 1 0 .14.4.4 0 0 1-.21.35.39.39 0 0 1-.5-.12 13 13 0 0 0-1.54-1.75 9.74 9.74 0 0 0 .66 2.23 4.09 4.09 0 0 1 .54 1.91 2.83 2.83 0 0 1-.6 1.74l-.07.1h8.94a4.44 4.44 0 0 0-.5-.72zm-8 8.2a13.06 13.06 0 0 0 4.59 3.7 12.37 12.37 0 0 0 4.16-4.3 6.31 6.31 0 0 0 .52-1H37.42a5.79 5.79 0 0 0 .99 1.6z" fill="#bf2026"/><path d="M37 56.59v.93a21.57 21.57 0 0 0 5.95-1 29.56 29.56 0 0 1 5-.36 6.51 6.51 0 0 0-.23-.92 27.56 27.56 0 0 0-4.57.31A22.49 22.49 0 0 1 37 56.59zm.58-2.25a6.79 6.79 0 0 0-.46 1.46 21.57 21.57 0 0 0 5.82-1 26.71 26.71 0 0 1 4.5-.34c0-.06 0-.11-.07-.16z" fill="#ebe84f"/><path d="M82.92 57.31l.3-.11-.12-1.6c-.08-.19-.25-.42-.34-.42-.4 0-3.6-.73-3.6-1.43 0-1 2.59-1 3.58-1.06l.4-1.1c.07-.21.4-1.2 1-1.2a.49.49 0 0 1 .31.11V39.7h-1.96l.43-2.28.3-.11-.12-1.59c-.08-.2-.25-.42-.34-.42-.4 0-3.6-.73-3.6-1.43h-3.71c0 .7-3.2 1.43-3.6 1.43-.09 0-.26.22-.33.35s-.11 1.4-.13 1.67l.28.1.43 2.28h-3.23l.43-2.28.3-.11-.11-1.59c-.09-.2-.26-.42-.35-.42-.4 0-3.6-.73-3.6-1.43h-3.71c0 .7-3.2 1.43-3.6 1.43-.09 0-.26.22-.33.35s-.11 1.4-.13 1.67l.28.1.43 2.28h-1.92v10.81a.58.58 0 0 1 .33-.12c.58 0 .9 1 1 1.18l.41 1.12c1 0 3.58.11 3.58 1.06 0 .7-3.2 1.43-3.6 1.43-.09 0-.26.23-.33.35l-.13 1.67.28.11.43 2.28h-1.97v10.8a.58.58 0 0 1 .33-.12c.58 0 .9 1 1 1.19l.41 1.12c1 0 3.58.11 3.58 1.06 0 .68-3.2 1.43-3.6 1.43-.09 0-.26.23-.33.35s-.11 1.4-.13 1.67l.28.1.43 2.28h-1.97v10.81a.58.58 0 0 1 .33-.12c.58 0 .9 1 1 1.18l.41 1.12c1 0 3.58.11 3.58 1.06 0 .71-3.2 1.44-3.6 1.44-.09 0-.26.22-.33.34l-.18 1.7.28.11.43 2.28h-1.92v2.52A27.74 27.74 0 0 0 69 99l.35-1.89.3-.1c0-.27-.11-1.6-.11-1.6-.09-.19-.26-.41-.35-.41-.4 0-3.6-.73-3.6-1.44 0-1 2.59-1 3.58-1.06l.41-1.1c.06-.2.39-1.2 1-1.2s.91 1 1 1.18l.41 1.12c1 0 3.58.11 3.58 1.06 0 .71-3.2 1.44-3.6 1.44-.09 0-.26.22-.33.34L71.39 97l.28.11v.28a27.7 27.7 0 0 0 12.2-17.92h-1.38l.43-2.28.3-.1-.12-1.6c-.08-.19-.25-.42-.34-.42-.4 0-3.6-.75-3.6-1.43 0-1 2.59-1.06 3.58-1.06l.4-1.11c.07-.2.4-1.2 1-1.2a.55.55 0 0 1 .31.11V59.59h-1.96zM76.58 44l.41-1.1c.06-.2.39-1.2 1-1.2s.91 1 1 1.19l.34 1.11c1 0 3.58.12 3.58 1.07 0 .68-3.2 1.43-3.6 1.43-.09 0-.26.22-.33.34s-.11 1.41-.13 1.68l.28.1.43 2.28h-3.22l.42-2.28.3-.11c0-.27-.11-1.59-.11-1.59-.09-.2-.26-.42-.35-.42-.4 0-3.6-.75-3.6-1.43 0-.94 2.59-1.07 3.58-1.07zm-7.46 8.68l.41-1.1c.06-.21.39-1.2 1-1.2s.91 1 1 1.18l.41 1.12c1 0 3.58.11 3.58 1.06 0 .7-3.2 1.43-3.6 1.43-.09 0-.26.23-.33.35l-.13 1.67.28.11.43 2.28h-3.3l.43-2.28.3-.11-.11-1.6c-.09-.19-.26-.42-.35-.42-.4 0-3.6-.73-3.6-1.43 0-.94 2.59-1.04 3.58-1.05zm-7.58-1.78l.46-2.27.3-.11c0-.27-.11-1.6-.11-1.6-.09-.19-.26-.41-.35-.41-.4 0-3.59-.75-3.59-1.43 0-.95 2.58-1.06 3.57-1.07l.41-1.1c.06-.2.4-1.2 1-1.2s.91 1 1 1.19l.31 1.1c1 0 3.57.12 3.57 1.07 0 .68-3.2 1.43-3.6 1.43-.09 0-.26.22-.33.34s-.11 1.41-.13 1.68l.28.1.43 2.28zm0 19l.46-2.31.31-.11c0-.26-.12-1.6-.12-1.6-.09-.19-.26-.41-.35-.41-.4 0-3.59-.73-3.59-1.43 0-1 2.58-1.06 3.57-1.07l.41-1.1c.06-.2.4-1.2 1-1.2s.91 1 1 1.19c0 0 .33.9.42 1.11 1 0 3.57.12 3.57 1.07 0 .7-3.2 1.43-3.6 1.43-.09 0-.26.22-.33.34s-.11 1.41-.13 1.68l.28.11.43 2.27zm3 14.56c-.09 0-.26.23-.33.35s-.11 1.4-.13 1.67l.28.1.43 2.29h-3.25l.46-2.32.3-.1c0-.27-.11-1.6-.11-1.6-.09-.19-.26-.42-.35-.42-.4 0-3.59-.73-3.59-1.43 0-1 2.58-1.06 3.57-1.06l.41-1.11c.06-.2.4-1.19 1-1.19s.91 1 1 1.18l.42 1.12c1 0 3.57.11 3.57 1.06-.11.7-3.31 1.43-3.71 1.43zm4.36-5l.43-2.28.3-.1-.11-1.6c-.09-.19-.26-.42-.35-.42-.39 0-3.6-.75-3.6-1.43 0-1 2.59-1.06 3.58-1.06l.41-1.11c.06-.2.39-1.2 1-1.2s.91 1 1 1.19l.41 1.12c1 0 3.58.11 3.58 1.06 0 .68-3.2 1.43-3.6 1.43-.09 0-.26.23-.33.35s-.11 1.4-.13 1.67l.28.1.43 2.28zm10.46 2.47c1 0 3.58.11 3.58 1.06 0 .7-3.2 1.43-3.6 1.43-.09 0-.26.23-.33.35s-.11 1.4-.13 1.67l.28.1.43 2.29h-3.25l.42-2.29.3-.1c0-.27-.11-1.6-.11-1.6-.09-.19-.26-.42-.35-.42-.4 0-3.6-.73-3.6-1.43 0-1 2.59-1.06 3.58-1.06l.42-1.1c.06-.2.39-1.19 1-1.19s.91 1 1 1.18zM82.91 64c0 .7-3.2 1.43-3.6 1.43-.09 0-.26.22-.33.34s-.11 1.41-.13 1.68l.28.11.43 2.27h-3.22l.42-2.28.3-.11c0-.26-.11-1.59-.11-1.59-.09-.2-.26-.42-.35-.42-.4 0-3.6-.73-3.6-1.43 0-1 2.59-1.06 3.58-1.07l.41-1.1c.06-.2.39-1.2 1-1.2s.91 1 1 1.19l.34 1.18c.99 0 3.58.09 3.58 1z" fill="#3b965c"/><path d="M69.9 35.61l.16 2-.16.06-.22.07c0 .19-.22 1.18-.29 1.53h2.19c-.07-.35-.26-1.35-.29-1.53l-.36-.13.18-2.07c0-.11.31-.67.74-.67a9.86 9.86 0 0 0 3.17-1H66a9.29 9.29 0 0 0 3.13 1c.44 0 .7.56.77.74zm-12.23 2.13l-.35-.13.17-2.07c0-.11.32-.67.74-.67a9.78 9.78 0 0 0 3.17-1h-4.84v5.41H58c-.11-.36-.3-1.36-.33-1.54zm0 19.89l-.35-.14.17-2.06c0-.11.32-.68.74-.68a9.54 9.54 0 0 0 3.17-1c0-.33-1.57-.63-3.3-.64H58l-.52-1.4c-.12-.42-.38-.89-.54-.89s-.22.15-.33.35v8H58c-.11-.37-.3-1.36-.33-1.54zm0 19.88l-.35-.13.17-2.07c0-.11.32-.67.74-.67a9.78 9.78 0 0 0 3.17-1c0-.34-1.54-.64-3.3-.64H58l-.52-1.41c-.12-.42-.38-.89-.54-.89s-.22.15-.33.35v8H58c-.11-.36-.3-1.36-.33-1.54zm13.26 19.75l.18-2.06c0-.11.31-.67.74-.67a9.61 9.61 0 0 0 3.17-1c0-.34-1.54-.64-3.3-.64h-.15l-.52-1.4c-.12-.42-.38-.89-.55-.89s-.43.47-.56.9l-.52 1.39h-.15c-1.75 0-3.3.3-3.31.6a8.88 8.88 0 0 0 3.18 1c.43 0 .69.56.76.74l.16 2h-.16l-.22.08c0 .16-.17.89-.25 1.33.65-.34 1.28-.71 1.9-1.1v-.23zm-13.26.14l-.35-.14.17-2.06c0-.11.32-.67.74-.67a9.54 9.54 0 0 0 3.17-1c0-.34-1.54-.64-3.3-.64H58l-.52-1.4c-.12-.42-.38-.89-.54-.89s-.22.15-.33.35v8H58c-.11-.38-.3-1.37-.33-1.55zm25.85-61.79l.15 2h-.15l-.22.08c0 .18-.22 1.18-.29 1.53h1.42v-5.36h-4.81a9.35 9.35 0 0 0 3.14 1c.43.01.69.57.76.75zm.6 15.21c-.16 0-.43.47-.56.9L83 53.11h-.15c-1.73 0-3.3.31-3.31.6a8.82 8.82 0 0 0 3.18 1c.43 0 .69.57.76.75l.15 2h-.15l-.22.08c0 .18-.22 1.17-.29 1.53h1.42v-8c-.06-.07-.18-.25-.27-.25zm0 19.88c-.16 0-.43.47-.56.91L83 73h-.15c-1.76 0-3.3.3-3.31.59a8.81 8.81 0 0 0 3.18 1c.43 0 .69.56.76.74l.15 2-.15.06-.22.07c0 .19-.22 1.18-.29 1.54h1a27.06 27.06 0 0 0 .46-4.87V71c-.1-.16-.22-.3-.31-.3z" fill="#fff"/></svg>