<svg xmlns="http://www.w3.org/2000/svg" xmlns:xlink="http://www.w3.org/1999/xlink" width="256.731" height="252"><defs><linearGradient x1="0" y1="0" x2="1" y2="0" gradientUnits="userSpaceOnUse" gradientTransform="matrix(52.15392 -20.27817 -20.28208 -52.14386 84.118 108.956)" spreadMethod="pad" id="a"><stop offset="0" stop-color="#fff"/><stop offset="1" stop-color="#dadada"/></linearGradient><linearGradient x1="0" y1="0" x2="1" y2="0" gradientUnits="userSpaceOnUse" gradientTransform="matrix(-72.3584 -86.22872 -86.24537 72.34443 142.54 416.821)" spreadMethod="pad" id="b"><stop offset="0" stop-color="#3aaa35"/><stop offset="1" stop-color="#0f2a00"/></linearGradient><linearGradient x1="0" y1="0" x2="1" y2="0" gradientUnits="userSpaceOnUse" gradientTransform="matrix(44.64717 0 0 -44.63855 51.9 310.529)" spreadMethod="pad" id="c"><stop offset="0" stop-color="#3aaa35"/><stop offset="1" stop-color="#0f2a00"/></linearGradient><linearGradient x1="0" y1="0" x2="1" y2="0" gradientUnits="userSpaceOnUse" gradientTransform="matrix(60.34428 0 0 -60.33264 46.144 271.793)" spreadMethod="pad" id="d"><stop offset="0" stop-color="#3aaa35"/><stop offset="1" stop-color="#0f2a00"/></linearGradient><linearGradient x1="0" y1="0" x2="1" y2="0" gradientUnits="userSpaceOnUse" gradientTransform="matrix(73.86806 0 0 -73.8538 47.188 237.29)" spreadMethod="pad" id="e"><stop offset="0" stop-color="#3aaa35"/><stop offset="1" stop-color="#0f2a00"/></linearGradient><linearGradient x1="0" y1="0" x2="1" y2="0" gradientUnits="userSpaceOnUse" gradientTransform="matrix(86.12653 0 0 -86.1099 76.878 169.511)" spreadMethod="pad" id="f"><stop offset="0" stop-color="#3aaa35"/><stop offset="1" stop-color="#0f2a00"/></linearGradient><linearGradient x1="0" y1="0" x2="1" y2="0" gradientUnits="userSpaceOnUse" gradientTransform="matrix(87.53634 0 0 -87.51944 90.34 144.362)" spreadMethod="pad" id="g"><stop offset="0" stop-color="#3aaa35"/><stop offset="1" stop-color="#0f2a00"/></linearGradient><linearGradient x1="0" y1="0" x2="1" y2="0" gradientUnits="userSpaceOnUse" gradientTransform="matrix(97.76024 -2.45684 -2.45732 -97.74137 119.64 122.711)" spreadMethod="pad" id="h"><stop offset="0" stop-color="#3aaa35"/><stop offset="1" stop-color="#0f2a00"/></linearGradient><linearGradient x1="0" y1="0" x2="1" y2="0" gradientUnits="userSpaceOnUse" gradientTransform="matrix(-52.3415 -87.71037 -87.7273 52.3314 128.94 348.4)" spreadMethod="pad" id="i"><stop offset="0" stop-color="#3aaa35"/><stop offset="1" stop-color="#0f2a00"/></linearGradient><linearGradient x1="0" y1="0" x2="1" y2="0" gradientUnits="userSpaceOnUse" gradientTransform="matrix(-9.44802 -87.19563 -87.21246 9.4462 131.734 284.565)" spreadMethod="pad" id="j"><stop offset="0" stop-color="#3aaa35"/><stop offset="1" stop-color="#0f2a00"/></linearGradient><linearGradient x1="0" y1="0" x2="1" y2="0" gradientUnits="userSpaceOnUse" gradientTransform="matrix(-15.66551 -88.27948 -88.29652 15.66249 164.18 251.633)" spreadMethod="pad" id="k"><stop offset="0" stop-color="#3aaa35"/><stop offset="1" stop-color="#0f2a00"/></linearGradient><linearGradient x1="0" y1="0" x2="1" y2="0" gradientUnits="userSpaceOnUse" gradientTransform="matrix(30.60386 0 0 -30.59795 163.845 186.36)" spreadMethod="pad" id="l"><stop offset="0" stop-color="#3aaa35"/><stop offset="1" stop-color="#0f2a00"/></linearGradient><linearGradient x1="0" y1="0" x2="1" y2="0" gradientUnits="userSpaceOnUse" gradientTransform="matrix(30.70255 0 0 -30.69662 190.862 163.047)" spreadMethod="pad" id="m"><stop offset="0" stop-color="#3aaa35"/><stop offset="1" stop-color="#0f2a00"/></linearGradient><linearGradient x1="0" y1="0" x2="1" y2="0" gradientUnits="userSpaceOnUse" gradientTransform="matrix(25.40799 0 0 -25.40308 206.612 138.524)" spreadMethod="pad" id="n"><stop offset="0" stop-color="#3aaa35"/><stop offset="1" stop-color="#0f2a00"/></linearGradient><linearGradient x1="0" y1="0" x2="1" y2="0" gradientUnits="userSpaceOnUse" gradientTransform="matrix(60.14453 0 0 -60.13292 171.985 107.825)" spreadMethod="pad" id="o"><stop offset="0" stop-color="#3aaa35"/><stop offset="1" stop-color="#0f2a00"/></linearGradient><linearGradient x1="0" y1="0" x2="1" y2="0" gradientUnits="userSpaceOnUse" gradientTransform="matrix(79.56597 0 0 -79.5506 60.181 202.09)" spreadMethod="pad" id="p"><stop offset="0" stop-color="#3aaa35"/><stop offset="1" stop-color="#0f2a00"/></linearGradient><linearGradient xlink:href="#a" id="r" gradientUnits="userSpaceOnUse" gradientTransform="matrix(52.15392 -20.27817 -20.28208 -52.14386 84.118 108.956)" x1="0" y1="0" x2="1" y2="0" spreadMethod="pad"/><linearGradient xlink:href="#b" id="s" gradientUnits="userSpaceOnUse" gradientTransform="matrix(-72.3584 -86.22872 -86.24537 72.34443 142.54 416.821)" x1="0" y1="0" x2="1" y2="0" spreadMethod="pad"/><linearGradient xlink:href="#c" id="t" gradientUnits="userSpaceOnUse" gradientTransform="matrix(44.64717 0 0 -44.63855 51.9 310.529)" x1="0" y1="0" x2="1" y2="0" spreadMethod="pad"/><linearGradient xlink:href="#d" id="u" gradientUnits="userSpaceOnUse" gradientTransform="matrix(60.34428 0 0 -60.33264 46.144 271.793)" x1="0" y1="0" x2="1" y2="0" spreadMethod="pad"/><linearGradient xlink:href="#e" id="v" gradientUnits="userSpaceOnUse" gradientTransform="matrix(73.86806 0 0 -73.8538 47.188 237.29)" x1="0" y1="0" x2="1" y2="0" spreadMethod="pad"/><linearGradient xlink:href="#f" id="w" gradientUnits="userSpaceOnUse" gradientTransform="matrix(86.12653 0 0 -86.1099 76.878 169.511)" x1="0" y1="0" x2="1" y2="0" spreadMethod="pad"/><linearGradient xlink:href="#g" id="x" gradientUnits="userSpaceOnUse" gradientTransform="matrix(87.53634 0 0 -87.51944 90.34 144.362)" x1="0" y1="0" x2="1" y2="0" spreadMethod="pad"/><linearGradient xlink:href="#h" id="y" gradientUnits="userSpaceOnUse" gradientTransform="matrix(97.76024 -2.45684 -2.45732 -97.74137 119.64 122.711)" x1="0" y1="0" x2="1" y2="0" spreadMethod="pad"/><linearGradient xlink:href="#i" id="z" gradientUnits="userSpaceOnUse" gradientTransform="matrix(-52.3415 -87.71037 -87.7273 52.3314 128.94 348.4)" x1="0" y1="0" x2="1" y2="0" spreadMethod="pad"/><linearGradient xlink:href="#j" id="A" gradientUnits="userSpaceOnUse" gradientTransform="matrix(-9.44802 -87.19563 -87.21246 9.4462 131.734 284.565)" x1="0" y1="0" x2="1" y2="0" spreadMethod="pad"/><linearGradient xlink:href="#k" id="B" gradientUnits="userSpaceOnUse" gradientTransform="matrix(-15.66551 -88.27948 -88.29652 15.66249 164.18 251.633)" x1="0" y1="0" x2="1" y2="0" spreadMethod="pad"/><linearGradient xlink:href="#l" id="C" gradientUnits="userSpaceOnUse" gradientTransform="matrix(30.60386 0 0 -30.59795 163.845 186.36)" x1="0" y1="0" x2="1" y2="0" spreadMethod="pad"/><linearGradient xlink:href="#m" id="D" gradientUnits="userSpaceOnUse" gradientTransform="matrix(30.70255 0 0 -30.69662 190.862 163.047)" x1="0" y1="0" x2="1" y2="0" spreadMethod="pad"/><linearGradient xlink:href="#n" id="E" gradientUnits="userSpaceOnUse" gradientTransform="matrix(25.40799 0 0 -25.40308 206.612 138.524)" x1="0" y1="0" x2="1" y2="0" spreadMethod="pad"/><linearGradient xlink:href="#o" id="F" gradientUnits="userSpaceOnUse" gradientTransform="matrix(60.14453 0 0 -60.13292 171.985 107.825)" x1="0" y1="0" x2="1" y2="0" spreadMethod="pad"/><linearGradient xlink:href="#p" id="G" gradientUnits="userSpaceOnUse" gradientTransform="matrix(79.56597 0 0 -79.5506 60.181 202.09)" x1="0" y1="0" x2="1" y2="0" spreadMethod="pad"/></defs><g transform="matrix(.45488 0 0 -.45488 1 251)"><use xlink:href="#q" transform="matrix(-1 0 0 1 551.928 5.77)" width="100%" height="100%"/><g id="q"><path d="M90.096 98.81L50.484 69.105 121.976 46.2l20.735 78.915s-15.165-1.862-25.686 5.88c-10.526 7.732-47.356 36.512-47.356 36.512z" fill="url(#r)"/><path d="M142.713 125.112s-15.164-1.856-25.69 5.881c-10.521 7.737-47.352 36.511-47.352 36.511L90.1 98.807 50.481 69.102l71.498-22.899z" fill="none" stroke="#79580b" stroke-width="4.349" stroke-miterlimit="10"/><path d="M200.59 123.255l.307-39.61-54.471-3.4-17.021 27.536s-.62 5.263 15.783 9.594c16.403 4.33 55.402 5.88 55.402 5.88" fill="#dbdbdb"/><path d="M200.59 123.255l.307-39.61-54.471-3.4-17.021 27.536s-.62 5.263 15.783 9.594c16.403 4.33 55.402 5.88 55.402 5.88z" fill="none" stroke="#875d00" stroke-width="4.349" stroke-miterlimit="10"/></g></g><g color="#000" font-weight="400" font-family="sans-serif" stroke-width="4.349" stroke-miterlimit="10"><path d="M126.914 250.99c-8.193.11-13.746-.67-13.746-.67l-.033-.004-59.273-12.326 4.173-23.047 1.022-15.845 1.616 2.306 2.741 3.914c.32.079 8.944 2.21 19.354 4.592 10.602 2.426 22.741 5.03 28.596 5.718 11.786 1.388 29.63.27 29.652.27 17.565-1.752 29.984-5.435 38.22-8.638a110.35 110.35 0 0 0 9.352-4.155c1.081-.536 1.932-.968 2.6-1.273.334-.153.62-.274.893-.363.272-.089.513-.185.94-.114.578.097.99.517 1.213.905.223.388.338.798.425 1.24.174.884.21 1.91.197 2.921-.023 1.87-.214 3.41-.246 3.674.16.349 2.426 5.285 4.561 10.795 1.106 2.854 2.153 5.803 2.81 8.27.328 1.234.56 2.345.647 3.3.087.955.11 1.772-.392 2.525l-.13.194-.2.115c-5.87 3.376-16.225 6.152-27.234 8.512-11.008 2.361-22.631 4.26-30.79 5.665-6.187 1.066-12.053 1.452-16.968 1.518z" style="line-height:normal;text-indent:0;text-align:start;text-decoration-line:none;text-decoration-style:solid;text-decoration-color:#000;text-transform:none;white-space:normal;isolation:auto;mix-blend-mode:normal;solid-color:#000;solid-opacity:1" overflow="visible" fill="#cf9800"/><path d="M122.434 248.986c5.506.138 13.033-.072 21.113-1.464 8.174-1.409 19.768-3.303 30.71-5.65 10.762-2.308 20.88-5.102 26.341-8.143.022-.097.121-.417.06-1.09-.07-.77-.278-1.8-.59-2.97-.621-2.34-1.65-5.247-2.74-8.064-2.184-5.633-4.618-10.915-4.618-10.915l-.117-.255.033-.28s.229-1.878.252-3.758c.011-.94-.035-1.883-.16-2.515-.046-.239-.102-.364-.15-.48a7.205 7.205 0 0 0-.558.229c-.6.273-1.453.706-2.544 1.246-2.18 1.08-5.32 2.595-9.514 4.226-8.388 3.263-21.004 6.996-38.763 8.765l-.018.002h-.018s-17.877 1.153-30.02-.278c-6.11-.718-18.185-3.324-28.806-5.754-10.621-2.43-19.744-4.684-19.744-4.684l-.36-.089-1.554-2.218-.667 10.337-3.85 21.262 57.318 11.918c.04.006 3.49.485 8.964.622z" style="line-height:normal;text-indent:0;text-align:start;text-decoration-line:none;text-decoration-style:solid;text-decoration-color:#000;text-transform:none;white-space:normal;isolation:auto;mix-blend-mode:normal;solid-color:#000;solid-opacity:1" overflow="visible" fill="#fff"/></g><path d="M74.708 218.062l3.944.201.02.713-2.497 10.824 6.909.88.018.718-.803 3.473-10.889-2.512.008-.749 3.29-13.548zm14.844 3.204l11.57 1.575.01.713-.666 3.372-7.632-1.508-.434 2.2 6.904.65.008.716-.623 3.145-6.91-1.364-.453 2.283 7.732.818.003.708-.671 3.393-11.681-2.306.01-.73 2.833-13.665zm13.016 9.614l.007-.041c.884-4.183 4.86-6.773 9.29-5.838 2.34.493 4.17 1.128 5.377 2.572.01.291.01.382.013.728l-2.937 2.337c-.844-1.077-1.745-1.782-3.181-2.084-2.072-.437-4.037.947-4.5 3.142l-.007.041c-.493 2.337.775 4.341 3.053 4.821.984.21 1.766.16 2.422-.108l.37-1.746-2.81-.591.018-.738.596-2.175 6.576.664.007.726-1.358 6.44c-1.787.95-4.083 1.474-6.707.919-4.473-.943-7.146-4.72-6.23-9.069m25.783 4.388l-1.635-4.15-1.658 4.15zm-3.564-8.97h3.92l6.24 14.036.007.741h-4.362l-1.046-2.641h-5.681l-1.049 2.641h-4.256l.003-.74 6.224-14.037zm11.709.052l-.003-.726 3.768.25 6.963 6.938-.974-7.694.016-.726 5.803 14.044.013.736-3.515.444-7.247-7.199.992 7.25.015.737-3.992.503-1.84-14.558zm27.807-7.946l.01.73-2.738 2.676-2.923.433.023-.751 5.628-3.088zm-9.838 5.482l-.005-.729 12.175 1.653.013.736-7.694 1.146.33 2.218 7.43 1.39.011.746-6.968 1.035.344 2.303 8.29 1.516.015.744-11.779 1.753-2.162-14.511zm17.252 10.162l.02-.752c1.695.78 4.941-1.4 6.594-1.794 1.08-.258 1.565-.76 1.418-1.371l-.01-.042c-.145-.612-.687-.805-2.756-.808-3.205.031-5.754-.266-6.449-3.184l-.01-.038c-.63-2.652 7.247-5.67 10.746-6.081.057.372.029.343.018.692l-1.312 3.266c-1.529-.627-3.068-.756-4.333-.457-.958.23-1.335.728-1.209 1.26l.01.039c.155.653.713.821 2.818.795 3.435-.064 5.726.512 6.361 3.181l.01.042c.695 2.915-1.195 5.197-4.664 6.024-2.528.601-5.103.374-7.252-.772" fill="#a17300"/><path d="M74.708 217.334l3.965.914-2.498 10.824 6.927 1.599-.803 3.473-10.889-2.513zm14.844 3.204l11.58 2.288-.666 3.372-7.632-1.508-.434 2.2 6.912 1.366-.623 3.145-6.91-1.363-.453 2.282 7.735 1.526-.671 3.393-11.682-2.306zm13.016 9.614l.007-.041c.884-4.183 4.86-6.773 9.29-5.838 2.523.532 4.148 1.668 5.39 3.3l-2.937 2.337c-.844-1.077-1.745-1.782-3.181-2.084-2.072-.436-4.037.948-4.5 3.142l-.007.042c-.493 2.336.775 4.34 3.053 4.82.984.21 1.766.16 2.422-.108l.37-1.746-2.81-.59.614-2.913 6.583 1.389-1.358 6.44c-1.787.95-4.083 1.474-6.707.919-4.473-.943-7.146-4.72-6.23-9.069m25.783 4.388l-1.635-4.149-1.658 4.15zm-3.564-8.97h3.92l6.247 14.778h-4.362l-1.046-2.642h-5.681l-1.049 2.642h-4.256zm11.709.052l3.765-.475 6.963 6.938-.974-7.695 3.996-.503 1.836 14.557-3.515.445-7.247-7.2 1.008 7.987-3.993.504zm23.895-7.798l3.922.581-2.737 2.675-2.926.437zm-5.925 5.332l11.673-1.737.51 3.4-7.694 1.147.328 2.218 6.97-1.038.47 3.17-6.968 1.039.344 2.3 7.796-1.16.512 3.42-11.78 1.755zm17.251 10.164l1.576-3.155c1.694.782 3.385 1.004 5.038.61 1.08-.26 1.565-.76 1.418-1.372l-.01-.041c-.145-.612-.687-.806-2.756-.808-3.205.03-5.754-.269-6.449-3.184l-.01-.039c-.63-2.652 1.012-5.069 4.44-5.885 2.427-.578 4.478-.377 6.324.496l-1.312 3.267c-1.529-.628-3.068-.757-4.333-.457-.958.23-1.335.728-1.209 1.26l.01.038c.155.654.713.821 2.818.796 3.435-.065 5.726.51 6.361 3.18l.01.042c.695 2.915-1.195 5.198-4.664 6.024-2.528.602-5.103.374-7.252-.772" fill="#cf9800"/><path d="M251.112 2.701H5.437L126.982 207.93z" fill="#fff"/><path d="M26.87 35.905L8.579 4.708h241.019l-20.23 31.197zm99.635 167.173l-97.051-163.3h197.333zM1.001 1l125.22 210.364L255.73 1z" fill="#cf9800"/><path d="M1.011 1l.651 1.09h253.382L255.73 1zm25.825 34.865l.653 1.098h201.177l.736-1.09-202.566-.008z" fill="#e4c444"/><path d="M8.58 4.708l.41.713h240.15l.458-.713z" fill="#a17300"/><path d="M29.4 39.699l.411.713h196.62l.455-.713zm96.821 171.663l.041.969L255.731 2.878V1.001L126.22 211.362z" fill="#3f3400"/><path d="M126.261 212.33L1.011 2.903 1 1.002l125.235 210.376" fill="#3f3400"/><path d="M28.724 20.825v-.044c0-4.44 3.396-7.921 8.01-7.921 3.113 0 5.117 1.306 6.468 3.155l-3.18 2.46c-.87-1.066-1.872-1.786-3.331-1.786-2.133 0-3.634 1.828-3.634 4.049v.043c0 2.286 1.5 4.07 3.634 4.07 1.59 0 2.526-.739 3.44-1.849l3.18 2.265c-1.44 1.98-3.376 3.436-6.728 3.436-4.355 0-7.86-3.328-7.86-7.878m16.417-7.661h4.223V24.7h7.381v3.7H45.14zm12.826 8.554v-8.555h4.266v8.467c0 2.2 1.11 3.243 2.81 3.243 1.717 0 2.828-1 2.828-3.135v-8.575h4.269v8.446c0 4.896-2.81 7.073-7.14 7.073-4.311 0-7.033-2.198-7.033-6.964m24.014.478h-3.22v2.807h3.264c1.307 0 2.025-.498 2.025-1.392v-.043c0-.827-.654-1.372-2.069-1.372m1.46-4.33c0-.85-.677-1.306-1.917-1.306H78.76v2.677h2.655c1.283 0 2.024-.436 2.024-1.33v-.04zm-8.797-4.702h7.818c1.913 0 3.264.478 4.158 1.348.61.633.978 1.438.978 2.482v.043c0 1.764-1.002 2.81-2.35 3.396 1.85.61 3.024 1.655 3.024 3.723v.044c0 2.61-2.133 4.199-5.77 4.199h-7.858zm25.823 3.722v7.77h1.72c2.546 0 4.223-1.393 4.223-3.853v-.044c0-2.438-1.677-3.873-4.223-3.873h-1.72zm-4.223-3.721h5.899c5.42 0 8.577 3.132 8.577 7.53v.043c0 4.397-3.2 7.661-8.665 7.661h-5.81zm16.678-.001h12.257v3.568H117.1v2.33h7.316v3.33H117.1v2.417h8.187v3.592H112.92zm20.793 7.574c1.48 0 2.417-.806 2.417-2.004v-.04c0-1.307-.937-1.981-2.438-1.981h-2.004v4.025h2.025zm-6.248-7.573h6.553c3.832 0 6.314 1.98 6.314 5.332v.044c0 3.612-2.766 5.505-6.531 5.505h-2.113v4.353h-4.223zm26.234 7.66v-.044c0-2.22-1.567-4.113-3.897-4.113s-3.874 1.872-3.874 4.07v.043c0 2.2 1.589 4.114 3.918 4.114 2.307 0 3.854-1.872 3.854-4.07m-12.082 0v-.044c0-4.374 3.525-7.921 8.228-7.921 4.703 0 8.185 3.503 8.185 7.878v.043c0 4.375-3.526 7.922-8.229 7.922-4.703 0-8.184-3.504-8.184-7.878m25.625-.348c1.416 0 2.265-.697 2.265-1.807v-.042c0-1.219-.893-1.83-2.288-1.83h-2.784v3.679h2.807zm-7.032-7.312h7.205c2.33 0 3.942.609 4.964 1.631.894.894 1.35 2.045 1.35 3.548v.044c0 2.35-1.241 3.896-3.134 4.702l3.636 5.309h-4.855l-3.071-4.614h-1.87v4.614h-4.225zm19.378 3.699h-4.55v-3.7h13.347v3.7h-4.574V28.4h-4.223zm10.755-3.701h4.223V28.4h-4.223zm5.815.001h4.704l3.46 9.641 3.484-9.641h4.615l-6.182 15.345h-3.92zm28.348 7.661v-.044c0-2.22-1.568-4.113-3.898-4.113-2.329 0-3.873 1.872-3.873 4.07v.043c0 2.2 1.588 4.114 3.917 4.114 2.307 0 3.854-1.872 3.854-4.07m-12.082 0v-.044c0-4.374 3.525-7.921 8.228-7.921 4.703 0 8.185 3.503 8.185 7.878v.043c0 4.375-3.526 7.922-8.229 7.922-4.702 0-8.184-3.504-8.184-7.878M62.397 66.37v-.064c0-6.672 5.103-11.906 12.037-11.906 4.68 0 7.689 1.963 9.716 4.743l-4.775 3.695c-1.31-1.603-2.813-2.682-5.005-2.682-3.205 0-5.463 2.75-5.463 6.083v.067c0 3.434 2.258 6.115 5.463 6.115 2.388 0 3.793-1.11 5.167-2.779l4.778 3.4c-2.161 2.978-5.072 5.168-10.108 5.168-6.544 0-11.81-5.004-11.81-11.84m114.595-5.919v11.677h2.585c3.828 0 6.346-2.095 6.346-5.79v-.064c0-3.664-2.518-5.823-6.346-5.823zm-6.345-5.593h8.863c8.146 0 12.89 4.71 12.89 11.318v.064c0 6.608-4.809 11.514-13.019 11.514h-8.734zm-51.569 111.076h5.625v15.367h9.832v4.929h-15.457z" fill="#cf9800"/><path d="M117.376 52.49v1.477l1 .02-1-1.497zm19.998 0v1.477l-1 .02 1-1.497z" fill="#e4c444"/><path d="M163.579 55.809s-1.774-2.448-2.712-2.603c-.937-.155-1.795.077-1.952.625-.155.545-1.25 2.342-1.25 2.342s-.78-1.092-1.718-1.092c-.935 0-2.655 2.184-2.497 5.618.155 3.437.313 4.14.313 4.14l-5.388.312s-1.797-3.75-2.342-5.699c-.548-1.952-.938-3.28-.938-3.28s-3.435 4.607-9.917 4.607c-6.48 0-5.387-3.981-4.995-4.294.39-.312 6.09-2.11 6.948-3.124.86-1.015-.703-3.044-1.873-3.824-1.172-.78-4.607-3.67-4.607-3.67h-1.563v-1.404l1.555-.547.008-1.328-1.795.313-.08-1.291s-.437-.31-1.248-.377v-.013c-.056 0-.105.005-.157.005-.052 0-.1-.005-.155-.005v.013c-.814.067-1.25.377-1.25.377l-.077 1.29-1.798-.312.013 1.338 1.55.537v1.405h-1.563s-3.435 2.889-4.605 3.669c-1.172.78-2.735 2.81-1.875 3.824.86 1.015 6.56 2.812 6.95 3.124.39.313 1.482 4.294-4.997 4.294-6.48 0-9.917-4.606-9.917-4.606s-.39 1.327-.935 3.279c-.548 1.95-2.343 5.699-2.343 5.699l-5.39-.313s.158-.702.313-4.139c.157-3.434-1.56-5.618-2.498-5.618-.937 0-1.717 1.092-1.717 1.092s-1.092-1.797-1.25-2.342c-.155-.548-1.015-.78-1.952-.625-.938.155-2.717 2.577-2.717 2.577l14.429 26.541 21.784-1.861 21.784 1.861L163.58 55.81z" fill="#e4c444"/><path d="M148.375 65.15v1.32l5.387-.313v-1.32zm-47.395-.312v1.319l5.388.312v-1.32z" fill="#79580b"/><path d="M163.6 55.774s-1.795-1.093-2.732-1.25c-.938-.155-1.795.077-1.953.625-.155.547-1.25 2.342-1.25 2.342s-.78-1.093-1.717-1.093c-.938 0-2.655 2.185-2.497 5.622.154 3.434.312 4.136.312 4.136l-5.387.313s-1.798-3.747-2.343-5.7c-.547-1.951-.937-3.278-.937-3.278s-3.435 4.606-9.917 4.606c-6.48 0-5.388-3.981-4.998-4.294.393-.312 6.093-2.107 6.95-3.122.86-1.014-.702-3.044-1.875-3.826-1.17-.78-4.605-3.67-4.605-3.67h-1.562v-1.404l1.405-.468.157-1.404-1.797.312-.078-1.952s-.436-.31-1.25-.377v-.013c-.054 0-.103.005-.155.005-.051 0-.1-.005-.154-.005v.013c-.814.067-1.25.377-1.25.377l-.078 1.952-1.797-.312.157 1.404 1.405.468v1.404h-1.562s-3.435 2.89-4.608 3.67c-1.17.782-2.732 2.812-1.872 3.826.857 1.015 6.557 2.81 6.95 3.122.39.313 1.482 4.294-4.998 4.294-6.482 0-9.917-4.606-9.917-4.606s-.39 1.327-.937 3.279c-.545 1.952-2.343 5.699-2.343 5.699l-5.387-.313s.157-.702.312-4.136c.158-3.437-1.56-5.622-2.497-5.622-.937 0-1.717 1.093-1.717 1.093s-1.095-1.795-1.25-2.342c-.158-.548-1.015-.78-1.953-.625-.937.157-2.732 1.25-2.732 1.25l14.444 27.868 21.784-1.859 21.785 1.86z" fill="#cf9800"/><path d="M105.587 83.642l21.784-1.859 21.785 1.86.457-.881a42.44 42.44 0 0 0-22.567-6.47 42.44 42.44 0 0 0-22.076 6.16zm17.212-30.522c0-1.532 1.97-2.774 4.398-2.774 2.43 0 4.398 1.242 4.398 2.773 0 1.532-1.968 2.774-4.398 2.774-2.428 0-4.398-1.242-4.398-2.774" fill="#79580b"/><path d="M127.047 83.29c-20.276 0-36.774 16.493-36.774 36.767 0 20.272 16.498 36.767 36.774 36.767s36.774-16.495 36.774-36.767c0-20.274-16.498-36.766-36.774-36.766m0 79.461c-23.545 0-42.703-19.154-42.703-42.695 0-23.543 19.158-42.697 42.703-42.697 23.548 0 42.703 19.154 42.703 42.697 0 23.541-19.155 42.695-42.703 42.695" fill="#e4c444"/><path d="M127.047 85.29c-20.276 0-36.774 16.492-36.774 36.767 0 20.272 16.498 36.766 36.774 36.766s36.774-16.494 36.774-36.766c0-20.275-16.498-36.767-36.774-36.767m0 79.462c-23.545 0-42.703-19.154-42.703-42.695 0-23.544 19.158-42.698 42.703-42.698 23.548 0 42.703 19.154 42.703 42.698 0 23.54-19.155 42.695-42.703 42.695" fill="#79580b"/><path d="M120.128 161.018l-16.805-6.324v-67.3l16.805-5.768zm30.642-7.529l-16.804 7.53V81.625l16.805 5.647z" fill="#0b1f6f"/><path d="M150.863 153.609h-1.767V91.858h1.767zm-45.978 0h-1.873V91.858h1.873z" fill="#07174c"/><path d="M120 160.072h-1.611V84.545H120zm15.594 0h-1.56V84.53h1.56z" fill="#205f9b"/><path d="M127.047 84.302c-20.276 0-36.774 16.492-36.774 36.767 0 20.272 16.498 36.766 36.774 36.766s36.774-16.494 36.774-36.766c0-20.275-16.498-36.767-36.774-36.767m0 79.462c-23.545 0-42.703-19.154-42.703-42.695 0-23.544 19.158-42.698 42.703-42.698 23.548 0 42.703 19.154 42.703 42.698 0 23.54-19.155 42.695-42.703 42.695" fill="#cf9800"/><path d="M95.608 53.505v1.325s.189.343.414.793c.224.451 1.056 1.869 1.056 1.869v-1.32l-1.15-2.122s-.214-.522-.32-.545m63.52 0v1.325s-.189.343-.413.793c-.225.451-1.057 1.869-1.057 1.869v-1.32l1.15-2.122s.214-.522.32-.545" fill="#a17300"/><path d="M122.799 52.282c0-1.531 1.97-2.773 4.398-2.773 2.43 0 4.398 1.242 4.398 2.773 0 1.531-1.968 2.773-4.398 2.773-2.428 0-4.398-1.242-4.398-2.773" fill="#e94f2b"/><path d="M109.647 56.172v1.32s-1.345 4.976-2.226 6.894c-.87 1.898-1.054 2.081-1.054 2.081V65.15s1.03-1.52 3.28-8.978m35.453 0v1.32s1.345 4.976 2.226 6.894c.87 1.898 1.054 2.081 1.054 2.081V65.15s-1.03-1.52-3.28-8.978" fill="#a17300"/><path d="M122.799 52.734c0-1.48 1.97-2.677 4.398-2.677 2.43 0 4.398 1.198 4.398 2.677 0 1.48-1.968 2.68-4.398 2.68-2.428 0-4.398-1.2-4.398-2.68" fill="#f50605"/><path d="M125.492 68.292a1.635 1.635 0 1 1 3.27.001 1.635 1.635 0 0 1-3.27 0m-9.792 1.71l5.21-1.488a.775.775 0 0 1 .956.532l.32 1.118a.774.774 0 0 1-.531.956l-5.212 1.487a.774.774 0 0 1-.956-.532l-.32-1.118a.774.774 0 0 1 .532-.955m-10.448 5.754l2.617-4.002 4.95.238-2.882 3.95zm33.389-5.771l-5.212-1.488a.774.774 0 0 0-.956.532l-.32 1.118c-.116.41.121.84.532.956l5.212 1.487a.773.773 0 0 0 .955-.532l.32-1.118a.774.774 0 0 0-.532-.955" fill="#79580b"/><path d="M125.492 67.57a1.635 1.635 0 1 1 3.27 0 1.635 1.635 0 0 1-3.27 0m-10.037 1.616l5.212-1.488a.774.774 0 0 1 .955.532l.32 1.118a.774.774 0 0 1-.532.956l-5.21 1.486a.774.774 0 0 1-.956-.532l-.32-1.118a.774.774 0 0 1 .532-.955m-10.819 5.746l3.068-4.162 4.95.238-3.068 4.162zm34.227-5.753l-5.212-1.488a.774.774 0 0 0-.955.532l-.32 1.118c-.117.411.12.84.532.956l5.211 1.487c.41.116.84-.121.956-.532l.32-1.118a.774.774 0 0 0-.532-.955" fill="#e4c444"/><path d="M104.637 74.931l.162.414.38-.37-.072-.165zm8.019-3.926l.163.414-.463.098-.175-.207z" fill="#e4c444"/><path d="M105.262 75.757l-.462-.413 8.019-3.927v.576z" fill="#79580b"/><path d="M125.492 67.952a1.635 1.635 0 1 1 3.27.001 1.635 1.635 0 0 1-3.27-.001" fill="#0b1f6f"/><path d="M115.569 69.59l5.212-1.487a.774.774 0 0 1 .955.532l.32 1.118a.774.774 0 0 1-.532.956l-5.211 1.487a.774.774 0 0 1-.956-.532l-.32-1.118a.774.774 0 0 1 .532-.955" fill="#449001"/><path d="M104.8 75.344l3.068-4.163 4.95.238-3.068 4.162z" fill="#f50605"/><path d="M148.943 75.757l-2.617-4.002-4.95.238 2.882 3.95z" fill="#79580b"/><path d="M149.558 74.931l-3.069-4.162-4.95.238 3.068 4.162z" fill="#e4c444"/><path d="M149.558 74.931l-.163.414-.38-.37.072-.165zm-8.02-3.926l-.162.414.462.098.175-.207z" fill="#e4c444"/><path d="M148.932 75.757l.463-.413-8.02-3.927v.576z" fill="#79580b"/><path d="M149.395 75.344l-3.069-4.163-4.95.238 3.068 4.162z" fill="#f50605"/><path d="M138.748 69.59l-5.212-1.487a.774.774 0 0 0-.955.532l-.32 1.118c-.117.41.12.84.531.956l5.212 1.487c.41.116.84-.121.956-.532l.32-1.118a.774.774 0 0 0-.532-.955" fill="#449001"/><path d="M129.835 47.188h-.746v-1.32h.746zm-4.181-1.32h-.783v1.32h.783z" fill="#a17300"/><g transform="matrix(.45488 0 0 -.45488 1 251)"><g id="H"><path d="M308.28 75.83l4.708 3.848s-123.26 33.81-180.61 116.817c-57.35 83.013-38.09 122.81-38.09 122.81s-5.133-55.198 13.7-90.29c18.826-35.086 33.338-64.008 92.867-102.693 59.922-38.94 107.426-50.492 107.426-50.492" fill="#3f3400"/><path d="M309.186 76.554l4.707 3.849s-123.26 33.809-180.61 116.816c-57.349 83.013-38.09 122.81-38.09 122.81s-5.133-55.197 13.7-90.29c18.827-35.086 33.338-64.007 92.868-102.693 59.921-38.94 107.425-50.492 107.425-50.492" fill="#e4c444"/><path d="M308.778 76.2l4.706 3.848s-123.26 33.81-180.61 116.817c-57.349 83.013-38.084 122.81-38.084 122.81s-5.139-55.198 13.694-90.29c18.827-35.086 33.339-64.008 92.868-102.693C261.273 87.752 308.778 76.2 308.778 76.2" fill="#cf9800"/><path d="M86.127 311.76s-7 22.933-8.449 38.385c-1.453 15.451.483 23.177 11.344 37.175 10.867 14.004 26.804 27.281 26.804 27.281s9.414-28.973.483-48.766c-8.937-19.794-30.182-54.075-30.182-54.075" fill="#00aa30"/><path d="M87.576 387.317c-10.867-13.998-12.798-21.724-11.35-37.175 1.448-15.452 8.448-38.385 8.448-38.385s21.246 34.28 30.188 54.08c8.93 19.794.931 48.727.931 48.727s-17.35-13.243-28.217-27.247" fill="url(#s)"/><path d="M96.309 276.611s-31.942 12.284-37.733 27.202c-5.792 14.912-6.672 41.058-6.672 41.058s31.943-15.264 40.72-33.162c8.772-17.903 3.685-35.098 3.685-35.098" fill="#00aa30"/><path d="M57.342 303.458c5.797-14.912 37.74-27.201 37.74-27.201s5.086 17.2-3.685 35.097C82.619 329.258 51.909 344.8 51.909 344.8s-.358-26.424 5.433-41.342" fill="url(#t)"/><path d="M106.488 241.691s-15.619 38.782-27.03 47.728c-11.407 8.952-33.345 13.692-33.345 13.692s7.017-32.288 18.43-42.642c11.405-10.354 41.945-18.778 41.945-18.778" fill="#00aa30"/><path d="M46.14 303.118s6.995-33.525 18.402-43.88c11.406-10.353 41.946-18.772 41.946-18.772s-15.62 38.777-27.031 47.728c-11.4 8.947-33.316 14.924-33.316 14.924z" fill="url(#u)"/><path d="M121.056 216.247s-14.04 21.934-30.188 32.464c-16.147 10.53-43.7 10.882-43.7 10.882s14.216-31.59 32.118-37.38c17.901-5.79 41.77-5.966 41.77-5.966" fill="#00aa30"/><path d="M47.185 259.556s14.194-32.781 32.101-38.571c17.896-5.79 41.765-5.966 41.765-5.966s-14.035 21.934-30.182 32.458c-16.147 10.53-43.684 12.08-43.684 12.08z" fill="url(#v)"/><path d="M139.84 187.395s-20.979 18.307-31.159 22.865c-10.18 4.564-17.725 6.846-26.855 6.494-9.123-.352-22.267-.885-22.267-.885s20.865-27.19 36.66-30.875c15.795-3.684 43.621 2.401 43.621 2.401" fill="#0b3d00"/><path d="M139.592 187.89s-20.11 20.287-30.29 24.846c-10.18 4.564-17.725 6.846-26.854 6.494-9.124-.352-22.29-2.805-22.29-2.805s20.887-25.271 36.682-28.955c15.795-3.684 42.752.42 42.752.42" fill="#00aa30"/><path d="M76.879 179.234s23.454-18.454 34.474-23.705c11.026-5.256 51.65 5.637 51.65 5.637-.256.38-30.37 21.02-46.267 23.325-2.101.3-4.35.437-6.66.437-15.154 0-33.197-5.694-33.197-5.694" fill="url(#w)"/><path d="M177.709 149.287s-21.234-14.51-36.49-18.222c-15.25-3.718-50.843 8.373-50.843 8.373s24.056 19.817 38.54 21.224c14.483 1.408 48.793-11.375 48.793-11.375" fill="#00aa30"/><path d="M177.848 149.287s-21.376-17.404-36.626-21.122c-15.25-3.719-50.848 11.307-50.848 11.307s24.061 16.882 38.545 18.29c14.483 1.413 48.929-8.475 48.929-8.475" fill="#0b3d00"/><path d="M129.556 159.429c-14.484-1.408-39.215-19.993-39.215-19.993s36.274-13.322 51.518-9.61c15.256 3.724 36.013 19.482 36.013 19.482s-30.046 10.246-45.63 10.246c-.949 0-1.846-.046-2.686-.125" fill="url(#x)"/><path d="M213.273 127.073s-16.942 7.987-41.69 11.381c-24.75 3.395-52.007-17.813-52.007-17.813s25.48-14.287 52.17-15.718c26.691-1.425 45.08 23.07 45.08 23.07z" fill="#00aa30"/><path d="M214.116 125.506s-16.942 7.986-41.69 11.381c-24.75 3.395-52.762-16.274-52.762-16.274s26.236-15.827 52.926-17.257c26.69-1.425 45.08 23.07 45.08 23.07z" fill="#0b3d00"/><path d="M119.586 120.579s26.23-14.645 52.915-16.076c26.69-1.425 45.08 23.07 45.08 23.07l-3.549-.92s-16.947 7.987-41.69 11.381a41.528 41.528 0 0 1-5.632.37c-23.176.005-47.124-17.825-47.124-17.825" fill="url(#y)"/><path d="M232.198 109.489s-16.181-12.494-28.025-12.114c-11.843.38-27.95 6.88-30.068 8.084-1.238.698-2.095 1.52-2.095 1.52s14.319 10.196 27.547 10.071c13.235-.125 32.64-7.561 32.64-7.561" fill="#0b3d00"/><path d="M231.534 109.801s-15.625-9.491-27.469-9.11c-11.843.38-29.33 5.205-31.363 5.897-.738.256.176 1.016.176 1.016s13.366 11.041 26.6 10.916c13.234-.125 32.056-8.719 32.056-8.719M102.047 252.797s19.332 37.959 19.332 59.927c0 21.968-15.698 47.557-15.698 47.557s-15.931-23.654-21.002-46.348c-5.075-22.69 15.194-56.788 17.368-61.136" fill="#00aa30"/><path d="M86.128 313.937c-5.07-22.694 13.745-56.98 15.92-61.329 0 0 20.78 38.146 20.78 60.114 0 21.968-17.095 47.507-17.095 47.507s-14.535-23.603-19.605-46.292" fill="url(#z)"/><path d="M139.134 188.994s6.399 33.054 5.672 53.33c-.727 20.277-8.448 31.386-14.006 37.658-5.553 6.278-11.85 14.946-11.85 14.946s-18.815-42.948-10.605-63.95c8.21-21.004 30.79-41.984 30.79-41.984" fill="#00aa30"/><path d="M109.798 230.981c8.21-21.003 29.977-43.556 29.977-43.556s7.205 34.621 6.478 54.898c-.72 20.276-8.448 31.385-14 37.658-5.553 6.278-13.28 14.968-13.28 14.968s-17.39-42.97-9.175-63.968" fill="url(#A)"/><path d="M161.03 164.176s9.18 24.766 7.914 41.79c-1.266 17.018-3.077 25.709-9.238 35.847-6.154 10.138-5.972 10.842-5.972 10.842s-12.315-23.336-13.587-40.9c-1.266-17.562 11.287-34.183 20.882-47.58" fill="#00aa30"/><path d="M141.598 211.76c-1.266-17.568 9.833-34.303 19.434-47.7 0 0 10.629 24.881 9.363 41.905-1.267 17.018-3.083 25.709-9.238 35.847-6.154 10.138-7.426 10.865-7.426 10.865s-10.861-23.36-12.133-40.917" fill="url(#B)"/><path d="M183.384 144.826s9.805 28.637 9.612 43.442c-.193 14.798-7.88 26.52-12.303 32.674-4.423 6.147-6.342 8.458-6.342 8.458s-14.42-26.334-11.537-46.133c2.885-19.8 20.57-38.441 20.57-38.441" fill="#00aa30"/><path d="M164.263 181.823c2.884-19.806 20.57-38.447 20.57-38.447s9.805 28.643 9.612 43.442c-.188 14.799-7.88 26.526-12.304 32.674-4.422 6.153-7.79 9.849-7.79 9.849s-12.972-27.724-10.088-47.518" fill="url(#C)"/><path d="M196.153 199.106s-7.528-26.764-6.126-39.02c1.402-12.25 23.534-33.105 23.534-33.105s7.63 19.805 6.932 33.457c-.704 13.652-10.685 28.69-24.34 38.668" fill="#00aa30"/><path d="M191.055 160.422c1.408-12.255 22.415-33.434 22.415-33.434s8.75 20.129 8.051 33.786c-.698 13.647-11.724 28.354-25.384 38.328 0 0-6.478-26.424-5.082-38.68" fill="url(#D)"/><path d="M232.154 109.402s1.175 29.989-3.447 38.663c-4.627 8.668-16.187 18.108-16.187 18.108s-9.254-23.507-2.123-36.03c7.131-12.521 21.757-20.741 21.757-20.741" fill="#0b3d00"/><path d="M230.638 111.872s1.158 30.057-3.47 38.73c-4.627 8.669-16.186 18.109-16.186 18.109s-9.255-23.507-2.124-36.03c7.132-12.521 21.78-20.81 21.78-20.81" fill="#00aa30"/><path d="M209.309 131.228c7.136-12.522 22.71-21.44 22.71-21.44s.221 30.693-4.4 39.36c-4.627 8.674-16.187 18.114-16.187 18.114s-9.249-23.506-2.123-36.034" fill="url(#E)"/><path d="M199.231 117.468c-13.166 0-27.247-10.467-27.247-10.467s-.022 0 2.027-1.124c1.88-1.033 18.27-7.311 30.12-7.686 11.849-.38 28.002 11.393 28.002 11.393s-19.43 7.76-32.664 7.884h-.238" fill="url(#F)"/><path d="M81.75 218.703c-9.13-.346-21.569-2.282-21.569-2.282s20.161-25.794 35.956-29.478c15.801-3.684 43.61.573 43.61.573s-20.967 20.135-31.147 24.699c-9.499 4.257-16.704 6.522-25.038 6.522-.597 0-1.198-.012-1.812-.034" fill="url(#G)"/></g><use xlink:href="#H" transform="matrix(-1 0 0 1 552.343 0)" width="100%" height="100%"/></g></svg>