<svg xmlns="http://www.w3.org/2000/svg" width="524" height="700"><path d="M262.174 197.828c35.708-.361 75.964 5.786 121.402 14.302C439.16 226.298 490.5 241.072 524 250.317 499.772 458.089 359.107 619.455 262 700 163.426 619.837 19.897 458.089 0 250.317c33.5-9.245 85.607-24.019 141.168-38.187 45.438-8.516 85.275-14.663 121.006-14.302" fill="#c2a000"/><path d="M366.739 223.865c2.975.545 5.99 1.104 9.007 1.669 52.151 13.289 100.718 27.173 132.137 35.852C474.933 474.008 337.986 615.263 262 682.04l-.064-152.172c32.1-13.208 105.045-84.441 105.045-183.459l-.24-122.544z" fill="#002c50"/><path d="M157.258 223.865c-2.974.545-5.989 1.104-9.007 1.669-52.15 13.289-100.717 27.173-132.137 35.852 32.95 212.622 169.898 353.877 245.885 420.654l.063-152.172c-32.1-13.208-105.045-84.441-105.045-183.459l.241-122.544z" fill="#e20622"/><path d="M172.305 221.212c32.863-5.622 62.602-9.248 89.674-8.984 27.025-.264 56.676 3.342 89.476 8.93l-.155 133.57c0 84.237-62.055 144.857-89.365 156.092-29.869-12.86-89.432-71.855-89.432-156.093l-.198-133.515z" fill="#fff"/><path d="M238.406 521.528c0-12.653 10.257-22.915 22.938-22.915 12.682 0 22.959 10.262 22.959 22.915 0 12.663-10.277 22.925-22.959 22.925-12.681 0-22.938-10.262-22.938-22.925" fill="#c2a000"/><path d="M248.224 521.528c0-7.238 5.882-13.098 13.12-13.098 7.24 0 13.121 5.86 13.121 13.098s-5.882 13.101-13.12 13.101c-7.24 0-13.121-5.863-13.121-13.101" fill="#fff"/><path d="M335.885 316.605c0-12.643 10.277-22.915 22.938-22.915 12.682 0 22.959 10.272 22.959 22.915 0 12.663-10.277 22.925-22.959 22.925-12.661 0-22.938-10.262-22.938-22.925" fill="#c2a000"/><path d="M345.704 316.605c0-7.228 5.882-13.101 13.117-13.101 7.262 0 13.144 5.873 13.144 13.101 0 7.248-5.882 13.111-13.144 13.111-7.235 0-13.117-5.863-13.117-13.11" fill="#fff"/><path d="M140.905 316.605c0-12.643 10.277-22.915 22.958-22.915 12.662 0 22.939 10.272 22.939 22.915 0 12.663-10.277 22.925-22.939 22.925-12.681 0-22.958-10.262-22.958-22.925" fill="#c2a000"/><path d="M150.745 316.605c0-7.228 5.858-13.101 13.12-13.101 7.24 0 13.121 5.873 13.121 13.101 0 7.248-5.882 13.111-13.12 13.111-7.263 0-13.121-5.863-13.121-13.11" fill="#fff"/><path d="M318.436 424.476c0-12.663 10.276-22.915 22.958-22.915 12.682 0 22.962 10.252 22.962 22.915 0 12.663-10.28 22.915-22.962 22.915s-22.958-10.252-22.958-22.915" fill="#c2a000"/><path d="M328.276 424.476c0-7.238 5.862-13.101 13.12-13.101 7.239 0 13.12 5.863 13.12 13.1 0 7.239-5.881 13.102-13.12 13.102-7.258 0-13.12-5.863-13.12-13.101" fill="#fff"/><path d="M158.354 424.476c0-12.663 10.257-22.915 22.938-22.915 12.682 0 22.959 10.252 22.959 22.915 0 12.663-10.277 22.915-22.959 22.915-12.681 0-22.938-10.252-22.938-22.915" fill="#c2a000"/><path d="M168.172 424.476c0-7.238 5.882-13.101 13.118-13.101 7.262 0 13.12 5.863 13.12 13.1 0 7.239-5.858 13.102-13.12 13.102-7.236 0-13.118-5.863-13.118-13.101" fill="#fff"/><path d="M335.885 213.527c0-12.653 10.277-22.915 22.938-22.915 12.682 0 22.959 10.262 22.959 22.915 0 12.663-10.277 22.914-22.959 22.914-12.661 0-22.938-10.251-22.938-22.914" fill="#c2a000"/><path d="M345.704 213.527c0-7.228 5.882-13.102 13.117-13.102 7.262 0 13.144 5.874 13.144 13.102 0 7.248-5.882 13.111-13.144 13.111-7.235 0-13.117-5.863-13.117-13.111" fill="#fff"/><path d="M140.905 213.527c0-12.653 10.277-22.915 22.958-22.915 12.662 0 22.939 10.262 22.939 22.915 0 12.663-10.277 22.914-22.939 22.914-12.681 0-22.958-10.251-22.958-22.914" fill="#c2a000"/><path d="M150.745 213.527c0-7.228 5.858-13.102 13.12-13.102 7.24 0 13.121 5.874 13.121 13.102 0 7.248-5.882 13.111-13.12 13.111-7.263 0-13.121-5.863-13.121-13.111" fill="#fff"/><path d="M238.406 204.804c0-12.664 10.257-22.915 22.938-22.915 12.682 0 22.959 10.251 22.959 22.915 0 12.663-10.277 22.914-22.959 22.914-12.681 0-22.938-10.251-22.938-22.914" fill="#c2a000"/><path d="M248.224 204.804c0-7.238 5.882-13.102 13.12-13.102 7.24 0 13.121 5.864 13.121 13.102s-5.882 13.1-13.12 13.1c-7.24 0-13.121-5.862-13.121-13.1" fill="#fff"/><g fill="#c2a000"><path d="M268.647 375.219s10.21-1.77 21.428 5.743c0 0-.985 4.408-1.594 7.499l-3.216 4.422-12.923 14.355H253.32c0-6.408 3.98-9.235 3.98-9.235h9.272s4.481-8.395 4.481-15.054l-2.405-7.73zM229.2 358.985s-14.256.328-17.907.415c-3.326.067-5.597 2.053-6.277 3.722L200.6 375.84s-2.405 9.924 7.607 12.185c0 0 1.752-5.71 3.346-10.503 0 0 .744-4.552 4.572-4.552l10.013.1 3.061-1.3v-12.784z"/><path d="M231.168 370.798l-2.163 25.72s.15 1.823-2.82 1.823h-5.82s-2.974 4.104-2.974 9.225l18.588-.25s.81-.526 3.302-5.131c3.367-6.182 12.464-22.11 12.464-22.11l-.023-7.608 3.172 2.087v3.505s13.14-8.8 25.43-4.402c0 0 16.772 4.489 19.55 16.236L301.27 398s-7.235-.598-8.505 2.251c0 0-1.815 4.05-1.815 6.987h20.118l4.066-9.238-3.674-20.717s-11.587-10.897-11.084-21.78c0 0 12.18-.994 12.18-14.781 0-13.79-12.03-19.554-15.875-22.403-2.974-2.97-2.757-5.72-.834-7.63 2.954-2.95 8.552-.033 8.552 1.616 0 0 .83 6.482 9.007 11.211l1.882-2.217s1.42 2.425 8.287 2.425c0 0 .898-4.716-4.156-9.707-5.052-5.01-11.151-10.415-19.043-10.285-6.298.087-9.074 2.566-10.89 5.997-1.685 3.185-2.536 7.89 2.844 13.282 4.656 4.633 12.571 8.573 12.571 15.426 0 4.706-3.5 4.422-3.5 4.422l-36.558-.773 5.4 10.382-15.329.218-.197 15.754-12.79-9.586-10.759 11.944z"/><path d="M231.914 293.74c-.44.003-.968.127-1.6.43-3.346 1.615-12.222 12.697-16.42 17.096-4.2 4.388-2.316 5.765-2.316 5.765l3.365 5.633 5.424-4.094 4.592.71-8.156 6.355 2.535 1.877h7.129l2.601 5.447h5.27v-9.705h2.932v-9.684h1.64v11.867h-2.93v9.708h-7.128l-12.903 12.05 9.272-.197-4.703 10.459 10.343.305-.064 11.004 11.084-12.41 11.002 8.208V350.47l14.275-.043-5.683-9.487 8.42-.043-6.167-9.214v-11.55c0-4.411-1.882-5.863-1.882-5.863l-11.196-12.021-5.027-1.615.219-1.844-2.102-1.855-9.642-.916s-.275-2.287-2.184-2.278zm-6.103 12.951l2.296 1.192-2.23 2.455-2.23-2.455 2.164-1.192z" fill-rule="evenodd"/></g><path d="M236.635 278.461l1.618 1.462-1.618 1.451-1.618-1.451 1.618-1.462z" fill="#e20622"/><path d="M245.665 280.743l1.203-1.2 1.202 1.2-1.202 1.2-1.203-1.2zm-20.444 0l1.203-1.2 1.202 1.2-1.202 1.2-1.203-1.2z" fill="#c2a000"/><path d="M256.512 281.638l.328 1.562-1.246 1.211.918-2.773zm-39.753 0l-.352 1.562 1.25 1.211-.898-2.773z" fill="#e20622"/><path d="M236.635 283.93c3.695.087 12.136.723 18.433 3.124l.523-2.174c-5.835-2.348-15.064-2.893-18.956-2.99-3.912.097-13.12.642-18.98 2.99l.523 2.174c6.321-2.401 14.739-3.037 18.457-3.124m0-5.95c2.69-.033 12.769.459 19.853 3.155l.483-2.074c-6.539-2.62-17.603-3.144-20.336-3.12-2.757-.024-13.82.5-20.336 3.12l.48 2.074c7.064-2.696 17.166-3.188 19.856-3.155" fill="#c2a000"/><path d="M247.349 270.284l1.202-1.2 1.203 1.2-1.203 1.21-1.202-1.21zm-23.856 0l1.202-1.2 1.226 1.2-1.226 1.21-1.202-1.21zm14.758-2.402l-1.618-1.615-1.638 1.615 1.638 1.616 1.618-1.616zm-1.618 7.426c-2.753-.024-13.053.401-19.307 2.772l-3.018-.525-1.946-3.134.308-.23v-2.03l-1.792-.185-2.298-3.699s4.438-2.218 5.554 2.127l2.056-1.09 2.45 2.432-.986 1.933-.807.709.415.786 6.69-1.549-.59-.635-2.23-1.438 1.443-2.228-.241-.525 1.554-2.378 2.382 1.538.023.579 2.187 1.452-1.443 2.217-.067.85 7.282-.525-.396-1.496-2.753-2.759 2.753-2.776-.194-.84 2.971-2.956 2.955 2.956-.198.84 2.777 2.776-2.777 2.76-.395 1.495 7.282.525-.064-.85-1.443-2.217 2.187-1.452.044-.579 2.381-1.538 1.531 2.378-.241.525 1.444 2.228-2.231 1.438-.566.635 6.669 1.549.435-.786-.83-.71-.985-1.932 2.448-2.432 2.057 1.09c1.115-4.345 5.554-2.127 5.554-2.127l-2.275 3.7-1.812.183v2.03l.305.231-1.946 3.134-3.018.525c-6.23-2.371-16.53-2.796-19.288-2.772" fill="#c2a000" fill-rule="evenodd"/><path d="M261.781 113.046l10.91 9.847-10.91 9.847-10.89-9.847 10.89-9.847z" fill="#e20622"/><path d="M322.657 128.429c0-4.456 3.63-8.078 8.089-8.078 4.482 0 8.113 3.622 8.113 8.078 0 4.465-3.631 8.087-8.113 8.087-4.458 0-8.09-3.622-8.09-8.087m-137.822 0c0-4.456 3.63-8.078 8.113-8.078 4.461 0 8.089 3.622 8.089 8.078 0 4.465-3.628 8.087-8.09 8.087-4.481 0-8.112-3.622-8.112-8.087" fill="#c2a000"/><path d="M395.733 134.454L398.03 145l-8.398 8.198 6.1-18.744zm-268.057 0L125.378 145l8.398 8.198-6.1-18.744z" fill="#e20622"/><path d="M261.715 149.88c24.992.636 81.846 4.923 124.396 21.125l3.497-14.64c-39.445-15.86-101.608-19.563-127.893-20.239-26.281.676-88.47 4.379-127.916 20.24l3.52 14.64c42.53-16.203 99.425-20.49 124.396-21.126m0-40.098c18.129-.14 86.197 3.11 133.886 21.276l3.216-13.961C354.799 99.4 280.215 95.865 261.715 96.025c-18.497-.16-93.107 3.375-137.121 21.072l3.212 13.96c47.69-18.164 115.804-21.416 133.91-21.275" fill="#c2a000"/><path d="M333.983 58.101v-.174c0-4.498 3.651-8.144 8.157-8.144 4.505 0 8.156 3.646 8.156 8.144l-.023.184c-.088 4.402-3.695 7.948-8.133 7.948-4.439 0-8.07-3.546-8.157-7.958m-72.289-5.448c-6.036 0-10.933-4.9-10.933-10.937 0-6.051 4.897-10.951 10.933-10.951 6.056 0 10.977 4.9 10.977 10.95 0 6.038-4.92 10.938-10.977 10.938m-72.269 5.458c-.087 4.402-3.694 7.948-8.156 7.948-4.438 0-8.046-3.546-8.133-7.958v-.174c0-4.498 3.651-8.144 8.133-8.144 4.505 0 8.156 3.646 8.156 8.144v.184zm224.13 0h.153-.154l-.154.602-.435-.602v-.01c-3.085-4.117-8.026-6.79-13.513-6.79a16.492 16.492 0 0 0-13.362 6.79 16.42 16.42 0 0 0-3.172 9.704c0 3.78 1.27 7.14 3.414 9.87h.02l3.215 3.11 5.578 4.807c1.42 2.88.107 4.846-2.844 5.315-2.951.481-30.898-8.94-45.067-10.46l-1.815-2.772c.502-1.234 2.274-2.248 5.728-1.519 6.823 1.455 13.56-2.903 15-9.726.636-2.937.177-5.84-1.069-8.319-1.685-3.297-4.767-5.84-8.659-6.659l1.682-3.612c1.554-7.305-3.126-14.486-10.451-16.038-7.302-1.562-14.498 3.11-16.052 10.415l-.217 3.897c-6.844-1.442-13.272 2.99-14.716 9.813l-.26 2.184c-.198 5.917 4.022 11.015 9.991 12.797 5.772 1.713 3.564 5.917.392 5.707-2.318-.151-38.769-3.228-49.066-3.536-5.38-.458-7.674-10.141 2.623-10.141 4.834 0 9.228-1.836 12.551-4.837 3.742-3.418 6.1-8.318 6.1-13.8 0-10.282-8.35-18.623-18.65-18.623l1.332-5.72C281.678 8.94 272.735 0 261.694 0c-11.02 0-19.964 8.94-19.964 19.958l1.313 5.72c-10.3 0-18.654 8.341-18.654 18.623 0 5.482 2.362 10.382 6.123 13.81a18.658 18.658 0 0 0 12.531 4.827c10.32 0 8.023 9.683 2.623 10.141-10.3.308-46.751 3.385-49.045 3.536-3.173.21-5.38-3.994.371-5.707 5.97-1.782 10.213-6.88 10.016-12.807l-.265-2.174c-1.464-6.823-7.892-11.255-14.715-9.813l-.218-3.897c-1.554-7.305-8.749-11.977-16.071-10.415-7.326 1.552-11.985 8.733-10.431 16.038l1.685 3.612a12.596 12.596 0 0 0-8.662 6.66c-1.267 2.478-1.705 5.381-1.092 8.318 1.463 6.823 8.18 11.181 15 9.726 3.456-.729 5.248.285 5.75 1.519l-1.835 2.773c-14.149 1.518-42.092 10.94-45.046 10.459-2.951-.469-4.264-2.435-2.864-5.315l5.597-4.807 3.216-3.11v-.01c2.144-2.72 3.41-6.08 3.41-9.86a16.35 16.35 0 0 0-3.149-9.693v-.01c-3.014-4.118-7.871-6.79-13.358-6.79-5.49 0-10.454 2.672-13.536 6.79l-.439.612-.15-.602c-7.718-28.45-37.306-13.734-37.306-13.734l8.485 13.734 6.954 11.235c3.52-2.512 8.9-2.098 12.223 1.21l2.843 7.108-2.843 6.582-2.057 1.572 7.064 11.42 5.99 9.682s3.785 9.88 20.402 3.56c16.27-6.189 36.625-10.403 56.546-13.243h-.02.02c31.617-4.518 62.166-5.565 73.558-5.468 11.436-.097 41.961.95 73.579 5.468 19.92 2.84 40.28 7.054 56.545 13.242 16.618 6.322 20.403-3.559 20.403-3.559l5.99-9.683 7.064-11.419-2.077-1.572-2.844-6.572v-.01l2.844-7.108c3.323-3.308 8.722-3.722 12.223-1.21l6.954-11.235 8.504-13.734s-29.584-14.717-37.325 13.734" fill="#c2a000"/><g fill="#fff"><path d="M91.64 341.365h17.516l-.067 9.836H91.684c-18.738 0-33.915-15.185-33.915-33.899 0-18.72 15.197-33.885 33.938-33.885l17.097.023v9.804l-17.097-.024c-13.318 0-24.12 10.787-24.12 24.082 0 13.3 10.738 24.063 24.053 24.063"/><path d="M465.835 308.755v40.154h-9.576v-13.844l-34.351-.077v14.182l-9.185.077.174-40.753c1.116-17.817 14.498-28.406 26.392-28.406 12.575 0 25.43 10.84 26.546 28.667m-9.663-.26v16.867h-34.264l-.024-16.737c.024-13.188 9.383-18.767 17.211-18.593 9.707.187 17.077 8.167 17.077 18.462M227.954 604.956c0-18.724 15.197-33.896 33.915-33.896 18.738 0 33.936 15.172 33.936 33.896 0 18.7-15.198 33.875-33.936 33.875-18.718 0-33.915-15.175-33.915-33.875m9.818 0c0-13.309 10.803-24.072 24.097-24.072 13.315 0 24.118 10.763 24.118 24.072 0 13.285-10.803 24.062-24.118 24.062-13.294 0-24.097-10.777-24.097-24.062" fill-rule="evenodd"/></g></svg>