<svg xmlns="http://www.w3.org/2000/svg" xmlns:xlink="http://www.w3.org/1999/xlink" width="600" height="600"><defs><linearGradient id="b"><stop offset="0" stop-color="#dd4b44"/><stop offset=".203" stop-color="#de5448"/><stop offset=".345" stop-color="#db3d39"/><stop offset=".485" stop-color="#cc2c2e"/><stop offset=".749" stop-color="#ae2826"/><stop offset="1" stop-color="#8a211b"/></linearGradient><linearGradient id="a"><stop offset="0" stop-color="#2277b6"/><stop offset=".104" stop-color="#4086c2"/><stop offset=".224" stop-color="#1b73b3"/><stop offset=".54" stop-color="#124783"/><stop offset=".784" stop-color="#003e73"/><stop offset="1" stop-color="#002448"/></linearGradient><radialGradient xlink:href="#a" id="c" cx="184.604" cy="139.948" fx="184.604" fy="139.948" r="300" gradientTransform="matrix(1.13543 1.12683 -1.01653 1.0243 98.862 -279.013)" gradientUnits="userSpaceOnUse"/><linearGradient xlink:href="#b" id="d" x1="215.403" y1="341.276" x2="325.32" y2="143.602" gradientUnits="userSpaceOnUse" gradientTransform="matrix(1.25 0 0 -1.25 0 520)"/></defs><path d="M300-80C134.569-80 0 54.587 0 219.988 0 385.413 134.569 520 300 520s300-134.587 300-300.012C600 54.588 465.431-80 300-80" fill="url(#c)" transform="translate(0 80)"/><path d="M299.59 21.531c-74.416 0-144.356 28.98-196.96 81.581-52.627 52.602-81.608 122.562-81.608 196.952 0 74.414 28.981 144.375 81.609 196.976 52.603 52.625 122.543 81.581 196.96 81.581 74.416 0 144.356-28.956 196.96-81.58 52.627-52.602 81.607-122.563 81.607-196.977 0-74.39-28.98-144.35-81.608-196.952-52.603-52.601-122.543-81.58-196.96-81.58m0 11.024c147.762 0 267.543 119.776 267.543 267.508 0 147.756-119.781 267.532-267.543 267.532-147.761 0-267.542-119.776-267.542-267.532 0-147.732 119.78-267.508 267.542-267.508" fill="#fff"/><path transform="translate(0 80)" d="M299.78 67.754c-4.716 0-9.408.261-14.028.666-1.048 58.03-15.24 107.657-39.195 149.685h106.35c-23.957-42.028-38.126-91.654-39.198-149.685-4.572-.405-9.215-.666-13.93-.666zm-56.714 156.328c-18.788 31.17-43.054 58.053-71.416 80.961a154.034 154.034 0 0 0 47.461 46.244 71.387 71.387 0 0 1-1.095-12.43c0-42.219 36.601-76.437 81.775-76.437 45.15 0 81.773 34.218 81.773 76.437 0 4.239-.379 8.382-1.093 12.43a153.977 153.977 0 0 0 47.412-46.195c-28.386-22.908-52.653-49.816-71.465-81.01H243.066z" fill="url(#d)"/><path d="M321.425 149.313c74.393 10.525 131.616 74.414 131.616 151.685 0 24.765-5.906 48.125-16.336 68.841-67.51-50.672-108.541-122.062-115.28-220.526m59.033 281.962a70.913 70.913 0 0 0 1.095-12.406c0-42.22-36.6-76.462-81.774-76.462-45.15 0-81.775 34.243-81.775 76.462 0 4.239.38 8.382 1.095 12.406a153.756 153.756 0 0 1-47.46-46.243c28.362-22.884 52.628-49.768 71.416-80.962h113.352c18.812 31.218 43.078 58.102 71.487 81.01a153.791 153.791 0 0 1-47.436 46.195m-25.695 12.764a152.717 152.717 0 0 1-54.984 10.215 152.721 152.721 0 0 1-54.985-10.215c-6.24-9.454-9.835-20.622-9.835-32.6 0-34.004 29.028-61.578 64.82-61.578 35.815 0 64.843 27.574 64.843 61.578 0 11.978-3.62 23.146-9.859 32.6M146.54 300.998c0-77.295 57.223-141.184 131.64-151.685-6.74 98.488-47.77 169.877-115.304 220.526-10.43-20.693-16.336-44.076-16.336-68.841m153.239-153.233c4.715 0 9.358.238 13.93.667 1.072 58.03 15.24 107.632 39.197 149.684h-106.35c23.98-42.052 38.149-91.653 39.197-149.684a151.99 151.99 0 0 1 14.026-.667m0-11.025c-90.586 0-164.265 73.7-164.265 164.258 0 90.582 73.679 164.281 164.265 164.281 90.585 0 164.288-73.7 164.288-164.281 0-90.559-73.703-164.258-164.288-164.258" fill="#fff"/><path d="M305.23 429.704l-5.454-6.335-5.453 6.335-.214.595c1.071 2.167 2.929 4.834 5.167 6.643l.5.262.5-.262c2.263-1.81 4.096-4.476 5.192-6.643l-.239-.595m5.225-34.395c0-6.263-8.192-25.789-10.668-25.789l-.62.262c-2.976 2.429-10.049 19.693-10.049 25.527 0 4.667 9.43 16.978 9.43 23.67l1.239 1.238 1.238-1.239v-.047c.048-6.691 9.43-18.955 9.43-23.622M294.461 418.4c-4.43-11.668-12.05-18.05-20.003-18.05-5.977 0-10.859 4.858-10.859 10.858 0 6.001 5.838 9.86 10.859 10.859 1.626.323 3.494-.665 4.596-1.905.893-1.005 1.803-2.738 1.095-3.881-.246-.399-.967-.043-1.38-.262-1.52-.803-3.647-1.926-3.644-3.644.002-1.712 1.933-3.532 3.643-3.62 5.682-.288 9.859 3.43 13.264 10.74v.048l.024.047 1.214.715 1.334-1.358-.143-.547m30.286-18.055c-7.93 0-15.574 6.382-20.003 18.05l-.12.548 1.334 1.38 1.19-.737.025-.048.023-.024c3.382-7.334 7.578-11.058 13.264-10.763 1.704.088 3.617 1.913 3.62 3.62.003 1.711-2.106 2.843-3.62 3.643-.42.223-1.154-.143-1.405.262-.712 1.152.217 2.896 1.12 3.905 1.098 1.228 2.956 2.205 4.572 1.881 5.02-1.004 10.859-4.858 10.859-10.858 0-6-4.858-10.859-10.86-10.859" fill="#c2a24e"/><path d="M374.96 136.09l26.48-63.674c-4.358-1.953-8.74-3.739-13.216-5.453l-26.457 63.626a183.07 183.07 0 0 1 13.193 5.501m-76.284-72.616h25.623c6.263 0 11.359 5.096 11.359 11.383 0 6.262-5.096 11.358-11.359 11.358h-25.623v-22.74zm0 55.793v-20.86h17.455l15.05 23.812a177.866 177.866 0 0 1 17.574 4.096l-18.05-28.765c10.359-2.763 18.884-11.883 18.884-22.693 0-13.002-12.312-23.575-25.29-23.575h-39.554v68.556c4.596-.357 9.216-.571 13.907-.571h.024zM132.652 130.99l18.765-20.598c4.239-4.644 11.454-4.977 16.074-.738 4.643 4.214 4.977 11.43.738 16.05l-18.765 20.62-16.812-15.335zm41.435 37.742l-15.621-14.216 19.336-21.288c8.763-9.597 8.763-25.027-.857-33.79-9.597-8.763-25.219-7.548-33.982 2.048l-28.695 31.599 50.008 45.577c3.12-3.453 6.43-6.74 9.811-9.93m261.187-57.764c10.311-2.429 29.266 16.407 32.91 29.17 3-2.286 9.716-7.215 9.716-7.215-8.025-22.812-39.935-45.625-55.08-31.337-9.002 8.5-3.906 21.574 3.953 29.837l7.62 8.025c7.763 8.167 14.55 16.311 8.31 21.478-6.643 5.5-25.265-8.286-36.458-31.956l-10.001 7.572c2.381 6.215 7.787 15.24 15.026 22.884 8.216 8.644 17.17 14.288 25.195 15.86 6.31 1.237 12.573.285 16.716-3.549 10.335-9.596 6.573-23.55-9.668-40.648l-6.715-7.072c-7.477-7.882-4.43-12.358-1.524-13.049m-215.901-3.615l1.19-29.456 19.385 22.241c-7.025 2.048-13.884 4.477-20.575 7.215m4.143-44.624a218.113 218.113 0 0 0-14.502 5.143l-5.167 78.105a189.143 189.143 0 0 1 14.288-7.882l.738-18.193c9.406-4.167 19.241-7.596 29.362-10.263l12.002 13.764a179.624 179.624 0 0 1 16.074-2.715l-52.795-57.96zm-57.29 395.885l-8.858 4.191 6.144 5.239 2.714-9.43zm-3.31 24.98l-3.31-2.477 2.786-9.168-8.739-7.43-8.692 4.144-2.953-2.715 25.671-12.12 3.143 2.667-7.906 27.098zm25.366-14.14L173.9 491.289l-3.096-2.047 14.384-21.813 3.095 2.025zm11.278 7.176l4.453 24.384.048.024 9.097-17.288 3.262 1.739-11.93 22.764-3.239-1.476-4.5-24.67-.048-.023-9.24 17.525-3.167-1.833 12.002-22.86 3.262 1.715zm44.426 19l-1.214 3.5-8.525-2.976-7.311 20.979-3.477-1.214 7.311-20.98-8.525-2.952 1.214-3.5 20.527 7.143zm56.474 19.186l11.787.19-.119 6.81c-.071 4.62-5.191 7.62-11.645 7.526-6.834-.12-13.907-4.93-13.764-13.645.096-7.334 6.049-13.263 14.288-13.144 6.12.095 9.287 3.381 10.764 4.834l-2.596 2.595c-1.262-1.238-3.215-3.643-7.858-3.715-6.81-.119-10.835 4.263-10.907 9.644-.095 5.049 3.81 9.62 10.312 9.74 4.453.071 7.667-1.93 7.691-4.12l.072-2.881-8.097-.143.072-3.691zm40.027-15.536l.524 3.668-17.17 2.453.977 6.69 8.644-1.261.524 3.69-8.644 1.215 1.12 7.787 17.788-2.572.524 3.667-21.456 3.072-3.643-25.432 20.812-2.976zm13.455.363l2.19 7.263 10.955-3.31c2.643-.81 3.739-2.644 3.024-5.025-.833-2.786-3.167-2.833-5.215-2.238l-10.954 3.31zm9.882-6.834c3.953-1.191 8.311-.31 9.835 4.69 1.596 5.335-1.476 8.097-3.476 8.883l8.025 8.644-3.882 1.405-7.977-8.763-9.168 2.762 3.095 10.334-3.548 1-7.382-24.598 14.478-4.357zm56.514-24.096l1.881 9.644 6.597-4.691-8.478-4.953zm23.17 9.287l-3.238 2.571-7.954-4.881-9.335 6.667 1.786 9.311-3.286 2.096-5.43-27.647 3.358-2.357 24.1 14.24zm-8.027-27.037l17.55 18.883-2.786 2.453-17.479-18.812 2.715-2.524zm10.189-10.068l24.743 1.715.047-.072-14.526-13.049 2.477-2.738 19.098 17.168-2.215 2.763-25.003-1.715-.048.048 14.717 13.24-2.596 2.643-19.17-17.24 2.477-2.763zm-43.523 34.531l-3.286 1.69-.572 18.193-15.073-10.24-3.287 1.691 11.216 23.122 3.382-1.5-7.787-16.43.048-.048 14.93 10.12.572-18.026.071-.024 8.74 15.978 3.215-1.81-12.169-22.716zm-248.942-33.123c-2.095-7.835-10.049-15.526-16.05-15.526l-3.596 1.143-2.143 3.572c-.31 2.286.595 5.19 2.5 7.715l2.739 3.667c2.12 2.834 4.167 5.787 3.739 8.12l-1.572 2.286-1.667.453c-3.715 0-10.001-6.62-13.097-16.121l-.048-.167-2.715 2.548-.047.047v.048c.619 2.381 2.238 6.215 4.953 9.858 2.858 3.81 6.12 6.454 9.168 7.454l2.882.476 3.429-1 2.595-4.12c.453-3.024-1.143-7.048-4.786-11.882l-2.405-3.239c-1.93-2.595-1.858-4.262-1.453-5.214l2.024-1.524.405-.024c4.43 0 10.668 7.334 12.288 13.001l.047.143.12-.071 2.619-1.5.095-.048-.024-.095zm112.928 73.592l-9.168-2.024.857-3.691 9.144 2.048-.833 3.667z" fill="#fff"/></svg>