<svg xmlns="http://www.w3.org/2000/svg" version="1.0" width="350" height="285" viewBox="-2.827 -2.827 122.386 99.881"><path d="M16.847 0v63.143c0 4.988.642 6.91 2.175 9.578l.087.15.096.144c8.897 13.283 23.676 21.212 39.532 21.212 15.855 0 30.634-7.93 39.532-21.212l.096-.144.086-.15c1.534-2.666 2.175-4.587 2.175-9.578V0H16.847z" fill="#fff" fill-rule="evenodd"/><path d="M17.825.98v62.158c0 4.986.673 6.675 2.063 9.094l.062.125.063.125c8.715 13.008 23.19 20.75 38.718 20.75 15.527 0 30.004-7.742 38.72-20.75l.093-.125.062-.125c1.39-2.417 2.032-4.105 2.032-9.094V.98H17.825zm1.25 1.25h79.313v60.908c0 4.707-.57 6.199-1.875 8.469l-.063.093-.031.063C87.936 84.422 73.838 91.98 58.73 91.98s-29.175-7.56-37.656-20.22l-.062-.062-.063-.093c-1.305-2.272-1.875-3.764-1.875-8.47V2.232zm.563.532v60.375c0 4.575.526 6.002 1.78 8.187l.063.094.032.063c8.38 12.512 22.29 19.968 37.218 19.968 14.928 0 28.84-7.456 37.22-19.968l.062-.063.03-.094c1.256-2.182 1.813-3.61 1.813-8.187V2.762H19.638zm2.25 2.281h73.687v58.094c0 4.305-.496 5.316-1.5 7.062-7.671 11.452-20.64 18.97-35.344 18.97-14.705 0-27.673-7.518-35.343-18.97-1.005-1.746-1.5-2.757-1.5-7.062V5.043z" fill="#0f2d5b"/><path d="M54.075 7.45v7.562c-.81-.801-1.884-1.281-3.062-1.281-2.522 0-4.563 2.242-4.563 5 0 2.757 2.041 4.968 4.563 4.968 1.19 0 2.28-.493 3.093-1.312v1.219h3.032V7.449h-3.063zm30.906.093v16.094h3.032V7.543H84.98zm5.157 0v16.094h3.03V7.543h-3.03zm-66.094.781v15.282h3.25V10.949h1.937c1.2 0 2.094.897 2.094 2 0 1.105-.957 2-2.156 2h-.75v3.657l3.25 5h3.812l-4.5-6.375c2.013-.484 3.532-2.284 3.532-4.407 0-2.493-2.085-4.5-4.625-4.5-.078 0-.424-.005-.5 0h-5.344zm37.25.094v15.188h6.75c2.582-.042 4.656-1.983 4.656-4.375 0-1.74-.597-2.983-2.656-3.938.836-.779 1.344-1.821 1.344-2.969 0-1.038-.427-2-1.125-2.75-.73-.8-2.01-1.156-3.75-1.156h-5.22zm3.25 2.625h2.062c.895 0 1.594.73 1.594 1.625s-.699 1.625-1.594 1.625h-1.062v2.719h1.937c1.084 0 1.907.885 1.907 1.969-.04 1.12-.73 1.895-1.907 1.968h-2.937v-9.906zm-24.469 2.688c-2.786 0-5.031 2.274-5.031 5.093 0 2.822 2.245 5.125 5.031 5.125 2.128 0 3.801-.96 4.656-2.468l-2.5-1.157c-.316.682-1.047 1.188-1.906 1.188-1.147 0-2.062-.855-2.062-1.906 0-.068-.04-.06-.032-.125h6.75a5.36 5.36 0 0 0 .032-.625c.046-3.305-2.152-5.125-4.938-5.125zm33.688.53v6.095c0 2.06 2.15 3.718 4.78 3.718 2.632 0 4.75-1.657 4.75-3.718v-6.094h-3v5.5c0 .916-.787 1.656-1.75 1.656s-1.75-.74-1.75-1.656v-5.5h-3.03zm-33.657 1.595c1.03 0 1.875.845 1.875 1.875h-3.75c0-1.03.845-1.875 1.875-1.875zm11.782.5c1.237 0 2.218 1.115 2.218 2.468 0 1.355-.98 2.438-2.218 2.438s-2.25-1.083-2.25-2.438c0-1.353 1.012-2.468 2.25-2.468z" fill="#e41349"/><path d="M80.508 44.686c0 12.089-9.8 21.89-21.887 21.89-12.09 0-21.889-9.801-21.889-21.89S46.531 22.8 58.621 22.8c12.087 0 21.887 9.798 21.887 21.887" fill="#fdd205" fill-rule="evenodd"/><path d="M77.655 51.786c-.22-.422-.985-1.359-.885-1.955.564.07 1.417.076 1.732.094-.1.18-.74 1.645-.847 1.861m39.028 6.504a5.12 5.12 0 0 0-.161-.495l-.05-.135a7.108 7.108 0 0 1-.122-.33 1.224 1.224 0 0 1-.042-.147.305.305 0 0 1-.006-.094c.053-.622-.102-.944-.344-1.367-.19-.33-.455-.458-.631-.466a.318.318 0 0 1-.305.209.42.42 0 0 1-.055-.004.341.341 0 0 1-.277-.376c.005-.042.01-.086.012-.135a.885.885 0 0 0-.113-.469c-.209-.39-1.714-1.629-2.285-1.629-.462 0-.949.254-1.301.68a.323.323 0 0 1-.254.12l-.031-.001a.326.326 0 0 1-.259-.171 2.165 2.165 0 0 1-.134-.299 5.616 5.616 0 0 1-.22-.816l-.046-.205c-.159-.696-.392-1.399-1.324-1.669a1.478 1.478 0 0 0-.292-.05c-.1-.01-.21-.014-.323-.018h-.085c-.187-.006-.38-.01-.57-.037-.382-.056-.637-.18-.637-.609a.34.34 0 0 1 .017-.107l.103-.295c.076-.215.185-.545.27-.939.16-.731.172-1.401.037-1.991a.33.33 0 0 1 .371-.4c.383.059.692.062.778.062 1.985 0 5.134-1.295 5.134-4.771 0-1.997-1.619-3.898-2.975-5.14a.328.328 0 0 1-.098-.322.333.333 0 0 1 .237-.24c1.93-.504 2.993-1.788 2.993-3.615v-.123a5.678 5.678 0 0 0-.055-.956 3.523 3.523 0 0 0-.546-1.373.205.205 0 0 0-.186-.096c-.04 0-.07.008-.08.01a.788.788 0 0 0-.215.109c-.18.119-.439.34-.648.519-.235.202-.517.35-.916.485-.241.08-.492.147-.76.216-.14.037-.284.075-.432.117-.92.258-1.925.631-3.042 1.615-.51.45-.865 1.199-.9 1.908-.03.596.192 1.212.68 1.884.423.583.983 1.133 1.57 1.692l.208.199c.214.203.425.406.627.607.307.304.535.553.724.784.464.571.683 1.041.683 1.479 0 .934-.67 1.561-1.682 1.561-1.118-.009-1.98-.439-3.176-1.229l-.562-.377c-.398-.268-.808-.545-1.265-.831a19.264 19.264 0 0 0-2.412-1.293 8.775 8.775 0 0 0-1.34-.474c-.348-.092-.677-.16-.995-.226l-.155-.033c-.732-.153-1.343-.304-1.995-.733a80.251 80.251 0 0 1-.573-.388c-.34-.231-.693-.471-1.052-.696-.69-.43-1.247-.703-1.755-.855a3.646 3.646 0 0 0-.528-.114l-.27-.036-.212-.029c-.326-.045-.603-.11-.898-.279a6.527 6.527 0 0 1-.56-.37c-.14-.104-.274-.21-.412-.318l-.093-.074a8.865 8.865 0 0 0-1.33-.885c-.895-.485-1.794-.726-2.565-.912l-.15-.038a10.032 10.032 0 0 1-.778-.206 1.72 1.72 0 0 1-.297-.12.796.796 0 0 1-.108-.067.335.335 0 0 1-.06-.058c-1.919-2.411-4.216-2.6-4.875-2.6-.15 0-.294.008-.426.023-.768.084-1.686.762-2.483 1.412-.29.236-.583.487-.88.742-.606.517-1.23 1.05-1.845 1.486-3.173 2.26-4.325 3.163-5.828 4.806-2.033 2.22-2.672 5.04-3.235 7.527l-.042.181c-.272 1.206-.555 2.456-.97 3.6-.486 1.342-1.085 2.355-1.88 3.188-.386.404-.71.712-.988.943-.188.156-.33.252-.45.337l-.082.057c-.336.24-.466.544-.37.855.124.399.634.809 1.494.824a.324.324 0 0 1 .253.128c.062.078.085.18.062.277a.441.441 0 0 0 .086.396c.234.303.795.474 1.11.483l.138.001c1.517 0 2.822-.557 3.881-1.656a.329.329 0 0 1 .46-.015c.421.387.964.584 1.656.596l.075.001c.323 0 .645-.036.94-.067.15-.018.292-.033.427-.043.076-.005.148-.01.217-.01.049 0 .096.003.139.007.179.015.41.07.726.178.219.075.453.165.689.255l.212.083c.465.177 1.164.443 1.698.443.03 0 .059 0 .087-.002 1.197-.074 1.644-.964 1.804-1.487a.328.328 0 0 1 .315-.234h.011c.15.005.277.109.31.254.03.126.064.248.1.367.187.631.434 1.054.802 1.373.113.097.257.157.465.192.177.029.432.044.802.046.073 0 .143.025.199.068.04.032.096.082.181.167.076.078.155.158.233.224a.923.923 0 0 0 .292.18c1.679.57 3.863 1.188 4.956 1.205h.04c1.495 0 2.003-1.432 2.152-2.049a.333.333 0 0 1 .257-.246c1.391-.274 2.155-2.367 2.151-2.726-.007-.673-.267-.94-.933-.989l-2.427-.001a.6.6 0 0 0-.16.023.334.334 0 0 1-.37-.14.507.507 0 0 0-.347-.242.33.33 0 0 1-.135-.574c.05-.042.097-.083.142-.127a.333.333 0 0 1 .227-.089h.013c.33.015.974.039 1.587.039.27 0 .536-.005.762-.018.49-.026.898-.075 1.329-.125.675-.076 1.372-.157 2.421-.158l2.273.125c.486 0 .928-.064 1.316-.188a.34.34 0 0 1 .277.036.326.326 0 0 1 .15.237c.148 1.15.525 2.163 1.092 2.932.148.2.332.373.582.545.13.089.266.17.404.252.08.048.159.097.239.147.598.374 1.343.841 2.275.84.25 0 .508-.034.766-.099a3.34 3.34 0 0 1 .852-.106c.147 0 .29.009.428.024.369.04.699.122.964.19l.068.017c.433.107.842.278 1.25.523.337.2.62.416.894.623l.074.056c.545.414 1.109.84 1.895.84.03 0 .062 0 .095-.002a.686.686 0 0 0 .139-.026c.043-.013.095-.029.15-.049.108-.039.236-.089.363-.14.123-.049.263-.104.422-.135.02-.002.042-.006.065-.006.107 0 .21.053.272.145.04.06.081.127.125.197.079.128.16.26.264.393.302.391.855.915 2.146.947.118.004.23.004.339.004.672 0 1.086-.052 1.272-.082a.335.335 0 0 1 .243.055.759.759 0 0 0 .445.14c.347 0 .862-.103 1.281-.258a2.46 2.46 0 0 0 .605-.31c.198-.146.313-.309.339-.482a1.212 1.212 0 0 0-.04-.48m-75.931-7.844c-.225.276-.562.361-.867.904-.617-.24-.726-1.053-.837-1.404.492-.09 1.655-.311 2.265-.403-.251.317-.433.531-.561.903M55.39 53c-.62-.35-.99-.891-1.242-1.325-.11-.188-.211-.378-.31-.564l-.115-.217a5.32 5.32 0 0 0-.45-.726 4.376 4.376 0 0 0-.236-.267l-.25-.261a2.963 2.963 0 0 1-.213-.24.823.823 0 0 1-.124-.198c-1.093-2.798-1.35-4.385-1.743-7.172-.203-1.434-1.082-2.594-2.503-4.335-.179-.216-.376-.474-.586-.745a58.424 58.424 0 0 0-.45-.576 14.482 14.482 0 0 0-1.148-1.32c-.51-.43-.96-.812-1.368-1.158-.58-.491-1.07-.909-1.522-1.28a28.182 28.182 0 0 0-2.268-1.707c-1.058-.714-2.188-1.077-3.36-1.077-1.197 0-2.078.385-2.377.59-1.008.687-1.768 1.112-2.623 1.467-.62.257-1.263.467-2.078.733l-.845.279c-.925.31-1.581.848-2.047 1.28-.114.108-.22.211-.323.31a10.06 10.06 0 0 1-.326.31c-.21.193-.356.295-.489.344-.141.05-.369.085-.695.107-.169.013-.346.019-.517.028-.127.004-.25.01-.365.017-1.064.062-1.917.66-2.467 1.104-.286.231-.552.475-.808.709l-.123.112c-.324.294-.554.492-.774.634-.753.488-1.467.556-2.25.635-.402.039-.817.08-1.263.172a6.8 6.8 0 0 0-1.533.513c-.562.265-1.131.604-1.844 1.099-.307.214-.61.432-.906.651-.266.193-.529.384-.789.566-1.176.823-2.183 1.372-3.276 1.372-1.08 0-1.845-.632-1.95-1.61-.092-.86.348-1.732 1.24-2.453l.491-.394c.367-.293.71-.567 1.02-.834.518-.444.872-.802 1.143-1.16.67-.88.841-1.788.552-2.942-.258-1.035-1.056-1.741-2.437-2.155a11.333 11.333 0 0 0-1.463-.315l-.163-.026a13.026 13.026 0 0 1-.388-.065 1.807 1.807 0 0 1-.319-.08c-.747-.334-2.375-1.421-2.7-1.642l-.133-.09-.093.132c-.296.427-.531.765-.71 2.249-.195 1.638 1.154 3.637 3.478 4.003a.332.332 0 0 1 .153.586c-2.458 1.933-2.982 2.763-3.112 4.936-.079 1.346.391 2.667 1.294 3.625.986 1.044 2.413 1.598 4.132 1.598.459 0 .943-.04 1.438-.117a.326.326 0 0 1 .255.068.329.329 0 0 1 .125.233c.113 1.51.388 2.739.73 3.289a.326.326 0 0 1-.057.416 1.548 1.548 0 0 1-.482.275c-.525.205-1.32.331-2.114.331-.495 0-.862.34-1.159 1.069a9.08 9.08 0 0 0-.25.735l-.023.069c-.04.124-.077.24-.113.341-.035.095-.071.18-.109.251-.098.177-.245.35-.448.53a.33.33 0 0 1-.508-.087c-.241-.438-.624-.715-1.135-.828l-.011-.001h-.051c-.755 0-2.06.637-2.54 1.835a.329.329 0 0 1-.27.205l-.06.006c-.6.064-.98.343-1.193.878-.09.228-.144.481-.186.703l-.033.164c-.033.184-.07.372-.117.554a1.739 1.739 0 0 1-.168.416c-.037.07-.077.135-.113.197a3.096 3.096 0 0 0-.08.132c-.133.246-.202.498-.094.926.049.197.204.365.46.505.19.103.436.193.732.264a6.307 6.307 0 0 0 1.142.168c.072 0 .143-.02.213-.06.05-.03.1-.067.154-.108a.374.374 0 0 1 .269-.07l.245.046c.201.038.451.089.7.139l.04.009c.239.049.474.095.664.13.103.02.195.036.262.045.078.011.138.016.174.016h.002c1.04-.049 1.475-.451 1.767-.84a3.95 3.95 0 0 0 .227-.345l.118-.2.088-.15a4.79 4.79 0 0 1 .262-.405.331.331 0 0 1 .352-.124c.119.032.239.054.34.073.24.04.461.061.555.067.069.005.134.008.2.008.983 0 1.715-.548 2.323-1.062l.2-.17c.092-.08.183-.16.275-.234.12-.1.28-.23.446-.342.295-.195.544-.286.786-.286l.06.003c.236.013 1.125.078 2.631.317.064.009.13.014.197.014.338 0 .77-.116 1.286-.346.371-.167.795-.397 1.226-.665.093-.058.203-.11.335-.172l.039-.017a8.69 8.69 0 0 0 .389-.184c.247-.126.61-.336.9-.702.173-.216.405-.668.63-1.127l.246-.502c.135-.28.279-.574.425-.868a.33.33 0 0 1 .296-.18h.093c.467 0 1.026-.072 1.513-.142.214-.032.425-.064.625-.096.448-.07.835-.13 1.122-.143.07 0 .26.014.525.031l.596.04c.751.045 1.364.068 1.874.068.303 0 .57-.009.793-.025.402-.028.77-.09 1.067-.179.083-.025.175-.055.265-.096a.353.353 0 0 1 .132-.026.32.32 0 0 1 .23.093c.164.16.339.321.516.477a.33.33 0 0 1 .095.352.333.333 0 0 1-.287.225 4.214 4.214 0 0 0-.194.02c-.211.029-.591.112-.784.361a.332.332 0 0 1-.393.1 1.08 1.08 0 0 0-.42-.084h-.043l-.112.002-.17.001h-.09c-.3 0-1.002 0-1.607.099-.373.061-.668.151-.877.27-.199.112-.43.316-.411.651.036.621.91 2.3 1.506 2.898.116.113.507.238.941.238.046 0 .093-.002.14-.005l.024-.001c.122 0 .235.07.292.18.61 1.201 1.665 2.009 2.627 2.008h.062c.919-.034 3.398-.93 5.136-1.747.023-.008.044-.017.07-.022a1.65 1.65 0 0 1 .188-.033c.102-.015.217-.027.341-.042l.175-.019c.384-.046.819-.114 1.136-.265.293-.139.72-.686 1.085-1.394a.328.328 0 0 1 .293-.179l.031.003a.327.327 0 0 1 .285.232c.043.143.094.267.154.382.296.559.825.842 1.572.842l.123-.002c.511-.021 1.079-.194 1.569-.353l.28-.092c.42-.14.816-.273 1.187-.34.131-.024.281-.035.456-.035.08 0 .163.002.25.006.157.008.314.021.473.034l.321.024c.15.008.309.018.474.018.456 0 .81-.067 1.129-.22.463-.19.822-.45 1.06-.621l.088-.064a.325.325 0 0 1 .412.021 6.172 6.172 0 0 0 4.11 1.548c.068 0 .138 0 .21-.004.49-.015.875-.177 1.083-.457a.722.722 0 0 0 .124-.63.336.336 0 0 1 .043-.263.328.328 0 0 1 .22-.147c.337-.06.61-.18.81-.358.183-.161.302-.396.305-.6a.451.451 0 0 0-.153-.35c-.225-.21-.355-.286-1.009-.652" fill="#fff"/><path d="M47.596 31.563c0-6.055 4.908-10.964 10.963-10.964 6.057 0 10.965 4.909 10.965 10.964 0 6.055-4.908 10.965-10.965 10.965-6.055 0-10.963-4.91-10.963-10.965" fill="#fff"/><path d="M50.32 37.477c3.196 2.31 7.704 2.677 11.225.783a10.772 10.772 0 0 0 5.793-10.456A11.496 11.496 0 0 0 67 25.94a10.098 10.098 0 0 1 1.703 5.622c0 5.602-4.542 10.143-10.143 10.143a10.127 10.127 0 0 1-8.24-4.228" fill="#d3d3d3"/><path d="M58.563 21.406a10.08 10.08 0 0 0-3.22.532l1.938 1.562s2.356-.213 4.469.063c.411-.678.553-1.22.594-1.407a10.096 10.096 0 0 0-3.782-.75zm-6.907 2.719a10.125 10.125 0 0 0-2.875 4.781c.223-.331.72-1.071 1.313-1.812a28.128 28.128 0 0 1 1.562-2.969zm3.688 2.469s-2.786 1.246-3.813 1.781c0 0-.193 2.114.063 4.563 0 0 1.599.583 3.968 1.156 0 0 1.763-2.814 2.376-4 0 0-1.27-1.998-2.594-3.5zm8.906.093c-1.068 1.502-1.938 3.344-1.938 3.344.888 1.857 2.094 3.875 2.094 3.875 1.776-.435 3-1.125 3-1.125.236-3.238-.125-4.344-.125-4.343-.967-.792-3.031-1.75-3.031-1.75zm-15.594 7.125c.498 2.212 1.725 4.128 3.407 5.532a2.56 2.56 0 0 0 .406-.344s-1.587-2.258-2.219-3.563c0 0-1.051-1.063-1.594-1.624zM62.094 37.5l-4.407.125L56 40.031s1.188.92 3.281 1.375c0 0 1.999-.512 3.657-1.5l-.844-2.406zM80.219 60a2.3 2.3 0 0 0-1.531.875c-.784.996-.623 2.465.374 3.25l8.25 6.469c.998.784 2.466.621 3.25-.375.784-.997.592-2.464-.406-3.25l-4.719-3.719-1.343 1.719 1.187.969.406-.532 4.032 3.156-.938 1.22-9.25-7.282.938-1.219 1.844 1.469.937-1.219-1.313-1.062A2.345 2.345 0 0 0 80.22 60zm-43.094.063a1.99 1.99 0 0 0-1.094.28l-3.968 3-.344.407c-.763 1.188.467 2.107 1.031 3.031-1.381 1.059-2.734 2.157-4.094 3.156l-.906-1.25c.613-.49 1.22-.943 1.813-1.437a15.01 15.01 0 0 0-.938-1.25c-.455.376-.921.704-1.375 1.063a2.515 2.515 0 0 0-.844 2.312c.122.739.676 1.464 1.407 1.75.616.246 1.398.224 1.968-.094l4.375-3.344.063-.374c.411-1.137-.64-1.868-1.125-2.75l4.062-3.126.938 1.22c-.611.51-1.27.938-1.844 1.468l.938 1.25 1.624-1.313c.634-.663.848-1.812.438-2.656-.186-.41-.597-.821-1-1.062-.316-.18-.725-.275-1.125-.282zm38.656 5.156a1.5 1.5 0 0 0-.844.281l-2.5 1.813 8.688 12.03 1.25-.906-3.906-5.406 1.25-.875 3.25 4.5c.22.304.619.53.937.688l1.281-.906c-.387-.182-.727-.352-.968-.688l-2.875-4c-.535-.741-.986-.82-1.375-.719.182-.389.288-.801-.125-1.375l-2.75-3.812a1.55 1.55 0 0 0-1.313-.625zm-34 .312a2.297 2.297 0 0 0-1.531.875l-7.844 9.938 1.219.969 4.094-5.25 1.218.968-4.124 5.219 1.218.969 7.844-9.969c.784-.998.59-2.435-.406-3.219-.498-.392-1.1-.57-1.688-.5zm34.063 1.219l2.969 4.156-1.22.906-3-4.156 1.25-.906zm-34 .094l1.218.969-3.187 4-1.188-.938 3.157-4.031zm5.468 1.656l-6.468 13.375 4.156 2 2.031-4.156-1.406-.688-1.344 2.781-1.375-.656 5.782-12-1.376-.656zm23.188.063l-1.406.562L74.03 81.5l-1.437.563-4.938-12.344-1.437.562 4.719 11.75a2.314 2.314 0 0 0 3 1.281 2.313 2.313 0 0 0 1.28-3L70.5 68.563zm-18.313 2.062l-.812 4.563 1.531.25.532-3 1.468.25-5.062 11.03-.282 1.532 4.563.813.813-4.532-1.532-.281-.531 3.031L51.406 84l5.063-11.031.281-1.531-4.563-.813zm10.47.531l-3.063.344 1.781 14.75 3.031-.344a1.54 1.54 0 0 0 1.344-1.719l-.531-4.5c-.109-.908-.454-1.18-.844-1.28.348-.252.646-.548.563-1.25l-.563-4.657a1.541 1.541 0 0 0-1.719-1.344zm.187 1.531l.593 5.063-1.53.188-.594-5.063 1.53-.188zm.781 6.594l.625 5.094-1.531.188-.625-5.094 1.531-.188z" fill="#091d3c" fill-rule="evenodd"/><path d="M4.044 30.293c-.285.44-.383.903-.344 1.438.153 1.205 1.073 2.298 2.219 2.718.67.288 1.437.067 2.125.22.191.075.387.29.406.5-.037.19-.046.365-.219.5-1.07.898-2.195 1.765-3.093 2.874-.957 1.033-1.093 2.856-.594 4.156.554 1.492 2.102 2.467 3.594 2.657 1.09.172 2.068-.133 3.062-.344.134 0 .193.142.25.219.096.878-.036 1.666.156 2.468.172.745.42 1.274.688 2a.818.818 0 0 1-.188.688 8.099 8.099 0 0 1-1.718 1l-1.5.094-.282.125c-.555.65-.562 1.305-.906 2.03-.459.767-1.324 1.155-2.031 1.595-.23.362-.458.743-.781 1.03-.25.23-.582.275-.907.313-.516.593-.616 1.415-.75 2.22.842.075 1.71.52 2.532.062.707-.327.87-1.172 1.406-1.688.421-.459 1.065-.127 1.562-.031.745.037 1.274-.501 1.907-.75.437-.286.79-.776 1.25-1.063.88-.42 2.112-.172 3.03 0 .727.19 1.495.068 2.126-.218.592-.364 1.142-.817 1.812-.97.593-.305.878-.977 1.125-1.53.19-.518.695-.94.657-1.532-.154-.133-.334-.425-.563-.406-.287.403-.487.835-.812 1.219-1.383 1.886-2.475 2.062-5.282 2.062-2.085-.076-3.972.563-5.406 2.188-.095.057-.236.014-.312-.063-.058-.228.155-.61.25-.78 1.282-1.817 3.272-2.243 5.375-2.282 1.147-.076 2.242-.253 3.218-.75 1.09-.554 1.823-1.429 2.282-2.5.248-1.205.35-2.509.656-3.656.037-.114.31-.195.406-.157.114.02.344.117.344.25-.21 1.185-.584 2.603-.125 3.75.917 1.207 2.632.558 3.875.5 1.3-.115 2.319-.013 3.562.063.612-.018 1.084.101 1.563-.281.134-.21.164-.49.125-.72-.039-.343-.325-.555 0-.843.095-.076.394-.001.469.094.172.479.256.985.562 1.406.613.785 1.504 1.404 2.344 1.844.802.555 1.474 1.337 1.531 2.312 0 .497-.461.834-.844 1.063-.65.325-1.36.607-2.125.531-1.013-.497-1.267-1.591-1.937-2.375-.344-.382-.859-.445-1.375-.406-.555.056-1.128.077-1.625.25-.134.114-.175.264-.156.437.343.63.742 1.245 1.125 1.875.44.27 1.055-.133 1.437.344.325.498.534 1.086 1.031 1.469.48.419 1.214.61 1.844.344 1.415-.44 2.806-.887 4.125-1.594h.438c.535-.058 1.15-.035 1.53-.438a14.95 14.95 0 0 0 1.095-1.843c.325-.44.165-1.085.03-1.563-.65-.802-1.03-1.706-1.374-2.625-.325-.095-.606-.3-.969-.281-.172.077-.402.027-.5.219l1.5 3c.095.228.214.538.156.843-.21.633-.546 1.26-1.062 1.72-.095.057-.205.102-.281-.032.17-.65.475-1.348.437-2.094l-1.469-2.656c-.172-.364-.487-.705-.468-1.125 0-.191.19-.299.343-.375.65-.211 1.44-.171 1.938-.688.65-1.013.765-2.015.937-3.218.04-.078.2-.22.313-.22.115-.038.256.13.312.188.193 1.319-.078 2.657-.843 3.688-.04.135-.092.311.062.406.726.23 1.483-.019 2.094-.344.784.02 1.51-.167 2.219-.28.076.037.156.11.156.187-.478.535-.741 1.122-.875 1.812-.574.594-1.41 1.109-1.469 1.969.096.421.47.024.719.062.114.02.187.104.187.22l-.562.843c-.306.497.031 1.084.031 1.562.135.382.599.563 1 .563.86-.038 1.643-.358 2.406-.625.842-.364 1.895-.34 2.813-.188.899-.056 1.551-.656 2.219-1.25.365 0 .69.263.937.532 1.033 1.108 2.365 1.57 3.875 1.53l.156-.062c.097-.095.052-.267-.062-.343l-.906-.47c-.63-.4-1.417-.948-1.625-1.655-.193-.63-.524-1.294-.907-1.907-.133-.305-.46-.57-.593-.875.037-.04.1-.082.156-.062.995.345 1.572 1.309 2.031 2.187.726 1.013 1.78 1.885 3.156 1.657l.125-.094c.06-.076.04-.193 0-.25l-.687-.344c-1.146-.67-1.604-1.91-2.313-2.906-.246-.364-.707-.606-.937-.969-.821-2.237-1.509-4.47-1.719-7.031-.172-.631-.311-1.283-.656-1.875-1.033-1.683-2.386-3.201-3.688-4.75-.113-.114-.096-.136-.343-.375l-4.532-3.781c-.555-.422-1.18-.682-1.812-.97-.955-.363-2.283-.275-3.219.126-.975.516-1.842 1.25-2.875 1.594-1.49.67-3.187.82-4.469 1.968-.745.65-1.36 1.642-2.468 1.47-1.243-.058-2.344.422-3.282 1.187-.84.765-1.66 1.665-2.75 1.875-.956.4-2.118.198-3.093.562-1.55.383-2.777 1.595-4.094 2.531-1.319.764-2.574 1.602-4.219 1.563-1.07-.076-2.094-.811-2.437-1.844-.325-1.185.03-2.416.968-3.219.975-1.166 2.517-1.848 3.282-3.187.4-.708.348-1.863-.188-2.531-1.012-1.052-2.462-1.082-3.781-1.407-.841-.23-1.504-.88-2.25-1.28zm75.969.063c-.573.038-.998.43-1.438.812-2.925 2.563-6.261 4.325-8.937 7.25-1.798 1.855-2.3 4.194-2.97 6.469-.955 3.441-1.352 7.221-4.812 9.344-.058.096-.052.267.063.343.917.23 1.826-.12 2.437-.75.594-.937 1.23-1.827 2.032-2.687l.187-.094c.095.019.194.054.156.188-.23.765-.896 1.33-1.125 2.093-.306.918-1.19 1.632-1.937 2.282l-.031.093c0 .095.09.2.187.22 1.683.075 2.903-1.122 4.031-2.25.115-.116.253-.1.407-.063.497.383.975.96 1.625 1.093.688-.095 1.398-.18 2.125-.125 1.012.307 1.987.72 3 1.063.516-.019.888-.516 1.156-.938.21-.496-.069-.99-.031-1.468.248-.154.515.045.78-.032.116-.076.22-.21.22-.343-.192-.88-.97-1.552-1.22-2.375-.382-1.052-1.614-1.685-1.843-2.813.056-.076.154-.17.25-.094.821.593 1.519 1.38 2.531 1.532.765.077 1.578.15 2.344.093a.26.26 0 0 0 .156-.312c-.325-.689-.62-1.38-.812-2.125-.268-.938-.463-2.249-.156-3.281.056-.078.29-.225.406-.188.152.039.356.241.375.375.115 1.625-.069 3.125.906 4.406.42.67 1.14.797 1.656 1.313.192.269.26.694.125 1l-1.187 1.719c-.269.383-.53.828-.625 1.25-.096.477-.039.916 0 1.375-.076.037-.111-.057-.188-.094-.306-.631-.637-1.443-.312-2.188l1.469-2.28.03-.188a4.371 4.371 0 0 0-1.03-.407c-.172.078-.26.254-.375.407L78.2 52.574c-.096.305-.201.55-.125.875.076.383.173.74.344 1.063.115.536.22.929.469 1.406.362.401.855.011 1.312.125.459.115.635.679 1.094.813 1.032.343 2.125.536 3.156.937.536.173 1.304.378 1.781-.062.67-.363.854-1.05.97-1.72.21-.285.63-.185.937-.28.573-.384.766-1.078 1.187-1.594l.063-.25a.555.555 0 0 0-.344-.344h-1.969c-.899.115-.961 1.106-1.344 1.719-.21.381-.655.537-1.093.5-.918-.249-2.018-.381-2.438-1.375-.057-.249-.066-.546.125-.719.476-.554 1.033-1.197 1.625-1.656.841-.173 1.686-.785 2.125-1.531.23-.325.18-.814.563-1.063.115-.019.36-.021.437.094.173.554-.14.959-.312 1.437 2.085.212 3.725-.388 5.75-.312.86 0 1.627.089 2.468.031.842-.037 1.764-.402 2.032-1.281.382-1.129-.152-2.399-.344-3.469l.219-.187c.133-.077.373.047.468.125.364 1.012.598 2.235.75 3.343.153.977.59 1.615 1.125 2.438.975 1.452 2.674 2.019 4.375 1.656 2.065-.152 3.863.925 5.125 2.531v.094c-.038.076-.122.175-.218.156-1.09-.842-2.167-1.733-3.563-1.906-1.411-.256-2.684.469-4.156-.125-1.774-.582-2.53-1.66-3.281-3.406h-.157c-.115.019-.167.135-.187.25l.187 1.187c.23.955.53 2.06 1.563 2.5.802.478 1.569 1.175 2.562.907 1.74-.383 3.505.118 4.844 1.093.439.249.803.703 1.281.875.517.21 1.143.094 1.563-.25.976-.323 1.205.905 1.875 1.344.591.574 1.777.344 2.562.344l-.03-.094a6.922 6.922 0 0 0-.595-2.094c-.975.06-1.458-.98-2.03-1.593-.478-.554-1.427-.897-1.407-1.72-.173-.324-.223-.828-.375-1.25-.134-.343-.259-.828-.719-.905-.822-.133-1.797.077-2.312-.688-.535-.575.028-1.226.125-1.781.23-.708.27-1.648.156-2.375-.02-.42-.326-.768-.25-1.188.191-.363.652-.1.937-.062 1.072.305 2.338.139 3.313-.281 1.337-.65 2.401-1.982 2.344-3.532-.192-2.006-1.61-3.668-3.157-4.968-.287-.25-.653-.513-.75-.875-.036-.784.84-.404 1.282-.594.535-.134 1.06-.256 1.5-.563 1.166-.783 1.417-2.162 1.187-3.5-.037-.115-.015-.28-.187-.28-.212.172-.452.41-.72.562-.744.44-1.715.367-2.5.75-.974.42-2.172 1.016-2.593 2.125a2.395 2.395 0 0 0 .25 1.593c1.186 1.874 3.693 3.088 4.094 5.344.154.918-.294 1.578-1 2.094-1.071.65-2.68.416-3.75-.156-2.065-1.033-3.876-2.762-6.094-3.47-1.396-.63-3.101-.46-4.344-1.437-.936-.61-1.823-1.42-2.875-1.687-.726-.249-1.518-.199-2.187-.563-.69-.612-1.415-1.192-2.219-1.593-1.109-.555-2.339-.825-3.562-1.094-.727-.171-1-1.004-1.594-1.406-1.013-.803-2.154-1.365-3.531-1.25zm-.125 4.562a.668.668 0 0 1 .312 0 .422.422 0 0 1 .25.25.4.4 0 0 1 .063.219c0 .054-.01.131-.032.187l-.093.157-.094.125c-.001-.002-.594.562-.594.562l-.656.625c-.485.47-.818.866-1.063 1.25-.205.281-.35.589-.5.906a.187.187 0 0 1-.218.094s-.045-.026-.063-.031c-.005-.018 0-.031 0-.031a1.136 1.136 0 0 1-.062-.375c0-.107.008-.22.03-.344l.126-.5.062-.188c.367-.975 1.19-2.016 2.25-2.812a.85.85 0 0 1 .282-.094zM38.73 36.231a.6.6 0 0 1 .282.03l.03.032c.326.225.536.604.688.875.194.45.282 1.011.282 1.594 0 .444-.04.889-.157 1.312 0 0 .003.023 0 .032-.006.006-.03 0-.03 0-.055.052-.155.096-.25.03 0 0 .012-.022 0-.03-.005-.014-.032-.032-.032-.032-.149-.76-.316-1.563-.625-2.312l-.156-.313-.094-.093-.125-.22c-.12-.192-.255-.44-.094-.75l.031-.03c.07-.07.15-.113.25-.125zm8.72 7.468a.865.865 0 0 1 .25.063c.267.144.437.391.562.594l.062.125.125.187.219.281c.617.693.906 1.357.906 2.032 0 .168.006.327-.031.5a9.943 9.943 0 0 1-.063.156c-.002.011-.062.187-.062.187a.36.36 0 0 1-.281.25.191.191 0 0 1-.188-.03.228.228 0 0 1-.094-.188l-.03-.188-.063-.562c-.048-.274-.124-.51-.25-.688l-.25-.281-.282-.344c-.225-.225-.446-.336-.656-.344-.164.052-.309.17-.469.344l-.187.25-.188.25c-.065.113-.217.031-.218.031 0 0-.02.007-.032 0a.06.06 0 0 1 0-.03.97.97 0 0 1-.062-.345c0-.183.069-.335.125-.468l.156-.313.156-.375.032-.031c.055-.051.097-.158.156-.313l.062-.125.094-.28c.12-.257.28-.365.5-.345zm23.718.657c.366-.072.607.263.687.406.318.407.574.884.813 1.469.012.04 0 .078 0 .125 0 .026.004.035 0 .062l-.063.188c-.045.06-.085.143-.156.187a.222.222 0 0 1-.25 0 .55.55 0 0 1-.25-.187c0-.002-.094-.125-.094-.125l-.062-.125c-.086-.148-.175-.265-.375-.25-.178-.01-.294.077-.406.156l-.125.094-.063.03-.219.157-.28.219-.095.094-.406.375c-.277.29-.421.535-.469.812l-.062.219v.094l-.031.125a.495.495 0 0 1-.22.343c-.09.027-.194.033-.28-.03-.07-.052-.125-.145-.125-.22a2.866 2.866 0 0 1 .906-2.375c.326-.266.587-.595.812-.875l.25-.312.5-.625.063-.031zM46.98 51.324h.157l.125.032a.313.313 0 0 1 .218.25c.01.092.032.176.032.28 0 .295-.06.623-.313.813 0 0-.035-.005-.031 0a3.391 3.391 0 0 1-1.188.157l-.03-.032-.095-.03a.913.913 0 0 0-.062-.032c-.041-.033-.13-.11-.094-.219.166-.497.66-1.09 1.281-1.219zm23.907.407h.03c.505 0 .88.172 1.126.468l.062.157.125.25c.034.088.063.143.063.218a.502.502 0 0 1-.063.22v.03c-.125.088-.285.134-.5.125l-.375-.062h-.125l-.03-.031c-.367-.204-.428-.613-.47-1.032 0-.14.03-.235.125-.312 0 0 .022-.023.032-.031zM4.794 53.574c-.074.012-.151.044-.219.063-.42.364-.854.651-1.312.937-.192.134-.118.415-.157.625 0 .19.228.324.344.438.21.097.459.107.688.031.592-.344.975-.976 1.28-1.531-.057-.21-.264-.378-.437-.531-.056-.049-.113-.044-.187-.032zm107.375.032c-.283.01-.544.347-.688.562.134.459.527.83.813 1.25a.93.93 0 0 0 .687.406c.268 0 .465-.128.657-.28.133-.173.275-.378.218-.626-.363-.497-.916-.805-1.375-1.187a.494.494 0 0 0-.312-.125zM2.138 55.73c-.307.152-.643.436-.72.78-.095.612.04 1.185-.437 1.626-.018.115-.116.26 0 .375.42.134.83.286 1.344.344.23-.747.389-1.57.656-2.22v-.187c-.23-.286-.462-.643-.843-.718zm112.343.125c-.268.228-.65.473-.593.875.228.688.365 1.198.5 1.906.075.132.01.406.218.406l1.22-.406c.21-.344-.175-.613-.25-.938-.097-.44.004-1.036-.282-1.437-.249-.191-.489-.484-.813-.406z" fill="#e41349"/><path d="M31.142 53.704c.383.421.364 1.07.804 1.395.573.098 1.089-.132 1.529-.476.25-.211-.114-.479-.151-.728-.25-.362-.078-1.09-.69-1.108-.612.095-1.223.115-1.834.115l-.174.115c-.114.363.421.363.516.687m54.16-.573c-.516.096-1.109-.02-1.625.058-.23.343-.44.765-.382 1.223.057.478.592.515.936.65.325.038.802.153.976-.19.19-.498.363-1.033.439-1.568-.038-.154-.191-.212-.344-.173" fill="#e41349"/></svg>