<svg xmlns="http://www.w3.org/2000/svg" width="547.665" height="655.526" version="1.0"><g stroke="#000"><path d="M-283.421-214.21h-2.172 2.172z" fill="#fff200"/><path d="M382.226 207.879l6.235.044-1.5-4-5.911-.089 1.176 4.045z" fill="#fff200" fill-rule="evenodd"/><path fill="#fff" stroke-width=".7" d="M267.207 161.333h11.854V171.5h-11.854z"/><path d="M273.123 160.98v10.804" fill="none" fill-rule="evenodd"/><path d="M195.611 145.662c.056.139-8.213 1.438-2.02-5.05 0 0 71.72-35.861 160.109 1.01.066.265 3.698 4.69-3.03 4.545l-2.02 4.04-10.102 19.193 1.336 3.477-12.953.059s-44.952-25.254-106.066-1.01h-14.647c-.7-1.179 1.53-2.357 2.525-3.536l-13.132-22.728z" fill="#fff200" fill-rule="evenodd"/><path d="M145.103 172.121l254.758-.024-208.172 249.055c-1.384.78-39.333-66.811-45.566-159.839-1.882-28.102-3.023-58.132-1.02-89.192z" fill="#ef3e33" fill-rule="evenodd"/><path d="M208.774 169.058c2.27.413 55.464-33.966 129.715.416" fill="none" fill-rule="evenodd"/><path d="M370.711 200.673l6.406-.031c.038-.005 1.054-5.695 3.25.125l6.344-.094-3.5-11.5-9.352.073-3.148 11.427zm3.75-5l3 .031v-2.344c.002-.003-1.718-2.098-2.75.063-.42.708-.186 1.467-.25 2.25zm5.563.187l2.906-.03v-2.282s-1.625-2.313-2.813 0l-.093 2.312zm-4.876 11.912l-6.235.044 1.5-4 5.911-.088-1.176 4.044zM206.226 410.379l6.235.044-1.5-4-5.911-.089 1.176 4.045z" fill="#fff200" fill-rule="evenodd"/><path d="M282.25 500.386l-.669 134.912-8.294 18.24-9.546-18.738.228-134.717 18.282.303zm-8.963 152.446l-.177-152.796" fill="#fff" fill-rule="evenodd"/><path d="M194.711 403.173l6.406-.031c.038-.005 1.054-5.695 3.25.125l6.344-.094-3.5-11.5-9.352.073-3.148 11.427zm3.75-5l3 .031v-2.344c.002-.003-1.718-2.098-2.75.063-.42.707-.186 1.467-.25 2.25zm5.563.187l2.906-.03v-2.282s-1.625-2.313-2.813 0l-.093 2.312z" fill="#fff200" fill-rule="evenodd"/><path d="M400.6 171.962c-5.932 13.16 36.508 223.381-127.712 334.83 0 0-59.094-42.427-81.318-85.359L400.6 171.962z" fill="#916caf" fill-rule="evenodd"/><path d="M359.996 220.817l-.349 190.637c-10.925 20.576-22.37 34.83-34.278 48.83l-.682-197.236c11.674-13.925 23.02-26.458 35.31-42.231zm-69.059 82.731l.25 189.378c-6.123 4.498-12.194 9.067-18.442 13.398l-16.617-13.052.191-148.246 34.618-41.478z" fill="#fff" fill-rule="evenodd" stroke-width="0"/><path transform="matrix(1.3238 0 0 1.08915 -225.558 -115.262)" d="M403 480.362a26.25 32.25 0 1 1-52.5 0 26.25 32.25 0 1 1 52.5 0z" fill="#fff" stroke-width=".833"/><path d="M250.187 393.798l.5 25.75h5.5v-11.5l24-.25s8.5 1.25 6.75 7.75l1.75 4h7.375c-.168-1.01-2.446-.177-3.625-7 0 0 2-5.25-6-5.5-.059 0 15.825-6.438-.75-13.188l-35.5-.062zm6.25 3v9.25l26.5-.5s12-4.75 0-8.25l-26.5-.5z" fill-rule="evenodd"/><path d="M257.71 380.421l4.243-.176 11.313 47.73 11.314-47.598 4.243-.044-13.435 55.066h-4.066L257.71 380.42z" fill-rule="evenodd"/><path d="M221.187 386.776v73.772c-.163.13-22.095-23.75-29.396-39.308l29.396-34.464z" fill="#fff" fill-rule="evenodd" stroke-width="0"/><path d="M276.952 207.254l6.235.044-1.5-4-5.912-.089 1.177 4.045zm-11.515-7.206l6.406-.031c.037-.005 1.054-5.695 3.25.125l6.344-.094-3.5-11.5-9.352.073-3.148 11.427zm3.75-5l3 .031v-2.344c.001-.003-1.719-2.098-2.75.063-.42.708-.187 1.467-.25 2.25zm5.563.187l2.906-.03v-2.282s-1.625-2.313-2.813 0l-.093 2.312zm-4.877 11.912l-6.234.044 1.5-4 5.911-.088-1.177 4.044zm-98.647.232l6.235.044-1.5-4-5.911-.089 1.176 4.045zm-11.515-7.206l6.406-.031c.038-.005 1.054-5.695 3.25.125l6.344-.094-3.5-11.5-9.352.073-3.148 11.427zm3.75-5l3 .031v-2.344c.001-.003-1.718-2.098-2.75.063-.42.708-.186 1.467-.25 2.25zm5.563.187l2.906-.03v-2.282s-1.625-2.313-2.813 0l-.093 2.312zm-4.876 11.912l-6.235.044 1.5-4 5.911-.088-1.176 4.044zm10.078 105.107l6.235.044-1.5-4-5.911-.089 1.176 4.045zm-11.515-7.206l6.406-.031c.038-.005 1.054-5.695 3.25.125l6.344-.094-3.5-11.5-9.352.073-3.148 11.427zm3.75-5l3 .031v-2.344c.001-.003-1.718-2.098-2.75.063-.42.707-.186 1.467-.25 2.25zm5.563.187l2.906-.03v-2.282s-1.625-2.313-2.813 0l-.093 2.312zm-4.876 11.912l-6.235.044 1.5-4 5.911-.088-1.176 4.044zm32 98l-6.235.044 1.5-4 5.911-.088-1.176 4.044zM183.701 217.33h25.81c-.23.916 34.052 15.818 59.75 4.242 0 0 19.446-2.121 36.063 7.425 0 0 13.081 8.132 21.92 7.424 0 0-2.475 4.243-31.82 3.536 0 0-6.01-.354-31.466 10.96 0 0-18.385 4.243-42.78-.353 0 0-6.364-3.536-34.295 4.242 0 0 18.032.707 22.628 2.122 4.596 1.414 25.102 11.667 48.083 2.474 0 0 12.728-2.12 29.345 7.072-.366.61 12.273 7.299 15.38 5.656 0 0 1.237 4.243-29.169 3.182 0 0-15.91 5.657-16.97 7.779 0 0-16.264 6.01-32.88.353 0 0-9.9-3.535-31.467 7.425 0 0 15.91 1.06 20.153 3.182 0 0 10.96 5.303 28.284.353 0 0 12.728-3.182 23.334 5.304 0 0 7.425 5.126 12.375 4.065 0 0-.47.854-13.082 2.652-8.16 1.163-11.627 1.887-19.092 4.95-11.274 4.626-10.253 5.303-31.82 1.768 0 0-5.385-2.564-15.638 4.507 0 0 7.475 1.322 14.578 3.978 7.437 2.78 8.812 2.713 16.97 0 .162-.054 2.768-2.958 16.264 2.475 7.143 2.875 9.016 4.42 13.965 4.42 0 0 .884 1.237-13.965 1.59 0 0-9.192 2.357-15.203 6.364-4.415 1.889-10.7-.104-17.017-.1-4.36.004-9.783.957-10.353 4.793 14.356 3.072 12.077 5.191 22.64 2.643 6.18 2.041 13.382 7.425 18.738 7.16-.006-.005-6.336 3.476-10.296 2.828-8.75-.082-22.09 6.928-23.142 12.817-17.768-47.9-24.8-98.507-25.825-149.288z" fill="#fff200" fill-rule="evenodd"/><path d="M361.687 218.048l-178.149-.851c.454-4.75 2.576 122.81 36.624 169.326" fill="none" fill-rule="evenodd"/><path transform="matrix(1.09224 0 0 1.02839 290.14 -76.341)" d="M148.75 475.612a8.5 9.25 0 1 1-17 0 8.5 9.25 0 1 1 17 0z" fill="#ef3e33" stroke-width=".944"/><path d="M423.741 456.785L399.7 474.463s-13.612 27.223-14.496 27.223c-.884 0 21.036-7.778 21.036-7.778-1.505.599 10.209-19.389 13.259-24.572 1.921-3.265 4.053-12.197 4.242-12.55zM282.32 518.834c.884.177 5.657 6.364 5.657 6.364l-.354 36.239-5.833 1.237.53-43.84z" fill="#008457" fill-rule="evenodd"/><path d="M286.032 561.614s18.031 21.567 21.213 54.093c0 0-12.904-13.435-18.03-10.253 0 0-1.415-19.799-7.249-24.572v-18.03l4.066-1.238zm99.172-59.751c16.442-20.272 20.817-63.94 20.33-63.816 0 0-27.401 33.234-26.517 39.068 0 0-5.657 17.324-7.248 18.03l-2.298 5.48 10.783-3.888s-4.242 9.722-5.303 11.137c0 0 9.9-4.066 10.253-6.01z" fill="#008457" fill-rule="evenodd"/><path d="M396.164 456.962l-13.789 31.113" fill="none" fill-rule="evenodd"/><path d="M359.925 527.673c1.358.582 14.649-18.269 13.965-19.092-.79-.952 40.482-24.395 65.054-19.8 1.174-.502-34.345 53.207-79.903 39.245" fill="#008457" fill-rule="evenodd"/><path d="M329.696 522.193s32.704-21.214 50.205-25.633c1.334-.303-11.298 38.702-45.962 45.608 0 0-1.591-15.202-4.243-19.975z" fill="#008457" fill-rule="evenodd"/><path d="M359.218 528.026s53.563-6.894 54.977-6.364c1.414.53 10.253 1.238 10.96 15.91 0 0 6.188 12.021 15.026 17.147 0 0-12.374 9.9-30.052-9.369 0 0-10.783-1.59-18.384 1.768 0 0-18.562 1.06-22.451 0-3.89-1.06-15.91-8.662-24.749-8.485l-.53.353c2.652-.707 15.203-10.96 15.203-10.96zm6.364-52.502s-12.375 12.197-14.496 12.197c-2.121 0-19.269 7.955-23.158 23.335l-.884 7.247 7.955-.176 22.274-12.375 1.06-4.066s9.193-17.5 7.249-26.162z" fill="#008457" fill-rule="evenodd"/><path d="M327.928 511.232s-12.904-13.081-13.965-13.081c-1.06 0-26.87 23.334-27.047 24.042-.177.707 1.414 3.182 1.414 3.182l-.177 16.793 4.066-.353s4.066-8.839 21.214-22.804c0 0 5.48-3.36 13.081-.708 0 0 1.237-4.95 1.414-7.07z" fill="#008457" fill-rule="evenodd"/><path d="M308.483 523.96s16.263 7.425 9.369 41.896c0 0 6.717-1.767 15.026-10.783 0 0 5.48-17.854-6.187-36.946 0 0-12.551-3.89-18.208 5.833z" fill="#008457" fill-rule="evenodd"/><path d="M334.134 542.367s12.75-5 12.25-6 22.75 11.25 22.75 11.25l26 20s-19.5-5.75-25.75-5.5-25.25 1-30.5-4.25-4.75-2-4.75-2v-13.5zm-.5 12.25s-15 13.75-21.25 13.75c0 0-15.5-10.25-21.25-18.5l-2.5-.5-.75 11.5 15.75 18.5 10 1.25s21.25-14.5 20.75-16c0 0-.445-9.72-.75-10z" fill="#008457" fill-rule="evenodd"/><path d="M287.8 542.345l28.815-6.717s3.712 8.838 1.414 9.722c-2.298.884-29.522 4.243-29.522 4.243l-.707-7.248zm39.951 28.461s33.588 29.168 33.411 30.936c0 0-32.35-1.06-46.492-21.036l13.081-9.9z" fill="#008457" fill-rule="evenodd"/><path d="M331.82 590.523c5.202 3.029 11.663-.898 4.815-6.02-2.836-2.12-9.342 1.716-4.905 5.986 2.468 2.375 10.954 1.96 11.922.65 3.537-4.79-10.029-12.756-14.037-7.553-2.766 3.591-.58 5.756 3.37 7.805 4.048 2.1 6.684 4.156 10.4 2.764 5.266-1.971 1.59-9.554-3.123-12.465-5.247-3.241-11.535-2.192-14.706 3a11.9 11.9 0 0 0-1.694 5.208m87.505-115.258s-23.335 22.98-23.335 25.455m31.113-.707s-22.981 20.153-42.073 20.86m-11.667-8.132l-27.577 22.274m18.385-42.426s-14.143 19.092-22.628 20.506m87.328 31.113s-13.435-20.153-50.558-5.657m-35.002 7.424s26.516 2.829 30.759 9.9" fill="none" fill-rule="evenodd"/><path transform="matrix(-.98825 0 0 .8946 502.24 68.245)" d="M148.75 475.612a8.5 9.25 0 1 1-17 0 8.5 9.25 0 1 1 17 0z" fill="#ef3e33" stroke-width="1.064"/><path d="M483.108 214.117s11.092 49.25 11.48 50.125c2.904 10.323 1.544 20.384-3.741 30.375l-7.352 22.5s-9.03-39.125-14.705-51.625c-5.675-12.5 14.318-51.375 14.318-51.375z" fill="#008457" fill-rule="evenodd"/><path d="M507.759 263.867s2.375 46.75-1.875 51.25v.125c-1.75 26.5-17 33.375-17 33.375s.875-6.875-1.25-33 20.125-51.75 20.125-51.75zm-60.007-78.454c.35-.393-22.231-26.325-52.63-34.25.805-.537 14.364 20.803 14.262 24.204 9.568 15.664 11.79 22.91 46.088 44.47l-7.72-34.424z" fill="#008457" fill-rule="evenodd"/><path d="M447.634 161.492v23s8.375 42.625 12.25 46.5c0 0 7.615 19.16 8.5 22.375 11.735-26.928 6.742-55.358-8.875-72.5 0 0-11.625-17.875-11.875-19.375z" fill="#008457" fill-rule="evenodd"/><path d="M459.45 231.748c-2.828-6.01-35.709-29.344-35.709-29.344l13.789 26.162s6.364 18.385 7.424 19.446c0 0 12.021 11.314 12.021 13.081 0 0 8.486 8.486 14.142 9.9 0 0-4.596-15.203-2.828-16.617-2.65-7.5-4.079-14.826-8.839-22.628z" fill="#008457" fill-rule="evenodd"/><path d="M446.703 249.885c-7.279-6.466-6.716-5.08-9.82-7.143l9.376 25.125s13.875 37 34.125 47.875l3.25.25s-5.25-15.875-4.75-16.625-7.5-27.75-7.5-27.75l-24.68-21.732zm-2.103 83.864s4.067 31.29 10.607 39.598c0 0 9.37 10.43 8.663 14.142 0 0 1.944 1.414 2.828 1.414.884 0 4.596-27.224 10.607-33.764-2.156-9.249-9.077-14.496-14.496-21.744l-18.208.354z" fill="#008457" fill-rule="evenodd"/><path d="M442.656 272.407s6.364 61.342 37.477 77.605c0 0 1.768-3.889 2.652-3.889.884 0-3.89-31.466-15.91-41.189 0 0-25.28-26.87-24.219-32.527zm72.479 60.811s4.242 49.851-30.936 69.297c0 0 6.01-37.123 5.126-53.74l13.966-21.214 11.844 5.657zm-98.642 56.215s20.33-17.324 23.335-17.324c29.51-3.848 28.36 33.671 28.349 53.469l-20.57 15.474s9.722-25.102 2.297-44.724c0 0-8.308-14.673-33.41-6.895z" fill="#008457" fill-rule="evenodd"/><path d="M467.052 393.676c2.536-37.923 21.461-54.624 21.39-54.624 0 0 5.126 74.246-19.976 85.913l-1.414-31.29zm-35.002-3.889s-28.461 42.78-18.915 74.07l10.253-6.718-3.536 14.319s7.248-5.834 13.082-32.35l-.884-49.321zm39.598 43.133l31.643-11.313s-30.583 38.36-29.876 40.128c0 0-19.622 20.152-38.714 25.102l-11.49 2.652s36.416-30.052 48.437-56.569z" fill="#008457" fill-rule="evenodd"/><path d="M446.722 482.418s27.224.177 28.108-.53c.884-.708-26.87 25.102-54.094 29.168 0 0 17.854-19.8 19.269-22.628l-13.435.177s13.258-2.121 20.152-6.187zm30.936-60.811c-3.99-1.14-62.998 40.463-70.887 71.417 0 0 13.795-3.404 15.202-3.182 1.397.221 36.339-23.428 55.685-68.235z" fill="#008457" fill-rule="evenodd"/><path d="M412.427 169.17s23.335 15.202 23.335 25.102m18.738-4.596l11.668 34.648m-20.86 2.475l15.91 26.87m22.274-11.314s7.07 35.002-.354 43.134m18.032 3.889l-6.718 26.87m-39.245-16.618s1.415 12.375 7.425 16.618m42.426 30.052s0 23.334-9.192 27.223M458.39 346.3s6.717 25.456 10.252 29.345m11.668-5.304s-3.89 17.678-3.182 24.396m-37.477-14.143s26.517-4.596 20.86 33.234m-3.182 26.517s-22.628 16.97-31.113 36.77m-1.061-60.812s-5.656 15.91-3.182 27.577m60.105-7.07s-19.446 27.223-31.113 28.99m3.182 22.982s-1.06-2.475-25.456 14.495m21.92-242.537s3.89 21.567 24.395 38.184" fill="none" fill-rule="evenodd"/><path d="M148.75 475.612a8.5 9.25 0 1 1-17 0 8.5 9.25 0 1 1 17 0z" transform="matrix(-1.27941 0 0 1.16216 682.696 -149.621)" fill="#ef3e33" stroke-width=".82"/><path d="M148.75 475.612a8.5 9.25 0 1 1-17 0 8.5 9.25 0 1 1 17 0z" transform="matrix(-1.27941 0 0 1.16216 617.821 -193.121)" fill="#ef3e33" stroke-width=".82"/><path d="M148.75 475.612a8.5 9.25 0 1 1-17 0 8.5 9.25 0 1 1 17 0z" transform="matrix(-1.09224 0 0 1.02839 596.07 -76.495)" fill="#ef3e33" stroke-width=".944"/><path d="M442.634 422.117s-7.5 30.5-9.5 32.5m14.5-88.5l8 9m37.75 32.75l-16.5 9.25" fill="none" fill-rule="evenodd"/><path d="M122.83 456.966l24.041 17.677s13.612 27.224 14.496 27.224c.884 0-21.037-7.778-21.037-7.778 1.506.598-10.208-19.39-13.258-24.572-1.921-3.265-4.053-12.198-4.243-12.551zm141.42 62.048c-.883.177-5.656 6.364-5.656 6.364l.354 36.24 5.833 1.237-.53-43.84z" fill="#008457" fill-rule="evenodd"/><path d="M260.539 561.794s-18.032 21.567-21.214 54.094c0 0 12.905-13.435 18.032-10.253 0 0 1.414-19.8 7.247-24.572v-18.031l-4.065-1.238zm-99.172-59.75c-16.442-20.273-20.817-63.94-20.33-63.817 0 0 27.4 33.234 26.517 39.068 0 0 5.657 17.324 7.248 18.031l2.298 5.48-10.783-3.889s4.242 9.723 5.303 11.137c0 0-9.9-4.066-10.253-6.01z" fill="#008457" fill-rule="evenodd"/><path d="M150.407 457.142l13.788 31.113" fill="none" fill-rule="evenodd"/><path d="M186.646 527.853c-1.358.582-14.65-18.268-13.966-19.092.791-.952-40.481-24.395-65.053-19.799-1.175-.503 34.344 53.206 79.903 39.245" fill="#008457" fill-rule="evenodd"/><path d="M216.875 522.373S184.17 501.16 166.67 496.74c-1.334-.302 11.298 38.702 45.962 45.609 0 0 1.591-15.203 4.243-19.976z" fill="#008457" fill-rule="evenodd"/><path d="M187.353 528.207s-53.563-6.895-54.978-6.364c-1.414.53-10.253 1.237-10.96 15.91 0 0-6.187 12.02-15.026 17.147 0 0 12.375 9.9 30.052-9.37 0 0 10.784-1.59 18.385 1.769 0 0 18.562 1.06 22.45 0 3.89-1.061 15.91-8.663 24.75-8.486l.53.354c-2.652-.707-15.203-10.96-15.203-10.96zm-6.364-52.503s12.374 12.198 14.496 12.198c2.121 0 19.268 7.954 23.157 23.334l.884 7.248-7.955-.177-22.273-12.374-1.061-4.066s-9.193-17.501-7.248-26.163z" fill="#008457" fill-rule="evenodd"/><path d="M218.642 511.413s12.905-13.082 13.966-13.082c1.06 0 26.87 23.335 27.047 24.042.176.707-1.415 3.182-1.415 3.182l.177 16.794-4.066-.354s-4.066-8.839-21.213-22.804c0 0-5.48-3.359-13.081-.707 0 0-1.238-4.95-1.415-7.071z" fill="#008457" fill-rule="evenodd"/><path d="M238.088 524.14s-16.264 7.425-9.37 41.897c0 0-6.717-1.768-15.025-10.784 0 0-5.48-17.854 6.187-36.946 0 0 12.551-3.889 18.208 5.834z" fill="#008457" fill-rule="evenodd"/><path d="M212.437 542.548s-12.75-5-12.25-6-22.75 11.25-22.75 11.25l-26 20s19.5-5.75 25.75-5.5 25.25 1 30.5-4.25 4.75-2 4.75-2v-13.5zm.5 12.25s15 13.75 21.25 13.75c0 0 15.5-10.25 21.25-18.5l2.5-.5.75 11.5-15.75 18.5-10 1.25s-21.25-14.5-20.75-16c0 0 .445-9.721.75-10z" fill="#008457" fill-rule="evenodd"/><path d="M258.77 542.526l-28.814-6.718s-3.712 8.839-1.414 9.723c2.298.884 29.522 4.242 29.522 4.242l.707-7.247zm-39.95 28.461s-33.588 29.168-33.412 30.935c0 0 32.35-1.06 46.493-21.036l-13.082-9.9z" fill="#008457" fill-rule="evenodd"/><path d="M214.75 590.703c-5.201 3.03-11.663-.898-4.814-6.019 2.836-2.121 9.341 1.715 4.904 5.985-2.467 2.375-10.953 1.961-11.922.65-3.536-4.79 10.03-12.755 14.037-7.553 2.767 3.592.58 5.757-3.37 7.806-4.048 2.1-6.683 4.155-10.4 2.764-5.265-1.972-1.589-9.554 3.124-12.465 5.247-3.242 11.535-2.193 14.706 3a11.9 11.9 0 0 1 1.693 5.207M135.204 474.82s23.334 22.981 23.334 25.456m-31.112-.707s22.98 20.152 42.073 20.86m11.667-8.132l27.577 22.274m-18.385-42.427s14.142 19.092 22.628 20.506m-87.328 31.113s13.435-20.153 50.558-5.657m35.002 7.424s-26.517 2.83-30.76 9.9" fill="none" fill-rule="evenodd"/><path transform="matrix(.98825 0 0 .8946 44.331 68.425)" d="M148.75 475.612a8.5 9.25 0 1 1-17 0 8.5 9.25 0 1 1 17 0z" fill="#ef3e33" stroke-width="1.064"/><path d="M63.463 214.298s-11.093 49.25-11.48 50.125c-2.904 10.322-1.544 20.383 3.74 30.375l7.353 22.5s9.03-39.125 14.705-51.625c5.675-12.5-14.318-51.375-14.318-51.375z" fill="#008457" fill-rule="evenodd"/><path d="M38.812 264.048s-2.375 46.75 1.875 51.25v.125c1.75 26.5 17 33.375 17 33.375s-.875-6.875 1.25-33-20.125-51.75-20.125-51.75zm60.006-78.455c-.349-.392 22.232-26.324 52.632-34.25-.806-.537-14.365 20.803-14.263 24.205-9.569 15.663-11.79 22.91-46.088 44.47l7.72-34.425z" fill="#008457" fill-rule="evenodd"/><path d="M98.937 161.673v23s-8.375 42.625-12.25 46.5c0 0-7.615 19.159-8.5 22.375-11.735-26.928-6.743-55.358 8.875-72.5 0 0 11.625-17.875 11.875-19.375z" fill="#008457" fill-rule="evenodd"/><path d="M87.12 231.929c2.829-6.01 35.71-29.345 35.71-29.345l-13.79 26.163s-6.363 18.385-7.424 19.445c0 0-12.02 11.314-12.02 13.082 0 0-8.486 8.485-14.143 9.9 0 0 4.597-15.203 2.829-16.618 2.65-7.5 4.078-14.825 8.839-22.627z" fill="#008457" fill-rule="evenodd"/><path d="M99.867 250.066c7.28-6.467 6.716-5.08 9.82-7.143l-9.375 25.125s-13.875 37-34.125 47.875l-3.25.25s5.25-15.875 4.75-16.625 7.5-27.75 7.5-27.75l24.68-21.732zm2.103 83.863s-4.066 31.29-10.607 39.598c0 0-9.369 10.43-8.662 14.142 0 0-1.944 1.414-2.828 1.414-.884 0-4.596-27.223-10.607-33.764 2.156-9.248 9.077-14.496 14.496-21.744l18.208.354z" fill="#008457" fill-rule="evenodd"/><path d="M103.914 272.588s-6.364 61.341-37.476 77.605c0 0-1.768-3.89-2.652-3.89-.884 0 3.89-31.466 15.91-41.189 0 0 25.279-26.87 24.218-32.526zm-72.478 60.811s-4.243 49.85 30.936 69.296c0 0-6.01-37.123-5.127-53.74L43.28 327.742l-11.844 5.657zm98.641 56.215s-20.329-17.324-23.334-17.324c-29.51-3.848-28.36 33.67-28.349 53.468l20.57 15.474s-9.722-25.102-2.297-44.724c0 0 8.308-14.672 33.41-6.894z" fill="#008457" fill-rule="evenodd"/><path d="M79.52 393.856c-2.537-37.923-21.463-54.624-21.39-54.624 0 0-5.127 74.247 19.975 85.914l1.414-31.29zm35.001-3.889s28.461 42.78 18.915 74.07l-10.253-6.718 3.536 14.32s-7.248-5.835-13.082-32.351l.884-49.32zM74.923 433.1L43.28 421.788s30.582 38.36 29.875 40.128c0 0 19.622 20.153 38.714 25.103l11.49 2.651s-36.415-30.052-48.436-56.568z" fill="#008457" fill-rule="evenodd"/><path d="M99.848 482.598s-27.223.177-28.107-.53c-.884-.707 26.87 25.102 54.094 29.168 0 0-17.855-19.799-19.269-22.627l13.435.176s-13.258-2.12-20.153-6.187zm-30.935-60.811c3.99-1.14 62.998 40.463 70.887 71.418 0 0-13.795-3.405-15.203-3.182-1.396.22-36.338-23.428-55.684-68.236z" fill="#008457" fill-rule="evenodd"/><path d="M134.143 169.35s-23.334 15.203-23.334 25.102m-18.739-4.596l-11.667 34.648m20.86 2.476l-15.91 26.87m-22.274-11.315s-7.071 35.002.354 43.134m-18.032 3.889l6.718 26.87m39.244-16.617s-1.414 12.374-7.424 16.617M41.512 346.48s0 23.335 9.193 27.224m37.476-27.224s-6.717 25.456-10.253 29.345m-11.668-5.303s3.89 17.677 3.183 24.395m37.477-14.142s-26.517-4.596-20.86 33.234m3.182 26.516s22.627 16.97 31.113 36.77m1.06-60.811s5.657 15.91 3.182 27.577m-60.104-7.071s19.446 27.223 31.113 28.991m-3.182 22.981s1.06-2.475 25.456 14.496M95.96 260.92s-3.89 21.567-24.396 38.184" fill="none" fill-rule="evenodd"/><path d="M148.75 475.612a8.5 9.25 0 1 1-17 0 8.5 9.25 0 1 1 17 0z" transform="matrix(1.27941 0 0 1.16216 -136.125 -149.44)" fill="#ef3e33" stroke-width=".82"/><path d="M148.75 475.612a8.5 9.25 0 1 1-17 0 8.5 9.25 0 1 1 17 0z" transform="matrix(1.27941 0 0 1.16216 -71.25 -192.94)" fill="#ef3e33" stroke-width=".82"/><path d="M148.75 475.612a8.5 9.25 0 1 1-17 0 8.5 9.25 0 1 1 17 0z" transform="matrix(1.09224 0 0 1.02839 -49.5 -76.315)" fill="#ef3e33" stroke-width=".944"/><path d="M103.937 422.298s7.5 30.5 9.5 32.5m-14.5-88.5l-8 9m-37.75 32.75l16.5 9.25" fill="none" fill-rule="evenodd"/><path d="M153.653 315.596l-134.352.479L.5 324.56l18.738 9.546 138.218-.229-3.803-18.281zM1.207 324.56l153.796.707m239.009-9.474l133 .478 20.153 8.486-19.503 9.546-137.453-.229 3.803-18.281zm152.446 8.964l-153.796.707" fill="#fff" fill-rule="evenodd"/><g fill-rule="evenodd"><path d="M198.03 148.505l19.25 1.25-10.5 13.75-14.75-3.25 6-11.75z" fill="#ef3e33"/><path d="M200.634 151.136l11.396.619-6.72 8.265-8.81-1.869 4.134-7.015z" fill="none"/><path d="M348.394 149.222l-19.25 1.25 10.5 13.75 14.75-3.25-6-11.75z" fill="#ef3e33"/><path d="M345.79 151.853l-11.396.62 6.72 8.264 8.81-1.868-4.134-7.016z" fill="none"/><path d="M225.98 142.934l19.445-4.597c-.185 0 10.395 2.475 3.005 10.607l-18.915 5.127c-6.789-1.756-7.925-6.198-3.535-11.137z" fill="#fff200"/><path d="M227.748 145.85l17.324-4.684c-.022-.022 5.26 1.724 1.59 5.126l-16.705 4.597c0-.218-5.215-.787-2.21-5.039z" fill="none"/><path d="M320.264 142.735l-19.445-4.597c.185 0-10.395 2.475-3.005 10.607l18.915 5.127c6.789-1.756 7.925-6.199 3.535-11.137z" fill="#fff200"/><path d="M318.496 145.651l-17.324-4.684c.022-.022-5.26 1.724-1.59 5.126l16.705 4.597c0-.218 5.215-.787 2.21-5.039z" fill="none"/><path d="M273.03 132.505l15.875 9.25-15.625 9.875-15.5-9.375 15.25-9.75z" fill="#008457"/><path d="M273.27 135.567l10.073 6.288-9.915 6.712-9.835-6.372 9.676-6.628z" fill="none"/></g><path d="M182.921 87.751s9.464 0 10.546.27c1.081.271 16.764-24.875 54.89-20.008 0 0 22.712-14.872 50.022-.27 0 0 38.396-4.597 54.079 21.36 0 0 8.111-1.622 10.545-1.081 0 0 5.678 7.57 4.056 29.473l1.622 15.412-15.142 8.923s-84.633-36.503-160.343 1.352l-16.764-9.193 2.974-15.413s-.54-20.009 3.515-30.825z" fill="#ef3e33" fill-rule="evenodd"/><path d="M195.876 145.84s69.353-36.164 154.883.268" fill="none" fill-rule="evenodd"/><g fill="#fff200"><path d="M205.983 65.056s-28.637 4.95-25.455 51.972H175.4c-2.66-2.311-1.918-53.892 32.727-56.114l-2.145 4.142z" fill-rule="evenodd"/><path d="M-312.541-59.298a3.977 4.331 0 1 1-7.955 0 3.977 4.331 0 1 1 7.955 0z" transform="matrix(1.11111 0 0 1 521.725 164.924)" stroke-width=".949"/><path d="M-312.541-59.298a3.977 4.331 0 1 1-7.955 0 3.977 4.331 0 1 1 7.955 0z" transform="matrix(1.11111 0 0 1 522.755 155.466)" stroke-width=".949"/><path d="M-312.541-59.298a3.977 4.331 0 1 1-7.955 0 3.977 4.331 0 1 1 7.955 0z" transform="matrix(1.11111 0 0 1 525.674 145.744)" stroke-width=".949"/><path d="M-312.541-59.298a3.977 4.331 0 1 1-7.955 0 3.977 4.331 0 1 1 7.955 0z" transform="matrix(1 0 0 .95918 494.209 134.838)" stroke-width="1.021"/><path d="M-312.541-59.298a3.977 4.331 0 1 1-7.955 0 3.977 4.331 0 1 1 7.955 0z" transform="matrix(1.02222 0 0 .87755 506.201 122.573)" stroke-width="1.056"/><path d="M-312.541-59.298a3.977 4.331 0 1 1-7.955 0 3.977 4.331 0 1 1 7.955 0z" transform="matrix(.86667 0 0 .79592 462.729 111.838)" stroke-width="1.204"/><path d="M-312.541-59.298a3.977 4.331 0 1 1-7.955 0 3.977 4.331 0 1 1 7.955 0z" transform="matrix(.68889 0 0 .65306 412.804 100.334)" stroke-width="1.491"/><path d="M-312.541-59.298a3.977 4.331 0 1 1-7.955 0 3.977 4.331 0 1 1 7.955 0z" transform="matrix(.68889 0 0 .63265 418.638 96.56)" stroke-width="1.515"/></g><path d="M211.157 94.086c-23-28.5 15.767-50.848 15.767-50.848s26.63-5.254 37.13-2.754c0 0 2.103 4.352 1.603 5.352 0 0-49.25-1.5-39.5 42.5l-15 5.75z" fill="#fff200" fill-rule="evenodd"/><path d="M-312.541-59.298a3.977 4.331 0 1 1-7.955 0 3.977 4.331 0 1 1 7.955 0z" transform="matrix(1.13057 0 0 .98626 572.53 144.925)" fill="#fff200" stroke-width=".947"/><path d="M-312.541-59.298a3.977 4.331 0 1 1-7.955 0 3.977 4.331 0 1 1 7.955 0z" transform="matrix(1.13057 0 0 1.04535 570.898 138.973)" fill="#fff200" stroke-width=".92"/><path d="M-312.541-59.298a3.977 4.331 0 1 1-7.955 0 3.977 4.331 0 1 1 7.955 0z" transform="matrix(1.13057 0 0 1.04535 571.417 129.128)" fill="#fff200" stroke-width=".92"/><path d="M-312.541-59.298a3.977 4.331 0 1 1-7.955 0 3.977 4.331 0 1 1 7.955 0z" transform="matrix(1.01752 0 0 .99032 539.395 117.177)" fill="#fff200" stroke-width=".996"/><path d="M-312.541-59.298a3.977 4.331 0 1 1-7.955 0 3.977 4.331 0 1 1 7.955 0z" transform="matrix(1.05621 0 0 .92458 557.398 106.02)" fill="#fff200" stroke-width="1.012"/><path d="M-312.541-59.298a3.977 4.331 0 1 1-7.955 0 3.977 4.331 0 1 1 7.955 0z" transform="matrix(.88185 0 0 .78498 508.657 92.174)" fill="#fff200" stroke-width="1.202"/><path d="M-312.541-59.298a3.977 4.331 0 1 1-7.955 0 3.977 4.331 0 1 1 7.955 0z" transform="matrix(.82964 0 0 .70318 499.093 83.703)" fill="#fff200" stroke-width="1.309"/><path d="M-312.541-59.298a3.977 4.331 0 1 1-7.955 0 3.977 4.331 0 1 1 7.955 0z" transform="matrix(.70096 0 0 .62396 464.809 76.605)" fill="#fff200" stroke-width="1.512"/><path d="M-312.541-59.298a3.977 4.331 0 1 1-7.955 0 3.977 4.331 0 1 1 7.955 0z" transform="matrix(.5879 0 0 .56358 435.997 71.798)" fill="#fff200" stroke-width="1.737"/><path d="M-312.541-59.298a3.977 4.331 0 1 1-7.955 0 3.977 4.331 0 1 1 7.955 0z" transform="matrix(.5879 0 0 .56358 443.15 71.216)" fill="#fff200" stroke-width="1.737"/><path d="M222.263 89.238S205.5 43.172 264.874 43.684" fill="none" fill-rule="evenodd"/><path transform="matrix(.57778 0 0 .57143 389.44 92.131)" d="M-312.541-59.298a3.977 4.331 0 1 1-7.955 0 3.977 4.331 0 1 1 7.955 0z" fill="#fff200" stroke-width="1.74"/><path d="M334.102 93.655c23-28.5-15.768-50.849-15.768-50.849s-26.247-5.637-36.747-3.137c0 0-2.485 4.736-1.985 5.736 0 0 49.25-1.5 39.5 42.5l15 5.75z" fill="#fff200" fill-rule="evenodd"/><path d="M-312.541-59.298a3.977 4.331 0 1 1-7.955 0 3.977 4.331 0 1 1 7.955 0z" transform="matrix(-1.13057 0 0 .98626 -27.271 144.493)" fill="#fff200" stroke-width=".947"/><path d="M-312.541-59.298a3.977 4.331 0 1 1-7.955 0 3.977 4.331 0 1 1 7.955 0z" transform="matrix(-1.13057 0 0 1.04535 -25.639 138.542)" fill="#fff200" stroke-width=".92"/><path d="M-312.541-59.298a3.977 4.331 0 1 1-7.955 0 3.977 4.331 0 1 1 7.955 0z" transform="matrix(-1.13057 0 0 1.04535 -26.158 128.697)" fill="#fff200" stroke-width=".92"/><path d="M-312.541-59.298a3.977 4.331 0 1 1-7.955 0 3.977 4.331 0 1 1 7.955 0z" transform="matrix(-1.01752 0 0 .99032 5.863 116.745)" fill="#fff200" stroke-width=".996"/><path d="M-312.541-59.298a3.977 4.331 0 1 1-7.955 0 3.977 4.331 0 1 1 7.955 0z" transform="matrix(-1.05621 0 0 .92458 -12.14 105.588)" fill="#fff200" stroke-width="1.012"/><path d="M-312.541-59.298a3.977 4.331 0 1 1-7.955 0 3.977 4.331 0 1 1 7.955 0z" transform="matrix(-.88185 0 0 .78498 36.601 91.742)" fill="#fff200" stroke-width="1.202"/><path d="M-312.541-59.298a3.977 4.331 0 1 1-7.955 0 3.977 4.331 0 1 1 7.955 0z" transform="matrix(-.82964 0 0 .70318 46.166 83.27)" fill="#fff200" stroke-width="1.309"/><path d="M-312.541-59.298a3.977 4.331 0 1 1-7.955 0 3.977 4.331 0 1 1 7.955 0z" transform="matrix(-.70096 0 0 .62396 80.45 76.173)" fill="#fff200" stroke-width="1.512"/><path d="M-312.541-59.298a3.977 4.331 0 1 1-7.955 0 3.977 4.331 0 1 1 7.955 0z" transform="matrix(-.5879 0 0 .56358 109.261 71.367)" fill="#fff200" stroke-width="1.737"/><path d="M-312.541-59.298a3.977 4.331 0 1 1-7.955 0 3.977 4.331 0 1 1 7.955 0z" transform="matrix(-.5879 0 0 .56358 102.11 70.785)" fill="#fff200" stroke-width="1.737"/><path d="M322.996 88.806s16.763-46.066-42.612-45.554" fill="none" fill-rule="evenodd"/><path d="M278.754 40.224s5.067-1.447 3.619 2.715c-2.98 9.861 2.055 18.613 4.07 27.875.47 3.799 1.03 12.414-3.165 14.652l-20.63.18s-4.356-5.823-2.526-15.56c3.345-9.425 6.667-18.08 2.888-28.052 0 0-.724-2.171 3.257-1.99l2.353.904h8.143l1.99-.724z" fill="#fff200" fill-rule="evenodd"/><path transform="matrix(1.12 0 0 1.0196 512.106 165.642)" d="M-208.835-90.348a4.524 4.615 0 1 1-9.048 0 4.524 4.615 0 1 1 9.048 0z" fill="#fff200" stroke-width=".936"/><path transform="matrix(.94 0 0 .90196 473.701 145.33)" d="M-208.835-90.348a4.524 4.615 0 1 1-9.048 0 4.524 4.615 0 1 1 9.048 0z" fill="#fff200" stroke-width="1.086"/><path transform="matrix(.95455 0 0 1.07895 476.986 174)" d="M-209.378-109.983a3.981 3.438 0 1 1-7.962 0 3.981 3.438 0 1 1 7.962 0z" fill="#fff200" stroke-width=".985"/><g fill="#fff200"><path d="M339.275 64.624s29.406 5.077 26.224 52.1l4.359-.128c2.66-2.31 1.918-53.892-32.728-56.114l2.145 4.142z" fill-rule="evenodd"/><path d="M-312.541-59.298a3.977 4.331 0 1 1-7.955 0 3.977 4.331 0 1 1 7.955 0z" transform="matrix(-1.11111 0 0 1 23.534 164.492)" stroke-width=".949"/><path d="M-312.541-59.298a3.977 4.331 0 1 1-7.955 0 3.977 4.331 0 1 1 7.955 0z" transform="matrix(-1.11111 0 0 1 22.504 155.035)" stroke-width=".949"/><path d="M-312.541-59.298a3.977 4.331 0 1 1-7.955 0 3.977 4.331 0 1 1 7.955 0z" transform="matrix(-1.11111 0 0 1 19.584 145.312)" stroke-width=".949"/><path d="M-312.541-59.298a3.977 4.331 0 1 1-7.955 0 3.977 4.331 0 1 1 7.955 0z" transform="matrix(-1 0 0 .95918 51.05 134.406)" stroke-width="1.021"/><path d="M-312.541-59.298a3.977 4.331 0 1 1-7.955 0 3.977 4.331 0 1 1 7.955 0z" transform="matrix(-1.02222 0 0 .87755 39.057 122.14)" stroke-width="1.056"/><path d="M-312.541-59.298a3.977 4.331 0 1 1-7.955 0 3.977 4.331 0 1 1 7.955 0z" transform="matrix(-.86667 0 0 .79592 82.53 111.406)" stroke-width="1.204"/><path d="M-312.541-59.298a3.977 4.331 0 1 1-7.955 0 3.977 4.331 0 1 1 7.955 0z" transform="matrix(-.68889 0 0 .65306 132.454 99.902)" stroke-width="1.491"/><path d="M-312.541-59.298a3.977 4.331 0 1 1-7.955 0 3.977 4.331 0 1 1 7.955 0z" transform="matrix(-.68889 0 0 .63265 126.62 96.128)" stroke-width="1.515"/></g><path transform="matrix(.62 0 0 .60784 405.607 102.923)" d="M-208.835-90.348a4.524 4.615 0 1 1-9.048 0 4.524 4.615 0 1 1 9.048 0z" fill="#fff200" stroke-width="1.629"/><path d="M278.327 41.137c-1.94 12.776 9.763 32.369 2.41 41.12l-15.944.164c-4.624-12.288 3.754-23.974 2.797-41.266l10.737-.018z" fill="none" fill-rule="evenodd"/><path d="M368.373 134.507a4.685 5.127 90 1 0 10.253 0 4.685 5.127 90 1 0-10.253 0zm-190.192.049a5.127 4.685 0 1 1-10.253 0 5.127 4.685 0 1 1 10.253 0z" fill="#fff200"/><path d="M181.187 125.048s10.75 2 5.25-6.25c0 0-9.75-1.75-14-7.5 0 0-6.25-3.25-6.5 3.5l-.25 6.25s-20.5-6-17.5 8.5c8.146 2.206 5.865 1.498 16.25 1.25 0 0 4.25 1.75 7.25-.5 6.113 12.507 27.883 15.773 31-.25 11.55 4.944 19.646 1.725 24-10.25 7.088 7.492 17.153 11.26 23-.25 8.828 7.13 16.01 7.98 23-3.75 5.563 9.827 14.26 12.598 23.5 3.25 3.995 10.775 15.468 10.907 23.655.521 2.658 10.204 8.083 18.192 23.095 10.479 7.195 16.522 22.07 12.63 31.5.75 9.209-2.5 28.7 3.982 23.5-7.25 0 0-7-6.79-17-2.79l.25-8.96s-5.5-4.25-9 .75c-3.544 2.537-7.197 4.894-11.75 5.75 0 0-6.5 6.25 1 7.75 0 0 3.5 0 4-1s.5 2.5.5 2.5 4 1.5 0 6c0 0-15 9.5-21-7-14.746.827-17.07 6.665-23.25-14.125-6.424 6.531-14.01 16.062-25 1.375-.042.083-15.275 17.623-23.396-6.634 0 0-9.354 25.134-23.854 6.634-7.924 13.915-15.665 8.949-24.763-1.074 0 0-3.006 24.395-23.158 13.258 0 0-6.364 20.153-23.335 5.48l.53-3.889s2.476.354 2.476-2.525z" fill="#fff200" fill-rule="evenodd"/><path d="M181.187 125.098c-1.388-6.216-11.181-10.253-10.253-.884m-18.032 6.187s2.033-8.396 11.933.442m6.982-.618l3.36-5.304m190.368.129c2.203-5.72 11.195-11.253 10.076-.884m18.031 6.187s-1.237-9.016-11.137-.177m-11.203-5.878l3.302 6.353" fill="none" fill-rule="evenodd"/><path d="M214.067 121.21s-6.929 4.713-6.675-4.168c.845-3.372 1.092-4.843-1.243-5.905-1.95-2.671-4-6.995 3.675-6.722 0 0 12.021 3.006 2.475-4.95 0 0-5.407-9.14 5.73-8.256 6.131-4.277 10.5-1.23 9.561 5.184-.483 3.721-.358 8.188 4.862.951 0 0 6.187-3.889 7.248 2.298 0 0-1.768 6.541 2.475 7.779 0 0 1.767 6.187-4.243 6.54l-13.28-1.643c-3.638 2.98-7.7 5.125-10.585 8.891z" fill="#fff200" fill-rule="evenodd"/><path d="M214.363 118.03s-4.283 3.308-3.946-3.363c.331-2.29.709-3.013-1.02-4.451-1.545-1.397-3.036-3.547 3.045-3.336.014.082 11.35 1.298 3.37-6.626 0 0-5.859-7.533 3.12-6.841 5.058-3.606 6.97-.203 6.298 4.361-.268 2.718-.024 6.225 2.505 5.776.98-.174 2.305-.943 4.076-2.583 0 0 3.863-5.045 4.718-.2 0 0-1.425 5.122 1.996 6.091 0 0 2.05 3.72-2.796 3.997l-11.332-.162c-2.933 2.334-7.709 4.388-10.034 7.338z" fill="none" fill-rule="evenodd"/><path d="M226.187 109.36a2.563 2.563 0 1 1-5.125 0 2.563 2.563 0 1 1 5.125 0z" fill="#fff200"/><path d="M221.187 101.38l1.64 5.131m3.381 1.552l4.604-1.515m-14.402 5.045l4.365-1.551" fill="none" fill-rule="evenodd"/><path d="M-273.12-43.477s-.508.346-1.244.674c-1.982.883-5.616 1.635-5.43-4.84.844-3.373 1.09-4.843-1.244-5.905-1.95-2.672-4-6.995 3.675-6.722 0 0 12.021 3.005 2.475-4.95 0 0-5.407-9.14 5.73-8.257 6.131-4.277 10.5-1.229 9.561 5.184-.483 3.721-.358 8.188 4.862.952 0 0 6.187-3.89 7.248 2.298 0 0-1.768 6.54 2.475 7.778 0 0 1.767 6.187-4.243 6.54l-13.28-1.642c-3.638 2.98-7.7 5.124-10.585 8.89z" fill="#fff200" fill-rule="evenodd" stroke-width=".993" transform="matrix(-1 0 0 1.0146 59.21 165.503)"/><path d="M-272.824-46.655s-4.283 3.307-3.946-3.363c.331-2.291.709-3.014-1.02-4.452-1.545-1.396-3.036-3.546 3.045-3.336.014.082 11.35 1.298 3.37-6.626 0 0-5.859-7.533 3.12-6.84 5.058-3.607 6.97-.204 6.298 4.36-.268 2.719-.024 6.225 2.505 5.776.98-.173 2.305-.942 4.076-2.582 0 0 3.863-5.046 4.718-.2 0 0-1.425 5.121 1.996 6.09 0 0 2.05 3.72-2.796 3.997l-11.332-.161c-2.933 2.333-7.709 4.388-10.034 7.337z" fill="none" fill-rule="evenodd" stroke-width=".993" transform="matrix(-1 0 0 1.0146 59.21 165.503)"/><path transform="matrix(-1.13889 0 0 1.15552 22.675 173.66)" d="M-261.25-55.638a2.25 2.25 0 1 1-4.5 0 2.25 2.25 0 1 1 4.5 0z" fill="#fff200" stroke-width=".872"/><path d="M-266-63.306l1.64 5.132m3.381 1.551l4.604-1.515m-14.403 5.046l4.366-1.552" fill="none" fill-rule="evenodd" stroke-width=".993" transform="matrix(-1 0 0 1.0146 59.21 165.503)"/><path d="M-273.12-43.477s-6.929 4.714-6.675-4.167c.845-3.372 1.092-4.842-1.243-5.904-1.95-2.672-4-6.995 3.675-6.722 0 0 12.021 3.005 2.475-4.95 0 0-5.407-9.14 5.73-8.257 6.131-4.277 10.5-1.229 9.561 5.184-.483 3.721-.358 8.188 4.862.952 0 0 6.187-3.89 7.248 2.298 0 0-1.768 6.54 2.475 7.778 0 0 1.767 6.187-4.243 6.54l-13.28-1.642c-3.638 2.98-7.7 5.124-10.585 8.89z" fill="#fff200" fill-rule="evenodd" stroke-width=".967" transform="matrix(-.99684 .27845 .2881 .9918 26.166 229.837)"/><path d="M-272.824-46.655s-4.283 3.307-3.946-3.363c.331-2.291.709-3.014-1.02-4.452-1.545-1.396-3.036-3.546 3.045-3.336.014.082 11.35 1.298 3.37-6.626 0 0-5.859-7.533 3.12-6.84 5.058-3.607 6.97-.204 6.298 4.36-.268 2.719-.024 6.225 2.505 5.776.98-.173 2.305-.942 4.076-2.582 0 0 3.863-5.046 4.718-.2 0 0-1.425 5.121 1.996 6.09 0 0 2.05 3.72-2.796 3.997l-11.332-.161c-2.933 2.333-7.709 4.388-10.034 7.337z" fill="none" fill-rule="evenodd" stroke-width=".967" transform="matrix(-.99684 .27845 .2881 .9918 26.166 229.837)"/><path transform="matrix(-1.13529 .31713 .32812 1.12955 -7.937 247.984)" d="M-261.25-55.638a2.25 2.25 0 1 1-4.5 0 2.25 2.25 0 1 1 4.5 0z" fill="#fff200" stroke-width=".849"/><path d="M-266-63.306l1.64 5.132m3.381 1.551l4.604-1.515m-14.403 5.046l4.366-1.552" fill="none" fill-rule="evenodd" stroke-width=".967" transform="matrix(-.99684 .27845 .2881 .9918 26.166 229.837)"/><path d="M-283.727-41.267a3.359 2.917 0 1 1-6.717 0 3.359 2.917 0 1 1 6.717 0z" transform="matrix(1 0 0 1.0909 487.187 168.349)" fill="#fff200" stroke-width=".957"/><path d="M-283.727-41.267a3.359 2.917 0 1 1-6.717 0 3.359 2.917 0 1 1 6.717 0z" transform="matrix(1 0 0 1.0909 536.154 155.444)" fill="#fff200" stroke-width=".957"/><path d="M-283.727-41.267a3.359 2.917 0 1 1-6.717 0 3.359 2.917 0 1 1 6.717 0z" transform="matrix(1 0 0 1.0909 584.591 155.09)" fill="#fff200" stroke-width=".957"/><path d="M-283.727-41.267a3.359 2.917 0 1 1-6.717 0 3.359 2.917 0 1 1 6.717 0z" transform="matrix(1 0 0 1.0909 633.205 168.702)" fill="#fff200" stroke-width=".957"/><path d="M-146.402-91.886a13.663 12.668 0 1 1-27.325 0 13.663 12.668 0 1 1 27.325 0z" transform="matrix(.90728 0 0 1 417.997 120.574)" fill="#fff200" stroke-width="1.05"/><path d="M272.682 1l.09 14.93m-4.976-11.04h9.772" fill="none" fill-rule="evenodd" stroke-width="2"/><path d="M270.153 16.581c-.068-.22 2.615-4.129 5.158-.18l.362 6.786s5.377 1.14 8.751 2.766c2.87 1.068 3.067 4.59.29 5.16-9.7-4.062-16.062-2.896-23.626.365-.654-.18-4.48-1.505-.255-5.396l9.41-2.714-.09-6.787zM162.802 186.39h9.178v-3.437h-1.632V184h-1.093v-2.39l-3.25-.048-.048 2.485-1.076.008v-1.08l-2.09-.003.011 3.418zm2.963 105.353h9.178v-3.438h-1.632v1.048h-1.093v-2.39l-3.25-.048-.048 2.486-1.076.008v-1.08l-2.09-.004.011 3.418zm31.907 98.017h9.177v-3.437h-1.632v1.048h-1.092v-2.39l-3.25-.048-.049 2.485-1.076.008v-1.08l-2.09-.003.012 3.418zm71.248-203.876h9.178v-3.437h-1.632v1.047h-1.093v-2.39l-3.25-.047-.048 2.485-1.076.008v-1.08l-2.09-.003.011 3.417zm105.183 1.082h9.177v-3.438h-1.631v1.048h-1.093v-2.39l-3.25-.048-.048 2.486-1.076.008v-1.08l-2.091-.004.012 3.418z" fill="#fff200" fill-rule="evenodd"/></g></svg>