<svg xmlns="http://www.w3.org/2000/svg" viewBox="0 0 1000 232.4"><path d="M0 226.7v-21h14.9c9.1 0 14.1-2.8 14.1-19.8V75.7c0-12.1-3.1-15.9-17.1-15.9H0V39h176.2v74.7h-19.8c-3.9-38.5-7.2-53.8-42.9-53.8h-47v59h14.1c16.1 0 23.2-8.6 23.2-31.5v-3.6h19.8v94.5h-19.8v-6.8c0-22.9-7.2-31.7-23.2-31.7H66.5v65.9h53.4c24.5 0 34.1-16.1 36.6-58.3h19.8v79.3H0zm190.6 0v-21h17.2c7.5 0 12.5-2.8 12.5-12.4V72.1c0-8.5-3.4-12.2-14.1-12.2h-15.6V39h97.8v20.9h-14.9c-11.7 0-15.8 2.8-15.8 12.8V206h43.5c27.5 0 34.1-16.2 36.6-60h19.8v80.7h-167zm219.4 0v-21h17.2c6.1 0 11.4-2.2 11.4-9.6V69.6c0-7.4-5.4-9.7-11.4-9.7H410V39h104.7c40 0 62.9 19.5 62.9 51.5 0 34.8-24 51.3-59.8 51.3H476v54.3c0 7.4 6.7 9.6 12.8 9.6h17.1v21H410zm66-105.9h24.3c25 0 38.4-8.2 38.4-30s-10.6-30.9-38.4-30.9H476v60.9zm71.8 105.9h83.3v-21h-20.8c-5 0-8.6-1.1-8.6-5 0-2.5.6-4.2 1.1-6l8.8-28.3h60.6l8.8 28.3c.6 1.7 1.1 4.2 1.1 6.8 0 2.8-2.1 4.2-8.3 4.2h-21.1v21h180.7v-21h-15.5c-9.1 0-13.1-4.7-13.1-13.8V73.5c0-10.8 8.3-13.6 16.9-13.6h11.7V39H739v20.9h14.9c10.4 0 13.6 5.7 13.6 12.8v122.9c0 7.3-4.3 10.1-15.2 10.1h-6.7c-14.1 0-23.2-1.9-28-15.2L664.2 39h-37.4l-51 151.5c-4.5 13.3-13.9 15.2-28.1 15.2.1 0 .1 21 .1 21zm116.6-81.3h-45l21.3-68.3h.6l23.1 68.3zM974.7 39h15.5v71.3H971c-6.4-30.8-23.2-52.9-54.9-52.9-24.8 0-35 6.8-35 25.6 0 42.4 119.1 10.7 119.1 89.7 0 45-33.1 59.8-70.5 59.8-20 0-40-9.1-55.5-22.3l-5.8 16.7H850V150h19.7c3.7 38 25.7 58.4 63.5 58.4 23.5 0 34.7-11.6 34.7-25.2 0-48.4-119.1-11.9-119.1-92.9 0-39.9 33.9-56.9 66.2-56.9 20.3 0 37.4 9.9 50.7 19.8l9-14.2z" fill="#212020"/><path fill="#016ca2" d="M834 0v23.6h-97.4z"/></svg>