<svg width="80" height="23" xmlns="http://www.w3.org/2000/svg"><path d="M0 17.292h1.171V4.689H0V0h7.132C8.144 2.378 8.62 5.017 9.795 7.327L12.508 0h6.966v4.69h-1.172v12.602h1.172v4.836h-7.468v-4.836h1.318v-7.62h-.112L9.755 18.76c-1.32-2.917-2.222-6.065-3.386-9.065l-.073 7.596h1.171v4.836H0v-4.836zm20.206 0h.847L23.93 0h7.99v.135l2.787 17.157h.873v4.836h-6.882v-4.836h.879v-1.905h-3.368v1.905h.879v4.836h-6.882v-4.836zm7.706-11.386l-1.117 6.697h2.196a71.069 71.069 0 0 0-1.079-6.697zm8.4 11.386h1.171V4.689h-1.17V0h11.354l2.262 2.278v7.036l-1.875 1.86 1.875 1.755v4.363H51.1v4.836h-6.588v-8.793H42.9v3.957h.879v4.836h-7.468v-4.836zm8.2-12.429l-1.611-.1v5.202h1.61V4.863zm7.32 14.84V2.266L54.11 0h7.467l2.263 2.278v6.808h-4.978v-4.25h-1.757v12.456h1.757v-4.25h4.978v6.821l-2.276 2.265h-7.32l-2.41-2.424zm12.74-2.411c.295.003.595.015.878-.057.901-5.73 1.885-11.449 2.782-17.181l7.974.02 2.78 17.218h.96v4.836h-7.029v-4.836h1.025v-1.905h-3.368v1.905h.879v4.836H64.57v-4.836zm7.706-11.435l-1.237 6.746h2.352l-1.115-6.746z" fill="#E20123"/></svg>