<svg width="24" height="27" xmlns="http://www.w3.org/2000/svg"><g fill="#FFF" fill-rule="evenodd"><path d="M3.59 3.59A11.726 11.726 0 0 1 11.98.052a11.73 11.73 0 0 1 8.393 3.538 12.153 12.153 0 0 1 3.476 8.542c0 3.092-1.159 6.184-3.476 8.542a11.726 11.726 0 0 1-8.393 3.539c-3.037 0-6.074-1.18-8.392-3.539a12.153 12.153 0 0 1-3.476-8.542c0-3.091 1.159-6.183 3.476-8.542zM11.98.636a11.16 11.16 0 0 0-7.986 3.367 11.566 11.566 0 0 0-3.308 8.13c0 2.942 1.102 5.884 3.308 8.129a11.16 11.16 0 0 0 7.986 3.367 11.16 11.16 0 0 0 7.987-3.367 11.566 11.566 0 0 0 3.308-8.13c0-2.942-1.103-5.884-3.308-8.129A11.16 11.16 0 0 0 11.98.636z"/><path d="M11.96 26.064c1.105-.303 2.303-.94 3.484-1.778.499-.148.99-.327 1.47-.539a.051.051 0 0 1 .066.022.053.053 0 0 1-.012.068c-1.627 1.34-3.361 2.38-4.929 2.789l-.08.02-.08-.02c-1.567-.41-3.302-1.449-4.928-2.789a.053.053 0 0 1-.012-.068.051.051 0 0 1 .065-.022c.48.212.972.391 1.47.539 1.182.839 2.38 1.475 3.485 1.778zM22.72 5.673l.01-2.65a33.265 33.265 0 0 0-3.276-1.074c-.35-.269-.71-.516-1.08-.742a.053.053 0 0 1-.022-.065.052.052 0 0 1 .06-.033c1.571.358 3.147.847 4.731 1.467l.185.073-.015 3.949a.052.052 0 0 1-.04.051.051.051 0 0 1-.059-.028c-.15-.322-.316-.638-.495-.948zM4.416 1.985a33.34 33.34 0 0 0-3.142 1.038l-.01 2.537a12.66 12.66 0 0 0-.5.936.051.051 0 0 1-.06.029.052.052 0 0 1-.04-.052L.68 2.648l.184-.072a33.303 33.303 0 0 1 4.591-1.434.052.052 0 0 1 .06.032.053.053 0 0 1-.021.065c-.368.227-.727.476-1.076.746zM20.9 13.13l-.299.268h-.803l-.298-.268v-.414h.455v.208h.48v-.572h-.65l-.298-.268V11.1l.297-.27h.814l.302.271v2.029zm-.465-1.254v-.572h-.48v.572h.48zm2.183 1.254l-.299.268h-.803l-.298-.268v-.414h.455v.208h.48v-.572h-.65l-.298-.268V11.1l.297-.27h.814l.302.271v2.029zm-.465-1.254v-.572h-.48v.572h.48zM4.398 8.843L2.62 7.783c.237-.415.476-.83.715-1.244l.381.227-.463.806.358.213.382-.663.353.21-.381.664.697.415-.252.439-.012-.007zm1.445-2.07c-.053.056-.11.105-.17.146a.902.902 0 0 1-.187.1 1.071 1.071 0 0 1-.396.07 1.05 1.05 0 0 1-.388-.085A1.073 1.073 0 0 1 4.5 5.14a.902.902 0 0 1 .188-.1 1.056 1.056 0 0 1 .397-.069 1.057 1.057 0 0 1 .564.181 1.047 1.047 0 0 1 .384.458 1.13 1.13 0 0 1 .093.393 1.062 1.062 0 0 1-.283.77zm-1.12-.358a.767.767 0 0 0 .29.175.571.571 0 0 0 .212.02.503.503 0 0 0 .205-.075.546.546 0 0 0 .213-.286.542.542 0 0 0-.06-.427.795.795 0 0 0-.325-.314.595.595 0 0 0-.209-.061.494.494 0 0 0-.308.078.555.555 0 0 0-.212.284.545.545 0 0 0 .056.425.797.797 0 0 0 .139.18zm1.823-1.842l.612.987-.422.271L5.63 4.046l.329-.21 1.42.505-.63-1.014.423-.271L8.278 4.84l-.338.217-1.394-.485zm2.068.107l-.633-1.996.74-.244a1.32 1.32 0 0 1 .234-.055.97.97 0 0 1 .594.108.903.903 0 0 1 .288.258 1.18 1.18 0 0 1 .185.367c.024.077.042.151.052.224a1.112 1.112 0 0 1-.02.413.912.912 0 0 1-.315.49 1.056 1.056 0 0 1-.175.117 1.278 1.278 0 0 1-.206.087l-.74.243-.004-.012zm.925-1.403a.909.909 0 0 0-.108-.224.592.592 0 0 0-.155-.149.437.437 0 0 0-.195-.065.62.62 0 0 0-.225.029l-.265.087.366 1.154.265-.087a.607.607 0 0 0 .111-.049.478.478 0 0 0 .236-.34.64.64 0 0 0 0-.231.89.89 0 0 0-.03-.125zm1.969.777a1 1 0 0 1-.221-.02.896.896 0 0 1-.201-.067 1.083 1.083 0 0 1-.327-.238 1.087 1.087 0 0 1-.213-.34 1.114 1.114 0 0 1-.063-.602 1.076 1.076 0 0 1 .594-.78.933.933 0 0 1 .414-.093.951.951 0 0 1 .599.192 1 1 0 0 1 .27.296 1.121 1.121 0 0 1 .152.777 1.078 1.078 0 0 1-.146.38 1.067 1.067 0 0 1-.444.401.924.924 0 0 1-.414.094zm-.534-1.063a.797.797 0 0 0 .037.229.652.652 0 0 0 .103.196.487.487 0 0 0 .515.168.503.503 0 0 0 .323-.28.658.658 0 0 0 .062-.217.81.81 0 0 0-.03-.344.614.614 0 0 0-.103-.194.5.5 0 0 0-.271-.169.546.546 0 0 0-.348.045.527.527 0 0 0-.258.339.804.804 0 0 0-.03.227zm2.487 1.137l.569-2.016.9.263a.634.634 0 0 1 .407.356.778.778 0 0 1 .077.396.673.673 0 0 1-.056.22.724.724 0 0 1-.296.341.633.633 0 0 1-.154.062l.225.88-.542-.158-.195-.756-.277-.081-.182.646-.48-.14.004-.013zm.78-.922l.403.118a.14.14 0 0 0 .073.002.2.2 0 0 0 .076-.037.27.27 0 0 0 .065-.072.392.392 0 0 0 .059-.215.245.245 0 0 0-.075-.167.158.158 0 0 0-.065-.037l-.39-.114-.147.522zm2.055 1.593a.45.45 0 0 0 .1.045c.032.01.064.014.095.014a.386.386 0 0 0 .179-.047.563.563 0 0 0 .157-.128 1.125 1.125 0 0 0 .128-.18l.536-.931.43.256-.535.931a1.59 1.59 0 0 1-.25.325.878.878 0 0 1-.31.202.77.77 0 0 1-.359.047.82.82 0 0 1-.195-.045 1.176 1.176 0 0 1-.39-.234.82.82 0 0 1-.272-.686c.005-.062.016-.124.032-.188a1.465 1.465 0 0 1 .153-.368l.536-.932.43.257-.535.931a1.138 1.138 0 0 0-.093.207.661.661 0 0 0-.03.201.408.408 0 0 0 .047.18.321.321 0 0 0 .058.076.463.463 0 0 0 .088.067zm2.737.874c0-.003 0-.01-.003-.022A.698.698 0 0 0 19 5.54a1.493 1.493 0 0 0-.108-.238.703.703 0 0 0-.113-.146.33.33 0 0 0-.16-.1c-.046-.007-.086.008-.122.046a.148.148 0 0 0-.026.036.11.11 0 0 0-.011.039.184.184 0 0 0 .002.045.574.574 0 0 0 .074.181l.046.08.053.09a2.97 2.97 0 0 1 .131.253.849.849 0 0 1 .064.232.509.509 0 0 1-.082.33.747.747 0 0 1-.34.279.582.582 0 0 1-.263.021.685.685 0 0 1-.255-.096 1.235 1.235 0 0 1-.311-.263 1.671 1.671 0 0 1-.264-.399 1.814 1.814 0 0 1-.087-.217 1.215 1.215 0 0 1-.028-.109l-.003-.01.465-.168-.001.02a1.032 1.032 0 0 0 .073.257A1.452 1.452 0 0 0 17.9 6c.024.03.05.06.078.087.059.057.11.09.156.101.043.01.08-.002.113-.036a.116.116 0 0 0 .035-.087.454.454 0 0 0-.027-.118.941.941 0 0 0-.074-.15l-.103-.183a2.116 2.116 0 0 1-.113-.243.794.794 0 0 1-.043-.211.466.466 0 0 1 .082-.278.749.749 0 0 1 .189-.19.584.584 0 0 1 .26-.101.611.611 0 0 1 .136-.005.72.72 0 0 1 .268.077.927.927 0 0 1 .242.175 1.138 1.138 0 0 1 .14.165 1.635 1.635 0 0 1 .24.526l.004.013-.453.152.003-.02zm-.158 2.263a1.073 1.073 0 0 1-.096-.203 1.073 1.073 0 0 1 .164-.979 1.098 1.098 0 0 1 .294-.273 1.031 1.031 0 0 1 .965-.073 1.042 1.042 0 0 1 .338.238 1.077 1.077 0 0 1 .274.59 1.113 1.113 0 0 1-.034.408 1.106 1.106 0 0 1-.47.63 1.025 1.025 0 0 1-.576.158 1.034 1.034 0 0 1-.727-.32 1.061 1.061 0 0 1-.132-.176zm.623-1.012a.77.77 0 0 0-.24.24.593.593 0 0 0-.072.204.533.533 0 0 0 .02.221.561.561 0 0 0 .218.282.517.517 0 0 0 .42.048.775.775 0 0 0 .382-.24.608.608 0 0 0 .11-.19.517.517 0 0 0 .003-.323.57.57 0 0 0-.216-.281.525.525 0 0 0-.418-.052.766.766 0 0 0-.207.09zM4.867 17.284a.73.73 0 0 0 .006-.137 1.563 1.563 0 0 0-.019-.166 1.391 1.391 0 0 0-.019-.091.706.706 0 0 0-.067-.172.334.334 0 0 0-.125-.141c-.042-.021-.085-.018-.13.008a.143.143 0 0 0-.035.027.11.11 0 0 0-.02.034.185.185 0 0 0-.011.043.57.57 0 0 0 .02.194l.022.09.026.101a2.877 2.877 0 0 1 .055.28.847.847 0 0 1-.004.24.502.502 0 0 1-.17.29.733.733 0 0 1-.4.17.575.575 0 0 1-.372-.126.798.798 0 0 1-.103-.095 1.213 1.213 0 0 1-.172-.237 1.54 1.54 0 0 1-.14-.328 1.703 1.703 0 0 1-.07-.349 1.328 1.328 0 0 1-.004-.227l.001-.012.491-.026-.007.02a.99.99 0 0 0-.002.266 1.45 1.45 0 0 0 .077.33.875.875 0 0 0 .05.106.36.36 0 0 0 .121.141.11.11 0 0 0 .117-.002.13.13 0 0 0 .038-.031.113.113 0 0 0 .02-.042.27.27 0 0 0 .008-.054.952.952 0 0 0-.03-.23l-.047-.204a2.135 2.135 0 0 1-.04-.265.806.806 0 0 1 0-.113.588.588 0 0 1 .05-.192.443.443 0 0 1 .122-.15.735.735 0 0 1 .233-.127.576.576 0 0 1 .277-.023.613.613 0 0 1 .253.097.94.94 0 0 1 .295.324 1.15 1.15 0 0 1 .118.3 1.585 1.585 0 0 1 .053.47v.013l-.474.015.008-.019zm16.04.038l-.376-.305.25-.32.387.312a83.17 83.17 0 0 1-.25.321l-.01-.008zm-3.59 2.672a1.018 1.018 0 0 1-.211-.319 1.054 1.054 0 0 1-.023-.788.942.942 0 0 1 .099-.196 1.155 1.155 0 0 1 .362-.353.87.87 0 0 1 .467-.13.76.76 0 0 1 .222.038l.011.003c-.027.157-.056.313-.084.47l-.015-.006a.455.455 0 0 0-.15-.033.486.486 0 0 0-.204.045.447.447 0 0 0-.11.072.627.627 0 0 0-.124.14.43.43 0 0 0-.048.105.55.55 0 0 0-.018.216.574.574 0 0 0 .066.206.802.802 0 0 0 .131.18.718.718 0 0 0 .292.181.573.573 0 0 0 .213.023.503.503 0 0 0 .203-.07.52.52 0 0 0 .17-.175.52.52 0 0 0 .075-.265.369.369 0 0 0-.032-.149l-.005-.014.458-.118.004.01a.614.614 0 0 1 .046.249.868.868 0 0 1-.043.26 1.15 1.15 0 0 1-.447.597.88.88 0 0 1-.188.091 1.054 1.054 0 0 1-.966-.142 1.051 1.051 0 0 1-.15-.128zm2.857-1.466l-1.649-1.244.84-1.153.353.266-.544.747.332.25.448-.615.328.248-.448.615.646.487-.296.407-.01-.008zm-.603.76l-.37-.312.257-.315.38.321-.257.315-.01-.008zm-14.623.398a1.059 1.059 0 0 1-.137-.176.929.929 0 0 1-.092-.193 1.123 1.123 0 0 1-.057-.403 1.108 1.108 0 0 1 .476-.851 1.032 1.032 0 0 1 1.448.311.93.93 0 0 1 .091.193 1.1 1.1 0 0 1 .056.405 1.108 1.108 0 0 1-.474.845 1.035 1.035 0 0 1-.37.156 1.026 1.026 0 0 1-.774-.147 1.042 1.042 0 0 1-.167-.14zm.384-1.123a.775.775 0 0 0-.18.288.595.595 0 0 0-.026.214.52.52 0 0 0 .068.21.55.55 0 0 0 .273.224.511.511 0 0 0 .419-.049.775.775 0 0 0 .317-.32.616.616 0 0 0 .065-.209.517.517 0 0 0-.067-.314.56.56 0 0 0-.271-.224.517.517 0 0 0-.417.045.772.772 0 0 0-.18.135zm1.136 2.37l.95-1.85.441.234-.753 1.466.876.466-.204.397-1.316-.7.006-.012zm2.902 1.309a1.03 1.03 0 0 1-.209-.074.902.902 0 0 1-.178-.114 1.09 1.09 0 0 1-.26-.311 1.096 1.096 0 0 1-.124-.382 1.115 1.115 0 0 1 .084-.596 1.059 1.059 0 0 1 .758-.607.926.926 0 0 1 .422.013.905.905 0 0 1 .387.188 1.077 1.077 0 0 1 .259.312 1.104 1.104 0 0 1 .123.383 1.101 1.101 0 0 1-.084.59 1.066 1.066 0 0 1-.756.609.916.916 0 0 1-.422-.011zm-.262-1.159a.791.791 0 0 0-.002.342.595.595 0 0 0 .09.195.51.51 0 0 0 .167.141.533.533 0 0 0 .348.042.514.514 0 0 0 .19-.099.617.617 0 0 0 .14-.169.796.796 0 0 0 .102-.442.624.624 0 0 0-.055-.213.51.51 0 0 0-.128-.169.547.547 0 0 0-.328-.117.412.412 0 0 0-.111.014.522.522 0 0 0-.33.263.8.8 0 0 0-.083.212zm2.859 1.551l-.25-2.073.925-.115a.626.626 0 0 1 .51.164.764.764 0 0 1 .222.333.67.67 0 0 1 .033.224.73.73 0 0 1-.141.43.643.643 0 0 1-.117.117l.542.718-.557.07-.468-.616-.284.035.08.665-.494.061-.001-.013zm.361-1.154l.415-.052a.144.144 0 0 0 .069-.027.204.204 0 0 0 .054-.064.273.273 0 0 0 .033-.092.395.395 0 0 0-.029-.22.24.24 0 0 0-.133-.123.156.156 0 0 0-.073-.008l-.4.05.064.536zm1.64.958l-.132-.47.388-.112.134.484-.387.111-.004-.013zm2.458-.917l-.471-1.085-.044.96-.245.111-.727-.613.476 1.097-.455.204a922.36 922.36 0 0 0-.835-1.922l.487-.22.9.763.055-1.192.484-.218.835 1.923-.455.204-.005-.012zm.812-.418l-.27-.405.332-.23.278.416-.333.23-.007-.01zM2.395 13.398h-.466v-1.985h-.133v-.473l.287-.11h.312v2.568zm1.798-.268l-.299.268h-.803l-.298-.268v-.414h.455v.208h.48v-.572h-.651l-.297-.268V11.1l.297-.27h.814l.302.271v2.029zm-.465-1.254v-.572h-.48v.572h.48zm6.166-6.193a6.603 6.603 0 0 0-1.07.469c-1.773.97-2.94 2.643-3.35 4.5a9.53 9.53 0 0 0 1.586.9c.017-.977.34-3.4 2.834-5.869zm.059 6.525h.02a5.39 5.39 0 0 0 1.756-.27c.088-.729.636-3.428 4.005-5.417a6.635 6.635 0 0 0-1.62-.818c-3.897 2.227-4.165 5.588-4.161 6.505zM7.6 11.77a7.29 7.29 0 0 0 1.815.411 7.2 7.2 0 0 1 .407-2.32c.43-1.248 1.398-2.973 3.575-4.36a6.55 6.55 0 0 0-2.41-.082C7.725 8.179 7.58 11.06 7.6 11.769z"/><path d="M18.567 13.185a6.858 6.858 0 0 0-.71-4.267 6.73 6.73 0 0 0-1.653-2.04c-.44.247-.93.566-1.414.965.81.469 2.675 1.876 3.777 5.342zm-5.724-2.965a1.723 1.723 0 0 0-.027.052c-.398.802-.518 1.46-.553 1.734.546.439 2.548 2.33 2.441 6.324a6.671 6.671 0 0 0 1.722-1.135c-.133-4.217-2.779-6.407-3.583-6.975zm.268-.478a8.713 8.713 0 0 1 1.78 1.687c.846 1.054 1.851 2.793 2.044 5.25a6.83 6.83 0 0 0 1.378-2.421c-1.07-4.268-3.358-5.716-3.96-6.03a7.488 7.488 0 0 0-1.242 1.514z"/><path d="M12.843 10.22a1.723 1.723 0 0 0-.027.052c-.398.802-.518 1.46-.553 1.734.05-.17.226-.773.503-1.105.688.473 2.576 2.186 3.537 5.013-.554-3.385-2.741-5.186-3.46-5.694zm3.361-3.342c-.44.247-.93.566-1.414.965.373-.237.657-.326 1.122-.5.133.034 3.104 2.434 2.655 5.842a6.858 6.858 0 0 0-.71-4.267 6.73 6.73 0 0 0-1.653-2.04zm1.786 6.277c-1.151-3.42-3.09-4.642-3.637-4.928a7.559 7.559 0 0 0-1.16 1.384c.428-.433.915-.612 1.078-.734.51.267 2.41 1.578 3.72 4.278zM9.894 5.683a6.603 6.603 0 0 0-1.07.469c-1.773.97-2.94 2.643-3.35 4.5.09.063.357.236.445.293.19-.813.9-3.932 3.975-5.262zm.059 6.525h.02c.178 0 .488-.02.644-.033-.083-.861-.245-4.022 3.497-6.472-3.897 2.227-4.165 5.588-4.161 6.505zM7.6 11.77c.14.05.472.151.607.192-.03-.85-.097-3.698 2.78-6.543-3.261 2.76-3.406 5.641-3.387 6.35z"/><path d="M7.427 17.093c1.441.4 4.2.864 6.645-.451.084.57.12 1.206.087 1.908-2.353.828-4.951.234-6.732-1.457zm5.649-3.293c-.458-.75-.93-1.187-1.137-1.358-.653.242-3.284.985-6.567-1.203-.084.64-.08 1.292.02 1.94a7.956 7.956 0 0 0 2.335 1.16c1.85.565 3.648.383 5.349-.539zm-6.97 1.546a6.844 6.844 0 0 1-.553-1.4 8.662 8.662 0 0 0 1.999.909c1.39.428 3.502.662 5.788-.58.25.494.476 1.093.63 1.801-3.007 1.723-6.732.41-7.268.206-.22-.29-.42-.602-.596-.936z"/><path d="M14.072 16.642c.084.57.12 1.206.087 1.908a6.592 6.592 0 0 1-6.03-.876c1.68 1.077 3.906 1.066 5.851.38.157-.294.109-1.351.092-1.412zm-.996-2.842c-.35-.618-.797-1.081-1.067-1.298.231.318.373.695.496 1.029-2.217 1.137-4.482.995-6.76-.109 2.264 1.45 4.931 1.679 7.33.378zm.893 2.276a7.509 7.509 0 0 0-.63-1.8c.149.608.224 1.064.232 1.378-2.707 1.552-5.886.924-6.906.578l.037.05c.536.205 4.26 1.517 7.267-.206z"/></g></svg>