<svg width="120" height="132" xmlns="http://www.w3.org/2000/svg"><g fill="none" fill-rule="evenodd"><path d="M19.159 18.687c22.658-22.66 59.395-22.66 82.054 0 22.659 22.658 22.659 59.395 0 82.054-22.659 22.658-59.396 22.658-82.054 0-22.659-22.659-22.659-59.396 0-82.054z" fill="#FFF"/><path d="M115.194 73.294H3.832c-1.005-4.46-1.667-9.018-1.667-13.576 0-4.623.677-9.246 1.712-13.767h111.27c1.035 4.522 1.714 9.144 1.714 13.767 0 4.558-.662 9.116-1.667 13.576z" fill="#3B2260"/><path d="M18.143 17.67C29.753 6.06 44.969.256 60.186.256c15.216 0 30.433 5.806 42.043 17.416s17.415 26.826 17.415 42.043c0 15.216-5.805 30.433-17.415 42.043s-26.827 17.415-42.043 17.415c-15.217 0-30.433-5.805-42.043-17.415S.728 74.93.728 59.714c0-15.217 5.805-30.433 17.415-42.043zM60.186 3.13c-14.481 0-28.963 5.524-40.011 16.573C9.126 30.75 3.602 45.233 3.602 59.713c0 14.482 5.524 28.963 16.573 40.012 11.048 11.048 25.53 16.573 40.01 16.573 14.482 0 28.963-5.525 40.012-16.573 11.049-11.049 16.573-25.53 16.573-40.011 0-14.482-5.524-28.963-16.573-40.011C89.148 8.654 74.667 3.13 60.186 3.13z" fill="#1B1918"/><path d="M60.076 128.286c5.54-1.495 11.541-4.625 17.46-8.755a62.169 62.169 0 0 0 7.365-2.65.26.26 0 0 1 .327.106.26.26 0 0 1-.06.338c-8.149 6.595-16.84 11.708-24.693 13.723l-.399.103-.399-.103c-7.853-2.015-16.544-7.129-24.694-13.724a.26.26 0 0 1-.06-.338.26.26 0 0 1 .328-.105 62.195 62.195 0 0 0 7.365 2.65c5.919 4.13 11.92 7.26 17.46 8.755zm53.905-100.364l.05-13.046A168.767 168.767 0 0 0 97.625 9.59a62.116 62.116 0 0 0-5.415-3.65.26.26 0 0 1-.108-.322.26.26 0 0 1 .3-.157c7.872 1.761 15.766 4.168 23.703 7.22l.925.355-.075 19.438a.26.26 0 0 1-.204.254.259.259 0 0 1-.293-.142 61.958 61.958 0 0 0-2.478-4.664zM22.293 9.77a169.139 169.139 0 0 0-15.74 5.107l-.049 12.486a61.954 61.954 0 0 0-2.514 4.61.259.259 0 0 1-.294.14.259.259 0 0 1-.201-.256l.072-18.825.917-.353c7.702-2.96 15.363-5.314 23.003-7.06a.26.26 0 0 1 .3.156.26.26 0 0 1-.106.321 62.238 62.238 0 0 0-5.388 3.674z" fill="#1B1918"/><path d="M104.867 64.624l-1.497 1.318h-4.022l-1.494-1.318v-2.037h2.276v1.021h2.406v-2.815h-3.26l-1.488-1.318v-4.844l1.488-1.329h4.078l1.513 1.338v9.984zm-2.331-6.173v-2.815h-2.406v2.815h2.406zm10.938 6.173l-1.496 1.318h-4.023l-1.494-1.318v-2.037h2.276v1.021h2.406v-2.815h-3.26l-1.488-1.318v-4.844l1.488-1.329h4.078l1.513 1.338v9.984zm-2.331-6.173v-2.815h-2.406v2.815h2.406z" fill="#FFF"/><path d="M22.197 43.524l-8.91-5.216c1.188-2.044 2.387-4.084 3.584-6.123l1.908 1.117-2.321 3.966 1.796 1.05 1.912-3.267 1.771 1.037-1.913 3.267 3.492 2.044-1.263 2.158-.056-.033zm7.237-10.189a5.244 5.244 0 0 1-.847.719 4.545 4.545 0 0 1-.941.489 5.44 5.44 0 0 1-.989.273 5.04 5.04 0 0 1-.996.073 5.352 5.352 0 0 1-.985-.116 5.54 5.54 0 0 1-1.848-.764 5.313 5.313 0 0 1-1.442-1.388 5.381 5.381 0 0 1-.822-1.835 5.216 5.216 0 0 1 .17-2.974c.115-.329.267-.643.455-.944.188-.3.412-.586.671-.856a5.28 5.28 0 0 1 .847-.719c.298-.2.612-.364.941-.488.329-.124.66-.215.99-.272a5.01 5.01 0 0 1 1-.07 5.384 5.384 0 0 1 1.944.425c.312.13.606.286.88.465a5.228 5.228 0 0 1 1.923 2.255 5.266 5.266 0 0 1 .414 2.931 5.52 5.52 0 0 1-.243.991c-.114.33-.265.647-.452.948-.187.3-.41.586-.67.857zm-5.607-1.763a3.826 3.826 0 0 0 .933.658 2.956 2.956 0 0 0 1.047.309 2.437 2.437 0 0 0 1.56-.376 2.7 2.7 0 0 0 .46-.389c.153-.16.28-.325.381-.494.101-.17.176-.344.225-.523a2.454 2.454 0 0 0 .062-1.073 2.973 2.973 0 0 0-.134-.523 3.222 3.222 0 0 0-.232-.505 3.908 3.908 0 0 0-.692-.89 3.773 3.773 0 0 0-.934-.659 3.015 3.015 0 0 0-.516-.202 2.75 2.75 0 0 0-.53-.096 2.52 2.52 0 0 0-1.048.137c-.17.06-.335.142-.493.248a2.766 2.766 0 0 0-.459.39c-.153.16-.28.324-.382.491-.1.168-.175.34-.224.516a2.533 2.533 0 0 0-.073 1.064c.025.177.068.351.127.522.06.17.136.34.23.505a3.916 3.916 0 0 0 .692.89zm9.129-9.066l3.067 4.86c-.705.444-1.41.889-2.114 1.335l-5.545-8.786c.548-.347 1.096-.695 1.646-1.04l7.114 2.493-3.151-4.993 2.114-1.335c1.845 2.93 3.694 5.86 5.545 8.787-.565.355-1.133.71-1.694 1.07l-6.982-2.39zm10.362.527l-3.174-9.824 3.706-1.198a6.716 6.716 0 0 1 1.177-.272 4.942 4.942 0 0 1 2.084.157 4.436 4.436 0 0 1 1.669.927c.24.21.46.45.662.716.2.265.379.548.534.85.154.302.287.622.396.96.12.375.207.741.26 1.098.05.359.068.709.05 1.05-.018.342-.068.67-.15.984a4.441 4.441 0 0 1-.872 1.707 4.979 4.979 0 0 1-.708.702 5.31 5.31 0 0 1-.876.577 6.466 6.466 0 0 1-1.033.431l-3.705 1.197-.02-.062zm4.634-6.903a4.426 4.426 0 0 0-.239-.594 3.504 3.504 0 0 0-.304-.508 2.93 2.93 0 0 0-.362-.415 2.536 2.536 0 0 0-.416-.32 2.208 2.208 0 0 0-.975-.32 2.541 2.541 0 0 0-.548.011 3.154 3.154 0 0 0-.579.131l-1.327.429 1.835 5.68 1.327-.43c.202-.065.387-.145.555-.239a2.392 2.392 0 0 0 .797-.717 2.22 2.22 0 0 0 .243-.453c.064-.162.112-.33.144-.506.032-.176.049-.36.05-.551 0-.19-.017-.386-.05-.586a4.314 4.314 0 0 0-.151-.612zm9.861 3.826a5.263 5.263 0 0 1-1.105-.1 4.547 4.547 0 0 1-1.009-.329 5.449 5.449 0 0 1-.887-.513 5.04 5.04 0 0 1-.752-.66 5.363 5.363 0 0 1-.607-.784 5.554 5.554 0 0 1-.75-1.854 5.317 5.317 0 0 1-.02-2 5.377 5.377 0 0 1 .732-1.873 5.206 5.206 0 0 1 2.24-1.964c.315-.148.646-.26.992-.336a5.312 5.312 0 0 1 1.081-.121 4.838 4.838 0 0 1 2.114.428c.319.147.615.32.888.516.274.197.524.418.751.664a5.402 5.402 0 0 1 1.06 1.684c.125.315.22.633.285.954a5.243 5.243 0 0 1-.26 2.952 5.26 5.26 0 0 1-1.8 2.35 5.53 5.53 0 0 1-.879.521c-.315.15-.646.264-.993.342a5.242 5.242 0 0 1-1.08.123zm-2.672-5.235a3.854 3.854 0 0 0 .184 1.127 2.968 2.968 0 0 0 .514.963 2.419 2.419 0 0 0 .832.666c.165.082.342.143.53.183.187.04.388.058.6.056a2.77 2.77 0 0 0 .62-.075c.19-.046.367-.115.53-.206.327-.182.596-.418.808-.707a3.016 3.016 0 0 0 .477-.983 3.924 3.924 0 0 0 .15-1.117A3.856 3.856 0 0 0 60.2 13.5a2.992 2.992 0 0 0-.218-.51 2.739 2.739 0 0 0-.302-.445 2.484 2.484 0 0 0-.832-.652 2.187 2.187 0 0 0-.523-.178 2.783 2.783 0 0 0-.6-.054 2.777 2.777 0 0 0-.618.072c-.19.046-.365.113-.525.201a2.521 2.521 0 0 0-.81.693 2.79 2.79 0 0 0-.283.458 3.04 3.04 0 0 0-.2.517 3.895 3.895 0 0 0-.15 1.118zm12.456 5.597l2.851-9.924 4.507 1.295a3.01 3.01 0 0 1 1.227.675 3.55 3.55 0 0 1 .816 1.076 3.787 3.787 0 0 1 .383 1.95 3.247 3.247 0 0 1-.117.638 3.803 3.803 0 0 1-.37.866 3.694 3.694 0 0 1-.56.72 3.206 3.206 0 0 1-1.485.843l1.125 4.335-2.715-.78-.975-3.723-1.388-.398-.914 3.18-2.403-.69.018-.063zm3.906-4.539l2.02.58c.124.036.247.04.37.012.125-.028.251-.09.378-.183a1.35 1.35 0 0 0 .328-.356 1.93 1.93 0 0 0 .22-.505c.057-.197.081-.382.073-.552a1.167 1.167 0 0 0-.122-.47 1.205 1.205 0 0 0-.255-.351.797.797 0 0 0-.323-.183l-1.951-.561-.738 2.57zM81.8 23.618c.17.1.337.173.5.222.163.048.323.071.48.07a1.968 1.968 0 0 0 .895-.23c.284-.15.546-.36.785-.63a5.553 5.553 0 0 0 .645-.888l2.683-4.583c.72.419 1.439.84 2.157 1.263l-2.682 4.583c-.182.31-.377.599-.585.865-.208.267-.43.512-.665.735a4.995 4.995 0 0 1-.74.585 4.427 4.427 0 0 1-.81.41 3.92 3.92 0 0 1-1.803.23 4.167 4.167 0 0 1-.978-.222 5.857 5.857 0 0 1-1.014-.477 5.887 5.887 0 0 1-.94-.673 4.06 4.06 0 0 1-1.115-1.6 3.752 3.752 0 0 1-.223-.873 4.47 4.47 0 0 1-.024-.904 5.03 5.03 0 0 1 .16-.926c.084-.31.19-.618.318-.921.128-.302.278-.6.45-.894l2.682-4.583a579 579 0 0 1 2.158 1.263l-2.683 4.583a5.564 5.564 0 0 0-.264.507c-.077.17-.144.34-.2.511a3.31 3.31 0 0 0-.122.503 2.735 2.735 0 0 0-.032.489 1.885 1.885 0 0 0 .236.883c.074.134.172.26.293.376.122.118.268.227.438.326zm13.713 4.305a.461.461 0 0 0-.013-.108 4.27 4.27 0 0 0-.152-.55 7.267 7.267 0 0 0-.139-.366 5.804 5.804 0 0 0-.401-.8 3.455 3.455 0 0 0-.567-.72l-.001-.002c-.295-.284-.563-.446-.8-.488-.229-.04-.434.034-.614.222a.727.727 0 0 0-.13.18.539.539 0 0 0-.053.189.89.89 0 0 0 .008.22c.012.08.034.166.065.257.032.092.073.191.124.297.05.106.111.22.181.34l.232.393.265.443c.132.22.252.434.361.64.11.208.21.41.297.605.089.197.16.391.214.581.053.19.089.379.107.563a2.46 2.46 0 0 1-.14 1.089 2.55 2.55 0 0 1-.271.531 3.68 3.68 0 0 1-.422.523 3.767 3.767 0 0 1-.623.53 2.607 2.607 0 0 1-.654.32c-.222.07-.443.115-.662.133-.22.018-.44.009-.659-.027a3.482 3.482 0 0 1-.647-.171 4.002 4.002 0 0 1-.632-.301 6.176 6.176 0 0 1-1.16-.88 7.72 7.72 0 0 1-.78-.87 8.507 8.507 0 0 1-.94-1.509 8.85 8.85 0 0 1-.24-.53 5.893 5.893 0 0 1-.337-1.072l-.013-.056 2.33-.825-.009.101a.66.66 0 0 0 .016.144 5.004 5.004 0 0 0 .18.68 6.887 6.887 0 0 0 .393.92c.084.161.176.328.278.498a4.377 4.377 0 0 0 .724.912c.293.281.555.447.782.497a.568.568 0 0 0 .563-.178.65.65 0 0 0 .136-.202.56.56 0 0 0 .04-.226 1.33 1.33 0 0 0-.036-.27 2.207 2.207 0 0 0-.099-.312 4.592 4.592 0 0 0-.159-.352 6.779 6.779 0 0 0-.21-.388l-.515-.894c-.12-.217-.229-.425-.323-.625a7.2 7.2 0 0 1-.243-.574 3.854 3.854 0 0 1-.156-.535 2.875 2.875 0 0 1-.063-.503 2.169 2.169 0 0 1 .17-.93c.062-.147.142-.293.241-.437a3.733 3.733 0 0 1 .945-.934c.207-.14.42-.252.64-.333a3.116 3.116 0 0 1 1.347-.19c.456.036.903.162 1.34.378.218.107.43.233.632.377.202.143.397.305.583.483a5.643 5.643 0 0 1 .7.813 8.02 8.02 0 0 1 .76 1.33c.067.149.126.295.179.44a13.385 13.385 0 0 1 .269.82l.017.06-2.269.75.013-.101zm-.79 11.137a5.238 5.238 0 0 1-.482-1 4.553 4.553 0 0 1-.236-1.034 5.193 5.193 0 0 1 .526-2.933 5.567 5.567 0 0 1 1.206-1.595 5.309 5.309 0 0 1 1.706-1.046 5.396 5.396 0 0 1 1.983-.333 5.2 5.2 0 0 1 1.941.423c.307.132.606.296.895.49.288.195.555.422.798.68.243.257.463.546.659.865.201.327.362.661.482 1 .12.34.199.685.236 1.034.037.35.042.692.013 1.027-.028.335-.09.664-.184.986a5.385 5.385 0 0 1-.901 1.773c-.206.27-.43.515-.672.735a5.226 5.226 0 0 1-2.667 1.293c-.336.056-.67.08-1.003.074a5.269 5.269 0 0 1-1.938-.412 5.526 5.526 0 0 1-.898-.486 4.678 4.678 0 0 1-.803-.676 5.233 5.233 0 0 1-.66-.865zm3.12-4.981a3.856 3.856 0 0 0-.873.736 3.146 3.146 0 0 0-.328.45 2.898 2.898 0 0 0-.234.486 2.427 2.427 0 0 0-.03 1.603c.063.182.15.364.261.544.116.19.244.354.382.494.139.14.289.257.45.35.162.093.328.167.499.222.17.055.344.091.523.108a3.07 3.07 0 0 0 1.087-.096 3.928 3.928 0 0 0 1.036-.445 3.848 3.848 0 0 0 .873-.737 2.945 2.945 0 0 0 .552-.937 2.508 2.508 0 0 0 .132-1.049 2.19 2.19 0 0 0-.116-.54c-.063-.18-.15-.36-.261-.542-.232-.376-.506-.657-.822-.84a2.526 2.526 0 0 0-1.01-.338 2.796 2.796 0 0 0-.54-.01 3.01 3.01 0 0 0-.545.095 3.882 3.882 0 0 0-1.036.446z" fill="#1B1918"/><path d="M24.544 85.07a.445.445 0 0 0 .018-.105 4.39 4.39 0 0 0 .01-.569 7.56 7.56 0 0 0-.03-.389 6.742 6.742 0 0 0-.157-.878 3.43 3.43 0 0 0-.337-.846c-.202-.356-.412-.587-.627-.694-.207-.103-.424-.09-.649.039a.714.714 0 0 0-.173.135.539.539 0 0 0-.105.165.9.9 0 0 0-.055.213c-.01.08-.014.168-.01.264s.016.202.034.318c.019.116.045.241.077.375l.11.438.13.501c.062.244.116.482.163.714.046.23.084.451.113.661.029.213.042.418.04.615a3.221 3.221 0 0 1-.057.567 2.45 2.45 0 0 1-.85 1.432c-.16.134-.343.26-.55.38a3.754 3.754 0 0 1-.745.33 2.6 2.6 0 0 1-.715.12 2.928 2.928 0 0 1-.67-.06 2.722 2.722 0 0 1-.621-.211 3.452 3.452 0 0 1-.57-.346 3.971 3.971 0 0 1-.518-.466 5.994 5.994 0 0 1-.859-1.167 7.53 7.53 0 0 1-.5-1.051 8.5 8.5 0 0 1-.472-1.706 9.148 9.148 0 0 1-.08-.575 6.425 6.425 0 0 1-.019-1.119l.005-.057 2.458-.129-.037.094a.67.67 0 0 0-.026.142 4.791 4.791 0 0 0-.02.7 7.018 7.018 0 0 0 .117.988c.033.18.075.365.124.555a4.378 4.378 0 0 0 .434 1.075c.2.351.402.583.606.696a.565.565 0 0 0 .587-.012.65.65 0 0 0 .187-.155.553.553 0 0 0 .102-.203c.023-.08.037-.17.042-.269a2.23 2.23 0 0 0-.007-.325 4.606 4.606 0 0 0-.052-.381 6.923 6.923 0 0 0-.091-.43l-.24-1a9.985 9.985 0 0 1-.131-.687 7.157 7.157 0 0 1-.07-.616 3.897 3.897 0 0 1 0-.555 2.94 2.94 0 0 1 .083-.498 2.177 2.177 0 0 1 .425-.84c.1-.124.219-.24.354-.35a3.713 3.713 0 0 1 1.166-.626c.236-.075.472-.12.706-.135a3.115 3.115 0 0 1 1.34.199c.211.08.416.183.612.306.195.124.382.268.56.432a4.694 4.694 0 0 1 .917 1.165 5.619 5.619 0 0 1 .438.973 8.434 8.434 0 0 1 .27.999 7.602 7.602 0 0 1 .148 1.4c.004.142.006.281.004.415v.063l-2.378.076.04-.094zm80.362.186l-1.888-1.5 1.253-1.577 1.939 1.54c-.416.526-.834 1.052-1.253 1.577l-.051-.04zm-17.99 13.15a5.027 5.027 0 0 1-.593-.723 5.506 5.506 0 0 1-.465-.843 5.122 5.122 0 0 1-.44-1.893c-.012-.33.01-.66.064-.991a5.5 5.5 0 0 1 .264-.995c.122-.333.286-.655.492-.965a5.69 5.69 0 0 1 .742-.895 5.649 5.649 0 0 1 1.076-.845 4.401 4.401 0 0 1 1.163-.49c.4-.102.792-.15 1.173-.145.382.006.754.067 1.116.182l.054.018-.42 2.31-.075-.03a2.31 2.31 0 0 0-.388-.12 1.822 1.822 0 0 0-.37-.042c-.122 0-.242.008-.359.025a2.462 2.462 0 0 0-.657.199c-.1.046-.196.1-.288.161a3.48 3.48 0 0 0-.495.402 2.735 2.735 0 0 0-.393.483 2.1 2.1 0 0 0-.236.514 2.667 2.667 0 0 0-.104.533 2.657 2.657 0 0 0 .127 1.046c.055.17.128.336.216.499a3.935 3.935 0 0 0 .657.883c.278.281.59.51.936.684.172.087.346.157.523.21.177.053.356.09.536.109a2.558 2.558 0 0 0 1.058-.11c.17-.055.335-.132.493-.23a2.594 2.594 0 0 0 .66-.595c.066-.084.13-.175.19-.27a2.54 2.54 0 0 0 .355-.949c.016-.115.024-.233.023-.352a1.784 1.784 0 0 0-.042-.362 2.156 2.156 0 0 0-.118-.373l-.03-.07 2.298-.581.022.052c.079.191.137.389.175.592.038.203.056.414.053.63a4.199 4.199 0 0 1-.217 1.285 5.599 5.599 0 0 1-.572 1.222 5.96 5.96 0 0 1-.386.551c-.136.173-.28.335-.432.485a4.938 4.938 0 0 1-.845.676 4.446 4.446 0 0 1-.945.45 5.152 5.152 0 0 1-2.005.274 5.553 5.553 0 0 1-1.953-.482 5.574 5.574 0 0 1-.879-.491 5.243 5.243 0 0 1-.758-.633zm14.312-7.214L92.97 85.07c1.403-1.891 2.807-3.782 4.207-5.676l1.77 1.312-2.726 3.675 1.664 1.233 2.245-3.028 1.641 1.217-2.244 3.029 3.236 2.399a508.52 508.52 0 0 1-1.483 2l-.052-.039zm-3.018 3.745l-1.855-1.539 1.287-1.55 1.905 1.58-1.287 1.55-.05-.04zm-73.257 1.954a5.226 5.226 0 0 1-.69-.864 4.537 4.537 0 0 1-.46-.951 5.445 5.445 0 0 1-.241-.993 5.006 5.006 0 0 1-.044-.993 5.366 5.366 0 0 1 .47-1.921 5.284 5.284 0 0 1 1.915-2.266 5.386 5.386 0 0 1 1.85-.763 5.201 5.201 0 0 1 2.956.256 4.96 4.96 0 0 1 1.757 1.175c.268.273.499.562.69.864.192.303.345.62.459.951.113.33.194.661.24.994.048.332.06.664.04.997a5.362 5.362 0 0 1-.48 1.922 5.53 5.53 0 0 1-.489.863 5.2 5.2 0 0 1-2.301 1.846 5.23 5.23 0 0 1-2.93.326 5.516 5.516 0 0 1-.979-.273 4.666 4.666 0 0 1-.93-.478 5.2 5.2 0 0 1-.833-.692zm1.922-5.528a3.833 3.833 0 0 0-.683.91 2.886 2.886 0 0 0-.338 1.033 2.412 2.412 0 0 0 .094 1.055c.055.176.132.344.233.507.1.162.226.32.374.47.154.157.314.289.48.394.166.105.337.185.514.24a2.588 2.588 0 0 0 1.065.094 2.93 2.93 0 0 0 .525-.12 3.2 3.2 0 0 0 .51-.215 3.894 3.894 0 0 0 1.283-1.093c.114-.15.216-.31.306-.479a3 3 0 0 0 .216-.508c.054-.17.092-.345.111-.523a2.5 2.5 0 0 0-.104-1.048 2.191 2.191 0 0 0-.233-.498 2.76 2.76 0 0 0-.374-.468 2.787 2.787 0 0 0-.478-.394 2.082 2.082 0 0 0-.506-.24 2.551 2.551 0 0 0-1.056-.104 2.78 2.78 0 0 0-.524.112 3.016 3.016 0 0 0-.509.213 3.878 3.878 0 0 0-.906.662zm5.693 11.67l4.761-9.11 2.207 1.153-3.772 7.217 4.386 2.292-1.02 1.952c-2.2-1.143-4.398-2.293-6.592-3.446l.03-.057zm14.535 6.439a5.217 5.217 0 0 1-1.044-.365 4.528 4.528 0 0 1-.894-.562 5.416 5.416 0 0 1-.732-.711 5.018 5.018 0 0 1-.566-.819 5.344 5.344 0 0 1-.623-1.877 5.277 5.277 0 0 1 .417-2.937 5.36 5.36 0 0 1 1.161-1.63 5.192 5.192 0 0 1 2.64-1.354 4.74 4.74 0 0 1 1.04-.084c.352.01.71.059 1.073.145.373.088.72.21 1.044.364.323.155.621.343.894.562.272.22.516.458.732.714.216.256.404.53.564.823a5.381 5.381 0 0 1 .615 1.883c.09.67.06 1.322-.091 1.955a5.201 5.201 0 0 1-.831 1.823 5.24 5.24 0 0 1-2.309 1.833 5.486 5.486 0 0 1-.975.29 4.667 4.667 0 0 1-1.04.09 5.204 5.204 0 0 1-1.075-.143zm-1.31-5.704a3.832 3.832 0 0 0-.096 1.134c.013.189.041.371.085.547.044.176.103.345.178.507a2.414 2.414 0 0 0 .641.844c.139.12.295.221.466.305.172.084.361.15.567.2.215.051.421.077.617.078.195.002.383-.022.562-.07.18-.049.35-.114.508-.195.158-.08.306-.178.444-.292a3.05 3.05 0 0 0 .698-.833 3.89 3.89 0 0 0 .507-1.609c.015-.189.017-.378.004-.567a3.02 3.02 0 0 0-.087-.546 2.724 2.724 0 0 0-.184-.502 2.499 2.499 0 0 0-.645-.831 2.431 2.431 0 0 0-1.028-.496 2.788 2.788 0 0 0-.614-.08c-.195-.002-.38.02-.556.066a2.525 2.525 0 0 0-.95.473c-.14.112-.268.237-.385.373a3.034 3.034 0 0 0-.317.452 3.91 3.91 0 0 0-.415 1.042zm14.32 7.634l-1.25-10.204 4.634-.567a3.001 3.001 0 0 1 1.387.14 3.545 3.545 0 0 1 1.167.669 3.773 3.773 0 0 1 1.11 1.64c.068.205.116.416.142.629a3.778 3.778 0 0 1-.004.937 3.637 3.637 0 0 1-.232.877 3.271 3.271 0 0 1-.445.773 3.183 3.183 0 0 1-.588.578l2.718 3.536c-.93.114-1.86.231-2.791.341l-2.343-3.032-1.427.175.401 3.27-2.471.303-.009-.065zm1.812-5.68l2.078-.254a.728.728 0 0 0 .343-.134c.103-.074.195-.18.274-.315a1.31 1.31 0 0 0 .162-.453c.029-.167.03-.35.006-.55a1.68 1.68 0 0 0-.149-.532 1.16 1.16 0 0 0-.293-.383 1.207 1.207 0 0 0-.37-.223.796.796 0 0 0-.368-.042l-2.006.246.323 2.64zm8.21 4.717l-.655-2.32 1.939-.548.673 2.383-1.94.547-.017-.062zm12.319-4.514l-2.361-5.34-.218 4.726-1.231.545-3.642-3.02 2.386 5.4-2.277 1.006c-1.39-3.155-2.785-6.31-4.183-9.462a576.76 576.76 0 0 0 2.439-1.078l4.51 3.754.272-5.868c.809-.355 1.618-.713 2.425-1.072l4.183 9.462-2.277 1.007-.026-.06zm4.066-2.058l-1.356-1.993 1.666-1.133 1.393 2.047c-.555.378-1.11.757-1.666 1.133l-.037-.054z" fill="#0D0002"/><path d="M12.16 65.942H9.824v-9.767h-.667v-2.332l1.439-.54h1.562v12.64zm9.008-1.318l-1.496 1.318h-4.023l-1.494-1.318v-2.037h2.277v1.021h2.405v-2.815h-3.26l-1.488-1.318v-4.844l1.489-1.329h4.077l1.513 1.338v9.984zm-2.33-6.173v-2.815h-2.406v2.815h2.405z" fill="#FFF"/><path d="M43.093 27.914c-17.535 9.42-24.133 31.358-14.709 48.891 9.425 17.536 31.359 24.135 48.894 14.71 17.536-9.424 24.134-31.361 14.71-48.895-9.425-17.533-31.359-24.133-48.895-14.706z" fill="#1B1918"/><path d="M49.729 27.972a33.386 33.386 0 0 0-5.362 2.307c-8.879 4.772-14.728 13.007-16.777 22.148 2.762 1.892 5.425 3.335 7.942 4.433.085-4.813 1.7-16.74 14.197-28.888zm.294 32.112h.102c4.342.011 7.47-.87 8.8-1.326.437-3.586 3.181-16.874 20.06-26.663a33.471 33.471 0 0 0-8.115-4.024C51.35 39.028 50.005 55.575 50.023 60.084zm-11.788-2.155c3.406 1.209 6.483 1.792 9.093 2.026-.004-2.173.27-6.384 2.038-11.424 2.154-6.139 7.007-14.63 17.911-21.452a33.388 33.388 0 0 0-12.075-.41c-16.336 13.586-17.06 27.767-16.967 31.26z" fill="#FFF"/><path d="M93.181 64.896a33.237 33.237 0 0 0-3.562-21.002 33.246 33.246 0 0 0-8.277-10.04 48.728 48.728 0 0 0-7.087 4.748c4.063 2.307 13.405 9.234 18.926 26.294zM64.504 50.3c-.045.082-.091.17-.135.258-1.996 3.948-2.596 7.183-2.77 8.533 2.734 2.16 12.764 11.465 12.228 31.126a33.42 33.42 0 0 0 8.626-5.585c-.666-20.758-13.92-31.534-17.95-34.332zm1.339-2.353c1.774 1.209 5.322 3.901 8.922 8.305 4.238 5.187 9.272 13.749 10.237 25.839a33.466 33.466 0 0 0 6.902-11.915C86.55 49.168 75.084 42.042 72.07 40.494c-2.265 2.103-4.422 4.574-6.226 7.453z" fill="#4E2473"/><path d="M64.504 50.3c-.045.082-.091.17-.135.258-1.996 3.948-2.596 7.184-2.77 8.533.251-.84 1.133-3.801 2.516-5.438 3.449 2.327 12.905 10.758 17.72 24.673C79.062 61.666 68.103 52.8 64.504 50.3zm16.838-16.446a48.728 48.728 0 0 0-7.087 4.748c1.869-1.167 3.296-1.602 5.625-2.462.665.166 15.55 11.983 13.301 28.756a33.237 33.237 0 0 0-3.562-21.002 33.246 33.246 0 0 0-8.277-10.04zm8.948 30.893C84.52 47.91 74.808 41.9 72.07 40.494c-2.095 1.944-4.096 4.203-5.812 6.808 2.144-2.13 4.583-3.009 5.397-3.61 2.556 1.312 12.074 7.768 18.635 21.055z" fill="#3B2260"/><path d="M49.729 27.972a33.386 33.386 0 0 0-5.362 2.307c-8.879 4.772-14.728 13.007-16.777 22.148.446.31 1.783 1.162 2.224 1.442.956-4 4.51-19.352 19.915-25.897zm.294 32.112h.102c.89.005 2.444-.095 3.227-.16-.414-4.24-1.228-19.798 17.518-31.853-19.52 10.957-20.865 27.504-20.847 32.013zm-11.788-2.155c.706.25 2.368.747 3.045.946-.153-4.182-.487-18.201 13.922-32.205-16.336 13.585-17.06 27.766-16.967 31.259z" fill="#D9DADB"/><path d="M37.368 84.13c7.223 1.968 21.045 4.251 33.292-2.22.421 2.81.6 5.934.434 9.389-11.785 4.078-24.802 1.156-33.726-7.17zm28.3-16.208c-2.291-3.692-4.657-5.84-5.693-6.682-3.274 1.191-16.451 4.848-32.9-5.922a33.347 33.347 0 0 0 .096 9.55c1.292.945 5.604 3.877 11.7 5.705 9.275 2.78 18.278 1.887 26.797-2.651zm-34.915 7.61a33.338 33.338 0 0 1-2.77-6.892 43.76 43.76 0 0 0 10.013 4.474c6.961 2.109 17.546 3.259 28.996-2.85 1.25 2.43 2.384 5.373 3.153 8.86-15.063 8.48-33.72 2.02-36.405 1.016a33.619 33.619 0 0 1-2.987-4.608z" fill="#FFEC00"/><path d="M70.66 81.91c.421 2.81.6 5.934.434 9.389-10.316 3.57-21.577 1.775-30.209-4.312 8.42 5.301 19.568 5.249 29.316 1.875.785-1.45.542-6.653.459-6.952zm-4.992-13.988c-1.755-3.04-3.989-5.322-5.345-6.39 1.16 1.568 1.869 3.423 2.487 5.064-11.109 5.6-22.453 4.899-33.868-.533 11.344 7.137 24.706 8.262 36.726 1.859zm4.477 11.202c-.769-3.487-1.904-6.43-3.153-8.86.74 2.992 1.12 5.239 1.158 6.784-13.56 7.636-29.49 4.546-34.599 2.844l.19.248c2.684 1.005 21.341 7.465 36.404-1.016z" fill="#FEC200"/></g></svg>