<svg width="24" height="25" xmlns="http://www.w3.org/2000/svg"><g fill="none"><path d="M.006 12.4C.006 5.78 5.37.415 11.99.415c6.618 0 11.983 5.365 11.983 11.983 0 6.619-5.365 11.984-11.983 11.984C5.37 24.383.006 19.018.006 12.4z" fill="#2E6ABD"/><path d="M.526 12.4C.526 6.068 5.66.935 11.99.935s11.462 5.133 11.462 11.463c0 6.331-5.131 11.463-11.462 11.463C5.659 23.862.526 18.73.526 12.4z" fill="#FFF"/><path d="M11.984 1.401C5.909 1.401.994 6.328.994 12.402c0 6.076 4.915 10.99 10.99 10.99s11.001-4.914 11.001-10.99c0-6.074-4.926-11-11.001-11zm.753.71l.84.13.251.754c.044.134.074.27.088.403l.01.011c.048-.108.175-.302.23-.382l.447-.622.808.131-1.244 1.528-.153.993-.742-.12.163-.993-.698-1.833zm-1.44.065l1.254 2.576-.786.087-.218-.535-1.004.12-.12.568-.731.087.666-2.794.938-.109zm-.437.6c-.01.151-.041.33-.066.448l-.13.655.654-.077-.284-.611a2.864 2.864 0 0 1-.153-.415h-.021zm5.217.055l1.67.873-.263.491-1.025-.535-.23.448.96.502-.261.491-.96-.502-.252.47 1.059.556-.251.491-1.703-.895 1.256-2.39zm-8.219.174a.594.594 0 0 1 .633.328c.247.44-.028.69-.13.786l.01.022c.21-.084.572-.147.819.294.355.634-.322 1.02-.568 1.157l-.971.546-1.32-2.369.992-.556c.103-.058.31-.179.535-.208zm-.109.623a.229.229 0 0 0-.076.01.618.618 0 0 0-.12.055l-.35.197.262.458.339-.197c.163-.09.22-.21.13-.37-.057-.103-.114-.15-.185-.153zm11.154.905l.84.917c.14.15.62.659.055 1.179-.25.23-.532.32-.851.175l-.47 1.255-.556-.612.458-1.025-.196-.208-.764.699-.502-.546 1.986-1.834zm-10.575.011a.408.408 0 0 0-.251.066l-.35.196.284.513.382-.207c.166-.093.218-.259.131-.415-.057-.1-.123-.143-.196-.153zm10.684.884l-.436.404.262.284c.064.07.22.241.447.033.115-.106.154-.258-.01-.437l-.263-.284zm-7.028.088c3.8 0 6.887 3.087 6.887 6.886 0 3.8-3.088 6.876-6.887 6.876a6.873 6.873 0 0 1-6.876-6.876c0-3.799 3.076-6.886 6.876-6.886zm-7.596.207a1.03 1.03 0 0 1 .458.076l-.251.644c-.128-.054-.389-.14-.568.142-.107.17-.16.518.437.895.376.238.798.393 1.026.033.162-.257-.01-.479-.131-.622L5.85 6.4c.393.418.456.86.131 1.375-.368.582-1.026.929-1.91.371-.884-.558-.823-1.345-.48-1.888.232-.368.52-.514.797-.535zM21.238 7.6l.285.884-1.048 1.037c-.13.13-.298.277-.48.404l.01.033c.113-.06.297-.13.535-.208l1.255-.414.219.665-2.576.83-.295-.884 1.103-1.092c.16-.159.35-.305.436-.349l-.01-.022c-.132.05-.242.104-.394.153l-1.407.448-.208-.655 2.576-.83zm-18.64.611l.524.197-.382 1.07.534.196.371-1.048.524.186-.37 1.047.96.35-.251.698-2.543-.917.633-1.779zm2.008 6.363l.524.994-1.026.993a4.144 4.144 0 0 1-.339.273l.011.021c.124-.043.36-.1.47-.12l1.364-.24.502.972-2.401 1.244-.328-.633 1.376-.72a5.86 5.86 0 0 1 .556-.252l-.022-.043a7.751 7.751 0 0 1-.633.142l-1.582.294-.251-.48 1.255-1.244c.122-.12.294-.262.371-.328l-.022-.032c-.088.053-.394.236-.59.338l-1.309.688-.327-.612 2.4-1.255zm14.887.022l2.379 1.299-.448.819-1.538-.044a2.269 2.269 0 0 1-.557-.077l-.011.022c.127.06.242.099.382.175l1.299.71-.328.61-2.379-1.287.448-.819 1.473.044c.183.004.404.02.622.065l.011-.032a3.502 3.502 0 0 1-.513-.24l-1.168-.634.328-.61zm-1.517 2.652l.37.404-.84.786.339.36.796-.731.371.404-.785.742.36.393.873-.808.382.404-1.408 1.31-1.845-1.987 1.387-1.277zm-11.558.535l.589.448-1.048 1.353c-.174.225-.224.463.022.655.265.205.487.084.655-.131l1.048-1.343.567.437-1.048 1.342c-.415.535-.975.586-1.56.131-.492-.382-.754-.916-.262-1.55l1.037-1.342zm.753.568l.37.294-.665.459.295-.753zm8.95.425l1.276 2.38-.655.36-.545-1.004-.786.414.535 1.004-.655.35-1.277-2.38.655-.349.48.884.786-.415-.47-.894.655-.35zm-7.335.655l.884.273.24 1.462c.031.182.057.4.055.623l.032.01c.016-.126.068-.317.142-.556l.393-1.266.655.207-.808 2.576-.884-.273-.262-1.528a2.167 2.167 0 0 1-.021-.557l-.033-.01c-.035.136-.05.262-.098.414l-.448 1.408-.655-.207.808-2.576zm4.027.546a.968.968 0 0 1 .982.59l-.633.283c-.053-.128-.176-.371-.502-.295-.195.047-.467.25-.305.939.102.433.284.84.698.742.296-.069.324-.348.339-.535h.698c-.013.573-.27.931-.862 1.07-.67.157-1.398-.053-1.637-1.07-.24-1.017.357-1.544.982-1.691a1.39 1.39 0 0 1 .24-.033z" fill="#ED1248"/><path d="M11.973 6.05a6.34 6.34 0 0 0-5.675 3.504l.95 1.626.25-2.958 1.408 2.412.24-2.946 1.419 2.412.251-2.947 1.408 2.412.25-2.958 1.409 2.423.218-2.62a6.347 6.347 0 0 0-2.128-.36zm1.91 2.98l-.251 2.958 1.408 2.4.24-2.946-1.397-2.412zm-.251 2.958l-1.408-2.412-.251 2.947-1.408-2.412-.251 2.946-1.408-2.4-.251 2.946 1.408 2.412.24-2.958 1.419 2.423.25-2.947 1.409 2.402.25-2.947zm-1.91 3.492l-.251 2.958-1.408-2.412-.197 2.346c.66.233 1.367.36 2.107.36a6.332 6.332 0 0 0 5.599-3.36l-.873-1.518-.251 2.958L15.04 14.4l-.251 2.957-1.408-2.412-.251 2.958-1.408-2.423zm4.977-1.626l.24-2.958-1.397-2.4-.251 2.946 1.408 2.412zm-8.044-.251l-1.408-2.412-.24 2.958 1.397 2.4.251-2.946zm5.74-7.072l1.147 1.953.098-1.266a6.295 6.295 0 0 0-1.244-.687zm2.74 2.172l-.185 2.204 1.32 2.26c.031-.255.044-.513.044-.775 0-1.375-.436-2.65-1.179-3.69zM5.654 11.835c-.016.182-.022.37-.022.557a6.33 6.33 0 0 0 1.2 3.71l.164-1.964-1.342-2.303zm2.75 4.726l-.087 1.015a6.35 6.35 0 0 0 1.015.578l-.928-1.593z" fill="#2E6ABD"/></g></svg>