<svg width="19" height="26" xmlns="http://www.w3.org/2000/svg"><g fill="none"><path d="M13.295 7.66a.196.196 0 0 1-.194-.194c0-.107.088-.195.194-.195.107 0 .195.088.195.195a.196.196 0 0 1-.195.195zM1.793 16.664c0-4.304 3.532-7.804 7.846-7.804s7.846 3.5 7.846 7.804c0 4.295-3.532 7.805-7.846 7.805s-7.846-3.515-7.846-7.805zM12.716 4.75a.344.344 0 0 1 .25.422.35.35 0 0 1-.426.25.344.344 0 0 1-.25-.422.35.35 0 0 1 .426-.25zm.315-.683c.107 0 .195.088.195.195a.196.196 0 0 1-.195.195.196.196 0 0 1-.194-.195c0-.107.088-.195.194-.195zm-.162-.696c.107 0 .195.088.195.195a.196.196 0 0 1-.195.195.196.196 0 0 1-.195-.195c0-.107.088-.195.195-.195zM15.283 5.2c.107 0 .195.088.195.195a.196.196 0 0 1-.195.195.196.196 0 0 1-.194-.195c0-.107.083-.195.194-.195zm-.162-.692c.107 0 .195.088.195.195a.196.196 0 0 1-.195.195.196.196 0 0 1-.194-.195c0-.107.088-.195.194-.195zM14.83 3.9c.107 0 .195.088.195.195 0 .107-.088.19-.195.19a.196.196 0 0 1-.194-.195c0-.106.088-.19.194-.19zm-.459-.539c.107 0 .195.089.195.195a.196.196 0 0 1-.195.195.196.196 0 0 1-.194-.195c0-.106.083-.195.194-.195zm-.57-.413c.107 0 .195.088.195.195a.196.196 0 0 1-.195.195.196.196 0 0 1-.194-.195c0-.107.088-.195.194-.195zm-.611-.237c.106 0 .194.089.194.195a.196.196 0 0 1-.194.195.196.196 0 0 1-.195-.195c0-.106.088-.195.195-.195zm-.621.052c.106 0 .194.088.194.195a.196.196 0 0 1-.194.194.196.196 0 0 1-.195-.195.19.19 0 0 1 .195-.194zm-.459-.525c.107 0 .195.088.195.195a.196.196 0 0 1-.195.195.196.196 0 0 1-.195-.195c0-.107.088-.195.195-.195zm-.598-.395c.107 0 .195.088.195.195a.196.196 0 0 1-.195.195.196.196 0 0 1-.194-.195c0-.107.088-.195.194-.195zm-.62-.227c.106 0 .194.088.194.195a.196.196 0 0 1-.195.195.196.196 0 0 1-.194-.195c0-.112.088-.195.194-.195zm-.636-.112c.107 0 .195.089.195.195a.196.196 0 0 1-.195.195.196.196 0 0 1-.194-.195c0-.107.088-.195.194-.195zm-6.02 5.098a.347.347 0 1 1-.338-.608.35.35 0 0 1 .478.14.342.342 0 0 1-.14.468zm2.498-1.18a.352.352 0 0 1-.426-.25.348.348 0 0 1 .25-.422.352.352 0 0 1 .427.25.341.341 0 0 1-.25.423zm2.906-.361a.351.351 0 0 1-.352-.348.351.351 0 1 1 .704 0 .357.357 0 0 1-.352.348zm-3.397-.609a.196.196 0 0 1-.194-.194c0-.107.088-.196.194-.196.107 0 .195.089.195.196a.193.193 0 0 1-.195.194zm.162-.691a.196.196 0 0 1-.194-.195c0-.107.088-.195.194-.195.107 0 .195.088.195.195a.196.196 0 0 1-.195.195zM3.994 5.59a.196.196 0 0 1-.194-.195c0-.107.088-.195.195-.195.106 0 .194.088.194.195a.196.196 0 0 1-.194.195zm.163-.696a.196.196 0 0 1-.195-.195c0-.107.088-.195.195-.195.106 0 .194.088.194.195a.193.193 0 0 1-.194.195zm.287-.609a.196.196 0 0 1-.194-.195c0-.106.088-.195.194-.195.107 0 .195.089.195.195a.193.193 0 0 1-.195.195zm.464-.538a.196.196 0 0 1-.195-.195c0-.107.088-.195.195-.195.106 0 .194.088.194.195a.196.196 0 0 1-.194.195zm.57-.409a.196.196 0 0 1-.195-.195c0-.107.088-.195.195-.195.106 0 .194.088.194.195a.196.196 0 0 1-.194.195zm.607-.241a.196.196 0 0 1-.195-.195c0-.107.088-.195.195-.195.106 0 .194.088.194.195.005.111-.083.195-.194.195zm.625.055a.196.196 0 0 1-.194-.195c0-.106.088-.194.194-.194.107 0 .195.088.195.195a.196.196 0 0 1-.195.194zm.459-.524a.196.196 0 0 1-.195-.195c0-.107.088-.195.195-.195.107 0 .195.088.195.195a.2.2 0 0 1-.195.195zm.593-.395a.196.196 0 0 1-.194-.195c0-.107.088-.195.194-.195.107 0 .195.088.195.195a.193.193 0 0 1-.195.195zm.621-.232a.196.196 0 0 1-.194-.195c0-.107.088-.195.194-.195.107 0 .195.088.195.195a.193.193 0 0 1-.195.195zM9.64 3.9a.196.196 0 0 1-.195-.195c0-.107.088-.195.195-.195.107 0 .195.088.195.195a.196.196 0 0 1-.195.195zm0-.701a.196.196 0 0 1-.195-.195c0-.107.088-.195.195-.195.107 0 .195.088.195.195a.196.196 0 0 1-.195.195zm0-.706a.196.196 0 0 1-.195-.195c0-.107.088-.195.195-.195.107 0 .195.088.195.195a.193.193 0 0 1-.195.195zm-.616-.599a.196.196 0 0 1-.195-.195c0-.107.088-.195.195-.195.106 0 .194.089.194.195a.2.2 0 0 1-.194.195zm6.353 4.1a.346.346 0 0 1 .14.474.351.351 0 1 1-.616-.339.353.353 0 0 1 .476-.135zm-4.49 1.017a.196.196 0 0 1-.195-.195c0-.107.088-.195.195-.195.106 0 .194.088.194.195a.193.193 0 0 1-.194.195zm-4.908.65a.196.196 0 0 1-.195-.195c0-.107.088-.195.195-.195.107 0 .195.088.195.195a.196.196 0 0 1-.195.195zm2.41-.65a.196.196 0 0 1-.195-.195c0-.107.088-.195.195-.195.106 0 .194.088.194.195a.196.196 0 0 1-.194.195z" fill="#FFF"/><path d="M11.085 5.613a.831.831 0 0 0 .195.279 6.797 6.797 0 0 0-.538-.065.79.79 0 0 0 .255-.223c.028.005.06.01.088.01zm-2.896 0c.032 0 .06-.004.088-.01.07.094.157.168.254.224-.18.018-.356.042-.537.065a.69.69 0 0 0 .195-.279zm-1.043.446a7.676 7.676 0 0 0-.468.12.773.773 0 0 0 .153-.375c.083.111.19.2.315.255zm-1.789.58a.768.768 0 0 0 .102-.246l.028-.004a.643.643 0 0 0 .13-.056.81.81 0 0 0 .24.111c-.17.06-.338.126-.5.195zM9.64 5.446c.051.13.134.246.246.33-.084 0-.163-.005-.246-.005-.083 0-.162 0-.246.005a.73.73 0 0 0 .246-.33zm4.022.887a.407.407 0 0 0 .13.056l.028.004a.768.768 0 0 0 .102.246 8.005 8.005 0 0 0-.5-.195.878.878 0 0 0 .24-.111zm-1.065-.158c-.153-.042-.31-.084-.468-.12a.77.77 0 0 0 .315-.256c.014.14.07.27.153.376zm.607-1.514a.438.438 0 0 0 .26-.315c.208.046.444.106.639.18.18.07.324.168.426.256.107.27.167.58.195.957-.13.055-.209.185-.255.315-.079.2-.079.404.139.557a.344.344 0 0 1-.366-.362.438.438 0 1 0-.76-.385l-.014.074a.349.349 0 0 1-.617-.2c.367.075.524-.11.584-.357.056-.209.033-.413-.208-.543a.419.419 0 0 0-.023-.177z" fill="#E62644"/><path d="M6.993 3.798c.695-.385 1.608-.455 2.317-.348v.05a.377.377 0 0 0 .083.502.41.41 0 0 0-.273.316c-.264.065-.334.26-.334.473 0 .256.102.474.478.493a.349.349 0 0 1-.53.4.349.349 0 0 1-.128-.391.438.438 0 1 0-.862-.112c0 .075.018.144.05.21a.355.355 0 0 1-.259.315.35.35 0 0 1-.38-.153c.357-.112.403-.348.338-.594-.055-.21-.171-.381-.444-.377a.416.416 0 0 0-.195-.194c.028-.21.074-.404.139-.59zm2.97-.348c.71-.103 1.618-.038 2.317.348.065.186.112.38.135.585a.438.438 0 0 0-.195.195c-.273-.005-.389.167-.445.376-.065.246-.018.483.339.594a.346.346 0 1 1-.64-.162.435.435 0 0 0 .051-.21.436.436 0 0 0-.783-.266.44.44 0 0 0-.079.378.348.348 0 0 1-.658-.01c.375-.018.477-.236.477-.491 0-.214-.074-.409-.333-.474a.418.418 0 0 0-.274-.315.377.377 0 0 0 .084-.502V3.45h.004zM5.176 4.527c.19-.075.431-.14.64-.181.028.144.125.26.26.315a.522.522 0 0 0-.028.177c-.241.125-.26.334-.209.543.065.246.218.432.584.358-.014.315-.417.44-.616.2a.21.21 0 0 0-.014-.075.44.44 0 0 0-.842-.029.434.434 0 0 0 .082.414.337.337 0 0 1-.181.32.345.345 0 0 1-.19.042c.218-.153.213-.357.139-.557-.051-.13-.13-.26-.26-.315.033-.377.093-.688.195-.952a1.78 1.78 0 0 1 .44-.26zm5.084 2.228l-.626.232-.625-.232.625-.232.626.232zm-4.69.84l-.055.219-.024.079-.046-.028-.204-.111.056-.21.01-.046.073.023.19.075zm8.138 0l.264-.097.01.047.05.213-.204.112-.041.023-.024-.08-.055-.217z" fill="#E62644"/><path d="M12.596 6.175a.773.773 0 0 1-.153-.376.703.703 0 0 1-.315.255c.157.037.315.08.468.121zm1.065.158a.81.81 0 0 1-.24.111c.166.06.333.126.5.195a.768.768 0 0 1-.102-.246l-.028-.004a.643.643 0 0 1-.13-.056zM9.64 5.446a.755.755 0 0 1-.246.33c.08 0 .163-.005.246-.005.083 0 .162 0 .246.005a.73.73 0 0 1-.246-.33zM5.357 6.64c.162-.07.33-.134.5-.195a.717.717 0 0 1-.24-.111.407.407 0 0 1-.13.056l-.028.004a.89.89 0 0 1-.102.246zm1.789-.58a.77.77 0 0 1-.315-.255.731.731 0 0 1-.153.376c.157-.047.315-.089.468-.121zm1.043-.446a.765.765 0 0 1-.19.279 6.73 6.73 0 0 1 .537-.065.79.79 0 0 1-.255-.223c-.032.005-.06.01-.092.01zm2.896 0a.567.567 0 0 1-.088-.01.835.835 0 0 1-.255.224c.18.018.357.042.538.065a.86.86 0 0 1-.186-.26l-.01-.019zm4.291.38a.346.346 0 0 0-.473.14.347.347 0 0 0 .14.474.353.353 0 0 0 .477-.135.36.36 0 0 0-.144-.478zm-2.66-1.243a.352.352 0 0 0-.426.25.348.348 0 0 0 .25.423.35.35 0 0 0 .426-.25.348.348 0 0 0-.25-.423zm.315-.683a.196.196 0 0 0-.194.195c0 .107.088.195.194.195a.196.196 0 0 0 .195-.195.193.193 0 0 0-.195-.195zm-.162-.696a.196.196 0 0 0-.195.195c0 .107.088.195.195.195a.196.196 0 0 0 .195-.195.19.19 0 0 0-.195-.195zM15.283 5.2a.196.196 0 0 0-.194.195c0 .107.088.195.194.195a.196.196 0 0 0 .195-.195.196.196 0 0 0-.195-.195zm-.162-.692a.196.196 0 0 0-.194.195c0 .107.088.195.194.195a.196.196 0 0 0 .195-.195.196.196 0 0 0-.195-.195zM14.83 3.9a.196.196 0 0 0-.194.195c0 .107.088.19.194.19a.196.196 0 0 0 .195-.195.192.192 0 0 0-.195-.19zm-.459-.539a.196.196 0 0 0-.194.195c0 .107.088.195.194.195a.196.196 0 0 0 .195-.195.196.196 0 0 0-.195-.195zm-.57-.413a.196.196 0 0 0-.194.195c0 .107.088.195.194.195a.196.196 0 0 0 .195-.195.196.196 0 0 0-.195-.195zm-.611-.237a.196.196 0 0 0-.195.195c0 .107.088.195.195.195a.196.196 0 0 0 .194-.195.196.196 0 0 0-.194-.195zm-.621.052a.196.196 0 0 0-.195.195c0 .106.088.194.195.194a.196.196 0 0 0 .194-.195.2.2 0 0 0-.194-.194zm-.459-.525a.196.196 0 0 0-.195.195c0 .107.088.195.195.195a.196.196 0 0 0 .195-.195.196.196 0 0 0-.195-.195zm-.598-.395a.196.196 0 0 0-.194.195c0 .107.088.195.194.195a.196.196 0 0 0 .195-.195.196.196 0 0 0-.195-.195zm-.62-.227a.196.196 0 0 0-.195.195c0 .107.088.195.194.195a.196.196 0 0 0 .195-.195.196.196 0 0 0-.195-.195zm-.636-.112a.196.196 0 0 0-.194.195c0 .107.088.195.194.195a.196.196 0 0 0 .195-.195.196.196 0 0 0-.195-.195zm-6.02 5.098a.347.347 0 0 0 .14-.473.35.35 0 1 0-.139.474zm2.498-1.18A.344.344 0 0 0 6.983 5a.352.352 0 0 0-.426-.25.344.344 0 0 0-.25.422c.051.19.241.302.426.25zm2.906-.361a.351.351 0 0 0 .352-.348.351.351 0 0 0-.352-.349.351.351 0 0 0-.352.349c0 .19.157.348.352.348zm-3.397-.609a.196.196 0 0 0 .195-.194.196.196 0 0 0-.195-.196.196.196 0 0 0-.194.196c0 .11.088.194.194.194zm.162-.691a.196.196 0 0 0 .195-.195.196.196 0 0 0-.195-.195.196.196 0 0 0-.194.195c0 .107.088.195.194.195zM3.994 5.59a.196.196 0 0 0 .195-.195.196.196 0 0 0-.194-.195.196.196 0 0 0-.195.195c0 .107.088.195.195.195zm.163-.696a.196.196 0 0 0 .194-.195.196.196 0 0 0-.194-.195.196.196 0 0 0-.195.195.19.19 0 0 0 .195.195zm.287-.609a.196.196 0 0 0 .195-.195.19.19 0 0 0-.195-.19.196.196 0 0 0-.194.195c0 .107.088.19.194.19zm.464-.538a.196.196 0 0 0 .194-.195.196.196 0 0 0-.194-.195.196.196 0 0 0-.195.195c0 .107.088.195.195.195zm.57-.409a.196.196 0 0 0 .194-.195.196.196 0 0 0-.194-.195.196.196 0 0 0-.195.195c0 .107.083.195.195.195zm.607-.241a.196.196 0 0 0 .194-.195.196.196 0 0 0-.194-.195.196.196 0 0 0-.195.195c0 .111.088.195.195.195zm.625.055a.196.196 0 0 0 .195-.195.196.196 0 0 0-.195-.194.196.196 0 0 0-.194.195c0 .106.088.194.194.194zm.459-.524a.196.196 0 0 0 .195-.195.196.196 0 0 0-.195-.195.196.196 0 0 0-.195.195.19.19 0 0 0 .195.195zm.593-.395a.196.196 0 0 0 .195-.195.196.196 0 0 0-.195-.195.196.196 0 0 0-.194.195c0 .107.088.195.194.195zm.621-.232a.196.196 0 0 0 .195-.195.196.196 0 0 0-.195-.195.196.196 0 0 0-.194.195c0 .107.088.195.194.195zM9.64 3.9a.196.196 0 0 0 .195-.195.196.196 0 0 0-.195-.195.196.196 0 0 0-.195.195c0 .107.088.195.195.195zm0-.701a.196.196 0 0 0 .195-.195.196.196 0 0 0-.195-.195.196.196 0 0 0-.195.195c0 .107.088.195.195.195zm0-.706a.196.196 0 0 0 .195-.195.196.196 0 0 0-.195-.195.196.196 0 0 0-.195.195c0 .112.088.195.195.195zm-.616-.599a.196.196 0 0 0 .194-.195.196.196 0 0 0-.194-.195.196.196 0 0 0-.195.195.19.19 0 0 0 .195.195zm5.352 4.745c.162.088.287.051.445-.004-.26-.13-.394-.246-.278-.553.05-.14.12-.241.269-.283-.093-1.189-.427-1.755-1.511-2.294l-.079.024c0 .014.005.027.005.041 0 .163-.088.242-.209.33.195.042.371.13.371.362 0 .195-.13.302-.301.353a.405.405 0 0 1 .055.274c.223.107.27.246.214.469-.084.32-.278.353-.584.274-.047.497.505.687.774.33 0-.028.004-.056.009-.089a.356.356 0 0 1 .43-.255c.19.046.307.241.256.432a.356.356 0 0 1-.088.157.44.44 0 0 0 .222.432zM9.333 2.303c0-.023.005-.051.005-.08-1.418-.101-2.433.86-2.572 2.21.125.052.171.108.232.228.245-.013.356.084.412.312.083.32-.074.44-.375.52.092.208.278.348.519.283a.421.421 0 0 0 .32-.413.378.378 0 0 1-.056-.186c0-.195.157-.353.357-.353.194 0 .356.158.356.353 0 .037-.009.074-.018.111a.428.428 0 0 0 .417.316c.25 0 .394-.181.431-.404-.315 0-.496-.084-.496-.413 0-.232.084-.358.325-.404.055-.293.203-.311.449-.348.246.041.394.06.45.348.24.046.324.172.324.404 0 .33-.18.408-.496.413.037.223.18.404.431.404.2 0 .357-.13.412-.316a.467.467 0 0 1-.018-.111.354.354 0 0 1 .709 0c0 .07-.019.13-.056.186a.422.422 0 0 0 .325.413c.24.06.426-.08.519-.284-.306-.078-.459-.204-.376-.52.06-.227.172-.325.413-.31.06-.126.102-.182.232-.228-.14-1.356-1.154-2.317-2.572-2.21.004.028.009.051.009.079 0 .07-.023.125-.06.18v.345c.037.055.06.11.06.18 0 .07-.023.126-.06.182l.009.353a.3.3 0 0 1 .05.171c0 .2-.147.265-.3.33-.153-.07-.302-.13-.302-.33 0-.07.024-.125.06-.18v-.349a.314.314 0 0 1-.06-.181c0-.07.024-.125.06-.181v-.344a.266.266 0 0 1-.069-.176zm-4.602 3.78c.116.3-.018.422-.278.552.158.055.283.093.445.004a.419.419 0 0 0 .218-.427.353.353 0 0 1 .167-.59.354.354 0 0 1 .43.256c.01.028.01.056.01.088.269.358.82.167.774-.33-.306.075-.5.042-.584-.274-.06-.227-.01-.366.213-.468a.4.4 0 0 1 .056-.274c-.172-.051-.301-.158-.301-.349 0-.232.176-.32.366-.362-.116-.088-.209-.167-.209-.33 0-.013 0-.027-.078-.055-1.103.543-1.414 1.086-1.507 2.289.163.028.227.13.278.27zm9.38 1.123a10.515 10.515 0 0 0-4.472-.994c-1.599 0-3.11.353-4.463.99a.17.17 0 0 1-.231-.09c-.042-.092.004-.157.041-.236-.278.084-.482.084-.723-.102-.444.302-.959-.316-.62-.599-.163-.2-.167-.422.064-.571a.376.376 0 0 1-.07-.209c0-.232.172-.32.367-.362-.111-.093-.204-.167-.204-.33 0-.237.185-.334.39-.357-.056-.084-.098-.144-.098-.251 0-.195.158-.353.352-.353.06 0 .12.019.176.037-.037-.079-.07-.134-.07-.227 0-.195.158-.353.353-.353.093 0 .153.032.232.074-.005-.042-.019-.093-.019-.134 0-.195.158-.353.352-.353.107 0 .172.042.255.097.042-.186.144-.334.357-.334.158 0 .246.083.324.204.084-.093.163-.153.297-.153a.59.59 0 0 1 .158.028c-.028-.07-.051-.126-.051-.2 0-.195.157-.353.352-.353.111 0 .176.047.264.103a.677.677 0 0 1-.023-.144c0-.195.157-.353.352-.353.111 0 .176.046.264.107.042-.186.144-.34.357-.34.13 0 .204.06.292.145.07-.144.167-.256.343-.256.05 0 .092.014.139.028a.802.802 0 0 1 .37-.209V.785h-.296V.566h.297V.302h.236v.264h.296v.219h-.296v.371a.63.63 0 0 1 .361.218.354.354 0 0 1 .14-.028c.18 0 .273.107.342.256.088-.084.162-.144.292-.144.213 0 .315.153.357.339.083-.065.148-.107.264-.107.195 0 .352.158.352.353 0 .046-.013.102-.018.144.088-.056.153-.102.264-.102.195 0 .352.158.352.353 0 .074-.028.13-.05.2a.54.54 0 0 1 .157-.029c.134 0 .213.065.296.154.08-.121.167-.205.325-.205.213 0 .32.153.357.335.083-.06.143-.098.254-.098.195 0 .353.158.353.353 0 .042-.01.093-.019.135.079-.042.14-.075.232-.075.194 0 .352.158.352.353 0 .088-.032.149-.07.228a.435.435 0 0 1 .181-.047c.195 0 .352.158.352.353 0 .107-.041.167-.097.25.204.02.39.121.39.358 0 .163-.089.242-.21.33.196.042.367.13.367.362 0 .084-.028.14-.07.209.232.144.232.367.075.576.204.167.097.431-.075.566-.176.135-.352.163-.546.033-.241.185-.445.185-.723.102l.041.083c.07.14-.07.297-.222.242zm-8.476.353l-.287-.107-.023-.047c-.024.01-.042.014-.06.019-.08.005-.075-.079-.033-.098a10.343 10.343 0 0 1 4.402-.975c1.58 0 3.068.349 4.403.975.037.019.046.107-.033.098a.124.124 0 0 1-.06-.019l-.023.047-.287.107.083.33-.028.055c.153.07.047.176-.014.148a9.491 9.491 0 0 0-4.045-.896 9.49 9.49 0 0 0-4.046.896c-.032.014-.07 0-.088-.037-.018-.037 0-.065.023-.083.014-.01.033-.019.047-.028l-.028-.056.097-.33zm1.599-.242l.616-.427-.746-.079-.616.427.746.08zm6.061.395a.25.25 0 0 0 .25-.25.25.25 0 0 0-.25-.252.25.25 0 0 0-.25.251c0 .144.111.25.25.25zm-4.907-.646a.25.25 0 0 0 .25-.25.25.25 0 0 0-.25-.251.25.25 0 0 0-.25.25c0 .14.11.251.25.251zm-2.41.646a.25.25 0 0 0 .25-.25.25.25 0 0 0-.25-.252.25.25 0 0 0-.25.251c0 .144.111.25.25.25zm4.908-.646a.25.25 0 0 0 .25-.25.25.25 0 0 0-.25-.251.25.25 0 0 0-.25.25c0 .14.11.251.25.251zm1.154.251l.746-.079-.617-.427-.746.079.617.427zm-1.618-.562l-.783-.292-.783.292.783.293.783-.293zm-8.897 9.908c0 4.439 3.647 8.07 8.114 8.07 4.463 0 8.114-3.631 8.114-8.07 0-4.452-3.647-8.07-8.114-8.07-4.463-.004-8.114 3.618-8.114 8.07zm17.109 0c0 4.926-4.036 8.947-8.995 8.947S.644 21.585.644 16.663c0-4.935 4.036-8.96 8.995-8.96s8.995 4.025 8.995 8.96zM8.457 12.861l1.173 1.193 1.098-1.156a5.08 5.08 0 0 0-1.154-.19c-.375-.02-.755.07-1.117.153zm3.091-.84l1.724-1.774c2.23 1.272 3.73 3.658 3.73 6.384 0 1.778-.63 3.403-1.695 4.675l-.807-.803c.904-1.1 1.497-2.196 1.497-3.942 0-1.871-.982-3.956-2.553-5.037l-1.034 1.054c.533.394.95.793 1.307 1.355l-.792.678c-.315-.548-.719-.933-1.238-1.286l-2.062 2.164-2.136-2.197c-1.108.771-1.761 1.872-1.789 3.241-.037 1.816 1.145 3.083 2.804 3.63V16.51h2.53v.752H9.48v.975h1.53v.86H9.48v1.23c1.136.06 2.34-.595 3.078-1.407l.76.761c-.969 1.119-2.369 1.685-3.833 1.695v1.123h-.978v-1.244c-2.238-.552-3.855-2.502-3.823-4.833.019-1.597.876-2.907 2.118-3.84L5.756 11.5c-1.627 1.324-2.498 2.94-2.572 5.038-.056 1.857.908 3.347 1.515 3.974l-.714.738c-1.093-1.267-1.733-2.827-1.733-4.615 0-2.706 1.502-5.093 3.712-6.36l1.747 1.81a5.342 5.342 0 0 1 1.928-.362c.663.01 1.233.13 1.849.362l.06-.065z" fill="#FCBF00"/><path d="M18.903 16.663c0 5.07-4.157 9.216-9.264 9.216-5.107 0-9.264-4.146-9.264-9.216 0-5.08 4.157-9.225 9.264-9.225 5.107 0 9.264 4.146 9.264 9.225zm-.27 0c0-4.935-4.035-8.96-8.994-8.96S.644 11.728.644 16.663c0 4.926 4.036 8.947 8.995 8.947s8.995-4.025 8.995-8.947zm-16.84 0c0 4.295 3.532 7.805 7.846 7.805s7.846-3.51 7.846-7.805c0-4.304-3.532-7.804-7.846-7.804s-7.846 3.5-7.846 7.804zm-.268 0c0-4.452 3.647-8.07 8.114-8.07 4.463 0 8.114 3.622 8.114 8.07 0 4.439-3.647 8.07-8.114 8.07-4.463 0-8.114-3.631-8.114-8.07zm9.06-1.783l4.388 4.504c.5-.822.75-1.662.75-2.818 0-2.025-1.14-3.868-2.247-4.685l-.663.673c.529.418.904.868 1.247 1.44l-1.219 1.049c-.292-.567-.598-.98-1.121-1.356l-1.136 1.193zm5.56 5.706a7.482 7.482 0 0 1-3.424 3.023l-.71-.724-1.325-1.351a5.163 5.163 0 0 1-.931.116v1.128H8.24v-1.3c-2.28-.613-3.851-2.735-3.824-5.042.005-.386.056-.757.153-1.12l-.75-.756a6.724 6.724 0 0 0-.376 2.006c-.042 1.43.584 2.976 1.627 3.96l-1.094 1.11c-1.288-1.44-1.993-3.06-1.993-5.01 0-2.846 1.567-5.325 4.032-6.7l1.766 1.834a5.662 5.662 0 0 1 1.858-.315 5.345 5.345 0 0 1 1.784.32l1.798-1.857c2.484 1.37 4.05 3.853 4.05 6.718a7.33 7.33 0 0 1-1.126 3.96zm-7.91-1.532l-2.266-2.298c.055 1.29.843 2.503 2.266 3.046v-.748zm3.313-7.034l-.06.06a5.242 5.242 0 0 0-1.849-.361 5.38 5.38 0 0 0-1.928.362L5.964 10.27c-2.21 1.272-3.712 3.659-3.712 6.365 0 1.788.64 3.348 1.733 4.615l.705-.715c-.607-.626-1.571-2.117-1.516-3.974.075-2.103.946-3.714 2.572-5.037l1.048 1.081c-1.242.934-2.095 2.238-2.118 3.84-.028 2.33 1.585 4.276 3.823 4.833v1.245h.978v-1.124c1.469-.01 2.864-.576 3.832-1.695l-.76-.761c-.737.812-1.941 1.462-3.077 1.407v-1.23h1.53v-.86h-1.53v-.975h1.553v-.752h-2.53v3.654c-1.66-.548-2.841-1.815-2.804-3.63.028-1.37.681-2.47 1.789-3.241l2.136 2.196 2.062-2.164c.52.353.922.738 1.237 1.286l.793-.678c-.357-.561-.774-.96-1.307-1.355l1.033-1.054c1.571 1.077 2.554 3.166 2.554 5.037 0 1.746-.589 2.842-1.497 3.942l.806.803a7.238 7.238 0 0 0 1.696-4.675c0-2.725-1.501-5.112-3.73-6.384l-1.715 1.75zm-3.09.84c.365-.083.74-.171 1.116-.152.403.013.77.083 1.154.19L9.63 14.054 8.457 12.86zm.532.159l.635.645.593-.622a3.803 3.803 0 0 0-.653-.07 3.538 3.538 0 0 0-.575.047zm4.718-5.423l.055.213.024.08.041-.024.204-.111-.05-.214-.01-.046-.264.102zm.403-.39a.181.181 0 0 0 .227-.246l-.042-.084c.278.084.482.084.723-.102.195.13.371.102.547-.033.172-.134.278-.394.074-.566.158-.204.162-.427-.074-.576a.376.376 0 0 0 .07-.209c0-.232-.176-.32-.366-.362.115-.088.208-.167.208-.33 0-.236-.185-.334-.39-.357.056-.083.098-.144.098-.25a.353.353 0 0 0-.352-.354c-.06 0-.12.02-.176.038.037-.08.07-.135.07-.228a.353.353 0 0 0-.353-.353c-.097 0-.153.033-.232.075.005-.042.019-.093.019-.135a.353.353 0 0 0-.352-.353c-.107 0-.172.042-.255.098-.042-.182-.144-.335-.357-.335-.158 0-.246.084-.324.205-.084-.093-.163-.154-.297-.154a.59.59 0 0 0-.157.028c.027-.07.05-.125.05-.2a.353.353 0 0 0-.352-.352c-.11 0-.176.046-.264.102a.719.719 0 0 0 .019-.144.353.353 0 0 0-.353-.353c-.11 0-.176.046-.264.107-.041-.186-.143-.34-.356-.34-.13 0-.204.061-.292.145-.07-.144-.167-.256-.343-.256-.051 0-.093.014-.14.028a.64.64 0 0 0-.36-.218V.771h.296V.566h-.297V.302h-.236v.264h-.306v.219h.297v.371a.654.654 0 0 0-.357.218.354.354 0 0 0-.14-.028c-.18 0-.273.107-.342.256-.088-.084-.162-.144-.292-.144-.218 0-.315.153-.357.339-.088-.065-.153-.112-.269-.112a.353.353 0 0 0-.352.353c0 .047.014.102.023.144-.088-.056-.153-.102-.264-.102a.353.353 0 0 0-.352.353c0 .074.028.13.05.2a.59.59 0 0 0-.157-.028c-.134 0-.213.065-.296.153-.08-.12-.167-.204-.325-.204-.213 0-.315.153-.357.334-.083-.056-.148-.098-.254-.098a.353.353 0 0 0-.353.353c0 .042.01.093.019.135a.458.458 0 0 0-.232-.074.353.353 0 0 0-.352.352c0 .089.032.149.07.228-.06-.014-.116-.037-.177-.037a.353.353 0 0 0-.352.353c0 .106.042.167.098.25-.214.014-.399.116-.399.353 0 .163.088.242.204.33-.195.042-.366.13-.366.362 0 .084.028.14.07.209-.232.144-.232.367-.075.576-.338.278.176.9.621.599.241.185.445.185.723.102-.037.079-.083.148-.042.236a.17.17 0 0 0 .232.089 10.47 10.47 0 0 1 4.463-.99c1.599 0 3.123.354 4.481.99zm-8.54.39l-.19-.07-.075-.023-.01.046-.055.21.204.11.046.029.019-.084.06-.218zm-.121.334l-.269-.149.065-.269a.148.148 0 0 1-.107-.213A.264.264 0 0 1 4.838 7a.76.76 0 0 1-.588-.125c-.478.283-1.039-.395-.733-.71-.134-.205-.102-.455.074-.59a.436.436 0 0 1 .232-.59.42.42 0 0 1-.111-.287c0-.205.144-.377.334-.423a.451.451 0 0 1-.037-.181c0-.241.194-.432.435-.432l.042.005a.432.432 0 0 1 .551-.52.435.435 0 0 1 .635-.38.437.437 0 0 1 .746-.13.438.438 0 0 1 .288-.108h.027a.432.432 0 0 1 .589-.492.437.437 0 0 1 .649-.371.433.433 0 0 1 .676-.19.44.44 0 0 1 .371-.2c.042 0 .079.004.116.014a.688.688 0 0 1 .255-.172l.046-.014V.868H9.14V.483h.296V.218h.403v.265h.297v.385h-.297v.228l.047.014a.688.688 0 0 1 .255.171.466.466 0 0 1 .115-.013.42.42 0 0 1 .366.2.448.448 0 0 1 .27-.094c.19 0 .347.116.407.283a.434.434 0 0 1 .649.371.434.434 0 0 1 .598.4c0 .033-.005.06-.01.093h.033c.111 0 .208.042.287.107a.43.43 0 0 1 .338-.158c.19 0 .348.12.408.288a.43.43 0 0 1 .635.38.428.428 0 0 1 .134-.018.435.435 0 0 1 .422.539h.037a.435.435 0 0 1 .394.617c.19.046.334.218.334.423a.42.42 0 0 1-.111.287.433.433 0 0 1 .231.59c.176.135.209.385.074.59.195.2.028.515-.134.64-.157.126-.38.2-.593.07a.751.751 0 0 1-.589.125.266.266 0 0 1-.3.298c.045.079-.005.2-.103.213l.065.27-.269.148a.14.14 0 0 1 .019.158.148.148 0 0 1-.2.079A9.403 9.403 0 0 0 9.64 7.28c-1.437 0-2.79.316-4.009.887-.078.037-.162-.005-.199-.08a.142.142 0 0 1 .019-.157zm.185-.371l-.083.33.028.055c-.014.01-.033.014-.047.028-.023.023-.042.046-.023.083.019.037.056.051.088.037a9.491 9.491 0 0 1 4.046-.896c1.45 0 2.817.32 4.045.896.065.028.167-.078.014-.148l.028-.056-.083-.33.287-.106.023-.047c.023.01.042.014.06.019.08.01.074-.079.033-.098a10.343 10.343 0 0 0-4.403-.975c-1.575 0-3.068.349-4.402.975-.037.019-.042.107.032.098a.124.124 0 0 0 .06-.019l.024.047.273.107zm6.618-3.84c-.343-.859-1.15-1.481-2.23-1.42a.378.378 0 0 1-.06.204v.292c.08.124.08.284 0 .409v.185c.742-.097 1.608-.023 2.29.33zM9.963 3.5a.377.377 0 0 1-.083.501.41.41 0 0 1 .273.316c.265.065.334.26.334.473 0 .256-.102.474-.477.493a.349.349 0 0 0 .529.4.349.349 0 0 0 .129-.391.903.903 0 0 1-.01-.112c0-.241.195-.436.44-.436.242 0 .436.195.436.436a.464.464 0 0 1-.05.21c.009.143.11.273.259.315a.35.35 0 0 0 .38-.153c-.357-.112-.403-.348-.338-.594.055-.21.171-.381.445-.377a.416.416 0 0 1 .194-.194 3.323 3.323 0 0 0-.144-.59c-.695-.385-1.608-.455-2.317-.348v.05zm-.63-1.198c0 .07.023.125.06.18v.345a.314.314 0 0 0-.06.18c0 .07.023.126.06.182v.343a.314.314 0 0 0-.06.181c0 .2.148.265.301.33.153-.07.302-.13.302-.33a.311.311 0 0 0-.051-.171l-.01-.353a.314.314 0 0 0 .06-.181.314.314 0 0 0-.06-.181v-.349a.314.314 0 0 0 .06-.18.426.426 0 0 0-.009-.08c1.418-.102 2.433.855 2.572 2.21-.125.051-.171.107-.231.228-.246-.014-.357.083-.413.31-.083.321.07.442.376.52-.093.21-.279.35-.52.284a.43.43 0 0 1-.324-.413.378.378 0 0 0 .056-.186.353.353 0 0 0-.352-.353.356.356 0 0 0-.357.353c0 .037.009.074.018.112a.427.427 0 0 1-.412.315c-.25 0-.394-.18-.431-.404.315 0 .496-.083.496-.413 0-.232-.084-.357-.325-.404-.055-.292-.204-.31-.45-.348-.245.042-.393.06-.449.348-.24.047-.324.172-.324.404 0 .33.18.409.496.413-.037.223-.181.404-.431.404-.2 0-.357-.13-.417-.315a.467.467 0 0 0 .018-.112.353.353 0 0 0-.357-.353.356.356 0 0 0-.356.353c0 .07.018.13.055.186a.423.423 0 0 1-.32.413c-.24.06-.426-.079-.519-.283.306-.08.46-.204.376-.52-.06-.228-.172-.325-.413-.311-.055-.126-.102-.181-.231-.228.139-1.355 1.153-2.317 2.572-2.21.009.028.004.056.004.084zm-2.34 1.495c-.065.186-.111.38-.134.585a.438.438 0 0 1 .194.195c.274-.005.39.167.445.376.065.246.019.483-.338.594a.346.346 0 1 0 .64-.162.435.435 0 0 1-.052-.21.436.436 0 0 1 .783-.266.44.44 0 0 1 .08.378.348.348 0 0 0 .657-.01c-.375-.018-.477-.236-.477-.491 0-.214.074-.409.334-.474a.418.418 0 0 1 .273-.315.377.377 0 0 1-.083-.502V3.45c-.71-.103-1.622-.038-2.322.348zM9.25 2.303c-1.08-.06-1.882.557-2.225 1.42.677-.348 1.548-.431 2.285-.324v-.186a.378.378 0 0 1 0-.409v-.297a.39.39 0 0 1-.06-.204zm4.388 3.946l.023-.018c.047.037.089.06.149.079l.074.014a.72.72 0 0 0 .19.39l-.046.065a10.69 10.69 0 0 0-.788-.311l.009-.08a.803.803 0 0 0 .39-.139zm.023.084a.81.81 0 0 1-.24.111c.166.06.333.126.5.195a.768.768 0 0 1-.102-.246l-.028-.004a.643.643 0 0 1-.13-.056zM9.597 5.279h.084a.658.658 0 0 0 .375.506l-.018.079c-.13-.005-.265-.01-.399-.01s-.264.005-.399.01l-.018-.079a.666.666 0 0 0 .375-.506zm.042.167a.755.755 0 0 1-.246.33c.08 0 .163-.005.246-.005.083 0 .162 0 .246.005a.73.73 0 0 1-.246-.33zM5.246 6.78L5.2 6.714a.737.737 0 0 0 .19-.39.386.386 0 0 0 .227-.089c.125.093.25.144.407.154l.01.079a8.962 8.962 0 0 0-.788.31zm.111-.14c.162-.07.33-.134.5-.195a.717.717 0 0 1-.24-.111.407.407 0 0 1-.13.056l-.028.004a.89.89 0 0 1-.102.246zm1.96-.617V6.1c-.255.055-.51.12-.76.19l-.037-.07a.666.666 0 0 0 .232-.58l.079-.019a.656.656 0 0 0 .486.4zm-.171.037a.77.77 0 0 1-.315-.255.731.731 0 0 1-.153.376c.157-.047.315-.089.468-.121zm.709-.056l-.028-.074a.739.739 0 0 0 .306-.395h.05a.394.394 0 0 0 .13-.023c.103.149.228.25.4.306l-.01.08c-.287.023-.57.06-.848.106zm.334-.39a.765.765 0 0 1-.19.279 6.73 6.73 0 0 1 .537-.065.79.79 0 0 1-.255-.223c-.032.005-.06.01-.092.01zm2.386.283l-.01-.079a.748.748 0 0 0 .4-.306.425.425 0 0 0 .13.023h.05a.74.74 0 0 0 .306.395l-.028.074a10.318 10.318 0 0 0-.848-.107zm.51-.283a.567.567 0 0 1-.088-.01.835.835 0 0 1-.255.224c.18.018.357.042.538.065a.86.86 0 0 1-.186-.26l-.01-.019zm1.673.613l-.037.07c-.25-.075-.5-.14-.76-.19v-.08a.683.683 0 0 0 .486-.399l.08.019a.666.666 0 0 0 .23.58zm-.162-.051a.773.773 0 0 1-.153-.376.703.703 0 0 1-.315.255c.157.037.315.08.468.121zm.12-1.425a.352.352 0 0 0-.426.25.348.348 0 0 0 .25.423.35.35 0 0 0 .426-.25.348.348 0 0 0-.25-.423zm.014-.056a.403.403 0 0 1 .292.492.407.407 0 0 1-.788-.2.41.41 0 0 1 .496-.292zm.301-.627a.196.196 0 0 0-.194.195c0 .107.088.195.194.195a.196.196 0 0 0 .195-.195.193.193 0 0 0-.195-.195zm0-.056a.25.25 0 0 1 .25.251.25.25 0 0 1-.25.25.25.25 0 0 1-.25-.25c0-.14.116-.25.25-.25zm-.162-.64a.196.196 0 0 0-.195.195c0 .107.088.195.195.195a.196.196 0 0 0 .195-.195.19.19 0 0 0-.195-.195zm0-.056a.25.25 0 0 1 .25.25.25.25 0 0 1-.25.251.25.25 0 0 1-.25-.25c0-.14.116-.251.25-.251zM15.283 5.2a.196.196 0 0 0-.194.195c0 .107.088.195.194.195a.196.196 0 0 0 .195-.195.196.196 0 0 0-.195-.195zm0-.056a.25.25 0 0 1 .25.251.25.25 0 0 1-.25.25.25.25 0 0 1-.25-.25c0-.14.111-.25.25-.25zm-.162-.636a.196.196 0 0 0-.194.195c0 .107.088.195.194.195a.196.196 0 0 0 .195-.195.196.196 0 0 0-.195-.195zm0-.056a.25.25 0 0 1 .25.251.25.25 0 0 1-.25.25.25.25 0 0 1-.25-.25c0-.14.111-.25.25-.25zM14.83 3.9a.196.196 0 0 0-.194.195c0 .107.088.19.194.19a.196.196 0 0 0 .195-.195.192.192 0 0 0-.195-.19zm0-.056a.25.25 0 0 1 .25.251.25.25 0 0 1-.25.25.25.25 0 0 1-.25-.25c0-.14.111-.25.25-.25zm-.459-.483a.196.196 0 0 0-.194.195c0 .107.088.195.194.195a.196.196 0 0 0 .195-.195.196.196 0 0 0-.195-.195zm0-.055a.25.25 0 0 1 .25.25.25.25 0 0 1-.25.251.25.25 0 0 1-.25-.25.247.247 0 0 1 .25-.251zm-.57-.358a.196.196 0 0 0-.194.195c0 .107.088.195.194.195a.196.196 0 0 0 .195-.195.196.196 0 0 0-.195-.195zm0-.055a.25.25 0 0 1 .25.25.25.25 0 0 1-.25.25.25.25 0 0 1-.25-.25c0-.14.111-.25.25-.25zm-.611-.182a.196.196 0 0 0-.195.195c0 .107.088.195.195.195a.196.196 0 0 0 .194-.195.196.196 0 0 0-.194-.195zm0-.055a.25.25 0 0 1 .25.25.25.25 0 0 1-.25.251.25.25 0 0 1-.25-.25c0-.14.11-.251.25-.251zm-.621.107a.196.196 0 0 0-.195.195c0 .106.088.194.195.194a.196.196 0 0 0 .194-.195.2.2 0 0 0-.194-.194zm0-.056a.25.25 0 0 1 .25.25.25.25 0 0 1-.25.251.25.25 0 0 1-.25-.25.247.247 0 0 1 .25-.251zm-.459-.47a.196.196 0 0 0-.195.196c0 .107.088.195.195.195a.196.196 0 0 0 .195-.195.196.196 0 0 0-.195-.195zm0-.055a.25.25 0 0 1 .25.25.25.25 0 0 1-.25.252.25.25 0 0 1-.25-.251c0-.135.111-.25.25-.25zm-.598-.339a.196.196 0 0 0-.194.195c0 .107.088.195.194.195a.196.196 0 0 0 .195-.195.196.196 0 0 0-.195-.195zm0-.055a.25.25 0 0 1 .25.25.25.25 0 0 1-.25.25.25.25 0 0 1-.25-.25c0-.14.111-.25.25-.25zm-.62-.172a.196.196 0 0 0-.195.195c0 .107.088.195.194.195a.196.196 0 0 0 .195-.195.196.196 0 0 0-.195-.195zm0-.056a.25.25 0 0 1 .25.25c0 .14-.112.247-.25.247a.25.25 0 0 1-.251-.25c0-.14.111-.247.25-.247zm-.636-.056a.196.196 0 0 0-.194.195c0 .107.088.195.194.195a.196.196 0 0 0 .195-.195.196.196 0 0 0-.195-.195zm0-.055a.25.25 0 0 1 .25.25.25.25 0 0 1-.25.251.25.25 0 0 1-.25-.25c0-.14.111-.251.25-.251zm-6.02 5.153a.347.347 0 0 0 .14-.473.35.35 0 1 0-.139.474zm.028.051a.407.407 0 0 1-.551-.158.402.402 0 0 1 .162-.548.407.407 0 0 1 .552.158.402.402 0 0 1-.163.548zm2.47-1.23A.344.344 0 0 0 6.983 5a.352.352 0 0 0-.426-.25.344.344 0 0 0-.25.422c.051.19.241.302.426.25zm.014.056a.406.406 0 1 1-.204-.787.406.406 0 0 1 .204.787zM9.64 5.06a.351.351 0 0 0 .352-.348.351.351 0 0 0-.352-.349.351.351 0 0 0-.352.349c0 .19.157.348.352.348zm0 .055a.408.408 0 0 1-.408-.403.408.408 0 1 1 .816 0 .41.41 0 0 1-.408.403zm-3.397-.663a.196.196 0 0 0 .195-.196.196.196 0 0 0-.195-.194.196.196 0 0 0-.194.195c0 .11.088.194.194.194zm0 .055a.25.25 0 0 1-.25-.25c0-.14.111-.251.25-.251a.25.25 0 0 1 .25.25.25.25 0 0 1-.25.251zm.162-.747a.196.196 0 0 0 .195-.195.196.196 0 0 0-.195-.195.196.196 0 0 0-.194.195c0 .107.088.195.194.195zm0 .055a.25.25 0 0 1-.25-.25c0-.14.111-.251.25-.251a.25.25 0 0 1 .25.25.25.25 0 0 1-.25.251zM3.994 5.59a.196.196 0 0 0 .195-.195.196.196 0 0 0-.194-.195.196.196 0 0 0-.195.195c0 .107.088.195.195.195zm0 .051a.25.25 0 0 1-.25-.25.25.25 0 0 1 .25-.251.25.25 0 0 1 .25.25c0 .144-.11.251-.25.251zm.163-.747a.196.196 0 0 0 .194-.195.196.196 0 0 0-.194-.195.196.196 0 0 0-.195.195.19.19 0 0 0 .195.195zm0 .055a.25.25 0 0 1-.25-.25c0-.14.11-.251.25-.251a.25.25 0 0 1 .25.25c0 .14-.116.251-.25.251zm.287-.664a.196.196 0 0 0 .195-.195.19.19 0 0 0-.195-.19.196.196 0 0 0-.194.195c0 .107.088.19.194.19zm0 .056a.25.25 0 0 1-.25-.25c0-.14.111-.251.25-.251a.25.25 0 0 1 .25.25.25.25 0 0 1-.25.251zm.464-.594a.196.196 0 0 0 .194-.195.196.196 0 0 0-.194-.195.196.196 0 0 0-.195.195c0 .107.088.195.195.195zm0 .056a.25.25 0 0 1-.25-.251c0-.14.11-.25.25-.25a.25.25 0 0 1 .25.25.25.25 0 0 1-.25.25zm.57-.465a.196.196 0 0 0 .194-.195.196.196 0 0 0-.194-.195.196.196 0 0 0-.195.195c0 .107.083.195.195.195zm0 .056a.25.25 0 0 1-.25-.25c0-.14.11-.252.25-.252a.25.25 0 0 1 .25.251.25.25 0 0 1-.25.25zm.607-.297a.196.196 0 0 0 .194-.195.196.196 0 0 0-.194-.195.196.196 0 0 0-.195.195c0 .111.088.195.195.195zm0 .055a.25.25 0 0 1-.25-.25c0-.14.11-.25.25-.25a.25.25 0 0 1 .25.25.247.247 0 0 1-.25.25zm.625 0a.196.196 0 0 0 .195-.195.196.196 0 0 0-.195-.194.196.196 0 0 0-.194.195c0 .106.088.194.194.194zm0 .056a.25.25 0 0 1-.25-.25c0-.14.111-.251.25-.251a.25.25 0 0 1 .25.25.25.25 0 0 1-.25.251zm.459-.58a.196.196 0 0 0 .195-.195.196.196 0 0 0-.195-.195.196.196 0 0 0-.195.195.19.19 0 0 0 .195.195zm0 .056a.25.25 0 0 1-.25-.251c0-.14.111-.25.25-.25a.25.25 0 0 1 .25.25c0 .14-.116.25-.25.25zm.593-.45a.196.196 0 0 0 .195-.196.196.196 0 0 0-.195-.195.196.196 0 0 0-.194.195c0 .107.088.195.194.195zm0 .055a.25.25 0 0 1-.25-.25.25.25 0 0 1 .25-.252.25.25 0 0 1 .25.251.25.25 0 0 1-.25.25zM8.383 2a.196.196 0 0 0 .195-.195.196.196 0 0 0-.195-.195.196.196 0 0 0-.194.195c0 .107.088.195.194.195zm0 .056a.25.25 0 0 1-.25-.25.25.25 0 0 1 .25-.252.25.25 0 0 1 .25.251.25.25 0 0 1-.25.25zM9.64 3.9a.196.196 0 0 0 .195-.195.196.196 0 0 0-.195-.195.196.196 0 0 0-.195.195c0 .107.088.195.195.195zm0 .056a.25.25 0 0 1-.25-.251c0-.14.111-.25.25-.25a.25.25 0 0 1 .25.25.25.25 0 0 1-.25.25zm0-.757a.196.196 0 0 0 .195-.195.196.196 0 0 0-.195-.195.196.196 0 0 0-.195.195c0 .107.088.195.195.195zm0 .056a.25.25 0 0 1-.25-.251c0-.14.111-.25.25-.25a.25.25 0 0 1 .25.25.25.25 0 0 1-.25.25zm0-.762a.196.196 0 0 0 .195-.195.196.196 0 0 0-.195-.195.196.196 0 0 0-.195.195c0 .112.088.195.195.195zm0 .056a.25.25 0 0 1-.25-.25.25.25 0 0 1 .25-.252.25.25 0 0 1 .25.251.25.25 0 0 1-.25.25zm-.616-.655a.196.196 0 0 0 .194-.195.196.196 0 0 0-.194-.195.196.196 0 0 0-.195.195.19.19 0 0 0 .195.195zm0 .056a.25.25 0 0 1-.25-.25c0-.14.11-.251.25-.251a.25.25 0 0 1 .25.25.255.255 0 0 1-.25.251zm6.353 4.044a.346.346 0 0 0-.473.14.347.347 0 0 0 .14.473.353.353 0 0 0 .477-.135.36.36 0 0 0-.144-.478zm.028-.051a.4.4 0 0 1 .162.548.407.407 0 0 1-.745-.083.4.4 0 0 1 .036-.307.4.4 0 0 1 .547-.158zm-10.673.14c-.05-.14-.12-.242-.268-.284.092-1.198.403-1.746 1.492-2.294.093.033.093.047.093.065 0 .163.092.242.208.33-.195.042-.366.13-.366.362 0 .195.13.302.301.348-.055.107-.065.154-.055.274-.223.107-.27.246-.214.47.084.32.278.352.584.273.047.497-.505.687-.774.33a.571.571 0 0 0-.009-.088.356.356 0 0 0-.43-.256.351.351 0 0 0-.256.432.37.37 0 0 0 .088.158.422.422 0 0 1-.217.427c-.163.088-.288.051-.445-.005.255-.12.384-.241.268-.543zm.019-1.296c-.107.27-.162.575-.195.952.13.055.209.185.26.315.074.2.079.404-.14.557a.343.343 0 0 0 .19-.041.351.351 0 0 0 .182-.32.436.436 0 1 1 .76-.385l.013.073c.2.242.598.116.617-.2-.366.075-.524-.11-.584-.357-.056-.209-.033-.413.208-.543 0-.065.01-.125.028-.177a.439.439 0 0 1-.26-.315 4.82 4.82 0 0 0-.639.18 1.378 1.378 0 0 0-.44.26zM5.97 3.594c-.607.315-.964.636-1.173 1.086.112-.084.232-.149.362-.2.194-.074.44-.139.649-.185v-.028c0-.181.11-.34.273-.404a.44.44 0 0 1-.111-.27zm8.406 3.045a.419.419 0 0 1-.218-.427.353.353 0 1 0-.598-.334c-.009.028-.009.056-.009.088-.269.358-.82.167-.774-.33.306.075.5.042.584-.274.06-.227.01-.366-.213-.468a.4.4 0 0 0-.056-.274c.167-.051.302-.158.302-.353 0-.232-.176-.32-.371-.362.116-.089.208-.167.208-.33 0-.014 0-.028-.004-.042l.079-.023c1.084.539 1.418 1.105 1.51 2.294-.148.046-.213.148-.268.283-.116.302.018.422.278.552-.163.051-.288.088-.45 0zm-.913-2.293a.438.438 0 0 1-.26.315.522.522 0 0 1 .028.177c.241.125.26.334.209.543-.065.246-.218.432-.584.358.019.315.417.44.616.2a.21.21 0 0 1 .014-.075.44.44 0 0 1 .533-.316.433.433 0 0 1 .227.701.342.342 0 0 0 .366.362c-.217-.153-.217-.357-.139-.557.051-.13.13-.26.255-.315-.032-.377-.088-.688-.194-.957a1.459 1.459 0 0 0-.427-.255 5.094 5.094 0 0 0-.644-.181zm-.153-.766a.454.454 0 0 1-.111.278.435.435 0 0 1 .273.404v.028c.218.046.445.107.65.186.143.055.263.13.36.2-.208-.446-.565-.771-1.172-1.096zm-1.27 3.737l-.616-.427.746-.079.617.427-.746.08zm-1.153-.25a.25.25 0 0 1-.25-.251c0-.14.11-.251.25-.251a.25.25 0 0 1 .25.25.247.247 0 0 1-.25.251zm0-.056a.196.196 0 0 0 .194-.195.196.196 0 0 0-.194-.195.196.196 0 0 0-.195.195c0 .107.088.195.195.195zm-4.908.65a.196.196 0 0 0 .195-.195.196.196 0 0 0-.195-.195.196.196 0 0 0-.195.195c0 .106.088.195.195.195zm0 .05a.25.25 0 0 1-.25-.25c0-.14.111-.25.25-.25a.25.25 0 0 1 .25.25c0 .144-.11.25-.25.25zm2.41-.7a.196.196 0 0 0 .194-.195.196.196 0 0 0-.194-.195.196.196 0 0 0-.195.195c0 .107.088.195.195.195zm0 .055a.25.25 0 0 1-.25-.25c0-.14.11-.251.25-.251a.25.25 0 0 1 .25.25.25.25 0 0 1-.25.251zm4.907.595a.196.196 0 0 0 .195-.195.196.196 0 0 0-.195-.195.196.196 0 0 0-.194.195c0 .106.088.195.194.195zm0 .05a.25.25 0 0 1-.25-.25c0-.14.111-.25.25-.25a.25.25 0 0 1 .25.25c0 .144-.11.25-.25.25zm-6.061-.394l-.746-.079.616-.427.746.079-.616.427zm3.026-.562l-.626-.232-.625.232.625.232.626-.232zm.162 0l-.783.293-.783-.293.783-.292.783.292z" fill="#004996"/></g></svg>