<svg width="187" height="117" xmlns="http://www.w3.org/2000/svg"><g fill="none"><path d="M187 0v117H0V0h187z" fill="red"/><path d="M69.931 50.053c-.25-4.47 0-8.85-.81-13-1.81-9.28-13.73-13.69-21.28-7.84-1.12.86-1.62 3.88-1 5.34 2.5 6.15 2.26 10.86-1.35 13.6-3.94 3-11.07 2.75-14.4-.5a11.74 11.74 0 0 1-1-15.15c5.75-8.14 14.5-11.14 23.75-11.87a62.5 62.5 0 0 1 19.69 1.83c10.13 2.58 15.29 10.19 15.37 20.68.09 11.33 0 22.65 0 34 0 1.49-.21 3.14.34 4.43.49 1.13 1.93 1.86 2.94 2.77.7-1 1.93-1.92 2-2.93.24-3.79.09-7.6.09-11.45 4.63-1.32 7.3-.72 9.69 3.61 7.39 13.39 21.72 19.4 36 15.74a19.18 19.18 0 0 0 4.58-1.87c3.47-1.94 5.52-4.85 5-9-.52-4.15-3.33-6.07-7-6.87-7-1.51-14.1-2.43-21-4.3a64.39 64.39 0 0 1-14.57-5.91c-16.26-9.18-11.95-29.36.92-36.81 11.1-6.43 22.64-5.9 34-.84 3.23 1.43 5.57 2 8.44-.65 1.36-1.27 3.77-1.43 6.31-2.29v23c-3.95 1.88-5.55-.86-7.06-3.45-6.07-10.45-15.26-14.33-27-12.94a29.78 29.78 0 0 0-4.87 1c-4.13 1.2-7.48 3.64-7.67 8.14-.19 4.5 3.41 6.84 7.19 7.84 7.19 2 14.55 3.28 21.82 5 7.27 1.72 14.12 3.76 19.29 9.6 9.33 10.53 7.13 25.73-4.88 33-13.81 8.4-35.55 6.43-47.7-4.32l-2.82-2.51c-2.65 7.55-7.61 11.33-15.42 11.46-8.54.13-13.6-4.39-16.9-12.15-2.54 2.15-4.86 4.15-7.21 6.09-7.85 6.49-17 7.4-26.43 5.36-7.43-1.61-12.39-6.4-13.74-14.13-1.35-7.73 1-14.92 7.94-18.47 8.76-4.49 18.32-7.49 27.64-10.83 3.38-1.22 7.07-1.57 11.11-2.41zm.08 7.88l-1.48-1.64c-6.31 2.67-13 4.75-18.84 8.19-5.13 3-5.54 8.75-4.48 14.3.76 4 3.23 6.63 7.24 7.28 5.45.88 9.87-1.42 13-5.69a18.46 18.46 0 0 0 3.28-7.64c.8-4.88.89-9.86 1.28-14.8z" fill="#FFF"/></g></svg>