<svg width="266" height="267" xmlns="http://www.w3.org/2000/svg"><g fill="none" fill-rule="evenodd"><circle fill="#F1B74B" cx="133.11" cy="133.5" r="132.61"/><path d="M133.46 241.3c-60.35.04-108.56-47.92-108.56-108.05 0-60.65 47.55-108.3 108.08-108.31 60.53-.01 108.4 47.8 108.34 108.14-.05 60.13-47.94 108.17-107.86 108.22z" fill="#16437B" fill-rule="nonzero"/><path d="M101.11 163.2a28.63 28.63 0 0 1 0 5c-1.42 8 1.35 15.34 5 22 2.95 5.38 6.89 11.44 12 14.07 5.11 2.63 7.78 7.18 11.85 10.47 2.63 2.13 4.48 2.41 6.67-.13a3.66 3.66 0 0 1 .75-.66c4-2.73 5.27-8.39 11.25-9.34 2.44-.39 3.92-4.27 5.52-6.82 3-4.73 5.78-5.08 9.53-1.3 2.23 2.25 4.58 4.41 6.57 6.85 7.19 8.8 3.63 21.07-7.06 24.72-56.38 19.14-120.18-20.69-128.08-79.91a102.51 102.51 0 0 1 3.14-43.51c3.73-12.48 16.86-16.17 26.32-7.11 11 10.48 21.53 21.36 32.26 32.07.95.94 1.94 1.85 1.95 3.35-.01 10.13 4.13 19.96 2.33 30.25zm131.34-27.06a91.324 91.324 0 0 1-4.34 26.48c-3.52 11.34-16.37 15.46-25 7.42-11.58-10.76-22.56-22.17-33.7-33.4-2.64-2.66-2.47-8.78.41-11 3.31-2.52 2.09-5.47 1.09-8.1-1.63-4.26-.34-6.7 3.35-9.06 7.84-5 10.29-12.71 9.48-21.64-.21-2.31-.79-4.59-1.15-6.89-1-6.22 1.12-11 6.87-13.54 4.18-1.87 2.63-3.13.24-4.88-9.37-6.86-24.17-2.12-28.56 9.32-1.13 2.92-1.45 6.14-2.29 9.18-1.24 4.54-3.69 5.15-6.92 1.81a19.52 19.52 0 0 0-1.73-1.79c-15.58-12.73-17.75-12.87-32.79-.81-2.3 1.84-3.48 2.37-5.54 0-2.57-3-5.62-5.48-7-9.53a14 14 0 0 0-7.95-8.58c-3.23-1.34-4-3.68-4.18-6.65-.61-8 3.76-13.79 12.35-16.36 42.523-12.579 88.233 4.562 112 42 10.27 16.32 15.43 34.15 15.36 56.02z" fill="#FEFEFE" fill-rule="nonzero"/><path d="M113.11 105.08c-2.93 3.47-6.34 3.47-10.29 1.78-7.47-3.21-11.67-8.63-12-16.83a35.89 35.89 0 0 1 .33-8c1.35-7 .82-13.22-6.43-17.67 9.09.28 12.78 1 14.82 10.16a27.21 27.21 0 0 1 .07 9.44c-.65 5.17.68 9.54 5 12.75 1.25-1.41-.63-2.81.28-4.75 6.06 4.11 11.16 2.72 16-2.49a27.09 27.09 0 0 1 11.44-6.9c1.49 1.23.81 2.83.82 4.19.06 12.65-.18 25.32.15 38 .11 4.51-1.37 5.15-5.37 4.61a61.79 61.79 0 0 1-21.23-6.89c-2.74-1.46-4.13-3.06-2.81-6.28.66-1.63.93-3.49-1.37-4.73 4.58.47 8.14 3.32 12.43 3.7 1.22 1 2.65-.31 3.9.36.28.13.58.24.87.37.52.24.57.24.12-.05-1-.6-2.11-.82-2.78-1.77a2 2 0 0 0-.42-.24c-4.55-1.4-6.1-3.81-2.68-7.91.7-.57.31-1.53.77-2.18a5.78 5.78 0 0 0 .29-.89c.09-.36.06-.3-.15.2a3.82 3.82 0 0 1-1.76 2.02z" fill="#F1B74B" fill-rule="nonzero"/><path d="M112.5 136.93c1.78 1.21 3.5 2.52 5.35 3.61 3.4 2 6.77 3.12 10.55.43 2.55-1.82 5.81-2.33 8.48-.49 6 4.13 10.56 1.08 15.19-2.34a33.7 33.7 0 0 0 2.93-2.69c-1.17-1.76-2.95-.53-4.41-.89-.94-.23-2.46.59-2.44-1.36a64.49 64.49 0 0 0 6.63-2.06c3.7-1.59 5-.63 4.52 3.4-.34 2.84-.56 5.89-2.37 8-4.89 5.67-5.46 13.3-9.83 19.77-4.62-4.59-8.82-10.75-16.94-8.37-.72-.33-1.49-1.52-2.06.15a49.65 49.65 0 0 0-8.76 8.39c-1.9-3.52-4.8-6.55-5-9.77-.5-7.16-8.21-11-7.43-18.63.32-3.17.51-4.67 4.08-3.09a60.84 60.84 0 0 0 7.1 2.2c-.72 2.59-2.82 1-4.26 1.36-1.44.36-1.54.24-1.33 2.38z" fill="#FDFDFE" fill-rule="nonzero"/><path d="M110.11 153.14c2 6.64 5.94 12.45 7.53 19.43.7 3.12 3.54 6.94 6.42 9.59 1.69 1.55 3.62-.29 5.23-1.05 1.23-.57 2.13-1.84 3.71-3.3v23.53a32.28 32.28 0 0 1-9.89-11.61c-1.39-2.86-2.32-2.29-3.86.66-1.3-7.62-7.93-11.77-8.63-19.54-.33-3.69-1.12-7.78-1.64-11.7.13-2.07-1.87-4.47 1.13-6.01z" fill="#F0B64B" fill-rule="nonzero"/><path d="M125.88 178.66c-5-10.81-3.8-12.84 6.87-13.13.83 0 1.66 0 2.49.07 9.76.72 10.93 3.11 5.43 12.66-.15-3.8-10.66-2.15-2.82-9a21.16 21.16 0 0 0-8.93-.06c8.01 7.29-3.09 5.16-3.04 9.46z" fill="#F8F9FA" fill-rule="nonzero"/><path d="M159.11 93.08c5.29-2.17 6.42-6.52 6.42-11.7 0-6.83.78-13.42 8.36-16.47.91-.22 2-1 2 .9-5.24 3.52-5.93 8.78-5.54 14.45.37 5.37 0 10.6-3.21 15.17-.81 1.14-1.6 3-3.28 2.49-1.86-.58.31-1.83 0-2.83-.5-1.79-1.81-.8-2.81-.87-.94.3-2.1.8-1.94-1.14z" fill="#F7F9FA" fill-rule="nonzero"/><path d="M112.5 136.93c-2.28-1.71-1.42-2.51.84-2.9 1.58-.27 3.36.61 4.73-.85l12.7 1.87c-3.45 2.75-6.44 2.38-9.48 1.26a20.94 20.94 0 0 0-7.25-1.44c-1.5-.01-2.17.51-1.54 2.06z" fill="#E2E7EE" fill-rule="nonzero"/><path d="M148.11 133.2c1.81 2.2 5.35-.88 6.85 2.25-3.5-1.31-6.79-.24-10 .9-3.05 1.06-6 1.39-9.44-1.29l12.59-1.86z" fill="#E4E9EF" fill-rule="nonzero"/><path d="M125.53 159.57c2.14-1.82 3.52-3.24 5.62-2 .443.381.731.911.81 1.49-1.71 1.51-3.64 1.27-6.43.51z" fill="#EBEEF3" fill-rule="nonzero"/><path d="M110.11 153.14c-1.91 1.72-.25 4.09-1.09 6-1.33-2.07-.66-4.42-.86-6.63-.06-.62-.36-1.9 1-1.45.84.28.95 1.22.95 2.08z" fill="#7E7A64" fill-rule="nonzero"/><path d="M176.03 63.9c1.1-1 2.45-.85 3.76-.8.77 0 2 0 1.74 1.13s-1.57.83-2.53.78c-.78-.93-2.35.24-2.97-1.11z" fill="#53749D" fill-rule="nonzero"/><path d="M118.96 116.33c-1.36-.23-2.84-.06-3.95-1.17.78-.22 1.71-.14 2.11-1.09l3.74 1.24c.16 1.77-1.02 1.14-1.9 1.02z" fill="#57656C" fill-rule="nonzero"/><path d="M128.11 154.08c-1-.48-2.52-1.36-1.33-2.16s3.05-.05 3.39 2l-2.06.16z" fill="#C5D0DE" fill-rule="nonzero"/><path d="M159.11 93.08c.2 1.21 1.33.78 2 1.14-1.39 1-3.1 1.69-4.13.06-.45-.74 1.13-1.2 2.13-1.2z" fill="#6582A7" fill-rule="nonzero"/><path d="M176.03 63.9c1 .32 2.34-.23 3 1.11l-3 .83-2-.9 2-1.04z" fill="#BDC9D9" fill-rule="nonzero"/><path d="M113.11 105.08c.41-.93.81-1.85 1.21-2.78 1.83-.1 1.22.92.85 1.83l-1.15 1.79-.91-.84z" fill="#204879" fill-rule="nonzero"/><path d="M118.96 116.33l1.9-1a2.83 2.83 0 0 1 2.39 1.38 3.93 3.93 0 0 1-4.29-.38z" fill="#98885E" fill-rule="nonzero"/><path d="M115.17 104.13l-.85-1.83a2.87 2.87 0 0 1 1.4-2.45 3.47 3.47 0 0 1-.55 4.28z" fill="#7B7864" fill-rule="nonzero"/></g></svg>