<svg width="176" height="20" xmlns="http://www.w3.org/2000/svg"><path d="M120.82.87v17.8h-3.36v-1.66c-.88 1.49-2.4 2.01-3.82 2.01-3.86 0-5.47-3.47-5.47-7.09 0-4.56 2.54-6.79 5.39-6.79 2.21 0 3.24 1.22 3.77 2.06l.05-6.32h3.44V.87zm-9.13 11.31c0 1.56.61 3.99 2.82 3.99 2.18 0 3.04-1.83 3.04-3.79 0-2.1-.58-4.24-2.94-4.24-2.19 0-2.92 1.96-2.92 4.04zM3.18 2.93v6.04h5.5c1.74 0 3.57-.45 3.57-3.07 0-2.75-1.98-2.97-3.15-2.97H3.18zm0 8.1v7.64H.8V.87h8.12c2.88 0 5.77 1.01 5.77 4.78 0 2.62-1.32 3.59-2.43 4.26 1 .42 2.01.87 2.1 3.35l.15 3.23c.02.99.15 1.36.88 1.78v.4h-2.91c-.34-1.09-.42-3.8-.42-4.47 0-1.47-.29-3.18-3.14-3.18H3.18v.01zm15.68.15h7.12c-.12-2.02-.95-3.89-3.57-3.89-1.99 0-3.55 1.87-3.55 3.89zm7.02 3.44h2.14c-.07.62-.66 2.45-2.27 3.54-.59.4-1.42.9-3.47.9-3.6 0-5.73-2.75-5.73-6.49 0-4.03 1.91-7.22 6.14-7.22 3.7 0 5.5 2.97 5.5 7.57h-9.34c0 2.7 1.25 4.26 3.72 4.26 2.04-.01 3.23-1.6 3.31-2.56zm11.95-.43v-2.14c-.34.27-.88.47-3.54.82-1.05.15-2.74.47-2.74 2.11 0 1.41.71 2.26 2.32 2.26 2 0 3.96-1.31 3.96-3.05zm-5.91-4.54h-1.97c.1-3.1 2.12-4.31 5.28-4.31 1.03 0 4.74.3 4.74 3.61v7.47c0 .55.27.77.71.77.2 0 .46-.05.71-.1v1.58c-.37.1-.69.25-1.17.25-1.9 0-2.2-.99-2.27-1.98-.83.92-2.13 2.11-4.62 2.11-2.35 0-4.01-1.51-4.01-3.74 0-1.09.32-3.63 3.88-4.07l3.55-.45c.52-.05 1.13-.25 1.13-1.54 0-1.36-.98-2.11-3.01-2.11-2.46 0-2.8 1.51-2.95 2.51zM45.08.87v17.8h-2.14V.87h2.14zm20.89 17.81h-3.43v-8c0-1.96-.85-2.6-1.86-2.6-1.71 0-2.31 1.14-2.31 2.7v7.91h-3.43v-7.93c0-1.11 0-2.68-2.05-2.68-1.61 0-2.12 1.14-2.12 2.58v8.03h-3.43V5.49h3.28v1.93c.49-.87 1.44-2.28 3.73-2.28 1.88 0 2.74.7 3.62 2.11.44-.65 1.39-2.11 3.47-2.11 2.54 0 4.52 1.51 4.52 4.42v9.12h.01zm9.33-4.74v-1.68c-.35.27-.91.5-2.33.71-1.27.22-2.32.55-2.32 1.98 0 1.22.93 1.59 1.59 1.59 1.52 0 3.06-.99 3.06-2.6zm3.35-4.98v7.14c0 1.56.34 1.91.76 2.06v.52h-3.7c-.2-.62-.24-.82-.32-1.56-.78.82-1.88 1.91-4.21 1.91-1.96 0-3.97-1.12-3.97-3.85 0-2.58 1.62-3.89 3.8-4.21l3.08-.47c.54-.07 1.2-.3 1.2-1.04 0-1.46-1.37-1.54-2.26-1.54-1.71 0-2.01 1.07-2.1 1.83h-3.31c.39-4.04 3.16-4.61 5.83-4.61 1.85 0 5.2.57 5.2 3.82zm4.79 3.22c0 1.56.61 3.99 2.82 3.99 2.18 0 3.04-1.83 3.04-3.79 0-2.1-.59-4.24-2.94-4.24-2.18 0-2.92 1.96-2.92 4.04zM92.58.87v17.8h-3.35v-1.66c-.88 1.49-2.4 2.01-3.82 2.01-3.86 0-5.47-3.47-5.47-7.09 0-4.56 2.53-6.79 5.39-6.79 2.21 0 3.23 1.22 3.77 2.06l.05-6.32h3.43V.87zm2.03 4.62h3.28v2.28c.76-1.34 1.54-2.63 3.62-2.63.22 0 .44.02.66.05v3.54c-.29-.05-.66-.05-.98-.05-2.67 0-3.16 1.68-3.16 3.14v6.86H94.6V5.49h.01zm12.06 0v13.19h-3.43V5.49h3.43zm0-4.79v3.23h-3.43V.7h3.43zm18.466 15.139h2.552V18.5h-2.552v-2.661zM136.6 5.048c1.473 0 2.67.358 3.595 1.074.923.716 1.479 1.95 1.666 3.699h-2.136c-.13-.806-.428-1.475-.891-2.008-.464-.533-1.209-.8-2.234-.8-1.4 0-2.401.684-3.003 2.051-.39.887-.586 1.982-.586 3.284 0 1.31.276 2.413.83 3.308.553.895 1.424 1.343 2.612 1.343.912 0 1.634-.28 2.167-.837.533-.557.901-1.32 1.105-2.288h2.136c-.244 1.733-.855 3-1.831 3.802-.977.802-2.226 1.202-3.748 1.202-1.709 0-3.072-.624-4.09-1.873-1.016-1.25-1.525-2.81-1.525-4.682 0-2.295.557-4.081 1.672-5.359 1.115-1.277 2.535-1.916 4.26-1.916zm12.646 12.036c1.457 0 2.456-.551 2.997-1.654.541-1.103.812-2.33.812-3.68 0-1.221-.196-2.214-.586-2.979-.619-1.204-1.685-1.807-3.198-1.807-1.343 0-2.32.513-2.93 1.538-.61 1.026-.916 2.263-.916 3.711 0 1.392.305 2.552.916 3.48.61.927 1.579 1.391 2.905 1.391zm.086-12.036c1.684 0 3.108.561 4.272 1.684 1.164 1.123 1.746 2.775 1.746 4.956 0 2.108-.513 3.85-1.538 5.225-1.026 1.375-2.617 2.063-4.773 2.063-1.799 0-3.227-.608-4.285-1.825-1.058-1.217-1.587-2.85-1.587-4.901 0-2.197.557-3.947 1.672-5.249 1.115-1.302 2.613-1.953 4.493-1.953zm8.63.378h2.173v1.856c.52-.643.993-1.111 1.416-1.404.724-.496 1.546-.745 2.466-.745 1.041 0 1.88.257 2.514.77.358.292.684.724.977 1.293.488-.7 1.062-1.218 1.721-1.556.66-.338 1.4-.507 2.222-.507 1.758 0 2.954.635 3.589 1.905.341.683.512 1.603.512 2.758V18.5h-2.282V9.418c0-.87-.218-1.469-.654-1.794-.435-.326-.966-.489-1.593-.489-.862 0-1.605.29-2.227.867-.623.578-.934 1.542-.934 2.893V18.5h-2.234V9.967c0-.887-.106-1.534-.317-1.94-.334-.611-.957-.916-1.868-.916-.83 0-1.585.321-2.265.964-.679.643-1.019 1.807-1.019 3.491V18.5h-2.197V5.426z" fill="#004996"/></svg>