<svg width="32" height="32" xmlns="http://www.w3.org/2000/svg"><g fill="#2A6CB2"><path d="M16 32c8.837 0 16-7.163 16-16S24.837 0 16 0 0 7.163 0 16s7.163 16 16 16zm0-.97C7.699 31.03.97 24.301.97 16 .97 7.699 7.699.97 16 .97 24.301.97 31.03 7.699 31.03 16c0 8.301-6.729 15.03-15.03 15.03z"/><path d="M20.25 8.003L18.192 8c-2.31 0-3.802 1.532-3.802 3.902v1.8h-2.068a.323.323 0 0 0-.323.323v2.606c0 .179.145.324.323.324h2.068v6.577c0 .179.144.323.323.323h2.697a.323.323 0 0 0 .323-.323v-6.577h2.418a.323.323 0 0 0 .323-.324v-2.606a.324.324 0 0 0-.323-.324h-2.418v-1.525c0-.733.175-1.105 1.13-1.105h1.385a.323.323 0 0 0 .323-.324v-2.42a.323.323 0 0 0-.323-.324z"/></g></svg>