<svg width="20" height="33" xmlns="http://www.w3.org/2000/svg"><path d="M18.29 31.36s.124-.294.14-.364c.019-.07-.247-1.541-.247-1.541a.244.244 0 0 0-.1-.01v-4.821h.006l-.006-.012v-.03h-.016l-1.608-2.884h-2.59a.857.857 0 0 0-.413-.234c.931-1.11.26-2.034-.249-2.502a3.148 3.148 0 0 0-.42-.339h-.093c-2.097-.252-1.665-2.555-1.665-2.555h-.074c.618-.19.818-.576.818-.989.067-.022 1.012-.34-.178-.77-.183-.441-.443-.786-.443-.786l-.552-.008c3.363-.235 4.751-1.438 5.314-2.506 2.183-2.074 3.235-2.079 3.357-2.248.089-1.264-1.274-1.04-1.274-1.04l-1.77 1.3c.01-.01.007.03-.005.1-.258-.533-.92-.884-.96-.905-.004-1.458-.161-5.568 2.31-7.652C17.064.518 2.118.474 2.073.518c0 0 2.73 2.14 2.367 7.741h-.007s-.568.08-.997.827c-.008-.05-.01-.073 0-.065l-1.77-1.3S.302 7.498.39 8.762c.125.174 1.22.174 3.505 2.39.004.011.004 0-.002-.029 1.017 1.82 3.417 2.233 4.872 2.37l-.18-.003s-.27.368-.454.833c0 0 .002 0 0 .002v.003c-.024.007-1.151.4-.163.731-.004.412.178.797.756.994h-.086s.347 2.56-1.664 2.562c-.166.002.015.003.398.008h-.42s-.19.11-.417.314c-.52.457-1.243 1.392-.28 2.511a.865.865 0 0 0-.494.25H3.199l-1.565 2.885h-.001v.002l-.003.006h.003v4.856a.302.302 0 0 0-.127.009s-.266 1.472-.248 1.541c.019.07.142.365.142.365s-1.345.207-1.133.865c.237.327 1.08.33 1.292.173a15.085 15.085 0 0 1 1.852-1.506h12.867c.297.203 1.065.75 1.852 1.506.213.157 1.055.154 1.292-.173.212-.658-1.132-.865-1.132-.865" fill="#25241F" fill-rule="evenodd"/></svg>