<svg width="15" height="33" xmlns="http://www.w3.org/2000/svg"><path d="M1.979.817C3.697.486 10.133.464 12.235.819c.329.047.625.6-.213 1.008a1.993 1.993 0 0 1-.226.095l.045-.017a3.18 3.18 0 0 1-.203.07 26.12 26.12 0 0 0-.046-.005c.4.258.33 1.461-.19 1.463a86.54 86.54 0 0 1-1.87-.005l-.005.049a6.815 6.815 0 0 0-.06.874c.223-.346 1.8-.544 1.943-.324l.01-.013-.004.011c.248-.066.67.006.845.183l-.008-.006.01-.009-.007.012c.194-.036.615.203.677.358l.008.044h.003l.012-.01-.01.01c.202.012.49.468.45.656V5.26l.015-.007-.016.009c.175.09.26.624.165.807l.002.001.014-.003-.013.005c.102.136.111.598.015.72l-.001.017h.002c-.019.323.04.698-.06 2.121.36.54.397 1.294.502 2.163.239 7.359-.631 10.337-4.39 15.003.003.453-.037.756-.096.978l.023-.02c.235 0 .388.002.417.004.112.122.091.466.033.927l.001-.006.022.196c.143.82.843 1.323 1.065 1.618l.2-.029v.333l-.002.26.138.06c.902.457.591 1.446.966 1.646-5.131.524-4.809.513-10.195-.038.375-.214.122-1.15 1.371-1.648l.001-.622.218.019-.014.01c.37-.287.747-.95.952-1.633l.05-.18c-.08-.409-.092-.78 0-.88a7.52 7.52 0 0 1 .408-.01c-.053-.234-.136-.6-.123-1.002C1.622 21.99-.08 19.76.025 11.054c.057-.42.147-1.349.71-2.078v.002C.634 7.548.647 7.139.63 6.814H.628a.048.048 0 0 0 .001-.017c-.096-.122-.087-.586.015-.722L.63 6.07l.014.004.001-.002c-.094-.183-.01-.718.163-.81l-.014-.008.015.007-.002-.063c.02-.211.268-.581.45-.594l-.01-.01.013.01h.003c-.017-.148.47-.443.677-.4l.002-.003-.004-.012.008.009.07-.056c.2-.131.55-.179.765-.121l-.004-.011.01.012h.001c.139-.216 1.656-.029 1.924.306l.008.015a5.286 5.286 0 0 0-.088-.899 32.78 32.78 0 0 1-1.922-.016c-.5-.005-.566-1.196-.254-1.435l.057-.03a7.382 7.382 0 0 0-.027.003 2.993 2.993 0 0 1-.373-.138C1.266 1.43 1.604.873 1.98.817zm-.2 7.375l-.005.006.013-.005H1.78zM3.35 4.738l.002.012-.008-.01-.029.016a3.14 3.14 0 0 1-.705.108l-.009.01a.15.15 0 0 1 .002.002L2.6 4.873l-.034.034c-.135.113-.458.311-.572.307l-.005.02c.003.003.001.003 0 .002l.005-.022c-.002.116-.22.541-.298.592h-.002l-.003.003c.05.208.043.544-.018.742.005.005.002.005 0 .005H1.67c.073.147.083.56.052.692v.01l.001.002-.001-.012c.032.364.08.82.088.907l-.1.03c.672-.223 2.207-.39 2.68-.881l.03.015c-.143-.018-.031-.429.072-.44.074-.504.128-.932.166-1.303l.008.015c-.188-.286-.434-.595-.707-.724-.226-.111-.532-.1-.61-.13zm7.496.002c-.078.03-.385.018-.612.129-.274.128-.52.436-.71.721l.01-.017c.04.373.095.801.172 1.303.086.012.164.352.087.433l-.05-.053c.34.414 1.034.602 1.85.755l.17.03c.162.021.311.047.449.078l.179.031c.007-.067.056-.536.089-.908v.012h-.003l.001-.001.002-.01a1.76 1.76 0 0 1 .02-.598l.032-.093V6.55l-.01.002a1.81 1.81 0 0 1-.01-.744.041.041 0 0 1-.004-.002l-.01.001c-.07-.053-.288-.477-.29-.593l.006.023-.005-.023c-.13.006-.536-.253-.62-.349l.01.009c-.002.003-.001.001 0 0l-.01-.009c-.097.013-.694-.073-.743-.125l.004.002-.006.01z" fill="#FFF" fill-rule="evenodd"/></svg>