<svg width="44" height="48" xmlns="http://www.w3.org/2000/svg"><path d="M30.606 20.625c0-1.036-.84-1.875-1.875-1.875H9.418a1.875 1.875 0 1 0 0 3.75h19.313c1.035 0 1.875-.84 1.875-1.875zM9.418 26.25a1.875 1.875 0 1 0 0 3.75h11.73a1.875 1.875 0 1 0 0-3.75H9.417z"/><path d="M13.824 44.25h-6.27a3.754 3.754 0 0 1-3.75-3.75v-33a3.754 3.754 0 0 1 3.75-3.75h23.052a3.754 3.754 0 0 1 3.75 3.75v11.531a1.875 1.875 0 1 0 3.75 0V7.5c0-4.136-3.365-7.5-7.5-7.5H7.553c-4.135 0-7.5 3.365-7.5 7.5v33c0 4.136 3.365 7.5 7.5 7.5h6.271a1.875 1.875 0 1 0 0-3.75z"/><path d="M41.427 27.147a5.63 5.63 0 0 0-7.954-.001L23.18 37.417c-.218.218-.38.487-.47.782l-2.241 7.38a1.875 1.875 0 0 0 2.294 2.353l7.568-2.096c.312-.087.596-.252.824-.48l10.273-10.254a5.631 5.631 0 0 0 0-7.955zM28.854 42.353l-3.807 1.055 1.114-3.668 6.946-6.93 2.652 2.651-6.905 6.892zm9.922-9.903l-.363.362-2.652-2.651.362-.362a1.877 1.877 0 0 1 2.652 0c.731.731.731 1.92.001 2.65zM28.73 11.25H9.419a1.875 1.875 0 1 0 0 3.75h19.313a1.875 1.875 0 1 0 0-3.75z"/></svg>