<svg width="30" height="33" xmlns="http://www.w3.org/2000/svg"><g fill="#25241F"><path d="M24.77 27.267h-2.363V13.564a8.387 8.387 0 0 0 1.205-4.349c0-4.743-3.878-8.564-8.678-8.564-4.781 0-8.678 3.82-8.678 8.545 0 1.6.433 3.088 1.205 4.349v13.722H5.118L.6 32.142h28.668l-4.499-4.875zm-13.789 0h-2.41V15.013c.678.734 1.507 1.336 2.41 1.807v10.447zm3.219 0h-2.616V17.084a8.596 8.596 0 0 0 2.616.62v9.563zm4.085 0h-2.617v-9.543a9.325 9.325 0 0 0 2.617-.622v10.165zm3.011 0h-2.409V16.801a8.702 8.702 0 0 0 2.41-1.807v12.273zm.829-17.205c.019.15.019.302.037.433l.02.433.018.452v.659c0 .075 0 .15-.019.226l-.019.226c0 .075 0 .15-.018.225l-.076.452v.038l-.037.038a4.598 4.598 0 0 1-.34.3c-.112.095-.244.189-.357.302-.113.094-.245.188-.358.282-.131.094-.244.188-.376.264-.056.037-.132.075-.188.132-.057.037-.132.075-.188.112-.076.038-.132.076-.208.113l-.207.113c-.075.038-.15.076-.207.094-.075.038-.15.057-.207.095-.075.037-.15.056-.226.094l-.225.075-.076.019c-.037.075-.075.188-.132.32a4.036 4.036 0 0 1-.62.941c-.057.075-.132.15-.208.226-.075.075-.15.132-.207.207a2.06 2.06 0 0 0-.207.188c-.075.057-.132.113-.207.15-.132.095-.245.151-.32.189a1.12 1.12 0 0 1-.132.056s.038-.037.094-.112c.038-.038.057-.076.113-.113.038-.038.076-.095.132-.151a.707.707 0 0 0 .15-.188 2 2 0 0 0 .17-.207c.057-.076.132-.15.188-.226.057-.075.132-.15.189-.226.131-.15.244-.301.376-.452.113-.15.226-.282.32-.395.094-.113.17-.207.226-.282l-.019-.02-.452-.658-.47-.659c-.15-.207-.32-.433-.47-.64-.076-.113-.17-.207-.246-.32-.037-.056-.094-.094-.131-.15-.038-.057-.094-.095-.15-.151 0 0-.057.019-.17.038a6.534 6.534 0 0 1-.47.056c-.095.019-.208.019-.302.019-.113 0-.226 0-.339.019h-.376c-.094 0-.189 0-.283-.02-.094 0-.188.02-.282.02h-.377c-.112 0-.244 0-.338-.02-.113 0-.207-.018-.302-.018a5.78 5.78 0 0 1-.451-.056c-.113-.02-.17-.038-.17-.038a.943.943 0 0 0-.131.15c-.038.057-.095.095-.132.151-.094.094-.17.207-.245.32-.17.207-.32.433-.47.64l-.471.659-.452.659-.019.019c.057.075.132.169.245.282.094.113.207.245.32.395.113.15.245.301.376.452.057.075.132.15.189.226.056.075.131.15.188.226.056.075.113.131.17.207.056.056.112.132.169.188.056.056.094.113.132.15.037.038.075.095.112.114.057.075.095.112.095.112s-.057-.018-.132-.056c-.075-.038-.188-.094-.32-.188a5.232 5.232 0 0 1-.207-.15.985.985 0 0 1-.207-.19 1.079 1.079 0 0 1-.207-.206c-.076-.075-.132-.15-.207-.226-.264-.32-.49-.659-.603-.941-.056-.132-.113-.245-.132-.32l-.075-.019-.263-.094a1.151 1.151 0 0 1-.226-.094.696.696 0 0 1-.207-.094c-.076-.038-.15-.057-.207-.094l-.207-.113c-.076-.038-.132-.076-.207-.113-.076-.038-.132-.076-.208-.113-.056-.038-.131-.076-.188-.132-.132-.094-.244-.17-.376-.264s-.245-.188-.377-.282c-.113-.094-.244-.188-.357-.301-.113-.094-.226-.207-.34-.301l-.037-.038v-.038l-.075-.451c-.019-.076-.019-.15-.019-.226l-.019-.226v-.885l.02-.433.018-.433c0-.15.019-.3.038-.433.018-.113.018-.207.037-.32h-.037l-.038-.056c-.075-.113-.15-.207-.207-.32l-.094-.17-.076-.15a.669.669 0 0 1-.075-.17l-.075-.169-.057-.17-.056-.169a2.37 2.37 0 0 1-.057-.188c-.018-.056-.037-.113-.037-.188l-.038-.188-.038-.189c-.018-.131-.037-.244-.037-.376 0-.057-.019-.132-.019-.188v-.227l.075-.225c.02-.075.057-.15.076-.226l.094-.226.094-.226.113-.226.113-.207c.075-.132.15-.282.244-.414.038-.075.095-.132.132-.207.038-.056.094-.132.132-.207l.132-.188.15-.188c.094-.132.207-.245.301-.377.113-.113.208-.245.34-.358l.018-.018h.019l.358-.132.169-.057.188-.037a.55.55 0 0 1 .17-.038l.188-.038c.113-.018.245-.037.358-.056l.357-.057c.113-.018.245-.018.358-.037.188-.019.395-.038.583-.038l-.018-.056.056-.057c.113-.113.226-.207.339-.3.113-.095.226-.19.357-.283.057-.038.113-.094.189-.132.056-.038.113-.094.188-.132.056-.037.132-.094.188-.132.057-.037.132-.075.188-.113l.189-.112a.696.696 0 0 1 .207-.095c.075-.037.131-.075.207-.094.075-.037.132-.056.207-.094l.207-.075c.075-.019.15-.038.207-.057l.226-.056.188-.038c.057-.17.113-.32.188-.49-.019.19-.056.359-.094.547v.019l-.037.018-.208.076c-.094.019-.15.056-.225.075-.076.038-.132.056-.207.094l-.189.094a.88.88 0 0 1-.188.094c-.056.038-.132.076-.188.113-.057.038-.132.076-.188.113l-.189.113c-.113.075-.226.15-.338.245-.057.038-.113.075-.17.132-.056.037-.113.094-.17.131l-.338.283c-.094.075-.188.15-.264.226 0 .018.02.056.02.075.018.056.018.113.037.17l.056.169.057.17c.075.206.17.432.263.64l.264.64c.094.225.188.432.263.658 0 0 .057-.038.15-.075.057-.02.114-.038.19-.076.074-.018.15-.056.244-.075.094-.019.188-.038.301-.056.057-.02.113-.02.17-.038.056 0 .112-.019.169-.019.113-.019.245-.019.358-.037.112-.02.244 0 .376-.02h.226c.132 0 .245 0 .376.02.132.018.245.018.358.037.056 0 .113.019.17.019.056.019.112.019.169.038.113.018.207.037.301.056.094.019.17.057.245.075a.564.564 0 0 1 .188.076c.113.037.15.075.15.075.095-.226.17-.433.264-.659l.264-.64c.094-.207.169-.433.263-.64l.057-.17.056-.169a.55.55 0 0 0 .038-.17c0-.037.019-.056.019-.074-.095-.076-.17-.15-.264-.226l-.339-.283c-.056-.037-.113-.094-.17-.131-.056-.038-.112-.094-.169-.132-.113-.075-.226-.17-.357-.245l-.189-.113c-.056-.037-.131-.075-.188-.113-.056-.037-.132-.075-.188-.113a.88.88 0 0 0-.188-.094l-.188-.094c-.057-.038-.132-.056-.208-.094-.075-.019-.131-.056-.207-.075l-.207-.076-.037-.018v-.02c-.038-.187-.057-.357-.094-.545.056.17.113.32.188.49l.188.037.226.056c.075.02.15.038.207.057l.207.075c.075.038.132.057.207.094.075.038.132.057.207.094.075.038.132.057.207.095l.188.112c.057.038.132.076.189.113.056.038.131.076.188.132.056.038.132.075.188.132.057.038.132.094.188.132.113.094.245.188.34.282.112.094.225.188.338.301l.057.057-.02.056c.189.019.396.019.584.038.113.019.245.019.358.037l.358.057c.112.019.244.038.357.056l.188.038c.057.019.113.038.189.038l.188.037c.056.02.113.02.188.057l.358.132h.019l.018.018c.113.113.226.226.34.358.112.113.206.245.3.377l.151.188.132.188c.037.056.094.132.132.207.037.075.094.132.131.207.094.132.17.282.245.414l.113.207.113.226.094.226.094.226c.038.075.057.15.075.226l.076.226v.226c0 .056-.02.131-.02.188-.018.132-.037.245-.056.376l-.037.189-.038.188a.557.557 0 0 0-.038.188c-.018.056-.037.113-.056.188l-.056.17-.057.17-.075.168c-.02.057-.057.113-.076.17l-.075.17-.094.169c-.056.113-.132.207-.207.32l-.038.056h-.037a.808.808 0 0 0 0 .301z"/><path d="M12.638 5.921c-.038.075-.094.132-.15.207-.057.076-.114.17-.17.264-.057.094-.113.188-.189.3-.056.095-.113.208-.188.32-.056.114-.132.227-.188.34-.057.113-.113.226-.188.339-.057.113-.113.225-.17.32-.113.207-.207.414-.3.583-.095.17-.17.32-.227.414-.056.094-.094.15-.094.15s0-.074.038-.169c.019-.113.056-.263.113-.451.019-.094.056-.189.094-.302.037-.112.075-.225.132-.338.037-.113.094-.226.15-.34.057-.112.113-.225.17-.357.075-.113.131-.226.207-.339.075-.113.131-.207.207-.32l.226-.282c.075-.094.15-.17.207-.226.075-.075.131-.132.207-.188.056-.057.113-.094.17-.132.093-.075.15-.113.15-.113A6.489 6.489 0 0 1 12.468 5l-.339-.621a6.662 6.662 0 0 1-.3-.64l-.076-.17-.057-.17-.056-.169a.669.669 0 0 1-.038-.188c-.075.019-.15.019-.226.038-.112.019-.244.037-.357.056l-.358.076-.357.075c-.113.019-.226.056-.358.075l-.17.075c-.056.02-.112.038-.169.057l-.17.056c-.056.02-.112.038-.169.057l-.3.132-.283.338c-.094.132-.189.245-.283.377l-.131.188-.132.188c-.038.057-.075.132-.132.189-.038.056-.075.131-.113.207-.038.075-.075.131-.113.207l-.113.207-.094.207c-.038.075-.075.132-.094.207l-.094.207-.075.226c-.057.132-.095.282-.151.414v.15c0 .057 0 .114.019.17.019.113.019.245.037.358l.02.17.037.168c.019.057.019.113.038.17.018.056.037.113.037.17.02.056.038.112.057.169l.056.17.057.169a.669.669 0 0 0 .075.169l.075.17.076.15c.037.094.094.17.15.245.226-.038.452-.057.678-.094.244-.038.508-.076.753-.095l1.524-.169s.038.056.113.15c.057.095.15.226.245.396.057.075.094.17.17.263.056.095.131.189.188.283.056.094.131.207.188.3.075.114.132.208.207.32.056.114.132.208.207.32.075.114.132.208.188.302.057.094.132.188.189.282.056.095.112.189.169.264.094.17.188.301.245.395.056.094.094.15.094.15s-.057-.037-.132-.112c-.038-.038-.094-.075-.15-.132l-.189-.188c-.075-.075-.132-.15-.207-.245-.075-.094-.15-.17-.226-.263a4.716 4.716 0 0 1-.226-.301 1.865 1.865 0 0 1-.207-.32c-.075-.113-.131-.226-.207-.32-.075-.113-.113-.226-.17-.34-.056-.112-.093-.206-.15-.32a1.101 1.101 0 0 1-.113-.282c-.075-.188-.113-.338-.15-.433l-.057-.169c-.49.113-.997.207-1.487.301-.245.038-.49.094-.753.15-.244.057-.508.095-.753.151h-.019l.057 1.638c0 .15.019.301.038.433l.018.226c0 .075.02.15.02.207l.018.207c0 .075.019.15.019.207l.075.376c.094.095.207.17.301.264.113.094.226.188.358.282.113.094.245.189.358.264.113.094.244.17.376.263.057.038.132.076.188.132.057.038.132.075.189.113.056.038.131.075.188.113l.188.113a.696.696 0 0 0 .207.094c.075.038.132.075.207.094.075.02.132.057.207.076l.132.037a11.3 11.3 0 0 1 .433-.565l.508-.62c.094-.095.17-.208.264-.302a3.77 3.77 0 0 0 .263-.301c.038-.057.094-.094.132-.15.038-.057.094-.095.15-.151.038-.038.095-.094.151-.132.057-.038.113-.075.17-.132 0 0 .056-.019.169-.019.113-.018.264-.037.452-.037.094-.02.207-.02.3-.038.114 0 .227-.019.34-.038.113 0 .244-.018.357-.018.095 0 .207-.02.302-.02.094 0 .207.02.3.02.133.018.245.018.358.018.113 0 .226.02.34.038.112 0 .206.019.3.038.189.019.358.037.452.037.113.02.17.02.17.02.056.037.113.075.169.131.056.038.113.094.15.132.057.037.095.094.151.15.038.057.094.094.132.15.094.095.188.208.263.302.095.094.17.207.264.301l.508.621c.15.189.283.377.433.565l.132-.037c.075-.02.132-.057.207-.076.075-.037.132-.056.207-.094.057-.038.132-.056.207-.094l.188-.113c.076-.038.132-.075.189-.113.056-.038.131-.075.188-.113.056-.037.132-.075.188-.132.132-.094.245-.169.377-.263.112-.094.244-.17.357-.264.113-.094.226-.188.358-.282l.32-.264.075-.376c.019-.075.019-.15.019-.207l.019-.207c0-.075.019-.15.019-.207l.018-.226c0-.15.02-.282.02-.433a24.22 24.22 0 0 0 .056-1.638h-.02c-.244-.037-.489-.094-.752-.15-.245-.057-.49-.094-.753-.15-.49-.095-.998-.19-1.487-.302l-.057.17c-.037.112-.075.263-.15.432l-.113.283a4.612 4.612 0 0 1-.15.32l-.17.339c-.075.112-.132.225-.207.32-.075.112-.132.225-.207.32-.075.112-.15.207-.226.3-.075.095-.15.189-.226.264-.075.094-.132.17-.207.245l-.188.188c-.057.057-.113.094-.15.132-.076.075-.133.113-.133.113s.038-.057.095-.15c.056-.095.131-.227.244-.396.057-.075.094-.17.17-.264.056-.094.131-.188.188-.282.056-.094.132-.207.207-.301.075-.113.132-.207.207-.32.075-.113.132-.207.207-.32.075-.094.132-.207.188-.301a3.86 3.86 0 0 1 .189-.283c.056-.094.112-.169.169-.263.094-.17.188-.301.245-.395a.851.851 0 0 1 .113-.151c.508.038 1.016.094 1.524.17.245.037.509.056.753.094.226.037.452.056.678.094.056-.076.094-.17.15-.245l.076-.15.075-.17c.019-.057.057-.113.075-.17l.057-.169.056-.17c.02-.056.038-.112.057-.169a.54.54 0 0 0 .037-.17c.02-.056.02-.112.038-.169l.038-.169.037-.17c.02-.112.038-.225.038-.357 0-.056.019-.113.019-.17V6.9c-.057-.132-.094-.282-.15-.414l-.095-.226-.094-.207c-.038-.075-.056-.15-.094-.207l-.094-.207-.113-.207c-.038-.076-.075-.132-.113-.207-.038-.076-.075-.132-.113-.207a.676.676 0 0 0-.132-.189l-.132-.188-.131-.188c-.094-.132-.189-.245-.283-.377l-.282-.338-.301-.132-.17-.057-.17-.056-.168-.057-.17-.037c-.113-.019-.226-.057-.358-.075l-.357-.076-.358-.075c-.113-.019-.245-.038-.357-.057-.076-.018-.151-.018-.226-.037-.02.056-.02.132-.038.188l-.056.17c-.02.056-.038.112-.057.169l-.075.17c-.094.225-.207.432-.301.64l-.34.62c-.112.208-.244.396-.376.603 0 0 .057.037.15.113.039.037.114.075.17.132.057.056.132.112.207.188.076.075.132.15.207.244l.226.283c.076.094.15.207.207.32.076.113.132.226.207.339.057.113.132.226.17.357.056.113.113.226.15.34.057.112.095.225.132.338.038.113.075.207.094.301.057.188.094.339.113.452.02.113.038.17.038.17s-.038-.057-.094-.151c-.057-.094-.132-.245-.226-.414-.094-.17-.188-.377-.301-.584-.057-.113-.113-.207-.17-.32a3.017 3.017 0 0 0-.188-.339c-.056-.113-.132-.226-.188-.339-.057-.113-.132-.207-.188-.32-.057-.094-.113-.207-.189-.3a3.211 3.211 0 0 0-.17-.264c-.056-.076-.112-.15-.15-.207-.037-.057-.094-.113-.113-.17a2.416 2.416 0 0 1-.113-.15s-.056 0-.169-.02c-.056 0-.113 0-.188-.018-.075 0-.17 0-.245-.019-.094 0-.188 0-.301-.019-.057 0-.113 0-.17-.018h-.169c-.113 0-.226 0-.358-.02h-.941c-.113 0-.244.02-.357.02h-.17a.55.55 0 0 0-.17.018c-.112 0-.206.02-.3.02s-.17.018-.245.018c-.075 0-.15 0-.188.019-.113 0-.17.019-.17.019s-.037.056-.113.15c-.15 0-.207.038-.244.113z"/></g></svg>