<svg width="68" height="68" xmlns="http://www.w3.org/2000/svg"><g fill="none"><path d="M68 34c0 18.778-15.222 34-34 34S0 52.778 0 34 15.222 0 34 0s34 15.222 34 34z" fill="#DBDBDB"/><path d="M50.983 45.656l-5.332-16.73a1.769 1.769 0 0 0-1.68-1.24h-5.628a5.089 5.089 0 0 0 .723-2.615c0-2.796-2.241-5.071-4.996-5.071-2.755 0-4.996 2.275-4.996 5.07 0 .958.268 1.851.724 2.616H24.17c-.766 0-1.444.501-1.68 1.24l-5.333 16.73c-.369 1.158.482 2.344 1.68 2.344h30.466c1.199 0 2.05-1.186 1.68-2.344zM31.43 25.07c0-1.479 1.185-2.681 2.641-2.681 1.457 0 2.642 1.202 2.642 2.68 0 1.281-.89 2.351-2.074 2.616h-1.136a2.674 2.674 0 0 1-2.073-2.615z" fill="#FFF"/></g></svg>