<svg width="15" height="33" xmlns="http://www.w3.org/2000/svg"><g fill="#25241F"><path d="M14.061 3.68c0-.01.01-.02.01-.03 0-.02-.01-.04-.03-.05L9.221.83c-.01-.01-.02-.01-.03-.01-.03 0-.06.02-.06.05-.25 1.05-2.5 11.27 1.12 23.46-1.31-7.99 1.82-16.75 3.81-20.65m-5.76 28.75c1.08-.08 2.12-.27 3.12-.56.02-.01.04-.03.04-.06 0-.01 0-.02-.01-.03-1.29-1.38-3.28-4.22-4.62-6.8.68 2.77 1.27 5.8 1.4 7.39.02.04.04.06.07.06"/><path d="M12.571 31.5C5.821 20.63 6.891 5.27 7.651.57c0-.04-.03-.07-.07-.07h-.02c-.86.35-6.83 2.74-7.47 3-.03.01-.05.03-.05.06v.02c1.22 5.51 4.31 18.57 12.53 27.92m-9.22.4v.01c0 .03.02.05.04.06 1.16.31 2.38.48 3.64.5.03 0 .06-.03.06-.06-.16-2.64-.77-8.09-3.01-12.9.73 4.88-.07 9.97-.73 12.39"/></g></svg>