<svg width="16" height="33" xmlns="http://www.w3.org/2000/svg"><path d="M15.123 8.95s.268-4.115-.41-1.955c0 0-.11-2.87-1.356-2.554-.11-1.104-.268-2.16-.504-3.137v-.016C12.853.847 10.55.5 7.698.5c-2.837 0-5.155.363-5.155.788v.016A26.1 26.1 0 0 0 2.04 4.44C.825 4.126.715 7.01.715 7.01.037 4.85.305 8.964.305 8.964c.063 6.447 3.373 10.703 4.225 12.343.835 1.64.583 2.932.52 3.358-.063.362-.899 2.695-1.167 3.42a1.87 1.87 0 0 0-.283.079c-.615.173-1.057.646-1.057 1.198 0 .032.016.079.048.095.047.078.189.157.394.236v.441c-.237.08-.379.174-.41.253a.224.224 0 0 0-.032.094c0 .41.19.788.505 1.04.016.048.063.111.157.158-.015.032-.031.048-.031.08 0 .393 2.033.724 4.524.724 2.506 0 4.524-.315 4.524-.725 0-.031-.016-.047-.031-.079.094-.047.142-.094.157-.157.3-.268.505-.63.505-1.04a.169.169 0 0 0-.032-.095c-.031-.095-.173-.174-.41-.253v-.44c.205-.08.347-.143.394-.237.032-.032.048-.063.048-.095 0-.552-.442-1.025-1.056-1.198-.08-.032-.174-.047-.284-.079-.268-.725-1.12-3.058-1.167-3.42-.063-.426-.315-1.719.52-3.358.883-1.655 4.21-5.911 4.257-12.359m-1.813 1.577c.094 1.15.126 4.445-2.207 7.298 1.072-1.765 1.876-4.335 2.207-7.298m-11.192 0c.347 2.979 1.135 5.533 2.207 7.298-2.333-2.869-2.302-6.148-2.207-7.298" fill="#FFF"/></svg>