<svg width="24" height="21" xmlns="http://www.w3.org/2000/svg"><path d="M22.376 4.288c-1.07-1.316-2.524-2.355-4.362-3.118C16.176.407 14.168.026 11.99.026c-2.176 0-4.183.381-6.02 1.144-1.838.763-3.292 1.802-4.363 3.118C.536 5.604 0 7.038 0 8.591c0 1.338.404 2.592 1.211 3.76.808 1.17 1.912 2.151 3.312 2.945a8.543 8.543 0 0 1-.348 1.017c-.133.321-.254.585-.36.79a5.432 5.432 0 0 1-.436.682 6.98 6.98 0 0 1-.415.529 213.316 213.316 0 0 0-.876.97.941.941 0 0 0-.107.121l-.094.113-.08.12c-.045.067-.065.11-.06.128a.356.356 0 0 1-.027.133c-.023.072-.02.125.006.161v.014a.682.682 0 0 0 .214.368c.107.093.228.14.362.14h.067a10.13 10.13 0 0 0 1.525-.295c2.338-.597 4.39-1.677 6.157-3.238a18.4 18.4 0 0 0 1.94.107c2.177 0 4.185-.382 6.023-1.145 1.837-.763 3.292-1.802 4.362-3.118 1.071-1.316 1.606-2.75 1.606-4.302 0-1.553-.535-2.987-1.606-4.303zm-1.505 7.716c-.933 1.052-2.19 1.889-3.774 2.509-1.584.62-3.286.93-5.106.93a15.11 15.11 0 0 1-1.74-.107l-.763-.08-.575.508a13.195 13.195 0 0 1-3.68 2.289 9.61 9.61 0 0 0 .936-2.302l.362-1.285-1.165-.669c-1.16-.66-2.058-1.443-2.696-2.349-.638-.905-.957-1.858-.957-2.857 0-1.222.466-2.36 1.398-3.413.933-1.052 2.19-1.889 3.775-2.509 1.583-.62 3.285-.93 5.105-.93 1.82 0 3.522.31 5.106.93 1.583.62 2.841 1.456 3.774 2.51.932 1.052 1.398 2.19 1.398 3.412s-.466 2.36-1.398 3.413z" fill="#E62644"/></svg>