<svg width="24" height="24" xmlns="http://www.w3.org/2000/svg"><path d="M8.517 4.6c-1.297.272-2.677.868-2.677.868.683-.954 2.07-2.123 2.07-2.123-.382-.735-.72-1.823-.72-1.823s1.605.09 2.86.508c0 0 2.134-1.199 4.344-1.236 0 0-1.611.954-2.296 1.842.182.098 1.47.493 2.474 1.1 0 0-1.814.052-3.48.285 0 0-.585.848-1.08 2.777-.001 0-.855-.964-1.495-2.197zm8.619 1.598c-1.098-1.253-2.564-2.463-2.564-2.463 1.348.02 3.35.835 3.35.835.39-.757.664-1.8.664-1.8s.766 1.328 1.113 2.796c0 0 1.59.976 2.79 2.608 0 0-1.252-.267-2.174-.263-.002.211.338 1.944.264 3.135 0 0-1.02-1.699-1.977-3.115 0 0-1.539.029-3.156.482 0 0 .906-1.072 1.69-2.215zm1.76 8.164c.81-1.4 1.684-3.315 1.684-3.315.267 1.28.291 2.914.291 2.914.804-.173 2.227-.873 2.227-.873s-.634 1.73-2.055 3.058c0 0 .144 1.036.16 2.405 0 0-1.004-.46-1.838-.972-.177.105-1.184.808-2.886 1.169 0 0 .72-1.154 1.317-2.28 0 0-1.186-.802-2.126-2.115 0 0 1.827.237 3.227.009z"/><path d="M13.166 11.505a37.024 37.024 0 0 0 2.504 2.848 22.765 22.765 0 0 1-3.734-.906 146.348 146.348 0 0 0-1.75 2.974s-.51-1.734-.597-3.703c0 0-1.035-.37-2.943-1.14 0 0 1.316-.838 2.909-1.295-.093-.188.15-2.528.456-3.485 0 0 .929 1.543 1.685 2.677 0 0 1.48-.514 3.751-1.062 0 0-1.243 1.616-2.281 3.092zM1.852 17.473a11.518 11.518 0 0 1-.35-.737c.022-.837.095-1.915.304-2.75 0 0-.599-.426-1.218-.98-.007-.096-.015-.193-.02-.29.356-.137 1.11-.41 1.77-.566.075-.197.485-1.553 1.278-2.488 0 0 .054.922.27 2.148 0 0 1.252-.29 2.76-.233 0 0-1.398 1.128-2.278 2.275.32 1.322.962 2.59.962 2.59a26.985 26.985 0 0 1-1.976-1.294c-.357.434-1.073 1.607-1.502 2.325zm7.987 6.003a9.295 9.295 0 0 1-.464-.098c-.524-.576-1.324-1.517-1.934-2.505 0 0-2.252-.186-3.838-.898 0 0 1.312-.253 2.753-1.015-.093-.188-.643-1.226-1.027-2.517 0 0 1.377 1.14 2.396 1.807 0 0 1.296-.765 2.46-1.829 0 0-.295 1.471-.458 3.15.752.441 1.511.87 2.276 1.288-1.175.176-2.331.139-2.331.139-.046.932.076 1.913.167 2.478zm9.795-3s-1.553.421-3.068.48c0 0-.012-1.06-.087-2.208 0 0-.805 1.17-1.855 2.296a29.187 29.187 0 0 1-2.621-.184c.473.493.96.973 1.46 1.439a16.285 16.285 0 0 1-1.798 1.358c.123.001.247.002.37 0 2.95-.049 5.616-1.252 7.6-3.18z"/><path d="M.705 10.155s.83-1.06 1.798-1.922c0 0 .323.613 1.113 1.43 0 0 .006-.998.12-2.564.884-.802 2.104-1.631 2.104-1.631-1.012-.066-1.766-.016-1.766-.016.234-1.187.764-2.462.764-2.462a11.65 11.65 0 0 0-4.133 7.165z"/></svg>