<svg width="32" height="33" xmlns="http://www.w3.org/2000/svg"><g fill="none"><path d="M32.01 16.46c0-1.958-.353-3.832-.996-5.566L16.01 10.2l-15.005.695A15.966 15.966 0 0 0 .01 16.46c0 1.957.352 3.832.995 5.565l15.005.695 15.005-.695c.643-1.733.995-3.608.995-5.565z" fill="#F0F0F0"/><path d="M16.01 32.46c6.879 0 12.743-4.342 15.004-10.435H1.004C3.265 28.118 9.13 32.46 16.01 32.46z" fill="#0052B4"/><path d="M1.004 10.894h30.01C28.754 4.802 22.89.46 16.01.46 9.13.46 3.265 4.802 1.004 10.894z" fill="#D80027"/><path d="M20.183 11.59h-2.782l.463-3.478L19.72 6.72l1.855 1.392v2.782zm-8.348 0h2.783l-.464-3.478L12.3 6.72l-1.855 1.392v2.782z" fill="#338AF3"/><path fill="#0052B4" d="M17.864 11.59h-3.71V8.112L16.01 6.72l1.855 1.392z"/><path d="M10.444 10.894v7.653a5.56 5.56 0 0 0 2.238 4.458l.974-.244 1.229 1.237a5.569 5.569 0 0 0 2.243 0l1.403-1.167.806.172a5.558 5.558 0 0 0 2.238-4.456v-7.653h-11.13z" fill="#F0F0F0"/><g fill="#D80027"><path d="M10.444 10.895h2.226v2.226h-2.226zm4.452 0h2.226v2.226h-2.226zm4.452 0h2.226v2.226h-2.226z"/><path d="M12.67 13.12h2.226v2.227H12.67zm4.452 0h2.226v2.227h-2.226z"/><path d="M10.444 15.346h2.226v2.226h-2.226zm2.226 2.226h2.226v2.226H12.67zm2.226-2.226h2.226v2.226h-2.226zm4.452 0h2.226v2.226h-2.226zm-2.226 2.226h2.226v2.226h-2.226zm-2.226 2.226h2.226v2.226h-2.226zm-2.226 0h-2.082a5.548 5.548 0 0 0 1.081 2.226h1.001v-2.226zm6.678 2.226h1.001a5.547 5.547 0 0 0 1.082-2.226h-2.083v2.226zm-6.678 0v.972A5.543 5.543 0 0 0 14.896 24v-1.976H12.67zm4.452 0V24a5.54 5.54 0 0 0 2.226-1.004v-.972h-2.226z"/></g></g></svg>