<svg width="19" height="33" xmlns="http://www.w3.org/2000/svg"><path d="M10.563 15.736c2.134 0 4.1-3.51 4.1-3.51 2.396 0 4.181-2.976 4.181-11.726H14.58v1.982l-.145.114s-3.027-.56-5.012-.56c-1.987 0-5.012.56-5.012.56l-.145-.114V.5H0c0 8.75 1.786 11.726 4.183 11.726 0 0 1.964 3.51 4.1 3.51v1.281s.178.649.178 1.361c0 2.431-4.94 4.42-4.94 5.533v4.75s-.953.147-.953 1.32c0 1.174 3.164 2.519 6.855 2.519 3.691 0 6.854-1.345 6.854-2.518 0-1.174-.953-1.322-.953-1.322v-4.749c0-1.112-4.94-3.102-4.94-5.533 0-.712.179-1.361.179-1.361v-1.281zm4.1-12.143l.018.003.478-.375.361-.281v-1.5h2.376c-.1 6.36-1.239 9.847-3.233 9.849V3.593zM4.182 11.289C2.187 11.287 1.049 7.8.948 1.439h2.376v1.5l.361.282.145.113.334.262.018-.003v7.696z" fill="#FFF" fill-rule="evenodd"/></svg>