<svg width="21" height="32" xmlns="http://www.w3.org/2000/svg"><path d="M20.266 1.9h-3.692V.66c0-.364-.241-.66-.539-.66H4.857c-.298 0-.539.296-.539.66V1.9H.626c-.297 0-.539.296-.539.66v.373c0 5.618 2.312 10.152 5.275 10.38.784 1.424 1.941 2.48 3.274 2.984V23.8H6.603c-.298 0-.539.296-.539.66v1.075H4.81c-.297 0-.539.296-.539.66v5.023c0 .365.242.66.539.66h11.274c.297 0 .538-.295.538-.66v-5.023c0-.364-.24-.66-.538-.66h-1.255V24.46c0-.364-.241-.66-.539-.66h-2.033v-7.503c1.332-.505 2.49-1.56 3.274-2.985 2.963-.227 5.274-4.762 5.274-10.38V2.56c0-.364-.24-.66-.538-.66zM4.318 3.965v5.162c0 .585.058 1.174.174 1.757-1.417-.977-2.496-3.733-2.688-6.92l2.514.001zM16.4 10.884a9.043 9.043 0 0 0 .174-1.757V3.965h2.515c-.192 3.186-1.272 5.943-2.689 6.919z" fill="#FFF"/></svg>