<svg width="22" height="33" xmlns="http://www.w3.org/2000/svg"><path d="M20.676 1.126c-.527-.782-1.67-1.28-2.528-1.083-1.215.278-1.945 1.17-2.003 2.449-.035.75.132 1.454.32 2.135a4.616 4.616 0 0 0-.259-.052 34.531 34.531 0 0 0-5.111-.481 41.85 41.85 0 0 0-.867-.01c-1.886 0-3.429.156-4.857.491-.056.014-.129.03-.205.055.11-.388.216-.785.277-1.198.163-1.072-.03-1.929-.587-2.618C4.442.304 3.802.011 3.097.011c-.844 0-1.636.405-2.116 1.081C.29 2.065-.039 3.23.004 4.554c.051 1.623.236 3.07.562 4.42a62.295 62.295 0 0 0 1.924 6.383c.197.547.385 1.098.573 1.648.16.47.32.94.486 1.408l.628 1.767v-.01c.484 1.475 1.142 2.99 1.901 3.974.13.167.266.327.404.489.333.39.646.759.811 1.197.093.243.297.785.817 1.063-.04.18-.104.27-.363.332a51.86 51.86 0 0 1-.965.223c-.927.201-1.645.8-2.197 1.833-.469.878-.183 1.929.68 2.499.364.24.77.432 1.237.588 1.273.426 2.632.632 4.158.632.731 0 1.5-.047 2.353-.144 1.3-.146 2.367-.482 3.263-1.026.982-.594 1.285-1.674.738-2.629-.368-.644-1.002-1.53-2.242-1.775a10.429 10.429 0 0 1-.74-.181l-.343-.092c-.057-.014-.087-.034-.16-.261a.868.868 0 0 0 .396-.396c.328-.294.502-.647.658-.963.097-.194.188-.378.332-.553.76-.923 1.547-1.88 2.068-3.058a18.626 18.626 0 0 0 1.243-3.976 114.913 114.913 0 0 0 1.901-5.609c.9-2.873 1.36-5.123 1.49-7.293.093-1.557-.214-2.838-.941-3.918zM17.154 7c.12 0 .23-.053.324-.16.48-.54.386-1.223.31-1.772l-.03-.212c-.04-.34-.107-.675-.174-1.011-.073-.36-.141-.7-.179-1.045-.065-.626.14-1.04.612-1.231.421-.17.962.012 1.347.45.686.783.793 1.759.808 2.698.03 1.996-.32 4.066-1.095 6.516-.062.192-.129.383-.191.574l.025-.343c.034-.453.068-.905.109-1.355.029-.32-.053-.753-.606-1.008-.482-.223-.957-.47-1.414-.738-.176-.102-.314-.215-.409-.397.226-.263.398-.626.524-.972.014.002.025.006.039.006zM4.064 3.802c-.078.32-.16.648-.193.993a10.92 10.92 0 0 0-.038 1.236c.008.39.125.675.344.843a.486.486 0 0 0 .295.108c.01 0 .014-.003.022-.003.118.367.287.774.51 1.07a1.197 1.197 0 0 1-.385.325l-.124.07c-.404.23-.787.447-1.184.612-.755.313-.703.96-.686 1.172l.043.579.081 1.014c-.385-1.185-.735-2.392-.952-3.618-.305-1.73-.527-3.29-.157-4.882.172-.74.469-1.24.935-1.572.374-.266.736-.316 1.098-.148.378.176.561.486.577.975.014.407-.084.806-.187 1.226z" fill="#FFF"/></svg>