<svg width="32" height="32" xmlns="http://www.w3.org/2000/svg"><g fill="#2A6CB2" fill-rule="evenodd"><path d="M16 32c8.837 0 16-7.163 16-16S24.837 0 16 0 0 7.163 0 16s7.163 16 16 16zm0-.97C7.699 31.03.97 24.301.97 16 .97 7.699 7.699.97 16 .97 24.301.97 31.03 7.699 31.03 16c0 8.301-6.729 15.03-15.03 15.03z" fill-rule="nonzero"/><path d="M23.37 21.535h-1.747c-.661 0-.865-.526-2.053-1.73-1.034-1.002-1.493-1.138-1.747-1.138-.356 0-.458.102-.458.594v1.578c0 .424-.136.679-1.256.679-1.849 0-3.902-1.12-5.344-3.207C8.594 15.257 8 12.967 8 12.492c0-.254.102-.492.594-.492h1.747c.441 0 .611.204.78.679.866 2.494 2.308 4.682 2.902 4.682.22 0 .322-.102.322-.662v-2.578c-.068-1.188-.696-1.29-.696-1.714 0-.203.17-.407.442-.407h2.748c.373 0 .509.204.509.645v3.478c0 .373.17.509.271.509.22 0 .408-.136.815-.543 1.255-1.408 2.154-3.58 2.154-3.58.12-.255.323-.492.764-.492h1.747c.526 0 .645.271.526.645-.22 1.018-2.358 4.037-2.358 4.037-.187.306-.255.442 0 .78.187.255.797.781 1.205 1.256.746.849 1.323 1.561 1.476 2.053.17.492-.085.747-.577.747z"/></g></svg>