<svg width="263" height="82" xmlns="http://www.w3.org/2000/svg"><g fill="none"><g fill="#000"><path d="M37.1 16.9v50.2L12.4 81.4 0 74.3 24.7 60V9.7z"/><path d="M37.1 7.2v24.2L12.4 45.7 0 38.6l24.7-14.3V0zm0 59.86l-24.7 14.3L0 74.26l24.7-14.3"/></g><path fill="#C17676" d="M0 38.56l12.4 7.1v35.7L0 74.49z"/><path d="M86.3 40.53a15.91 15.91 0 0 1-1.3 6.34A15.71 15.71 0 0 1 81.56 52a16.44 16.44 0 0 1-5.15 3.4 16.006 16.006 0 0 1-6.3 1.25H59.58V24.43h10.53a16 16 0 0 1 6.3 1.24 16.44 16.44 0 0 1 5.15 3.4 15.85 15.85 0 0 1 4.74 11.46zm-5.66 0a11.39 11.39 0 0 0-.8-4.31 10.72 10.72 0 0 0-2.23-3.47A10.51 10.51 0 0 0 70 29.58h-4.9v21.89H70a10.51 10.51 0 0 0 7.64-3.17 10.72 10.72 0 0 0 2.23-3.47c.532-1.37.793-2.83.77-4.3zm13.21 8.64a5.59 5.59 0 0 0 1.79 2.51 4.25 4.25 0 0 0 2.71.94 3.88 3.88 0 0 0 2.14-.57 2 2 0 0 0 .9-1.77 1.89 1.89 0 0 0-.62-1.48 5.56 5.56 0 0 0-2-1L96.1 47c-3.833-1.227-5.75-3.407-5.75-6.54a6.54 6.54 0 0 1 .65-2.88 6.47 6.47 0 0 1 1.68-2.18 7.6 7.6 0 0 1 2.43-1.4 9.54 9.54 0 0 1 8 .89 8.38 8.38 0 0 1 3.24 3.73L102 40.94a6.35 6.35 0 0 0-1.63-2.16 3.41 3.41 0 0 0-2.25-.78 3.26 3.26 0 0 0-1.93.55 1.77 1.77 0 0 0-.78 1.45c0 1.07.84 1.89 2.53 2.44l2.67.87a10 10 0 0 1 4.55 2.69 5.84 5.84 0 0 1 1.38 3.89 6.84 6.84 0 0 1-.66 3.08 7.09 7.09 0 0 1-1.82 2.28 8 8 0 0 1-2.65 1.42 9.89 9.89 0 0 1-3.15.49 9.44 9.44 0 0 1-5.47-1.57 8.52 8.52 0 0 1-3.27-4.18l4.33-2.24zm34.31 3.59a8.42 8.42 0 0 1-3.1 2.62 9.18 9.18 0 0 1-4.3 1 10.5 10.5 0 0 1-4.28-.87 10.64 10.64 0 0 1-3.43-2.39 11.17 11.17 0 0 1-2.28-3.59A12.06 12.06 0 0 1 110 45a12.28 12.28 0 0 1 .82-4.53 11.68 11.68 0 0 1 2.28-3.65 10.19 10.19 0 0 1 3.43-2.44c1.35-.59 2.807-.89 4.28-.88a9.664 9.664 0 0 1 4.3 1 8 8 0 0 1 3.1 2.62v-3h5.25v21.13c0 1.622-.291 3.23-.86 4.75a10.43 10.43 0 0 1-2.32 3.7 10.28 10.28 0 0 1-3.71 2.39 14.76 14.76 0 0 1-11.57-.68 10.41 10.41 0 0 1-4.3-4.37l4.3-2.67a7.29 7.29 0 0 0 6.67 4 6.24 6.24 0 0 0 4.78-1.86 7.27 7.27 0 0 0 1.75-5.18l-.04-2.57zm.23-7.73a7 7 0 0 0-.5-2.62 6.41 6.41 0 0 0-3.45-3.56 6.54 6.54 0 0 0-5.16 0 6.41 6.41 0 0 0-3.45 3.56 7.19 7.19 0 0 0 0 5.27 7.15 7.15 0 0 0 1.38 2.14 6.72 6.72 0 0 0 2.07 1.45 6.54 6.54 0 0 0 5.16 0 6.72 6.72 0 0 0 2.07-1.45 7.15 7.15 0 0 0 1.38-2.14 7 7 0 0 0 .5-2.68v.03zm16.88 11.6h-5.33V34.09h5.33v3a7.86 7.86 0 0 1 2.79-2.58 8.33 8.33 0 0 1 4.11-1 8.2 8.2 0 0 1 6.44 2.56 10 10 0 0 1 2.3 7v13.56h-5.33V44.07a6.11 6.11 0 0 0-1.29-4.07 4.64 4.64 0 0 0-3.73-1.49 4.79 4.79 0 0 0-3.84 1.7 6.89 6.89 0 0 0-1.45 4.6v11.82zm34.87-17.44a3.59 3.59 0 0 0-1.38-.18 5.61 5.61 0 0 0-4.62 2.09 8.68 8.68 0 0 0-1.68 5.59v9.94h-5.29V34.09h5.24V38a6.71 6.71 0 0 1 2.67-3.15 7.41 7.41 0 0 1 4-1.17 2 2 0 0 1 1 .13l.06 5.38zm9.61 15.04A2.75 2.75 0 0 1 187 57a2.77 2.77 0 0 1-2.81-2.81 2.62 2.62 0 0 1 .83-1.95 2.73 2.73 0 0 1 2-.81 2.76 2.76 0 0 1 2 .81c.514.53.78 1.253.73 1.99zm10.49 11.96h-3.91V34.27h3.91v3.54a8.56 8.56 0 0 1 3.34-2.94 9.76 9.76 0 0 1 4.57-1.11 10.65 10.65 0 0 1 8 3.36 11.6 11.6 0 0 1 3.22 8.33 11.53 11.53 0 0 1-3.24 8.3 10.67 10.67 0 0 1-8 3.38 10.41 10.41 0 0 1-4.57-1 8.38 8.38 0 0 1-3.34-2.85l.02 12.91zm12.93-15a8.52 8.52 0 0 0 0-11.45 7.62 7.62 0 0 0-10.95 0 8.52 8.52 0 0 0 0 11.45 7.6 7.6 0 0 0 10.95 0zM236.72 34v4a5.39 5.39 0 0 0-1.1-.09 5.92 5.92 0 0 0-4.88 2.23A9.14 9.14 0 0 0 229 46v10.63h-4V34.27h3.86v3.95a6.23 6.23 0 0 1 2.69-3.12 7.81 7.81 0 0 1 4.16-1.2l1.01.1zm5.59 3.14c4.654-4.509 12.046-4.509 16.7 0a11.4 11.4 0 0 1 3.33 8.31 11.46 11.46 0 0 1-11.68 11.68A11.48 11.48 0 0 1 239 45.45a11.37 11.37 0 0 1 3.31-8.31zm13.82 2.6a7.58 7.58 0 0 0-10.95 0 8.5 8.5 0 0 0 0 11.41 7.55 7.55 0 0 0 10.95 0 8.47 8.47 0 0 0 0-11.41z" fill="#000"/></g></svg>