<?xml version="1.0" encoding="UTF-8"?>
<svg width="98px" height="32px" viewBox="0 0 98 32" version="1.1" xmlns="http://www.w3.org/2000/svg" xmlns:xlink="http://www.w3.org/1999/xlink">
    <!-- Generator: Sketch 64 (93537) - https://sketch.com -->
    <title>Group</title>
    <desc>Created with Sketch.</desc>
    <g id="Page-1" stroke="none" stroke-width="1" fill="none" fill-rule="evenodd">
        <g id="Group" fill="#FFFFFF" fill-rule="nonzero">
            <g id="logo-minimal">
                <path d="M97.367,15.854 L97.367,26.026 L95.452,26.026 L95.452,25.077 C94.951,25.929 94.084,26.226 93.275,26.226 C91.075,26.226 90.157,24.243 90.157,22.174 C90.157,19.569 91.605,18.294 93.229,18.294 C94.489,18.294 95.076,18.991 95.379,19.471 L95.407,15.86 L97.367,15.86 L97.367,15.854 Z M92.163,22.317 C92.163,23.209 92.511,24.597 93.771,24.597 C95.013,24.597 95.504,23.551 95.504,22.431 C95.504,21.231 95.173,20.009 93.828,20.009 C92.579,20.009 92.163,21.129 92.163,22.317 Z M30.313,21.66 L30.313,26.026 L28.956,26.026 L28.956,15.854 L33.584,15.854 C35.226,15.854 36.874,16.431 36.874,18.586 C36.874,20.083 36.121,20.637 35.488,21.02 C36.058,21.26 36.634,21.517 36.685,22.934 L36.771,24.78 C36.782,25.346 36.856,25.557 37.272,25.797 L37.272,26.026 L35.614,26.026 C35.42,25.403 35.374,23.854 35.374,23.471 C35.374,22.631 35.209,21.654 33.584,21.654 L30.313,21.654 L30.313,21.66 L30.313,21.66 Z M30.313,17.031 L30.313,20.483 L33.448,20.483 C34.439,20.483 35.483,20.226 35.483,18.729 C35.483,17.157 34.353,17.031 33.687,17.031 L30.313,17.031 L30.313,17.031 Z M43.252,23.711 L44.472,23.711 C44.432,24.066 44.095,25.111 43.178,25.734 C42.841,25.963 42.368,26.249 41.2,26.249 C39.148,26.249 37.933,24.677 37.933,22.54 C37.933,20.237 39.023,18.414 41.433,18.414 C43.543,18.414 44.568,20.111 44.568,22.74 L39.245,22.74 C39.245,24.283 39.957,25.174 41.365,25.174 C42.528,25.169 43.206,24.26 43.252,23.711 L43.252,23.711 Z M39.25,21.746 L43.309,21.746 C43.24,20.591 42.767,19.523 41.274,19.523 C40.139,19.523 39.25,20.591 39.25,21.746 L39.25,21.746 Z M46.694,20.871 L45.571,20.871 C45.629,19.1 46.78,18.409 48.581,18.409 C49.168,18.409 51.283,18.58 51.283,20.471 L51.283,24.74 C51.283,25.054 51.437,25.18 51.688,25.18 C51.802,25.18 51.95,25.151 52.092,25.123 L52.092,26.026 C51.882,26.083 51.699,26.169 51.425,26.169 C50.342,26.169 50.171,25.603 50.132,25.037 C49.658,25.563 48.917,26.243 47.498,26.243 C46.158,26.243 45.212,25.38 45.212,24.106 C45.212,23.483 45.395,22.031 47.424,21.78 L49.447,21.523 C49.744,21.494 50.092,21.38 50.092,20.643 C50.092,19.866 49.533,19.437 48.376,19.437 C46.974,19.437 46.78,20.3 46.694,20.871 L46.694,20.871 Z M50.064,23.466 L50.064,22.243 C49.869,22.397 49.562,22.511 48.045,22.711 C47.447,22.797 46.483,22.98 46.483,23.917 C46.483,24.723 46.888,25.209 47.806,25.209 C48.946,25.209 50.063,24.46 50.063,23.466 L50.064,23.466 Z M54.196,15.854 L54.196,26.026 L52.976,26.026 L52.976,15.854 L54.196,15.854 Z M66.103,26.031 L64.148,26.031 L64.148,21.46 C64.148,20.34 63.663,19.974 63.088,19.974 C62.113,19.974 61.771,20.626 61.771,21.517 L61.771,26.037 L59.816,26.037 L59.816,21.506 C59.816,20.871 59.816,19.974 58.647,19.974 C57.73,19.974 57.439,20.626 57.439,21.449 L57.439,26.037 L55.484,26.037 L55.484,18.494 L57.354,18.494 L57.354,19.597 C57.633,19.1 58.174,18.294 59.48,18.294 C60.551,18.294 61.041,18.694 61.543,19.5 C61.793,19.129 62.335,18.294 63.521,18.294 C64.969,18.294 66.097,19.157 66.097,20.82 L66.097,26.031 L66.103,26.031 L66.103,26.031 Z M73.331,20.477 L73.331,24.557 C73.331,25.449 73.524,25.649 73.764,25.734 L73.764,26.031 L71.654,26.031 C71.541,25.677 71.518,25.563 71.472,25.14 C71.028,25.609 70.401,26.231 69.072,26.231 C67.955,26.231 66.81,25.591 66.81,24.031 C66.81,22.557 67.733,21.809 68.976,21.626 L70.731,21.357 C71.039,21.317 71.415,21.186 71.415,20.763 C71.415,19.929 70.635,19.883 70.127,19.883 C69.152,19.883 68.981,20.494 68.93,20.929 L67.043,20.929 C67.266,18.62 68.845,18.294 70.366,18.294 C71.421,18.294 73.331,18.62 73.331,20.477 L73.331,20.477 Z M71.421,23.323 L71.421,22.363 C71.221,22.517 70.902,22.649 70.093,22.769 C69.369,22.894 68.77,23.083 68.77,23.9 C68.77,24.597 69.3,24.809 69.677,24.809 C70.543,24.809 71.421,24.243 71.421,23.323 L71.421,23.323 Z M81.271,15.854 L81.271,26.026 L79.361,26.026 L79.361,25.077 C78.859,25.929 77.993,26.226 77.184,26.226 C74.984,26.226 74.066,24.243 74.066,22.174 C74.066,19.569 75.508,18.294 77.138,18.294 C78.398,18.294 78.979,18.991 79.287,19.471 L79.315,15.86 L81.271,15.86 L81.271,15.854 L81.271,15.854 Z M76.061,22.317 C76.061,23.209 76.408,24.597 77.668,24.597 C78.911,24.597 79.401,23.551 79.401,22.431 C79.401,21.231 79.065,20.009 77.725,20.009 C76.483,20.009 76.061,21.129 76.061,22.317 Z M82.428,18.494 L84.298,18.494 L84.298,19.797 C84.731,19.031 85.175,18.294 86.361,18.294 C86.486,18.294 86.611,18.306 86.737,18.323 L86.737,20.346 C86.572,20.317 86.361,20.317 86.178,20.317 C84.656,20.317 84.378,21.277 84.378,22.111 L84.378,26.031 L82.422,26.031 L82.422,18.494 L82.428,18.494 L82.428,18.494 Z M89.302,18.494 L89.302,26.031 L87.347,26.031 L87.347,18.494 L89.302,18.494 Z M89.302,15.757 L89.302,17.603 L87.347,17.603 L87.347,15.757 L89.302,15.757 L89.302,15.757 Z" id="Shape"></path>
            </g>
            <g id="white-emblem" transform="translate(0.669149, 0.790117)">
                <path d="M22.3796117,19.8271262 C22.3796117,25.9397845 17.3584131,30.938301 11.1898058,30.938301 C5.02119854,30.938301 0,25.9400869 0,19.8271262 C0,13.7029757 5.02119854,8.70445922 11.1898058,8.70445922 C17.3584131,8.70445922 22.3796117,13.7029757 22.3796117,19.8271262 Z M22.0548049,19.8271262 C22.0548049,13.8765689 17.1793762,9.0235199 11.1898058,9.0235199 C5.20023544,9.0235199 0.324806796,13.8765689 0.324806796,19.8271262 C0.324806796,25.7661913 5.20023544,30.6137966 11.1898058,30.6137966 C17.1793762,30.6137966 22.0548049,25.7607476 22.0548049,19.8271262 Z M1.71294757,19.8271262 C1.71294757,25.0046796 5.97838058,29.2368456 11.1898058,29.2368456 C16.4012311,29.2368456 20.6666641,25.0046796 20.6666641,19.8271262 C20.6666641,14.6380806 16.4012311,10.4174068 11.1898058,10.4174068 C5.97838058,10.4174068 1.71294757,14.6380806 1.71294757,19.8271262 Z M1.38814078,19.8271262 C1.38814078,14.4590437 5.79359757,10.0980437 11.1898058,10.0980437 C16.580268,10.0980437 20.9914709,14.4644874 20.9914709,19.8271262 C20.9914709,25.1785752 16.5860141,29.5559063 11.1898058,29.5559063 C5.79934369,29.5559063 1.38814078,25.1785752 1.38814078,19.8268238 L1.38814078,19.8271262 Z M12.3317709,17.6774738 L17.6327146,23.1072515 C18.2375689,22.1165 18.5396937,21.1033689 18.5396937,19.709482 C18.5396937,17.2688947 17.1624403,15.0466597 15.8248049,14.0613519 L15.0242801,14.8730665 C15.6624015,15.3769102 16.1160422,15.919767 16.530065,16.6083937 L15.0578495,17.8734466 C14.7052194,17.190566 14.3356534,16.6924684 13.7029757,16.2388277 L12.3317709,17.6774738 L12.3317709,17.6774738 Z M19.0489811,24.5570874 C18.091799,26.1690243 16.6419631,27.4398233 14.912382,28.201335 L14.0559083,27.3279252 L12.4548587,25.6990524 C12.0848897,25.7798555 11.7083182,25.8267244 11.3298296,25.8390762 L11.3298296,27.1990913 L9.49923786,27.1990913 L9.49923786,25.6319136 C6.74533592,24.8927816 4.84790777,22.3348524 4.88117476,19.5528248 C4.88576045,19.0972517 4.94774233,18.6440727 5.06565534,18.2039995 L4.15897864,17.2912743 C3.8904233,18.0412937 3.73920971,18.8530083 3.70564029,19.709482 C3.65543738,21.433317 4.41090049,23.2977806 5.67050971,24.4842024 L4.34950777,25.8221403 C2.79321748,24.0868131 1.94218738,22.1334359 1.94218738,19.782367 C1.94218738,16.3510282 3.83447427,13.3618379 6.81247476,11.7045369 L8.94519126,13.9158845 C9.65045146,13.6639626 10.4509762,13.5351286 11.1898058,13.5351286 C11.9845845,13.5463184 12.7067806,13.6863422 13.3449019,13.9216306 L15.516934,11.6824597 C18.5170117,13.3337121 20.4092985,16.3283461 20.4092985,19.782367 C20.4092985,21.5455175 19.9390243,23.1353772 19.0489811,24.5570874 L19.0489811,24.5570874 Z M9.49379417,22.7098621 L6.7562233,19.9390243 C6.82336214,21.4953146 7.77479806,22.9560379 9.49318932,23.6110951 L9.49318932,22.7098621 L9.49379417,22.7098621 Z M13.4961155,14.2295015 L13.423533,14.302084 C12.6786549,14.0223388 11.9900282,13.8765689 11.1898058,13.8653791 C10.3892811,13.8653791 9.61113592,14.0165927 8.8611165,14.302084 L6.75077961,12.1191646 C4.08065,13.6527728 2.26699417,16.530065 2.26699417,19.7935568 C2.26699417,21.9486529 3.03969563,23.8294476 4.36069757,25.3576121 L5.21142524,24.4956947 C4.47803932,23.7396267 3.31369466,21.9432092 3.38113592,19.7040383 C3.47065437,17.1681864 4.52279854,15.2256966 6.48766796,13.6303932 L7.75272087,14.9347617 C6.25268204,16.0597908 5.22261505,17.6327146 5.19479175,19.5640146 C5.16122233,22.3738655 7.10915583,24.7194908 9.81285485,25.3911816 L9.81285485,26.8912204 L10.993833,26.8912204 L10.993833,25.5369515 C12.7684757,25.5257617 14.4532976,24.8428811 15.6230859,23.4937534 L14.7052194,22.5758869 C13.8151762,23.5554485 12.3595942,24.3390374 10.9883893,24.2718985 L10.9883893,22.7884932 L12.8356146,22.7884932 L12.8356146,21.7529825 L10.9883893,21.7529825 L10.9883893,20.5771456 L12.8634379,20.5771456 L12.8634379,19.6704689 L9.80710874,19.6704689 L9.80710874,24.0756233 C7.80322621,23.4151223 6.3757699,21.8869578 6.42052913,19.6982922 C6.45409854,18.0470398 7.2434335,16.7202917 8.58137136,15.790933 L11.1616801,18.438683 L13.6527728,15.8302485 C14.2797044,16.2557636 14.7666121,16.7202917 15.147368,17.3807927 L16.10455,16.5636345 C15.6735913,15.8861976 15.17005,15.4047335 14.5258801,14.9290155 L15.7742995,13.6585189 C17.6720301,14.9571413 18.8587544,17.4760573 18.8587544,19.7318617 C18.8587544,21.8367549 18.1477481,23.1577568 17.0505422,24.4842024 L18.0243578,25.4528767 C19.3526636,23.8753234 20.0786495,21.8779245 20.0733313,19.815634 C20.0733313,16.530065 18.2596461,13.6527728 15.5671369,12.1188621 L13.4961155,14.2295015 L13.4961155,14.2295015 Z M9.76234951,15.2423301 C10.2044981,15.1416218 10.6581388,15.0351675 11.1111748,15.0575471 C11.598385,15.0741806 12.0405335,15.1582553 12.5053641,15.2870893 L11.178616,16.6809762 L9.76234951,15.2423301 Z M10.406217,15.4325568 L11.1728699,16.2107019 L11.8896223,15.4606825 C11.6294231,15.4099771 11.3653293,15.3818476 11.1002874,15.3766078 C10.9266942,15.3708617 10.6693286,15.3932413 10.406217,15.4325568 L10.406217,15.4325568 Z M16.1042476,8.89468592 L16.1713864,9.15235388 L16.1995121,9.24731602 L16.249715,9.21949272 L16.4961932,9.08521505 L16.4344981,8.82754709 L16.4233083,8.77159806 L16.1042476,8.89468592 L16.1042476,8.89468592 Z M16.5911553,8.42441165 C16.674091,8.45527507 16.7674539,8.43303002 16.8275617,8.36808444 C16.8876695,8.30313886 16.9026352,8.20833643 16.8654568,8.12803301 L16.8152539,8.02702233 C17.1509481,8.12773058 17.3974262,8.12773058 17.6883612,7.90393447 C17.9236495,8.06059175 18.1362558,8.02702233 18.3488621,7.86461893 C18.5560248,7.70251796 18.6845563,7.38890097 18.4383806,7.18173835 C18.6289097,6.93556262 18.6343534,6.66700728 18.3488621,6.48766796 C18.3993675,6.40389563 18.4329369,6.33645437 18.4329369,6.23574612 C18.4329369,5.95600097 18.2203306,5.8495466 17.9907883,5.79934369 C18.1305097,5.69288932 18.2427102,5.59762476 18.2427102,5.40165194 C18.2427102,5.11616068 18.0189141,4.99881893 17.7724359,4.9706932 C17.8395748,4.86998495 17.8900801,4.7971 17.8900801,4.66826602 C17.8900801,4.43358252 17.699551,4.2430534 17.464565,4.2430534 C17.3919825,4.2430534 17.3190976,4.26543301 17.2519587,4.28781262 C17.296718,4.19254806 17.3357311,4.12540922 17.3357311,4.01351117 C17.3357311,3.77852524 17.1452019,3.58799612 16.910216,3.58799612 C16.7928743,3.58799612 16.7257354,3.62731165 16.6304709,3.67781699 C16.636217,3.62731165 16.6528505,3.56591893 16.6528505,3.51541359 C16.6528505,3.28042767 16.4623214,3.08989854 16.2273354,3.08989854 C16.0988039,3.08989854 16.0201728,3.14040388 15.9194646,3.20754272 C15.8692617,2.98919029 15.7461738,2.80440728 15.4885058,2.80440728 C15.2979767,2.80440728 15.1921272,2.90511553 15.0965602,3.05088544 C14.9958519,2.93898738 14.9008898,2.86610243 14.7384864,2.86610243 C14.6713476,2.86610243 14.6096524,2.88273592 14.5479573,2.89936942 C14.5818291,2.81559709 14.6096524,2.74845825 14.6096524,2.65893981 C14.6096524,2.42395388 14.4191233,2.23342476 14.1841374,2.23342476 C14.0498597,2.23342476 13.9715311,2.28937379 13.8650767,2.35651262 C13.8783874,2.29965626 13.8858858,2.2415944 13.8874563,2.18322184 C13.8874564,1.94833443 13.697131,1.75787374 13.4622437,1.7577068 C13.327966,1.7577068 13.249335,1.81365583 13.143183,1.88654078 C13.0926777,1.66274466 12.9695898,1.47765922 12.7122243,1.47765922 C12.5552646,1.47765922 12.4657461,1.55054417 12.3592917,1.65125243 C12.2755194,1.47765922 12.1578752,1.34338155 11.9449665,1.34338155 C11.8835738,1.34338155 11.8330684,1.36031748 11.7771194,1.37695097 C11.6428417,1.22573738 11.5309437,1.16434466 11.340717,1.11383932 L11.340717,0.666247087 L11.6987908,0.666247087 L11.6987908,0.419768932 L11.3410194,0.419768932 L11.3410194,0.100708252 L11.0555282,0.100708252 L11.0555282,0.419768932 L10.6859621,0.419768932 L10.6859621,0.682880583 L11.0443383,0.682880583 L11.0443383,1.13047282 C10.8595553,1.18097816 10.7419112,1.24841942 10.6133796,1.39358447 C10.5601445,1.37127673 10.5029491,1.3599611 10.4452301,1.36031748 C10.2268777,1.36031748 10.1149796,1.48884903 10.0309049,1.66818835 C9.92475291,1.5674801 9.83523447,1.49459515 9.67857718,1.49459515 C9.41546553,1.49459515 9.29751893,1.67907573 9.24731602,1.90317427 C9.14116408,1.82484563 9.06283544,1.7688966 8.92281165,1.7688966 C8.68782573,1.7688966 8.4972966,1.95942573 8.4972966,2.19441165 C8.4972966,2.25036068 8.51423252,2.31749951 8.52542233,2.36770243 C8.41896796,2.30056359 8.34063932,2.24461456 8.20636165,2.24461456 C7.97137573,2.24461456 7.7808466,2.43514369 7.7808466,2.67012961 C7.7808466,2.75964806 7.81411359,2.82678689 7.84223932,2.91086165 C7.78066558,2.89101869 7.71665903,2.87972341 7.65201262,2.87729223 C7.48960922,2.87729223 7.39464709,2.95562087 7.29393883,3.06177282 C7.19867427,2.91660777 7.0922199,2.81559709 6.9019932,2.81559709 C6.64432524,2.81559709 6.52123738,3.0003801 6.47103447,3.21873252 C6.37032621,3.15159369 6.29169515,3.10108835 6.16316359,3.10108835 C5.92817767,3.10108835 5.73764854,3.29161748 5.73764854,3.5266034 C5.73764854,3.57680631 5.74883835,3.63850146 5.76002816,3.6890068 C5.66476359,3.63850146 5.59218107,3.59918592 5.48028301,3.59918592 C5.24529709,3.59918592 5.05476796,3.78971505 5.05476796,4.02470097 C5.05476796,4.13115534 5.0940835,4.20373786 5.13854029,4.29900243 C5.06595777,4.28236893 4.99881893,4.2542432 4.92593398,4.2542432 C4.69094806,4.2542432 4.50041893,4.44477233 4.50041893,4.67975825 C4.50041893,4.80828981 4.55092427,4.88117476 4.61836553,4.98218544 C4.36069757,4.99881893 4.13659903,5.1219068 4.13659903,5.40739806 C4.13659903,5.60337087 4.2430534,5.69833301 4.38307718,5.80478738 C4.14778883,5.85529272 3.94092864,5.96144466 3.94092864,6.24149223 C3.94092864,6.34220049 3.97419563,6.40933932 4.02470097,6.49341408 C3.74495583,6.66700728 3.74495583,6.93556262 3.93518252,7.18748447 C3.5266034,7.52317864 4.14778883,8.27319806 4.68520194,7.90968058 C4.97643932,8.1334767 5.22261505,8.1334767 5.55861165,8.03276845 C5.51385243,8.12773058 5.4579034,8.21180534 5.50810631,8.31825971 C5.55861165,8.43015777 5.68169951,8.47491699 5.78815388,8.42441165 C7.4282165,7.65775874 9.24731602,7.23224369 11.178616,7.23224369 C13.109916,7.23224369 14.9513951,7.65775874 16.5914578,8.42441165 L16.5911553,8.42441165 Z M6.27536408,8.89468592 L6.04582184,8.81091359 L5.9563034,8.78278786 L5.94511359,8.83873689 L5.87797476,9.09065874 L6.12415049,9.22493641 L6.18009951,9.25850583 L6.20247913,9.15779757 L6.27506165,8.89468592 L6.27536408,8.89468592 Z M6.1298966,9.29782136 L5.80508981,9.11878447 L5.88372087,8.79397767 C5.76033058,8.77734417 5.69863544,8.63157427 5.75488689,8.53661214 C5.65551189,8.55159442 5.55488117,8.51892597 5.4832554,8.44843051 C5.41162963,8.37793505 5.37736475,8.27783665 5.39076456,8.17823592 C5.14314939,8.22762897 4.88611998,8.17294186 4.68006068,8.02702233 C4.10333204,8.36876505 3.42619757,7.55130437 3.79546117,7.17054854 C3.63336019,6.92437282 3.6723733,6.62194563 3.88497961,6.45984466 C3.82320602,6.32899076 3.81824703,6.17842738 3.87127642,6.0437923 C3.9243058,5.90915722 4.03060999,5.80241762 4.16502718,5.74883835 C4.07777507,5.65437793 4.0297633,5.53023938 4.03074951,5.40165194 C4.03074951,5.15547621 4.20404029,4.94831359 4.43358252,4.89236456 C4.40372024,4.82345986 4.38847929,4.74910872 4.3888233,4.67401214 C4.3888233,4.38307718 4.62411165,4.15353495 4.9150466,4.15353495 L4.96555194,4.15897864 C4.92553629,4.00238126 4.96054307,3.83608021 5.06029377,3.70890399 C5.16004447,3.58172777 5.31321764,3.50811056 5.47483932,3.50966748 C5.53078835,3.50966748 5.58673738,3.52085728 5.6314966,3.53204709 C5.6314966,3.24655583 5.86678495,3.0115699 6.1577199,3.0115699 C6.24723835,3.0115699 6.32556699,3.03394951 6.39845194,3.07326505 C6.46315246,2.89589266 6.61768058,2.76659763 6.80368515,2.73420288 C6.98968972,2.70180812 7.17882999,2.7712495 7.29968495,2.91630534 C7.3961664,2.83306189 7.51944287,2.78742383 7.64687136,2.78777379 L7.68013835,2.78777379 C7.64584771,2.63251632 7.68440473,2.47010092 7.7848192,2.34682212 C7.88523367,2.22354332 8.03648995,2.15292503 8.19547427,2.15509612 C8.26261311,2.15509612 8.32975194,2.16628592 8.39114466,2.19441165 C8.3953142,2.00963767 8.49600439,1.84056129 8.65647778,1.74887105 C8.81695117,1.65718081 9.01373668,1.65628748 9.17503592,1.74651699 C9.24761845,1.54510049 9.44359126,1.40477427 9.66738738,1.40477427 C9.79077767,1.40477427 9.90267573,1.44408981 9.99219417,1.51697476 C10.0906218,1.36570153 10.2593149,1.27497199 10.4397864,1.27624272 C10.4902917,1.27624272 10.535051,1.28198883 10.5798102,1.29317864 C10.6656089,1.20178133 10.770959,1.13096211 10.8879835,1.08601602 L10.9439325,1.0690801 L10.9439325,0.783588835 L10.5849515,0.783588835 L10.5849515,0.31906068 L10.9433277,0.31906068 L10.9433277,0 L11.4302354,0 L11.4302354,0.31906068 L11.7883092,0.31906068 L11.7883092,0.783588835 L11.4302354,0.783588835 L11.4302354,1.05789029 L11.4861845,1.07482621 C11.6038286,1.11958544 11.7099806,1.19216796 11.7940553,1.28198883 C11.8388146,1.27079903 11.8835738,1.26505291 11.9340791,1.26505291 C12.1243058,1.26505291 12.2867092,1.36031748 12.3762277,1.50578495 C12.4693934,1.4342716 12.5832894,1.39499712 12.700732,1.39388689 C12.9305767,1.39388689 13.1208034,1.53391068 13.1936883,1.73532718 C13.2717146,1.69601165 13.3557893,1.66818835 13.4507515,1.66818835 C13.7377238,1.66649465 13.9725009,1.89627942 13.9769748,2.18322184 C14.1379314,2.11766663 14.3209109,2.13611286 14.4655446,2.23247477 C14.6101783,2.32883668 14.6976762,2.49059542 14.6991709,2.6643835 C14.6991709,2.70369903 14.6937272,2.73726845 14.6879811,2.77628155 L14.7272966,2.77628155 C14.8615743,2.77628155 14.9792184,2.82678689 15.0741806,2.90511553 C15.1744182,2.78277986 15.3249196,2.71276111 15.4830621,2.71488883 C15.7123019,2.71488883 15.9028311,2.86035631 15.9754136,3.06207524 C16.1367712,2.97531743 16.3318586,2.97978122 16.4890792,3.0738284 C16.6462998,3.16787558 16.7424979,3.33765474 16.7423689,3.52085728 C16.7949911,3.50490987 16.8497982,3.49735731 16.9047723,3.49847767 C17.1957073,3.49847767 17.4309956,3.73376602 17.4309956,4.01925728 C17.4309956,4.0640165 17.4252495,4.10877573 17.4140597,4.14778883 L17.4588189,4.14778883 C17.7500563,4.14778883 17.9850422,4.38307718 17.9850422,4.66856845 C17.9850422,4.74689709 17.9684087,4.82522573 17.9348393,4.89236456 C18.1643816,4.94831359 18.3376723,5.15547621 18.3376723,5.40165194 C18.3376723,5.53623204 18.2874694,5.6593199 18.2033947,5.74883835 C18.3380293,5.80206289 18.4445721,5.90872396 18.4976471,6.04341764 C18.5507221,6.17811132 18.5455789,6.32878143 18.4834422,6.45954223 C18.6960485,6.62194563 18.7350617,6.92437282 18.5729607,7.17054854 C18.8079466,7.41128058 18.6062277,7.79203641 18.4105573,7.94325 C18.2200282,8.09446359 17.9514728,8.18398204 17.6938049,8.02702233 C17.4882217,8.17402536 17.2307223,8.22881246 16.983101,8.17823592 C17.0112267,8.38539854 16.8264437,8.57018155 16.6192811,8.53661214 C16.6752301,8.63157427 16.613535,8.77734417 16.4961932,8.79397767 L16.5745218,9.11878447 L16.249715,9.29782136 C16.2958931,9.35057647 16.3047912,9.42633075 16.2720947,9.48835049 C16.2536298,9.53352161 16.2175265,9.56919821 16.1721391,9.58712482 C16.1267516,9.60505143 16.0760134,9.60367449 16.031665,9.58331262 C14.5159558,8.87526395 12.8627348,8.5102336 11.1898058,8.51423252 C9.45447864,8.51423252 7.81985971,8.89468592 6.3479466,9.58331262 C6.25268204,9.62807184 6.15197379,9.5775665 6.10721456,9.48804806 C6.07495555,9.42594753 6.08382304,9.35045401 6.12959417,9.29751893 L6.1298966,9.29782136 Z M6.35369272,8.85022913 L6.25298447,9.24731602 L6.28625146,9.31445485 C6.26961796,9.32564466 6.24723835,9.33139078 6.23060485,9.34802427 C6.20247913,9.37615 6.18009951,9.40427573 6.20247913,9.44903495 C6.22485874,9.49379417 6.26961796,9.51042767 6.3089335,9.49379417 C7.79233883,8.79972379 9.44359126,8.41322184 11.1958544,8.41322184 C12.8843617,8.40976203 14.5528554,8.77871414 16.0824728,9.49379417 C16.1611039,9.52706117 16.2838893,9.39852961 16.0994087,9.31445485 L16.1326757,9.24731602 L16.0322699,8.8499267 L16.3791539,8.72109272 L16.4072796,8.66514369 C16.4351029,8.6763335 16.4574825,8.68207961 16.4798621,8.6875233 C16.5751267,8.69871311 16.5693806,8.59256117 16.5191777,8.57018155 C14.8543549,7.79266093 13.0387316,7.39131155 11.2012981,7.39462647 C9.29812379,7.39462647 7.49565777,7.81441602 5.88341845,8.57018155 C5.83865922,8.59256117 5.83321553,8.69871311 5.92273398,8.6875233 C5.94844511,8.68640029 5.97343724,8.67869438 5.9953165,8.66514369 L6.02344223,8.72109272 L6.35369272,8.8499267 L6.35369272,8.85022913 Z M14.3471456,4.22067379 C13.9328204,3.18516311 12.9590049,2.43514369 11.6546364,2.50772621 C11.6546364,2.59724466 11.6268131,2.68676311 11.5820539,2.75420437 L11.5820539,3.10683447 C11.6785557,3.25676572 11.6785557,3.44925466 11.5820539,3.59918592 L11.5820539,3.82298204 C12.4775408,3.70564029 13.5242413,3.79515874 14.3471456,4.22067379 L14.3471456,4.22067379 Z M11.5820539,3.95756214 C11.7102004,4.15479332 11.6663473,4.41725534 11.4810432,4.56211408 C11.6380029,4.61806311 11.7610908,4.72996117 11.8115961,4.9428699 C12.1306568,5.02119854 12.2144291,5.25618447 12.2144291,5.51385243 C12.2144291,5.8217233 12.0913413,6.08483495 11.6380029,6.10721456 C11.57658,6.27986829 11.6342565,6.4724129 11.7804835,6.58286537 C11.9267105,6.69331785 12.127688,6.69614745 12.2769666,6.58985543 C12.4262452,6.48356342 12.4893195,6.29271888 12.4327816,6.11840437 C12.4273379,6.07364515 12.4215917,6.0285835 12.4215917,5.98382427 C12.4215917,5.69288932 12.6565777,5.45760097 12.9532587,5.45760097 C13.2444961,5.45760097 13.479482,5.69288932 13.479482,5.98382427 C13.479482,6.07364515 13.4571024,6.15741748 13.4180893,6.23574612 C13.4318233,6.41602134 13.557145,6.56831863 13.7314039,6.61650194 C13.9081939,6.66031386 14.0931719,6.58598147 14.1904883,6.43202136 C13.7595296,6.29744126 13.7035806,6.01164757 13.7819092,5.71526893 C13.8490481,5.46334709 13.9890718,5.25618447 14.3193223,5.26162816 C14.380715,5.14428641 14.4590437,5.07140146 14.5543083,5.02664223 C14.5149927,4.77472039 14.4590437,4.53973447 14.380715,4.31593835 C13.5411772,3.85110777 12.4385277,3.76733544 11.5820539,3.89586699 L11.5820539,3.95756214 L11.5820539,3.95756214 Z M10.8205422,2.51347233 C10.8205422,2.59724466 10.848668,2.66468592 10.8934272,2.73182476 L10.8934272,3.14615 C10.848668,3.21298641 10.8208447,3.28012524 10.8208447,3.3642 C10.8208447,3.44827476 10.848668,3.51541359 10.8934272,3.58255243 L10.8934272,3.99687767 C10.848668,4.0640165 10.8208447,4.13115534 10.8208447,4.21492767 C10.8208447,4.45565971 10.9998816,4.53398835 11.1843621,4.61261942 C11.3691451,4.52854466 11.5484845,4.45565971 11.5484845,4.21492767 C11.5484845,4.14143786 11.5273146,4.06946019 11.4867893,4.00806748 L11.4755995,3.58255243 C11.5203587,3.51541359 11.548182,3.44827476 11.548182,3.3642 C11.548182,3.28012524 11.5203587,3.21298641 11.4755995,3.14584757 L11.4755995,2.72607864 C11.5203587,2.65893981 11.548182,2.59180097 11.548182,2.50772621 C11.548182,2.47445922 11.5427383,2.4463335 11.5372947,2.41246165 C13.2499398,2.28937379 14.4759796,3.44252864 14.6438267,5.07684515 C14.4926131,5.13854029 14.4366641,5.20598155 14.3640816,5.35144903 C14.0674005,5.33451311 13.9331228,5.45215728 13.8656816,5.72645874 C13.7649733,6.11265825 13.9497563,6.25812573 14.3193223,6.35339029 C14.2074243,6.60531214 13.9836282,6.77315922 13.6923908,6.69513301 C13.4637659,6.63721279 13.3028321,6.43256851 13.3004451,6.19673301 C13.3397607,6.12415049 13.367584,6.05670922 13.367584,5.97293689 C13.367584,5.73764854 13.1770549,5.54742184 12.9420689,5.54742184 C12.707083,5.54742184 12.5111102,5.73764854 12.5111102,5.97263447 C12.5111102,6.01739369 12.5223,6.06245534 12.5334898,6.10721456 C12.466351,6.33101068 12.2761243,6.48766796 12.0353922,6.48766796 C11.732965,6.48766796 11.5596743,6.26931553 11.514915,6.00076019 C11.8953684,6.00076019 12.1137209,5.90005194 12.1137209,5.50266262 C12.1137209,5.22261505 12.0130126,5.07140146 11.7217752,5.01575485 C11.6546364,4.66282233 11.4755995,4.64074515 11.1789184,4.5956835 C10.8822374,4.64618883 10.7032005,4.66826602 10.6360617,5.01545243 C10.3448243,5.07140146 10.244116,5.22261505 10.244116,5.50236019 C10.244116,5.90005194 10.4624684,5.9953165 10.8429218,6.00076019 C10.7981626,6.26931553 10.6248718,6.48766796 10.3227471,6.48766796 C10.0817126,6.48766796 9.89148592,6.33101068 9.81860097,6.10721456 C9.82979078,6.06245534 9.84098058,6.01739369 9.84098058,5.97263447 C9.84066454,5.85895969 9.79497377,5.75011633 9.71405561,5.67027708 C9.63313745,5.59043782 9.52369063,5.54621209 9.41002184,5.54742184 C9.17503592,5.54742184 8.97906311,5.73764854 8.97906311,5.97263447 C8.97906311,6.05670922 9.00144272,6.12959417 9.04620194,6.19643058 C9.04045583,6.43171893 8.89498835,6.63888155 8.66000243,6.69483058 C8.36876505,6.76741311 8.14496893,6.59956602 8.03307087,6.35339029 C8.40233447,6.25812573 8.58711748,6.10721456 8.48640922,5.72645874 C8.4138267,5.45215728 8.2792466,5.33451311 7.98831165,5.35144903 C7.92117282,5.20023544 7.86522379,5.1330966 7.70826408,5.07714757 C7.87641359,3.44252864 9.10215097,2.2839301 10.8150985,2.41276408 C10.8262883,2.44603107 10.8205422,2.47990291 10.8205422,2.51347233 Z M7.99375534,4.31593835 C7.91342017,4.54421297 7.85894511,4.78077879 7.83135194,5.02119854 C7.9266165,5.06595777 8.00494515,5.14428641 8.06664029,5.25618447 C8.39689078,5.25074078 8.53691456,5.4579034 8.6040534,5.70982524 C8.68238204,6.00620388 8.62643301,6.29169515 8.19547427,6.42627524 C8.18626776,6.60525149 8.29243326,6.77009915 8.45918701,6.83575314 C8.62594075,6.90140712 8.81599507,6.85318661 8.93127769,6.71597445 C9.04656031,6.57876229 9.06129298,6.3832404 8.9678733,6.23030243 C8.92651445,6.1528283 8.90529904,6.0661987 8.90617816,5.97838058 C8.90617816,5.6871432 9.1414665,5.45215728 9.43240146,5.45215728 C9.59617657,5.45180127 9.75092248,5.52715841 9.8516305,5.65631068 C9.95233852,5.78546295 9.98770188,5.95391006 9.94743495,6.11265825 C10.0076867,6.28201988 10.1690894,6.39421851 10.3488315,6.3916879 C10.5285737,6.38915728 10.6867537,6.27245919 10.7422136,6.10146845 C10.2888752,6.07908883 10.1657874,5.81597718 10.1657874,5.50810631 C10.1657874,5.25074078 10.2553058,5.01545243 10.5686204,4.93712379 C10.6191257,4.72996117 10.7422136,4.61261942 10.8991733,4.55667039 C10.713694,4.41178365 10.6698274,4.14910978 10.7981626,3.95181602 L10.7981626,3.89586699 C9.94168883,3.77277913 8.83903932,3.85110777 7.99375534,4.31593835 L7.99375534,4.31593835 Z M10.719834,2.51347233 C9.41576796,2.44058738 8.44709369,3.18486068 8.03307087,4.22611748 C8.85022913,3.80634854 9.90267573,3.70594272 10.7927189,3.83447427 L10.7927189,3.61067816 C10.6960339,3.46058174 10.6960339,3.26781826 10.7927189,3.11772184 L10.7927189,2.75995049 C10.7461678,2.68620882 10.7210377,2.60097583 10.7201364,2.51377476 L10.719834,2.51347233 Z M16.0207777,7.27155922 L16.0489034,7.24887718 C16.1048524,7.29393883 16.1553578,7.32176214 16.2279403,7.34414175 L16.3174587,7.36107767 C16.3513306,7.54555825 16.4184694,7.69677184 16.5473034,7.83104951 L16.4910519,7.90968058 C16.1789776,7.77217582 15.8615839,7.6470747 15.539616,7.53467087 L15.5508058,7.43940631 C15.7194069,7.42533917 15.8814103,7.36748079 16.0207777,7.27155922 Z M16.0489034,7.37226748 C15.959385,7.43366019 15.8583743,7.47841942 15.7579684,7.50654515 C15.959385,7.57912767 16.1608015,7.65775874 16.3625204,7.74153107 C16.3044375,7.65068132 16.2626792,7.5503795 16.2391301,7.44515243 L16.2058631,7.43910388 C16.1512518,7.42264495 16.0986156,7.40023148 16.0489034,7.37226748 L16.0489034,7.37226748 Z M11.1396029,6.10146845 L11.2406136,6.10146845 C11.2799291,6.3757699 11.4532199,6.59956602 11.6939519,6.7117665 L11.6715723,6.80672864 C11.5110629,6.80013208 11.3504485,6.79640155 11.1898058,6.79553883 C11.0274024,6.79553883 10.8707451,6.80128495 10.7083417,6.80672864 L10.6859621,6.7117665 C10.9300631,6.59741519 11.1004635,6.36816977 11.1396029,6.10146845 L11.1396029,6.10146845 Z M11.1901083,6.30288495 C11.1299463,6.46036259 11.0272371,6.59804105 10.8934272,6.7005767 C10.9886917,6.7005767 11.0894,6.69483058 11.1901083,6.69483058 C11.2908165,6.69483058 11.3860811,6.69483058 11.4867893,6.7005767 C11.3516179,6.59919546 11.2485126,6.4610217 11.1898058,6.30258252 L11.1901083,6.30288495 Z M5.88341845,7.90968058 L5.82746942,7.83104951 C5.9563034,7.69132816 6.02344223,7.54555825 6.05701165,7.36107767 C6.18009951,7.34414175 6.22485874,7.33295194 6.33131311,7.2546233 C6.4825267,7.36652136 6.63374029,7.4282165 6.82396699,7.43910388 L6.8351568,7.53436845 C6.51035,7.6462665 6.19128932,7.7696568 5.88341845,7.90937816 L5.88341845,7.90968058 Z M6.01769612,7.74153107 C6.2166315,7.65646489 6.41836293,7.57809222 6.62255049,7.50654515 C6.51796156,7.48029842 6.4191909,7.43475929 6.33131311,7.37226748 C6.28339707,7.40358949 6.23038283,7.42630988 6.17465583,7.43940631 L6.14108641,7.44485 C6.11510673,7.54938501 6.07350876,7.64940365 6.01769612,7.74153107 L6.01769612,7.74153107 Z M8.38570097,6.99725777 L8.38570097,7.0922199 C8.07756059,7.1602551 7.77138444,7.23689999 7.46753204,7.32206456 L7.42277282,7.23768738 C7.62656844,7.06554363 7.73151857,6.80339499 7.70282039,6.5381733 L7.79778252,6.51579369 C7.89894828,6.76595045 8.12050956,6.94739364 8.38570097,6.99725777 L8.38570097,6.99725777 Z M8.17853835,7.04201699 C8.02640405,6.97523631 7.89493091,6.86893 7.79778252,6.73414612 C7.78035871,6.8996544 7.71639469,7.05683812 7.61330194,7.18748447 C7.7997685,7.1317273 7.98832152,7.08320189 8.17853835,7.04201699 L8.17853835,7.04201699 Z M9.03501214,6.97487816 L9.00144272,6.88505728 C9.1859233,6.76771553 9.29782136,6.61075583 9.37070631,6.40933932 L9.43240146,6.40933932 C9.48835049,6.40933932 9.53885583,6.39814951 9.58905874,6.38151602 C9.71244903,6.56055291 9.86336019,6.68364078 10.0705228,6.75077961 L10.059333,6.84604417 C9.71244903,6.87386748 9.37070631,6.9186267 9.03501214,6.97487816 L9.03501214,6.97487816 Z M9.43814757,6.50460388 C9.38747236,6.63221397 9.30894767,6.74690135 9.20830291,6.84029806 C9.42371613,6.8055825 9.64042542,6.77945228 9.8579165,6.76196942 C9.73711818,6.69571297 9.63209044,6.60409742 9.55004563,6.49341408 C9.5107301,6.49885777 9.47746311,6.50460388 9.43814757,6.50460388 L9.43814757,6.50460388 Z M12.3208835,6.84604417 L12.3096937,6.75077961 C12.5168563,6.68364078 12.6677675,6.56025049 12.7911578,6.38151602 C12.8416167,6.39886345 12.8944685,6.40825027 12.947815,6.40933932 L13.0095102,6.40933932 C13.0820927,6.61075583 13.1939908,6.76771553 13.3787738,6.88505728 L13.3455068,6.97487816 C13.0058885,6.9178221 12.6640551,6.87484069 12.3208835,6.84604417 L12.3208835,6.84604417 Z M12.9366252,6.50430146 C12.9030558,6.50430146 12.8640427,6.49885777 12.8301709,6.49341408 C12.7463985,6.60531214 12.6396417,6.69483058 12.5223,6.76196942 C12.7406524,6.78434903 12.9532587,6.81247476 13.1716112,6.84060049 C13.0780666,6.75096792 13.0021565,6.64459124 12.947815,6.5269835 L12.9366252,6.50460388 L12.9366252,6.50430146 Z M14.9574437,7.2434335 L14.9126845,7.32750825 C14.6102573,7.23768738 14.3078301,7.15935874 13.9945155,7.09766359 L13.9945155,7.00270146 C14.2572016,6.94753344 14.4765623,6.76789231 14.582434,6.52123738 L14.6773961,6.54361699 C14.6495728,6.81247476 14.7560272,7.07558641 14.9574437,7.2434335 L14.9574437,7.2434335 Z M14.7614709,7.18173835 C14.6606407,7.04978639 14.5969454,6.8932631 14.5769903,6.7284 C14.4829849,6.8662401 14.3504458,6.97332331 14.195932,7.03627087 C14.3864612,7.0810301 14.5769903,7.13153544 14.7614709,7.18173835 L14.7614709,7.18173835 Z M14.9069383,5.46334709 C14.6814653,5.40649867 14.4521119,5.54117477 14.3919049,5.76577427 C14.3359558,5.98957039 14.4705359,6.21911262 14.694332,6.27506165 C14.9238743,6.33101068 15.1534165,6.19643058 15.2093655,5.97263447 C15.2659347,5.74856581 15.1307518,5.52091777 14.9069383,5.46334709 L14.9069383,5.46334709 Z M14.9238743,5.39620825 C15.0496648,5.42756373 15.1577,5.50790612 15.2239307,5.61935088 C15.2901614,5.73079563 15.3090905,5.86409298 15.2765044,5.98957039 C15.2084961,6.2522805 14.9404253,6.4101444 14.6776985,6.34220049 C14.551808,6.31098481 14.4436469,6.2306838 14.3773419,6.11920959 C14.3110369,6.00773538 14.2921038,5.87436139 14.324766,5.74883835 C14.3948997,5.48773799 14.661222,5.33090373 14.9235718,5.39620825 L14.9238743,5.39620825 Z M15.2876942,4.64043297 C15.158023,4.64110432 15.0530674,4.74605993 15.0524058,4.87573107 C15.0524058,5.00426262 15.1588602,5.11071699 15.2876942,5.11071699 C15.4171301,5.10989201 15.5218551,5.00516695 15.5226801,4.87573107 C15.5233326,4.81318353 15.4987946,4.75300327 15.4545929,4.70874464 C15.4103912,4.66448601 15.3502425,4.63987067 15.2876942,4.64043297 L15.2876942,4.64043297 Z M15.2876942,4.57330388 C15.4555413,4.57330388 15.5901214,4.70758155 15.5901214,4.87573107 C15.5901214,5.04357816 15.4555413,5.17815825 15.2876942,5.17815825 C15.1195447,5.17815825 14.985267,5.04357816 14.985267,4.87573107 C14.985267,4.70758155 15.1252908,4.57330388 15.2876942,4.57330388 Z M15.0917214,3.80090485 C14.9622855,3.80172984 14.8575604,3.90645489 14.8567354,4.03589078 C14.8567354,4.16472476 14.9628874,4.27117913 15.0917214,4.27117913 C15.2212744,4.27035245 15.3260472,4.16544475 15.3267073,4.03589078 C15.3282145,3.97311872 15.3039414,3.91246942 15.2595421,3.86807008 C15.2151427,3.82367074 15.1544934,3.79939767 15.0917214,3.80090485 L15.0917214,3.80090485 Z M15.0917214,3.73376602 C15.2595684,3.73376602 15.3941499,3.86804369 15.3941499,4.0361932 C15.3943909,4.1164482 15.3625963,4.19348165 15.3058188,4.25020236 C15.2490413,4.30692308 15.1719761,4.33864064 15.0917214,4.3383204 C14.9238743,4.3383204 14.7892942,4.20373786 14.7892942,4.03589078 C14.7892942,3.86804369 14.929318,3.73346359 15.0917214,3.73346359 L15.0917214,3.73376602 Z M18.0080267,6.00620388 C17.8784737,6.00703056 17.7737008,6.11193826 17.7730408,6.24149223 C17.7730408,6.37032621 17.8794951,6.47647816 18.0080267,6.47647816 C18.1375807,6.4758181 18.2424884,6.37104525 18.243315,6.24149223 C18.2426534,6.1118211 18.1376978,6.00686548 18.0080267,6.00620388 L18.0080267,6.00620388 Z M18.0080267,5.93906505 C18.1761762,5.93906505 18.3104539,6.07364515 18.3104539,6.24149223 C18.3104539,6.40933932 18.1761762,6.54391942 18.0080267,6.54391942 C17.8401796,6.54391942 17.7055995,6.40933932 17.7055995,6.24149223 C17.7055995,6.07364515 17.8401796,5.93906505 18.0080267,5.93906505 Z M17.8120539,5.17241214 C17.682618,5.17323712 17.5778929,5.27796218 17.577068,5.40739806 C17.577068,5.53623204 17.6835223,5.64238398 17.8120539,5.64238398 C17.9416079,5.64172393 18.0465156,5.53695107 18.0473422,5.40739806 C18.0465156,5.27784504 17.9416079,5.17307219 17.8120539,5.17241214 L17.8120539,5.17241214 Z M17.8120539,5.10497087 C17.9802034,5.10497087 18.1144811,5.23955097 18.1144811,5.40739806 C18.1144811,5.57524515 17.9802034,5.70982524 17.8120539,5.70982524 C17.6442068,5.70982524 17.5096267,5.57524515 17.5096267,5.40739806 C17.5096267,5.23955097 17.6442068,5.10497087 17.8120539,5.10497087 Z M17.4594238,4.43902621 C17.3299879,4.4398512 17.2252628,4.54457625 17.2244379,4.67401214 C17.2244379,4.80284612 17.3308922,4.9038568 17.4594238,4.9038568 C17.5890949,4.9031952 17.6940505,4.79823958 17.6947121,4.66856845 C17.694236,4.60680982 17.6691187,4.54779807 17.6249394,4.50464089 C17.5807601,4.46148371 17.5211766,4.43775442 17.4594238,4.43872379 L17.4594238,4.43902621 Z M17.4594238,4.37188738 C17.6275733,4.37188738 17.7618534,4.50616505 17.7618534,4.67431456 C17.7621747,4.75459433 17.7304062,4.83167515 17.673611,4.88841357 C17.6168158,4.94515199 17.5397032,4.97684339 17.4594238,4.97644314 C17.2915767,4.97644314 17.1569966,4.84216165 17.1569966,4.67401214 C17.1569966,4.50616505 17.2915767,4.37158495 17.4594238,4.37158495 L17.4594238,4.37188738 Z M16.9053772,3.78971505 C16.7759413,3.79054003 16.6712162,3.89526509 16.6703913,4.02470097 C16.6703913,4.15353495 16.7765432,4.25998932 16.9053772,4.25998932 C17.0349302,4.25916264 17.1397031,4.15425494 17.1403631,4.02470097 C17.1395381,3.89526509 17.0348131,3.79054003 16.9053772,3.78971505 L16.9053772,3.78971505 Z M16.9053772,3.72257621 C17.0732243,3.72257621 17.2078057,3.85685388 17.2078057,4.0250034 C17.2080468,4.10525839 17.1762521,4.18229184 17.1194746,4.23901256 C17.0626971,4.29573327 16.9856319,4.32745083 16.9053772,4.32713059 C16.7375301,4.32713059 16.60295,4.19254806 16.60295,4.02470097 C16.5975063,3.85685388 16.7375301,3.72227379 16.9053772,3.72227379 L16.9053772,3.72257621 Z M16.2167505,3.29131505 C16.0871975,3.29214173 15.9824246,3.39704943 15.9817646,3.5266034 C15.9817646,3.65543738 16.0882189,3.76158932 16.2167505,3.76158932 C16.3463045,3.76092927 16.4512122,3.65615641 16.4520388,3.5266034 C16.4513772,3.39693226 16.3464216,3.29197665 16.2167505,3.29131505 L16.2167505,3.29131505 Z M16.2167505,3.22417621 C16.3849,3.22417621 16.5191777,3.35875631 16.5191777,3.5266034 C16.5191777,3.69445049 16.3849,3.82903058 16.2167505,3.82903058 C16.0489034,3.82903058 15.9143233,3.69445049 15.9143233,3.5266034 C15.9143233,3.35875631 16.0489034,3.22417621 16.2167505,3.22417621 Z M15.4779209,3.00582379 C15.3483679,3.00665047 15.243595,3.11155816 15.242935,3.24111214 C15.242935,3.36994612 15.3490869,3.47609806 15.4779209,3.47609806 C15.6073568,3.47527308 15.7120818,3.37054802 15.7129068,3.24111214 C15.7122467,3.11155816 15.6074739,3.00665047 15.4779209,3.00582379 L15.4779209,3.00582379 Z M15.4779209,2.93868495 C15.645768,2.93868495 15.7803481,3.07326505 15.7803481,3.24111214 C15.7803481,3.40895922 15.645768,3.54353932 15.4779209,3.54353932 C15.3100738,3.54353932 15.1754937,3.40895922 15.1754937,3.24111214 C15.1754937,3.07326505 15.3100738,2.93868495 15.4779209,2.93868495 Z M14.7279015,3.06751893 C14.5983475,3.06817898 14.4934398,3.17295184 14.4926131,3.30250485 C14.4926131,3.43133883 14.5990675,3.5377932 14.7279015,3.5377932 C14.8574545,3.53696652 14.9622273,3.43205883 14.9628874,3.30250485 C14.959855,3.17400271 14.8564036,3.07055128 14.7279015,3.06751893 L14.7279015,3.06751893 Z M14.7279015,3.0003801 C14.8957485,3.0003801 15.03033,3.13465777 15.03033,3.30280728 C15.030571,3.38306227 14.9987764,3.46009573 14.9419989,3.51681644 C14.8852214,3.57353715 14.8081562,3.60525472 14.7279015,3.60493448 C14.5600544,3.60493448 14.4254743,3.47065437 14.4254743,3.30250485 C14.4200306,3.13465777 14.5600544,3.0003801 14.7279015,3.0003801 L14.7279015,3.0003801 Z M14.1735524,2.43484126 C14.0439994,2.43566794 13.9392266,2.54057564 13.9385665,2.67012961 C13.9385665,2.79896359 14.0450209,2.90511553 14.1735524,2.90511553 C14.3031064,2.90445548 14.4080141,2.79968263 14.4088408,2.67012961 C14.4080141,2.5405766 14.3031064,2.43580374 14.1735524,2.43514369 L14.1735524,2.43484126 Z M14.1735524,2.36770243 C14.3417019,2.36770243 14.4759796,2.50228252 14.4759796,2.67012961 C14.4759796,2.8379767 14.3417019,2.9725568 14.1735524,2.9725568 C14.0057053,2.9725568 13.8711252,2.8379767 13.8711252,2.67012961 C13.8711252,2.50772621 14.0057053,2.36770243 14.1735524,2.36770243 L14.1735524,2.36770243 Z M13.4516587,1.95942573 C13.3221048,1.96008578 13.2171971,2.06485864 13.2163704,2.19441165 C13.2163704,2.3229432 13.3228248,2.42939757 13.4516587,2.42939757 C13.5810946,2.42857259 13.6858197,2.32384753 13.6866447,2.19441165 C13.6859846,2.06485768 13.5812118,1.95994998 13.4516587,1.9591233 L13.4516587,1.95942573 Z M13.4516587,1.89198447 C13.6195058,1.89198447 13.7540859,2.02626214 13.7540859,2.19441165 C13.7540859,2.36225874 13.6195058,2.49683883 13.4516587,2.49683883 C13.2835092,2.49683883 13.1492316,2.36225874 13.1492316,2.19441165 C13.1492316,2.02626214 13.2835092,1.89198447 13.4516587,1.89198447 L13.4516587,1.89198447 Z M12.7016393,1.68482184 C12.5719682,1.68548344 12.4670126,1.79043906 12.466351,1.92011019 C12.466351,2.04864175 12.5728053,2.15509612 12.7013369,2.15509612 C12.8308909,2.15443607 12.9357986,2.04966321 12.9366252,1.92011019 C12.9359636,1.79043906 12.831008,1.68548344 12.7013369,1.68482184 L12.7016393,1.68482184 Z M12.7016393,1.61768301 C12.8694864,1.61768301 13.0037641,1.75196068 13.0037641,1.92011019 C13.0037807,1.99977399 12.9717262,2.07609038 12.9148293,2.13184935 C12.8579324,2.18760832 12.7809841,2.21811463 12.7013369,2.21648883 C12.6211098,2.21681201 12.5440753,2.18508489 12.4873457,2.1283553 C12.4306161,2.07162571 12.398889,1.99459118 12.3992097,1.91436408 C12.3991955,1.83470029 12.43125,1.75838389 12.4881469,1.70262492 C12.5450438,1.64686595 12.6219921,1.61635964 12.7016393,1.61798544 L12.7016393,1.61768301 Z M11.934684,1.55054417 C11.80513,1.55120423 11.7002223,1.65597708 11.6993956,1.7855301 C11.6993956,1.91436408 11.80585,2.02081845 11.934684,2.02081845 C12.064237,2.01999177 12.1690099,1.91508407 12.1696699,1.7855301 C12.1688449,1.65609421 12.0641199,1.55136916 11.934684,1.55054417 L11.934684,1.55054417 Z M11.934684,1.48340152 C12.1025311,1.48340152 12.2371125,1.61768301 12.2371125,1.78583252 C12.2373535,1.86608752 12.2055589,1.94312097 12.1487814,1.99984168 C12.0920039,2.0565624 12.0149387,2.08827996 11.934684,2.08795972 C11.7665345,2.08795972 11.6322543,1.95367961 11.6322543,1.7855301 C11.631933,1.70525033 11.6637016,1.62816951 11.7204968,1.57143109 C11.777292,1.51469267 11.8544046,1.48300127 11.934684,1.48340152 L11.934684,1.48340152 Z M4.66282233,7.69677184 C4.86998495,7.58487379 4.9428699,7.32750825 4.83066942,7.12578932 C4.71647959,6.92197167 4.46000242,6.84728918 4.2542432,6.95794223 C4.05071101,7.0696596 3.9756989,7.32483593 4.08639612,7.52892476 C4.19992583,7.73357089 4.45717527,7.80847825 4.66282233,7.69677184 Z M4.69639175,7.75846699 C4.45969254,7.88806456 4.16278225,7.80311747 4.03044709,7.56793786 C3.96792036,7.45458398 3.9534218,7.32090228 3.99019276,7.19677899 C4.02696372,7.0726557 4.11193761,6.96844226 4.22611748,6.90743689 C4.46288701,6.7776361 4.76002069,6.86260851 4.89236456,7.09796602 C4.95486816,7.21135689 4.96932145,7.34506725 4.93249221,7.4691954 C4.89566298,7.59332355 4.81062371,7.69751414 4.69639175,7.75846699 L4.69639175,7.75846699 Z M7.68013835,6.27506165 C7.90393447,6.21911262 8.04395825,5.98957039 7.98256553,5.76577427 C7.92236065,5.54102657 7.69280178,5.40630892 7.46722961,5.46334709 C7.2434335,5.51929612 7.10340971,5.74883835 7.16480243,5.97263447 C7.22649757,6.20247913 7.45603981,6.33645437 7.68013835,6.27506165 L7.68013835,6.27506165 Z M7.69677184,6.34220049 C7.43404507,6.4101444 7.16597431,6.2522805 7.09796602,5.98957039 C7.0653799,5.86409298 7.08430903,5.73079563 7.15053971,5.61935088 C7.21677038,5.50790612 7.32480554,5.42756373 7.45059612,5.39620825 C7.71332289,5.32826434 7.98139366,5.48612823 8.04940194,5.74883835 C8.11654078,6.01195 7.9598835,6.27506165 7.69677184,6.34220049 L7.69677184,6.34220049 Z M11.1898058,5.8383568 C11.4247917,5.8383568 11.6153209,5.64782767 11.6153209,5.41858786 C11.6153209,5.18904563 11.4247917,4.99881893 11.1898058,4.99881893 C10.9548199,4.99881893 10.7642908,5.18934806 10.7642908,5.41858786 C10.7642908,5.6481301 10.9548199,5.8383568 11.1898058,5.8383568 Z M11.1898058,5.90549563 C10.9199489,5.90551399 10.7002994,5.68842644 10.6971519,5.41858786 C10.6971519,5.15003252 10.9155044,4.9316801 11.1898058,4.9316801 C11.4583612,4.9316801 11.6824597,5.15003252 11.6824597,5.41858786 C11.6775424,5.68767166 11.4589288,5.90373543 11.1898058,5.90549563 L11.1898058,5.90549563 Z M7.08677621,5.10497087 C7.2162121,5.10414589 7.32093715,4.99942083 7.32176214,4.86998495 C7.32093715,4.74054907 7.2162121,4.63582401 7.08677621,4.63499903 C6.95722224,4.63565908 6.85231454,4.74043194 6.85147811,4.86998495 C6.85091582,4.93253328 6.87553115,4.99268193 6.91978978,5.03688367 C6.96404842,5.08108542 7.02422867,5.10562337 7.08677621,5.10497087 L7.08677621,5.10497087 Z M7.08677621,5.17241214 C6.9186267,5.17241214 6.78434903,5.03783204 6.78434903,4.86998495 C6.78434903,4.70213786 6.9186267,4.56755777 7.08677621,4.56755777 C7.2546233,4.56755777 7.3892034,4.70213786 7.3892034,4.86998495 C7.3892034,5.03783204 7.2546233,5.17241214 7.08677621,5.17241214 Z M7.28274903,4.27117913 C7.41230204,4.27035245 7.5170749,4.16544475 7.51773495,4.03589078 C7.51690997,3.90645489 7.41218491,3.80172984 7.28274903,3.80090485 C7.15319506,3.80156491 7.04828736,3.90633776 7.04746068,4.03589078 C7.04746068,4.16472476 7.15391505,4.27117913 7.28274903,4.27117913 L7.28274903,4.27117913 Z M7.28274903,4.33831796 C7.11459951,4.33831796 6.98032184,4.20373786 6.98032184,4.03589078 C6.98032184,3.86804369 7.11459951,3.73346359 7.28274903,3.73346359 C7.45059612,3.73346359 7.58487379,3.86804369 7.58487379,4.03589078 C7.58487379,4.20373786 7.45059612,4.33831796 7.2824466,4.33831796 L7.28274903,4.33831796 Z M4.37188738,6.47647816 C4.50132326,6.47565317 4.60604832,6.37092812 4.6068733,6.24149223 C4.60621325,6.11193826 4.50144039,6.00703056 4.37188738,6.00620388 C4.24221624,6.00686548 4.13726063,6.1118211 4.13659903,6.24149223 C4.13659903,6.37032621 4.2430534,6.47647816 4.37188738,6.47647816 L4.37188738,6.47647816 Z M4.37188738,6.5381733 C4.20373786,6.5381733 4.06946019,6.40389563 4.06946019,6.23574612 C4.06946019,6.06789903 4.20373786,5.93331893 4.37188738,5.93331893 C4.53973447,5.93331893 4.67431456,6.06789903 4.67431456,6.23574612 C4.67431456,6.40933932 4.53973447,6.5381733 4.37188738,6.5381733 Z M4.56786019,5.63694029 C4.69741321,5.63611361 4.80218607,5.53120591 4.80284612,5.40165194 C4.80202113,5.27221606 4.69729608,5.167491 4.56786019,5.16666602 C4.43830622,5.16732607 4.33339852,5.27209893 4.33257184,5.40165194 C4.33106474,5.4645042 4.35536971,5.52523036 4.39982574,5.5696864 C4.44428177,5.61414243 4.50500794,5.63844739 4.56786019,5.63694029 L4.56786019,5.63694029 Z M4.56786019,5.70407913 C4.39971068,5.70407913 4.26543301,5.56980146 4.26543301,5.40165194 C4.26543301,5.23380485 4.39971068,5.09922476 4.56786019,5.09922476 C4.73570728,5.09922476 4.87028738,5.23380485 4.87028738,5.40165194 C4.87028738,5.56980146 4.72996117,5.70407913 4.56786019,5.70407913 Z M4.91474417,4.90355437 C5.04429815,4.90289432 5.14920584,4.79812146 5.15003252,4.66856845 C5.15047227,4.60652431 5.12564405,4.54697277 5.08126069,4.50361628 C5.03687733,4.46025978 4.97676102,4.43683209 4.91474417,4.43872379 C4.78519116,4.43955047 4.6804183,4.54445816 4.67975825,4.67401214 C4.67975825,4.80284612 4.78591019,4.9038568 4.91474417,4.9038568 L4.91474417,4.90355437 Z M4.91474417,4.9706932 C4.74689709,4.9706932 4.61231561,4.83641553 4.61231561,4.66826602 C4.61207461,4.58801103 4.64386926,4.51097757 4.70064675,4.45425686 C4.75742424,4.39753615 4.83448946,4.36581859 4.91474417,4.36613882 C5.08259126,4.36613882 5.21717136,4.50041893 5.21717136,4.66856845 C5.21717136,4.83641553 5.08259126,4.97099563 4.91474417,4.97099563 L4.91474417,4.9706932 Z M5.47453689,4.2542432 C5.60397278,4.25341822 5.70869783,4.14869316 5.70952282,4.01925728 C5.70886276,3.88970331 5.60408991,3.78479561 5.47453689,3.78396893 C5.34498388,3.78479561 5.24021102,3.88970331 5.23955097,4.01925728 C5.23955097,4.14778883 5.34570291,4.2542432 5.47453689,4.2542432 L5.47453689,4.2542432 Z M5.47453689,4.32138204 C5.30668981,4.32138204 5.17210833,4.18710437 5.17210833,4.01895485 C5.17186733,3.93869986 5.20366198,3.86166641 5.26043947,3.8049457 C5.31721696,3.74822498 5.39428218,3.71650742 5.47453689,3.71682766 C5.64238398,3.71682766 5.77696408,3.85110777 5.77696408,4.01925728 C5.77696408,4.18710437 5.64238398,4.32168447 5.47453689,4.32168447 L5.47453689,4.32138204 Z M6.16316359,3.76189175 C6.29271661,3.76106507 6.39748946,3.65615737 6.39814951,3.5266034 C6.39748946,3.39704943 6.29271661,3.29214173 6.16316359,3.29131505 C6.03349246,3.29197665 5.92853684,3.39693226 5.92786549,3.5266034 C5.92730319,3.58915173 5.95191853,3.64930037 5.99617716,3.69350212 C6.04043579,3.73770386 6.10061605,3.76224182 6.16316359,3.76158932 L6.16316359,3.76189175 Z M6.16316359,3.82872816 C5.99501408,3.82872816 5.86073503,3.69445049 5.86073503,3.52630097 C5.86049403,3.44604598 5.89228868,3.36901252 5.94906617,3.31229181 C6.00584366,3.2555711 6.08290888,3.22385354 6.16316359,3.22417378 C6.33101068,3.22417378 6.46559078,3.35875631 6.46559078,3.5266034 C6.46559078,3.69445049 6.33101068,3.82903058 6.16316359,3.82903058 L6.16316359,3.82872816 Z M6.89624709,3.47065437 C7.02591822,3.46999277 7.13087384,3.36503715 7.13153544,3.23536602 C7.13070876,3.105813 7.02580106,3.00104015 6.89624709,3.0003801 C6.76681121,3.00120508 6.66208615,3.10593014 6.66126117,3.23536602 C6.66060867,3.29791356 6.68514662,3.35809382 6.72934837,3.40235245 C6.77355011,3.44661108 6.83369876,3.47122642 6.89624709,3.47065437 L6.89624709,3.47065437 Z M6.89624709,3.5377932 C6.7284,3.5377932 6.5938199,3.40351553 6.5938199,3.23536602 C6.5938199,3.06751893 6.7284,2.93293883 6.89624709,2.93293883 C7.0643966,2.93293883 7.19867427,3.06751893 7.19867427,3.23536602 C7.20411796,3.40351553 7.0643966,3.5377932 6.89624709,3.5377932 Z M7.65231505,3.5377932 C7.78186806,3.53696652 7.88664092,3.43205883 7.88730097,3.30250485 C7.88647429,3.17295184 7.78156659,3.06817898 7.65201262,3.06751893 C7.52257674,3.06834391 7.41785168,3.17306897 7.4170267,3.30250485 C7.4170267,3.43133883 7.52317864,3.5377932 7.65201262,3.5377932 L7.65231505,3.5377932 Z M7.65231505,3.60493448 C7.48416553,3.60493448 7.34988541,3.47065437 7.34988541,3.30250485 C7.34956411,3.22222509 7.38133265,3.14514427 7.43812786,3.08840585 C7.49492308,3.03166743 7.57203565,2.99997603 7.65231505,3.00037628 C7.81985971,3.00037628 7.95444118,3.13465777 7.95444118,3.30280728 C7.95468219,3.38306227 7.92288754,3.46009573 7.86611005,3.51681644 C7.80933256,3.57353715 7.73226733,3.60525472 7.65201262,3.60493448 L7.65231505,3.60493448 Z M8.20636165,2.90511553 C8.33579753,2.90429055 8.44052259,2.79956549 8.44134757,2.67012961 C8.44052259,2.54069373 8.33579753,2.43596867 8.20636165,2.43514369 C8.07680768,2.43580374 7.97189998,2.5405766 7.9710733,2.67012961 C7.96562961,2.79896359 8.07178155,2.90511553 8.20636165,2.90511553 L8.20636165,2.90511553 Z M8.20636165,2.97225437 C8.03821214,2.97225437 7.90393309,2.8379767 7.90393309,2.66982718 C7.90369208,2.58957219 7.93548673,2.51253874 7.99226422,2.45581803 C8.04904171,2.39909731 8.12610694,2.36737975 8.20636165,2.36769999 C8.37420874,2.36769999 8.50878883,2.50228252 8.50878883,2.67012961 C8.50878883,2.8379767 8.36846262,2.9725568 8.20636165,2.9725568 L8.20636165,2.97225437 Z M8.92281165,2.42939757 C9.05224753,2.42857259 9.15697259,2.32384753 9.15779757,2.19441165 C9.15713752,2.06485768 9.05236467,1.95994998 8.92281165,1.9591233 C8.79314052,1.9597849 8.6881849,2.06474052 8.6875233,2.19441165 C8.6875233,2.3229432 8.79397767,2.42939757 8.92281165,2.42939757 L8.92281165,2.42939757 Z M8.92281165,2.49653641 C8.75466214,2.49653641 8.62038202,2.36225874 8.62038202,2.19410922 C8.62006071,2.11382946 8.65182925,2.03674864 8.70862447,1.98001022 C8.76541968,1.92327179 8.84253225,1.89158039 8.92281165,1.89198065 C9.09065874,1.89198065 9.22523883,2.02626214 9.22523883,2.19441165 C9.22523883,2.36225874 9.09065874,2.49683883 8.92281165,2.49683883 L8.92281165,2.49653641 Z M9.67283107,2.14965243 C9.80238408,2.14882575 9.90715694,2.04391805 9.90781699,1.91436408 C9.90699201,1.7849282 9.80226695,1.68020314 9.67283107,1.67937816 C9.54339519,1.68020314 9.43867013,1.7849282 9.43784515,1.91436408 C9.43784515,2.04319806 9.54399709,2.14965243 9.67283107,2.14965243 L9.67283107,2.14965243 Z M9.67283107,2.21679126 C9.50498398,2.21679126 9.37040388,2.08221117 9.37040388,1.91436408 C9.37040388,1.74651699 9.50498398,1.61193689 9.67283107,1.61193689 C9.84067816,1.61193689 9.97525825,1.74651699 9.97525825,1.91436408 C9.97525825,2.08221117 9.84067816,2.21679126 9.67283107,2.21679126 L9.67283107,2.21679126 Z M11.1898058,4.43902621 C11.3193588,4.43819953 11.4241317,4.33329184 11.4247917,4.20373786 C11.4239668,4.07430198 11.3192417,3.96957692 11.1898058,3.96875194 C11.0603699,3.96957692 10.9556449,4.07430198 10.9548199,4.20373786 C10.9548199,4.33257184 11.0609718,4.43902621 11.1898058,4.43902621 L11.1898058,4.43902621 Z M11.1898058,4.50616749 C11.0219587,4.50616749 10.8873773,4.37188738 10.8873773,4.20373786 C10.8871363,4.12348287 10.9189309,4.04644942 10.9757084,3.98972871 C11.0324859,3.93300799 11.1095511,3.90129043 11.1898058,3.90161067 C11.3576529,3.90161067 11.4922344,4.03589078 11.4922344,4.20404029 C11.4924754,4.28429528 11.4606807,4.36132874 11.4039033,4.41804945 C11.3471258,4.47477016 11.2700605,4.50648773 11.1898058,4.50616749 Z M11.1898058,3.59374223 C11.3192417,3.59291725 11.4239668,3.48819219 11.4247917,3.35875631 C11.4241317,3.22920234 11.3193588,3.12429464 11.1898058,3.12346796 C11.0602528,3.12429464 10.95548,3.22920234 10.9548199,3.35875631 C10.9548199,3.48728786 11.0609718,3.59374223 11.1898058,3.59374223 L11.1898058,3.59374223 Z M11.1898058,3.66088107 C11.0219587,3.66088107 10.8873773,3.5266034 10.8873773,3.35845388 C10.8871363,3.27819889 10.9189309,3.20116544 10.9757084,3.14444472 C11.0324859,3.08772401 11.1095511,3.05600645 11.1898058,3.05632669 C11.3576529,3.05632669 11.492233,3.1906068 11.492233,3.35875631 C11.492233,3.5266034 11.3576529,3.6611835 11.1898058,3.6611835 L11.1898058,3.66088107 Z M11.1898058,2.74301456 C11.3193588,2.74218788 11.4241317,2.63728018 11.4247917,2.50772621 C11.4239668,2.37829033 11.3192417,2.27356527 11.1898058,2.27274029 C11.0603699,2.27356527 10.9556449,2.37829033 10.9548199,2.50772621 C10.9541674,2.57027376 10.9787054,2.63045401 11.0229071,2.67471264 C11.0671088,2.71897128 11.1272575,2.74358661 11.1898058,2.74301456 L11.1898058,2.74301456 Z M11.1898058,2.8101534 C11.0219587,2.8101534 10.8873786,2.6755733 10.8873786,2.50772621 C10.8873786,2.33987913 11.0219587,2.20529903 11.1898058,2.20529903 C11.3576529,2.20529903 11.492233,2.33987913 11.492233,2.50772621 C11.492233,2.6755733 11.3576529,2.8101534 11.1898058,2.8101534 Z M10.4452301,2.02081845 C10.5749012,2.02015685 10.6798568,1.91520123 10.6805184,1.7855301 C10.6796918,1.65597708 10.5747841,1.55120423 10.4452301,1.55054417 C10.3157942,1.55136916 10.2110692,1.65609421 10.2102442,1.7855301 C10.2044981,1.91436408 10.3109524,2.02081845 10.4452301,2.02081845 L10.4452301,2.02081845 Z M10.4452301,2.08795728 C10.277383,2.08795728 10.1428015,1.95367961 10.1428015,1.7855301 C10.1425605,1.7052751 10.1743552,1.62824165 10.2311327,1.57152094 C10.2879102,1.51480023 10.3649754,1.48308266 10.4452301,1.4834029 C10.6133796,1.4834029 10.7476573,1.61768301 10.7476573,1.78583252 C10.744633,1.95126019 10.6109602,2.08523544 10.4452301,2.08795728 Z M18.1196223,6.96368835 C18.0218216,6.90962012 17.9064511,6.89693806 17.7992407,6.92847051 C17.6920303,6.96000297 17.601897,7.03312736 17.5489422,7.13153544 C17.4370442,7.33295194 17.5096267,7.5906199 17.7167893,7.70251796 C17.9239519,7.81441602 18.1813175,7.7418335 18.2932155,7.54011456 C18.3996799,7.33254526 18.3230062,7.07794555 18.1196223,6.96368835 L18.1196223,6.96368835 Z M18.1534942,6.9019932 C18.267674,6.96299857 18.3526479,7.06721201 18.3894189,7.1913353 C18.4261898,7.31545859 18.4116913,7.44914029 18.3491646,7.56249417 C18.2168294,7.79767378 17.9199191,7.88262087 17.6832199,7.7530233 C17.5693494,7.69161151 17.4849857,7.58695619 17.4491432,7.46264525 C17.4133007,7.33833431 17.4289957,7.2048291 17.4926908,7.0922199 C17.6160811,6.85723398 17.9127621,6.77315922 18.1534942,6.90169078 L18.1534942,6.9019932 Z M5.26193058,7.06984029 C5.20023544,6.9019932 5.11616068,6.77890534 4.93712379,6.7284 C5.04902184,5.28431019 5.42403155,4.6235068 6.73958981,3.96330825 C6.85148786,4.00262379 6.85148786,4.01925728 6.85148786,4.04163689 C6.85148786,4.23760971 6.96338592,4.33257184 7.10340971,4.43902621 C6.86842379,4.48922913 6.66126117,4.5956835 6.66126117,4.87573107 C6.66126117,5.11071699 6.81791845,5.23955097 7.02508107,5.2955 C6.95794223,5.42403155 6.94675243,5.47998058 6.95794223,5.62575049 C6.68938689,5.75458447 6.63313544,5.92212913 6.7005767,6.19128932 C6.80128495,6.57718641 7.03627087,6.61650194 7.40583689,6.52123738 C7.46178592,7.1200432 6.79553883,7.34988786 6.47103447,6.9186267 C6.47103447,6.88535971 6.46528835,6.85148786 6.45984466,6.81247476 C6.39983707,6.58456424 6.16767432,6.44731588 5.93906505,6.50460388 C5.82860418,6.53178414 5.73372708,6.6022701 5.67581213,6.70017937 C5.61789717,6.79808865 5.60181673,6.91518414 5.63119417,7.02508107 C5.6481301,7.09766359 5.6871432,7.15935874 5.73764854,7.21561019 C5.76002816,7.4282165 5.66506602,7.62993544 5.47453689,7.73034126 C5.27856408,7.83679563 5.12735049,7.79203641 4.93712379,7.72489757 C5.24499466,7.5794301 5.40165194,7.43366019 5.26193058,7.06984029 L5.26193058,7.06984029 Z M5.28431019,5.50810631 C5.15547621,5.83291311 5.08833738,6.2021767 5.04902184,6.65581748 C5.20598155,6.72295631 5.30094369,6.87961359 5.36263883,7.03627087 C5.45215728,7.27700291 5.4579034,7.52317864 5.19479175,7.70796165 C5.27312039,7.71370777 5.35144903,7.69677184 5.42403155,7.65775874 C5.56383416,7.58051605 5.6482709,7.43117296 5.64238398,7.27155922 C5.59181399,7.21140451 5.55552249,7.14057922 5.53623204,7.0643966 C5.46560563,6.78320204 5.63573202,6.49785491 5.91668544,6.42627524 C6.05255825,6.3904466 6.19712003,6.41051407 6.31809624,6.48199743 C6.43907245,6.55348079 6.5263894,6.67042762 6.56055291,6.80672864 L6.57718641,6.89624709 C6.81791845,7.18748447 7.29938252,7.03627087 7.32176214,6.65581748 C6.87961359,6.74533592 6.68938689,6.52123738 6.61650194,6.22455631 C6.54936311,5.97263447 6.57718641,5.72645874 6.86842379,5.56980146 C6.86842379,5.49117039 6.87961359,5.41858786 6.90169078,5.35689272 C6.7409728,5.28940906 6.62378951,5.14711506 6.58837621,4.97643932 C6.33645437,5.03238835 6.05126553,5.10497087 5.81597718,5.19479175 C5.58099126,5.28431019 5.40739806,5.39620825 5.28431019,5.50810631 L5.28431019,5.50810631 Z M6.75652573,4.06946019 C6.02313981,4.45021602 5.59218107,4.83641553 5.34025922,5.37927233 C5.47426144,5.27963351 5.6211715,5.19864985 5.77696408,5.13854029 C6.01195,5.04902184 6.30863107,4.9706932 6.56025049,4.91474417 L6.56025049,4.88147718 C6.56025049,4.66282233 6.69483058,4.47259563 6.8908034,4.39426699 C6.81035118,4.30445514 6.76297833,4.18986406 6.75652573,4.06946019 L6.75652573,4.06946019 Z M16.9105184,7.74153107 C16.7148481,7.63537913 16.6250272,7.43910388 16.6474068,7.22649757 C16.6979121,7.17054854 16.7314816,7.10915583 16.7538612,7.03627087 C16.7826368,6.92639904 16.7662933,6.80958297 16.7084691,6.71182708 C16.6506449,6.61407119 16.5561393,6.54348932 16.4459903,6.51579369 C16.2164481,6.45984466 15.9814621,6.59412233 15.9255131,6.82366456 C15.9143233,6.85693155 15.9143233,6.8908034 15.9143233,6.9298165 C15.5895165,7.36107767 14.9235718,7.13153544 14.9795209,6.53242718 C15.3487845,6.62194563 15.5840728,6.58293252 15.6847811,6.2021767 C15.7573636,5.92787524 15.6959709,5.76002816 15.4274155,5.63663786 C15.4386053,5.4857267 15.4274155,5.43522136 15.3599743,5.30668981 C15.5616932,5.24499466 15.7237942,5.11616068 15.7237942,4.88117476 C15.7237942,4.60142961 15.5111879,4.49497524 15.2762019,4.4444699 C15.4159233,4.33831796 15.5281238,4.2430534 15.5281238,4.04708058 C15.5281238,4.03044709 15.5281238,4.01381359 15.5223777,3.99687767 L15.6176422,3.96875194 C16.9274544,4.61806311 17.3305898,5.30094369 17.4424879,6.73414612 C17.263451,6.79009515 17.1848199,6.91318301 17.1176811,7.07558641 C16.9779597,7.43940631 17.1400607,7.58487379 17.4533752,7.74153107 C17.2577049,7.80322621 17.1064913,7.84798544 16.9105184,7.74153107 L16.9105184,7.74153107 Z M15.8078689,4.97643932 C15.7725531,5.14716176 15.6553369,5.28949581 15.4945544,5.35689272 C15.516934,5.41858786 15.5278214,5.49147282 15.5278214,5.56980146 C15.8190587,5.72101505 15.8414383,5.97263447 15.7800456,6.22455631 C15.7014146,6.52123738 15.516934,6.74533592 15.074483,6.65581748 C15.0968626,7.03627087 15.5783267,7.18748447 15.8190587,6.89624709 C15.8190587,6.86842379 15.8248049,6.83485437 15.8359947,6.80672864 C15.9103634,6.52524449 16.1970902,6.35574149 16.4795597,6.42627524 C16.6554363,6.46924132 16.7965167,6.60022572 16.8523997,6.77243417 C16.9082827,6.94464262 16.8709963,7.13350847 16.7538612,7.27155922 C16.7372277,7.52317864 16.949834,7.72489757 17.1960097,7.70796165 C16.9328981,7.52348107 16.9328981,7.27700291 17.0281626,7.0365733 C17.0898578,6.87931117 17.1848199,6.72295631 17.3360335,6.65551505 C17.296718,6.2021767 17.2295791,5.82716699 17.1010476,5.50266262 C16.948225,5.3713606 16.7740242,5.26722884 16.5860141,5.19479175 C16.345282,5.10497087 16.0597908,5.03238835 15.8078689,4.97643932 L15.8078689,4.97643932 Z M15.6233883,4.0528267 C15.617929,4.17675603 15.5704685,4.29514054 15.4888083,4.38852087 C15.6847811,4.46715194 15.8190587,4.65737864 15.8190587,4.87542864 L15.8190587,4.90930049 C16.0821704,4.96524951 16.3564718,5.03783204 16.6026476,5.1330966 C16.7577517,5.19467446 16.9044762,5.27555586 17.0393524,5.37382864 C16.7874306,4.83641553 16.3564718,4.4444699 15.6230859,4.0528267 L15.6233883,4.0528267 Z M14.0894777,8.55899175 L13.3449019,8.04395825 L14.246135,7.94869369 L14.9907107,8.46372718 L14.0894777,8.55899175 Z M12.6955908,8.25656456 C12.5277437,8.25656456 12.3931622,8.12228689 12.3931622,7.95413738 C12.3929212,7.87388239 12.4247159,7.79684893 12.4814934,7.74012822 C12.5382708,7.68340751 12.6153361,7.65168994 12.6955908,7.65201018 C12.8634379,7.65201018 12.998018,7.78629029 12.998018,7.95443981 C13.0034617,8.12228689 12.8634379,8.25686699 12.6955908,8.25686699 L12.6955908,8.25656456 Z M12.6955908,8.18942573 C12.8250267,8.18860075 12.9297517,8.08387569 12.9305767,7.95443981 C12.9299166,7.82488583 12.8251438,7.71997814 12.6955908,7.71915146 C12.5660378,7.71997814 12.4612649,7.82488583 12.4606049,7.95443981 C12.4606049,8.08297136 12.5667568,8.18942573 12.6955908,8.18942573 L12.6955908,8.18942573 Z M6.76771553,8.97301456 C6.89715142,8.97218958 7.00187647,8.86746452 7.00270146,8.73802864 C7.00187647,8.60859276 6.89715142,8.5038677 6.76771553,8.50304272 C6.63816156,8.50370277 6.53325386,8.60847563 6.53242718,8.73802864 C6.53242718,8.86686262 6.63888155,8.97301456 6.76771553,8.97301456 L6.76771553,8.97301456 Z M6.76771553,9.03470971 C6.59956602,9.03470971 6.46528835,8.90043204 6.46528835,8.73228252 C6.46528835,8.56443544 6.59956602,8.42985534 6.76771553,8.42985534 C6.93556262,8.42985534 7.07014272,8.56443544 7.07014272,8.73228252 C7.07014272,8.90587573 6.93556262,9.03470971 6.76771553,9.03470971 Z M9.67857718,8.18942573 C9.80801307,8.18860075 9.91273812,8.08387569 9.91356311,7.95443981 C9.91290306,7.82488583 9.8081302,7.71997814 9.67857718,7.71915146 C9.54890605,7.71981306 9.44395044,7.82476867 9.44328883,7.95443981 C9.44328883,8.08297136 9.5497432,8.18942573 9.67857718,8.18942573 L9.67857718,8.18942573 Z M9.67857718,8.25656456 C9.51042767,8.25656456 9.37614755,8.12228689 9.37614755,7.95413738 C9.37582625,7.87385762 9.40759478,7.79677679 9.46439,7.74003837 C9.52118522,7.68329995 9.59829779,7.65160855 9.67857718,7.6520088 C9.84642427,7.6520088 9.98070194,7.78629029 9.98070194,7.95443981 C9.98070194,8.12228689 9.84642427,8.25686699 9.67827476,8.25686699 L9.67857718,8.25656456 Z M15.60615,8.97331699 C15.7358211,8.97265539 15.8407767,8.86769978 15.8414383,8.73802864 C15.8406134,8.60859276 15.7358883,8.5038677 15.6064524,8.50304272 C15.4768985,8.50370277 15.3719908,8.60847563 15.3711641,8.73802864 C15.3711641,8.86686262 15.4776184,8.97301456 15.6064524,8.97301456 L15.60615,8.97331699 Z M15.60615,9.03471108 C15.525895,9.03495209 15.4488616,9.00315744 15.3921408,8.94637995 C15.3354201,8.88960246 15.3037026,8.81253723 15.3040228,8.73228252 C15.3040228,8.56443544 15.4386053,8.42985534 15.6064524,8.42985534 C15.7742995,8.42985534 15.9088796,8.56443544 15.9088796,8.73228252 C15.9088796,8.90587573 15.7742995,9.03471108 15.6064524,9.03471108 L15.60615,9.03471108 Z M8.28469029,8.55868932 L7.38345728,8.46342476 L8.12803301,7.94839126 L9.02926602,8.04365583 L8.28499272,8.55868932 L8.28469029,8.55868932 Z M11.9401277,7.88125243 L11.1843621,7.60150728 L10.428899,7.88125243 L11.1843621,8.16099757 L11.9404301,7.88125243 L11.9401277,7.88125243 Z M12.1361005,7.88125243 L11.1898058,8.23418495 L10.2438136,7.88155485 L11.1898058,7.52892476 L12.1357981,7.88155485 L12.1361005,7.88125243 Z" id="Shape"></path>
            </g>
        </g>
    </g>
</svg>