<svg width="240" height="240" xmlns="http://www.w3.org/2000/svg"><path d="M229.313.465a7.99 7.99 0 0 1 8.332 1.883 7.99 7.99 0 0 1 1.882 8.332l-80 224a8.002 8.002 0 0 1-7.527 5.312h-.258a7.993 7.993 0 0 1-7.437-5.8l-20.578-72.04-56.91 21.344A8.156 8.156 0 0 1 64 184a8.006 8.006 0 0 1-6.598-3.45 8.009 8.009 0 0 1-.898-7.39l21.344-56.914-72.04-20.574a8.002 8.002 0 0 1-5.76-7.422 8.001 8.001 0 0 1 5.266-7.777l224-80zm-16.81 38.344l-83.519 83.52 23.817 83.51 59.703-167.03zM93.29 120.727l-15.617 41.601 41.64-15.574-5.785-20.242-20.238-5.785zm107.902-93.192L34.161 87.2l83.51 23.817 83.52-83.48z"/></svg>