<svg xmlns="http://www.w3.org/2000/svg" xmlns:xlink="http://www.w3.org/1999/xlink" viewBox="0 0 388.95 383.77"><defs><linearGradient id="b" x1="137.03" y1="118.99" x2="137.03" y2="308.03" gradientUnits="userSpaceOnUse"><stop offset="0" stop-color="#ea2127"/><stop offset="1" stop-color="#b41f30"/></linearGradient><linearGradient id="c" x1="193.85" y1="269.99" x2="193.85" y2="399.01" gradientUnits="userSpaceOnUse"><stop offset=".3" stop-color="#bb212a"/><stop offset=".97" stop-color="#9a1b3e"/></linearGradient><linearGradient id="d" x1="148.31" y1="158.49" x2="148.31" y2="422.49" gradientUnits="userSpaceOnUse"><stop offset=".2" stop-color="#f5c770"/><stop offset="1" stop-color="#c48242"/></linearGradient><linearGradient id="a" x1="153.27" y1="53.03" x2="293.15" y2="53.03" gradientUnits="userSpaceOnUse"><stop offset="0" stop-color="#edbe69"/><stop offset=".78" stop-color="#c88648"/></linearGradient><linearGradient id="e" x1="190.42" y1="5.76" x2="202.42" y2="5.76" xlink:href="#a"/><linearGradient id="f" x1="233.5" y1="23.55" x2="241.96" y2="23.55" xlink:href="#a"/><linearGradient id="g" x1="149.74" y1="23.55" x2="158.21" y2="23.55" xlink:href="#a"/><linearGradient id="h" x1="265.47" y1="45.6" x2="271.4" y2="45.6" xlink:href="#a"/><linearGradient id="i" x1="118.89" y1="45.6" x2="124.82" y2="45.6" xlink:href="#a"/><linearGradient id="j" x1="339.25" y1="90.98" x2="339.25" y2="352.72" gradientUnits="userSpaceOnUse"><stop offset=".26" stop-color="#ec2127"/><stop offset=".5" stop-color="#dd202a"/><stop offset=".98" stop-color="#b51f32"/><stop offset="1" stop-color="#b31f32"/></linearGradient></defs><path d="M91.67 306.08V127.81h90.72c-.27 136.72-33.86 187.51-90.72 178.27z" fill-rule="evenodd" fill="url(#b)"/><path d="M296 249.89c0 54.73-5.21 89.08-30.65 109-33 25.83-91.47 30.07-132.1 19.5-21.75-5.65-41.6-17.62-41.6-38v-1.88C145.08 350 192.44 343 233.5 317c23.04-14.65 47-34.94 62.5-67.11z" fill-rule="evenodd" fill="url(#c)"/><path d="M296.63 127.81h-88.48Q206.33 333 91.67 319.36c-49-7-71.1-43.9-71-105.61V113.4h28.72c23.41 0 34.48-2.29 49.36-23.24H0v102.71c0 63.29 18.53 124.49 91.67 136.79 60.09 7 106.56-10.3 140.32-36.77 22.26-17.46 37.11-40.45 47-63.87 13.24-31.25 17.64-67.46 17.64-101.21z" fill-rule="evenodd" fill="url(#d)"/><path d="M150 91.4q44.18-22.41 88.35 0 12.91-19.49 25.82-39c-16.45 7-24.66-4.18-30.56-20.47-15.61 10.52-29.11 6.93-39.45-17.26C186.84 34.37 175 43 154.89 32c-5.95 18.86-15.88 26.38-30.62 20.2z" fill-rule="evenodd" fill="url(#a)"/><path d="M194.16 11.52a5.9 5.9 0 0 0 6-5.76 6 6 0 0 0-12 0 5.89 5.89 0 0 0 6 5.76z" fill-rule="evenodd" fill="url(#e)"/><path d="M238.43 18.2c2 .79 2.72 3.84 1.55 6.8s-3.75 4.71-5.77 3.91-2.73-3.84-1.56-6.8 3.75-4.71 5.78-3.91z" fill-rule="evenodd" fill="url(#f)"/><path d="M149.88 18.2c-2 .79-2.72 3.84-1.55 6.8s3.75 4.71 5.78 3.91 2.72-3.84 1.55-6.8-3.75-4.71-5.78-3.91z" fill-rule="evenodd" fill="url(#g)"/><path d="M269.07 41.85c1.42.56 1.91 2.69 1.09 4.77s-2.63 3.3-4.05 2.74-1.91-2.7-1.09-4.77 2.63-3.3 4.05-2.74z" fill-rule="evenodd" fill="url(#h)"/><path d="M119.24 41.85c-1.41.56-1.9 2.69-1.09 4.77s2.63 3.3 4 2.74 1.91-2.7 1.09-4.77-2.58-3.3-4-2.74z" fill-rule="evenodd" fill="url(#i)"/><path d="M389 90.16v90.47c0 64.32-30.22 122.28-80.89 148.53 41.07-41 59.28-95.47 59.28-152.54V113.4h-40c-17.17 0-27.77-9.05-37.85-23.24z" fill-rule="evenodd" fill="url(#j)"/></svg>