<svg width="90" height="81" xmlns="http://www.w3.org/2000/svg"><path d="M36.924 13.642c-4.657.951-9.611 3.037-9.611 3.037 2.453-3.341 7.432-7.434 7.432-7.434-1.37-2.574-2.583-6.385-2.583-6.385s5.758.316 10.265 1.779c0 0 7.657-4.197 15.591-4.326 0 0-5.783 3.339-8.24 6.448.652.343 5.277 1.727 8.879 3.85 0 0-6.512.184-12.488 1.002 0 0-2.104 2.968-3.883 9.723-.001 0-3.065-3.375-5.362-7.694z"/><path d="M67.861 19.235c-3.943-4.386-9.205-8.624-9.205-8.624 4.84.069 12.023 2.925 12.023 2.925 1.404-2.654 2.387-6.306 2.387-6.306s2.748 4.651 3.996 9.794c0 0 5.705 3.416 10.01 9.133 0 0-4.492-.937-7.799-.921-.01.738 1.213 6.806.947 10.978 0 0-3.662-5.951-7.098-10.908 0 0-5.523.1-11.326 1.686.001 0 3.251-3.754 6.065-7.757zm6.319 28.589c2.908-4.903 6.041-11.609 6.041-11.609.961 4.485 1.047 10.207 1.047 10.207 2.885-.608 7.992-3.058 7.992-3.058s-2.275 6.06-7.375 10.707c0 0 .516 3.631.576 8.422 0 0-3.607-1.607-6.598-3.404-.637.371-4.252 2.83-10.359 4.094 0 0 2.586-4.04 4.725-7.986 0 0-4.258-2.805-7.631-7.402 0-.001 6.558.827 11.582.029zM45.609 37.819c4.461 5.526 8.988 9.976 8.988 9.976-7.396-1.099-13.401-3.173-13.401-3.173-3.004 4.816-6.282 10.415-6.282 10.415s-1.833-6.074-2.143-12.968c0 0-3.715-1.3-10.562-3.996 0 0 4.723-2.932 10.439-4.531-.334-.659.542-8.855 1.638-12.205 0 0 3.333 5.403 6.047 9.375 0 0 5.312-1.802 13.465-3.72-.001 0-4.462 5.661-8.189 10.827zM5 58.721a39.903 39.903 0 0 1-1.255-2.581c.078-2.931.34-6.706 1.09-9.634 0 0-2.149-1.491-4.371-3.429C.439 42.74.41 42.4.391 42.059c1.276-.476 3.985-1.433 6.351-1.981.271-.689 1.744-5.436 4.591-8.711 0 0 .192 3.227.966 7.523 0 0 4.494-1.018 9.909-.819 0 0-5.018 3.952-8.178 7.967 1.146 4.629 3.452 9.072 3.452 9.072-3.446-1.95-7.091-4.533-7.091-4.533-1.28 1.522-3.853 5.628-5.391 8.144zM33.667 79.74a34.09 34.09 0 0 1-1.665-.343c-1.881-2.017-4.75-5.31-6.941-8.771 0 0-8.082-.652-13.777-3.146 0 0 4.71-.885 9.882-3.552-.334-.659-2.306-4.295-3.685-8.816 0 0 4.94 3.991 8.6 6.327 0 0 4.651-2.676 8.832-6.402 0 0-1.06 5.15-1.647 11.032a319.505 319.505 0 0 0 8.17 4.509c-4.217.614-8.368.485-8.368.485-.164 3.266.275 6.699.599 8.677zm35.161-10.502c-7.119 6.752-16.687 10.966-27.274 11.139-.443.006-.891.003-1.331-.003 0 0 3.1-1.905 6.454-4.756a127.8 127.8 0 0 1-5.241-5.039s4.954.583 9.407.647c3.771-3.943 6.66-8.043 6.66-8.043.27 4.021.311 7.732.311 7.732 5.44-.204 11.014-1.677 11.014-1.677zM.881 33.093C2.568 22.992 8 14.121 15.718 8.001c0 0-1.902 4.464-2.744 8.624 0 0 2.709-.177 6.339.054 0 0-4.377 2.905-7.553 5.713-.406 5.482-.427 8.976-.427 8.976-2.836-2.859-3.998-5.005-3.998-5.005-3.476 3.016-6.454 6.73-6.454 6.73z"/></svg>