<svg width="32" height="32" xmlns="http://www.w3.org/2000/svg"><g fill="none"><path d="M31.04 15.961c0-1.898-.342-3.716-.966-5.397l-14.55-.673-14.55.674A15.482 15.482 0 0 0 .01 15.96c0 1.898.341 3.716.965 5.397l14.55.674 14.55-.674c.624-1.68.965-3.5.965-5.397z" fill="#F0F0F0"/><path d="M15.525 31.476c6.67 0 12.357-4.21 14.55-10.118H.973c2.192 5.908 7.88 10.118 14.55 10.118z" fill="#0052B4"/><path d="M.974 10.564h29.1C27.883 4.656 22.196.446 15.524.446c-6.67 0-12.358 4.21-14.55 10.118z" fill="#D80027"/><path d="M19.571 11.239h-2.697l.449-3.373 1.8-1.35 1.798 1.35v2.698l-1.35.675zm-8.095 0h2.699l-.45-3.373-1.798-1.35-1.799 1.35v2.698l1.348.675z" fill="#338AF3"/><path fill="#0052B4" d="M17.323 11.239h-3.598V7.866l1.8-1.35 1.799 1.35z"/><path d="M10.128 10.564v7.421a5.39 5.39 0 0 0 2.17 4.323l.944-.237 1.192 1.2a5.4 5.4 0 0 0 2.175 0l1.36-1.132.782.167a5.39 5.39 0 0 0 2.17-4.321v-7.421H10.128z" fill="#F0F0F0"/><path d="M10.128 10.565h2.158v2.158h-2.158v-2.158zm4.317 0h2.158v2.158h-2.158v-2.158zm4.317 0h2.158v2.158h-2.158v-2.158zm-6.476 2.157h2.159v2.16h-2.159v-2.16zm4.317 0h2.159v2.16h-2.159v-2.16zm-6.475 2.159h2.158v2.159h-2.158v-2.16zm2.158 2.159h2.159v2.158h-2.159V17.04zm2.159-2.159h2.158v2.159h-2.158v-2.16zm4.317 0h2.158v2.159h-2.158v-2.16zm-2.159 2.159h2.159v2.158h-2.159V17.04zm-2.158 2.158h2.158v2.159h-2.158v-2.159zm-2.159 0h-2.019a5.38 5.38 0 0 0 1.048 2.159h.971v-2.159zm6.476 2.159h.97a5.379 5.379 0 0 0 1.05-2.159h-2.02v2.159zm-6.476 0v.942a5.375 5.375 0 0 0 2.159.974v-1.916h-2.159zm4.317 0v1.916a5.372 5.372 0 0 0 2.159-.974v-.942h-2.159z" fill="#D80027"/></g></svg>