<svg width="32" height="32" xmlns="http://www.w3.org/2000/svg"><g fill="none"><circle fill="#F0F0F0" cx="16" cy="16" r="16"/><path d="M32 16c0 8.837-7.163 16-16 16S0 24.837 0 16" fill="#496E2D"/><path d="M27.688 11.134a4.175 4.175 0 0 0-3.936-2.786h-3.578A4.174 4.174 0 0 0 16 12.522c0 .753.2 1.477.55 2.087-1.33-.011-2.559.009-3.333 0v-4.09l.165-.164c.738-.738.492-1.968.492-1.968s-1.23-.246-1.968.492l-.86.86h-.96a3.826 3.826 0 0 0-3.825 3.826h2.782v3.13c0 .459.093.895.26 1.292l-.955.796H6.956V17.39h-1.39v2.783h6.26v2.783h-1.391v1.39h2.782v-2.782l1.276-1.53h3.014l1.276 1.53v1.392H17.39v1.39h5.565v-7.651a2.087 2.087 0 0 1 2.176-2.085 2.786 2.786 0 0 1 2.556-3.477zm-7.514 11.822v-2.921h.116l1.275 1.53v1.391h-1.391z" fill="#D80027"/></g></svg>