<svg width="74" height="103" xmlns="http://www.w3.org/2000/svg"><path d="M72.621 65.777c0 19.71-16.19 35.827-36.08 35.827-19.89 0-36.079-16.118-36.079-35.827 0-19.745 16.19-35.863 36.08-35.863 19.89 0 36.079 16.118 36.079 35.863zm-1.047 0c0-19.186-15.72-34.834-35.033-34.834C17.23 30.943 1.51 46.59 1.51 65.777c0 19.15 15.72 34.78 35.032 34.78 19.313 0 35.033-15.648 35.033-34.78zm-65.59 0c0 16.695 13.754 30.34 30.557 30.34 16.804 0 30.557-13.645 30.557-30.34 0-16.731-13.753-30.34-30.557-30.34-16.803 0-30.556 13.609-30.556 30.34zm-1.046 0c0-17.309 14.204-31.369 31.603-31.369 17.381 0 31.604 14.078 31.604 31.37 0 17.254-14.205 31.368-31.604 31.368-17.38 0-31.603-14.114-31.603-31.369zm35.285-6.93l17.093 17.507c1.949-3.195 2.924-6.462 2.924-10.956 0-7.87-4.44-15.035-8.754-18.211l-2.581 2.617c2.057 1.624 3.52 3.375 4.855 5.595l-4.747 4.079c-1.137-2.202-2.328-3.808-4.368-5.27l-4.422 4.638zm21.659 22.181c-3.086 5.198-7.761 9.295-13.338 11.75l-2.762-2.816-5.162-5.252c-1.173.253-2.4.415-3.627.451v4.386H31.09v-5.053C22.21 82.11 16.092 73.863 16.2 64.893a17.44 17.44 0 0 1 .595-4.35L13.872 57.6c-.866 2.419-1.353 5.036-1.462 7.797-.162 5.56 2.274 11.57 6.335 15.396l-4.26 4.313c-5.017-5.595-7.76-11.894-7.76-19.474 0-11.064 6.1-20.702 15.702-26.045l6.877 7.13c2.274-.813 4.855-1.228 7.237-1.228 2.563.036 4.892.488 6.95 1.246l7.002-7.22c9.674 5.324 15.775 14.98 15.775 26.117 0 5.685-1.516 10.81-4.386 15.395zm-30.81-5.956l-8.825-8.934c.216 5.018 3.285 9.728 8.826 11.84v-2.906zm12.906-27.344l-.235.235c-2.4-.903-4.62-1.372-7.202-1.408-2.58 0-5.09.487-7.508 1.408l-6.804-7.04C13.619 45.87 7.772 55.147 7.772 65.67c0 6.949 2.49 13.013 6.75 17.94l2.743-2.78c-2.364-2.436-6.118-8.23-5.902-15.449.29-8.176 3.682-14.439 10.017-19.583l4.08 4.205c-4.838 3.628-8.159 8.7-8.249 14.927-.108 9.06 6.173 16.623 14.89 18.789v4.837h3.809v-4.368c5.721-.036 11.154-2.238 14.926-6.588l-2.96-2.96c-2.87 3.159-7.562 5.685-11.984 5.469v-4.783h5.956v-3.34h-5.956v-3.79h6.046v-2.923h-9.855v14.204c-6.461-2.13-11.063-7.057-10.92-14.114.11-5.324 2.654-9.602 6.968-12.598l8.32 8.537 8.032-8.41c2.021 1.371 3.592 2.869 4.819 4.999l3.086-2.635c-1.39-2.184-3.014-3.736-5.09-5.27l4.025-4.098c6.119 4.188 9.945 12.31 9.945 19.583 0 6.787-2.292 11.046-5.83 15.324l3.141 3.122a28.107 28.107 0 0 0 6.606-18.175c0-10.595-5.848-19.872-14.53-24.817l-6.677 6.804zm-12.039 3.267c1.426-.325 2.888-.668 4.35-.595 1.57.054 2.996.324 4.494.74l-4.278 4.494-4.566-4.639zm2.076.614l2.472 2.509 2.31-2.419a14.839 14.839 0 0 0-2.544-.27c-.56-.019-1.39.053-2.238.18zm18.373-21.081l.217.83.09.307.163-.09.794-.434-.199-.83-.036-.18-1.029.397zm1.57-1.516a.704.704 0 0 0 .885-.957l-.163-.325c1.083.325 1.878.325 2.816-.397.758.506 1.444.397 2.13-.126.668-.524 1.083-1.534.289-2.202.613-.794.631-1.66-.29-2.238.163-.27.272-.487.272-.812 0-.903-.686-1.246-1.426-1.408.451-.343.812-.65.812-1.282 0-.92-.722-1.3-1.516-1.39.216-.324.379-.559.379-.974 0-.758-.614-1.372-1.372-1.372-.234 0-.47.072-.686.145.145-.307.271-.524.271-.885 0-.757-.614-1.371-1.372-1.371-.379 0-.595.126-.902.288.018-.162.072-.36.072-.523 0-.758-.614-1.372-1.372-1.372-.415 0-.667.163-.992.38-.163-.705-.56-1.3-1.39-1.3-.614 0-.957.325-1.263.794-.325-.361-.632-.596-1.156-.596-.216 0-.415.054-.613.109.108-.271.198-.488.198-.777 0-.757-.614-1.371-1.371-1.371-.434 0-.686.18-1.03.397a2.79 2.79 0 0 0 .073-.56 1.372 1.372 0 0 0-1.372-1.371c-.433 0-.686.18-1.029.415-.162-.722-.559-1.318-1.39-1.318-.505 0-.793.235-1.136.56-.271-.56-.65-.993-1.336-.993-.198 0-.36.054-.541.108-.434-.487-.795-.686-1.408-.848V3.996h1.155v-.794h-1.155V2.173h-.92v1.029h-1.192v.848h1.155v1.444c-.595.163-.974.38-1.39.848a1.38 1.38 0 0 0-.541-.108c-.704 0-1.065.415-1.336.993-.343-.325-.631-.56-1.137-.56-.848 0-1.227.596-1.39 1.318-.342-.253-.595-.433-1.046-.433-.758 0-1.372.614-1.372 1.371 0 .18.054.397.09.56-.343-.217-.595-.397-1.029-.397-.757 0-1.371.614-1.371 1.372 0 .288.108.505.198.776-.198-.054-.397-.109-.613-.109-.524 0-.83.253-1.155.596-.307-.47-.65-.794-1.264-.794-.83 0-1.227.595-1.39 1.3-.325-.217-.577-.38-.992-.38-.758 0-1.372.614-1.372 1.372 0 .162.036.361.072.523-.307-.162-.541-.288-.902-.288-.758 0-1.372.614-1.372 1.371 0 .343.126.578.27.885-.234-.054-.45-.145-.685-.145-.758 0-1.372.615-1.372 1.372 0 .415.163.65.38.975-.831.054-1.553.45-1.553 1.371 0 .632.343.939.794 1.282-.758.162-1.426.505-1.426 1.408 0 .325.109.541.271.812-.902.56-.902 1.426-.289 2.238-1.317 1.083.686 3.501 2.419 2.328.938.722 1.732.722 2.815.397-.144.307-.324.578-.162.92.162.362.56.506.902.344a40.842 40.842 0 0 1 17.381-3.845c6.227 0 12.165 1.372 17.454 3.845zm-33.263 1.516l-.74-.27-.29-.091-.035.18-.217.813.794.433.18.108.073-.325.235-.848zm-.47 1.3l-1.046-.578.252-1.047c-.397-.054-.595-.523-.415-.83a1.029 1.029 0 0 1-1.083-.578 1.059 1.059 0 0 1-.09-.577 2.962 2.962 0 0 1-2.292-.488c-1.86 1.101-4.043-1.534-2.852-2.761-.523-.794-.397-1.769.289-2.292a1.691 1.691 0 0 1 .902-2.293 1.632 1.632 0 0 1-.433-1.119c0-.794.56-1.462 1.3-1.642a1.75 1.75 0 0 1-.145-.704 1.68 1.68 0 0 1 1.697-1.679l.162.019a1.679 1.679 0 0 1 1.643-2.094c.18 0 .36.036.505.072 0-.92.758-1.678 1.697-1.678a1.6 1.6 0 0 1 .776.198 1.702 1.702 0 0 1 2.906-.505 1.706 1.706 0 0 1 1.119-.415h.108a1.679 1.679 0 0 1 1.66-2.04c.217 0 .434.036.632.126a1.698 1.698 0 0 1 2.527-1.443 1.686 1.686 0 0 1 1.588-1.101c.397 0 .758.126 1.047.36.307-.469.83-.776 1.444-.776.162 0 .307.018.451.055a2.68 2.68 0 0 1 .993-.668l.18-.054v-.92h-1.155v-1.5h1.155V1.848h1.57v1.03h1.156v1.497h-1.155v.885l.18.054c.38.144.722.379.993.667.144-.036.289-.054.451-.054.614 0 1.137.307 1.426.776.289-.216.65-.36 1.047-.36.74 0 1.353.45 1.588 1.1a1.83 1.83 0 0 1 .83-.216c.939 0 1.679.74 1.697 1.66a1.691 1.691 0 0 1 2.328 1.553c0 .126-.018.234-.036.36h.126c.433 0 .812.163 1.12.416a1.673 1.673 0 0 1 1.317-.614c.74 0 1.354.47 1.588 1.119a1.679 1.679 0 0 1 2.473 1.48 1.67 1.67 0 0 1 .523-.072 1.69 1.69 0 0 1 1.697 1.678c0 .145-.018.29-.054.415h.144a1.69 1.69 0 0 1 1.697 1.679c0 .253-.054.505-.163.722.74.18 1.3.848 1.3 1.642 0 .434-.163.83-.433 1.12a1.686 1.686 0 0 1 .902 2.292c.686.523.812 1.498.289 2.292.758.776.108 2.003-.524 2.49-.613.488-1.48.777-2.31.271-.65.47-1.48.65-2.292.488.09.667-.505 1.263-1.173 1.155.18.307-.018.776-.397.83l.252 1.047-1.046.577c.144.163.18.415.072.614a.578.578 0 0 1-.776.307A36.679 36.679 0 0 0 36.54 29.3c-5.595 0-10.865 1.228-15.612 3.448-.307.144-.631-.018-.776-.307a.55.55 0 0 1 .072-.614zm.722-1.445l-.325 1.282.109.216c-.054.037-.127.055-.18.109-.091.09-.163.18-.091.325.072.144.217.198.343.144 4.783-2.238 10.107-3.483 15.757-3.483 5.649 0 10.973 1.245 15.756 3.483.253.108.65-.307.054-.578l.109-.216-.325-1.282 1.119-.415.09-.18c.09.036.162.054.235.072.306.036.288-.307.126-.379a40.347 40.347 0 0 0-17.146-3.79c-6.137 0-11.949 1.353-17.147 3.79-.144.072-.162.415.127.379a.485.485 0 0 0 .234-.072l.09.18 1.065.415zm25.774-14.926c-1.336-3.339-4.476-5.757-8.681-5.523 0 .289-.09.578-.235.794v1.137a1.467 1.467 0 0 1 0 1.589v.722c2.888-.38 6.263-.09 8.916 1.281zm-8.916-.848a1.462 1.462 0 0 1-.325 1.949c.505.18.902.542 1.065 1.227 1.029.253 1.3 1.011 1.3 1.841 0 .993-.398 1.841-1.86 1.914a1.354 1.354 0 1 0 2.563.036c-.018-.145-.036-.29-.036-.434 0-.938.758-1.696 1.715-1.696.938 0 1.696.758 1.696 1.696a1.8 1.8 0 0 1-.198.813 1.38 1.38 0 0 0 1.01 1.227 1.364 1.364 0 0 0 1.48-.596c-1.39-.433-1.57-1.353-1.317-2.31.217-.812.668-1.48 1.733-1.462.198-.379.451-.614.758-.758a12.897 12.897 0 0 0-.56-2.292c-2.707-1.498-6.263-1.769-9.024-1.354v.199zM35.35 9.952c0 .27.09.488.235.704v1.336c-.145.216-.235.433-.235.704 0 .27.09.487.235.704v1.335c-.145.217-.235.433-.235.704 0 .776.578 1.029 1.173 1.281.596-.27 1.174-.505 1.174-1.281 0-.237-.069-.47-.199-.668l-.036-1.371c.144-.217.235-.434.235-.704 0-.271-.09-.488-.235-.704v-1.354c.144-.217.235-.433.235-.704 0-.108-.018-.198-.037-.307 5.523-.397 9.476 3.321 10.018 8.592-.488.198-.668.415-.903.884-.956-.054-1.39.325-1.606 1.21-.325 1.245.27 1.714 1.462 2.02-.361.813-1.083 1.354-2.022 1.102a1.675 1.675 0 0 1-1.263-1.607c.126-.234.216-.45.216-.722 0-.757-.614-1.371-1.371-1.371-.758 0-1.39.613-1.39 1.371 0 .145.036.29.072.434-.216.721-.83 1.227-1.606 1.227-.975 0-1.534-.704-1.679-1.57 1.228 0 1.932-.325 1.932-1.607 0-.902-.325-1.39-1.264-1.57-.216-1.137-.794-1.21-1.75-1.354-.957.163-1.535.235-1.751 1.354-.939.18-1.264.668-1.264 1.57 0 1.282.704 1.589 1.931 1.607-.144.866-.703 1.57-1.678 1.57-.776 0-1.39-.506-1.624-1.227.036-.145.072-.29.072-.434 0-.758-.614-1.371-1.39-1.371-.758 0-1.39.613-1.39 1.371 0 .271.072.506.217.722-.018.758-.488 1.426-1.246 1.607-.938.234-1.66-.307-2.021-1.101 1.191-.307 1.787-.794 1.462-2.022-.235-.884-.668-1.263-1.606-1.21-.217-.486-.398-.703-.903-.883.542-5.27 4.494-9.007 10.017-8.592.036.109.018.217.018.325zm-9.114 5.812c-.253.722-.434 1.48-.524 2.274.307.144.56.397.758.758 1.065-.018 1.516.65 1.733 1.462.253.957.072 1.877-1.318 2.31a1.345 1.345 0 1 0 2.491-.631 1.69 1.69 0 0 1-.198-.813c0-.938.758-1.696 1.696-1.696a1.71 1.71 0 0 1 1.66 2.13 1.354 1.354 0 0 0 2.564-.037c-1.462-.072-1.86-.92-1.86-1.913 0-.83.29-1.588 1.3-1.84.162-.668.56-1.048 1.065-1.228a1.462 1.462 0 0 1-.325-1.95v-.18c-2.761-.397-6.317-.144-9.042 1.354zm8.79-5.812c-4.206-.234-7.328 2.166-8.664 5.523 2.635-1.354 6.028-1.678 8.898-1.263v-.722a1.467 1.467 0 0 1 0-1.589v-1.155a1.516 1.516 0 0 1-.235-.794zm17.092 15.342l.09-.073c.18.145.343.235.577.307l.29.054c.107.596.324 1.083.74 1.517l-.181.252a41.679 41.679 0 0 0-3.069-1.209l.036-.307a3.132 3.132 0 0 0 1.517-.541zm.09.325a3.16 3.16 0 0 1-.939.433c.65.234 1.3.487 1.95.758a2.983 2.983 0 0 1-.398-.957l-.108-.018a2.509 2.509 0 0 1-.505-.216zM36.379 21.52h.325a2.558 2.558 0 0 0 1.462 1.968l-.072.307a43.52 43.52 0 0 0-1.553-.036c-.523 0-1.028.018-1.552.036l-.072-.307a2.588 2.588 0 0 0 1.462-1.968zm.162.65a2.935 2.935 0 0 1-.956 1.282c.307 0 .632-.018.956-.018.325 0 .632 0 .957.018a2.836 2.836 0 0 1-.957-1.282zm-17.11 5.18l-.18-.252c.415-.452.631-.921.74-1.517.397-.054.541-.09.884-.342.487.36.975.559 1.588.595l.037.307a34.943 34.943 0 0 0-3.069 1.21zm.433-.541a30.705 30.705 0 0 1 1.95-.758 2.794 2.794 0 0 1-.939-.433c-.144.09-.325.18-.505.216l-.109.018c-.09.343-.216.668-.397.957zm7.635-2.4v.306a54.54 54.54 0 0 0-2.96.74l-.144-.27a2.59 2.59 0 0 0 .902-2.257l.307-.072a2.554 2.554 0 0 0 1.895 1.552zm-.668.144a3 3 0 0 1-1.227-.993 2.84 2.84 0 0 1-.596 1.462c.614-.18 1.228-.343 1.823-.47zm2.762-.217l-.109-.289c.596-.379.957-.884 1.192-1.534h.198c.18 0 .343-.036.506-.09.397.577.884.975 1.552 1.191l-.036.307c-1.12.09-2.22.235-3.303.415zm1.3-1.516a2.974 2.974 0 0 1-.74 1.083 26.52 26.52 0 0 1 2.093-.253 3.078 3.078 0 0 1-.993-.866c-.126.018-.234.036-.36.036zm9.294 1.101l-.036-.307c.668-.216 1.155-.614 1.552-1.191.18.054.325.09.506.09h.198c.235.65.596 1.155 1.192 1.534l-.109.29a40.26 40.26 0 0 0-3.303-.416zm1.986-1.101c-.109 0-.235-.018-.343-.036-.271.36-.614.65-.993.866.704.072 1.39.163 2.094.253a3.341 3.341 0 0 1-.722-1.01l-.036-.073zm6.515 2.382l-.144.271a32.24 32.24 0 0 0-2.96-.74v-.307c.83-.18 1.552-.74 1.895-1.552l.307.072c-.09.867.253 1.715.902 2.256zm-.631-.198a3.002 3.002 0 0 1-.596-1.462c-.307.451-.74.794-1.227.993a52.18 52.18 0 0 1 1.823.469zm.469-5.541a1.372 1.372 0 0 0-1.66.975 1.352 1.352 0 0 0 .974 1.642c.74.18 1.48-.253 1.66-.975a1.354 1.354 0 0 0-.974-1.642zm.054-.217a1.566 1.566 0 0 1 1.137 1.913 1.584 1.584 0 0 1-1.931 1.138 1.565 1.565 0 0 1-1.137-1.914 1.599 1.599 0 0 1 1.931-1.137zm1.173-2.436a.763.763 0 0 0-.758.758c0 .415.343.758.758.758a.763.763 0 0 0 .758-.758.751.751 0 0 0-.758-.758zm0-.217a.97.97 0 0 1 .975.975.97.97 0 0 1-.975.974.97.97 0 0 1-.974-.974c0-.542.45-.975.974-.975zm-.632-2.49a.763.763 0 0 0-.758.757c0 .416.343.759.758.759a.763.763 0 0 0 .759-.759.74.74 0 0 0-.759-.758zm0-.217a.97.97 0 0 1 .975.974.97.97 0 0 1-.975.975.97.97 0 0 1-.974-.975c0-.541.451-.974.974-.974zm9.404 7.328a.763.763 0 0 0-.758.758c0 .415.343.758.758.758a.763.763 0 0 0 .758-.758.763.763 0 0 0-.758-.758zm0-.217a.97.97 0 0 1 .975.975.97.97 0 0 1-.975.974.97.97 0 0 1-.975-.974.97.97 0 0 1 .975-.975zm-.632-2.473a.763.763 0 0 0-.758.758c0 .416.343.758.758.758a.763.763 0 0 0 .758-.758.763.763 0 0 0-.758-.758zm0-.216a.97.97 0 0 1 .975.974.97.97 0 0 1-.975.975.97.97 0 0 1-.974-.975.97.97 0 0 1 .974-.974zm-1.137-2.148a.763.763 0 0 0-.758.758c0 .415.343.74.758.74a.763.763 0 0 0 .758-.758.747.747 0 0 0-.758-.74zm0-.217a.97.97 0 0 1 .975.975.97.97 0 0 1-.975.975.97.97 0 0 1-.975-.975.97.97 0 0 1 .975-.975zm-1.787-1.877a.763.763 0 0 0-.758.758c0 .415.343.758.758.758a.763.763 0 0 0 .758-.758.763.763 0 0 0-.758-.758zm0-.216a.97.97 0 0 1 .975.974.97.97 0 0 1-.975.975.97.97 0 0 1-.974-.975c-.018-.541.433-.974.974-.974zm-2.22-1.39a.763.763 0 0 0-.758.758c0 .415.343.758.758.758a.763.763 0 0 0 .758-.758.763.763 0 0 0-.758-.758zm0-.217a.97.97 0 0 1 .975.975.97.97 0 0 1-.975.975.97.97 0 0 1-.974-.975.97.97 0 0 1 .974-.975zm-2.382-.704a.763.763 0 0 0-.758.759c0 .415.343.758.758.758a.763.763 0 0 0 .758-.758.763.763 0 0 0-.758-.759zm0-.216a.97.97 0 0 1 .974.975.97.97 0 0 1-.974.974.97.97 0 0 1-.975-.974.97.97 0 0 1 .975-.975zm-2.419.415a.763.763 0 0 0-.758.758c0 .415.343.758.758.758a.763.763 0 0 0 .758-.758.776.776 0 0 0-.758-.758zm0-.217a.97.97 0 0 1 .975.975.97.97 0 0 1-.975.975.97.97 0 0 1-.974-.975c-.018-.541.433-.975.974-.975zM46.161 9.7a.763.763 0 0 0-.758.758c0 .415.343.758.758.758a.763.763 0 0 0 .759-.758.763.763 0 0 0-.759-.758zm0-.217a.97.97 0 0 1 .975.975.97.97 0 0 1-.975.974.97.97 0 0 1-.974-.974c0-.524.433-.975.974-.975zm-2.328-1.318a.763.763 0 0 0-.758.758c0 .416.343.758.758.758a.763.763 0 0 0 .758-.758.763.763 0 0 0-.758-.758zm0-.216a.97.97 0 0 1 .975.974.97.97 0 0 1-.975.975.97.97 0 0 1-.974-.975.97.97 0 0 1 .974-.974zm-2.418-.668a.763.763 0 0 0-.758.758c0 .415.343.758.758.758a.763.763 0 0 0 .758-.758.763.763 0 0 0-.758-.758zm0-.217a.97.97 0 0 1 .974.975.955.955 0 0 1-.974.957.97.97 0 0 1-.975-.975c0-.541.433-.957.975-.957zm-2.473-.216a.763.763 0 0 0-.758.758c0 .415.343.758.758.758a.763.763 0 0 0 .758-.758.763.763 0 0 0-.758-.758zm0-.217a.97.97 0 0 1 .975.975.97.97 0 0 1-.975.974.97.97 0 0 1-.975-.974.97.97 0 0 1 .975-.975zM15.497 26.665a1.35 1.35 0 0 0 .541-1.84 1.381 1.381 0 0 0-1.859-.542 1.36 1.36 0 0 0-.541 1.84 1.373 1.373 0 0 0 1.859.542zm.108.199a1.588 1.588 0 0 1-2.148-.614 1.56 1.56 0 0 1 .632-2.13 1.588 1.588 0 0 1 2.148.614 1.56 1.56 0 0 1-.632 2.13zm9.62-4.783c.722-.18 1.173-.92.975-1.642a1.372 1.372 0 0 0-1.661-.975c-.722.18-1.173.92-.975 1.642.199.74.939 1.174 1.66.975zm.054.217a1.585 1.585 0 0 1-1.931-1.138 1.566 1.566 0 0 1 1.137-1.913 1.584 1.584 0 0 1 1.931 1.137 1.566 1.566 0 0 1-1.137 1.914zm11.262-1.625c.759 0 1.372-.613 1.372-1.353s-.613-1.354-1.372-1.354c-.758 0-1.371.614-1.371 1.354 0 .74.613 1.353 1.371 1.353zm0 .217c-.87 0-1.578-.7-1.588-1.57 0-.867.704-1.57 1.588-1.57.867 0 1.589.703 1.589 1.57a1.599 1.599 0 0 1-1.589 1.57zm-13.23-2.581a.763.763 0 0 0 .759-.758.763.763 0 0 0-.758-.758.763.763 0 0 0-.758.758c0 .433.343.758.758.758zm0 .216a.97.97 0 0 1-.974-.974.97.97 0 0 1 .975-.975.97.97 0 0 1 .974.975.97.97 0 0 1-.974.974zm.632-2.905a.763.763 0 0 0 .758-.759.763.763 0 0 0-.758-.758.763.763 0 0 0-.758.758c0 .416.343.759.758.759zm0 .216a.97.97 0 0 1-.974-.975.97.97 0 0 1 .974-.974.97.97 0 0 1 .975.974.97.97 0 0 1-.975.975zm-9.385 6.895a.763.763 0 0 0 .758-.758.763.763 0 0 0-.758-.758.763.763 0 0 0-.758.758c0 .415.343.758.758.758zm0 .198a.97.97 0 0 1-.975-.974.97.97 0 0 1 .975-.975.97.97 0 0 1 .975.975.96.96 0 0 1-.975.974zm.632-2.906a.763.763 0 0 0 .758-.758.763.763 0 0 0-.758-.758.763.763 0 0 0-.758.758.74.74 0 0 0 .758.758zm0 .217a.97.97 0 0 1-.975-.975.97.97 0 0 1 .975-.974.97.97 0 0 1 .974.974.982.982 0 0 1-.974.975zm1.119-2.581a.763.763 0 0 0 .758-.758.736.736 0 0 0-.758-.74.763.763 0 0 0-.758.758c0 .415.343.74.758.74zm0 .217a.97.97 0 0 1-.975-.975.97.97 0 0 1 .975-.975.97.97 0 0 1 .974.975.97.97 0 0 1-.974.975zm1.805-2.31a.763.763 0 0 0 .758-.759.763.763 0 0 0-.758-.758.763.763 0 0 0-.758.758c0 .415.343.758.758.758zm0 .216a.97.97 0 0 1-.975-.975.97.97 0 0 1 .975-.974.97.97 0 0 1 .974.974.97.97 0 0 1-.974.975zm2.22-1.805a.763.763 0 0 0 .758-.758.763.763 0 0 0-.758-.758.763.763 0 0 0-.758.758.75.75 0 0 0 .758.758zm0 .217a.97.97 0 0 1-.975-.975.97.97 0 0 1 .975-.975.97.97 0 0 1 .974.975.97.97 0 0 1-.974.975zm2.364-1.155a.763.763 0 0 0 .758-.759.763.763 0 0 0-.758-.758.763.763 0 0 0-.758.758c0 .434.343.759.758.759zm0 .216a.97.97 0 0 1-.975-.975.97.97 0 0 1 .975-.974.97.97 0 0 1 .975.974c.018.542-.433.975-.975.975zm2.437 0a.763.763 0 0 0 .758-.758.763.763 0 0 0-.758-.758.763.763 0 0 0-.758.758c0 .415.343.758.758.758zm0 .217a.97.97 0 0 1-.975-.975.97.97 0 0 1 .975-.975.97.97 0 0 1 .974.975.97.97 0 0 1-.974.975zm1.786-2.256a.763.763 0 0 0 .759-.758.763.763 0 0 0-.759-.758.763.763 0 0 0-.758.758c-.018.415.325.758.758.758zm0 .216a.97.97 0 0 1-.974-.974.97.97 0 0 1 .974-.975.97.97 0 0 1 .975.975.982.982 0 0 1-.975.974zm2.31-1.75a.763.763 0 0 0 .759-.759.763.763 0 0 0-.758-.758.763.763 0 0 0-.758.758c0 .416.343.758.758.758zm0 .216a.97.97 0 0 1-.974-.975.97.97 0 0 1 .975-.974.97.97 0 0 1 .974.974.97.97 0 0 1-.974.975zm2.42-1.119a.763.763 0 0 0 .757-.758.763.763 0 0 0-.758-.758.763.763 0 0 0-.758.758c0 .415.343.758.758.758zm0 .217a.97.97 0 0 1-.975-.975.97.97 0 0 1 .974-.975.97.97 0 0 1 .975.975.97.97 0 0 1-.975.975zm4.89 7.165a.763.763 0 0 0 .759-.758.763.763 0 0 0-.759-.758.763.763 0 0 0-.758.758c0 .415.343.758.758.758zm0 .217a.97.97 0 0 1-.974-.975.97.97 0 0 1 .974-.975.97.97 0 0 1 .975.975.97.97 0 0 1-.975.975zm0-2.942a.763.763 0 0 0 .759-.758.763.763 0 0 0-.759-.758.763.763 0 0 0-.758.758c0 .415.343.758.758.758zm0 .216a.97.97 0 0 1-.974-.974.97.97 0 0 1 .974-.975.97.97 0 0 1 .975.975.97.97 0 0 1-.975.974zm0-2.96a.763.763 0 0 0 .759-.758.763.763 0 0 0-.759-.758.763.763 0 0 0-.758.758c0 .433.343.758.758.758zm0 .217a.97.97 0 0 1-.974-.975.97.97 0 0 1 .974-.974.97.97 0 0 1 .975.974.97.97 0 0 1-.975.975zm-2.4-2.545a.763.763 0 0 0 .758-.758.763.763 0 0 0-.758-.758.763.763 0 0 0-.758.758c-.018.415.325.758.758.758zm0 .216a.97.97 0 0 1-.975-.974.97.97 0 0 1 .975-.975.97.97 0 0 1 .975.975.993.993 0 0 1-.975.974zm24.745 15.721a1.348 1.348 0 0 0-1.841.541 1.35 1.35 0 0 0 .541 1.841c.668.361 1.498.127 1.86-.523a1.399 1.399 0 0 0-.56-1.859zm.108-.199a1.56 1.56 0 0 1 .632 2.13 1.588 1.588 0 0 1-2.148.614 1.552 1.552 0 0 1-.614-2.13c.397-.758 1.354-1.029 2.13-.614zm-41.566.542c-.199-.542-.47-.939-1.047-1.101.361-4.657 1.57-6.786 5.812-8.916.36.126.36.18.36.253 0 .631.362.938.813 1.281-.758.162-1.426.505-1.426 1.408 0 .758.505 1.173 1.173 1.353-.216.416-.253.596-.216 1.065-.867.415-1.047.957-.83 1.823.324 1.246 1.082 1.372 2.273 1.065.181 1.931-1.967 2.671-3.014 1.282 0-.109-.018-.217-.036-.343a1.388 1.388 0 0 0-1.678-.993c-.74.18-1.192.939-.993 1.679.054.234.18.433.343.613.072.686-.235 1.336-.848 1.66-.632.344-1.12.2-1.733-.017.993-.47 1.498-.939 1.047-2.112zm.072-5.036c-.415 1.047-.632 2.238-.758 3.7.505.217.812.722 1.01 1.228.29.776.308 1.57-.54 2.165.252.019.505-.036.74-.162.468-.253.721-.758.703-1.245a1.679 1.679 0 0 1-.343-.668 1.697 1.697 0 0 1 1.228-2.058 1.695 1.695 0 0 1 2.075 1.228l.054.288c.776.939 2.329.452 2.4-.776-1.425.29-2.039-.433-2.273-1.39-.217-.812-.127-1.606.812-2.111 0-.253.036-.487.108-.686a1.706 1.706 0 0 1-1.01-1.227c-.813.18-1.733.415-2.491.704-.758.288-1.318.65-1.715 1.01zm4.747-4.638c-2.365 1.227-3.754 2.472-4.567 4.223a5.948 5.948 0 0 1 1.408-.776c.758-.289 1.715-.541 2.527-.722v-.108a1.69 1.69 0 0 1 1.065-1.57 1.706 1.706 0 0 1-.433-1.047zm32.74 11.84c-.631-.343-.92-.975-.848-1.66.162-.181.27-.38.343-.614a1.372 1.372 0 0 0-.993-1.679c-.74-.18-1.498.253-1.678.993-.036.108-.036.216-.036.343-1.047 1.39-3.195.65-3.015-1.282 1.192.289 1.95.163 2.275-1.065.234-.884.036-1.426-.83-1.823.035-.487 0-.65-.217-1.064.65-.199 1.173-.614 1.173-1.372 0-.903-.686-1.246-1.444-1.408.451-.343.812-.65.812-1.281 0-.055 0-.109-.018-.163l.307-.09c4.223 2.094 5.523 4.295 5.884 8.916-.578.18-.83.578-1.047 1.101-.451 1.173.072 1.642 1.083 2.148-.632.198-1.119.343-1.75 0zm-3.555-8.916a1.705 1.705 0 0 1-1.011 1.227c.072.199.108.433.108.686.939.487 1.011 1.3.812 2.112-.252.956-.848 1.678-2.274 1.39.073 1.227 1.625 1.714 2.4.775 0-.09.019-.198.055-.288a1.717 1.717 0 0 1 2.076-1.228 1.684 1.684 0 0 1 .884 2.726c-.054.812.632 1.462 1.426 1.407-.848-.595-.848-1.39-.542-2.165.199-.506.506-1.011.993-1.228-.126-1.462-.343-2.67-.758-3.718a5.684 5.684 0 0 0-1.66-.992c-.777-.29-1.697-.524-2.51-.704zm-.596-2.978a1.76 1.76 0 0 1-.433 1.083 1.692 1.692 0 0 1 1.065 1.57v.108c.848.18 1.732.415 2.527.722a6.39 6.39 0 0 1 1.407.776c-.812-1.733-2.202-2.996-4.566-4.26zm-4.945 14.529l-2.4-1.66 2.905-.307 2.4 1.66-2.905.307zm-4.494-.975a.97.97 0 0 1-.975-.974.97.97 0 0 1 .975-.975.97.97 0 0 1 .974.975c.018.541-.433.974-.974.974zm0-.216a.763.763 0 0 0 .758-.758.763.763 0 0 0-.758-.758.763.763 0 0 0-.758.758c0 .415.342.758.758.758zM22.283 30.78a.763.763 0 0 0 .758-.758.763.763 0 0 0-.758-.758.763.763 0 0 0-.758.758c0 .416.343.758.758.758zm0 .199a.97.97 0 0 1-.975-.975.97.97 0 0 1 .975-.974.97.97 0 0 1 .975.974.96.96 0 0 1-.975.975zm9.385-2.725a.763.763 0 0 0 .758-.758.763.763 0 0 0-.758-.758.763.763 0 0 0-.758.758c0 .415.343.758.758.758zm0 .216a.97.97 0 0 1-.974-.974.97.97 0 0 1 .974-.975.97.97 0 0 1 .975.975.97.97 0 0 1-.975.974zm19.114 2.31a.763.763 0 0 0 .758-.758.763.763 0 0 0-.758-.758.763.763 0 0 0-.758.758c0 .416.343.758.758.758zm0 .199a.97.97 0 0 1-.975-.975.97.97 0 0 1 .975-.974.97.97 0 0 1 .975.974.96.96 0 0 1-.975.975zm-23.608-1.534l-2.906-.307 2.4-1.66 2.907.306-2.4 1.66zM38.96 27.26l-2.437-.902-2.436.902 2.436.902 2.437-.902zm.632 0l-3.05 1.137-3.05-1.137 3.05-1.137 3.05 1.137z"/></svg>