<svg width="16" height="16" xmlns="http://www.w3.org/2000/svg"><path d="M14.594 0H1.406C.631 0 0 .63 0 1.406v.714c0 1.157.398 2.292 1.12 3.195a5.222 5.222 0 0 0 2.408 1.657l.497.166a4.67 4.67 0 0 0 2.569 2.008v.729a.47.47 0 0 1-.469.469c-.775 0-1.406.63-1.406 1.406v.469H4.25a.469.469 0 0 0-.469.469v2.374h-.469a.469.469 0 1 0 0 .938h9.376a.469.469 0 1 0 0-.938h-.47v-2.374a.469.469 0 0 0-.468-.47h-.469v-.468c0-.775-.63-1.406-1.406-1.406a.47.47 0 0 1-.469-.469v-.729a4.67 4.67 0 0 0 2.567-2.005l.524-.167.006-.002a5.104 5.104 0 0 0 2.376-1.657A5.132 5.132 0 0 0 16 2.12v-.714C16 .631 15.37 0 14.594 0zM1.853 4.73a4.192 4.192 0 0 1-.915-2.61v-.714a.47.47 0 0 1 .468-.468h1.487L3.37 5.23c.028.251.077.496.143.734a4.237 4.237 0 0 1-1.66-1.235zm2.866 10.332v-1.906h6.562v1.906H4.72zm4.113-6.73a.469.469 0 0 0-.363.457v1.086c0 .775.63 1.406 1.406 1.406a.47.47 0 0 1 .469.469v.469H5.656v-.469a.47.47 0 0 1 .469-.469c.775 0 1.406-.63 1.406-1.406V8.789a.469.469 0 0 0-.363-.457 3.72 3.72 0 0 1-2.866-3.205L3.836.937h8.328l-.466 4.19a3.72 3.72 0 0 1-2.866 3.205zm6.23-6.212c0 .945-.325 1.872-.915 2.61a4.166 4.166 0 0 1-1.664 1.25 4.77 4.77 0 0 0 .147-.749l.477-4.293h1.487a.47.47 0 0 1 .469.468v.714z"/><path d="M9.94 3.21l-1.053-.15-.469-.928a.469.469 0 0 0-.836 0l-.47.928-1.053.15a.469.469 0 0 0-.257.803l.755.72-.177 1.012a.469.469 0 0 0 .675.498L8 5.758l.945.485a.469.469 0 0 0 .675-.498l-.177-1.013.755-.719a.469.469 0 0 0-.257-.803zM8.615 4.226a.469.469 0 0 0-.138.421l.058.331-.32-.164a.469.469 0 0 0-.428 0l-.32.164.058-.33a.47.47 0 0 0-.138-.422l-.236-.224.336-.048a.468.468 0 0 0 .353-.252l.16-.32.161.32c.07.136.2.23.353.252l.336.048-.236.224z"/></svg>