<svg width="13" height="33" xmlns="http://www.w3.org/2000/svg"><path d="M6.044 32.5C2.707 32.5 0 31.829 0 31.36c0-.032.013-.061.037-.092l1.77-4.489c0-.1.174-.194.482-.275.75-1.77 4.754-12.327-1.763-22.48l.443-.452s.495.658 1.125 1.889a4.178 4.178 0 0 1-.086-.846C2.008 2.343 3.814.5 6.038.5c2.026 0 3.705 1.529 3.988 3.52l.02.014c.056-.114.087-.173.087-.173l.603-.615c.548.29.75.766.75.766-6.836 10.993-2.382 20.72-1.405 22.585.13.058.202.118.202.182l1.77 4.489a.16.16 0 0 1 .036.091c0 .47-2.706 1.141-6.045 1.141zM5.807 8.724a4.006 4.006 0 0 1-2.941-1.57c1.57 3.852 3.098 10.6.115 19.213.553-.081 1.267-.14 2.07-.167.35-2.196.968-7.585.756-17.476z" fill="#25241F" fill-rule="evenodd"/></svg>