<svg width="70" height="70" xmlns="http://www.w3.org/2000/svg"><g opacity=".139"><path d="M64.153 15.477l-1.033.333-5.502.497-1.554 2.519-1.127-.364-4.379-4.006-.635-2.084-.85-2.222-2.753-2.505L43.074 7l-.075 1.508 3.18 3.15 1.557 1.86-1.75.929-1.424-.426-2.134-.904.072-1.747-2.8-1.169-.93 4.107-2.822.65.279 2.29 3.677.719.635-3.66 3.036.454 1.411.839h2.264l1.55 3.15 4.108 4.23-.301 1.644-3.313-.429-5.723 2.934-4.122 5.017-.536 2.222h-1.48l-2.756-1.29L32 34.369l.666 2.867 1.165-1.363 2.049-.065-.143 2.574 1.697.505 1.694 1.932 2.768-.79 3.16.506 3.671 1.002 1.833.219 3.108 3.58 5.999 3.58-3.88 7.523-4.095 1.932-1.554 4.299-5.926 4.015-.63 2.316C58.73 65.297 70 51.486 70 34.973c-.004-7.213-2.158-13.925-5.847-19.496z"/><path d="M38.416 53.36l-2.51-4.707 2.304-4.856-2.304-.696-2.586-2.628-5.73-1.3-1.903-4.026v2.39h-.838l-4.938-6.772v-5.563l-3.62-5.954-5.747 1.036H6.67l-1.948-1.291L7.21 17l-2.48.58A34.944 34.944 0 0 0 0 35.144C0 54.391 15.425 70 34.454 70c1.465 0 2.902-.13 4.324-.304l-.36-4.223S40 59.203 40 58.99c-.002-.215-1.584-5.63-1.584-5.63zM13.014 11.53l6.233-.886 2.874-1.605 3.233.95 5.165-.292 1.77-2.834 2.58.433 6.268-.6 1.727-1.939L45.299 3.1l3.445.528L50 3.435C45.462 1.259 40.413 0 35.062 0 24.169 0 14.43 5.058 8 13h.018l4.996-1.47zm23.531-7.974l3.584-2.01L42.43 2.9 39.1 5.484l-3.182.325-1.432-.947 2.06-1.306zm-10.615.293l1.582.672 2.071-.672 1.128 1.992-4.78 1.28-2.3-1.371c-.002 0 2.248-1.475 2.3-1.9z"/></g></svg>