<svg width="21" height="32" xmlns="http://www.w3.org/2000/svg"><path d="M20.05 1.092c-.512-.758-1.62-1.241-2.452-1.05-1.178.27-1.886 1.134-1.942 2.374-.034.727.128 1.41.31 2.07a4.476 4.476 0 0 0-.251-.05 33.485 33.485 0 0 0-4.956-.466c-.28-.006-.56-.01-.841-.01-1.829 0-3.325.152-4.71.476-.054.014-.124.03-.198.054a9.31 9.31 0 0 0 .268-1.162c.158-1.04-.029-1.87-.57-2.538-.4-.495-1.02-.78-1.705-.78-.818 0-1.586.393-2.052 1.05-.67.943-.99 2.071-.947 3.356.05 1.574.229 2.977.545 4.286a60.407 60.407 0 0 0 1.865 6.19c.191.53.374 1.064.556 1.598.155.456.31.91.472 1.365l.608 1.714v-.01c.47 1.43 1.107 2.9 1.844 3.853.125.162.258.317.392.474.322.38.626.737.786 1.162.09.235.288.76.793 1.03-.04.174-.101.261-.353.322-.312.075-.622.147-.935.216-.9.196-1.596.776-2.13 1.777-.456.852-.178 1.871.658 2.424.354.232.747.419 1.2.57C7.54 31.8 8.857 32 10.337 32c.71 0 1.455-.046 2.282-.14 1.26-.141 2.294-.467 3.164-.995.952-.576 1.246-1.623.715-2.549-.357-.625-.971-1.484-2.174-1.72-.24-.048-.479-.112-.717-.177l-.333-.089c-.055-.013-.084-.032-.155-.253.02-.01.04-.02.059-.033a.842.842 0 0 0 .325-.35c.318-.286.487-.629.638-.935.095-.188.182-.366.322-.536.737-.895 1.5-1.822 2.005-2.966.585-1.32.997-2.73 1.205-3.855a111.97 111.97 0 0 0 1.844-5.439c.873-2.786 1.318-4.967 1.445-7.072.09-1.51-.208-2.752-.913-3.799zm-3.416 5.696a.413.413 0 0 0 .315-.155c.465-.523.373-1.187.3-1.718l-.03-.206a12.082 12.082 0 0 0-.168-.98 11.04 11.04 0 0 1-.173-1.014c-.063-.607.136-1.008.593-1.194.409-.164.933.012 1.307.437.664.759.768 1.705.783 2.616.029 1.936-.31 3.943-1.062 6.319-.06.186-.125.371-.185.556l.024-.333c.033-.438.066-.877.105-1.314.029-.31-.051-.73-.587-.977a16.2 16.2 0 0 1-1.371-.715c-.17-.1-.305-.21-.396-.386.218-.254.385-.607.507-.942.014.002.024.006.038.006zM3.94 3.687c-.075.31-.154.628-.187.963-.033.36-.045.74-.036 1.198.008.379.12.654.333.817a.47.47 0 0 0 .286.106c.01 0 .014-.003.021-.003.115.355.28.75.495 1.036a1.16 1.16 0 0 1-.373.316l-.12.068c-.392.224-.764.434-1.148.594-.732.304-.682.93-.666 1.136l.042.561.079.984c-.374-1.15-.713-2.32-.924-3.509-.295-1.677-.51-3.19-.152-4.734.167-.718.455-1.202.907-1.524.363-.257.714-.306 1.065-.143.366.17.544.47.559.945.014.395-.081.782-.18 1.189z" fill="#25241F"/></svg>