<svg width="16" height="15" xmlns="http://www.w3.org/2000/svg"><path d="M15.997 2.556l-.002-.013a.453.453 0 0 0-.007-.039.453.453 0 0 0-.035-.1l-.004-.008L14.886.302a.469.469 0 0 0-.836 0l-1.063 2.094-.004.009a.5.5 0 0 0-.015.035l-.006.014a.453.453 0 0 0-.01.036l-.004.015a.444.444 0 0 0-.007.038l-.002.013a.488.488 0 0 0-.003.052v10.797a1.25 1.25 0 0 0 1.254 1.245h.556A1.25 1.25 0 0 0 16 13.405V2.608a.458.458 0 0 0-.003-.052zm-2.124.521h1.19v8.203h-1.19V3.077zm.895-.937h-.6l.3-.59.3.59zm-.022 11.572h-.556a.312.312 0 0 1-.317-.307v-1.188h1.19v1.188c0 .17-.142.307-.317.307zM9.954.016H2.012C.902.016 0 .918 0 2.028v10.61c0 1.11.903 2.012 2.012 2.012h7.942c1.11 0 2.013-.903 2.013-2.013V2.028c0-1.11-.903-2.012-2.013-2.012zm1.075 12.621c0 .593-.482 1.075-1.075 1.075H2.012a1.076 1.076 0 0 1-1.075-1.075V2.028c0-.593.483-1.075 1.075-1.075h7.942c.593 0 1.075.482 1.075 1.075v10.61z"/><path d="M5.196 3.098H2.4a.469.469 0 1 0 0 .938h2.797a.469.469 0 1 0 0-.938zm0 1.875H2.4a.469.469 0 1 0 0 .938h2.797a.469.469 0 1 0 0-.938zm0 1.875H2.4a.469.469 0 1 0 0 .938h2.797a.469.469 0 1 0 0-.938zm0 1.875H2.4a.469.469 0 1 0 0 .938h2.797a.469.469 0 1 0 0-.938zm0 1.907H2.4a.469.469 0 1 0 0 .937h2.797a.469.469 0 1 0 0-.937zm4.372-7.532H6.771a.469.469 0 0 0 0 .938h2.797a.469.469 0 1 0 0-.938zm0 1.875H6.771a.469.469 0 0 0 0 .938h2.797a.469.469 0 1 0 0-.938zm-1.45 5.657H6.77a.469.469 0 1 0 0 .937h1.347a.469.469 0 1 0 0-.937z"/></svg>