<svg width="13" height="32" xmlns="http://www.w3.org/2000/svg"><path d="M7.37.083l.137.021a5.54 5.54 0 0 1 3.081 1.56l.075.081a5.532 5.532 0 0 1 1.545 3.624.108.108 0 0 1 .068.031c.144.144.68 1.072.144 2.864-.536 1.8-1.216 4.664-1.552 5.584a.466.466 0 0 1-.056.108c-.192.455-.872 2.21-.872 3.964 0 0 0 2.144-1.22 4.168.198.864.707 2.983 1.124 3.794l.056.102.792 1.8.832 1.896.552 1.344c.032.064.04.144.008.208a.266.266 0 0 1-.144.136c-.08.024-1.968.616-5.248.616-3.28 0-5.16-.592-5.24-.616a.242.242 0 0 1-.144-.136.31.31 0 0 1 0-.208l.552-1.344.73-1.65.109-.244-.007-.002.792-1.8.006.002c-.001 0-.004 0-.006-.002l.144-.536.488-1.696.004-.006-.009-.13c-.15-2.14-.483-6.08-.483-6.08l.057.057-.049-.057C2.302 15.346.591 7.317.526 7.009c.24-.075.574.006.798.117a5.545 5.545 0 0 1 1.408-5.462A5.528 5.528 0 0 1 5.795.105h.018A5.53 5.53 0 0 1 7.37.082z" fill="#FFF"/></svg>