<svg width="16" height="13" xmlns="http://www.w3.org/2000/svg"><g fill="#B9B9B9"><path d="M8.99 8.67c.921-.387 1.648-.916 2.18-1.585.533-.668.8-1.397.8-2.185 0-.787-.267-1.516-.8-2.184-.532-.67-1.259-1.198-2.18-1.586C8.07.742 7.068.548 5.985.548S3.901.742 2.98 1.13c-.921.388-1.648.917-2.18 1.586C.265 3.384 0 4.113 0 4.9c0 .675.201 1.31.604 1.905.402.595.955 1.097 1.657 1.505-.056.136-.114.26-.174.374-.06.113-.13.222-.212.327l-.192.246a3.38 3.38 0 0 1-.22.251 5.93 5.93 0 0 0-.196.213c0-.006-.012.007-.034.038-.023.031-.036.045-.039.043-.002-.003-.014.01-.034.042l-.03.047-.02.042a.178.178 0 0 0-.018.051.333.333 0 0 0-.004.055c0 .02.003.038.009.055a.282.282 0 0 0 .097.179.266.266 0 0 0 .175.068h.025c.284-.04.527-.085.731-.136A7.151 7.151 0 0 0 4.49 9.117c.51.09 1.009.136 1.496.136 1.082 0 2.084-.194 3.005-.582zm-4.756-.709l-.374.263a9.77 9.77 0 0 1-.527.332l.297-.714-.824-.476c-.545-.317-.967-.692-1.267-1.122-.3-.431-.45-.879-.45-1.344 0-.578.222-1.119.667-1.623.444-.505 1.044-.904 1.798-1.2a6.62 6.62 0 0 1 2.431-.441 6.62 6.62 0 0 1 2.431.442c.754.295 1.354.694 1.799 1.199.444.504.667 1.045.667 1.623 0 .579-.223 1.12-.667 1.624-.445.505-1.045.904-1.799 1.199a6.618 6.618 0 0 1-2.431.442 7.28 7.28 0 0 1-1.3-.12l-.451-.084z"/><path d="M14.63 8.985a3.332 3.332 0 0 0 .604-1.909c0-.697-.212-1.349-.637-1.955-.425-.606-1.003-1.11-1.735-1.513a4.361 4.361 0 0 1-.374 3.452c-.38.68-.924 1.28-1.632 1.802a7.528 7.528 0 0 1-2.244 1.096 8.982 8.982 0 0 1-3.375.35c1.139.747 2.476 1.121 4.012 1.121a8.52 8.52 0 0 0 1.497-.136 7.15 7.15 0 0 0 2.363 1.088c.204.052.448.097.731.136a.256.256 0 0 0 .187-.059.315.315 0 0 0 .11-.187c-.002-.034 0-.053.01-.055.008-.003.006-.021-.005-.055l-.017-.051-.021-.043a.407.407 0 0 0-.064-.089 1.076 1.076 0 0 1-.072-.08 5.927 5.927 0 0 0-.196-.213 3.365 3.365 0 0 1-.22-.25l-.192-.247a2.15 2.15 0 0 1-.212-.328 4.683 4.683 0 0 1-.175-.374c.703-.408 1.256-.908 1.658-1.501z"/></g></svg>