<svg width="28" height="32" xmlns="http://www.w3.org/2000/svg"><path d="M7.498 4.608a3.092 3.092 0 0 0-5.108 2.34c0 .464.104.902.287 1.296a15.01 15.01 0 0 1 4.82-3.636z"/><path d="M13.873 31.928c7.633 0 13.821-6.189 13.821-13.822 0-6.836-4.963-12.508-11.483-13.62V1.895h1.199c.396 0 .718-.424.718-.947 0-.524-.322-.948-.718-.948h-7.075c-.397 0-.72.424-.72.948 0 .523.323.947.72.947h1.198v2.59A13.712 13.712 0 0 0 8.21 5.498a13.857 13.857 0 0 0-4.878 3.671A13.763 13.763 0 0 0 .05 18.106c0 7.633 6.19 13.822 13.823 13.822zm-8.143-21.9a11.53 11.53 0 0 1 2.643-1.991 11.404 11.404 0 0 1 5.5-1.408c6.329 0 11.477 5.149 11.477 11.477 0 6.329-5.148 11.477-11.477 11.477-6.329 0-11.477-5.148-11.477-11.477 0-3.147 1.274-6.002 3.334-8.077z"/><path d="M6.933 25.046a9.863 9.863 0 0 0 2.261 1.69 9.77 9.77 0 0 0 5.308 1.163 9.74 9.74 0 0 0 4.857-1.655 9.852 9.852 0 0 0 1.453-1.199 9.782 9.782 0 0 0 2.874-6.94 9.783 9.783 0 0 0-2.874-6.939 9.858 9.858 0 0 0-3.341-2.193 9.76 9.76 0 0 0-3.599-.681 9.771 9.771 0 0 0-6.94 2.874 9.782 9.782 0 0 0-2.874 6.94 9.787 9.787 0 0 0 2.875 6.94zm6.94-14.75v7.353L6.48 20.49c-1.309-5.097 2.27-10.193 7.392-10.193z"/></svg>