<svg width="68" height="68" xmlns="http://www.w3.org/2000/svg"><g fill="none"><path d="M68 34c0 18.778-15.222 34-34 34S0 52.778 0 34 15.222 0 34 0s34 15.222 34 34z" fill="#DBDBDB"/><g fill="#FFF"><path d="M29 35.728a.728.728 0 0 0-.729-.728h-2.543a.728.728 0 0 0-.728.728v2.543c0 .403.326.729.728.729h2.543a.729.729 0 0 0 .729-.729v-2.543zm7 0a.728.728 0 0 0-.728-.728h-2.544a.728.728 0 0 0-.728.728v2.543c0 .403.326.729.728.729h2.544a.728.728 0 0 0 .728-.729v-2.543zm7 0a.728.728 0 0 0-.728-.728h-2.543a.728.728 0 0 0-.729.728v2.543c0 .403.326.729.729.729h2.543a.729.729 0 0 0 .728-.729v-2.543zm-14 6.001a.728.728 0 0 0-.729-.729h-2.543a.728.728 0 0 0-.728.729v2.542c0 .403.326.729.728.729h2.543a.729.729 0 0 0 .729-.729V41.73zm7 0a.728.728 0 0 0-.728-.729h-2.544a.728.728 0 0 0-.728.729v2.542c0 .403.326.729.728.729h2.544a.728.728 0 0 0 .728-.729V41.73zm7 0a.728.728 0 0 0-.728-.729h-2.543a.728.728 0 0 0-.729.729v2.542c0 .403.326.729.729.729h2.543a.728.728 0 0 0 .728-.729V41.73z"/><path d="M47.152 21.014v3.946a3.228 3.228 0 0 1-3.24 3.22h-2.045c-1.79 0-3.26-1.437-3.26-3.22V21h-9.214v3.96c0 1.783-1.47 3.22-3.26 3.22H24.09a3.228 3.228 0 0 1-3.24-3.22v-3.946c-1.566.047-2.85 1.337-2.85 2.922v23.123A2.943 2.943 0 0 0 20.933 50h26.134A2.947 2.947 0 0 0 50 47.059V23.936c0-1.585-1.285-2.875-2.848-2.922zm-.95 24.605c0 .698-.567 1.264-1.268 1.264H23.01c-.7 0-1.268-.566-1.268-1.264V33.675c0-.698.568-1.264 1.268-1.264h21.924c.7 0 1.268.566 1.268 1.264v11.944z"/><path d="M24.047 27h1.906C26.53 27 27 26.487 27 25.853v-6.705c0-.634-.469-1.148-1.047-1.148h-1.906C23.47 18 23 18.514 23 19.148v6.705c0 .634.469 1.147 1.047 1.147zm18 0h1.906c.578 0 1.047-.513 1.047-1.147v-6.705c0-.634-.469-1.148-1.047-1.148h-1.906C41.47 18 41 18.514 41 19.148v6.705c0 .634.469 1.147 1.047 1.147z"/></g></g></svg>