<svg width="16" height="9" xmlns="http://www.w3.org/2000/svg"><g fill="#B9B9B9"><path d="M15.88 3.906C15.739 3.746 12.304 0 8 0S.262 3.747.12 3.906a.469.469 0 0 0 0 .625c.142.16 3.578 3.907 7.88 3.907 4.303 0 7.738-3.747 7.88-3.907a.469.469 0 0 0 0-.625zM8 7.5a3.285 3.285 0 0 1-3.281-3.281A3.285 3.285 0 0 1 8 .937a3.285 3.285 0 0 1 3.281 3.282A3.285 3.285 0 0 1 8 7.5z"/><path d="M8.469 3.281c0-.471.234-.886.59-1.141A2.314 2.314 0 0 0 8 1.875a2.346 2.346 0 0 0-2.344 2.344A2.346 2.346 0 0 0 8 6.562a2.343 2.343 0 0 0 2.304-1.948A1.398 1.398 0 0 1 8.469 3.28z"/></g></svg>