<svg width="22" height="33" xmlns="http://www.w3.org/2000/svg"><path d="M20.656 2.4H16.94V1.16c0-.364-.243-.66-.542-.66H5.152c-.3 0-.542.296-.542.66V2.4H.895c-.299 0-.542.296-.542.66v.373c0 5.618 2.326 10.152 5.307 10.38.789 1.424 1.953 2.48 3.295 2.984V24.3H6.909c-.3 0-.542.296-.542.66v1.075H5.104c-.3 0-.542.296-.542.66v5.023c0 .365.243.66.542.66h11.343c.3 0 .542-.295.542-.66v-5.023c0-.364-.243-.66-.542-.66h-1.263V24.96c0-.364-.243-.66-.542-.66h-2.046v-7.503c1.34-.505 2.505-1.56 3.295-2.985 2.981-.227 5.306-4.762 5.306-10.38V3.06c0-.364-.242-.66-.541-.66zM4.61 4.465v5.162c0 .585.059 1.174.175 1.757-1.425-.977-2.512-3.733-2.705-6.92l2.53.001zm12.156 6.919a8.99 8.99 0 0 0 .175-1.757V4.465h2.53c-.193 3.186-1.28 5.943-2.705 6.919z" fill="#25241F"/></svg>