<svg width="322" height="246" xmlns="http://www.w3.org/2000/svg"><g fill="#FFF"><path d="M270.787 108H97.002c-8.284 0-15 6.716-15 15 0 8.284 6.716 15 15 15h173.785l-19.394 19.393c-5.858 5.857-5.858 15.355 0 21.213 5.856 5.858 15.354 5.858 21.213 0l44.997-44.997c.348-.347.676-.71.988-1.09.076-.093.141-.193.215-.288.229-.291.454-.583.66-.891.06-.09.109-.185.168-.276.206-.322.408-.647.59-.986.035-.067.064-.138.099-.205.189-.367.371-.739.53-1.123.02-.047.034-.097.053-.145.163-.404.314-.813.442-1.234.017-.053.026-.108.041-.162.121-.413.232-.83.317-1.257.025-.127.036-.258.059-.386.062-.354.124-.708.159-1.069a14.612 14.612 0 0 0 0-2.995c-.035-.366-.099-.723-.16-1.08-.022-.124-.033-.251-.058-.374a14.893 14.893 0 0 0-.318-1.269c-.015-.049-.024-.101-.039-.15-.129-.423-.28-.836-.445-1.244-.018-.044-.031-.091-.05-.135-.16-.387-.343-.761-.534-1.13-.033-.065-.061-.133-.095-.198a15.097 15.097 0 0 0-.596-.994c-.056-.088-.104-.181-.162-.267a15.309 15.309 0 0 0-.662-.895c-.073-.094-.138-.193-.213-.285a15.462 15.462 0 0 0-.988-1.09l-44.997-44.997A14.95 14.95 0 0 0 262 63a14.946 14.946 0 0 0-10.606 4.394c-5.858 5.858-5.858 15.355 0 21.213L270.787 108z"/><path d="M122.701 245.701c40.944 0 79.038-20.312 101.903-54.333 4.62-6.875 2.792-16.195-4.083-20.816-6.876-4.62-16.195-2.794-20.817 4.083-17.281 25.715-46.067 41.067-77.003 41.067C71.586 215.701 30 174.116 30 123s41.586-92.701 92.701-92.701c30.845 0 59.584 15.283 76.878 40.881 4.639 6.865 13.961 8.669 20.827 4.032 6.864-4.638 8.67-13.962 4.032-20.826C201.557 20.518 163.525.299 122.701.299 55.044.299 0 55.342 0 123c0 67.658 55.044 122.701 122.701 122.701z"/></g></svg>