<?xml version="1.0" encoding="UTF-8"?>
<svg width="48px" height="48px" viewBox="0 0 48 48" version="1.1" xmlns="http://www.w3.org/2000/svg" xmlns:xlink="http://www.w3.org/1999/xlink">
    <!-- Generator: Sketch 64 (93537) - https://sketch.com -->
    <title>icon-gift</title>
    <desc>Created with Sketch.</desc>
    <g id="Page-1" stroke="none" stroke-width="1" fill="none" fill-rule="evenodd">
        <g id="icon-gift" fill="#000000" fill-rule="nonzero">
            <path d="M42.2913259,13.7049716 L36.5927278,13.7049716 C36.8577687,12.9681818 36.994451,12.193466 36.9962032,11.4127841 C36.9918224,7.60355116 33.8183411,4.51661935 29.9023072,4.51235793 C27.9567757,4.52642051 26.1001752,5.30539767 24.754819,6.67244313 C24.608937,4.83068182 23.8221378,3.18153404 22.4969334,1.97855116 C21.0906834,0.702698836 19.176694,0 17.1071845,0 C12.8757302,0 9.43326516,3.60170455 9.43326516,8.02926131 C9.4209988,10.1245739 10.2134929,12.1487216 11.6552278,13.7053977 L5.60747664,13.7053977 C2.51197436,13.7088068 0.0035046729,16.1488636 -9.56244429e-15,19.1599431 L-9.56244429e-15,27.09375 C-9.56244429e-15,27.6963068 0.502044336,28.1846591 1.12149533,28.1846591 L2.89880254,28.1846591 L2.89880254,42.5454545 C2.90230721,45.556534 5.4107769,47.9965909 8.50627918,48 L38.8120619,48 C41.9075642,47.9965909 44.4160339,45.556534 44.4195386,42.5454545 L44.4195386,28.184233 L46.7773072,28.184233 C47.3967582,28.184233 47.8988025,27.6958807 47.8988025,27.0933239 L47.8988025,19.159517 C47.8952979,16.1484375 45.3868283,13.7083807 42.2913259,13.7049716 Z M29.9018692,6.69417611 C32.5798773,6.69673298 34.7501461,8.80781247 34.7527745,11.4127841 C34.7501461,12.2130682 34.5446846,13.0001421 34.1552278,13.7049716 L24.781104,13.7049716 L24.781104,11.7928977 C24.8709112,11.64375 24.9230433,11.4762784 24.9331191,11.3036932 C25.0759346,8.80525571 27.3513434,6.69417611 29.9018692,6.69417611 Z M11.6762558,8.02926131 C11.6762558,4.80511364 14.1124416,2.18181818 17.1071845,2.18181818 C18.6067465,2.18181818 19.9775116,2.67613636 20.9662676,3.57357949 C21.994451,4.50681818 22.5381133,5.79375 22.5381133,7.29545455 L22.5381133,13.7049716 L15.6781542,13.7049716 L15.6816589,13.6938921 C13.3606892,13.0350852 11.6762558,10.6525569 11.6762558,8.02926131 Z M2.24299065,19.159517 C2.24518105,17.3526988 3.75,15.8889205 5.60747664,15.8867897 L22.5381133,15.8867897 L22.5381133,26.0024148 L2.24299065,26.0024148 L2.24299065,19.159517 Z M42.1765479,42.5454545 C42.1743575,44.3522727 40.6695386,45.8160512 38.8120619,45.8181818 L8.50627918,45.8181818 C6.6492406,45.8160512 5.1439837,44.3522727 5.1417932,42.5454545 L5.1417932,28.184233 L42.1765479,28.184233 L42.1765479,42.5454545 Z M45.6558119,26.0024148 L24.781104,26.0024148 L24.781104,15.8867897 L42.2913259,15.8867897 C44.1488025,15.8889205 45.6536215,17.3526988 45.6558119,19.159517 L45.6558119,26.0024148 Z" id="Shape"></path>
        </g>
    </g>
</svg>