<svg width="22" height="32" xmlns="http://www.w3.org/2000/svg"><path d="M18.21 18.244a10.655 10.655 0 0 1-4.619 2.675l-.004.001-.006.002c-.046.013-.094.02-.14.033h2.735c.677 0 1.227.54 1.227 1.205v5.466h.175c.2 0 .363.16.363.356v1.027h.08c.31 0 .561.248.561.553v1.709a.558.558 0 0 1-.561.552H3.313a.558.558 0 0 1-.562-.552v-1.71c0-.304.252-.552.562-.552h.08v-1.027a.36.36 0 0 1 .363-.356h.174V22.16c0-.665.55-1.205 1.227-1.205h2.744a10.642 10.642 0 0 1-4.775-2.709C1.11 16.268 0 13.636 0 10.836v-.004C0 8.032 1.11 5.4 3.123 3.42a10.688 10.688 0 0 1 7.54-3.072c2.853 0 5.531 1.09 7.544 3.069 2.015 1.98 3.125 4.612 3.126 7.41v.005c0 2.8-1.11 5.431-3.123 7.412zm.113-.68zm.369-.428zm-.76.837zm-.793.696zm-.665.491zm-.852.515zm-7.558.922c-.12-.03-.24-.061-.36-.098.12.037.24.067.36.098zm.819.175zm-2.409-.724c-.11-.049-.22-.095-.329-.148.03.015.058.032.09.047.078.036.16.066.24.1zm.787.308zm-3.858-2.382l.006.004-.006-.004zm2.311 1.7c-.104-.055-.209-.109-.311-.169.102.06.207.114.311.17zm-.729-.435c-.096-.063-.194-.121-.287-.188.093.065.19.125.287.188zm-.721-.517c-.077-.062-.157-.119-.233-.181.076.062.156.12.233.18zm-1.428-1.357zm-.712-.918zm-1.73-5.61zm1.298 4.913zm-.313-.588zm-.323-.752zm-.219-.625zM.63 12.99zm-.125-.654zm-.11-1.504zm.029-.743zm1.115-3.898zM.538 9.146zm.15-.725zm.236-.802zm1.021-2.126zm.962-1.276zm-.538.66zm5.523-3.764l3.264-.118.598 1.79L8.637 4.93l-3.75.105-.548-1.718c.682-.835 1.839-1.555 3.53-2.2a10.248 10.248 0 0 0-4.143 2.285l.243.044.563 1.765-2.154 3.863-1.85.128c-.021.131-.04.261-.055.392l1.902-.134 1.609 3.53-.184 3.565-1.673-.105c.094.137.192.273.292.405l1.508.095 3.624 2.068 1.563 1.788c.144.02.287.048.433.062l.106.012c.335.032.677.048 1.014.048h.003c.943 0 1.878-.125 2.777-.371l.036-.01a10.124 10.124 0 0 0 1.526-.566 5.852 5.852 0 0 0 1.133-1.173 8.48 8.48 0 0 0 2.581-1.712c.3-.373.575-.765.818-1.172a9.36 9.36 0 0 0 .401-3.146l.141-.326c.384-.898.78-1.82.764-2.963a9.841 9.841 0 0 0-.638-2.409c.108.264.206.534.29.806-.401-1.055-1.012-1.93-1.582-2.694l-.108-.517a10.16 10.16 0 0 0-.532-.628l.212 1.012-2.765-.21-3.574-2.118-.587-1.755 1.084-.055a10.46 10.46 0 0 0-4.756.19zm11.678 14.76zm.319-.586zm-4.35-13.348c-.015-.007-.028-.017-.043-.025.015.008.028.018.043.025zm-.856-.402c-.08-.035-.163-.064-.246-.096.083.032.166.06.246.096zm-.868-.315c-.09-.028-.176-.057-.265-.082.089.025.177.054.265.082zM12.763.947c-.031-.006-.062-.015-.092-.02.03.005.06.014.092.02zm3.51 1.423l.225.153c-.076-.05-.15-.103-.225-.153zm.763.545c.07.056.142.11.211.166l-.211-.166zm1.8 1.794zm.537.762zm.808 1.54zm.758 3.817zm-.083-1.27zm.083 1.274zm-.792 3.903zm.262-.693zm.19-.619zm.14-.589zm.122-.759zm-5.422-6.943l-.832 3.525-2.63.068-1.3.035-1.726-3.574 3.043-2.096 3.445 2.042zM10.335 8.95l-2.142 3.918-2.17-.058-1.712-.045L2.72 9.269l2.143-3.847 3.717-.104 1.756 3.633zM6.153 13.2l2.04.055 1.887 3.325-2.424 2.052-3.468-1.98.18-3.5 1.785.049zm4.25 3.616h4.009l1.36 1.837c-.594.798-1.357 1.338-2.308 1.89l-3.78.323-1.728-1.98 2.447-2.07zm6.532-3.856l.02-.032 1.852.005.749.002a8.876 8.876 0 0 1-.52 3.26 8.166 8.166 0 0 1-2.956 2.218l-1.333-1.801 2.188-3.652zm-6.49 3.47l-1.912-3.366 2.141-3.919 1.551-.04 2.422-.065 1.97 3.689-2.217 3.7h-3.954zm6.4-4.105L14.971 8.82l.844-3.576 2.812.214c.717.963 1.493 2.11 1.796 3.562.152 1.286-.264 2.255-.704 3.283a12.49 12.49 0 0 0-.105.247l-2.655-.008-.116-.216z" fill="#25241F"/></svg>