<svg width="32" height="32" xmlns="http://www.w3.org/2000/svg"><g fill="#2A6CB2"><path d="M24 11.538c-.589.26-1.22.438-1.885.517a3.296 3.296 0 0 0 1.443-1.815 6.617 6.617 0 0 1-2.086.797 3.282 3.282 0 0 0-5.593 2.992 9.318 9.318 0 0 1-6.764-3.43 3.257 3.257 0 0 0-.444 1.65 3.28 3.28 0 0 0 1.46 2.732 3.283 3.283 0 0 1-1.487-.412v.041a3.286 3.286 0 0 0 2.632 3.219 3.325 3.325 0 0 1-.864.115 3.15 3.15 0 0 1-.618-.061 3.284 3.284 0 0 0 3.065 2.28 6.585 6.585 0 0 1-4.076 1.402c-.265 0-.526-.016-.783-.045a9.278 9.278 0 0 0 5.031 1.477c6.038 0 9.338-5.001 9.338-9.339l-.01-.425A6.554 6.554 0 0 0 24 11.538z"/><path d="M16 32c8.837 0 16-7.163 16-16S24.837 0 16 0 0 7.163 0 16s7.163 16 16 16zm0-.97C7.699 31.03.97 24.301.97 16 .97 7.699 7.699.97 16 .97 24.301.97 31.03 7.699 31.03 16c0 8.301-6.729 15.03-15.03 15.03z"/></g></svg>