<svg width="23" height="33" xmlns="http://www.w3.org/2000/svg"><path d="M19.114 18.694a10.832 10.832 0 0 1-4.696 2.72l-.005.002-.006.001c-.047.013-.095.02-.141.034h2.78c.688 0 1.247.548 1.247 1.225v5.557h.178c.203 0 .369.162.369.362v1.044h.081c.315 0 .57.252.57.562v1.738c0 .31-.255.561-.57.561H3.968a.567.567 0 0 1-.571-.561V30.2c0-.31.256-.562.57-.562h.082v-1.044c0-.2.166-.362.37-.362h.177v-5.557c0-.677.559-1.225 1.247-1.225h2.79a10.82 10.82 0 0 1-4.855-2.754C1.73 16.685.602 14.01.6 11.164v-.005c0-2.847 1.128-5.523 3.175-7.536A10.866 10.866 0 0 1 11.441.5c2.9 0 5.623 1.108 7.67 3.12 2.048 2.013 3.176 4.689 3.178 7.535v.004c0 2.846-1.128 5.522-3.175 7.535zm.114-.69zm.375-.436zm-.772.85zm-.806.709zm-.676.499zm-.866.523zm-7.685.938zm.833.177zm-2.449-.736c-.111-.049-.224-.096-.334-.15.03.015.058.033.09.048.08.037.164.067.244.102zm.8.314c-.12-.041-.238-.081-.356-.127.118.046.237.086.356.127zM4.06 18.42l.006.004-.006-.004zm2.35 1.729c-.106-.056-.213-.111-.317-.172.104.06.21.116.316.172zm-.742-.443c-.098-.064-.197-.123-.292-.191.095.066.194.127.292.19zm-.733-.526c-.079-.062-.16-.12-.237-.184.077.064.158.122.237.184zM3.483 17.8zm-.723-.933zM1 11.164zm1.32 4.995zm-.318-.598zm-.328-.765zm-.223-.635zm-.21-.808zm-.127-.665zM1 11.16zm.03-.755zM2.165 6.44zM1.147 9.445zm.152-.738zm.24-.814zm1.04-2.163zm.977-1.298zm-.547.671zm5.615-3.826l3.318-.12.609 1.819-3.169 2.182-3.812.107-.557-1.747c.692-.849 1.869-1.58 3.587-2.235a10.418 10.418 0 0 0-4.211 2.323l.247.044.572 1.794-2.19 3.928-1.88.13c-.022.133-.04.265-.057.398l1.934-.136 1.636 3.59-.187 3.624-1.7-.107c.095.14.194.277.297.412l1.533.096 3.684 2.102L9.866 21.3c.146.02.292.049.44.064l.108.012c.34.032.689.048 1.03.048h.003c.96 0 1.91-.127 2.825-.377l.036-.01c.533-.149 1.05-.344 1.551-.576a5.95 5.95 0 0 0 1.152-1.192 8.621 8.621 0 0 0 2.624-1.74c.306-.38.584-.779.831-1.192a9.515 9.515 0 0 0 .409-3.198c.048-.112.094-.223.143-.332.39-.913.792-1.85.777-3.012a10.005 10.005 0 0 0-.65-2.45c.11.27.21.543.296.82-.408-1.072-1.029-1.963-1.609-2.74l-.11-.525a10.33 10.33 0 0 0-.54-.639l.215 1.03-2.81-.213-3.635-2.154-.596-1.784 1.102-.056a10.635 10.635 0 0 0-4.835.194zm11.874 15.006zm.323-.596zm-4.422-13.57c-.015-.008-.028-.018-.043-.025.015.007.028.017.043.025zm-.87-.41c-.082-.035-.166-.064-.25-.097.084.033.168.062.25.098zm-.883-.32c-.09-.027-.18-.057-.27-.082.09.025.181.055.27.083zm-1.07-.28c-.031-.005-.063-.014-.093-.02.03.006.062.015.094.02zm5.254 2.79l.01.01-.01-.01zm-1.685-1.342c.077.05.152.104.229.156-.077-.052-.152-.105-.23-.156zm.775.554c.073.057.145.111.216.17-.07-.059-.143-.113-.216-.17zm1.83 1.824zm.547.775zm.821 1.566zm.771 3.88zm-.084-1.292zm.084 1.296zm-.806 3.968zm.267-.704zm.193-.63zm.143-.598zm.123-.772zm-5.512-7.06l-.845 3.584-2.675.07-1.321.036L9.7 5.419l3.094-2.13 3.502 2.075zm-5.189 3.884L8.93 13.23l-2.206-.059-1.74-.046-1.62-3.555 2.18-3.911 3.78-.106 1.784 3.694zm-4.252 4.321l2.074.055 1.919 3.38-2.464 2.087-3.526-2.012.184-3.559 1.813.05zm4.321 3.676h4.076l1.383 1.868c-.604.81-1.38 1.36-2.347 1.921l-3.842.328-1.758-2.012 2.488-2.105zm6.641-3.92l.02-.033 1.884.005.76.003a9.024 9.024 0 0 1-.528 3.314 8.302 8.302 0 0 1-3.005 2.254l-1.356-1.83 2.225-3.713zM11.22 16.85l-1.944-3.42 2.176-3.984 1.577-.041 2.463-.065 2.001 3.75-2.253 3.762h-4.02zm6.505-4.173l-1.904-3.565.859-3.635 2.859.218c.729.979 1.518 2.145 1.825 3.62.155 1.308-.268 2.294-.715 3.338-.036.083-.073.167-.107.252l-2.7-.009-.117-.22z" fill="#25241F" fill-rule="evenodd"/></svg>