<svg width="16" height="17" xmlns="http://www.w3.org/2000/svg"><path d="M5.419 3.214H2.5a.489.489 0 1 0 0 .978h2.92a.489.489 0 0 0 0-.978zm0 1.956H2.5a.489.489 0 1 0 0 .977h2.92a.489.489 0 0 0 0-.977zm0 1.955H2.5a.489.489 0 1 0 0 .977h2.92a.489.489 0 0 0 0-.977zm0 1.955H2.5a.489.489 0 1 0 0 .978h2.92a.489.489 0 0 0 0-.978zm0 1.988H2.5a.489.489 0 0 0 0 .978h2.92a.489.489 0 0 0 0-.978zM7.06 4.192h2.917a.489.489 0 1 0 0-.978H7.06a.489.489 0 0 0 0 .978zm0 1.955h2.917a.489.489 0 1 0 0-.977H7.06a.489.489 0 0 0 0 .977zm1.894 1.467a.489.489 0 0 0-.489-.49H7.06a.489.489 0 0 0 0 .978h1.405c.27 0 .489-.218.489-.488zm4.63 3.661a.489.489 0 0 0-.687.075l-1.259 1.57-.779-.565a.489.489 0 1 0-.574.791l1.157.838a.487.487 0 0 0 .668-.09l1.55-1.932a.489.489 0 0 0-.076-.687z"/><path d="M14.82 9.774a4.031 4.031 0 0 0-2.341-1.176v-6.63A1.97 1.97 0 0 0 10.51 0H1.97A1.97 1.97 0 0 0 0 1.969V13.29a1.97 1.97 0 0 0 1.969 1.97h6.87a4.024 4.024 0 0 0 3.086 1.423 4.065 4.065 0 0 0 4.06-4.062 4.04 4.04 0 0 0-1.165-2.848zM.978 13.291V1.97c0-.547.444-.991.99-.991h8.542c.547 0 .991.444.991.99v6.614a4.067 4.067 0 0 0-3.281 5.7H1.969a.992.992 0 0 1-.991-.99zm10.947 2.416a3.059 3.059 0 0 1-2.462-1.23 3.087 3.087 0 0 1 2.51-4.94l.008.001a3.062 3.062 0 0 1 2.142.921 3.087 3.087 0 0 1-2.197 5.247z"/></svg>