<svg width="68" height="68" xmlns="http://www.w3.org/2000/svg"><g fill="none"><path d="M68 34c0 18.778-15.222 34-34 34S0 52.778 0 34 15.222 0 34 0s34 15.222 34 34z" fill="#DBDBDB"/><path d="M47.563 46.59a2.528 2.528 0 0 0 .925-3.454l-1.574-2.727-4.792 2.767a.783.783 0 1 1-.783-1.355l4.792-2.767-4.814-8.339-6.54 3.776a.783.783 0 1 1-.783-1.355l6.54-3.776-4.814-8.34-4.792 2.768a.783.783 0 1 1-.783-1.356l4.792-2.766-4.814-8.34-6.54 3.777a.783.783 0 0 1-.783-1.356l6.54-3.776L23.905.554A2.528 2.528 0 0 0 20.45-.37L10.437 5.41a2.528 2.528 0 0 0-.925 3.453l24.584 42.583a2.528 2.528 0 0 0 3.454.925l10.013-5.781zM16.903 7.42a.672.672 0 0 1 .247-.917l2.033-1.174a.672.672 0 0 1 .672 1.164l-2.033 1.173a.672.672 0 0 1-.918-.246z" fill="#FFF"/></g></svg>