<svg width="24" height="24" xmlns="http://www.w3.org/2000/svg"><path d="M12 0C5.373 0 0 5.373 0 12s5.373 12 12 12 12-5.373 12-12C23.993 5.376 18.624.007 12 0zm.428 3.46L16.6 1.792c.473.214.931.461 1.37.739l.012.007c.431.273.844.576 1.234.905l.034.03c.175.149.346.303.511.463l.064.06c.173.17.342.345.504.525l.04.046c.143.16.28.326.413.494l.096.12c.144.187.284.378.416.574l-.832 3.535-4.091 1.364-3.942-3.153V3.46zM3.122 5.184l.095-.12c.131-.167.268-.33.408-.49l.045-.05c.161-.18.329-.355.502-.524l.06-.058c.165-.158.334-.312.508-.46l.04-.034c.387-.327.795-.628 1.223-.9l.015-.01A11.2 11.2 0 0 1 7.381 1.8l4.19 1.66V7.5l-3.94 3.153L3.537 9.29l-.831-3.535c.133-.196.271-.386.415-.572zM2.64 18.138c-.118-.18-.23-.362-.337-.548l-.026-.045a10.514 10.514 0 0 1-.303-.565l-.003-.006c-.2-.402-.377-.816-.527-1.24v-.004a11.12 11.12 0 0 1-.196-.61l-.022-.076a11.03 11.03 0 0 1-.149-.588l-.013-.056a11.09 11.09 0 0 1-.21-1.355l2.441-2.93 4.063 1.354 1.18 4.717L6.6 18.764l-3.96-.626zm12.024 4.74c-.2.049-.406.092-.61.13l-.088.016a9.909 9.909 0 0 1-.528.08l-.142.018c-.164.019-.33.033-.496.045-.053.004-.104.009-.157.012a10.47 10.47 0 0 1-1.233.005c-.024 0-.046-.004-.07-.005a12.85 12.85 0 0 1-.52-.04l-.02-.004a11.397 11.397 0 0 1-1.128-.18l-2.366-3.704 1.907-2.543h5.574l1.938 2.56-2.061 3.61zm8.274-8.478l-.012.057c-.045.197-.095.393-.15.587l-.021.076c-.06.206-.125.41-.196.61v.005c-.15.423-.326.837-.527 1.24l-.003.006c-.096.191-.197.38-.303.565l-.026.044a9.916 9.916 0 0 1-.337.548l-3.946.622-1.951-2.576 1.178-4.716 4.064-1.354 2.442 2.93c-.043.456-.113.909-.212 1.356z" fill="#004896"/></svg>