<svg width="579" height="108" xmlns="http://www.w3.org/2000/svg" xmlns:xlink="http://www.w3.org/1999/xlink"><defs><path id="a" d="M.205.575h69.549v102.664H.205z"/><path id="c" d="M.972.717h77.812V107H.972z"/></defs><g fill="none" fill-rule="evenodd"><g transform="translate(509 3.044)"><mask id="b" fill="#fff"><use xlink:href="#a"/></mask><path d="M11.344 5.66v94.6h-8.16V13.82l8.16-8.16zM24.24 25.682l-.167-.041h-.252l-.054.023-.085.019c-.029.005-.067.01-.113.022l-.205.064c-.115.05-.19.114-.215.134a1.215 1.215 0 0 0-.253.197c-.086.09-.138.179-.179.248l-.127.226a1.038 1.038 0 0 0-.076.314l-.034.159v62.947l-8.157 8.159v-94.6h8.725L44.495 46.43v23.23L25.331 26.528c-.063-.142-.12-.193-.12-.193a1.257 1.257 0 0 0-.207-.272c-.089-.086-.177-.137-.242-.177l-.246-.138a.969.969 0 0 0-.276-.066zm22.244 52.4l.097-.035a.9.9 0 0 0 .217-.132c.06-.037.16-.1.253-.196.091-.094.145-.185.182-.248l.131-.233a.947.947 0 0 0 .074-.308l.036-.161v-62.95l8.16-8.16v94.602h-8.682L25.458 51.883V34.152L44.62 77.278l.076.167.041.035c.095.147.221.279.38.394l.142.096c.392.22.786.269 1.226.112zM66.775 3.554v86.442l-8.162 8.159V3.554h8.162zm1.49-2.98H57.123c-.276 0-.54.076-.772.217l-11.42 11.357-.22.223v.06c-.139.23-.215.494-.216.77v26.57L25.305 1.407c-.065-.133-.129-.188-.125-.184-.039-.058-.103-.154-.206-.25-.086-.08-.168-.126-.232-.165a1.198 1.198 0 0 0-.249-.131.987.987 0 0 0-.259-.062l-11.4-.04c-.278 0-.544.076-.774.217L.641 12.148l-.126.127-.01.032a1.476 1.476 0 0 0-.3.895v88.548a1.49 1.49 0 0 0 1.49 1.489h11.138c.396 0 .77-.154 1.054-.436l11.355-11.358v-.061c.141-.231.216-.496.216-.772V59.22l19.15 43.093.078.199.055.045c.095.144.216.27.356.372l.166.11c.24.135.476.2.722.2h11.138c.4 0 .776-.156 1.056-.44l11.134-11.13c.285-.282.441-.658.441-1.057V2.064a1.49 1.49 0 0 0-1.489-1.49z" fill="#010202" mask="url(#b)"/></g><path d="M11.318 6.886v96.157H3.002V15.2l8.316-8.313zm14.316 39.672L38.31 84.666l.072.192.044.043c.206.39.557.663.988.758.26.057.534.043.79-.04a1.32 1.32 0 0 0 .358-.185l.122-.084c.185-.152.33-.353.426-.588l.05-.06 14.774-66.114L66.54 7.981l-21.242 95.062H36.27L25.634 71.071V46.558zM39.45 78.58L25.554 36.803l-.069-.149c-.036-.073-.076-.134-.114-.192l-.146-.197a1.327 1.327 0 0 0-.244-.199l-.22-.137c-.103-.047-.193-.067-.285-.089a1.499 1.499 0 0 0-.164-.035l-.179-.019c-.127 0-.225.028-.204.03a1.074 1.074 0 0 0-.31.062l-.118.056c-.072.036-.133.076-.186.11l-.208.154c-.083.08-.136.155-.187.228a1.17 1.17 0 0 0-.15.241 1.295 1.295 0 0 0-.078.25c-.013.047-.033.117-.044.2l-.017 55.49-8.31 8.313V4.764h8.73L42.725 63.92 39.45 78.58zm28.181-18.215v42.678h-8.31V93.41l8.31-33.045zm11.317-55.6v87.841l-8.315 8.313V48.245l-.023-.2a1.738 1.738 0 0 0-.149-.479 1.46 1.46 0 0 0-.149-.229 1.412 1.412 0 0 0-.194-.213 1.55 1.55 0 0 0-.239-.167 1.535 1.535 0 0 0-.207-.103l-.179-.066a.976.976 0 0 0-.178-.024.878.878 0 0 0-.183-.02l-.188.021a1.634 1.634 0 0 0-.255.06 1.304 1.304 0 0 0-.228.085 1.748 1.748 0 0 0-.445.343c-.08.09-.135.18-.174.248-.029.05-.068.121-.103.21L56.465 92.457l-7.373 7.372L70.336 4.764h8.612zM80.45 1.76H69.132l-.22.028a1.553 1.553 0 0 0-.541.193h-.082L53.501 16.774l-.168.178-.01.055a1.39 1.39 0 0 0-.225.501l-9.1 40.722L25.554 2.778l-.069-.15a1.637 1.637 0 0 0-.116-.193l-.14-.192a1.384 1.384 0 0 0-.264-.213l-.2-.124a1.468 1.468 0 0 0-.312-.096c-.036-.009-.09-.023-.146-.03L12.82 1.76a1.49 1.49 0 0 0-1.06.44L.44 13.517c-.284.283-.44.66-.44 1.061v89.966c0 .828.673 1.501 1.501 1.501H12.82c.401 0 .777-.155 1.062-.439L25.193 94.29a1.49 1.49 0 0 0 .441-1.062V80.582l8.15 24.495.066.146.011.011c.096.182.23.342.401.477l.138.096c.252.158.517.238.787.238h11.32c.3-.002.585-.097.831-.272.038-.022.1-.06.045-.032l8.935-8.888v7.691c0 .828.673 1.501 1.5 1.501h11.314c.4 0 .775-.155 1.061-.438l11.49-11.488.007-.046c.168-.248.26-.539.261-.845V3.263c0-.828-.674-1.502-1.502-1.502zm150.988 93.218c10.45-.933 18.33-9.545 18.33-20.034a5.357 5.357 0 0 0-.045-.64l.015-.179c0-.327-.02-.653-.052-.969a1 1 0 0 0-.043-.205l-.006-.096a1.573 1.573 0 0 0-.016-.222v-35.21c0-6.984-5.681-12.667-12.663-12.667h-9.668v-8.299h15.315c8.446 0 15.317 6.872 15.317 15.317l.002 46.707c-.954 13.907-12.618 24.802-26.554 24.802h-26.678V15.578l8.302-8.298v86.204c0 .827.673 1.5 1.5 1.5h16.81l.134-.006zm8.248-11.294c.162.009.322.014.477.014.062 0 .12-.007.116-.013h.32c.157 0 .313-.024.463-.073a9.518 9.518 0 0 0 4.097-1.367c-2.531 5.457-7.754 9.181-13.9 9.739h-13.144l8.297-8.299 13.274-.001zm6.937-10.995l-.004.028.013.11c.054.422.069.84.085 1.259l.008.156a6.535 6.535 0 0 1-6.446 6.443h-12.99V27.756h9.669c5.328 0 9.663 4.337 9.663 9.667v35.214l.002.052zm22.595 4.041c-.031 14.04-11.01 25.569-24.823 26.493 9.439-4.62 15.783-13.869 16.522-24.522l.005-46.927c0-10.1-8.217-18.317-18.317-18.317h-16.816c-.827 0-1.5.673-1.5 1.5v66.606l-8.295 8.298v-84.7h26.61c14.643 0 26.582 11.91 26.614 26.548V76.73zM242.605 2.161h-28.112c-.404 0-.782.158-1.062.442l-11.293 11.289a1.489 1.489 0 0 0-.446 1.065v89.826c0 .827.673 1.5 1.5 1.5h39.413c16.292 0 29.577-13.255 29.613-29.549v-45.03c-.036-16.29-13.321-29.543-29.613-29.543zM148.67 25.785l-.124-.03a1.324 1.324 0 0 0-.158-.022h-.183l-.119.016c-.042.006-.106.016-.06.01l-.245.08a1.486 1.486 0 0 0-.18.098l-.29.26a.912.912 0 0 0-.07.097l-8.325 30.797-11.786 9.045 17.038-63.59h8.255l24.822 92.62-7.387 7.386-20.35-75.94-.082-.193a1.08 1.08 0 0 0-.073-.123l-.079-.108a1.189 1.189 0 0 0-.08-.086l-.087-.08a1.505 1.505 0 0 0-.123-.09l-.166-.088a1.304 1.304 0 0 0-.149-.06zm-8.204 33.326h3.118l2.424 9.045H128.68l11.786-9.045zm1.227-2.546l.604-2.256.605 2.256h-1.209zm-20.095 23.203c-.046.009-.09.02-.199.053a.97.97 0 0 0-.149.065l-.37.283a1.058 1.058 0 0 0-.093.114l-6.368 23.454h-9.363l22.885-85.413 12.791-12.79-17.019 63.522-.037.158a1.22 1.22 0 0 0-.02.215l.01.116c.008.1.028.199.076.34a1.357 1.357 0 0 0 .296.45l.17.142.004.004.193.133h.072c.036.014.077.027.122.043.113.03.221.045.33.045h21.761l2.424 9.044h-27.29l-.226.022zm-3.743 20.982l4.946-18.458h9.363l-1.519 5.668-12.79 12.79zm40.324 2.987L143.615 49.39l4.681-17.47 19.244 71.816h-9.36zM154.61.883l-.056-.147a1.179 1.179 0 0 0-.063-.115l-.488-.466a1.273 1.273 0 0 0-.153-.071l-.099-.032a1.242 1.242 0 0 0-.13-.031L143.19 0l-.2.017c-.122.02-.237.055-.392.13a1.238 1.238 0 0 0-.308.226L125.866 16.8l-.058.07a1.41 1.41 0 0 0-.196.344l-23.45 87.492a1.345 1.345 0 0 0-.03.193l-.007.114.082.446c.015.039.033.079.053.118l.123.199.475.385c.042.019.093.036.076.03l.262.073c.068.012.135.018.201.018h12c.121 0 .242-.02.362-.056l.114-.038c.092-.037.184-.088.321-.191l16.478-16.465.128-.155c.043-.057.082-.121.121-.198l1.88-6.888h14.995l6.183 23.069.031.092a.72.72 0 0 0 .088.186l.065.127.058.054c.056.065.128.133.237.22a1.333 1.333 0 0 0 .744.243H169.2c.07 0 .138-.006.204-.018l.224-.057.05-.02.171-.085a.674.674 0 0 0 .072-.047l9.583-9.554.145-.15c.074-.09.136-.192.183-.3l.02-.046c.052-.136.081-.281.085-.477a1.24 1.24 0 0 0-.04-.312L154.608.883zm148.409 101.28V14.319l8.315-8.314v96.158h-8.315zm22.632-56.486l12.68 38.122.072.185.04.039c.207.384.565.66.989.757.263.057.53.043.787-.042a1.33 1.33 0 0 0 .358-.184l.123-.085c.18-.146.32-.337.418-.572l.055-.062 14.777-66.126 10.606-10.61-21.243 95.064h-9.026L325.65 70.19V45.677zM339.466 77.7l-13.908-41.808-.06-.128a1.727 1.727 0 0 0-.108-.176l-.151-.207c-.084-.09-.168-.145-.245-.2l-.22-.134a1.396 1.396 0 0 0-.279-.086 1.429 1.429 0 0 0-.163-.035l-.183-.02c-.128 0-.226.027-.206.029-.048.003-.15.009-.246.04l-.173.075c-.075.037-.137.079-.199.119l-.202.148c-.084.08-.137.158-.188.23a1.236 1.236 0 0 0-.146.234 1.34 1.34 0 0 0-.085.272c-.012.04-.026.1-.038.179l-.019.06v55.434l-8.31 8.313V3.883h8.73l19.675 59.157-3.276 14.66zm28.181-18.215v42.678h-8.31V92.53l8.31-33.045zm11.317-55.602v87.842l-8.315 8.314V47.365l-.022-.195a1.684 1.684 0 0 0-.05-.223 1.325 1.325 0 0 0-.246-.485 1.284 1.284 0 0 0-.435-.385 1.508 1.508 0 0 0-.21-.104l-.176-.065a.845.845 0 0 0-.178-.025.962.962 0 0 0-.183-.02l-.19.022a1.612 1.612 0 0 0-.245.056 1.44 1.44 0 0 0-.233.088 1.419 1.419 0 0 0-.267.177 1.215 1.215 0 0 0-.181.167 1.602 1.602 0 0 0-.275.455l-11.276 44.749-7.374 7.372 21.243-95.066h8.613zM380.466.88H369.15l-.214.027c-.067.01-.13.024-.199.044a1.347 1.347 0 0 0-.45.219L353.49 15.92l-.144.17-.007.035a1.38 1.38 0 0 0-.226.502l-9.099 40.72-18.456-55.481-.06-.127a1.423 1.423 0 0 0-.11-.18l-.143-.197a1.345 1.345 0 0 0-.259-.21l-.202-.127c-.11-.051-.207-.072-.313-.096-.041-.01-.108-.028-.17-.036L312.836.88c-.401 0-.779.157-1.062.44L300.46 12.634a1.493 1.493 0 0 0-.444 1.064v89.966c0 .828.675 1.502 1.502 1.502h11.319c.4 0 .776-.157 1.06-.441L325.21 93.41c.284-.283.442-.661.442-1.064V79.703l8.118 24.404.063.204.048.046c.094.18.226.338.382.462l.154.107c.254.159.517.24.788.24h11.49l.033-.018c.224-.033.435-.12.621-.252a.95.95 0 0 0 .082-.054l8.904-8.87v7.692c0 .828.674 1.502 1.5 1.502h11.314c.397 0 .772-.155 1.062-.44l11.537-11.537v-.062a1.5 1.5 0 0 0 .22-.78V2.382c0-.828-.673-1.501-1.502-1.501z" fill="#010202"/><g transform="translate(403 1.044)"><mask id="d" fill="#fff"><use xlink:href="#c"/></mask><path d="M47.642 26.55a.85.85 0 0 0-.085-.033l-.157-.043a1.402 1.402 0 0 0-.12-.02l-.092-.007-.17.006c-.05.004-.09.011-.074.012l-.23.057a.297.297 0 0 0-.038.015l-.238.124a.871.871 0 0 0-.084.061l-.186.181a1.14 1.14 0 0 0-.081.108l-.054.088c-.025.044-.046.09-.054.11l-8.215 30.6-11.787 9.044L43.015 3.264h8.256l24.82 92.618-7.386 7.387L48.36 27.346l-.021-.057-.015-.038-.204-.346a1.05 1.05 0 0 0-.057-.063l-.15-.132-.272-.16zm-8.328 33.278h3.118l2.423 9.045H27.527l11.787-9.045zm1.226-2.546l.605-2.255.604 2.255h-1.21zM20.58 80.47a.686.686 0 0 0-.101.011l-.27.071a1.712 1.712 0 0 0-.191.095.907.907 0 0 0-.118.08l-.322.362a1.32 1.32 0 0 0-.093.194l-6.22 23.171H3.904L26.79 19.042l12.79-12.79-17.04 63.59a1.29 1.29 0 0 0-.038.303l.008.116a1.3 1.3 0 0 0 .05.257l.033.095a1.267 1.267 0 0 0 .483.595 1.361 1.361 0 0 0 .7.21h21.76l2.424 9.044H20.67l-.091.006zm-3.877 20.998l4.945-18.458h9.363l-1.52 5.667-12.788 12.791zm40.323 2.986L42.462 50.11l4.68-17.472 19.245 71.816h-9.361zM53.455 1.6l-.266-.463-.373-.283a1.009 1.009 0 0 0-.12-.053l-.1-.032a1.513 1.513 0 0 0-.105-.027l-.184-.025-10.361.006-.111.013a1.314 1.314 0 0 0-.697.355L24.747 17.482l-.107.126a1.588 1.588 0 0 0-.182.327L1.042 105.313l-.07.43.02.202a.704.704 0 0 0 .019.091l.038.126c.016.046.036.09.069.154l.052.092a.912.912 0 0 0 .05.072l.09.11a.734.734 0 0 0 .079.077l.113.093.092.06.11.06c.04.017.079.032.148.058l.19.045c.07.011.136.017.202.017h12.013c.113-.002.227-.019.377-.064l.086-.03c.095-.038.188-.089.318-.189l16.467-16.454.142-.167a1.24 1.24 0 0 0 .12-.198l1.88-6.889h14.997l6.165 23.001.048.16c.03.081.066.155.109.225l.044.066c.065.091.145.176.29.295.09.064.193.12.38.188.122.036.237.054.369.056h11.997c.067 0 .132-.006.202-.017l.434-.156a1.5 1.5 0 0 0 .184-.13l9.547-9.534.068-.077c.08-.095.147-.2.197-.318l.019-.042c.054-.14.083-.286.087-.489a1.311 1.311 0 0 0-.042-.303L53.455 1.6z" fill="#010202" mask="url(#d)"/></g></g></svg>