<svg width="114" height="33" xmlns="http://www.w3.org/2000/svg"><g fill="none"><path d="M99.492 24.493h1.454v1.52h-1.454v-1.52zm3.695-5.95h1.19v1.29c.097-.25.336-.557.716-.917.38-.36.82-.54 1.315-.54.024 0 .063.002.119.006l.285.028v1.326a1.866 1.866 0 0 0-.41-.035c-.631 0-1.116.203-1.455.61a2.134 2.134 0 0 0-.508 1.406v4.296h-1.252v-7.47zm5.963 0v4.96c0 .38.06.692.18.934.224.446.639.67 1.246.67.872 0 1.466-.391 1.782-1.172.171-.419.257-.993.257-1.723v-3.67h1.252v7.471h-1.182l.014-1.102a2.531 2.531 0 0 1-.606.719c-.478.39-1.057.586-1.74.586-1.062 0-1.785-.356-2.17-1.068-.209-.38-.313-.89-.313-1.527v-5.078h1.28zM16.353 9.929a.241.241 0 0 1-.24-.24c0-.132.11-.24.24-.24.131 0 .24.108.24.24 0 .131-.109.24-.24.24zM2.206 21.009c0-5.298 4.343-9.606 9.65-9.606s9.65 4.308 9.65 9.606c0 5.285-4.343 9.605-9.65 9.605s-9.65-4.325-9.65-9.605zM15.64 6.346c.228.057.37.291.308.52a.43.43 0 0 1-.833-.212.43.43 0 0 1 .525-.308zm.387-.84a.24.24 0 0 1 .24.24c0 .131-.108.24-.24.24a.241.241 0 0 1-.239-.24.24.24 0 0 1 .24-.24zm-.2-.857a.24.24 0 0 1 .24.24c0 .131-.108.24-.24.24a.241.241 0 0 1-.239-.24c0-.132.109-.24.24-.24zm2.97 2.251c.132 0 .24.109.24.24s-.108.24-.24.24a.241.241 0 0 1-.239-.24c0-.131.103-.24.24-.24zm-.199-.851c.131 0 .24.108.24.24 0 .131-.109.24-.24.24a.241.241 0 0 1-.24-.24c0-.132.109-.24.24-.24zM18.24 5.3c.131 0 .24.109.24.24a.236.236 0 0 1-.24.234.241.241 0 0 1-.24-.24c0-.131.109-.234.24-.234zm-.564-.663c.13 0 .24.109.24.24 0 .132-.11.24-.24.24a.241.241 0 0 1-.24-.24c0-.131.103-.24.24-.24zm-.701-.508c.13 0 .239.108.239.24 0 .131-.108.24-.24.24a.241.241 0 0 1-.239-.24.24.24 0 0 1 .24-.24zm-.753-.292c.131 0 .24.109.24.24 0 .132-.109.24-.24.24a.241.241 0 0 1-.24-.24c0-.131.11-.24.24-.24zm-.764.063c.131 0 .24.109.24.24s-.109.24-.24.24a.241.241 0 0 1-.239-.24.235.235 0 0 1 .24-.24zm-.564-.646c.131 0 .24.109.24.24 0 .132-.109.24-.24.24a.241.241 0 0 1-.24-.24c0-.131.109-.24.24-.24zm-.735-.485c.13 0 .24.108.24.24 0 .131-.11.24-.24.24a.241.241 0 0 1-.24-.24c0-.132.109-.24.24-.24zm-.764-.28c.131 0 .24.108.24.24 0 .131-.109.24-.24.24a.241.241 0 0 1-.24-.24c0-.138.109-.24.24-.24zm-.78-.138c.13 0 .239.109.239.24 0 .132-.109.24-.24.24a.241.241 0 0 1-.24-.24c0-.131.109-.24.24-.24zM5.21 8.626a.428.428 0 1 1-.416-.749.43.43 0 0 1 .587.172.421.421 0 0 1-.171.577zm3.072-1.452a.428.428 0 1 1 .308-.52.42.42 0 0 1-.308.52zm3.574-.445a.432.432 0 0 1-.433-.429.432.432 0 0 1 .866 0 .44.44 0 0 1-.433.429zM7.678 5.98a.241.241 0 0 1-.24-.24c0-.131.109-.24.24-.24s.24.109.24.24c0 .137-.109.24-.24.24zm.2-.851a.241.241 0 0 1-.24-.24.24.24 0 0 1 .24-.24c.13 0 .239.108.239.24 0 .131-.109.24-.24.24zM4.912 7.38a.241.241 0 0 1-.239-.24c0-.131.108-.24.24-.24.13 0 .239.109.239.24s-.108.24-.24.24zm.2-.857a.241.241 0 0 1-.24-.24c0-.132.109-.24.24-.24s.24.108.24.24c0 .137-.109.24-.24.24zm.353-.749a.241.241 0 0 1-.24-.24c0-.131.11-.24.24-.24.131 0 .24.109.24.24 0 .132-.103.24-.24.24zm.57-.663a.241.241 0 0 1-.24-.24c0-.131.11-.24.24-.24.131 0 .24.109.24.24 0 .132-.109.24-.24.24zm.701-.502a.241.241 0 0 1-.239-.24.24.24 0 0 1 .24-.24c.13 0 .239.108.239.24 0 .131-.109.24-.24.24zm.747-.298a.241.241 0 0 1-.24-.24c0-.131.109-.24.24-.24s.24.109.24.24c.005.138-.103.24-.24.24zm.77.069a.241.241 0 0 1-.24-.24c0-.131.109-.24.24-.24.13 0 .239.109.239.24s-.108.24-.24.24zm.564-.646a.241.241 0 0 1-.24-.24c0-.131.109-.24.24-.24s.24.109.24.24a.245.245 0 0 1-.24.24zm.73-.485a.241.241 0 0 1-.24-.24.24.24 0 0 1 .24-.24c.13 0 .239.108.239.24 0 .131-.103.24-.24.24zm.763-.286a.241.241 0 0 1-.24-.24c0-.132.11-.24.24-.24.131 0 .24.108.24.24 0 .137-.109.24-.24.24zM11.856 5.3a.241.241 0 0 1-.24-.24c0-.131.109-.24.24-.24s.24.109.24.24-.109.24-.24.24zm0-.863a.241.241 0 0 1-.24-.24c0-.131.109-.24.24-.24s.24.109.24.24c0 .132-.109.24-.24.24zm0-.868a.241.241 0 0 1-.24-.24c0-.132.109-.24.24-.24s.24.108.24.24c0 .137-.109.24-.24.24zm-.758-.738a.241.241 0 0 1-.24-.24c0-.131.109-.24.24-.24s.24.109.24.24a.245.245 0 0 1-.24.24zm7.815 5.046c.21.114.285.372.17.583a.434.434 0 0 1-.757-.417.434.434 0 0 1 .587-.166zM13.389 9.13a.241.241 0 0 1-.24-.24c0-.132.11-.24.24-.24.131 0 .24.108.24.24 0 .131-.103.24-.24.24zm-6.036.8a.241.241 0 0 1-.24-.24c0-.132.109-.24.24-.24s.24.108.24.24c0 .131-.109.24-.24.24zm2.964-.8a.241.241 0 0 1-.24-.24c0-.132.109-.24.24-.24s.24.108.24.24c0 .131-.109.24-.24.24z" fill="#FFF"/><path d="M13.634 7.409c.063.142.143.251.24.342a8.355 8.355 0 0 0-.661-.08.973.973 0 0 0 .313-.274.697.697 0 0 0 .108.012zm-3.562 0c.04 0 .074-.006.108-.012.086.114.194.206.314.274-.223.023-.44.052-.662.08a.85.85 0 0 0 .24-.342zm-1.283.548a9.436 9.436 0 0 0-.575.149.952.952 0 0 0 .188-.463.986.986 0 0 0 .387.314zm-2.2.714a.946.946 0 0 0 .126-.302l.034-.006a.791.791 0 0 0 .16-.069.997.997 0 0 0 .296.137c-.211.075-.416.155-.616.24zm5.267-1.468a.93.93 0 0 0 .302.406c-.102 0-.2-.006-.302-.006-.103 0-.2 0-.302.006a.898.898 0 0 0 .302-.406zm4.948 1.091a.5.5 0 0 0 .16.069l.033.006a.946.946 0 0 0 .126.302 9.842 9.842 0 0 0-.616-.24 1.08 1.08 0 0 0 .297-.137zM15.493 8.1a16.938 16.938 0 0 0-.576-.149.948.948 0 0 0 .388-.314.9.9 0 0 0 .188.463zm.746-1.863a.54.54 0 0 0 .32-.388c.256.057.547.131.786.222.222.086.4.206.524.315.132.331.206.714.24 1.177-.16.068-.257.228-.314.388-.097.246-.097.498.171.686a.423.423 0 0 1-.45-.446.54.54 0 0 0-.282-.866.538.538 0 0 0-.653.392 2.74 2.74 0 0 1-.017.092.429.429 0 0 1-.758-.246c.45.091.644-.137.718-.44.069-.257.04-.509-.256-.669a.515.515 0 0 0-.029-.217z" fill="#E62644"/><path d="M8.601 5.174c.855-.474 1.978-.56 2.85-.428v.063a.464.464 0 0 0 .103.617.505.505 0 0 0-.336.388c-.325.08-.41.32-.41.583 0 .314.125.583.586.606a.43.43 0 0 1-.65.493.43.43 0 0 1-.16-.482.539.539 0 1 0-.997.12.437.437 0 0 1-.319.389.43.43 0 0 1-.467-.189c.439-.137.496-.428.416-.731-.069-.257-.211-.469-.547-.463a.512.512 0 0 0-.24-.24 3.63 3.63 0 0 1 .171-.726zm3.654-.428c.872-.126 1.99-.046 2.85.428.08.229.137.469.165.72a.54.54 0 0 0-.24.24c-.335-.005-.478.206-.546.463-.08.303-.023.594.416.732a.426.426 0 0 1-.75.295.427.427 0 0 1-.037-.495.536.536 0 0 0 .063-.258.536.536 0 0 0-.963-.328.542.542 0 0 0-.097.466.428.428 0 0 1-.81-.012c.462-.023.587-.291.587-.606 0-.262-.09-.502-.41-.582a.514.514 0 0 0-.336-.389.464.464 0 0 0 .102-.617v-.057h.006zM6.367 6.07a4.99 4.99 0 0 1 .787-.222c.034.177.153.32.319.388a.643.643 0 0 0-.034.217c-.297.155-.32.412-.257.669.08.303.268.531.718.44-.017.388-.513.543-.758.246a.26.26 0 0 0-.017-.092.542.542 0 0 0-.655-.388.532.532 0 0 0-.28.862.416.416 0 0 1-.222.395.425.425 0 0 1-.234.051c.268-.188.262-.44.171-.686-.063-.16-.16-.32-.319-.388.04-.463.114-.846.24-1.172a2.19 2.19 0 0 1 .54-.32zm6.253 2.743l-.77.286-.77-.286.77-.285.77.285zM6.85 9.85l-.068.268-.029.097-.056-.034-.251-.137.068-.257.012-.057.09.028.234.092zm10.01 0l.325-.12.01.057.064.263-.251.137-.052.028-.028-.097-.068-.268z" fill="#E62644"/><path d="M15.493 8.1a.952.952 0 0 1-.188-.463.865.865 0 0 1-.388.314c.194.046.388.098.576.149zm1.31.194a.997.997 0 0 1-.296.137c.205.075.41.155.616.24a.946.946 0 0 1-.126-.302l-.034-.006a.791.791 0 0 1-.16-.069zm-4.947-1.091a.93.93 0 0 1-.302.406c.097 0 .2-.006.302-.006.103 0 .2 0 .302.006a.898.898 0 0 1-.302-.406zM6.589 8.67c.2-.085.405-.165.616-.24a.881.881 0 0 1-.297-.137.5.5 0 0 1-.16.069l-.033.006a1.095 1.095 0 0 1-.126.302zm2.2-.714a.948.948 0 0 1-.387-.314.9.9 0 0 1-.188.463c.194-.057.387-.109.575-.149zm1.283-.548a.942.942 0 0 1-.234.342c.217-.034.44-.062.661-.08a.973.973 0 0 1-.313-.274c-.04.006-.074.012-.114.012zm3.562 0a.697.697 0 0 1-.108-.012 1.027 1.027 0 0 1-.313.274c.222.023.439.052.66.08a1.058 1.058 0 0 1-.227-.32l-.012-.022zm5.279.468a.425.425 0 0 0-.582.172.434.434 0 0 0 .758.417.443.443 0 0 0-.176-.589zm-3.273-1.53zm.387-.84a.241.241 0 0 0-.239.24c0 .131.108.24.24.24.13 0 .239-.109.239-.24a.238.238 0 0 0-.24-.24zm-.2-.857a.241.241 0 0 0-.239.24c0 .131.109.24.24.24s.24-.109.24-.24a.235.235 0 0 0-.24-.24zm2.97 2.251a.241.241 0 0 0-.239.24c0 .131.108.24.24.24.13 0 .239-.109.239-.24a.241.241 0 0 0-.24-.24zm-.199-.851a.241.241 0 0 0-.24.24c0 .131.109.24.24.24s.24-.109.24-.24a.241.241 0 0 0-.24-.24zM18.24 5.3a.241.241 0 0 0-.24.24c0 .131.109.234.24.234s.24-.108.24-.24a.236.236 0 0 0-.24-.234zm-.564-.663a.241.241 0 0 0-.24.24c0 .132.109.24.24.24.13 0 .24-.108.24-.24a.241.241 0 0 0-.24-.24zm-.701-.508a.241.241 0 0 0-.24.24c0 .131.108.24.24.24.13 0 .239-.109.239-.24a.241.241 0 0 0-.24-.24zm-.753-.292a.241.241 0 0 0-.24.24c0 .132.11.24.24.24.131 0 .24-.108.24-.24a.241.241 0 0 0-.24-.24zm-.764.063a.241.241 0 0 0-.239.24c0 .131.108.24.24.24.13 0 .239-.109.239-.24a.245.245 0 0 0-.24-.24zm-.564-.646a.241.241 0 0 0-.24.24c0 .132.109.24.24.24s.24-.108.24-.24a.241.241 0 0 0-.24-.24zm-.735-.485a.241.241 0 0 0-.24.24c0 .131.109.24.24.24.13 0 .24-.109.24-.24a.241.241 0 0 0-.24-.24zm-.764-.28a.241.241 0 0 0-.24.24c0 .131.109.24.24.24s.24-.109.24-.24a.241.241 0 0 0-.24-.24zm-.78-.138a.241.241 0 0 0-.24.24c0 .132.108.24.24.24.13 0 .239-.108.239-.24a.241.241 0 0 0-.24-.24zM5.21 8.626a.428.428 0 0 0 .17-.583.431.431 0 1 0-.171.583zm3.072-1.452a.424.424 0 0 0 .308-.52.433.433 0 0 0-.524-.308.424.424 0 0 0-.308.52.427.427 0 0 0 .524.308zm3.574-.445c.24 0 .433-.195.433-.429a.432.432 0 0 0-.866 0c0 .234.194.429.433.429zM7.678 5.98c.131 0 .24-.109.24-.24a.241.241 0 0 0-.24-.24.241.241 0 0 0-.24.24c0 .137.109.24.24.24zm.2-.851c.13 0 .239-.109.239-.24a.241.241 0 0 0-.24-.24.241.241 0 0 0-.239.24c0 .131.108.24.24.24zM4.912 7.38c.131 0 .24-.109.24-.24a.241.241 0 0 0-.24-.24.241.241 0 0 0-.239.24c0 .131.108.24.24.24zm.2-.857c.131 0 .24-.109.24-.24a.241.241 0 0 0-.24-.24.241.241 0 0 0-.24.24c0 .137.103.24.24.24zm.353-.749c.131 0 .24-.108.24-.24a.233.233 0 0 0-.24-.234.241.241 0 0 0-.24.24c0 .131.11.234.24.234zm.57-.663c.131 0 .24-.108.24-.24a.241.241 0 0 0-.24-.24.241.241 0 0 0-.24.24c0 .132.11.24.24.24zm.701-.502c.131 0 .24-.109.24-.24a.241.241 0 0 0-.24-.24.241.241 0 0 0-.239.24c0 .131.103.24.24.24zm.747-.298c.131 0 .24-.108.24-.24a.241.241 0 0 0-.24-.24.241.241 0 0 0-.24.24c0 .138.109.24.24.24zm.77.069c.13 0 .239-.109.239-.24a.241.241 0 0 0-.24-.24.241.241 0 0 0-.239.24c0 .131.109.24.24.24zm.564-.646c.131 0 .24-.108.24-.24a.241.241 0 0 0-.24-.24.241.241 0 0 0-.24.24.234.234 0 0 0 .24.24zm.73-.485c.13 0 .239-.109.239-.24a.241.241 0 0 0-.24-.24.241.241 0 0 0-.239.24c0 .131.108.24.24.24zm.763-.286c.131 0 .24-.109.24-.24a.241.241 0 0 0-.24-.24.241.241 0 0 0-.24.24c0 .131.11.24.24.24zM11.856 5.3c.131 0 .24-.109.24-.24a.241.241 0 0 0-.24-.24.241.241 0 0 0-.24.24c0 .131.109.24.24.24zm0-.863c.131 0 .24-.108.24-.24a.241.241 0 0 0-.24-.24.241.241 0 0 0-.24.24c0 .132.109.24.24.24zm0-.868c.131 0 .24-.109.24-.24a.241.241 0 0 0-.24-.24.241.241 0 0 0-.24.24c0 .137.109.24.24.24zm-.758-.738c.131 0 .24-.108.24-.24a.241.241 0 0 0-.24-.24.241.241 0 0 0-.24.24.234.234 0 0 0 .24.24zm6.583 5.84c.2.109.354.063.548-.005-.32-.16-.485-.303-.342-.68.062-.172.148-.297.33-.349-.114-1.463-.524-2.16-1.858-2.823l-.097.029c0 .017.006.034.006.051 0 .2-.108.297-.257.406.24.051.456.16.456.446 0 .24-.16.371-.37.434.068.131.08.189.068.337.274.132.33.303.262.577-.102.395-.342.435-.718.337-.057.612.622.846.952.406 0-.034.006-.068.011-.108a.438.438 0 0 1 .53-.315.432.432 0 0 1 .314.532.439.439 0 0 1-.108.194.542.542 0 0 0 .273.531zM11.48 3.334c0-.028.005-.063.005-.097-1.744-.126-2.992 1.057-3.163 2.72.154.063.21.132.285.28.302-.017.439.103.507.383.103.394-.09.543-.461.64.114.257.342.429.638.349a.519.519 0 0 0 .393-.509.465.465 0 0 1-.068-.229c0-.24.194-.434.439-.434.24 0 .439.194.439.434 0 .046-.012.092-.023.138a.527.527 0 0 0 .513.388c.308 0 .484-.223.53-.497-.388 0-.61-.103-.61-.509 0-.285.103-.44.4-.497.067-.36.25-.383.552-.428.302.051.485.074.553.428.296.057.399.212.399.497 0 .406-.222.503-.61.509.046.274.222.497.53.497.245 0 .439-.16.507-.388-.011-.046-.022-.092-.022-.138 0-.24.193-.434.439-.434.239 0 .433.194.433.434a.4.4 0 0 1-.069.229.52.52 0 0 0 .4.509c.296.074.524-.098.638-.349-.377-.097-.565-.251-.462-.64.074-.28.21-.4.507-.383.074-.154.126-.223.285-.28-.17-1.668-1.419-2.851-3.163-2.72.005.034.011.063.011.097a.387.387 0 0 1-.074.223v.423a.387.387 0 0 1 .074.223.387.387 0 0 1-.074.223l.011.434a.37.37 0 0 1 .063.211c0 .246-.182.326-.37.406-.188-.086-.37-.16-.37-.406 0-.085.028-.154.073-.222V4.42a.387.387 0 0 1-.074-.223c0-.086.029-.154.074-.223v-.423a.328.328 0 0 1-.085-.217zM5.82 7.986c.142.371-.023.52-.342.68.194.068.347.114.547.005.2-.108.29-.308.268-.525a.435.435 0 0 1 .205-.726.435.435 0 0 1 .542.423c.33.44 1.008.206.951-.406-.376.092-.615.052-.718-.337-.074-.28-.011-.451.262-.577a.492.492 0 0 1 .069-.337c-.211-.063-.37-.195-.37-.429 0-.286.216-.394.45-.446-.143-.108-.257-.205-.257-.405 0-.017 0-.035-.097-.069-1.356.669-1.738 1.337-1.852 2.817.2.035.279.16.342.332zm11.537 1.383a12.926 12.926 0 0 0-5.501-1.223c-1.966 0-3.825.434-5.49 1.217a.21.21 0 0 1-.284-.109c-.051-.114.006-.194.051-.291-.342.103-.593.103-.889-.126-.547.372-1.18-.388-.764-.737-.2-.246-.205-.52.08-.703a.463.463 0 0 1-.085-.257c0-.286.21-.394.45-.446-.137-.114-.251-.205-.251-.405 0-.292.228-.412.479-.44-.069-.103-.12-.178-.12-.309 0-.24.194-.434.433-.434a.73.73 0 0 1 .217.045c-.046-.097-.086-.165-.086-.28 0-.24.194-.434.434-.434.114 0 .188.04.285.092-.006-.052-.023-.115-.023-.166 0-.24.194-.434.433-.434.131 0 .21.051.314.12.05-.229.176-.412.438-.412.194 0 .303.103.4.252.102-.115.199-.189.364-.189.069 0 .131.017.194.034-.034-.085-.063-.154-.063-.245 0-.24.194-.435.434-.435.136 0 .216.057.324.126-.011-.051-.028-.12-.028-.177 0-.24.194-.434.433-.434.137 0 .217.057.325.131.051-.229.177-.417.439-.417.16 0 .25.074.359.177.085-.177.205-.314.422-.314.063 0 .114.017.17.034a.987.987 0 0 1 .457-.257v-.457h-.365v-.269h.365V.871h.29v.326h.365v.269H12v.457a.775.775 0 0 1 .444.268.435.435 0 0 1 .171-.034c.222 0 .336.132.422.314.108-.102.2-.177.359-.177.262 0 .388.189.439.417.103-.08.182-.131.325-.131.24 0 .433.194.433.434 0 .057-.017.126-.023.177.108-.068.188-.125.325-.125.24 0 .433.194.433.434 0 .091-.034.16-.062.246a.726.726 0 0 1 .193-.035c.166 0 .263.08.365.189.097-.149.205-.251.4-.251.261 0 .393.188.438.411.103-.074.177-.12.314-.12.239 0 .433.194.433.434a.828.828 0 0 1-.023.166c.097-.051.171-.091.285-.091.24 0 .433.194.433.434 0 .108-.04.183-.085.28a.535.535 0 0 1 .222-.057c.24 0 .433.194.433.434 0 .131-.051.206-.12.309.251.022.48.148.48.44 0 .2-.109.297-.257.405.24.052.45.16.45.446a.463.463 0 0 1-.085.257c.285.177.285.452.09.709.252.205.12.531-.09.697-.217.166-.434.2-.673.04-.296.228-.547.228-.89.126l.052.102c.086.172-.085.366-.273.298zM6.93 9.803l-.353-.132-.029-.057c-.028.012-.051.017-.074.023-.097.006-.091-.097-.04-.12a12.715 12.715 0 0 1 5.415-1.2c1.944 0 3.774.429 5.415 1.2.046.023.057.132-.04.12a.153.153 0 0 1-.074-.023l-.028.057-.354.132.103.406-.034.068c.188.086.057.217-.017.183a11.668 11.668 0 0 0-4.976-1.103c-1.785 0-3.466.394-4.977 1.103-.04.017-.085 0-.108-.046-.023-.045 0-.08.029-.103.017-.011.04-.022.057-.034l-.035-.068.12-.406zm1.967-.297l.758-.526-.918-.097-.758.526.918.097zm7.455.485a.307.307 0 0 0 .308-.308.307.307 0 0 0-.308-.309.307.307 0 0 0-.308.309c0 .177.137.308.308.308zm-6.036-.794a.307.307 0 0 0 .308-.308.307.307 0 0 0-.308-.309.307.307 0 0 0-.308.309c0 .171.137.308.308.308zm-2.964.794a.307.307 0 0 0 .308-.308.307.307 0 0 0-.308-.309.307.307 0 0 0-.308.309c0 .177.137.308.308.308zm6.036-.794a.307.307 0 0 0 .308-.308.307.307 0 0 0-.308-.309.307.307 0 0 0-.307.309c0 .171.136.308.307.308zm1.42.309l.917-.097-.758-.526-.918.097.759.526zm-1.99-.692l-.963-.36-.963.36.963.36.963-.36zM1.875 21.01c0 5.462 4.486 9.931 9.981 9.931 5.49 0 9.98-4.469 9.98-9.931 0-5.48-4.485-9.932-9.98-9.932-5.49-.006-9.98 4.452-9.98 9.932zm21.045 0c0 6.062-4.965 11.011-11.064 11.011S.792 27.066.792 21.009c0-6.075 4.965-11.029 11.064-11.029S22.92 14.934 22.92 21.009zm-12.518-4.68l1.443 1.468 1.35-1.423a6.244 6.244 0 0 0-1.419-.234c-.461-.023-.929.086-1.373.189zm3.802-1.035l2.12-2.183c2.742 1.566 4.59 4.503 4.59 7.858a8.912 8.912 0 0 1-2.087 5.754l-.992-.989c1.112-1.354 1.841-2.703 1.841-4.851 0-2.303-1.208-4.869-3.14-6.2l-1.271 1.297c.655.486 1.168.977 1.607 1.669l-.975.834c-.387-.674-.883-1.149-1.522-1.583l-2.536 2.663L9.21 16.86c-1.362.949-2.166 2.303-2.2 3.989-.046 2.234 1.408 3.794 3.449 4.468V20.82h3.112v.926h-1.91v1.2h1.881v1.057h-1.88v1.514c1.396.074 2.878-.731 3.784-1.731l.935.937c-1.192 1.377-2.913 2.074-4.714 2.086v1.382h-1.203V26.66c-2.753-.68-4.742-3.08-4.702-5.949.022-1.965 1.077-3.577 2.605-4.725l-1.289-1.332c-2 1.629-3.072 3.617-3.163 6.2-.068 2.286 1.117 4.12 1.864 4.892l-.878.908c-1.345-1.56-2.132-3.48-2.132-5.68 0-3.331 1.847-6.268 4.566-7.828l2.149 2.228a6.567 6.567 0 0 1 2.371-.445c.815.011 1.516.16 2.274.445l.074-.08z" fill="#FCBF00"/><path d="M23.25 21.009c0 6.24-5.113 11.342-11.394 11.342S.462 27.25.462 21.01c0-6.252 5.113-11.355 11.394-11.355S23.25 14.757 23.25 21.01zm-.33 0c0-6.075-4.965-11.029-11.064-11.029S.792 14.934.792 21.009c0 6.062 4.965 11.011 11.064 11.011S22.92 27.066 22.92 21.009zm-20.714 0c0 5.285 4.343 9.605 9.65 9.605s9.65-4.32 9.65-9.605c0-5.298-4.343-9.606-9.65-9.606s-9.65 4.308-9.65 9.606zm-.33 0c0-5.48 4.485-9.932 9.98-9.932 5.49 0 9.98 4.457 9.98 9.932 0 5.462-4.485 9.931-9.98 9.931-5.49 0-9.98-4.469-9.98-9.931zm11.143-2.195l5.398 5.543c.615-1.011.923-2.046.923-3.468 0-2.492-1.402-4.76-2.764-5.766l-.816.828c.65.515 1.112 1.069 1.534 1.772l-1.5 1.291c-.358-.697-.735-1.205-1.379-1.668l-1.396 1.468zm6.84 7.023a9.204 9.204 0 0 1-4.213 3.72l-.872-.891-1.63-1.663a6.39 6.39 0 0 1-1.146.143v1.388h-1.863v-1.6C7.33 26.18 5.398 23.57 5.432 20.73c.006-.475.068-.932.188-1.378l-.923-.931a8.28 8.28 0 0 0-.462 2.469c-.051 1.76.718 3.662 2 4.874L4.891 27.13c-1.585-1.772-2.451-3.766-2.451-6.166 0-3.503 1.926-6.554 4.959-8.246l2.171 2.257a6.96 6.96 0 0 1 2.286-.388c.81.011 1.545.154 2.194.394l2.212-2.286c3.055 1.686 4.982 4.743 4.982 8.269a9.03 9.03 0 0 1-1.385 4.874zm-9.73-1.886l-2.787-2.828c.068 1.588 1.037 3.08 2.787 3.748v-.92zm4.075-8.657l-.074.075a6.444 6.444 0 0 0-2.274-.446c-.815 0-1.607.154-2.371.446l-2.15-2.229c-2.718 1.566-4.565 4.503-4.565 7.834 0 2.2.787 4.12 2.132 5.68l.866-.88c-.746-.771-1.932-2.605-1.863-4.891.09-2.589 1.162-4.572 3.163-6.2l1.288 1.331C6.83 17.163 5.78 18.77 5.751 20.74c-.034 2.869 1.95 5.263 4.703 5.949v1.531h1.202v-1.383c1.807-.011 3.523-.708 4.714-2.086l-.934-.937c-.907 1-2.389 1.8-3.785 1.732V24.03h1.88v-1.057h-1.88v-1.2h1.91v-.925h-3.113v4.497C8.408 24.67 6.954 23.11 7 20.877c.034-1.686.838-3.04 2.2-3.988l2.628 2.702 2.536-2.662c.638.434 1.134.908 1.522 1.582l.975-.834c-.44-.691-.952-1.183-1.608-1.668l1.271-1.298c1.933 1.326 3.141 3.898 3.141 6.2 0 2.149-.724 3.498-1.841 4.852l.992.988a8.912 8.912 0 0 0 2.086-5.754c0-3.354-1.847-6.291-4.589-7.857l-2.109 2.154zm-3.802 1.035c.45-.103.913-.212 1.374-.189a5.97 5.97 0 0 1 1.42.234l-1.351 1.423-1.443-1.468zm.656.194l.78.794.73-.766a4.675 4.675 0 0 0-.803-.085 4.35 4.35 0 0 0-.707.057zm5.803-6.674l.068.262.029.098.05-.029.252-.137-.063-.263-.011-.057-.325.126zm.495-.48a.223.223 0 0 0 .28-.303l-.052-.103c.343.103.593.103.89-.126.24.16.456.126.672-.04.211-.166.342-.486.091-.697.194-.251.2-.526-.09-.709a.463.463 0 0 0 .085-.257c0-.285-.217-.394-.45-.445.142-.109.256-.206.256-.406 0-.292-.228-.412-.479-.44.069-.103.12-.177.12-.309a.434.434 0 0 0-.433-.434.698.698 0 0 0-.217.046c.046-.097.086-.166.086-.28a.434.434 0 0 0-.434-.435c-.12 0-.188.04-.285.092.006-.052.023-.114.023-.166a.434.434 0 0 0-.433-.434c-.131 0-.21.051-.314.12-.05-.223-.176-.412-.438-.412-.194 0-.303.103-.4.252-.102-.114-.199-.189-.364-.189a.726.726 0 0 0-.194.035c.034-.086.063-.155.063-.246a.434.434 0 0 0-.434-.434c-.136 0-.216.057-.324.125a.885.885 0 0 0 .022-.177.435.435 0 0 0-.433-.434c-.137 0-.216.057-.325.131-.051-.228-.176-.417-.439-.417-.16 0-.25.074-.359.177-.085-.177-.205-.314-.421-.314-.063 0-.114.017-.171.034a.787.787 0 0 0-.445-.268v-.457h.365v-.252h-.365V.871h-.29v.326h-.377v.269h.365v.457a.805.805 0 0 0-.44.268.435.435 0 0 0-.17-.034c-.222 0-.336.132-.422.314-.108-.102-.2-.177-.359-.177-.268 0-.388.189-.439.417-.108-.08-.188-.137-.33-.137a.434.434 0 0 0-.434.435c0 .057.017.125.029.177-.109-.069-.188-.126-.325-.126a.434.434 0 0 0-.433.434c0 .092.034.16.062.246a.726.726 0 0 0-.193-.034c-.166 0-.263.08-.365.188-.097-.148-.205-.251-.4-.251-.261 0-.387.188-.438.411-.103-.068-.183-.12-.314-.12a.434.434 0 0 0-.433.435c0 .051.012.114.023.165-.097-.051-.171-.091-.285-.091a.434.434 0 0 0-.433.434c0 .109.04.183.085.28-.074-.017-.142-.046-.216-.046a.434.434 0 0 0-.433.435c0 .131.05.205.12.308-.263.017-.491.143-.491.435 0 .2.108.297.25.405-.239.052-.45.16-.45.446 0 .103.035.171.086.257-.285.177-.285.452-.091.709-.416.343.216 1.108.764.737.296.228.547.228.889.126-.046.097-.103.182-.051.291a.21.21 0 0 0 .285.109 12.871 12.871 0 0 1 5.489-1.218c1.966 0 3.841.435 5.511 1.218zm-10.505.48l-.233-.086-.091-.029-.012.057-.068.258.25.137.058.034.022-.103.074-.268zm-.478.228l.08-.331c-.126-.017-.189-.166-.132-.263A.325.325 0 0 1 5.98 9.3c-.028-.057-.034-.12-.028-.183a.934.934 0 0 1-.724-.154c-.587.348-1.277-.486-.9-.874-.166-.252-.126-.56.09-.726a.537.537 0 0 1 .285-.726.517.517 0 0 1-.136-.354c0-.252.176-.463.41-.52a.555.555 0 0 1-.045-.223.53.53 0 0 1 .535-.531l.052.005a.532.532 0 0 1 .678-.64.535.535 0 0 1 .78-.468.538.538 0 0 1 .918-.16.538.538 0 0 1 .354-.132h.034a.532.532 0 0 1 .724-.605.538.538 0 0 1 .798-.458.532.532 0 0 1 .832-.234.539.539 0 0 1 .456-.246c.051 0 .097.006.143.018a.846.846 0 0 1 .313-.212l.057-.017v-.291h-.365v-.475h.365V.77h.496v.325h.365v.475H12.1v.28l.057.017c.12.045.228.12.314.211a.573.573 0 0 1 .142-.017c.194 0 .36.097.45.246a.55.55 0 0 1 .331-.115c.234 0 .428.143.502.349a.533.533 0 0 1 .798.457.533.533 0 0 1 .735.492c0 .04-.006.074-.011.114h.04a.55.55 0 0 1 .353.131.528.528 0 0 1 .416-.194c.234 0 .427.149.502.354a.529.529 0 0 1 .78.469.526.526 0 0 1 .166-.023.535.535 0 0 1 .518.663h.046a.535.535 0 0 1 .485.76c.233.057.41.268.41.52a.517.517 0 0 1-.137.354.533.533 0 0 1 .285.726c.217.166.257.474.091.726.24.245.035.634-.165.788-.194.154-.467.246-.73.086a.924.924 0 0 1-.723.154c.028.212-.16.4-.371.366.057.097-.006.246-.125.263l.08.331-.331.183a.173.173 0 0 1 .023.194.183.183 0 0 1-.245.097 11.56 11.56 0 0 0-4.931-1.091 11.56 11.56 0 0 0-4.93 1.091c-.097.046-.2-.005-.246-.097a.175.175 0 0 1 .023-.194l-.33-.183zm.558-.274l-.102.406.034.068c-.017.012-.04.017-.057.034-.029.029-.051.058-.029.103.023.046.069.063.109.046a11.668 11.668 0 0 1 4.976-1.103c1.784 0 3.465.394 4.976 1.103.08.034.205-.097.017-.183l.034-.068-.102-.406.353-.132.028-.057c.029.012.052.017.075.023.096.012.09-.097.04-.12a12.715 12.715 0 0 0-5.416-1.2c-1.938 0-3.773.429-5.415 1.2-.045.023-.05.132.04.12a.153.153 0 0 0 .074-.023l.029.057.336.132zm8.14-4.726c-.422-1.057-1.414-1.823-2.742-1.748a.465.465 0 0 1-.074.251v.36a.466.466 0 0 1 0 .503v.228c.912-.12 1.978-.028 2.816.406zm-2.816-.268c.13.2.086.469-.103.617.16.057.285.171.337.388.325.08.41.32.41.583 0 .314-.125.583-.587.606a.43.43 0 0 0 .65.493.43.43 0 0 0 .16-.482 1.112 1.112 0 0 1-.012-.137.538.538 0 0 1 1.077 0 .57.57 0 0 1-.062.257.437.437 0 0 0 .319.389.43.43 0 0 0 .467-.189c-.439-.137-.496-.428-.416-.731.069-.257.211-.469.547-.463a.512.512 0 0 1 .24-.24 4.092 4.092 0 0 0-.177-.726c-.855-.474-1.978-.56-2.85-.428v.063zm-.775-1.475c0 .086.028.155.074.223v.423a.387.387 0 0 0-.074.223c0 .086.028.154.074.223v.423a.387.387 0 0 0-.074.222c0 .246.182.326.37.406.188-.086.37-.16.37-.406a.384.384 0 0 0-.062-.211l-.011-.434a.387.387 0 0 0 .074-.223.387.387 0 0 0-.074-.223v-.429a.387.387 0 0 0 .074-.222c0-.035-.006-.063-.012-.098 1.745-.125 2.993 1.052 3.164 2.72-.154.063-.211.132-.285.28-.302-.017-.439.103-.507.383-.103.395.085.543.461.64-.114.257-.342.429-.638.349a.53.53 0 0 1-.4-.509.465.465 0 0 0 .07-.228.434.434 0 0 0-.434-.435.438.438 0 0 0-.439.435c0 .045.012.091.023.137a.525.525 0 0 1-.507.388c-.308 0-.485-.222-.53-.497.387 0 .61-.103.61-.508 0-.286-.103-.44-.4-.497-.068-.36-.25-.383-.552-.429-.303.051-.485.074-.553.429-.297.057-.4.211-.4.497 0 .405.223.503.61.508-.045.275-.222.497-.53.497a.537.537 0 0 1-.512-.388.435.435 0 0 0-.416-.571.438.438 0 0 0-.44.434.4.4 0 0 0 .069.228.52.52 0 0 1-.393.509c-.297.074-.525-.097-.639-.349.376-.097.565-.251.462-.64-.074-.28-.211-.4-.507-.383-.069-.154-.126-.222-.285-.28.17-1.668 1.419-2.851 3.163-2.72.011.035.006.069.006.103zM8.6 5.174a3.31 3.31 0 0 0-.165.72.54.54 0 0 1 .24.24c.336-.005.478.206.547.463.08.303.022.594-.417.732a.426.426 0 0 0 .75.295.427.427 0 0 0 .037-.495.536.536 0 0 1-.063-.258.536.536 0 0 1 .963-.328.542.542 0 0 1 .098.466.428.428 0 0 0 .809-.012c-.462-.023-.587-.291-.587-.606 0-.262.091-.502.41-.582a.514.514 0 0 1 .337-.389.464.464 0 0 1-.103-.617v-.057c-.872-.126-1.995-.046-2.856.428zm2.776-1.84c-1.328-.074-2.314.686-2.736 1.749.832-.429 1.904-.532 2.81-.4v-.229a.466.466 0 0 1 0-.503v-.365a.48.48 0 0 1-.074-.252zm5.398 4.857l.029-.022a.51.51 0 0 0 .182.097l.091.017a.887.887 0 0 0 .234.48l-.057.08a13.143 13.143 0 0 0-.97-.383l.012-.097a.988.988 0 0 0 .48-.172zm.029.103a.997.997 0 0 1-.297.137c.205.075.41.155.616.24a.946.946 0 0 1-.126-.302l-.034-.006a.791.791 0 0 1-.16-.069zm-5-1.297h.103a.81.81 0 0 0 .462.623l-.023.097a13.71 13.71 0 0 0-.49-.011c-.165 0-.325.005-.49.011l-.023-.097a.819.819 0 0 0 .462-.623zm.052.206a.93.93 0 0 1-.302.406c.097 0 .2-.006.302-.006.103 0 .2 0 .302.006a.898.898 0 0 1-.302-.406zm-5.404 1.64l-.057-.08a.907.907 0 0 0 .234-.48.474.474 0 0 0 .28-.109.888.888 0 0 0 .501.189l.011.097c-.33.114-.655.24-.969.383zm.137-.172c.2-.085.405-.165.616-.24a.881.881 0 0 1-.297-.137.5.5 0 0 1-.16.069l-.033.006a1.095 1.095 0 0 1-.126.302zM9 7.911v.098c-.313.068-.627.148-.934.234l-.046-.086a.82.82 0 0 0 .285-.714l.097-.023c.102.257.33.44.598.491zm-.21.046a.948.948 0 0 1-.388-.314.9.9 0 0 1-.188.463c.194-.057.387-.109.575-.149zm.872-.068l-.035-.092a.909.909 0 0 0 .377-.486h.062a.493.493 0 0 0 .16-.028.92.92 0 0 0 .49.377l-.011.097a12.38 12.38 0 0 0-1.043.132zm.41-.48a.942.942 0 0 1-.234.342c.217-.034.44-.062.661-.08a.973.973 0 0 1-.313-.274c-.04.006-.074.012-.114.012zm2.935.348l-.011-.097a.92.92 0 0 0 .49-.377.522.522 0 0 0 .16.028h.063a.909.909 0 0 0 .376.486l-.035.092a12.684 12.684 0 0 0-1.043-.132zm.627-.348a.697.697 0 0 1-.108-.012 1.027 1.027 0 0 1-.313.274c.222.023.439.052.66.08a1.058 1.058 0 0 1-.227-.32l-.012-.022zm2.058.754l-.046.086a10.16 10.16 0 0 0-.934-.235v-.097a.84.84 0 0 0 .598-.491l.097.023a.82.82 0 0 0 .285.714zm-.2-.063a.952.952 0 0 1-.188-.463.865.865 0 0 1-.387.314c.194.046.388.098.576.149zm.149-1.754zm.017-.069a.496.496 0 0 1 .359.606.5.5 0 0 1-.969-.246.505.505 0 0 1 .61-.36zm.37-.771a.241.241 0 0 0-.239.24c0 .131.108.24.24.24.13 0 .239-.109.239-.24a.238.238 0 0 0-.24-.24zm0-.069c.171 0 .308.137.308.309a.307.307 0 0 1-.308.308.307.307 0 0 1-.307-.308.31.31 0 0 1 .307-.309zm-.2-.788a.241.241 0 0 0-.239.24c0 .131.109.24.24.24s.24-.109.24-.24a.235.235 0 0 0-.24-.24zm0-.069c.172 0 .309.137.309.309a.307.307 0 0 1-.308.308.307.307 0 0 1-.308-.308.31.31 0 0 1 .308-.309zm2.97 2.32a.241.241 0 0 0-.239.24c0 .131.108.24.24.24.13 0 .239-.109.239-.24a.241.241 0 0 0-.24-.24zm0-.069c.172 0 .308.138.308.309a.307.307 0 0 1-.307.309.307.307 0 0 1-.308-.309c0-.171.137-.309.308-.309zM18.6 6.05a.241.241 0 0 0-.24.24c0 .131.109.24.24.24s.24-.109.24-.24a.241.241 0 0 0-.24-.24zm0-.069c.171 0 .308.137.308.309a.307.307 0 0 1-.308.308.307.307 0 0 1-.308-.308c0-.172.137-.309.308-.309zm-.359-.68a.241.241 0 0 0-.24.24c0 .131.109.234.24.234s.24-.108.24-.24a.236.236 0 0 0-.24-.234zm0-.069c.171 0 .308.138.308.309a.307.307 0 0 1-.308.309.307.307 0 0 1-.308-.309c0-.171.137-.309.308-.309zm-.564-.594a.241.241 0 0 0-.24.24c0 .132.109.24.24.24.13 0 .24-.108.24-.24a.241.241 0 0 0-.24-.24zm0-.068c.17 0 .308.137.308.308a.307.307 0 0 1-.308.309.307.307 0 0 1-.308-.309.303.303 0 0 1 .308-.308zm-.701-.44a.241.241 0 0 0-.24.24c0 .131.108.24.24.24.13 0 .239-.109.239-.24a.241.241 0 0 0-.24-.24zm0-.069c.17 0 .307.137.307.309a.307.307 0 0 1-.307.308.307.307 0 0 1-.308-.308c0-.172.137-.309.308-.309zm-.753-.223a.241.241 0 0 0-.24.24c0 .132.11.24.24.24.131 0 .24-.108.24-.24a.241.241 0 0 0-.24-.24zm0-.068c.171 0 .308.137.308.308a.307.307 0 0 1-.308.309.307.307 0 0 1-.308-.309c0-.171.137-.308.308-.308zm-.764.131a.241.241 0 0 0-.239.24c0 .131.108.24.24.24.13 0 .239-.109.239-.24a.245.245 0 0 0-.24-.24zm0-.069c.171 0 .308.138.308.309a.307.307 0 0 1-.308.309.307.307 0 0 1-.307-.309.303.303 0 0 1 .307-.309zm-.564-.577a.241.241 0 0 0-.24.24c0 .132.109.24.24.24s.24-.108.24-.24a.241.241 0 0 0-.24-.24zm0-.068c.171 0 .308.137.308.308a.307.307 0 0 1-.308.309.307.307 0 0 1-.308-.309.31.31 0 0 1 .308-.308zm-.735-.417a.241.241 0 0 0-.24.24c0 .131.109.24.24.24.13 0 .24-.109.24-.24a.241.241 0 0 0-.24-.24zm0-.069c.17 0 .308.137.308.309a.307.307 0 0 1-.308.308.307.307 0 0 1-.308-.308c0-.172.137-.309.308-.309zm-.764-.211a.241.241 0 0 0-.24.24c0 .131.109.24.24.24s.24-.109.24-.24a.241.241 0 0 0-.24-.24zm0-.069c.171 0 .308.137.308.309a.302.302 0 0 1-.308.302.307.307 0 0 1-.308-.308c0-.172.137-.303.308-.303zm-.78-.069a.241.241 0 0 0-.24.24c0 .132.108.24.24.24.13 0 .239-.108.239-.24a.241.241 0 0 0-.24-.24zm0-.068c.17 0 .307.137.307.308a.307.307 0 0 1-.308.309.307.307 0 0 1-.308-.309c0-.171.137-.308.308-.308zM5.21 8.626a.428.428 0 0 0 .17-.583.431.431 0 1 0-.171.583zm.034.063a.5.5 0 0 1-.678-.195.495.495 0 0 1 .2-.674.5.5 0 0 1 .678.194.494.494 0 0 1-.2.675zm3.038-1.515a.424.424 0 0 0 .308-.52.433.433 0 0 0-.524-.308.424.424 0 0 0-.308.52.427.427 0 0 0 .524.308zm.017.069a.5.5 0 1 1-.25-.967.5.5 0 0 1 .25.967zm3.557-.514c.24 0 .433-.195.433-.429a.432.432 0 0 0-.866 0c0 .234.194.429.433.429zm0 .068a.502.502 0 0 1-.502-.497.502.502 0 1 1 1.003 0 .506.506 0 0 1-.501.497zM7.678 5.98c.131 0 .24-.109.24-.24a.241.241 0 0 0-.24-.24.241.241 0 0 0-.24.24c0 .137.109.24.24.24zm0 .069a.307.307 0 0 1-.308-.309.308.308 0 1 1 .616 0 .307.307 0 0 1-.308.309zm.2-.92c.13 0 .239-.109.239-.24a.241.241 0 0 0-.24-.24.241.241 0 0 0-.239.24c0 .131.108.24.24.24zm0 .068a.307.307 0 0 1-.308-.308.307.307 0 1 1 .616 0 .307.307 0 0 1-.309.308zM4.912 7.38c.131 0 .24-.109.24-.24a.241.241 0 0 0-.24-.24.241.241 0 0 0-.239.24c0 .131.108.24.24.24zm0 .063a.307.307 0 0 1-.307-.309.307.307 0 1 1 .616 0 .303.303 0 0 1-.309.309zm.2-.92c.131 0 .24-.109.24-.24a.241.241 0 0 0-.24-.24.241.241 0 0 0-.24.24c0 .137.103.24.24.24zm0 .068a.307.307 0 0 1-.308-.308.308.308 0 1 1 .616 0 .31.31 0 0 1-.308.308zm.353-.817c.131 0 .24-.108.24-.24a.233.233 0 0 0-.24-.234.241.241 0 0 0-.24.24c0 .131.11.234.24.234zm0 .069a.307.307 0 0 1-.308-.309c0-.171.137-.308.308-.308.171 0 .308.137.308.308a.307.307 0 0 1-.308.309zm.57-.732c.131 0 .24-.108.24-.24a.241.241 0 0 0-.24-.24.241.241 0 0 0-.24.24c0 .132.11.24.24.24zm0 .069a.307.307 0 0 1-.307-.309.307.307 0 1 1 .616 0 .307.307 0 0 1-.309.309zm.701-.571c.131 0 .24-.109.24-.24a.241.241 0 0 0-.24-.24.241.241 0 0 0-.239.24c0 .131.103.24.24.24zm0 .068a.307.307 0 0 1-.307-.308.307.307 0 1 1 .616 0 .307.307 0 0 1-.309.308zm.747-.366c.131 0 .24-.108.24-.24a.241.241 0 0 0-.24-.24.241.241 0 0 0-.24.24c0 .138.109.24.24.24zm0 .069a.307.307 0 0 1-.308-.309c0-.171.137-.308.308-.308.171 0 .308.137.308.308a.303.303 0 0 1-.308.309zm.77 0c.13 0 .239-.109.239-.24a.241.241 0 0 0-.24-.24.241.241 0 0 0-.239.24c0 .131.109.24.24.24zm0 .069a.307.307 0 0 1-.308-.309.308.308 0 1 1 .615 0 .307.307 0 0 1-.307.309zm.564-.715c.131 0 .24-.108.24-.24a.241.241 0 0 0-.24-.24.241.241 0 0 0-.24.24.234.234 0 0 0 .24.24zm0 .069a.307.307 0 0 1-.308-.309.307.307 0 1 1 .616 0 .31.31 0 0 1-.308.309zm.73-.554c.13 0 .239-.109.239-.24a.241.241 0 0 0-.24-.24.241.241 0 0 0-.239.24c0 .131.108.24.24.24zm0 .068a.307.307 0 0 1-.308-.308.307.307 0 1 1 .616 0 .307.307 0 0 1-.309.308zm.763-.354c.131 0 .24-.109.24-.24a.241.241 0 0 0-.24-.24.241.241 0 0 0-.24.24c0 .131.11.24.24.24zm0 .068a.307.307 0 0 1-.307-.308.307.307 0 1 1 .616 0 .307.307 0 0 1-.309.308zM11.856 5.3c.131 0 .24-.109.24-.24a.241.241 0 0 0-.24-.24.241.241 0 0 0-.24.24c0 .131.109.24.24.24zm0 .069a.307.307 0 0 1-.308-.309.308.308 0 1 1 .616 0 .307.307 0 0 1-.308.309zm0-.932c.131 0 .24-.108.24-.24a.241.241 0 0 0-.24-.24.241.241 0 0 0-.24.24c0 .132.109.24.24.24zm0 .069a.307.307 0 0 1-.308-.309c0-.171.137-.308.308-.308.171 0 .308.137.308.308a.307.307 0 0 1-.308.309zm0-.937c.131 0 .24-.109.24-.24a.241.241 0 0 0-.24-.24.241.241 0 0 0-.24.24c0 .137.109.24.24.24zm0 .068a.307.307 0 0 1-.308-.308c0-.172.137-.309.308-.309.171 0 .308.137.308.309a.307.307 0 0 1-.308.308zm-.758-.806c.131 0 .24-.108.24-.24a.241.241 0 0 0-.24-.24.241.241 0 0 0-.24.24.234.234 0 0 0 .24.24zm0 .069a.307.307 0 0 1-.308-.309.307.307 0 1 1 .616 0 .314.314 0 0 1-.308.309zm7.815 4.977a.425.425 0 0 0-.582.172.434.434 0 0 0 .758.417.443.443 0 0 0-.176-.589zm.034-.063c.245.132.33.435.2.675a.5.5 0 0 1-.917-.102.493.493 0 0 1 .044-.378.492.492 0 0 1 .673-.195zM5.82 7.986c-.063-.172-.149-.297-.33-.349.113-1.474.495-2.148 1.834-2.823.115.04.115.057.115.08 0 .2.114.297.256.406-.24.051-.45.16-.45.446 0 .24.16.371.37.428a.499.499 0 0 0-.068.337c-.274.132-.33.303-.262.578.102.394.342.434.718.337.057.611-.622.845-.952.405 0-.034-.006-.068-.011-.108a.438.438 0 0 0-.53-.314.432.432 0 0 0-.314.531.439.439 0 0 0 .108.194.52.52 0 0 1-.268.526c-.2.109-.353.063-.547-.006.314-.148.473-.297.33-.668zm.022-1.595c-.13.332-.199.709-.239 1.172.16.068.257.228.32.388.09.246.096.498-.172.686.08.006.16-.011.234-.051a.432.432 0 0 0 .222-.395.537.537 0 1 1 .935-.474l.017.092c.245.297.736.142.758-.246-.45.091-.644-.137-.718-.44-.068-.257-.04-.509.257-.669 0-.08.011-.154.034-.217a.54.54 0 0 1-.32-.388 5.925 5.925 0 0 0-.786.222c-.24.092-.416.206-.542.32zm1.5-1.468c-.747.388-1.186.783-1.442 1.337a1.85 1.85 0 0 1 .444-.246c.24-.091.542-.171.798-.228V5.75c0-.222.137-.417.336-.497a.54.54 0 0 1-.136-.331zm10.34 3.748a.516.516 0 0 1-.268-.525.435.435 0 1 0-.735-.411c-.012.034-.012.068-.012.108-.33.44-1.01.206-.952-.406.376.092.616.052.718-.337.074-.28.012-.451-.262-.577a.492.492 0 0 0-.069-.337c.206-.063.371-.195.371-.435 0-.285-.217-.394-.456-.445.143-.109.256-.206.256-.406 0-.017 0-.034-.005-.051l.097-.029c1.334.663 1.744 1.36 1.858 2.823-.182.057-.262.183-.33.348-.143.372.022.52.341.68-.2.063-.353.109-.553 0zM16.558 5.85a.54.54 0 0 1-.32.388.643.643 0 0 1 .034.217c.297.155.32.412.257.669-.08.303-.268.531-.718.44a.429.429 0 0 0 .758.246.26.26 0 0 1 .017-.092.542.542 0 0 1 .655-.388.532.532 0 0 1 .28.862.42.42 0 0 0 .45.446c-.268-.188-.268-.44-.17-.686.062-.16.159-.32.313-.388-.04-.463-.109-.846-.24-1.177a1.794 1.794 0 0 0-.524-.315 6.263 6.263 0 0 0-.793-.222zm-.189-.943a.558.558 0 0 1-.136.343c.2.08.336.274.336.497v.034c.268.057.547.131.798.229.177.068.325.16.445.245-.257-.548-.696-.948-1.443-1.348zm-1.561 4.6l-.758-.526.917-.097.758.526-.917.097zm-1.42-.309a.307.307 0 0 1-.307-.308.307.307 0 1 1 .616 0 .303.303 0 0 1-.309.308zm0-.068c.131 0 .24-.109.24-.24a.241.241 0 0 0-.24-.24.241.241 0 0 0-.24.24c0 .131.11.24.24.24zm-6.036.8c.131 0 .24-.109.24-.24a.241.241 0 0 0-.24-.24.241.241 0 0 0-.24.24c0 .131.109.24.24.24zm0 .062a.307.307 0 0 1-.308-.308c0-.172.137-.309.308-.309.171 0 .308.137.308.309a.303.303 0 0 1-.308.308zm2.964-.862c.131 0 .24-.109.24-.24a.241.241 0 0 0-.24-.24.241.241 0 0 0-.24.24c0 .131.109.24.24.24zm0 .068a.307.307 0 0 1-.308-.308c0-.172.137-.309.308-.309.171 0 .308.137.308.309a.307.307 0 0 1-.308.308zm6.036.732c.131 0 .24-.109.24-.24a.241.241 0 0 0-.24-.24.241.241 0 0 0-.24.24c0 .131.11.24.24.24zm0 .062a.307.307 0 0 1-.308-.308c0-.172.137-.309.308-.309.171 0 .308.137.308.309a.303.303 0 0 1-.308.308zm-7.455-.485l-.918-.097.758-.526.918.097-.758.526zm3.722-.692l-.77-.285-.77.285.77.286.77-.286zm.2 0l-.964.36-.963-.36.963-.36.963.36z" fill="#004996"/><path d="M97.367 15.854v10.172h-1.915v-.949c-.501.852-1.368 1.149-2.177 1.149-2.2 0-3.118-1.983-3.118-4.052 0-2.605 1.448-3.88 3.072-3.88 1.26 0 1.847.697 2.15 1.177l.028-3.611h1.96v-.006zm-5.204 6.463c0 .892.348 2.28 1.608 2.28 1.242 0 1.733-1.046 1.733-2.166 0-1.2-.331-2.422-1.676-2.422-1.249 0-1.665 1.12-1.665 2.308zm-61.85-.657v4.366h-1.357V15.854h4.628c1.642 0 3.29.577 3.29 2.732 0 1.497-.753 2.051-1.386 2.434.57.24 1.146.497 1.197 1.914l.086 1.846c.011.566.085.777.501 1.017v.229h-1.658c-.194-.623-.24-2.172-.24-2.555 0-.84-.165-1.817-1.79-1.817h-3.271v.006zm0-4.629v3.452h3.135c.991 0 2.035-.257 2.035-1.754 0-1.572-1.13-1.698-1.796-1.698h-3.374zm12.939 6.68h1.22c-.04.355-.377 1.4-1.294 2.023-.337.229-.81.515-1.978.515-2.052 0-3.267-1.572-3.267-3.709 0-2.303 1.09-4.126 3.5-4.126 2.11 0 3.135 1.697 3.135 4.326h-5.323c0 1.543.712 2.434 2.12 2.434 1.163-.005 1.841-.914 1.887-1.463zm-4.002-1.965h4.059c-.069-1.155-.542-2.223-2.035-2.223-1.135 0-2.024 1.068-2.024 2.223zm7.444-.875h-1.123c.058-1.771 1.209-2.462 3.01-2.462.587 0 2.702.171 2.702 2.062v4.269c0 .314.154.44.405.44.114 0 .262-.029.404-.057v.903c-.21.057-.393.143-.667.143-1.083 0-1.254-.566-1.293-1.132-.474.526-1.215 1.206-2.634 1.206-1.34 0-2.286-.863-2.286-2.137 0-.623.183-2.075 2.212-2.326l2.023-.257c.297-.029.645-.143.645-.88 0-.777-.559-1.206-1.716-1.206-1.402 0-1.596.863-1.682 1.434zm3.37 2.595v-1.223c-.195.154-.502.268-2.019.468-.598.086-1.562.269-1.562 1.206 0 .806.405 1.292 1.323 1.292 1.14 0 2.257-.749 2.257-1.743zm4.132-7.612v10.172h-1.22V15.854h1.22zm11.907 10.177h-1.955V21.46c0-1.12-.485-1.486-1.06-1.486-.975 0-1.317.652-1.317 1.543v4.52h-1.955v-4.531c0-.635 0-1.532-1.169-1.532-.917 0-1.208.652-1.208 1.475v4.588h-1.955v-7.543h1.87v1.103c.279-.497.82-1.303 2.126-1.303 1.071 0 1.561.4 2.063 1.206.25-.371.792-1.206 1.978-1.206 1.448 0 2.576.863 2.576 2.526v5.211h.006zm7.228-5.554v4.08c0 .892.193 1.092.433 1.177v.297h-2.11c-.113-.354-.136-.468-.182-.891-.444.469-1.071 1.091-2.4 1.091-1.117 0-2.262-.64-2.262-2.2 0-1.474.923-2.222 2.166-2.405l1.755-.269c.308-.04.684-.171.684-.594 0-.834-.78-.88-1.288-.88-.975 0-1.146.611-1.197 1.046h-1.887c.223-2.309 1.802-2.635 3.323-2.635 1.055 0 2.965.326 2.965 2.183zm-1.91 2.846v-.96c-.2.154-.519.286-1.328.406-.724.125-1.323.314-1.323 1.131 0 .697.53.909.907.909.866 0 1.744-.566 1.744-1.486zm9.85-7.469v10.172h-1.91v-.949c-.502.852-1.368 1.149-2.177 1.149-2.2 0-3.118-1.983-3.118-4.052 0-2.605 1.442-3.88 3.072-3.88 1.26 0 1.841.697 2.149 1.177l.028-3.611h1.956v-.006zm-5.21 6.463c0 .892.347 2.28 1.607 2.28 1.243 0 1.733-1.046 1.733-2.166 0-1.2-.336-2.422-1.676-2.422-1.242 0-1.664 1.12-1.664 2.308zm6.367-3.823h1.87v1.303c.433-.766.877-1.503 2.063-1.503.125 0 .25.012.376.029v2.023c-.165-.029-.376-.029-.559-.029-1.522 0-1.8.96-1.8 1.794v3.92h-1.956v-7.537h.006zm6.874 0v7.537h-1.955v-7.537h1.955zm0-2.737v1.846h-1.955v-1.846h1.955z" fill="#FFF"/></g></svg>