<svg width="74" height="103" xmlns="http://www.w3.org/2000/svg"><path d="M74 65.56c0 20.212-16.603 36.74-37 36.74S0 85.773 0 65.56c0-20.25 16.603-36.778 37-36.778S74 45.31 74 65.56zm-1.074 0c0-19.676-16.121-35.723-35.926-35.723-19.805 0-35.926 16.047-35.926 35.723 0 19.638 16.121 35.667 35.926 35.667 19.805 0 35.926-16.047 35.926-35.667zm-67.262 0c0 17.12 14.104 31.114 31.336 31.114S68.336 82.68 68.336 65.56c0-17.158-14.104-31.114-31.336-31.114S5.664 48.402 5.664 65.56zm-1.074 0c0-17.75 14.567-32.17 32.41-32.17 17.824 0 32.41 14.438 32.41 32.17 0 17.695-14.567 32.169-32.41 32.169-17.824 0-32.41-14.474-32.41-32.17zm36.186-7.108l17.528 17.954c2-3.276 2.999-6.626 2.999-11.235 0-8.07-4.554-15.418-8.977-18.676l-2.647 2.684c2.11 1.666 3.61 3.461 4.979 5.738L49.79 59.1c-1.166-2.258-2.388-3.905-4.48-5.405l-4.534 4.757zM62.987 81.2c-3.165 5.33-7.959 9.532-13.678 12.05l-2.832-2.888-5.294-5.386a20.58 20.58 0 0 1-3.72.463v4.497H31.41v-5.182c-9.106-2.444-15.38-10.902-15.27-20.101a17.93 17.93 0 0 1 .61-4.46l-2.998-3.018c-.888 2.48-1.388 5.164-1.499 7.996-.166 5.7 2.332 11.865 6.497 15.788l-4.368 4.424c-5.146-5.738-7.96-12.197-7.96-19.971 0-11.346 6.257-21.23 16.104-26.71l7.052 7.312c2.332-.833 4.979-1.259 7.422-1.259 2.628.037 5.016.5 7.126 1.278l7.182-7.404c9.92 5.46 16.177 15.362 16.177 26.783 0 5.83-1.555 11.087-4.498 15.788zm-31.595-6.108L22.34 65.93c.222 5.146 3.368 9.976 9.05 12.142v-2.98zm13.234-28.041l-.24.24c-2.463-.925-4.74-1.407-7.386-1.444-2.647 0-5.22.5-7.7 1.444l-6.978-7.218C13.493 45.144 7.496 54.658 7.496 65.449c0 7.126 2.555 13.345 6.923 18.398l2.813-2.85c-2.425-2.5-6.275-8.44-6.052-15.844.296-8.385 3.775-14.808 10.272-20.083l4.183 4.313c-4.96 3.72-8.366 8.921-8.458 15.307-.111 9.291 6.33 17.047 15.27 19.268v4.96h3.905V84.44c5.868-.037 11.439-2.295 15.307-6.756l-3.035-3.035c-2.943 3.239-7.756 5.83-12.29 5.608v-4.905h6.108v-3.424h-6.108V68.04h6.2v-2.998H32.428v14.566c-6.626-2.184-11.346-7.237-11.198-14.474.111-5.46 2.721-9.847 7.145-12.92l8.532 8.755 8.237-8.625c2.073 1.407 3.683 2.943 4.942 5.127l3.165-2.702c-1.425-2.24-3.09-3.832-5.22-5.405l4.128-4.201c6.275 4.294 10.199 12.623 10.199 20.082 0 6.96-2.351 11.328-5.979 15.714l3.22 3.203a28.824 28.824 0 0 0 6.775-18.64c0-10.864-5.997-20.378-14.9-25.45l-6.848 6.979zM32.28 50.4c1.462-.333 2.962-.685 4.46-.611 1.611.055 3.073.333 4.61.759l-4.387 4.609L32.28 50.4zm2.129.629l2.535 2.573 2.37-2.48a15.218 15.218 0 0 0-2.61-.278c-.574-.019-1.425.055-2.295.185zM53.25 29.411l.222.852.093.314.166-.092.815-.444-.204-.852-.037-.185-1.055.407zm1.61-1.555a.722.722 0 0 0 .907-.98l-.166-.334c1.11.333 1.925.333 2.887-.407.778.518 1.481.407 2.184-.13.685-.536 1.11-1.573.296-2.258.63-.814.648-1.702-.296-2.295.167-.277.278-.5.278-.833 0-.925-.703-1.277-1.462-1.443.462-.352.833-.667.833-1.315 0-.944-.74-1.332-1.555-1.425.222-.333.389-.574.389-1 0-.776-.63-1.406-1.407-1.406-.24 0-.481.074-.703.148.148-.315.277-.537.277-.907 0-.777-.63-1.407-1.407-1.407-.388 0-.61.13-.925.297.019-.167.074-.37.074-.537 0-.777-.63-1.407-1.407-1.407-.425 0-.685.167-1.018.389-.166-.722-.573-1.333-1.425-1.333-.63 0-.98.333-1.296.815-.333-.37-.647-.611-1.184-.611-.222 0-.426.055-.63.11.112-.277.204-.499.204-.795 0-.777-.63-1.407-1.407-1.407-.444 0-.703.185-1.055.407a2.85 2.85 0 0 0 .074-.573 1.407 1.407 0 0 0-1.406-1.407c-.444 0-.704.185-1.055.426-.167-.74-.574-1.352-1.425-1.352-.519 0-.815.241-1.167.574-.277-.574-.666-1.018-1.37-1.018-.203 0-.37.056-.555.111-.444-.5-.814-.703-1.443-.87v-1.48h1.184v-.815H37.5V.333h-.944v1.055h-1.222v.87h1.185v1.48c-.611.167-1 .39-1.425.87a1.416 1.416 0 0 0-.556-.11c-.722 0-1.092.425-1.37 1.018-.351-.333-.647-.574-1.165-.574-.87 0-1.26.61-1.426 1.351-.351-.259-.61-.444-1.073-.444-.777 0-1.407.63-1.407 1.407 0 .185.056.407.093.573-.352-.222-.611-.407-1.055-.407-.777 0-1.407.63-1.407 1.407 0 .296.11.518.203.796a2.337 2.337 0 0 0-.629-.111c-.537 0-.851.259-1.184.61-.315-.48-.667-.814-1.296-.814-.852 0-1.259.611-1.425 1.333-.333-.222-.593-.389-1.018-.389-.777 0-1.407.63-1.407 1.407 0 .166.037.37.074.537-.315-.167-.555-.297-.925-.297-.777 0-1.407.63-1.407 1.407 0 .352.13.592.277.907-.24-.055-.462-.148-.703-.148-.777 0-1.407.63-1.407 1.407 0 .425.167.666.39 1-.852.055-1.593.462-1.593 1.406 0 .648.352.962.815 1.314-.778.167-1.462.518-1.462 1.444 0 .333.11.555.277.833-.925.574-.925 1.462-.296 2.295-1.351 1.11.703 3.59 2.48 2.388.963.74 1.777.74 2.888.407-.148.314-.333.592-.167.944.167.37.574.518.926.351 5.423-2.535 11.438-3.942 17.824-3.942 6.386 0 12.475 1.407 17.898 3.942zm-34.11 1.555l-.759-.277-.296-.093-.037.185-.222.833.814.444.185.111.074-.333.24-.87zm-.481 1.333l-1.074-.592.26-1.074c-.408-.055-.612-.537-.426-.851a1.056 1.056 0 0 1-1.204-1.185 3.038 3.038 0 0 1-2.35-.5c-1.907 1.13-4.146-1.573-2.925-2.832-.536-.814-.407-1.814.296-2.35a1.734 1.734 0 0 1 .926-2.351 1.673 1.673 0 0 1-.444-1.148c0-.814.573-1.499 1.332-1.684a1.795 1.795 0 0 1-.148-.722c0-.962.778-1.721 1.74-1.721l.167.018a1.721 1.721 0 0 1 1.684-2.147c.185 0 .37.037.518.074 0-.944.778-1.721 1.74-1.721.296 0 .555.074.796.204a1.745 1.745 0 0 1 2.98-.519 1.75 1.75 0 0 1 1.148-.425h.11a1.721 1.721 0 0 1 1.704-2.092c.222 0 .444.037.647.13a1.742 1.742 0 0 1 2.592-1.481c.24-.666.888-1.13 1.628-1.13.408 0 .778.13 1.074.371a1.751 1.751 0 0 1 1.48-.796c.167 0 .315.019.463.056a2.75 2.75 0 0 1 1.019-.685l.185-.056v-.944H35V1.055h1.185V0h1.61v1.055h1.184v1.536h-1.184v.907l.185.056c.389.148.74.388 1.018.685.148-.037.296-.056.463-.056.629 0 1.166.315 1.462.796a1.79 1.79 0 0 1 1.073-.37c.76 0 1.389.463 1.63 1.129.258-.13.536-.222.85-.222a1.73 1.73 0 0 1 1.74 1.703 1.734 1.734 0 0 1 2.388 1.591c0 .13-.018.241-.037.37h.13c.444 0 .833.167 1.147.426a1.718 1.718 0 0 1 1.352-.629c.758 0 1.388.481 1.628 1.148a1.721 1.721 0 0 1 2.536 1.517 1.73 1.73 0 0 1 .537-.074c.962 0 1.74.778 1.74 1.722 0 .148-.019.296-.056.425h.148c.963 0 1.74.778 1.74 1.722 0 .259-.055.518-.166.74.759.185 1.332.87 1.332 1.684 0 .445-.166.852-.444 1.148a1.729 1.729 0 0 1 .926 2.35c.703.537.832 1.537.296 2.351.777.796.11 2.055-.537 2.555-.63.5-1.518.796-2.37.277a3.006 3.006 0 0 1-2.35.5c.093.685-.518 1.296-1.203 1.185.185.314-.019.796-.407.851l.259 1.074-1.074.592a.56.56 0 0 1 .074.63.592.592 0 0 1-.795.314A37.615 37.615 0 0 0 37 28.153c-5.738 0-11.143 1.258-16.01 3.535-.315.148-.648-.019-.796-.315a.565.565 0 0 1 .074-.63zm.74-1.48l-.333 1.313.11.222c-.055.037-.129.056-.184.111-.093.093-.167.186-.093.334.074.148.222.203.352.148 4.905-2.295 10.365-3.573 16.159-3.573a37.97 37.97 0 0 1 16.158 3.573c.26.11.666-.315.056-.593l.11-.222-.332-1.314 1.147-.426.093-.185c.092.037.166.056.24.074.315.037.296-.314.13-.388a41.377 41.377 0 0 0-17.584-3.887c-6.293 0-12.253 1.388-17.584 3.887-.148.074-.166.425.13.388a.497.497 0 0 0 .24-.074l.093.185 1.092.426zM47.44 13.956c-1.37-3.424-4.59-5.904-8.903-5.664 0 .296-.092.592-.24.815v1.166a1.504 1.504 0 0 1 0 1.628v.74c2.961-.388 6.422-.092 9.143 1.315zm-9.143-.87a1.5 1.5 0 0 1-.334 1.999c.519.185.926.555 1.093 1.259 1.055.259 1.332 1.036 1.332 1.888 0 1.018-.407 1.888-1.906 1.962a1.388 1.388 0 1 0 2.628.037c-.018-.148-.037-.297-.037-.445 0-.962.777-1.74 1.758-1.74.963 0 1.74.778 1.74 1.74 0 .297-.074.574-.203.833a1.418 1.418 0 0 0 1.036 1.259 1.398 1.398 0 0 0 1.518-.61c-1.425-.445-1.61-1.39-1.351-2.37.222-.833.685-1.518 1.777-1.5.203-.388.462-.629.777-.777-.13-.833-.315-1.61-.574-2.35-2.776-1.537-6.422-1.814-9.254-1.389v.204zm-2.518-4.775c0 .277.093.5.241.722v1.37c-.148.221-.24.443-.24.721 0 .278.092.5.24.722v1.37c-.148.222-.24.444-.24.721 0 .796.592 1.055 1.202 1.315.611-.278 1.204-.519 1.204-1.315 0-.243-.07-.481-.204-.684l-.037-1.407c.148-.222.24-.444.24-.722 0-.278-.092-.5-.24-.722V9.014c.148-.222.24-.444.24-.722 0-.11-.018-.203-.036-.315 5.663-.407 9.717 3.406 10.272 8.81-.5.204-.685.427-.925.908-.981-.056-1.425.333-1.648 1.24-.333 1.277.278 1.758 1.5 2.073-.37.833-1.11 1.388-2.073 1.13a1.718 1.718 0 0 1-1.296-1.648c.13-.24.222-.463.222-.74 0-.778-.63-1.407-1.407-1.407s-1.425.629-1.425 1.406c0 .148.037.297.074.445-.222.74-.851 1.258-1.647 1.258-1 0-1.573-.722-1.721-1.61 1.258 0 1.98-.333 1.98-1.647 0-.926-.333-1.426-1.296-1.61-.222-1.167-.814-1.24-1.795-1.389-.981.167-1.573.24-1.795 1.388-.963.185-1.296.685-1.296 1.61 0 1.315.722 1.63 1.98 1.648-.148.888-.721 1.61-1.72 1.61-.797 0-1.426-.518-1.667-1.258.037-.148.074-.297.074-.445a1.41 1.41 0 0 0-1.425-1.406c-.777 0-1.425.629-1.425 1.406 0 .278.074.519.222.74-.019.778-.5 1.463-1.277 1.648-.963.24-1.703-.315-2.073-1.129 1.221-.315 1.832-.814 1.499-2.073-.24-.907-.685-1.296-1.647-1.24-.222-.5-.407-.722-.926-.907.556-5.405 4.609-9.236 10.273-8.81.037.11.018.222.018.333zm-9.347 5.96a10.7 10.7 0 0 0-.537 2.332c.315.148.574.407.778.777 1.092-.018 1.555.667 1.777 1.5.259.98.074 1.924-1.351 2.369a1.379 1.379 0 1 0 2.554-.648 1.732 1.732 0 0 1-.204-.833c0-.963.778-1.74 1.74-1.74a1.753 1.753 0 0 1 1.703 2.184 1.388 1.388 0 0 0 2.628-.037c-1.499-.074-1.906-.944-1.906-1.962 0-.851.296-1.629 1.332-1.888.167-.685.574-1.073 1.093-1.258a1.5 1.5 0 0 1-.334-2v-.185c-2.832-.407-6.478-.148-9.273 1.389zm9.014-5.96c-4.312-.241-7.515 2.22-8.884 5.663 2.702-1.388 6.182-1.72 9.125-1.295v-.74a1.505 1.505 0 0 1 0-1.63V9.126a1.555 1.555 0 0 1-.24-.814zm17.528 15.733l.093-.075c.185.149.352.241.592.315l.296.056c.112.61.334 1.11.76 1.554l-.186.26a42.742 42.742 0 0 0-3.146-1.24l.037-.315a3.212 3.212 0 0 0 1.554-.555zm.093.333c-.296.203-.63.351-.962.444.666.24 1.332.5 1.999.777a3.06 3.06 0 0 1-.408-.98l-.11-.02a2.573 2.573 0 0 1-.519-.221zm-16.233-4.202h.334c.13.907.703 1.647 1.499 2.018l-.074.314A44.631 44.631 0 0 0 37 22.47c-.537 0-1.055.019-1.592.037l-.074-.314a2.654 2.654 0 0 0 1.5-2.018zm.167.666a3.01 3.01 0 0 1-.981 1.315c.315 0 .648-.019.981-.019.333 0 .648 0 .981.019A2.908 2.908 0 0 1 37 20.84zm-17.547 5.313l-.185-.26c.426-.462.648-.944.759-1.554.407-.056.555-.093.907-.352.5.37 1 .574 1.629.61l.037.315c-1.074.37-2.129.778-3.147 1.24zm.444-.556a32.008 32.008 0 0 1 2-.777 2.865 2.865 0 0 1-.963-.444 1.627 1.627 0 0 1-.518.222l-.111.018a3.542 3.542 0 0 1-.408.981zm7.83-2.461v.314a55.93 55.93 0 0 0-3.036.76l-.148-.279a2.654 2.654 0 0 0 .926-2.313l.314-.074a2.619 2.619 0 0 0 1.944 1.592zm-.685.148a3.076 3.076 0 0 1-1.259-1.018 2.912 2.912 0 0 1-.61 1.499 24.962 24.962 0 0 1 1.869-.481zm2.832-.222l-.111-.297c.61-.388.98-.907 1.221-1.573h.204c.185 0 .352-.037.518-.092.408.592.907.999 1.592 1.221l-.037.315c-1.147.092-2.277.24-3.387.426zm1.333-1.555a3.05 3.05 0 0 1-.76 1.11 27.197 27.197 0 0 1 2.148-.259 3.157 3.157 0 0 1-1.018-.888c-.13.018-.24.037-.37.037zm9.532 1.129l-.037-.315c.685-.222 1.184-.63 1.592-1.221a1.7 1.7 0 0 0 .518.092h.204c.24.666.61 1.185 1.221 1.573l-.11.297a41.287 41.287 0 0 0-3.388-.426zm2.036-1.13c-.111 0-.24-.018-.352-.036-.277.37-.63.666-1.018.888.722.074 1.425.167 2.147.26a3.427 3.427 0 0 1-.74-1.037l-.037-.074zm6.682 2.444l-.148.278c-1-.297-2-.556-3.036-.76v-.314a2.725 2.725 0 0 0 1.944-1.592l.314.074c-.092.889.26 1.759.926 2.314zm-.648-.204a3.078 3.078 0 0 1-.61-1.499 2.807 2.807 0 0 1-1.26 1.018c.63.148 1.26.315 1.87.481zm.481-5.682a1.407 1.407 0 0 0-1.703 1c-.185.74.26 1.499 1 1.684.759.185 1.518-.26 1.703-1a1.388 1.388 0 0 0-1-1.684zm.056-.222a1.606 1.606 0 0 1 1.166 1.962 1.625 1.625 0 0 1-1.98 1.166 1.605 1.605 0 0 1-1.167-1.962 1.64 1.64 0 0 1 1.98-1.166zm1.203-2.499a.782.782 0 0 0-.778.778c0 .425.352.777.778.777a.782.782 0 0 0 .777-.777.77.77 0 0 0-.777-.778zm0-.222c.555 0 1 .444 1 1 0 .555-.445 1-1 1-.556 0-1-.445-1-1 0-.556.463-1 1-1zm-.648-2.554a.782.782 0 0 0-.777.777c0 .426.351.778.777.778a.782.782 0 0 0 .777-.778.759.759 0 0 0-.777-.777zm0-.222c.555 0 1 .444 1 1a.996.996 0 0 1-1 .999c-.555 0-1-.445-1-1 0-.555.463-1 1-1zm9.643 7.514a.782.782 0 0 0-.777.778c0 .426.352.777.777.777a.782.782 0 0 0 .778-.777.782.782 0 0 0-.778-.778zm0-.222c.556 0 1 .445 1 1 0 .555-.444 1-1 1-.555 0-1-.445-1-1 0-.555.445-1 1-1zm-.648-2.535a.782.782 0 0 0-.777.777c0 .426.352.777.777.777a.782.782 0 0 0 .778-.777.782.782 0 0 0-.778-.777zm0-.223c.556 0 1 .445 1 1 0 .555-.444 1-1 1-.555 0-1-.445-1-1 0-.555.445-1 1-1zm-1.166-2.202a.782.782 0 0 0-.777.777c0 .426.352.76.777.76a.782.782 0 0 0 .778-.778.766.766 0 0 0-.778-.76zm0-.222c.556 0 1 .444 1 1a.995.995 0 0 1-1 .999c-.555 0-1-.444-1-1 0-.555.445-1 1-1zm-1.832-1.925a.782.782 0 0 0-.777.777c0 .426.351.778.777.778a.782.782 0 0 0 .777-.778.782.782 0 0 0-.777-.777zm0-.222c.555 0 1 .444 1 1a.996.996 0 0 1-1 .999c-.555 0-1-.445-1-1-.018-.555.445-1 1-1zm-2.277-1.426a.782.782 0 0 0-.777.778c0 .426.352.777.777.777a.782.782 0 0 0 .778-.777.782.782 0 0 0-.778-.778zm0-.222c.556 0 1 .445 1 1 0 .555-.444 1-1 1-.555 0-1-.445-1-1 0-.555.445-1 1-1zm-2.443-.722a.782.782 0 0 0-.777.778c0 .426.351.777.777.777a.782.782 0 0 0 .777-.777.782.782 0 0 0-.777-.778zm0-.222c.555 0 1 .445 1 1 0 .555-.445 1-1 1-.555 0-1-.445-1-1 0-.555.445-1 1-1zm-2.48.426a.782.782 0 0 0-.778.777c0 .426.352.778.778.778a.782.782 0 0 0 .777-.778.796.796 0 0 0-.777-.777zm0-.222c.555 0 1 .444 1 1a.996.996 0 0 1-1 .999c-.555 0-1-.444-1-1-.018-.555.445-.999 1-.999zm-1.833-1.87a.782.782 0 0 0-.777.778c0 .426.352.777.777.777a.782.782 0 0 0 .778-.777.782.782 0 0 0-.778-.777zm0-.222c.556 0 1 .445 1 1 0 .555-.444 1-1 1-.555 0-1-.445-1-1 0-.537.445-1 1-1zm-2.387-1.35a.782.782 0 0 0-.778.777c0 .425.352.777.778.777a.782.782 0 0 0 .777-.777.782.782 0 0 0-.777-.778zm0-.223c.555 0 1 .444 1 1 0 .555-.445 1-1 1-.556 0-1-.445-1-1 0-.556.444-1 1-1zm-2.48-.685a.782.782 0 0 0-.778.778c0 .425.352.777.777.777a.782.782 0 0 0 .778-.777.782.782 0 0 0-.778-.778zm0-.222c.555 0 .999.444.999 1a.98.98 0 0 1-1 .98.995.995 0 0 1-.999-.999.98.98 0 0 1 1-.98zm-2.536-.222a.782.782 0 0 0-.778.777c0 .426.352.778.778.778a.782.782 0 0 0 .777-.778.782.782 0 0 0-.777-.777zm0-.222c.555 0 1 .444 1 1a.996.996 0 0 1-1 .999c-.556 0-1-.444-1-1a.995.995 0 0 1 1-.999zM15.418 25.45c.685-.37.926-1.221.555-1.888a1.416 1.416 0 0 0-1.906-.555 1.395 1.395 0 0 0-.555 1.888 1.41 1.41 0 0 0 1.906.555zm.111.204a1.629 1.629 0 0 1-2.202-.63 1.6 1.6 0 0 1 .647-2.184 1.629 1.629 0 0 1 2.203.63 1.6 1.6 0 0 1-.648 2.184zm9.866-4.905c.74-.185 1.203-.944 1-1.684a1.407 1.407 0 0 0-1.704-1c-.74.185-1.203.944-1 1.684.204.76.963 1.203 1.704 1zm.055.222a1.625 1.625 0 0 1-1.98-1.166 1.606 1.606 0 0 1 1.166-1.962 1.625 1.625 0 0 1 1.98 1.166c.222.87-.296 1.74-1.166 1.962zM37 19.305c.777 0 1.407-.63 1.407-1.388 0-.759-.63-1.388-1.407-1.388s-1.407.63-1.407 1.388c0 .759.63 1.388 1.407 1.388zm0 .222a1.629 1.629 0 0 1-1.629-1.61c0-.888.722-1.61 1.629-1.61.888 0 1.629.722 1.629 1.61A1.64 1.64 0 0 1 37 19.527zM23.433 16.88a.782.782 0 0 0 .777-.777.782.782 0 0 0-.777-.777.782.782 0 0 0-.778.777.77.77 0 0 0 .778.777zm0 .223c-.556 0-1-.445-1-1 0-.555.444-1 1-1 .555 0 1 .445 1 1 0 .555-.445 1-1 1zm.648-2.98a.782.782 0 0 0 .777-.778.782.782 0 0 0-.777-.777.782.782 0 0 0-.778.777c0 .426.352.778.778.778zm0 .222c-.556 0-1-.445-1-1 0-.555.444-1 1-1 .555 0 .999.445.999 1 0 .555-.444 1-1 1zm-9.625 7.07a.782.782 0 0 0 .777-.777.782.782 0 0 0-.777-.778.782.782 0 0 0-.778.778c0 .426.352.777.778.777zm0 .204c-.556 0-1-.444-1-1 0-.555.444-1 1-1 .555 0 1 .445 1 1 0 .574-.445 1-1 1zm.648-2.98a.782.782 0 0 0 .777-.778.782.782 0 0 0-.777-.777.782.782 0 0 0-.778.777.76.76 0 0 0 .778.778zm0 .222c-.556 0-1-.444-1-1 0-.555.444-1 1-1 .555 0 1 .445 1 1 0 .556-.464 1-1 1zm1.147-2.647a.782.782 0 0 0 .778-.777.755.755 0 0 0-.778-.76.782.782 0 0 0-.777.778c0 .426.351.76.777.76zm0 .222c-.555 0-1-.444-1-1a.996.996 0 0 1 1-.999c.555 0 1 .444 1 1 0 .555-.445 1-1 1zm1.851-2.369a.782.782 0 0 0 .777-.777.782.782 0 0 0-.777-.778.782.782 0 0 0-.777.778c0 .425.351.777.777.777zm0 .222c-.555 0-1-.444-1-1a.996.996 0 0 1 1-.999c.555 0 1 .444 1 1 0 .555-.445 1-1 1zm2.277-1.85a.782.782 0 0 0 .777-.778.782.782 0 0 0-.777-.778.782.782 0 0 0-.778.778.77.77 0 0 0 .778.777zm0 .221c-.556 0-1-.444-1-1a.996.996 0 0 1 1-.999c.555 0 1 .445 1 1 0 .555-.445 1-1 1zm2.424-1.184a.782.782 0 0 0 .778-.778.782.782 0 0 0-.778-.777.782.782 0 0 0-.777.777.77.77 0 0 0 .777.778zm0 .222c-.555 0-1-.444-1-1 0-.555.445-1 1-1 .556 0 1 .445 1 1 .018.556-.444 1-1 1zm2.5 0a.782.782 0 0 0 .777-.778.782.782 0 0 0-.778-.777.782.782 0 0 0-.777.777c0 .426.351.778.777.778zm0 .222c-.556 0-1-.444-1-1a.995.995 0 0 1 1-.999c.554 0 .999.444.999 1a.996.996 0 0 1-1 .999zm1.832-2.314a.782.782 0 0 0 .777-.777.782.782 0 0 0-.777-.777.782.782 0 0 0-.778.777c-.018.426.333.777.778.777zm0 .222c-.556 0-1-.444-1-1a.996.996 0 0 1 1-.999c.555 0 1 .445 1 1 0 .555-.464 1-1 1zm2.369-1.795a.782.782 0 0 0 .777-.777.782.782 0 0 0-.777-.778.782.782 0 0 0-.778.778c0 .425.352.777.778.777zm0 .222c-.556 0-1-.444-1-1a.995.995 0 0 1 1-.999c.555 0 1 .444 1 1 0 .555-.445 1-1 1zm2.48-1.147a.782.782 0 0 0 .777-.778.782.782 0 0 0-.777-.777.782.782 0 0 0-.777.777c0 .426.351.778.777.778zm0 .222c-.555 0-1-.445-1-1 0-.555.445-1 1-1 .555 0 1 .445 1 1 0 .555-.445 1-1 1zM37 14.678a.782.782 0 0 0 .777-.778.782.782 0 0 0-.777-.777.782.782 0 0 0-.777.777c0 .426.351.778.777.778zm0 .222c-.555 0-1-.444-1-1a.996.996 0 0 1 1-.999c.555 0 1 .444 1 1a.996.996 0 0 1-1 .999zm0-3.017a.782.782 0 0 0 .777-.777.782.782 0 0 0-.777-.778.782.782 0 0 0-.777.778c0 .425.351.777.777.777zm0 .222c-.555 0-1-.444-1-1a.996.996 0 0 1 1-.999c.555 0 1 .444 1 1 0 .555-.445 1-1 1zm0-3.035a.782.782 0 0 0 .777-.778.782.782 0 0 0-.777-.777.782.782 0 0 0-.777.777.77.77 0 0 0 .777.778zm0 .222c-.555 0-1-.445-1-1 0-.555.445-1 1-1 .555 0 1 .445 1 1 0 .555-.445 1-1 1zm-2.462-2.61a.782.782 0 0 0 .778-.778.782.782 0 0 0-.778-.777.782.782 0 0 0-.777.777c-.019.426.333.778.777.778zm0 .222c-.555 0-1-.444-1-1a.996.996 0 0 1 1-.999c.556 0 1 .444 1 1-.01.547-.452.99-1 .999zm25.376 16.122a1.383 1.383 0 0 0-1.887.555c-.37.666-.13 1.518.555 1.888.685.37 1.536.13 1.906-.537a1.435 1.435 0 0 0-.574-1.906zm.112-.204a1.6 1.6 0 0 1 .647 2.184 1.629 1.629 0 0 1-2.202.63 1.592 1.592 0 0 1-.63-2.185c.408-.777 1.389-1.055 2.185-.63zm-42.627.555c-.204-.555-.482-.962-1.074-1.129.37-4.775 1.61-6.96 5.96-9.143.37.13.37.185.37.259 0 .648.37.962.833 1.314-.777.166-1.462.518-1.462 1.444 0 .777.518 1.203 1.203 1.388-.222.425-.259.61-.222 1.092-.888.426-1.074.98-.851 1.87.333 1.276 1.11 1.406 2.332 1.091.185 1.98-2.018 2.74-3.091 1.314 0-.11-.019-.222-.037-.351a1.423 1.423 0 0 0-1.722-1.018 1.4 1.4 0 0 0-1.018 1.721c.056.24.185.444.352.63.074.703-.24 1.37-.87 1.702-.648.352-1.148.204-1.777-.018 1.018-.481 1.536-.963 1.074-2.166zm.074-5.164c-.426 1.074-.648 2.295-.778 3.795.519.222.833.74 1.037 1.258.296.796.315 1.61-.555 2.221.259.019.518-.037.758-.166a1.4 1.4 0 0 0 .722-1.277 1.721 1.721 0 0 1-.351-.685 1.74 1.74 0 0 1 1.258-2.11 1.738 1.738 0 0 1 2.129 1.258l.055.296c.796.963 2.388.463 2.462-.795-1.462.296-2.091-.445-2.332-1.426-.222-.833-.13-1.647.833-2.165 0-.26.037-.5.11-.704a1.75 1.75 0 0 1-1.036-1.258c-.833.185-1.776.425-2.554.722-.777.296-1.351.666-1.758 1.036zm4.868-4.757c-2.425 1.259-3.85 2.536-4.683 4.331a6.1 6.1 0 0 1 1.444-.796c.777-.296 1.758-.555 2.59-.74v-.11c0-.723.445-1.352 1.093-1.611a1.75 1.75 0 0 1-.444-1.074zm33.575 12.142c-.647-.351-.944-1-.87-1.703.167-.185.278-.388.352-.629a1.407 1.407 0 0 0-1.018-1.721c-.759-.185-1.536.259-1.721 1.018-.037.11-.037.222-.037.351-1.074 1.426-3.276.667-3.091-1.314 1.221.296 1.999.167 2.332-1.092.24-.907.037-1.462-.851-1.87.037-.499 0-.666-.223-1.091.667-.204 1.203-.63 1.203-1.407 0-.925-.703-1.277-1.48-1.444.462-.351.833-.666.833-1.314 0-.055 0-.11-.019-.166l.315-.093c4.331 2.147 5.664 4.405 6.034 9.144-.592.185-.852.592-1.074 1.129-.462 1.203.074 1.684 1.11 2.202-.647.204-1.147.352-1.795 0zm-3.646-9.143a1.748 1.748 0 0 1-1.036 1.258c.074.204.11.445.11.704.963.5 1.037 1.332.834 2.165-.26.981-.87 1.722-2.333 1.426.074 1.258 1.666 1.758 2.462.795 0-.092.019-.203.056-.296a1.76 1.76 0 0 1 2.128-1.258 1.727 1.727 0 0 1 .907 2.795c-.055.832.648 1.499 1.462 1.443-.87-.61-.87-1.425-.555-2.22.204-.52.518-1.037 1.018-1.26-.13-1.499-.352-2.739-.777-3.812a5.829 5.829 0 0 0-1.703-1.018c-.796-.297-1.74-.537-2.573-.722zm-.61-3.054a1.807 1.807 0 0 1-.445 1.11c.648.26 1.092.889 1.092 1.61v.112c.87.185 1.777.425 2.591.74a6.567 6.567 0 0 1 1.444.796c-.833-1.777-2.258-3.073-4.683-4.368zm-5.072 14.9l-2.462-1.703 2.98-.315 2.462 1.703-2.98.315zm-4.609-1c-.555 0-1-.444-1-1a.996.996 0 0 1 1-.999c.555 0 1 .444 1 1 .018.555-.445 1-1 1zm0-.222a.782.782 0 0 0 .777-.777.782.782 0 0 0-.777-.778.782.782 0 0 0-.777.778c0 .425.351.777.777.777zM22.378 29.67a.782.782 0 0 0 .777-.777.782.782 0 0 0-.777-.777.782.782 0 0 0-.778.777c0 .426.352.777.778.777zm0 .204c-.556 0-1-.444-1-1 0-.555.444-1 1-1 .555 0 1 .445 1 1 0 .574-.445 1-1 1zm9.625-2.795a.782.782 0 0 0 .777-.777.782.782 0 0 0-.777-.778.782.782 0 0 0-.778.778c0 .425.352.777.778.777zm0 .222c-.556 0-1-.444-1-1a.995.995 0 0 1 1-.999c.555 0 .999.444.999 1 0 .555-.444 1-1 1zm19.6 2.37a.782.782 0 0 0 .778-.778.782.782 0 0 0-.777-.777.782.782 0 0 0-.778.777c0 .426.352.777.778.777zm0 .203a.996.996 0 0 1-.999-1c0-.555.445-1 1-1 .555 0 1 .445 1 1 0 .574-.445 1-1 1zM27.394 28.3l-2.98-.315 2.462-1.703 2.98.315-2.461 1.703zm12.087-2.24l-2.499-.925-2.498.925 2.498.925 2.5-.925zm.648 0L37 27.227l-3.128-1.166L37 24.895l3.128 1.166z" fill="#FFF" opacity=".085"/></svg>