<svg width="74" height="47" xmlns="http://www.w3.org/2000/svg"><path d="M1.27 0h1.112a35.398 35.398 0 0 0-1.308 9.56c0 19.638 16.121 35.667 35.926 35.667 19.805 0 35.926-16.047 35.926-35.667 0-3.31-.455-6.515-1.308-9.56h1.111A36.426 36.426 0 0 1 74 9.56C74 29.772 57.397 46.3 37 46.3S0 29.773 0 9.56C0 6.256.442 3.05 1.27 0zm65.55 0h1.124a31.758 31.758 0 0 1 1.466 9.56c0 17.695-14.567 32.169-32.41 32.169-17.824 0-32.41-14.474-32.41-32.17 0-3.327.512-6.538 1.462-9.559h1.129a30.73 30.73 0 0 0-1.517 9.56c0 17.12 14.104 31.114 31.336 31.114S68.336 26.68 68.336 9.56A30.73 30.73 0 0 0 66.82 0zm-7.424 0H60.5c1.203 3.004 1.859 6.197 1.859 9.245 0 6.96-2.351 11.328-5.979 15.714l3.22 3.203a28.824 28.824 0 0 0 6.775-18.64c0-3.33-.563-6.534-1.602-9.522h1.22a30.08 30.08 0 0 1 1.493 9.412c0 5.83-1.555 11.087-4.498 15.788-3.165 5.33-7.959 9.532-13.678 12.05l-2.832-2.888-5.294-5.386a20.58 20.58 0 0 1-3.72.463v4.497H31.41v-5.182C22.304 26.31 16.03 17.852 16.14 8.653a17.93 17.93 0 0 1 .61-4.46l-2.998-3.018c-.888 2.48-1.388 5.164-1.499 7.996-.166 5.7 2.332 11.865 6.497 15.788l-4.368 4.424c-5.146-5.738-7.96-12.197-7.96-19.971 0-3.284.525-6.445 1.508-9.412h1.157a28.771 28.771 0 0 0-1.59 9.449c0 7.126 2.554 13.345 6.922 18.398l2.813-2.85c-2.425-2.5-6.275-8.44-6.052-15.844.118-3.346.743-6.38 1.865-9.153h6.557c-1.496 2.573-2.379 5.482-2.425 8.69-.111 9.291 6.33 17.047 15.27 19.268v4.96h3.905V28.44c5.868-.037 11.439-2.295 15.307-6.756l-3.035-3.035c-2.943 3.239-7.756 5.83-12.29 5.608v-4.905h6.108v-3.424h-6.108V12.04h6.2V9.042H32.428v14.566c-6.626-2.184-11.346-7.237-11.198-14.474.071-3.51 1.175-6.575 3.13-9.134h7.704l4.843 4.97L41.653 0h1.46l-2.337 2.452 17.528 17.954c2-3.276 2.999-6.626 2.999-11.235 0-3.247-.737-6.377-1.907-9.171zm-5.999 0L49.79 3.1C49.182 1.922 48.559.911 47.805 0h1.31c.345.458.668.946.971 1.471L51.809 0h1.588zM31.392 19.092L22.34 9.93c.222 5.146 3.368 9.976 9.05 12.142v-2.98z" fill="#FFF" opacity=".085"/></svg>