<svg width="160" height="20" xmlns="http://www.w3.org/2000/svg"><path d="M133.622 16.35h2.644v2.765h-2.644V16.35zm6.718-10.818h2.163v2.346c.177-.456.612-1.012 1.303-1.667.692-.656 1.489-.983 2.391-.983.042 0 .114.004.215.013.102.008.274.025.519.05v2.41a3.393 3.393 0 0 0-.373-.05 5.064 5.064 0 0 0-.373-.013c-1.147 0-2.029.37-2.644 1.11a3.88 3.88 0 0 0-.924 2.555v7.812h-2.277V5.532zm10.842 0v9.018c0 .693.11 1.26.329 1.699.404.812 1.16 1.218 2.264 1.218 1.586 0 2.665-.71 3.239-2.131.312-.761.468-1.805.468-3.133v-6.67h2.277v13.582h-2.15l.025-2.004a4.602 4.602 0 0 1-1.1 1.307c-.87.71-1.924 1.065-3.164 1.065-1.931 0-3.247-.647-3.947-1.94-.38-.694-.569-1.62-.569-2.778V5.532h2.328zM80.666 5.08c1.918 0 5.39.593 5.39 3.97v7.418c0 1.62.352 1.984.787 2.14v.54H83.01c-.208-.644-.25-.852-.332-1.62-.808.851-1.948 1.984-4.363 1.984-2.031 0-4.115-1.164-4.115-4 0-2.68 1.68-4.042 3.939-4.374l3.192-.489c.56-.072 1.243-.311 1.243-1.08 0-1.517-1.42-1.6-2.342-1.6-1.772 0-2.083 1.112-2.176 1.901h-3.43c.404-4.197 3.274-4.79 6.041-4.79zM129.76.656v18.483h-3.482v-1.725c-.912 1.548-2.488 2.088-3.96 2.088-4 0-5.668-3.605-5.668-7.366 0-4.738 2.632-7.054 5.586-7.054 2.29 0 3.358 1.267 3.907 2.14l.052-6.566h3.565zm-29.267 0v18.483H97.02v-1.725c-.912 1.548-2.487 2.088-3.959 2.088-4 0-5.669-3.605-5.669-7.366 0-4.738 2.622-7.054 5.586-7.054 2.29 0 3.348 1.267 3.907 2.14l.052-6.566h3.555zM68.22 5.08c2.632 0 4.684 1.568 4.684 4.592v9.475H69.36v-8.312c0-2.036-.881-2.7-1.928-2.7-1.772 0-2.394 1.183-2.394 2.804v8.218h-3.555V10.92c0-1.153 0-2.784-2.124-2.784-1.669 0-2.197 1.184-2.197 2.68v8.343h-3.555V5.444h3.4V7.45c.507-.904 1.492-2.368 3.865-2.368 1.948 0 2.84.727 3.751 2.192.456-.676 1.441-2.192 3.597-2.192zm41.527 0c.228 0 .456.02.684.051V8.81c-.3-.052-.684-.052-1.016-.052-2.767 0-3.275 1.746-3.275 3.263v7.127h-3.555V5.444h3.41v2.369c.788-1.392 1.596-2.732 3.752-2.732zm5.347.363v13.704h-3.554V5.444h3.554zm-32.51 7.034c-.363.28-.943.52-2.415.738-1.316.228-2.404.571-2.404 2.057 0 1.267.963 1.652 1.647 1.652 1.52 0 3.058-.957 3.166-2.525l.006-.177v-1.745zm40.74-4.28c-2.27 0-3.027 2.036-3.027 4.197 0 1.62.632 4.145 2.922 4.145 2.26 0 3.151-1.901 3.151-3.937 0-2.182-.601-4.406-3.047-4.406zm-29.278 0c-2.26 0-3.026 2.036-3.026 4.197 0 1.62.632 4.145 2.922 4.145 2.26 0 3.15-1.901 3.15-3.937 0-2.182-.61-4.406-3.046-4.406zm21.048-7.73v3.355h-3.554V.468h3.554zM0 0h2.525v7.626h9.6V0h2.525v18.457h-2.526V9.825H2.525v8.632H0V0zm19.952 14.876c0 .653.239 1.168.716 1.545.478.377 1.043.566 1.696.566.796 0 1.567-.185 2.312-.553 1.256-.612 1.885-1.612 1.885-3.003V11.61c-.277.176-.633.323-1.068.44a9.1 9.1 0 0 1-1.282.251l-1.37.176c-.82.11-1.436.28-1.846.515-.695.394-1.043 1.022-1.043 1.885zm5.478-4.573c.52-.067.867-.285 1.043-.654.1-.2.15-.49.15-.867 0-.77-.274-1.33-.822-1.677-.55-.348-1.334-.521-2.356-.521-1.181 0-2.019.318-2.513.955-.276.351-.457.875-.54 1.57H18.28c.042-1.658.58-2.812 1.614-3.461 1.035-.65 2.235-.974 3.6-.974 1.583 0 2.869.301 3.857.904.98.604 1.47 1.542 1.47 2.815v7.752c0 .235.048.423.145.565.096.143.3.214.61.214.1 0 .213-.006.338-.019.126-.012.26-.031.402-.056v1.67a6.41 6.41 0 0 1-.804.19 5.876 5.876 0 0 1-.754.037c-.779 0-1.344-.277-1.696-.83-.184-.293-.314-.707-.39-1.243-.46.603-1.122 1.126-1.984 1.57-.863.444-1.814.666-2.852.666-1.249 0-2.268-.379-3.06-1.137-.791-.758-1.187-1.707-1.187-2.846 0-1.248.39-2.215 1.168-2.902.78-.687 1.801-1.11 3.066-1.27l3.606-.451zM32.59 0h2.262v18.457H32.59V0zm7.388 14.876c0 .653.239 1.168.716 1.545.478.377 1.043.566 1.697.566.795 0 1.566-.185 2.311-.553 1.257-.612 1.885-1.612 1.885-3.003V11.61c-.276.176-.632.323-1.068.44a9.1 9.1 0 0 1-1.282.251l-1.369.176c-.82.11-1.437.28-1.847.515-.695.394-1.043 1.022-1.043 1.885zm5.478-4.573c.52-.067.867-.285 1.043-.654.1-.2.15-.49.15-.867 0-.77-.274-1.33-.822-1.677-.549-.348-1.334-.521-2.356-.521-1.181 0-2.019.318-2.513.955-.276.351-.456.875-.54 1.57h-2.11c.041-1.658.58-2.812 1.614-3.461 1.034-.65 2.234-.974 3.6-.974 1.582 0 2.868.301 3.857.904.98.604 1.47 1.542 1.47 2.815v7.752c0 .235.048.423.144.565.096.143.3.214.61.214.1 0 .213-.006.339-.019a5.21 5.21 0 0 0 .402-.056v1.67c-.352.101-.62.164-.804.19a5.876 5.876 0 0 1-.754.037c-.78 0-1.345-.277-1.696-.83-.185-.293-.315-.707-.39-1.243-.46.603-1.122 1.126-1.985 1.57-.863.444-1.814.666-2.852.666-1.248 0-2.268-.379-3.06-1.137-.791-.758-1.187-1.707-1.187-2.846 0-1.248.39-2.215 1.169-2.902.779-.687 1.8-1.11 3.065-1.27l3.606-.451z"/></svg>