<svg width="32" height="33" xmlns="http://www.w3.org/2000/svg"><g fill="none"><ellipse fill="#F0F0F0" cx="16" cy="16.031" rx="16" ry="16.031"/><path d="M.551 20.213A16.044 16.044 0 0 0 11.826 31.51V20.213H.551z" fill="#D80027"/><path d="M11.826.552A16.044 16.044 0 0 0 .551 11.85h11.275V.552z" fill="#0052B4"/><path d="M31.449 11.85A16.044 16.044 0 0 0 20.174.551V11.85h11.275z" fill="#D80027"/><path d="M20.174 31.51a16.044 16.044 0 0 0 11.275-11.297H20.174V31.51z" fill="#0052B4"/><path d="M20.174 16.031A4.178 4.178 0 0 1 16 20.213a4.178 4.178 0 0 1-4.174-4.182c0-2.31 4.174-4.182 4.174-4.182s4.174 1.873 4.174 4.182z" fill="#496E2D"/><path d="M11.826 16.031A4.178 4.178 0 0 1 16 11.85a4.178 4.178 0 0 1 4.174 4.182" fill="#0052B4"/><path d="M13.652 13.94v2.614A2.35 2.35 0 0 0 16 18.906a2.35 2.35 0 0 0 2.348-2.352V13.94h-4.696z" fill="#D80027"/></g></svg>