<svg xmlns="http://www.w3.org/2000/svg" width="212.371" height="284.428"><path fill="#2d315f" fill-rule="evenodd" d="M106.103 284.428L13.71 214.28s-4.56-4.572-6.387-7.213c-1.947-2.816-3.522-5.905-4.79-9.085-.98-2.46-1.648-5.05-2.148-7.654-.23-1.196-.385-3.634-.385-3.634l.055-162.87s1.018-2.715 1.817-3.91a15.574 15.574 0 0 1 3.14-3.413c1.225-.995 2.647-1.74 4.073-2.422 2.667-1.274 5.475-2.26 8.314-3.083 7.496-2.17 22.905-4.846 22.905-4.846s8.684-1.5 13.05-2.093c9.185-1.248 18.394-2.4 27.64-3.084 6.978-.516 13.982-.62 20.978-.77 5.744-.124 11.493-.32 17.234-.11 8.777.32 17.528 1.192 26.264 2.092 4.657.48 13.932 1.762 13.932 1.762l31.99 6.387s5.5 1.295 8.15 2.257c2.292.834 4.632 1.677 6.662 3.03 1.188.792 2.223 1.82 3.138 2.918.655.786 1.2 1.67 1.652 2.588.405.823.738 1.692.936 2.588.223 1.007.275 3.083.275 3.083l.166 29.843-.11 130.77s-.934 4.878-1.596 7.268c-.554 1.997-1.132 4.003-1.983 5.892-.755 1.68-1.76 3.238-2.752 4.79-1.147 1.8-2.29 3.62-3.69 5.23-1.487 1.718-3.222 3.21-4.954 4.68-1.847 1.57-5.782 4.406-5.782 4.406a31954.962 31954.962 0 0 0-85.4 64.752z"/><path fill="#fff" d="M23.27 176.453l-6.862-4.93-7.006 4.72 2.568-8.047-6.654-5.205 8.448-.044 2.894-7.936 2.653 8.02 8.443.3-6.808 5zm-3.01-74.113l-6.005-4.314-6.133 4.13 2.248-7.044-5.825-4.556 7.395-.04 2.534-6.946 2.322 7.02 7.39.263-5.96 4.378zm1.63-62.548l-6.544-4.703-6.683 4.502 2.45-7.677-6.347-4.965 8.058-.043 2.76-7.57 2.53 7.65 8.054.286-6.494 4.77zm88.32-11.342l-6.546-4.703-6.683 4.502 2.45-7.678-6.346-4.965 8.058-.042 2.76-7.57 2.53 7.65 8.054.285-6.494 4.77zm30.282 62.218l-6.544-4.702-6.683 4.502 2.45-7.677-6.348-4.964 8.058-.042 2.76-7.57 2.532 7.65 8.053.285-6.494 4.77zM83.23 131.964l-6.546-4.703L70 131.765l2.45-7.677-6.346-4.965 8.058-.043 2.76-7.57 2.53 7.65 8.054.285-6.494 4.77z"/><path fill="#fff" fill-rule="evenodd" d="M111.223 77.233l-.22-29.072s4.083 2.297 6.277 3.084c1.35.484 2.756.874 4.185.99 1.613.134 3.277.072 4.845-.33 1.528-.39 3.023-1.05 4.295-1.98.88-.647 1.563-1.54 2.202-2.424.57-.786 1.432-2.533 1.432-2.533s3.727.833 5.615.77c1.46-.047 2.92-.388 4.295-.88 1.484-.53 2.934-1.243 4.185-2.202 1.07-.822 2.05-1.82 2.753-2.974.506-.832.823-1.79.99-2.752.14-.795.067-1.618 0-2.422a6.148 6.148 0 0 0-.55-2.313l15.417 2.423z"/><path fill="#fff" d="M196.87 39.898l-6.546-4.702-6.683 4.502 2.45-7.677-6.346-4.964 8.058-.042 2.76-7.57 2.53 7.65 8.054.285-6.494 4.77z"/><path fill="#fff" fill-rule="evenodd" d="M29.843 138.9l.11-101.09 19.602-3.855s.4 2.34.88 3.414c.433.965 1.056 1.853 1.763 2.642 1.566 1.746 3.304 3.455 5.396 4.515 1.922.973 4.133 1.328 6.277 1.54 1.72.172 3.484.122 5.177-.22 1.036-.207 2.973-1.1 2.973-1.1s1.416 2.723 2.478 3.8c1.04 1.054 2.35 1.844 3.69 2.477 1.385.655 2.892 1.064 4.404 1.32 1.557.267 3.158.315 4.735.222a25.878 25.878 0 0 0 5.286-.88c1.367-.377 3.964-1.543 3.964-1.543v37.992l-35.35 27.2.056-4.57s1.816-1.02 2.588-1.707c1.363-1.212 2.545-2.646 3.525-4.184 1.218-1.912 2.114-4.028 2.863-6.167.462-1.32.722-2.703.99-4.075.235-1.193.54-3.608.54-3.608s-1.287.31-1.943.388c-1.122.132-3.386.125-3.386.125s2.123-.798 3.156-1.265a23.754 23.754 0 0 0 1.957-.99c.91-.522 1.883-.98 2.65-1.697 1.533-1.435 2.683-3.254 3.743-5.066.996-1.703 1.77-3.537 2.423-5.397 1.746-4.973 2.418-10.268 3.964-15.307.513-1.676 1.762-4.956 1.762-4.956s-2.31-.274-3.414 0c-.686.17-1.333.536-1.872.992-1.06.895-1.735 2.168-2.533 3.303-1.483 2.107-2.714 4.383-4.185 6.497-.734 1.055-1.49 2.097-2.312 3.084-.416.5-1.322 1.43-1.322 1.43s-4.205-2.576-5.396-4.624c-.582-1.002-.398-2.285-.66-3.414-.285-1.222-.992-3.634-.992-3.634s1.9-3.162 2.643-4.845c.41-.925.88-1.86.99-2.864.106-.955.007-1.963-.33-2.863-.295-.792-.702-1.665-1.43-2.093-.35-.205-1.212-.11-1.212-.11l-6.826 4.405s-.915-.564-1.432-.66c-.56-.105-1.175-.096-1.707.11-1.425.55-2.422 1.865-3.58 2.863-.53.458-1.54 1.43-1.54 1.43s-1.813-.74-2.754-.66c-.556.048-1.105.31-1.54.66-.246.2-.432.48-.55.772-.183.447-.307.957-.22 1.432.367 2.03 2.268 3.478 3.027 5.396.59 1.494.928 3.09 1.156 4.68.243 1.69.293 3.414.22 5.12-.133 3.18-.514 6.366-1.21 9.47-.703 3.127-1.947 6.106-2.974 9.14-.924 2.73-1.572 5.577-2.864 8.15-.914 1.82-3.414 5.066-3.414 5.066s-1.31 1.178-1.542 1.982c-.153.532-.12 1.178.165 1.652.307.51.93.783 1.487.99.555.207 1.762.22 1.762.22s.964 1.577 1.322 2.424c.628 1.487 1.13 3.04 1.43 4.625.186.977.164 1.98.22 2.973.052.88.093 1.762.112 2.643.028 1.358.058 2.718 0 4.075-.037.847-.22 2.533-.22 2.533z"/><path fill="#b0382a" fill-rule="evenodd" d="M10.884 194.952s2.1 4.132 3.377 6.058c1.237 1.863 2.566 3.688 4.13 5.286 2.437 2.49 5.357 4.454 8.094 6.607 2.127 1.673 6.47 4.9 6.47 4.9v-39.808z"/><path fill="#fff" fill-rule="evenodd" d="M32.954 177.995l29.673-22.444v84.8l-29.673-22.546"/><path fill="#b0382a" fill-rule="evenodd" d="M62.627 155.55l28.578-22.347v129.105l-28.578-21.96"/><path fill="#fff" fill-rule="evenodd" d="M91.205 262.308l14.99 11.602 14.64-11.602v-151.53l-29.63 22.425"/><path fill="#b0382a" fill-rule="evenodd" d="M120.834 262.308l28.733-21.88V88.66l-28.733 22.115"/><path fill="#fff" fill-rule="evenodd" d="M149.567 240.427l29.473-22.114V66.08l-29.473 22.582"/><path fill="#b0382a" fill-rule="evenodd" d="M179.04 66.08l24.1-18.065v138.138s-.343 2.386-.57 3.57c-.253 1.312-.48 2.635-.88 3.91a31.03 31.03 0 0 1-1.818 4.46 28.584 28.584 0 0 1-2.132 3.59 34.427 34.427 0 0 1-3.374 4.173c-1.61 1.68-3.44 3.14-5.23 4.625-3.28 2.718-10.096 7.833-10.096 7.833"/></svg>