<svg xmlns="http://www.w3.org/2000/svg" version="1.0" width="142" height="144"><path d="M14.526 7.165c9.48 4.161 25.037 3.669 35.472-4.207 14.59 10.691 28.634 9.594 42.023 0 8.927 6.453 22.671 9.208 35.568 4.343l5.781 8.033c-15.075 20.146-9.495 39.404 6.054 56.352l-6.529 6.62c1.48 43.454-32.176 53.828-51.502 54.905l-10.39 8.502-10.313-8.375c-34.502-2.98-52.718-21.181-51.591-54.92l-6.713-6.783C15.503 57.447 25.36 38.06 8.509 15.33l6.017-8.164z" fill-rule="evenodd" stroke="#000" stroke-width=".189"/><path d="M15.312 77.543h111.017c2.918 30.721-16.6 47.314-46.28 48.946l-18.859.047c-28.395-2.04-49.55-17.033-45.878-48.993z" fill="#004d98" fill-rule="evenodd"/><path fill="#a50044" d="M63.17 77.913h15.726v49.09H63.17z"/><g fill="#a50044"><path d="M31.871 77.913h15.726v43.872H31.871z"/><path d="M37.354 119.537h10.243v4.52H37.354z"/></g><g fill="#a50044"><path d="M94.29 77.913h15.727v43.872H94.29z"/><path d="M94.29 119.537h10.244v4.52H94.29z"/></g><path d="M70.522 17.316V60.92l-52.995.383 5.462-20.987-6.804-25.108 33.542-4.312 20.795 6.42z" fill="#fff" fill-rule="evenodd"/><path d="M71.289 17.316V60.92l52.995.383-5.463-20.987 6.804-25.108-33.54-4.312-20.796 6.42z" fill="#ffed02" fill-rule="evenodd"/><path fill="#db0030" d="M39.9 12.138h15.195V60.65H39.9z"/><path fill="#db0030" d="M70.522 30.233v15.194h-47.28V30.233zm5.523-14.656h5.62v44.757h-5.62zm10.667-3.207h5.62v48.07h-5.62zm10.738 2.71h5.62v45.46h-5.62zm10.637 1.665h5.62V60.5h-5.62z"/><path d="M49.91 6.412c-9.787 7.174-25.274 7.928-34.164 4.342l-3.561 4.584c15.276 21.494 6.5 43.118-5.613 56.361l5.578 5.903C9.886 110 28.792 128.736 62.029 130.664l9.008 7.523 8.99-7.642c19.355-.333 53.294-11.189 49.637-52.99l5.607-5.808c-14.224-15.775-19.127-37.383-5.382-56.41l-3.342-4.554c-12.162 3.997-26.075 1.782-34.448-4.27-12.557 8.997-28.505 9.926-42.19-.1zm42.302 6.158c7.55 4.688 15.894 6.022 30.277 4.76-7.202 12.463-7.98 27.308-1.603 41.64l-99.817-.058c5.369-12.808 6.6-27.545-1.816-41.865 10.375 1.506 20.509 1.145 30.615-4.353 13.708 8.047 27.81 8.194 42.344-.124zM17.526 78.028h107.04c2.813 29.62-16.006 45.615-44.621 47.188l-18.188.047c-27.378-1.968-47.772-16.42-44.231-47.235z" fill="#edbb00" fill-rule="evenodd" stroke="#deb405" stroke-width=".178"/><path d="M19.138 17.203c8.416 14.32 7.183 29.057 1.815 41.864l99.815.06c-6.378-14.334-5.597-29.18 1.606-41.64-14.384 1.26-22.725-.073-30.276-4.76-14.534 8.317-28.64 8.167-42.348.12-10.106 5.499-20.238 5.862-30.612 4.356zm-1.613 60.825h107.038c2.813 29.62-16.005 45.618-44.62 47.19l-18.184.047c-27.378-1.968-47.775-16.423-44.234-47.237zM70.94 18.7v40.445" fill="none" stroke="#000" stroke-width=".757"/><g stroke="#000"><path d="M85.701 101.109a14.553 14.553 0 1 1-29.105 0 14.553 14.553 0 1 1 29.105 0z" fill="#edbb00" stroke-width=".761"/><path d="M62.754 89.255c-1.699 6.191-2.752 12.287 2.148 15.216 3.424 2.047 5.739-2.127 6.38-3.745m-13.6 6.251c2.868-.13 4.365-.367 6.205-3.162" stroke-width=".662" fill="none"/><path d="M71.162 100.835c2.879-1.77 5.439-.913 6.628 3.517 2.802-1.126 5.503 1.036 6.206 3.222m-6.146-3.222c-2.127 5.134-7.72 7.511-15.574 8.294m8.89-11.6c-1.767-1.618-4.485-3.47-.525-8.227-1.68-2.129-2.138-4.21.058-6.184m14.936 15.344c-2.585-4.569-8.6-10.9-14.994-9.218" fill="none" stroke-width=".662"/></g><path d="M50.801 61.568v.053h-2.643v13.752h2.856v-5.707h4.076v-2.91h-4.076v-2.23h7.033v-2.958h-7.246z"/><path d="M72.43 65.876l2.564-1.339c-1.637-3.619-8.273-4.648-10.456 0-2.253 5.544.141 10.695 4.501 11.197 2.77.403 4.966-.953 5.898-3.362L72.4 70.919c-.675 1.683-3.25 2.84-5.214.028-.605-1.256-.76-3.19-.085-5.07 1.61-2.214 3.964-1.974 5.327 0z" fill-rule="evenodd" stroke="#000" stroke-width=".038"/><path d="M82.233 61.604l.053 13.876 7.553-.03c2.458-.344 5.68-4.367 1.904-7.494 1.996-1.759 1.746-5.521-2.247-6.323l-7.263-.03zm2.904 2.732h3.761c1.655.476 1.164 2.067.054 2.337h-3.815v-2.337zm.03 5.046l3.956.053c1.958.583 1.516 2.813.06 3.194l-3.987-.03-.03-3.217z" fill-rule="evenodd" stroke="#000" stroke-width=".189"/></svg>