<svg version="1.0" xmlns="http://www.w3.org/2000/svg" width="527.162" height="527.244"><path fill-rule="evenodd" clip-rule="evenodd" fill="#3E4549" d="M263.54 527.244c145.222 0 263.622-118.4 263.622-263.622C527.162 118.482 408.762 0 263.54 0 118.4 0 0 118.482 0 263.622c0 145.222 118.4 263.622 263.54 263.622z"/><path fill-rule="evenodd" clip-rule="evenodd" fill="#FFF" d="M263.54 519.231c140.804 0 255.609-114.885 255.609-255.609S404.344 8.095 263.54 8.095C122.817 8.095 8.013 122.897 8.013 263.622S122.817 519.231 263.54 519.231z"/><path fill-rule="evenodd" clip-rule="evenodd" fill="#3E4549" d="M263.54 437.3c95.669 0 173.678-78.091 173.678-173.678 0-95.588-78.009-173.596-173.678-173.596-95.587 0-173.594 78.007-173.594 173.596 0 95.587 78.007 173.678 173.594 173.678z"/><path fill-rule="evenodd" clip-rule="evenodd" fill="#E20025" d="M117.174 186.595c27.229-51.513 80.87-87.082 142.686-88.474-18.315 24.614-41.048 46.69-67.131 62.719-15.7 9.565-32.544 17.007-50.372 21.504-8.338 2.125-16.679 3.435-25.183 4.251zm122.489 240.89C159.776 415.793 98.04 346.699 98.04 263.622c0-22.731 4.661-44.483 13-64.27.246 3.926.492 7.85.901 11.692 4.088 40.721 18.97 82.422 41.619 120.444 22.161 36.961 51.761 70.404 86.103 95.997zm176.458-228.133a165.235 165.235 0 0 1 12.999 64.27c0 83.077-61.734 152.171-141.621 163.863 34.342-25.594 63.943-59.036 86.101-95.997 22.978-38.511 37.942-80.868 41.783-122.079.328-3.352.574-6.705.738-10.057zM267.22 98.121c61.898 1.392 115.538 36.961 142.767 88.474-7.031-.653-14.063-1.715-21.097-3.27-19.298-4.334-37.611-12.185-54.454-22.485-26.086-16.028-48.818-38.105-67.216-62.719z"/><path fill-rule="evenodd" clip-rule="evenodd" fill="#163962" d="M139.17 187.087h248.823c-19.708-4.415-38.353-12.429-55.521-22.978-26.821-16.436-50.209-39.167-68.933-64.516-18.643 25.349-41.947 48.081-68.849 64.516-17.17 10.549-35.813 18.563-55.52 22.978zm39.494 92.807H132.71a322.552 322.552 0 0 0 24.204 49.553c23.058 38.593 54.294 73.266 90.681 98.938 2.372.246 4.66.41 7.033.574 1.307-7.934.653-44.566.409-46.283-1.636-1.881-3.271-3.023-5.152-3.762-2.045-.735-4.497-1.061-7.523-1.143-2.861 0-5.232.246-7.522.735-2.29.407-4.661 1.146-7.522 2.127-2.618.817-4.743 1.635-7.033 1.635-2.454 0-4.742-.899-7.359-3.434-.491-.41-.899-.817-1.39-1.31-1.963-1.963-3.926-3.926-6.132-3.926-2.7.082-5.152-.243-7.359-.899a15.43 15.43 0 0 1-5.969-3.352c-3.844-3.68-3.844-8.83-3.762-13.002 0-1.796 0-3.272-.327-3.926-.492-1.063-2.208-2.37-4.334-3.598-2.29-1.389-4.906-2.698-6.951-3.598-3.68-1.635-5.968-4.415-7.358-7.685-1.228-3.108-1.636-6.788-1.554-10.304.082-1.553.082-3.026-.164-4.333-.163-1.063-.409-1.963-.898-2.455l-.082-.079c-1.146-1.31-2.372-2.701-3.272-4.418-.98-1.796-1.633-3.923-1.633-6.457 0-2.209.653-4.09 1.715-5.479 1.31-1.717 3.19-2.701 4.907-2.701 4.088-.161 8.095 3.762 10.63 6.381.245.161.409.407.652.571 1.146 1.228 2.537 2.534 3.926 3.598 1.39.981 2.782 1.799 4.17 2.127 2.78.653 4.989.571 6.869.489h.328c3.352-.082 5.804.328 7.849 1.635 2.045 1.228 3.516 3.19 4.988 6.296 1.635 3.272 2.944 3.272 5.316 3.272.817-.082 1.635-.082 2.616 0 5.314.246 6.623 2.698 8.75 6.703.327.656.653 1.31 1.062 1.881.819 1.474 1.554 2.616 2.372 3.598.737.82 1.39 1.392 1.963 1.799.899.492 1.717.656 2.698.899 1.636.328 3.516.738 6.46 2.619 1.799 1.146 3.025 2.78 3.924 4.658.819 1.799 1.31 3.765 1.717 5.725.901 3.926 1.554 7.441 2.944 10.058 1.308 2.537 3.353 4.497 7.113 5.889 0-.41.082-.82.082-1.392.653-12.264.899-20.033.246-25.184-.491-4.661-1.799-7.031-4.252-8.669-7.522-5.232-15.372-10.465-22.569-15.208-7.113-4.497-13.654-8.505-18.807-11.039-.898-.164-1.879-.325-2.861-.407-1.144-.082-2.125-.082-3.107-.164h-.981c-4.824-.082-9.322-.246-14.31-3.68-2.943-2.045-5.068-4.418-6.214-7.031-1.063-2.537-1.146-5.314.164-7.934.245-.489.491-.817.653-1.143.491-.981.735-1.392-.082-2.209-1.308-1.228-2.698-2.862-3.598-4.661a2.92 2.92 0 0 1-.41-.895zm66.233 0h-43.175c1.063 1.392 2.618 1.717 4.254 2.127 1.633.325 3.352.735 5.15 1.799 1.39.817 2.698 1.96 3.762 3.434 1.063 1.471 1.881 3.352 2.37 5.561.164.817.246 1.307.328 1.799.327 1.799.571 3.026 2.78 4.74 8.177 6.053 16.107 11.203 23.303 15.946 5.152 3.27 9.895 6.378 14.065 9.404l-.082-.082c.082 0 .164.082.245.082.082-.899 0-2.045-.163-3.27a60.975 60.975 0 0 0-.899-4.418c-6.133-7.359-9.977-12.428-12.265-16.761-2.454-4.743-3.108-8.587-2.698-13.409.163-1.963.735-3.844 1.961-5.561.247-.492.655-.984 1.064-1.391zm86.512 0H281.2c-.732.899-1.471 1.799-2.206 2.534 1.635 1.881 2.78 3.68 3.598 5.479 1.146 2.373 1.553 4.579 1.553 6.788-.082 4.579-2.124 8.584-4.986 12.185-2.534 3.352-5.725 6.214-8.748 8.748a22.686 22.686 0 0 0-.41 4.251c0 1.638.164 3.19.41 4.333.079 0 .161.082.243.164h.246c.082 0 .082 0 .164-.082h.082c.979-.571 3.023-1.717 5.068-2.859 10.058-5.646 22.078-12.349 33.771-20.854 1.063-.817 1.717-1.635 2.209-2.616.407-1.061.571-2.288.571-3.762.082-2.288.735-4.333 1.717-5.968a13.596 13.596 0 0 1 4.579-4.579c2.127-1.228 4.497-1.228 6.788-1.146 1.963 0 3.841.082 4.661-1.146.325-.407.571-.981.899-1.47zm-59.938 149.147c2.698-.164 5.396-.328 8.095-.656 36.387-25.673 67.623-60.346 90.683-98.938a322.404 322.404 0 0 0 24.202-49.553h-40.802a17.312 17.312 0 0 1-1.389 2.452c-.899 1.392-1.881 2.537-2.862 3.683-1.635 1.96-1.717 4.658-1.717 7.274 0 5.071 0 10.058-8.095 13.248-2.862 1.063-4.989 1.635-7.034 1.963-2.042.41-3.926.41-6.46.489-1.799.082-3.516.164-5.068.41-1.556.243-2.944.653-4.336 1.553a527.987 527.987 0 0 1-10.301 5.968c-10.547 6.053-23.224 13.412-29.109 18.563-2.288 1.963-3.762 4.251-4.661 8.751-.899 4.822-1.063 12.185-.735 24.202.082 1.471.082 1.963.082 1.963.161.079 1.063-.41 2.124-.899 1.966-.981 4.254-2.619 6.053-4.254 1.635-1.471 2.777-2.777 2.941-3.434.082-.41.246-1.307.41-2.288 1.063-5.15 2.616-12.92 6.788-15.618 2.045-1.389 4.251-1.717 6.539-2.045 1.474-.164 2.944-.407 4.172-.899.571-.164 1.146-1.635 1.799-3.352 1.553-4.09 3.434-9.076 10.14-9.322.817-.082 1.635-.082 2.452-.082 3.108 0 5.643 0 7.359-3.434 1.553-3.108 2.859-4.989 4.743-6.217 1.881-1.307 4.169-1.635 7.523-1.553h.896c2.455.082 7.28.246 9.814-.325 1.881-.41 2.452-1.063 3.352-2.127.492-.571.984-1.146 1.717-1.881.328-.325.656-.653.981-.981 2.124-2.206 3.926-4.087 7.77-4.005 1.307.079 2.859.243 4.251.981 1.635.896 2.78 2.452 2.78 5.232 0 1.553-.656 3.516-1.553 5.396-.902 1.963-2.291 4.008-3.516 5.396l-.082.082c-.492.489-.981 1.799-1.392 3.434-.489 2.045-.817 4.333-.735 5.889.082 3.516-.082 6.703-1.063 9.483-1.063 3.026-3.105 5.399-6.867 7.031-1.392.656-2.944 1.146-4.333 1.638-2.944.981-5.807 1.963-6.87 3.516-.41.571-.571 2.534-.817 4.743-.41 4.251-.817 9.319-4.172 11.61-1.717 1.228-3.759 1.799-6.05 2.124-2.209.328-4.579.328-7.195.328-1.146 0-2.291.571-3.516 1.31-1.72 1.143-3.352 2.944-4.579 4.415-4.907 5.968-8.912 4.169-13.901 1.963-1.146-.489-2.288-.981-3.516-1.474-1.881-.571-3.844-1.225-5.968-1.635-1.963-.407-4.008-.735-5.889-.653-3.108 0-5.807.246-8.095.981-2.045.653-3.762 1.799-5.396 3.516-.492 3.105-.41 29.027-.328 34.424.082 3.844.246 7.688.736 11.614z"/><path fill-rule="evenodd" clip-rule="evenodd" fill="#FFED00" d="M412.523 191.011H114.64c.327 28.047 6.214 56.829 16.598 85.039h46.444v-.325c0-.82 0-1.635.164-2.373.409-2.291 1.472-4.008 2.943-5.15 1.472-1.146 3.271-1.635 5.234-1.635.817-.085 1.635 0 2.454.164 1.799.325 3.598.817 5.314 1.799a12.583 12.583 0 0 1 4.497 4.33c.737 1.23 1.226 2.209 1.635 3.19h45.382c-1.472-2.042-2.78-4.333-3.76-6.785-1.474-3.601-2.291-7.441-1.963-11.448.163-2.209.899-4.252 2.208-6.133.981-1.472 2.37-2.943 4.088-4.334l-.246-1.226c-1.717-7.195-3.924-16.598 9.404-25.348.245-4.907.898-8.667 2.452-11.612 1.718-3.352 4.251-5.641 8.259-7.113h1.308c4.008 1.472 6.867 4.006 8.587 7.686 1.635 3.271 2.206 7.44 1.878 12.429 11.449 11.039 7.359 19.707 5.071 24.366 1.471 1.554 2.78 3.353 3.762 5.314 1.471 2.864 2.291 5.889 2.452 8.178.246 3.924-.981 8.259-2.862 12.185-.571 1.307-1.307 2.616-2.042 3.841h49.714c.328-.489.656-1.063.981-1.635 1.228-1.963 2.452-3.354 4.008-4.333 1.553-.981 3.27-1.471 5.15-1.635 1.389-.082 2.862.082 4.169.407 1.638.41 3.19 1.146 4.418 2.206 1.225 1.228 2.124 2.701 2.206 4.582v.407h41.376c10.384-28.209 16.272-56.99 16.6-85.038z"/><path fill-rule="evenodd" clip-rule="evenodd" fill="#39A642" d="M267.384 429.123c-1.31.079-2.536.079-3.844.079-1.553 0-3.108 0-4.579-.079.164-1.881.246-5.643.327-7.523.164-4.579.164-9.814.164-14.476 0-.814.082-1.553.082-2.288 0-4.251 0-9.158-.082-13.491s-.327-8.095-.737-9.976l-.409-.82c-2.125-2.613-4.415-4.251-7.031-5.232-2.536-.979-5.396-1.307-8.914-1.389-3.025-.082-5.641.243-8.257.735-2.616.571-5.07 1.31-8.014 2.291-2.29.735-4.17 1.471-5.805 1.389-1.472 0-2.944-.571-4.742-2.288l-1.228-1.228c-2.534-2.537-5.15-5.068-8.994-5.068-2.29 0-4.334-.164-6.133-.738-1.717-.489-3.189-1.307-4.497-2.534-2.616-2.452-2.536-6.703-2.536-10.055 0-2.291 0-4.254-.653-5.725-.899-1.802-3.189-3.601-5.807-5.232-2.452-1.477-5.232-2.783-7.44-3.765-2.616-1.146-4.334-3.188-5.316-5.643-1.062-2.534-1.307-5.64-1.226-8.748 0-1.635 0-3.434-.245-4.989-.246-1.881-.817-3.434-2.043-4.661l.081.085c-.981-1.146-2.043-2.291-2.779-3.68a9.703 9.703 0 0 1-1.146-4.579c0-1.31.409-2.37.98-3.108.573-.735 1.31-1.228 1.963-1.228 2.372-.082 5.643 3.108 7.77 5.232.245.249.407.41.571.656 1.308 1.31 2.779 2.698 4.417 3.923 1.715 1.31 3.678 2.373 5.641 2.783 3.271.735 5.725.653 7.768.653h.327c2.618-.082 4.415.161 5.723.981 1.31.817 2.372 2.288 3.599 4.74 2.698 5.481 4.825 5.481 8.83 5.399h2.373c3.107.161 4.005 1.878 5.477 4.74.327.574.655 1.146 1.146 1.963.899 1.635 1.879 3.026 2.78 4.09.98 1.228 1.961 2.124 2.943 2.698 1.472.817 2.616 1.063 3.844 1.31 1.308.325 2.861.653 5.232 2.124 1.063.735 1.882 1.799 2.454 3.026.653 1.471 1.146 3.188 1.472 4.822.899 4.336 1.553 7.934 3.27 11.124 1.718 3.349 4.417 5.968 9.24 7.685 2.372.899 3.599.489 4.497-.981.655-.981.655-2.127.735-3.844.655-12.428.981-20.358.328-25.84-.735-5.968-2.534-9.076-5.969-11.364-7.604-5.232-15.454-10.55-22.731-15.208-7.277-4.743-14.065-8.833-19.378-11.449l-.491-.164c-1.308-.243-2.454-.407-3.517-.489-1.062-.082-2.208-.164-3.271-.164h-1.062c-4.17-.164-8.178-.246-12.185-3.026-2.29-1.635-4.005-3.434-4.824-5.314-.653-1.553-.735-3.188.082-4.743.164-.325.327-.735.491-1.061 1.553-2.78 2.29-4.008-.817-6.87-1.063-.899-2.045-2.209-2.78-3.598-.573-1.063-.981-2.209-.981-3.352 0-.574.081-1.146.164-1.635.163-1.31.735-2.209 1.472-2.701.735-.571 1.797-.896 2.943-.896.571 0 1.144.079 1.717.164 1.39.243 2.78.65 4.088 1.307 1.144.653 2.29 1.635 3.107 3.023.899 1.474 1.308 2.619 1.718 3.68.489 1.063.817 2.045 1.553 3.108 1.881 2.944 4.252 3.516 6.869 4.087 1.308.328 2.698.574 4.008 1.392.98.574 1.879 1.31 2.534 2.373.817 1.061 1.39 2.37 1.797 4.169.083.489.164 1.063.328 1.553.409 2.698.737 4.579 4.252 7.195 8.095 6.053 16.189 11.285 23.549 16.028 5.07 3.352 9.813 6.375 13.901 9.319.653.41 1.226.738 1.799.902.653.164 1.307.164 1.961 0s1.226-.574 1.636-1.228c.245-.328.327-.653.491-.981.407-1.553.325-3.516 0-5.561-.246-1.963-.491-4.333-1.39-6.132-6.051-7.277-9.894-12.185-12.021-16.354-2.045-3.926-2.616-7.195-2.288-11.285.163-1.31.489-2.616 1.307-3.762 1.472-2.124 3.762-3.27 5.969-4.579-3.271-3.352-6.051-6.621-7.85-11.039-1.226-3.025-1.961-6.376-1.717-9.647.164-1.553.655-2.944 1.554-4.252 1.389-2.045 3.271-3.516 5.232-4.988-.817-3.762-2.043-7.441-1.881-11.284.164-6.951 4.989-11.202 10.548-14.719.082-3.924.246-8.423 1.963-12.019 1.146-2.291 2.944-3.844 5.559-4.989 2.618 1.228 4.581 3.026 5.806 5.48 1.799 3.842 1.638 8.175 1.31 12.347 3.844 3.514 7.523 7.768 7.685 13.327.082 3.924-1.881 7.113-3.352 10.63 2.209 1.717 3.762 3.352 5.068 5.887 1.146 2.372 1.884 4.906 2.048 6.787.164 3.189-.902 6.787-2.537 10.223-2.206 4.658-5.068 8.256-8.994 11.607 2.209 2.209 4.333 4.418 5.643 7.362a11.689 11.689 0 0 1 1.146 5.068c-.082 3.598-1.717 6.949-4.09 9.894-2.452 3.19-5.722 6.05-8.748 8.587-1.228 1.96-1.228 4.497-1.228 6.785 0 1.963.164 3.926.572 5.396.082.328.245.735.491.981a3.703 3.703 0 0 0 1.881 1.638c.899.325 1.881.489 2.862.243a3.055 3.055 0 0 0 1.063-.489c2.288-1.31 3.68-2.045 5.068-2.862 10.14-5.643 22.403-12.513 34.178-21.097 1.72-1.228 2.783-2.616 3.437-4.251.653-1.556.899-3.272.979-5.153 0-1.553.492-2.941 1.146-4.087.902-1.474 2.045-2.534 3.108-3.19 1.228-.735 3.108-.653 4.825-.653 3.108.082 6.05.164 8.013-2.862a46.55 46.55 0 0 0 1.963-3.352c.571-1.063 1.307-2.291 2.127-3.68.896-1.474 1.799-2.452 2.777-3.108.984-.653 2.045-.899 3.354-.981a9.278 9.278 0 0 1 3.026.246c1.061.243 1.96.735 2.698 1.31.571.489.899 1.143.899 1.96.079.328 0 .738-.082 1.146-.246 1.146-.817 2.209-1.556 3.19-.653 1.063-1.635 2.206-2.534 3.27-2.616 3.108-2.616 6.46-2.616 9.812 0 3.762 0 7.441-5.643 9.568-2.616 1.063-4.497 1.553-6.296 1.881-1.717.243-3.516.325-5.886.407-1.963.082-3.762.082-5.646.41-1.96.328-3.841.899-5.722 2.045-2.698 1.635-6.296 3.68-10.14 5.968-10.711 6.135-23.631 13.573-29.845 18.97-2.862 2.619-4.825 5.396-5.807 10.957-.981 5.153-1.228 12.756-.817 25.104.082 3.516 1.146 5.068 2.944 5.558 1.553.41 3.023-.325 4.822-1.225 2.291-1.146 4.907-2.944 6.952-4.825 2.124-1.881 3.759-3.923 4.087-5.396.164-.979.328-1.635.492-2.452.899-4.497 2.206-11.282 5.068-13.166 1.31-.817 3.108-1.061 4.989-1.389 1.635-.243 3.27-.492 4.986-1.146 2.127-.735 3.026-3.023 4.008-5.561 1.146-3.023 2.534-6.703 6.706-6.867.817-.082 1.635-.082 2.288-.082 4.497 0 8.095 0 10.875-5.561 1.228-2.452 2.127-3.926 3.272-4.743h.082c1.146-.735 2.698-.899 5.314-.899.243 0 .489.082.899.082 2.616.082 7.685.243 10.793-.492 3.108-.653 4.008-1.717 5.479-3.434.328-.489.817-.979 1.389-1.553.407-.41.738-.735 1.063-1.063 1.474-1.553 2.701-2.862 4.907-2.78.817 0 1.799.082 2.452.41.41.243.738.817.738 1.881 0 .981-.41 2.288-1.146 3.759-.738 1.638-1.802 3.272-2.862 4.418l.079-.082c-1.061 1.063-1.878 3.026-2.452 5.232-.571 2.373-.899 5.071-.899 6.949.082 3.108 0 5.889-.735 8.095-.738 2.048-2.206 3.683-4.825 4.825-1.146.571-2.616 1.063-4.005 1.474-3.519 1.225-6.952 2.37-8.751 4.986-1.061 1.471-1.307 3.844-1.553 6.624-.328 3.434-.653 7.441-2.537 8.748-1.143.82-2.695 1.228-4.412 1.474-1.881.325-4.09.325-6.624.325-1.963 0-3.844.738-5.643 1.963-2.124 1.389-4.087 3.437-5.479 5.153-3.026 3.68-5.807 2.452-9.322.899-1.228-.574-2.452-1.146-3.841-1.556-1.963-.735-4.172-1.307-6.378-1.799-2.291-.489-4.582-.817-6.788-.817-3.434.082-6.46.328-9.158 1.228-2.862.981-5.314 2.534-7.523 5.068l-.407.817c-.737 3.19-.655 11.856-.573 19.626v4.005c0 3.844 0 8.18.082 12.185 0 1.31.081 2.619.081 3.844.088 1.965.252 5.809.416 7.772z"/><path fill-rule="evenodd" clip-rule="evenodd" fill="#3E4549" d="M267.791 231.732c-1.553 2.208-2.697 4.497-3.598 6.951-.245.816-.571 1.717-.737 2.534 0 .164-.081.327-.161.571a27.766 27.766 0 0 0-.492 3.762c-.327 5.887 1.146 10.875 2.618 15.782 1.144 3.597 2.206 7.279 2.698 11.366 0 .246 0 .489.079.735 1.228-.653 2.537-1.717 3.847-3.352.571-.817 1.228-1.471 2.124-.817.902.653.492 1.553-.164 2.37-1.799 2.373-3.759 3.844-5.643 4.497a52.892 52.892 0 0 1-.489 8.833c-.489 2.941-1.391 5.64-2.698 7.685-.653.899-1.635 1.635-2.452.981-.983-.735-.246-1.635.327-2.534 1.062-1.635 1.799-4.008 2.29-6.542.409-2.616.489-5.314.489-7.852-1.226.082-2.452-.161-3.516-.571-1.389-.571-2.534-1.471-3.352-2.616-1.226-1.471-1.881-3.434-1.717-5.396.082-.899.409-1.717 1.471-1.474 1.146.164 1.063.902.981 1.884 0 1.225.41 2.452 1.146 3.431.655.738 1.471 1.392 2.454 1.802.735.246 1.471.407 2.371.328-.081-.328-.081-.738-.163-1.066-.409-3.923-1.472-7.438-2.536-10.956-1.553-5.152-3.107-10.302-2.779-16.598.081-1.228.243-2.291.407-3.435a9.983 9.983 0 0 1-1.553-1.635c-.573-.817-.981-1.553-1.308-3.026-.164-.653-.246-1.553.898-1.799 1.063-.245 1.392.573 1.556 1.226.243 1.063.489 1.554.898 2.046.082.163.164.245.246.327.164-.41.325-.899.489-1.392.901-2.616 2.209-4.986 3.844-7.44.326-.573 1.063-1.063 1.882-.491.735.491.65 1.309.243 1.881zm74.49 101.473c-9.237 11.124-17.496 15.293-24.773 19.055-5.889 3.023-11.121 5.722-15.864 11.692-.489.653-1.635.817-2.288.246-.656-.574-.738-1.635-.246-2.209 5.15-6.542 10.711-9.404 16.925-12.592 7.034-3.601 14.883-7.688 23.798-18.316.489-.571 1.553-.735 2.288-.164.652.571.734 1.635.16 2.288zm-154.05-5.232c8.914 11.039 16.764 15.129 23.795 18.809 6.132 3.27 11.612 6.132 16.68 12.674.491.653.655 1.635-.245 2.291-.817.489-1.799.325-2.29-.331-4.579-5.968-9.813-8.748-15.618-11.774-7.277-3.844-15.536-8.092-24.858-19.623-.489-.653-.407-1.717.246-2.288.655-.576 1.799-.412 2.29.242zm272.207 76.617l5.397 3.762-3.434 4.907-5.396-3.762 3.433-4.907zm6.871-9.812l5.396 3.762-3.436 4.907-5.397-3.761 3.437-4.908zm-14.637 15.865l-3.598 5.068-22.324-15.618c-3.844-2.698-6.624-5.314-8.259-7.767-1.717-2.455-2.452-5.396-2.288-8.669.161-3.27 1.553-6.785 4.169-10.547 2.534-3.598 5.232-6.132 8.095-7.523 2.862-1.471 5.807-1.799 8.83-1.146 3.108.653 6.624 2.452 10.714 5.317l22.321 15.615-3.516 5.071-22.324-15.618c-3.352-2.288-6.047-3.762-8.092-4.254-1.966-.489-4.008-.243-5.889.656-1.963.899-3.68 2.452-5.235 4.661-2.613 3.762-3.595 7.031-3.023 9.894.574 2.78 3.27 5.804 8.095 9.24l22.324 15.62zm49.96-105.484l6.542 1.064-.982 5.97-6.46-1.063.9-5.971zm1.881-11.856l6.542 1.063-.982 5.971-6.463-1.064.903-5.97zm-6.214 20.689l-.981 6.214-26.903-4.254c-4.661-.735-8.259-1.878-10.875-3.352-2.616-1.553-4.497-3.759-5.807-6.785-1.307-3.108-1.553-6.87-.896-11.285.735-4.415 2.042-7.849 4.005-10.386 1.881-2.534 4.418-4.169 7.441-4.904 3.026-.738 7.031-.738 11.938.082l26.9 4.251-.979 6.132-26.824-4.251c-4.087-.653-7.113-.735-9.155-.246-2.045.41-3.68 1.474-5.071 3.108-1.307 1.717-2.206 3.841-2.616 6.539-.735 4.497-.164 7.934 1.556 10.14 1.799 2.291 5.558 3.847 11.364 4.743l26.903 4.254zm-43.011-71.631l47.098-1.634.246 6.133-41.54 1.471.738 23.222-5.56.164-.982-29.356zm43.746-24.693l1.471 6.051-26.411 6.541c-4.579 1.144-8.423 1.554-11.367 1.228-2.941-.41-5.64-1.718-8.013-4.008-2.37-2.29-4.087-5.641-5.15-10.058-1.146-4.251-1.228-8.013-.407-11.039.732-3.105 2.37-5.643 4.904-7.44 2.534-1.881 6.214-3.435 11.036-4.661l26.414-6.542 1.556 6.051-26.414 6.542c-4.005.981-6.785 2.125-8.502 3.27-1.717 1.228-2.862 2.862-3.437 4.907-.571 2.043-.489 4.415.164 7.031 1.063 4.415 2.862 7.359 5.396 8.75 2.452 1.39 6.542 1.39 12.349-.082l26.411-6.541zm-71.713-56.176l41.622-22.159 2.942 5.479-20.605 11.039 31.644 9.649 3.926 7.439-26.165-8.421-15.044 31.399-3.844-7.277 13.163-26.085-10.222-3.269-14.472 7.686-2.945-5.48zM264.602 55.356l5.969-.081c.082 2.37.574 4.333 1.474 5.887.981 1.635 2.452 2.944 4.497 4.006 2.042 1.063 4.415 1.717 7.113 1.881 2.37.164 4.497 0 6.378-.573s3.27-1.472 4.251-2.616c.981-1.228 1.556-2.536 1.638-4.006.082-1.472-.246-2.78-1.066-3.926-.732-1.146-2.124-2.208-4.005-3.025-1.228-.655-3.926-1.554-8.177-2.944-4.251-1.308-7.277-2.534-8.912-3.516-2.127-1.39-3.762-2.944-4.743-4.743s-1.392-3.842-1.228-5.968a11.621 11.621 0 0 1 2.537-6.542c1.471-1.963 3.516-3.352 6.214-4.252 2.616-.899 5.561-1.226 8.748-1.062 3.437.245 6.46 1.062 9.076 2.37s4.497 3.107 5.807 5.396c1.307 2.29 1.881 4.825 1.799 7.523l-5.968.082c-.164-3.026-1.066-5.316-2.865-6.951-1.717-1.717-4.412-2.616-8.01-2.862-3.765-.245-6.545.246-8.341 1.472-1.799 1.226-2.783 2.862-2.944 4.825-.164 1.717.407 3.107 1.553 4.251 1.063 1.228 4.169 2.536 9.158 4.008 4.904 1.553 8.341 2.779 10.14 3.76 2.698 1.472 4.579 3.189 5.722 5.232 1.228 2.045 1.72 4.334 1.556 6.788-.246 2.534-1.063 4.824-2.698 6.949-1.553 2.127-3.762 3.681-6.542 4.743-2.78 1.063-5.807 1.472-9.158 1.228-4.254-.328-7.77-1.146-10.547-2.618-2.78-1.471-4.907-3.516-6.38-6.05-1.473-2.614-2.127-5.557-2.046-8.666zm-57.073 23.631l-10.631-45.953 33.198-7.686 1.228 5.396-27.066 6.296 3.189 14.065 25.429-5.887 1.228 5.397-25.349 5.887 3.598 15.617 28.211-6.459 1.226 5.397-34.261 7.93zm-12.675 1.228c2.045-3.842 2.618-8.339 1.718-13.573l-6.378 1.062c.817 4.008.573 7.359-.819 10.222-1.389 2.861-3.68 4.988-6.867 6.378-2.618 1.144-5.398 1.554-8.259 1.226-2.862-.327-5.396-1.635-7.688-3.924-2.288-2.208-4.251-5.232-5.886-8.832-1.228-2.861-2.045-5.805-2.29-8.912-.328-3.026.245-5.887 1.799-8.505 1.554-2.534 3.924-4.578 7.277-6.05 2.861-1.31 5.559-1.635 8.095-1.063 2.534.653 4.988 2.208 7.359 4.906l5.07-3.762c-2.944-3.516-6.379-5.641-10.304-6.541s-8.013-.409-12.347 1.553c-3.76 1.717-6.869 4.09-9.239 7.197-2.372 3.188-3.68 6.787-3.926 10.875-.245 4.17.655 8.421 2.616 12.92 1.882 4.088 4.334 7.604 7.441 10.548 3.107 2.861 6.542 4.66 10.304 5.232 2.761.42 5.745.129 8.981-.861l.504 5.687c1.389-.574 2.452-.981 3.189-1.065.655-.081 1.226 0 1.553.166.328.163.573.489.735.817 1.146 2.37-2.37 4.579-3.76 5.15-.571.246-1.472.655-2.78 1.146l-.082 3.107c1.39-.328 4.088-1.228 5.643-1.963 2.861-1.226 4.743-2.78 5.641-4.497.899-1.717 1.063-3.353.41-4.824-.491-1.063-1.308-1.8-2.536-2.208-1.226-.492-2.698-.409-5.07.327l-.237-3.025c.135-.059.267-.105.401-.164 4.499-1.964 7.769-4.906 9.732-8.75zm-64.76 43.418l-29.029-37.122 4.908-3.844 11.938 15.291 19.298-15.127-11.94-15.29 4.988-3.844 29.029 37.204-4.99 3.844-13.655-17.499-19.296 15.046L135 119.791l-4.906 3.842zm10.22 303.934l14.965-11.2-5.969 17.906 14.473 10.875h-18.072l-5.397 16.518-5.396-16.518H116.93l14.39-10.875-5.887-17.906 14.881 11.2zm159.531 31.483l-1.31-4.989 27.557-6.867 1.063 4.087c-1.963 3.516-3.762 8.013-5.232 13.491a70.1 70.1 0 0 0-2.455 16.274c-.161 3.841.164 7.931.899 12.182l-5.394 1.392c-.738-3.352-1.063-7.605-1.063-12.677.082-5.068.817-10.055 2.042-15.044 1.228-4.986 2.783-9.322 4.743-13.002l-20.85 5.153zm-97.632 33.032l-5.15-1.553 9.239-32.133-9.321-2.783 1.308-4.333c5.643 1.474 8.667 1.635 12.265-2.698l3.844 1.063-12.185 42.437zm184.714-64.515l-15.044-11.2 5.971 17.906-14.473 10.875h18.07l5.476 16.518 5.399-16.518h17.988l-14.39-10.875 5.806-17.906-14.803 11.2zm-270.734-38.431l-38.676 27.067-18.235-26.086 4.579-3.187 14.637 21.014 12.019-8.423-12.756-18.07 4.579-3.272 12.674 18.152 17.58-12.264 3.599 5.069zM70.402 276.378l-47.18-1.638 1.226-33.931 5.561.162-.982 27.722 14.392.572.98-26.004 5.48.082-.9 26.083 16.026.574 1.064-28.865 5.56.163-1.227 35.08zm7.523 44.399l-46.526 7.36-1.064-6.296 32.709-30.255-36.551 5.807-.899-5.889 46.526-7.441.98 6.377-32.707 30.255 36.633-5.803.899 5.885zm16.763 37.779l-43.092 19.133-13.819-31.154 5.07-2.206 11.283 25.43 13.247-5.889-10.629-23.795 5.068-2.288 10.632 23.874 14.635-6.539-11.774-26.493 5.07-2.209 14.309 32.136zm170.406 120.773c-.409-5.232-.246-9.404.572-12.677.734-3.188 2.125-5.807 4.088-7.685 1.963-1.881 4.497-3.026 7.688-3.272 2.37-.161 4.415.082 6.296.899 1.881.735 3.434 2.045 4.743 3.68 1.307 1.717 2.37 3.765 3.27 6.296.899 2.452 1.553 5.889 1.881 10.222.492 5.15.328 9.322-.492 12.595-.735 3.188-2.124 5.804-4.087 7.685s-4.497 3.026-7.688 3.27c-4.251.41-7.685-.817-10.383-3.677-3.191-3.355-5.154-9.159-5.888-17.336zm5.559-.492c.656 7.195 1.881 11.856 3.762 14.065 1.881 2.288 4.09 3.27 6.542 3.023 2.452-.161 4.415-1.553 5.886-4.087s1.884-7.359 1.31-14.555c-.653-7.195-1.881-11.938-3.762-14.147-1.963-2.206-4.087-3.188-6.624-2.941-2.452.164-4.333 1.389-5.643 3.598-1.635 2.859-2.124 7.849-1.471 15.044zm-45.216 8.095l5.15.164c.164 2.452.737 4.251 1.881 5.561 1.063 1.225 2.618 1.963 4.497 2.206 1.636.164 3.107 0 4.497-.653a8.679 8.679 0 0 0 3.353-2.616c.981-1.146 1.881-2.78 2.698-4.825.737-2.124 1.308-4.251 1.554-6.46 0-.243.082-.571.082-1.063-1.228 1.556-2.862 2.783-4.825 3.601-2.043.817-4.088 1.143-6.215.817-3.678-.41-6.541-2.127-8.748-4.989-2.125-2.944-2.944-6.542-2.454-10.793.573-4.497 2.29-7.849 5.234-10.222 2.944-2.37 6.378-3.352 10.302-2.862 2.862.328 5.316 1.474 7.523 3.272 2.125 1.799 3.598 4.172 4.497 7.195.899 2.944.98 7.113.327 12.428-.653 5.561-1.799 9.976-3.434 13.084-1.636 3.188-3.762 5.479-6.296 6.867-2.618 1.471-5.561 1.963-8.751 1.553-3.434-.407-6.05-1.717-8.011-3.841-1.881-2.128-2.861-4.991-2.861-8.424zm24.203-16.6c.407-3.023-.082-5.561-1.554-7.605-1.39-1.96-3.271-3.105-5.561-3.434-2.372-.243-4.579.492-6.542 2.209-2.043 1.717-3.189 4.09-3.596 7.195-.328 2.78.245 5.15 1.717 7.031 1.471 1.963 3.434 3.108 5.887 3.434 2.452.246 4.579-.325 6.376-1.878 1.801-1.555 2.945-3.844 3.273-6.952zM100.494 159.286l-25.267-43.748 4.252-5.232 48.814 14.637-4.497 5.561-14.553-4.743-12.429 15.374 7.849 13-4.169 5.151zm-6.46-22.814l10.058-12.429s-20.524-6.869-22.978-7.932c1.963 2.371 12.92 20.361 12.92 20.361zm-9.975 55.357L42.438 169.67l8.257-15.618c1.718-3.189 3.517-5.479 5.316-6.951 1.881-1.471 4.006-2.29 6.296-2.452 2.372-.164 4.499.245 6.379 1.226 1.799.981 3.188 2.372 4.251 4.17s1.553 3.926 1.472 6.378c2.125-2.127 4.415-3.353 6.869-3.762 2.534-.409 4.988 0 7.44 1.31 1.881.98 3.516 2.37 4.743 4.087 1.226 1.718 1.961 3.434 2.29 5.152.245 1.718.082 3.598-.409 5.641-.491 2.046-1.472 4.417-2.862 7.115l-8.421 15.863zm-2.045-8.177l5.561-10.302c.899-1.799 1.554-3.108 1.799-3.844.409-1.39.655-2.698.573-3.842-.082-1.146-.491-2.209-1.228-3.353-.735-1.063-1.717-1.963-3.107-2.616-1.471-.817-3.107-1.146-4.661-.981-1.553.164-2.943.817-4.17 2.043-1.226 1.146-2.534 3.026-3.924 5.725l-5.068 9.567 14.225 7.603zm-19.216-10.22l4.825-8.996c1.308-2.37 2.043-4.252 2.288-5.479.328-1.635.246-3.025-.407-4.251-.573-1.226-1.554-2.208-3.026-3.025-1.389-.737-2.78-1.063-4.17-.981-1.389.163-2.616.735-3.68 1.717-1.062 1.063-2.37 3.025-3.924 6.051l-4.415 8.339 12.509 6.625zm9.567 61.734l-45.954-10.629 4.742-20.361c.899-4.088 2.045-7.113 3.353-9.076 1.308-1.881 3.189-3.271 5.561-4.088 2.372-.819 4.825-.899 7.359-.328 3.27.819 5.805 2.454 7.522 5.071 1.718 2.616 2.454 6.214 2.045 10.793 1.144-1.472 2.125-2.454 3.107-3.107 2.045-1.472 4.497-2.616 7.277-3.68l14.31-5.07-1.717 7.605-10.958 3.924c-3.188 1.063-5.641 2.043-7.358 2.862-1.717.817-3.026 1.635-3.762 2.37-.817.819-1.472 1.636-1.881 2.534-.328.655-.655 1.718-.981 3.353l-1.635 7.033 20.36 4.743-1.39 6.051zm-24.286-12.019l3.026-13.084c.653-2.779.899-4.988.653-6.705-.245-1.717-.817-3.107-1.963-4.17-1.062-1.146-2.288-1.881-3.841-2.208-2.127-.491-4.09-.164-5.889 1.146-1.717 1.226-3.025 3.598-3.844 6.949l-3.352 14.555 15.21 3.517zM386.52 114.149l33.935-32.708 14.473 15.045c2.944 3.026 4.907 5.561 5.807 7.768.899 2.127.979 4.415.407 6.869-.653 2.452-1.881 4.499-3.762 6.378-2.452 2.29-5.15 3.435-8.341 3.517-3.188 0-6.539-1.39-10.137-4.17.571 1.717.899 3.188.899 4.333.079 2.452-.246 5.15-.899 8.095l-3.519 14.801-5.479-5.643 2.78-11.366a163.11 163.11 0 0 0 1.556-7.686c.246-1.881.246-3.434 0-4.497-.164-1.063-.574-2.045-1.063-2.944-.328-.571-1.146-1.471-2.209-2.616l-5.068-5.234-15.047 14.556-4.333-4.498zm23.302-13.819l9.325 9.649c1.96 2.043 3.759 3.516 5.232 4.252 1.553.735 3.105.899 4.576.653 1.556-.328 2.865-.981 3.926-2.045 1.635-1.553 2.373-3.434 2.291-5.559-.082-2.208-1.392-4.499-3.765-7.033l-10.383-10.712-11.202 10.795zm-54.864-32.136c3.759-6.869 8.584-11.202 14.391-13 5.804-1.881 11.692-1.146 17.499 2.043 3.759 2.127 6.703 4.907 8.748 8.423s2.944 7.359 2.78 11.53c-.164 4.088-1.471 8.257-3.762 12.346-2.288 4.252-5.232 7.523-8.748 9.813-3.516 2.372-7.277 3.598-11.285 3.598-4.087-.081-7.849-1.063-11.446-3.025-3.844-2.208-6.87-4.989-8.833-8.587-2.042-3.596-2.941-7.44-2.698-11.528.246-4.171 1.309-8.015 3.354-11.613zm5.558 3.189c-2.777 4.989-3.598 9.649-2.534 13.983 1.146 4.333 3.683 7.604 7.688 9.894 4.172 2.208 8.341 2.698 12.592 1.226 4.254-1.389 7.852-4.742 10.793-10.056 1.884-3.353 2.862-6.624 3.19-9.731.246-3.108-.41-5.969-1.799-8.587-1.392-2.616-3.519-4.66-6.214-6.132-3.844-2.125-7.934-2.698-12.185-1.553-4.254 1.063-8.095 4.742-11.531 10.956zm-53.883 3.762l14.555-44.89 16.925 5.559c3.026.899 5.235 1.8 6.706 2.618 2.045 1.062 3.677 2.37 4.822 3.924 1.146 1.472 1.881 3.27 2.209 5.479.325 2.125.082 4.334-.653 6.541-1.228 3.762-3.434 6.624-6.788 8.505-3.27 1.799-8.095 1.717-14.391-.328l-11.528-3.76-5.889 18.233-5.968-1.881zm13.57-21.586l11.613 3.76c3.844 1.228 6.788 1.39 8.83.491 2.127-.899 3.598-2.616 4.418-5.232.571-1.881.653-3.681.164-5.316-.574-1.636-1.474-2.944-2.947-3.844-.896-.571-2.695-1.307-5.396-2.206l-11.446-3.681-5.236 16.028zM447.765 320.37l44.074 16.925-6.378 16.518c-1.307 3.352-2.783 5.886-4.415 7.523-1.72 1.717-3.68 2.78-5.971 3.188-2.288.492-4.415.328-6.46-.489-1.881-.735-3.519-1.881-4.743-3.516-1.307-1.717-2.042-3.762-2.288-6.217-1.799 2.373-3.844 3.929-6.296 4.579-2.452.738-4.989.656-7.523-.407-2.045-.735-3.762-1.963-5.232-3.516-1.474-1.553-2.373-3.108-2.862-4.743-.492-1.635-.574-3.598-.328-5.643.246-2.127.902-4.579 1.963-7.438l6.459-16.764zm2.944 7.849l-4.172 10.957c-.735 1.881-1.146 3.19-1.307 4.008-.246 1.471-.328 2.698-.082 3.841.164 1.146.735 2.13 1.553 3.19.899.979 1.963 1.717 3.434 2.288 1.638.571 3.19.738 4.743.328 1.556-.328 2.78-1.225 3.844-2.534 1.063-1.228 2.127-3.352 3.27-6.135l3.844-10.137-15.127-5.806zm20.361 7.769l-3.683 9.565c-.981 2.534-1.471 4.497-1.635 5.725-.082 1.635.246 3.023.981 4.169s1.799 2.045 3.352 2.619c1.474.571 2.862.735 4.254.407 1.392-.243 2.534-.981 3.434-2.127.899-1.143 1.963-3.272 3.188-6.46l3.434-8.748-13.325-5.15z"/></svg>