<svg xmlns="http://www.w3.org/2000/svg" width="600" height="831.4"><path fill="#FFBC00" d="M127.78 532.108c0 47.514 19.258 90.529 50.389 121.658 31.13 31.13 74.145 50.389 121.657 50.389 47.514-.001 90.526-19.257 121.656-50.389 31.135-31.129 50.39-74.145 50.39-121.658l.252-3.646c.022-.206 9.139-71.921-53.651-118.832l38.479-51.557c84.574 63.188 80.677 158.507 79.296 175.146-.297 64.837-26.701 123.523-69.246 166.068-42.786 42.786-101.893 69.254-167.176 69.254-65.28 0-124.39-26.468-167.176-69.254C89.862 656.5 63.396 597.391 63.396 532.108h64.384zm256.962-378.515c0-24.634-9.985-46.941-26.127-63.083-16.138-16.142-38.443-26.125-63.081-26.125-24.636 0-46.942 9.983-63.085 26.125-16.14 16.138-26.126 38.447-26.126 63.083H141.94c0-42.409 17.195-80.807 44.991-108.603S253.126 0 295.534 0c42.408-.001 80.806 17.195 108.601 44.99 27.797 27.796 44.991 66.196 44.991 108.603h-64.384z"/><path fill="#FFBC00" d="M75.09 460.818c-12.607 34.137-11.399 71.09-11.399 71.09l63.845-.068s.671-41.244 10.061-71.088l-62.507.066z"/><path fill="#BC2626" d="M463.87 362.149c-21.653-20.853-47.245-37.606-75.527-49.009-27.159-10.95-56.968-16.98-88.338-16.98-130.407-.001-236.128 105.722-236.128 236.13 0 130.407 105.721 236.129 236.128 236.129 130.41-.002 236.13-105.722 236.13-236.129.002-7.325-.357-21.714-1.056-35.656-.48-9.538-1.067-18.065-1.711-22.238l63.627-9.558c1.108 7.196 1.92 17.854 2.467 28.779.699 13.939 1.059 29.831 1.059 38.673 0 165.965-134.547 300.512-300.516 300.512C134.039 832.8-.506 698.255-.506 532.29c0-165.968 134.546-300.514 300.511-300.514 39.539 0 77.429 7.727 112.23 21.759 36.065 14.54 68.644 35.853 96.147 62.343l-44.515 46.272h.003z"/><path fill="#BC2626" d="M441.29 464.326l153.804.18v64.386l-153.804-.182z"/><path fill="#3B342C" d="M190.872 473.83h1.931c13.037 0 16.519-6.775 16.809-11.903h11.129V530.5h-13.548v-47.281h-16.32v-9.389h-.001zm63.444 10.758c0-9.855 6.294-11.596 9.779-11.596 6.973 0 10.36 4.831 10.36 12.659 0 8.115-5.229 11.5-9.973 11.5-5.13 0-10.166-2.222-10.166-12.563zm-12.192 30.056c1.159 10.894 9.579 17.686 21.294 17.686 12.389 0 24.944-8.636 24.944-35.178.001-9.665-.386-35.225-24.169-35.225-13.459 0-23.426 7.795-23.426 24.596 0 11.501 7.646 21.494 20.81 21.494 4.649 0 9.973-1.162 13.071-5.821l.194.195c-.097 14.366-5.713 19.071-11.328 19.071-4.163-.002-7.165-2.017-7.94-6.722v-.097h-13.45v.001zm66.4-17.56c0-17.63 2.133-24.277 9.896-24.277 7.763 0 9.896 6.649 9.896 24.279.002 17.63-2.135 24.376-9.896 24.376-7.761-.002-9.896-6.744-9.896-24.378zm-13.903 0c0 23.992 7.625 35.243 23.8 35.243s23.803-11.251 23.803-35.241-7.628-35.145-23.803-35.145c-16.176 0-23.801 11.157-23.8 35.143zm67.427-7.721c2.511-1.745 5.603-3.784 12.269-3.784 9.177 0 20.766 6.405 20.766 22.124.001 9.331-4.731 24.624-24.919 24.624-10.729 0-21.663-6.402-22.341-20.2h13.549c.58 5.582 3.575 9.333 9.564 9.333 6.474-.002 10.241-5.481 10.241-12.795 0-6.062-2.898-12.218-10.047-12.218-1.836-.002-6.475.098-9.082 4.907l-12.097-.578 4.743-37.677h37.686v11.396h-27.918l-2.414 14.868z"/><path fill="#FFBC00" d="M206.002 152.92l-64.271.228c-4.472 71.533 59.914 111.774 59.914 111.774L419.27 410.453l39.233-51.306-205.891-130.888s-46.61-27.944-46.61-75.339z"/></svg>