<svg xmlns="http://www.w3.org/2000/svg" width="313" height="700"><path d="M234.031 72.98C231.663 32.28 197.913 0 156.608 0 115.302 0 81.552 32.28 79.18 72.98H.035L0 535.495C30.494 672.426 156.46 700 156.46 700h.088S282.51 672.427 313 535.496V72.979h-78.969z" fill="#c31632"/><path d="M294.419 535.64c-21.786 117.127-137.914 145.78-137.914 145.78S40.367 652.766 18.581 535.64l.05-72.319 275.788-364.56v436.88zm-66.517-379.963l-14.495 18.634-176.124-.042.402 201.987 110.408-146.283H74.347V211.38h111.082L18.638 432.915l-.007-277.1 209.271-.138zM117.712 44.044c-11.249 18.405-11.09 48.708.343 66.534-2.647 1.344-5.067 2.868-7.22 4.551-8.821-10.58-13.673-23.89-13.673-37.606 0-13.769 4.898-27.136 13.818-37.768 1.965 1.524 4.181 2.942 6.732 4.29m34.488-1.267c-14.812-.617-27.618-4.117-34.851-9.493 9.693-8.453 21.969-13.558 34.851-14.503v23.996zm34.788 4.995c3.907 6.21 6.338 15.046 6.913 25.114h-74.368c.54-9.76 2.943-18.83 6.69-25.227 18.36 6.368 42.491 6.41 60.765.113M162.01 42.75V18.849c12.484 1.129 24.41 6.205 33.856 14.429-6.863 5.295-19.308 8.78-33.856 9.472m40.07 72.75a43.622 43.622 0 0 0-6.747-4.396c11.61-18.316 11.68-48.832.138-66.971 2.502-1.316 4.767-2.787 6.768-4.393 8.938 10.605 13.842 23.975 13.842 37.783 0 13.928-4.968 27.365-14.001 37.977m-49.88-3.228v24.03c-12.953-.945-25.282-6.11-35.006-14.65 7.16-5.433 20.02-8.89 35.006-9.38m43.522 9.645c-9.386 8.135-21.256 13.176-33.712 14.305v-23.855c14.39.8 26.778 4.318 33.712 9.55m-8.857-14.482c-9.273-3.214-20.053-4.822-30.818-4.822-10.293 0-20.561 1.47-29.457 4.43-3.864-6.088-6.383-15.031-7.015-24.87h74.29c-.62 9.88-3.136 18.968-7 25.262" fill="#fff"/><path d="M147.36 394.983v131.735c-32.73-4.117-58.058-32.025-58.058-65.87 0-33.843 25.328-61.748 58.059-65.865m0 150.044v18.747h18.62V544.8c19.343-2.339 36.68-11.18 49.735-24.303l-12.858-12.851c-9.753 9.817-22.562 16.605-36.877 18.824v-75.103H257.3v-18.57h-91.32V395.23c14.164 2.195 26.85 8.862 36.56 18.514l12.735-12.979c-13.003-12.88-30.166-21.55-49.294-23.865v-47.28L257.3 208.633v85.665h18.645l-.304-140.836-128.28 169.961v53.251c-42.805 4.198-76.249 40.28-76.249 84.173 0 43.9 33.444 79.978 76.249 84.18m22.896 53.266a3.25 3.25 0 0 0-1.027-.61c-.38-.184-.787-7.56 2.188-15.3-.303.613-4.365 6.83-8.564 6.83-5.769 0-6.52-5.483-6.52-5.483s-.615 3.263-4.806 4.54c-4.203 1.28-9.002-2.596-9.002-2.596s3.236 3.902 3.236 6.787c0 2.91-4.136 6.17-4.7 6.48-9.414 5.945-16.76 16.98-16.76 29.856 0 18.712 14.311 33.881 32.014 33.881 17.695 0 32.004-15.17 32.004-33.88 0-13.456-7.368-25.069-18.063-30.505" fill="#c31632"/><path d="M153.782 653.753c5.459-4.198 6.105-8.678 6.105-17.688 0-9.02-14.46-12.827-14.46-21.52 0-8.1 10.889-12.816 12.258-13.353.148-.091.279-.109.279-.109s-.18.081-.28.11c-.698.363-2.617 2.056-2.617 10.452 0 10.284 15.08 7.73 15.08 21.506 0 13.836-16.044 20.912-16.365 20.602" fill="#fff"/></svg>