<svg width="131" height="177" xmlns="http://www.w3.org/2000/svg"><g fill="none" fill-rule="evenodd"><path d="M65.618 50.785c4.487.294 21.444-.895 27.641-7.012l1.737-6.879c4.169-4.688 7.081-7.859 8.346-11.867-.749-2.84-2.917-7.12-9.736-7.12l-7.884 1.595c0-7.081-7.214-6.459-13.048-6.459h-7.253.079-7.253c-5.834 0-13.048-.622-13.048 6.459l-7.883-1.595c-6.82 0-8.988 4.28-9.737 7.12 1.266 4.008 4.178 7.179 8.346 11.867l1.737 6.879c6.197 6.117 23.154 7.306 27.641 7.012h.315" fill="#C32D30"/><path d="M16.664 93.502a52.97 52.97 0 0 1 .747-2.68l-.038.121c-1.18.961-3.087 2.387-.71 2.559zm-.306 1.283c-1.574.529-3.294 3.197-2.53 7.221.576 3.37.314 8.968-3.056 13.104 1.13-1.113 1.675-1.367 2.424-1.538 0 3.711 2.587 9.545 4.958 11.07.069.045 0 0 0 0l.001.003a53.582 53.582 0 0 1-3.1-18.035c0-4.054.448-7.999 1.296-11.786l.007-.039zm91.347 39.988a9.31 9.31 0 0 1 1.25-.01c-.186.743.647 1.754 1.847 1.311-.01-.091-.54-3.638-.292-6.47l-.003.058-.105-.302a52.425 52.425 0 0 1-2.893 5.331l.196.082zm-84.6.097a52.595 52.595 0 0 1-2.897-5.281l.035.073-.003-.058c.248 2.832-.283 6.379-.291 6.47 1.199.443 2.032-.568 1.847-1.31a9.235 9.235 0 0 1 1.249.009l.06.097zm89.49-10.228s-.067.045 0 0c2.372-1.525 4.958-7.359 4.958-11.07.751.171 1.295.425 2.424 1.538-3.369-4.136-3.631-9.734-3.055-13.104.764-4.024-.956-6.692-2.53-7.22l-.27-.1a53.972 53.972 0 0 1 1.325 11.924 53.6 53.6 0 0 1-3.046 17.882l.194.15zm.526-33.724a52.9 52.9 0 0 1 .736 2.66l.228-.076c2.378-.172.471-1.598-.709-2.559l-.255-.025zm-56.7 78.033a3.944 3.944 0 0 0-.157-.42c-.615-2.583-3.078-1.671-3.078 0 .616 3.493-2.154 2.886-2.154 1.822-1.232-3.017.154-5.013 3.385-7.14 3.365 0 4.924-3.494 2.463-3.494a11.403 11.403 0 0 0-2.96.068l-.049-.148-.104.019c0-.69-3.077-2.853-6.038-1.45-1.386-1.367-2-2.972-4.617-2.127 0-.895-1.154-3.113-4.232-3.113-1.217-2.518-1.217-2.518-3.617-2.811 0-.912-.345-1.757-1-2.312l-.024-.02.114-.224c7.953 6.445 17.83 10.46 28.59 10.963l.005-.002c-3.831 1.128-6.623 4.63-6.623 8.778 0 .666.072 1.317.21 1.943l-.114-.332zm17.726 1.952c-1.408 3.287-4.705 5.594-8.547 5.594-4.223 0-7.788-2.79-8.909-6.6l-.08.015c.233 2.478-1.345 5.505-5.734 4.847-1.575 0-2.748-1.118-3.402-2.743l-.031-.056c-2.815-.278-4.54-1.77-5.29-3.624l.122.273c-2.54-.571-4.008-2.246-4.515-4.18l.036.134c-1.559-.674-2.571-1.842-3.08-3.19l.03.074c-1.786-.708-2.89-2.047-3.37-3.577l.048.138c-2.99-1.53-3.734-4.998-2.588-7.75l-.061.001c-11.311 1.139-18.235-8.773-20.774-14.07-.288-.912-.894-1.51-1.731-2.336 1.27 1.252 2.596 1.083 3.578.627v-2.394c-10.446-5.752-8.368-19.368-8.368-20.28 0-.997-.462-1.993-.693-2.563l3.002 2.963h1.172v-2.735c-7.406-9.4-1.743-20.04.462-23.09.393-.543.844-1.177 1.231-3.038l-.038.152c.578 3.93 5.745 1.196 5.485-3.788-1.635-3.344-.224-5.361 2.093-5.171l-.141.004c-2.16-3.733-.72-6.025 1.743-5.823l.067-.292c-.557-2.39.742-3.758 2.67-3.6h-.118c-.351-2.17.912-3.396 2.742-3.245-.46-3.276 2.73-5.338 5.865-5.338 2.037.575 1.995 2.954-.631 3.527.367 8.626 19.311.343 10.936-12.058-1.662-1.23-1.589-3.024 0-3.61 4.587 4.53 16.14 6.938 28.045 7.179l-.183.004c11.973-.219 23.62-2.63 28.232-7.182 1.589.585 1.662 2.38 0 3.61-8.376 12.4 10.569 20.683 10.935 12.057-2.626-.573-2.668-2.952-.63-3.527 3.135 0 6.325 2.062 5.865 5.338 1.83-.15 3.094 1.075 2.742 3.244l-.118.001c1.927-.158 3.227 1.21 2.671 3.6l.066.292c2.463-.202 3.903 2.09 1.743 5.823l-.141-.004c2.317-.19 3.728 1.827 2.092 5.173-.26 4.982 4.91 7.716 5.486 3.786l-.04-.152c.39 1.86.84 2.495 1.232 3.038 2.206 3.05 7.868 13.69.463 23.09v2.735h1.172l3-2.963c-.23.57-.692 1.566-.692 2.564 0 .91 2.078 14.527-8.367 20.28v2.393c.981.456 2.308.625 3.578-.627-.836.826-1.442 1.424-1.731 2.335-2.54 5.298-9.463 15.21-20.775 14.071l-.025.084c1.095 2.737.336 6.151-2.622 7.665l.047-.138c-.481 1.53-1.584 2.869-3.37 3.577l.03-.074c-.509 1.348-1.521 2.516-3.082 3.19l.037-.133c-.507 1.933-1.974 3.608-4.514 4.18l.121-.274c-.75 1.855-2.475 3.346-5.288 3.624l-.028.044c-.652 1.632-1.826 2.755-3.407 2.755-3.81.57-5.502-1.635-5.729-3.848l.004-.008zm.726-3.303c.003-.087.003-.173.003-.26 0-4.187-2.849-7.719-6.737-8.81l.007.003c10.575-.623 20.272-4.637 28.097-11.007l.266.3.134-.103c-.756.548-1.157 1.452-1.157 2.434-2.4.293-2.4.293-3.617 2.81-3.077 0-4.232 2.22-4.232 3.114-2.616-.845-3.232.76-4.617 2.126-2.96-1.402-6.038.76-6.038 1.45l-.103-.018-.13.135c-.87-.134-1.829-.16-2.879-.055-2.462 0-.903 3.495 2.462 3.495 3.232 2.126 4.617 4.122 3.387 7.139 0 1.064-2.77 1.67-2.155-1.822 0-1.421-1.78-2.293-2.692-.935v.004z" fill="#1A1919"/><path d="M16.664 93.502a52.97 52.97 0 0 1 .747-2.68l-.038.121c-1.18.961-3.087 2.387-.71 2.559zm-.306 1.283c-1.574.529-3.294 3.197-2.53 7.221.576 3.37.314 8.968-3.056 13.104 1.13-1.113 1.675-1.367 2.424-1.538 0 3.711 2.587 9.545 4.958 11.07.069.045 0 0 0 0l.001.003a53.582 53.582 0 0 1-3.1-18.035c0-4.054.448-7.999 1.296-11.786l.007-.039zm91.347 39.988a9.31 9.31 0 0 1 1.25-.01c-.186.743.647 1.754 1.847 1.311-.01-.091-.54-3.638-.292-6.47l-.003.058-.105-.302a52.425 52.425 0 0 1-2.893 5.331l.196.082zm-84.6.097a52.595 52.595 0 0 1-2.897-5.281l.035.073-.003-.058c.248 2.832-.283 6.379-.291 6.47 1.199.443 2.032-.568 1.847-1.31a9.235 9.235 0 0 1 1.249.009l.06.097zm89.49-10.228s-.067.045 0 0c2.372-1.525 4.958-7.359 4.958-11.07.751.171 1.295.425 2.424 1.538-3.369-4.136-3.631-9.734-3.055-13.104.764-4.024-.956-6.692-2.53-7.22l-.27-.1a53.972 53.972 0 0 1 1.325 11.924 53.6 53.6 0 0 1-3.046 17.882l.194.15zm.526-33.724a52.9 52.9 0 0 1 .736 2.66l.228-.076c2.378-.172.471-1.598-.709-2.559l-.255-.025zm-56.7 78.033a3.944 3.944 0 0 0-.157-.42c-.615-2.583-3.078-1.671-3.078 0 .616 3.493-2.154 2.886-2.154 1.822-1.232-3.017.154-5.013 3.385-7.14 3.365 0 4.924-3.494 2.463-3.494a11.403 11.403 0 0 0-2.96.068l-.049-.148-.104.019c0-.69-3.077-2.853-6.038-1.45-1.386-1.367-2-2.972-4.617-2.127 0-.895-1.154-3.113-4.232-3.113-1.217-2.518-1.217-2.518-3.617-2.811 0-.912-.345-1.757-1-2.312l-.024-.02.114-.224c7.953 6.445 17.83 10.46 28.59 10.963l.005-.002c-3.831 1.128-6.623 4.63-6.623 8.778 0 .666.072 1.317.21 1.943l-.114-.332zm17.726 1.952c-1.408 3.287-4.705 5.594-8.547 5.594-4.223 0-7.788-2.79-8.909-6.6l-.08.015c.233 2.478-1.345 5.505-5.734 4.847-1.575 0-2.748-1.118-3.402-2.743l-.031-.056c-2.815-.278-4.54-1.77-5.29-3.624l.122.273c-2.54-.571-4.008-2.246-4.515-4.18l.036.134c-1.559-.674-2.571-1.842-3.08-3.19l.03.074c-1.786-.708-2.89-2.047-3.37-3.577l.048.138c-2.99-1.53-3.734-4.998-2.588-7.75l-.061.001c-11.311 1.139-18.235-8.773-20.774-14.07-.288-.912-.894-1.51-1.731-2.336 1.27 1.252 2.596 1.083 3.578.627v-2.394c-10.446-5.752-8.368-19.368-8.368-20.28 0-.997-.462-1.993-.693-2.563l3.002 2.963h1.172v-2.735c-7.406-9.4-1.743-20.04.462-23.09.393-.543.844-1.177 1.231-3.038l-.038.152c.578 3.93 5.745 1.196 5.485-3.788-1.635-3.344-.224-5.361 2.093-5.171l-.141.004c-2.16-3.733-.72-6.025 1.743-5.823l.067-.292c-.557-2.39.742-3.758 2.67-3.6h-.118c-.351-2.17.912-3.396 2.742-3.245-.46-3.276 2.73-5.338 5.865-5.338 2.037.575 1.995 2.954-.631 3.527.367 8.626 19.311.343 10.936-12.058-1.662-1.23-1.589-3.024 0-3.61 4.587 4.53 16.14 6.938 28.045 7.179l-.183.004c11.973-.219 23.62-2.63 28.232-7.182 1.589.585 1.662 2.38 0 3.61-8.376 12.4 10.569 20.683 10.935 12.057-2.626-.573-2.668-2.952-.63-3.527 3.135 0 6.325 2.062 5.865 5.338 1.83-.15 3.094 1.075 2.742 3.244l-.118.001c1.927-.158 3.227 1.21 2.671 3.6l.066.292c2.463-.202 3.903 2.09 1.743 5.823l-.141-.004c2.317-.19 3.728 1.827 2.092 5.173-.26 4.982 4.91 7.716 5.486 3.786l-.04-.152c.39 1.86.84 2.495 1.232 3.038 2.206 3.05 7.868 13.69.463 23.09v2.735h1.172l3-2.963c-.23.57-.692 1.566-.692 2.564 0 .91 2.078 14.527-8.367 20.28v2.393c.981.456 2.308.625 3.578-.627-.836.826-1.442 1.424-1.731 2.335-2.54 5.298-9.463 15.21-20.775 14.071l-.025.084c1.095 2.737.336 6.151-2.622 7.665l.047-.138c-.481 1.53-1.584 2.869-3.37 3.577l.03-.074c-.509 1.348-1.521 2.516-3.082 3.19l.037-.133c-.507 1.933-1.974 3.608-4.514 4.18l.121-.274c-.75 1.855-2.475 3.346-5.288 3.624l-.028.044c-.652 1.632-1.826 2.755-3.407 2.755-3.81.57-5.502-1.635-5.729-3.848l.004-.008zm.726-3.303c.003-.087.003-.173.003-.26 0-4.187-2.849-7.719-6.737-8.81l.007.003c10.575-.623 20.272-4.637 28.097-11.007l.266.3.134-.103c-.756.548-1.157 1.452-1.157 2.434-2.4.293-2.4.293-3.617 2.81-3.077 0-4.232 2.22-4.232 3.114-2.616-.845-3.232.76-4.617 2.126-2.96-1.402-6.038.76-6.038 1.45l-.103-.018-.13.135c-.87-.134-1.829-.16-2.879-.055-2.462 0-.903 3.495 2.462 3.495 3.232 2.126 4.617 4.122 3.387 7.139 0 1.064-2.77 1.67-2.155-1.822 0-1.421-1.78-2.293-2.692-.935v.004z" stroke="#1A1919" stroke-width=".94"/><path d="M115.451 106.61c0 28.724-22.472 52.008-50.197 52.008-27.722 0-50.197-23.284-50.197-52.008 0-28.725 22.475-52.009 50.197-52.009 27.725 0 50.197 23.284 50.197 52.009" fill="#CD322F"/><path d="M69.178 146.165c19.351-2.036 34.451-18.968 34.451-39.555 0-14.676-7.677-27.494-19.089-34.382v12.17c5.862 5.468 9.55 13.394 9.55 22.212 0 16.501-12.911 29.874-28.836 29.874-14.214 0-26.027-10.654-28.401-24.678h4.894a25.185 25.185 0 0 0 4.656 10.249l.008-30.9a25.041 25.041 0 0 0-2.619 4.242h-5.273c3.203-8.193 9.812-14.579 18.009-17.272l.082-10.261C39.579 71.927 26.881 87.73 26.881 106.61c0 21.574 16.582 39.135 37.263 39.744v5.319c-23.516-.609-42.398-20.551-42.398-45.063 0-23.661 17.593-43.062 39.962-44.932l-.001 15.278a28.254 28.254 0 0 1 7.757.094V61.739c22.054 2.193 39.3 21.445 39.3 44.871 0 23.505-17.363 42.804-39.523 44.889l-.063-5.334zm-17.669-19.129c3.896 2.817 8.634 4.471 13.745 4.471 13.272 0 24.031-11.147 24.031-24.897 0-5.563-1.761-10.7-4.737-14.845l-.013 12.602H79.66l.006-17.684a23.896 23.896 0 0 0-5.311-3.125l-.013 38.31h-4.878V82.092a23.37 23.37 0 0 0-7.757-.111l.001 22.386h-5.097l-.008-20.995a23.745 23.745 0 0 0-5.093 2.81l-.001 40.854zm28.157-57.289a37.11 37.11 0 0 0-5.327-1.777l-.005 10.274a28.239 28.239 0 0 1 5.339 2.486l-.007-10.983z" fill="#F0E53D"/><path d="M4.338 104.477c-.432-5.944-.213-9.22 1.992-16.141.617 1.996 1.212 3.361.115 6.437-1.045 3.787-1.698 4.614-.027 7.199l-.146.207c2.078-2.792 4.906-11.564.577-15.837-3.29 4.443-5.977 13.553-2.366 18.343l-.145-.208m9.54-21.532c-2.007 1.98-3.797 6.758-3.797 8.866l.002-.173c1.411-1.974 4.125-4.764 5.393-5.722l-1.598-2.971m3.155 5.865c-.507.53-3.246 2.448-4.297 2.488 0-.601 2.257-3.721 3.267-4.404l1.03 1.916m-9.78 25.104c1.674-4.842.404-8.602 3.752-12.647-.824 2.927-2.194 7.292-.924 9.799 2.078-1.083 2.309-3.475 2.309-13.388-3.55 3.504-7.33 9.116-5.137 16.236m.751 14.298c-2.829-4.443-3.694-6.436-3.694-11.507 1.154 3.475 1.818 5.554 4.423 9.337-.209-1.324-.924-9.115-6.212-13.211-.085 7.209.792 12.251 5.483 15.381m8.887 8.774c-3.116-5.356-4.732-8.603-4.213-13.957.808 3.474 1.294 4.906 4.387 9.798.461-8.267-2.944-6.779-4.964-14.983-2.308 8.888-.144 15.524 4.79 19.142m8.369 11.449c-3.752-1.537-9.638-5.412-12.235-9.399 2.135 1.367 3.347 3.019 8.426 5.127-1.096-2.117-3.117-5.013-11.254-7.634 4.391 9.006 10.607 12.893 15.063 11.906m5.316-.658c-1.616-.873-2.83-2.8-3.222-4.127.039.131.755.525.888.645.621.558 1.176 1.182 1.716 1.815.343.401.695.938 1.092 1.368l.05-.035c.09-.06.183-.117.277-.173a4.26 4.26 0 0 1 .304-.049 3.293 3.293 0 0 0-.011-.675 1.732 1.732 0 0 0-.053-.256c-.148-.51-.282-1.3-.68-1.685a51.296 51.296 0 0 1-3.31-3.523c-1.116-.727-2.567-1.548-4.774-2.901.461 4.558 4.132 9.125 6.685 10.759l.006-.008a6.13 6.13 0 0 1 1.042-1.108l-.01-.047m95.842-43.3c.432-5.944.213-9.22-1.992-16.141-.617 1.996-1.212 3.361-.115 6.437 1.045 3.787 1.698 4.614.027 7.199l.146.207c-2.077-2.792-4.905-11.564-.577-15.837 3.29 4.443 5.976 13.553 2.366 18.343l.145-.208m-9.54-21.532c2.008 1.98 3.797 6.758 3.797 8.866l-.003-.173c-1.41-1.974-4.125-4.764-5.392-5.722l1.598-2.971m-3.155 5.865c.507.53 3.247 2.448 4.297 2.488 0-.601-2.257-3.721-3.266-4.404l-1.031 1.916m9.78 25.104c-1.673-4.842-.404-8.602-3.752-12.647.824 2.927 2.194 7.292.924 9.799-2.077-1.083-2.309-3.475-2.309-13.388 3.55 3.504 7.33 9.116 5.137 16.236m-.75 14.298c2.827-4.443 3.694-6.436 3.694-11.507-1.155 3.475-1.818 5.554-4.423 9.337.208-1.324.923-9.115 6.212-13.211.083 7.209-.793 12.251-5.483 15.381m-8.888 8.774c3.117-5.356 4.733-8.603 4.213-13.957-.808 3.474-1.294 4.906-4.386 9.798-.462-8.267 2.943-6.779 4.963-14.983 2.309 8.888.145 15.524-4.79 19.142m-8.368 11.449c3.751-1.537 9.637-5.412 12.235-9.399-2.135 1.367-3.347 3.019-8.426 5.127 1.095-2.117 3.116-5.013 11.253-7.634-4.391 9.006-10.607 12.893-15.062 11.906m-5.358-.658c1.617-.873 2.83-2.8 3.222-4.127-.039.131-.754.525-.888.645-.62.558-1.175 1.182-1.716 1.815-.343.401-.695.938-1.091 1.368l-.051-.035a5.412 5.412 0 0 0-.277-.173 4.26 4.26 0 0 0-.304-.049 3.223 3.223 0 0 1 .012-.675c.012-.089.029-.174.053-.256.147-.51.282-1.3.68-1.685a51.282 51.282 0 0 0 3.309-3.523c1.116-.727 2.568-1.548 4.775-2.901-.462 4.558-4.132 9.125-6.686 10.759l-.006-.008a6.095 6.095 0 0 0-1.042-1.108l.01-.047" fill="#7EBB44"/><path d="M47.446 171.96c-2.814-.278-4.54-1.769-5.29-3.625l.123.274c-2.541-.571-4.009-2.246-4.516-4.18l.037.133c-1.56-.673-2.572-1.842-3.081-3.19l.029.075c-1.785-.708-2.888-2.047-3.369-3.578l.048.139c-4.304-2.201-3.955-8.425-.009-10.738 2.463-.493 3.848 1.064 3.848 2.887 2.399.293 2.399.293 3.616 2.81 3.078 0 4.232 2.218 4.232 3.114 2.617-.845 3.232.76 4.618 2.127 2.96-1.403 6.039.759 6.039 1.449l.103-.018c-6.46 1.034-8.058 8.074-6.51 12.123l.082.198m35.864 0c2.814-.278 4.54-1.769 5.29-3.625l-.123.274c2.541-.571 4.008-2.246 4.515-4.18l-.036.133c1.56-.673 2.573-1.842 3.081-3.19l-.029.075c1.785-.708 2.888-2.047 3.369-3.578l-.047.139c4.303-2.201 3.954-8.425.008-10.738-2.463-.493-3.848 1.064-3.848 2.887-2.399.293-2.399.293-3.616 2.81-3.078 0-4.233 2.218-4.233 3.114-2.616-.845-3.232.76-4.617 2.127-2.96-1.403-6.038.759-6.038 1.449l-.104-.018c6.46 1.034 8.058 8.074 6.51 12.123l-.082.198" fill="#F7E135"/><path d="M56.882 159.92c-12.158-.342-11.316 15.533-5.304 15.034 5.074 0 5.835-3.798 4.736-6.305-.615-2.582-2.894-1.79-2.894-.118.616 3.493-2.655 2.886-2.655 1.822-1.231-3.018.198-5.235 3.43-7.361 3.698-.328 5.149-3.072 2.687-3.072m17.059 0c12.158-.342 11.317 15.533 5.304 15.034-5.074 0-5.834-3.798-4.736-6.305.616-2.582 2.895-1.79 2.895-.118-.616 3.493 2.655 2.886 2.655 1.822 1.23-3.018-.198-5.235-3.43-7.361-3.698-.328-5.15-3.072-2.688-3.072m39.143-69.922l.006-.012 4.917-9.14c2.577-4.019 1.123-6.522-1.448-6.312l.142.005c2.16-3.733.72-6.025-1.744-5.823l-.065-.293c.556-2.389-.744-3.757-2.671-3.599l.117-.001c.352-2.169-.912-3.394-2.741-3.244.46-3.276-2.73-5.338-5.866-5.338-2.037.575-1.995 2.954.631 3.527-.367 8.626-19.312.343-10.936-12.058 1.662-1.23 1.589-3.025 0-3.609-4.611 4.551-16.26 6.963-28.233 7.182l.183-.004c-11.906-.24-23.458-2.65-28.046-7.178-1.589.584-1.662 2.379 0 3.609 8.376 12.401-10.569 20.684-10.936 12.058 2.626-.573 2.668-2.952.631-3.527-3.136 0-6.325 2.062-5.866 5.338-1.83-.15-3.093 1.075-2.741 3.244l.117.001c-1.927-.158-3.227 1.21-2.67 3.599l-.066.293c-2.465-.202-3.903 2.09-1.744 5.823l.141-.005c-2.569-.21-4.024 2.293-1.447 6.312l4.917 9.14.006.012-.017.052c6.675-20.605 25.464-35.449 47.599-35.449 22.138 0 40.926 14.844 47.6 35.45l.23-.053" fill="#F7E135"/><path d="M65.34 51.28c11.905-.24 23.457-2.65 28.044-7.178 1.59.585 1.662 2.38 0 3.61-8.376 12.4 10.569 20.683 10.936 12.057-2.626-.573-2.668-2.952-.63-3.527 1.747-.491 3.585 1.72 3.81 3.158.31 1.982-.552 3.753-2.103 4.96-1.398 1.087-4.646 1.287-6.326 1.042-1.982-.287-3.762-1.304-5.266-2.573-2.569-2.168-4.87-5.422-5.075-8.848-.095-1.6.39-3.59 1.41-4.88-11.037 3.558-15.977 4.255-24.619 4.149h-.33c-8.642.106-13.583-.591-24.619-4.15 1.019 1.29 1.505 3.282 1.41 4.881-.205 3.426-2.507 6.68-5.075 8.848-1.504 1.269-3.285 2.286-5.265 2.573-1.68.245-4.928.045-6.326-1.042-2.724-2.117-2.689-8.118 1.707-8.118 2.037.575 1.995 2.954-.631 3.527.367 8.626 19.311.343 10.936-12.058-1.662-1.23-1.589-3.024 0-3.61 4.587 4.53 16.14 6.938 28.045 7.179h-.034z" fill="#F7E135"/><path d="M65.34 51.28c11.905-.24 23.457-2.65 28.044-7.178 1.59.585 1.662 2.38 0 3.61-8.376 12.4 10.569 20.683 10.936 12.057-2.626-.573-2.668-2.952-.63-3.527 1.747-.491 3.585 1.72 3.81 3.158.31 1.982-.552 3.753-2.103 4.96-1.398 1.087-4.646 1.287-6.326 1.042-1.982-.287-3.762-1.304-5.266-2.573-2.569-2.168-4.87-5.422-5.075-8.848-.095-1.6.39-3.59 1.41-4.88-11.037 3.558-15.977 4.255-24.619 4.149h-.33c-8.642.106-13.583-.591-24.619-4.15 1.019 1.29 1.505 3.282 1.41 4.881-.205 3.426-2.507 6.68-5.075 8.848-1.504 1.269-3.285 2.286-5.265 2.573-1.68.245-4.928.045-6.326-1.042-2.724-2.117-2.689-8.118 1.707-8.118 2.037.575 1.995 2.954-.631 3.527.367 8.626 19.311.343 10.936-12.058-1.662-1.23-1.589-3.024 0-3.61 4.587 4.53 16.14 6.938 28.045 7.179h-.034z" stroke="#1A1919" stroke-width=".313"/><path d="M70.191 169.768c1.025.901 1.354 1.376 1.354 2.504-1.691 1.959-3.104 2.788-6.873 2.788 2.256-.825 3.942-2.412 5.519-5.292zm-4.336-1.789c1.216.123 2.574.64 3.232 1.089-1.655 3.191-3.784 4.955-6.831 5.136-1.449-.624-2.838-1.374-3.339-2.957 2.303.57 5.314-.965 6.938-3.268zm7.614-1.087c0 1.91-.278 2.771-.913 4.011-1.656-3.313-5.153-4.144-6.543-4.247-.419-1.127-.603-1.946-.473-3.035 4.164-.112 6.508 1.626 7.929 3.271zm-13.842-4.594c-.502 4.01.534 5.59 1.48 7.238l.175.31c-1.458.351-2.481.181-3.074-.078-.858-1.409-.572-4.999 1.419-7.47zm5.6-2.798c-1.615 3.541-1.264 4.024-.397 7.7-1.121 1.401-1.329 1.646-2.551 2.024-1.464-3.365-2.141-5.254-.76-8.482.837-.651 2.45-1.242 3.708-1.242zm1.968.386c2.996.604 4.354 1.711 5.755 4.747-1.239-1.224-4.02-2.335-7.41-2.335.276-1.362.839-2.128 1.655-2.412zM23.641 57.52c-.831 1.202-.851 2.428-.516 4.237-.631 1.503.65 3.343 1.69 4.504l.033.036-3.655-3.606c-2.256-.321-1.795 1.913-1.733 2.218l3.665 5.292-4.356-4.3c-1.675 0-2.07.798-1.833 2.704l3.429 4.864-4.217-3.736c-1.735.312-2.611.907-1.538 4.086l2.957 4.825-3.41-3.366c-1.748.302-1.691 2.282-1.557 3.249l2.444 5.525-2.76-4.708c-.886-2.339-.63-4.202 2.011-4.63l-.118-.327c-.955-2.663-1.703-5.173 1.971-5.509-.474-3.658 1.237-3.605 2.483-3.852-.335-3.21 2.196-3.263 2.714-3.263.053-2.293 1.188-3.741 2.296-4.243zm83.562 0c1.108.502 2.244 1.95 2.296 4.243.518 0 3.05.053 2.715 3.263 1.246.247 2.956.194 2.483 3.852 3.674.336 2.926 2.846 1.97 5.51l-.117.326c2.641.428 2.897 2.291 2.01 4.63l-2.759 4.708 2.444-5.525c.134-.967.19-2.947-1.557-3.249l-3.41 3.366 2.957-4.825c1.073-3.179.197-3.774-1.538-4.086l-4.218 3.736 3.43-4.864c.236-1.906-.158-2.704-1.833-2.704l-4.356 4.3 3.664-5.292c.063-.305.524-2.539-1.733-2.218l-3.658 3.61.037-.04c1.002-1.118 2.227-2.866 1.752-4.336l-.062-.168c.335-1.809.315-3.035-.517-4.237zm-82.355 8.777l1.115 1.102s-.468-.395-1.034-1.012l-.081-.09zm81.145.004l-.077.086a12.747 12.747 0 0 1-1.034 1.012l1.11-1.098z" fill="#BF8F37"/><path d="M93.917 42.61l-.368.472c-19.972-8.405-39.417-6.64-56.288 0l-.335-.389h-3.554v-3.969h.134l-.134-.155a31.098 31.098 0 0 1 3.402-2.158l-.237-.527c-1.266.894-2.745 1.195-3.428.766l-2.184-1.506.03.001h-2.419l.076-1.594-3.86-2.66c.336-.216.74-.534 1.16-.824l-.15-.225c-.205.11-.44.175-.69.175a1.414 1.414 0 0 1-1.423-1.405c0-.532.3-.995.743-1.234-.116-.257-.223-.51-.32-.763-.16.083-.34.13-.532.13a1.149 1.149 0 0 1-1.156-1.142 1.15 1.15 0 0 1 1.057-1.138c-.044-.212-.08-.426-.111-.638a1.563 1.563 0 0 1-1.415-1.547c0-.8.609-1.458 1.394-1.547l.004-.033c.019-.137.041-.273.065-.41l.013.008a1.453 1.453 0 0 1-.899-1.339c0-.802.659-1.452 1.472-1.452a1.5 1.5 0 0 1 .286.027l.006-.013c.092-.2.191-.398.295-.593l.02.015a1.47 1.47 0 0 1-.66-1.226c0-.817.67-1.479 1.498-1.479.304 0 .588.09.825.245.103-.12.209-.24.318-.357a1.438 1.438 0 0 1-.433-1.03c0-.801.658-1.452 1.471-1.452.451 0 .855.2 1.125.517.118-.09.237-.178.357-.263a1.388 1.388 0 0 1-.145-.62c0-.772.635-1.4 1.42-1.4.461 0 .872.218 1.13.556.218-.11.437-.216.659-.319l.004.027a1.437 1.437 0 0 1 1.416-1.715c.532 0 .998.285 1.249.71l-.033.008a16.31 16.31 0 0 1 1.053-.259c.208-.57.76-.977 1.41-.977.524 0 .985.266 1.255.67.253-.004.505.001.752.015a1.495 1.495 0 0 1 1.461-1.152c.496 0 .936.238 1.209.605.227-.109.456-.216.683-.32a1.566 1.566 0 0 1 1.55-1.841c.532 0 1 .258 1.286.656.238-.09.478-.18.715-.266a1.575 1.575 0 0 1-.055-.416c0-.874.717-1.583 1.602-1.583.664 0 1.234.399 1.477.967l.023.06.4-.109a1.53 1.53 0 0 1-.034-.32c0-.846.695-1.532 1.55-1.532.732 0 1.346.501 1.507 1.174l.338-.06.006.033a1.593 1.593 0 0 1 1.565-1.924c.859 0 1.56.666 1.6 1.503.177-.012.354-.024.53-.025 0-.902.74-1.634 1.655-1.634.914 0 1.655.732 1.655 1.634v.022c.222.017.443.037.663.06.23-.376.648-.627 1.124-.627.631 0 1.16.44 1.287 1.026.123.029.245.058.364.088a2.426 2.426 0 0 1-.442-1.399c0-1.36 1.118-2.465 2.497-2.465h-.052c1.377 0 2.496 1.104 2.496 2.465 0 .52-.163 1.002-.444 1.4l.367-.09A1.31 1.31 0 0 1 69.111 3.5c.477 0 .893.25 1.124.627.22-.023.44-.043.663-.06v-.022c0-.902.74-1.634 1.655-1.634s1.655.732 1.654 1.626c.178.009.354.02.529.033a1.594 1.594 0 0 1 1.601-1.503c.885 0 1.604.708 1.604 1.582 0 .117-.014.232-.039.342l.007-.033c.112.02.225.039.336.06a1.55 1.55 0 0 1 1.508-1.174 1.54 1.54 0 0 1 1.516 1.852l.4.11.024-.06a1.602 1.602 0 0 1 1.476-.968c.886 0 1.604.709 1.604 1.583 0 .144-.02.284-.059.416.24.087.48.175.717.266a1.58 1.58 0 0 1 1.286-.656c.87 0 1.576.696 1.576 1.556 0 .097-.009.192-.027.285.23.104.458.211.686.32a1.5 1.5 0 0 1 1.207-.605c.714 0 1.31.492 1.462 1.15.246-.012.498-.017.754-.015.267-.402.73-.668 1.253-.668.649 0 1.202.407 1.41.977.35.074.701.16 1.053.259l-.033-.008c.25-.425.716-.71 1.25-.71.797 0 1.445.64 1.445 1.427 0 .1-.011.195-.03.288l.005-.027c.22.103.44.209.657.32.26-.339.67-.557 1.132-.557.783 0 1.42.628 1.42 1.4 0 .223-.053.433-.147.618.12.087.24.175.358.264.27-.316.673-.516 1.124-.516.813 0 1.473.65 1.473 1.453 0 .402-.166.766-.433 1.028.108.117.213.237.317.357.236-.154.52-.244.824-.244.828 0 1.499.662 1.499 1.479 0 .51-.263.96-.66 1.226l.02-.015c.103.195.202.393.295.593l.006.013c.092-.018.188-.027.286-.027.813 0 1.471.65 1.471 1.452 0 .601-.37 1.118-.899 1.339l.014-.007c.024.136.046.272.065.409l.004.033c.785.09 1.395.748 1.395 1.547 0 .805-.621 1.468-1.416 1.547a11.9 11.9 0 0 1-.11.638c.592.051 1.056.54 1.056 1.138 0 .63-.518 1.141-1.156 1.141-.192 0-.373-.046-.532-.129-.098.253-.203.506-.32.763.443.239.744.702.744 1.234 0 .776-.638 1.405-1.424 1.405-.25 0-.486-.065-.69-.175l-.151.225c.422.29.825.608 1.16.824l-3.858 2.66.074 1.594h-2.418.03l-2.185 1.505c-.633.397-1.95.168-3.146-.579l-.308.655c.982.576 1.908 1.19 2.771 1.843l-.12.156.522-.001-.001 3.969h-3.554v-.082zm-59.968-8.087c1.63.518 2.813-.078 2.625-1.812l-.064-.03.064.03-.064-.03a1.332 1.332 0 0 1-.72-1.18c0-.738.605-1.336 1.353-1.336.645 0 1.186.446 1.322 1.045 1.514 1.641 6.402.33 5.406-3.132 0 1.317-1.082 2.386-2.418 2.386-1.335 0-2.418-1.069-2.418-2.386 0-.928.537-1.732 1.32-2.127-2.78-4.354-2.71-7.666-2.569-14.203-5.94-1.141-16.817 7.99-7.568 18.624l.198.182c.625-.895 1.305-2.237 2.219-.828.325.502.632 1.017.948 1.526.348.56 1.084 1.359 1.198 2.009.047.267-.505 1.366-.83 1.262h-.002zm20.945-8.016c.513 3.488 11.115 3.45 9.248-1.348l.002.003c-.195 1.534-1.52 2.72-3.128 2.72-1.741 0-3.153-1.394-3.153-3.113 0-1.378.908-2.547 2.165-2.956h-.002c-1.809-3.966-2.163-10.458.833-15.045-11.353-.83-13.665 1.453-15.557 3.32-2.014 6.018-1.076 9.362 1.05 13.073l-.005-.011c.329-.167.702-.26 1.098-.26 1.334 0 2.417 1.068 2.417 2.386s-1.083 2.386-2.417 2.386c-.7 0-1.33-.293-1.77-.762v-.003c-.712 3.89 5.855 3.553 6.605-.204h-.001a1.31 1.31 0 0 1-.092-.484c0-.738.606-1.336 1.353-1.336a1.345 1.345 0 0 1 1.311 1.67l.043-.036zm21.118.036a1.303 1.303 0 0 1-.043-.334c0-.738.607-1.336 1.354-1.336.747 0 1.352.598 1.352 1.336 0 .17-.032.334-.09.484h-.002c.75 3.757 7.317 4.094 6.605.204l.001.003a2.426 2.426 0 0 1-1.77.762c-1.336 0-2.419-1.068-2.419-2.386s1.083-2.386 2.419-2.386c.394 0 .768.093 1.098.26l-.007.01c2.127-3.71 3.065-7.054 1.05-13.072-1.891-1.867-4.203-4.15-15.556-3.32 2.996 4.587 2.641 11.079.833 15.045h-.002A3.119 3.119 0 0 1 73 24.769c0 1.72-1.412 3.113-3.154 3.113-1.606 0-2.933-1.186-3.129-2.72l.003-.003c-1.866 4.798 8.735 4.836 9.249 1.348l.043.036zm20.9 7.98c-.325.104-.877-.995-.83-1.262.114-.65.85-1.449 1.197-2.01.316-.508.624-1.023.95-1.525.912-1.409 1.593-.067 2.219.828l.196-.182c9.25-10.635-1.628-19.765-7.568-18.624.142 6.537.21 9.85-2.567 14.203a2.385 2.385 0 0 1 1.318 2.127c0 1.317-1.082 2.386-2.417 2.386-1.335 0-2.418-1.069-2.418-2.386-.996 3.462 3.891 4.773 5.407 3.132a1.35 1.35 0 0 1 1.321-1.045c.748 0 1.353.598 1.353 1.335 0 .513-.292.958-.72 1.182l-.065.03.065-.03-.065.03c-.187 1.733.996 2.33 2.625 1.81z" fill="#1A1919"/><path d="M93.917 42.61l-.368.472c-19.972-8.405-39.417-6.64-56.288 0l-.335-.389h-3.554v-3.969h.134l-.134-.155a31.098 31.098 0 0 1 3.402-2.158l-.237-.527c-1.266.894-2.745 1.195-3.428.766l-2.184-1.506.03.001h-2.419l.076-1.594-3.86-2.66c.336-.216.74-.534 1.16-.824l-.15-.225c-.205.11-.44.175-.69.175a1.414 1.414 0 0 1-1.423-1.405c0-.532.3-.995.743-1.234-.116-.257-.223-.51-.32-.763-.16.083-.34.13-.532.13a1.149 1.149 0 0 1-1.156-1.142 1.15 1.15 0 0 1 1.057-1.138c-.044-.212-.08-.426-.111-.638a1.563 1.563 0 0 1-1.415-1.547c0-.8.609-1.458 1.394-1.547l.004-.033c.019-.137.041-.273.065-.41l.013.008a1.453 1.453 0 0 1-.899-1.339c0-.802.659-1.452 1.472-1.452a1.5 1.5 0 0 1 .286.027l.006-.013c.092-.2.191-.398.295-.593l.02.015a1.47 1.47 0 0 1-.66-1.226c0-.817.67-1.479 1.498-1.479.304 0 .588.09.825.245.103-.12.209-.24.318-.357a1.438 1.438 0 0 1-.433-1.03c0-.801.658-1.452 1.471-1.452.451 0 .855.2 1.125.517.118-.09.237-.178.357-.263a1.388 1.388 0 0 1-.145-.62c0-.772.635-1.4 1.42-1.4.461 0 .872.218 1.13.556.218-.11.437-.216.659-.319l.004.027a1.437 1.437 0 0 1 1.416-1.715c.532 0 .998.285 1.249.71l-.033.008a16.31 16.31 0 0 1 1.053-.259c.208-.57.76-.977 1.41-.977.524 0 .985.266 1.255.67.253-.004.505.001.752.015a1.495 1.495 0 0 1 1.461-1.152c.496 0 .936.238 1.209.605.227-.109.456-.216.683-.32a1.566 1.566 0 0 1 1.55-1.841c.532 0 1 .258 1.286.656.238-.09.478-.18.715-.266a1.575 1.575 0 0 1-.055-.416c0-.874.717-1.583 1.602-1.583.664 0 1.234.399 1.477.967l.023.06.4-.109a1.53 1.53 0 0 1-.034-.32c0-.846.695-1.532 1.55-1.532.732 0 1.346.501 1.507 1.174l.338-.06.006.033a1.593 1.593 0 0 1 1.565-1.924c.859 0 1.56.666 1.6 1.503.177-.012.354-.024.53-.025 0-.902.74-1.634 1.655-1.634.914 0 1.655.732 1.655 1.634v.022c.222.017.443.037.663.06.23-.376.648-.627 1.124-.627.631 0 1.16.44 1.287 1.026.123.029.245.058.364.088a2.426 2.426 0 0 1-.442-1.399c0-1.36 1.118-2.465 2.497-2.465h-.052c1.377 0 2.496 1.104 2.496 2.465 0 .52-.163 1.002-.444 1.4l.367-.09A1.31 1.31 0 0 1 69.111 3.5c.477 0 .893.25 1.124.627.22-.023.44-.043.663-.06v-.022c0-.902.74-1.634 1.655-1.634s1.655.732 1.654 1.626c.178.009.354.02.529.033a1.594 1.594 0 0 1 1.601-1.503c.885 0 1.604.708 1.604 1.582 0 .117-.014.232-.039.342l.007-.033c.112.02.225.039.336.06a1.55 1.55 0 0 1 1.508-1.174 1.54 1.54 0 0 1 1.516 1.852l.4.11.024-.06a1.602 1.602 0 0 1 1.476-.968c.886 0 1.604.709 1.604 1.583 0 .144-.02.284-.059.416.24.087.48.175.717.266a1.58 1.58 0 0 1 1.286-.656c.87 0 1.576.696 1.576 1.556 0 .097-.009.192-.027.285.23.104.458.211.686.32a1.5 1.5 0 0 1 1.207-.605c.714 0 1.31.492 1.462 1.15.246-.012.498-.017.754-.015.267-.402.73-.668 1.253-.668.649 0 1.202.407 1.41.977.35.074.701.16 1.053.259l-.033-.008c.25-.425.716-.71 1.25-.71.797 0 1.445.64 1.445 1.427 0 .1-.011.195-.03.288l.005-.027c.22.103.44.209.657.32.26-.339.67-.557 1.132-.557.783 0 1.42.628 1.42 1.4 0 .223-.053.433-.147.618.12.087.24.175.358.264.27-.316.673-.516 1.124-.516.813 0 1.473.65 1.473 1.453 0 .402-.166.766-.433 1.028.108.117.213.237.317.357.236-.154.52-.244.824-.244.828 0 1.499.662 1.499 1.479 0 .51-.263.96-.66 1.226l.02-.015c.103.195.202.393.295.593l.006.013c.092-.018.188-.027.286-.027.813 0 1.471.65 1.471 1.452 0 .601-.37 1.118-.899 1.339l.014-.007c.024.136.046.272.065.409l.004.033c.785.09 1.395.748 1.395 1.547 0 .805-.621 1.468-1.416 1.547a11.9 11.9 0 0 1-.11.638c.592.051 1.056.54 1.056 1.138 0 .63-.518 1.141-1.156 1.141-.192 0-.373-.046-.532-.129-.098.253-.203.506-.32.763.443.239.744.702.744 1.234 0 .776-.638 1.405-1.424 1.405-.25 0-.486-.065-.69-.175l-.151.225c.422.29.825.608 1.16.824l-3.858 2.66.074 1.594h-2.418.03l-2.185 1.505c-.633.397-1.95.168-3.146-.579l-.308.655c.982.576 1.908 1.19 2.771 1.843l-.12.156.522-.001-.001 3.969h-3.554v-.082zm-59.968-8.087c1.63.518 2.813-.078 2.625-1.812l-.064-.03.064.03-.064-.03a1.332 1.332 0 0 1-.72-1.18c0-.738.605-1.336 1.353-1.336.645 0 1.186.446 1.322 1.045 1.514 1.641 6.402.33 5.406-3.132 0 1.317-1.082 2.386-2.418 2.386-1.335 0-2.418-1.069-2.418-2.386 0-.928.537-1.732 1.32-2.127-2.78-4.354-2.71-7.666-2.569-14.203-5.94-1.141-16.817 7.99-7.568 18.624l.198.182c.625-.895 1.305-2.237 2.219-.828.325.502.632 1.017.948 1.526.348.56 1.084 1.359 1.198 2.009.047.267-.505 1.366-.83 1.262h-.002zm20.945-8.016c.513 3.488 11.115 3.45 9.248-1.348l.002.003c-.195 1.534-1.52 2.72-3.128 2.72-1.741 0-3.153-1.394-3.153-3.113 0-1.378.908-2.547 2.165-2.956h-.002c-1.809-3.966-2.163-10.458.833-15.045-11.353-.83-13.665 1.453-15.557 3.32-2.014 6.018-1.076 9.362 1.05 13.073l-.005-.011c.329-.167.702-.26 1.098-.26 1.334 0 2.417 1.068 2.417 2.386s-1.083 2.386-2.417 2.386c-.7 0-1.33-.293-1.77-.762v-.003c-.712 3.89 5.855 3.553 6.605-.204h-.001a1.31 1.31 0 0 1-.092-.484c0-.738.606-1.336 1.353-1.336a1.345 1.345 0 0 1 1.311 1.67l.043-.036zm21.118.036a1.303 1.303 0 0 1-.043-.334c0-.738.607-1.336 1.354-1.336.747 0 1.352.598 1.352 1.336 0 .17-.032.334-.09.484h-.002c.75 3.757 7.317 4.094 6.605.204l.001.003a2.426 2.426 0 0 1-1.77.762c-1.336 0-2.419-1.068-2.419-2.386s1.083-2.386 2.419-2.386c.394 0 .768.093 1.098.26l-.007.01c2.127-3.71 3.065-7.054 1.05-13.072-1.891-1.867-4.203-4.15-15.556-3.32 2.996 4.587 2.641 11.079.833 15.045h-.002A3.119 3.119 0 0 1 73 24.769c0 1.72-1.412 3.113-3.154 3.113-1.606 0-2.933-1.186-3.129-2.72l.003-.003c-1.866 4.798 8.735 4.836 9.249 1.348l.043.036zm20.9 7.98c-.325.104-.877-.995-.83-1.262.114-.65.85-1.449 1.197-2.01.316-.508.624-1.023.95-1.525.912-1.409 1.593-.067 2.219.828l.196-.182c9.25-10.635-1.628-19.765-7.568-18.624.142 6.537.21 9.85-2.567 14.203a2.385 2.385 0 0 1 1.318 2.127c0 1.317-1.082 2.386-2.417 2.386-1.335 0-2.418-1.069-2.418-2.386-.996 3.462 3.891 4.773 5.407 3.132a1.35 1.35 0 0 1 1.321-1.045c.748 0 1.353.598 1.353 1.335 0 .513-.292.958-.72 1.182l-.065.03.065-.03-.065.03c-.187 1.733.996 2.33 2.625 1.81h0z" stroke="#1A1919" stroke-width=".94"/><path d="M93.422 41.82l.002.895c-19.879-8.322-39.233-6.58-56.04.007v-.935c17.228-7.978 39.338-7.783 56.038.033zm-56.494-3.097v3.969h-3.554v-3.969h3.554zm60.547 0v3.969h-3.554v-3.969h3.554zm-1.754-.802l.455.309h-2.754v3.279l.001.001c-16.699-7.817-38.81-8.013-56.039-.034v-3.204h-3.15c15.208-10.308 46.253-10.466 61.487-.35zm.456.309l.001.001-.002-.001h.001zm-17.45-5.607l-.712 2.819 7.344 1.807.712-2.819-7.344-1.807zm-26.165 0l-7.343 1.807.712 2.819 7.343-1.807-.712-2.819zm-.231.431l.547 2.163-6.667 1.641-.547-2.163 6.667-1.641zm26.627 0l6.667 1.641-.547 2.163-6.667-1.641.547-2.163zM65.383 16.65l-.037-.001c1.981 0 3.587 1.585 3.587 3.54 0 .648-.176 1.254-.483 1.777a3.118 3.118 0 0 1 1.311-.285c1.734 0 3.14 1.388 3.14 3.1 0 1.712-1.406 3.099-3.14 3.099-1.605 0-2.929-1.188-3.117-2.723l-.024.004c-1.865 4.795 8.737 4.832 9.251 1.345l.042.035a1.346 1.346 0 0 1 1.312-1.67c.747 0 1.353.599 1.353 1.336 0 .171-.033.334-.092.485.749 3.756 7.316 4.094 6.605.204l-.043.005a2.404 2.404 0 0 1-1.76.76c-1.324 0-2.397-1.06-2.397-2.367s1.073-2.366 2.397-2.366c.828 0 1.557.414 1.988 1.042l.078.123-.042-.17a2.63 2.63 0 0 1-.059-.556c0-1.461 1.2-2.646 2.68-2.646 1.48 0 2.681 1.185 2.681 2.646 0 1.042-.61 1.943-1.496 2.374l.214-.012c1.324 0 2.398 1.06 2.398 2.367s-1.074 2.366-2.398 2.366-2.397-1.059-2.397-2.366l-.041-.02c-.996 3.463 3.891 4.774 5.407 3.133a1.352 1.352 0 0 1 1.322-1.046c.747 0 1.353.598 1.353 1.336 0 .465-.241.876-.608 1.115l-.113.066-.065.03c-.186 1.733.996 2.33 2.625 1.811-.326.104-.877-.994-.831-1.262.114-.65.85-1.448 1.198-2.009.316-.508.623-1.024.949-1.526.914-1.408 1.594-.066 2.219.829l.513.751c-.028-.039.988-1.096 1.059-1.167.389-.385.887-.849 1.484-.765.852.12 1.886 1.052 2.607 1.518l-3.262 2.248v-.876H99.31v3.247l-1.654 1.139c-1.156.726-4.587-.637-5.413-3.424-3.416.934-6.412-.986-7.043-2.853-3.837 1.919-6.386-.026-8.252-1.868-3.023 1.821-6.121 2.285-11.219.6l-.346-.116-.344.117c-5.098 1.684-8.197 1.22-11.22-.601-1.866 1.842-4.415 3.787-8.252 1.868-.63 1.867-3.626 3.787-7.043 2.853-.826 2.787-4.257 4.15-5.413 3.424l-1.603-1.104v-3.331h-3.443l-.001.958-.121-.084-3.189-2.197c.721-.466 1.756-1.398 2.608-1.518.596-.084 1.094.38 1.483.765.071.071 1.087 1.128 1.06 1.167l.512-.751c.625-.895 1.306-2.237 2.22-.829.325.502.632 1.018.948 1.526.349.561 1.084 1.359 1.198 2.009.047.268-.505 1.366-.831 1.262 1.573.501 2.73-.038 2.64-1.636l-.015-.175-.065-.03a1.335 1.335 0 0 1-.721-1.181c0-.738.606-1.336 1.354-1.336a1.35 1.35 0 0 1 1.321 1.046c1.516 1.641 6.404.33 5.407-3.133l-.04.02c0 1.307-1.074 2.366-2.398 2.366s-2.397-1.059-2.397-2.366c0-1.307 1.073-2.367 2.397-2.367l.215.012a2.64 2.64 0 0 1-1.496-2.374c0-1.461 1.2-2.646 2.68-2.646 1.481 0 2.681 1.185 2.681 2.646 0 .191-.02.377-.06.557l-.045.173.082-.127a2.404 2.404 0 0 1 1.987-1.042c1.324 0 2.398 1.059 2.398 2.366 0 1.307-1.074 2.367-2.398 2.367a2.406 2.406 0 0 1-1.76-.76l-.042-.005c-.712 3.89 5.856 3.552 6.604-.204a1.327 1.327 0 0 1-.091-.485c0-.737.606-1.336 1.353-1.336a1.345 1.345 0 0 1 1.311 1.67l.042-.035c.514 3.487 11.117 3.45 9.252-1.345l-.024-.004c-.189 1.535-1.513 2.723-3.118 2.723-1.734 0-3.14-1.387-3.14-3.099 0-1.712 1.406-3.1 3.14-3.1.469 0 .913.101 1.312.283a3.474 3.474 0 0 1-.484-1.775c0-1.892 1.504-3.437 3.397-3.535l.152-.004zM91.97 33.821c.411.81.493.992 1.104 1.789a44.336 44.336 0 0 0-3.765-1.653c1.005.083 1.912.004 2.661-.136zm-53.117-.02a9.99 9.99 0 0 0 2.661.136 44.73 44.73 0 0 0-3.765 1.654c.611-.798.693-.98 1.104-1.79zm63.376-1.097v2.44h-2.472v-2.44h2.472zm-71.089-.129v2.568h-2.602v-2.568h2.602zm38.079-1.53h-7.726v3.995h7.726v-3.995zm-.368.467v3.164h-6.885v-3.164h6.885zm-40.787 1.659l.002.001-.002.014v-.015zm56.948-2.1c.701.994 1.068 1.349 2.024 1.997-1.622-.552-2.826-.881-4.835-1.349 1.341-.102 1.678-.158 2.811-.648zm-39.182 0c1.133.49 1.47.546 2.812.648-2.01.468-3.214.797-4.835 1.349.956-.648 1.322-1.003 2.023-1.997zm8.068-1.92c.679.381 1.87.898 2.89 1.207a70.385 70.385 0 0 0-5.505.765c.84-.469 2.148-1.381 2.615-1.972zm23.126 0c.466.591 1.774 1.503 2.614 1.972a70.34 70.34 0 0 0-5.506-.765c1.021-.309 2.212-.826 2.892-1.207zM95.508 9.829l.006.129a1.885 1.885 0 0 0 1.888 1.724 1.9 1.9 0 0 0 1.347-.556l-.002.001-.004.07-.001.07c0 1.002.824 1.815 1.839 1.815.311 0 .603-.076.86-.21a1.78 1.78 0 0 0-.013.22c0 1.037.851 1.877 1.902 1.877.167 0 .329-.021.483-.061-.115.24-.178.506-.178.786 0 1.032.848 1.869 1.894 1.869.058 0 .115-.002.171-.008a1.86 1.86 0 0 0-.606 1.374c0 .783.485 1.454 1.175 1.736l-.096.07a1.95 1.95 0 0 0-.748 1.534c0 .909.627 1.674 1.478 1.896l-.004-.001-.126.047a1.506 1.506 0 0 0-.92 1.241l-.006.142c0 .495.243.935.618 1.208l-.048.178a1.698 1.698 0 0 0-.393-.046c-.935 0-1.692.748-1.692 1.671 0 .159.022.312.064.458-.287-.158-.572-.276-.839-.314-.596-.084-1.095.38-1.483.765-.072.071-1.087 1.128-1.06 1.168l-.258-.379-.001.001.215-.252c8.673-10.392-1.745-19.255-7.66-18.337l-.18.031c.137 6.315.17 9.605-2.331 13.747l-.042-.025a2.316 2.316 0 0 0-.332-.172 2.979 2.979 0 0 0 .614-2.705 2.636 2.636 0 0 0-.744-1.406l-.046-.475c.508-.27.854-.802.854-1.414 0-.649-.39-1.208-.952-1.462l.031.016.15-.034a1.96 1.96 0 0 0 1.452-1.728l.006-.157c0-.825-.518-1.531-1.251-1.817l.132-.061a1.933 1.933 0 0 0 1.06-1.72 1.93 1.93 0 0 0-.866-1.606 1.922 1.922 0 0 0 1.037-.816c.259.728.963 1.25 1.79 1.25.858 0 1.582-.561 1.817-1.332h-.001zM35.41 9.812v.017a1.894 1.894 0 0 0 1.816 1.332c.828 0 1.532-.522 1.791-1.252v.002c.206.333.512.6.878.756l.158.06-.126.092a1.923 1.923 0 0 0 .321 3.234l.132.061a1.954 1.954 0 0 0-1.251 1.817c0 .901.617 1.66 1.457 1.885l.149.034-.094.048a1.604 1.604 0 0 0-.825 1.398c0 .612.346 1.144.856 1.415l-.002-.001-.047.475a2.632 2.632 0 0 0-.742 1.397l-.002.009a2.983 2.983 0 0 0 .614 2.705 2.359 2.359 0 0 0-.331.172l-.042.025c-2.502-4.142-2.468-7.432-2.331-13.747-5.88-1.13-16.602 7.808-7.84 18.306l.213.252-.047.07-.21.308c.027-.04-.989-1.097-1.06-1.168-.389-.385-.887-.849-1.483-.765-.214.03-.439.112-.667.224l-.173.088.036-.146a1.682 1.682 0 0 0-1.663-1.98 1.653 1.653 0 0 0-.394.045l-.047-.178a1.494 1.494 0 0 0-.308-2.59l-.127-.048.145-.044a1.965 1.965 0 0 0 1.33-1.851c0-.62-.292-1.174-.748-1.534l-.097-.07.135-.062a1.876 1.876 0 0 0 1.041-1.674 1.86 1.86 0 0 0-.606-1.374 1.88 1.88 0 0 0 2.064-1.861c0-.28-.062-.546-.174-.785l-.004-.001c.155.04.317.061.484.061 1.05 0 1.902-.84 1.902-1.877a1.78 1.78 0 0 0-.013-.22c.256.134.549.21.859.21a1.827 1.827 0 0 0 1.839-1.815l-.001-.07-.005-.07.12.108a1.9 1.9 0 0 0 1.227.447 1.882 1.882 0 0 0 1.893-1.87zm-5.247 20.491l.057.068-.058-.067.001-.001zm70.593 0l-.001.001-.057.067.058-.068zm-35.335-.84c.397.143 1.196.402 1.629.506-.919 0-2.43-.013-3.232-.013.368-.065 1.258-.35 1.603-.493zm-40.522-2.086a1.24 1.24 0 0 1 1.248 1.232 1.24 1.24 0 0 1-1.248 1.232 1.24 1.24 0 0 1-1.248-1.232 1.24 1.24 0 0 1 1.248-1.232zm81.123 0a1.24 1.24 0 0 1 1.248 1.232 1.24 1.24 0 0 1-1.248 1.232 1.24 1.24 0 0 1-1.248-1.232 1.24 1.24 0 0 1 1.248-1.232zM65.435 28.97h-.102l.05.017.052-.017zM23.54 24.464c.637 0 1.154.51 1.154 1.139 0 .63-.517 1.14-1.154 1.14-.638 0-1.155-.51-1.155-1.14 0-.629.517-1.139 1.155-1.139zm83.841 0c.637 0 1.154.51 1.154 1.139 0 .63-.517 1.14-1.154 1.14-.638 0-1.154-.51-1.154-1.14 0-.629.516-1.139 1.154-1.139zm-.48-.3l.002.001-.004-.001h.002zm-82.883 0h.001l-.003.001.002-.001zm21.392-.067l-.006.011.006-.007v-.004zm39.944-.004l.003.008.007.007-.01-.015zm-61.876-3.395c.863 0 1.562.691 1.562 1.542 0 .852-.699 1.542-1.562 1.542-.863 0-1.562-.69-1.562-1.542 0-.851.699-1.542 1.562-1.542zm83.964 0c.864 0 1.563.691 1.563 1.542 0 .852-.699 1.542-1.563 1.542-.862 0-1.562-.69-1.562-1.542 0-.851.7-1.542 1.562-1.542zM56.39 4.93l.055.118a2.104 2.104 0 0 0 1.868 1.121c.7 0 1.319-.337 1.702-.856h-.001l.048.14a1.76 1.76 0 0 0 1.483 1.098l.158.007c.827 0 1.521-.564 1.71-1.324l-.001.001.16.141c.28.231.606.41.961.525l.217.06.001.3a2.121 2.121 0 0 0-1.406 1.99c0 .816.468 1.525 1.153 1.879a2.1 2.1 0 0 0-1.133 1.859 2.1 2.1 0 0 0 1.09 1.837l-.003-.001-.134.081c-.53.346-.894.92-.946 1.58l-.007.167c0 .289.059.564.166.814a4.135 4.135 0 0 0-2.292 4.584 3.882 3.882 0 0 0-1.473.138c-1.573-3.996-1.748-10.067 1.096-14.423-11.353-.83-13.665 1.452-15.557 3.32-1.953 5.833-1.131 9.155.858 12.732a2.806 2.806 0 0 0-.249.147l-.03.022c-.185-1.495-1.476-2.653-3.04-2.653a2.98 2.98 0 0 0-.165.004h.004l.097-.124a1.59 1.59 0 0 0 .282-.75l.009-.168a1.61 1.61 0 0 0-1.219-1.555h.003l.14-.063a1.956 1.956 0 0 0 1.086-1.585l.007-.162c0-.809-.499-1.504-1.209-1.8a1.937 1.937 0 0 0 1.231-1.798c0-.86-.568-1.589-1.355-1.841a1.892 1.892 0 0 0 .821-1.857v.004l.112.122c.32.321.75.534 1.232.578l.182.008c1.093 0 1.978-.874 1.978-1.952 0-.171-.022-.336-.064-.494l.09.12c.362.442.914.725 1.534.725.976 0 1.786-.701 1.942-1.62l-.001.003.114.124c.322.324.756.539 1.24.583l.184.008a1.99 1.99 0 0 0 1.893-1.355l.004-.016c.371.411.911.67 1.512.67.839 0 1.558-.503 1.865-1.22l-.003.007zm18.138 0a2.024 2.024 0 0 0 1.862 1.213c.602 0 1.142-.259 1.512-.67l.005.016A1.989 1.989 0 0 0 79.8 6.844c.558 0 1.062-.227 1.423-.591l.113-.125.033.15a1.965 1.965 0 0 0 1.909 1.468c.62 0 1.173-.283 1.534-.725l.09-.12a1.961 1.961 0 0 0-.063.494c0 1.078.885 1.952 1.977 1.952.554 0 1.055-.224 1.414-.586l.111-.122-.015.137a1.893 1.893 0 0 0 .712 1.626l.123.09-.143.053c-.71.29-1.209.982-1.209 1.788 0 .815.51 1.513 1.233 1.798h-.002a1.953 1.953 0 0 0-1.209 1.8 1.95 1.95 0 0 0 1.093 1.747l.138.063-.134.042c-.63.221-1.08.815-1.08 1.513 0 .341.107.657.29.918l.098.124-.078-.003-.083-.001c-1.565 0-2.856 1.158-3.04 2.653l-.031-.022a2.94 2.94 0 0 0-.248-.147c1.989-3.577 2.81-6.899.858-12.732-1.892-1.868-4.204-4.15-15.557-3.32 2.844 4.356 2.669 10.427 1.097 14.423h-.001a3.887 3.887 0 0 0-1.473-.138c.057-.274.088-.558.088-.849a4.146 4.146 0 0 0-2.379-3.739l-.002.004c.107-.25.167-.525.167-.814 0-.73-.38-1.373-.954-1.747l-.135-.081.134-.081a2.096 2.096 0 0 0 .955-1.755 2.1 2.1 0 0 0-1.133-1.859 2.117 2.117 0 0 0 1.153-1.879c0-.914-.586-1.692-1.407-1.99l.002-.3c.44-.105.84-.308 1.177-.585l.16-.142c.188.76.882 1.324 1.71 1.324a1.76 1.76 0 0 0 1.64-1.105l.047-.14.101.126c.386.447.96.73 1.602.73.813 0 1.518-.455 1.868-1.121l.054-.118zM24.625 20.648l.024.017-.024-.017zm16.83-2.625c.718 0 1.301.575 1.301 1.285 0 .709-.583 1.283-1.301 1.283a1.292 1.292 0 0 1-1.301-1.283c0-.71.582-1.285 1.301-1.285zm48.011 0c.719 0 1.301.575 1.301 1.285 0 .709-.582 1.283-1.301 1.283a1.292 1.292 0 0 1-1.301-1.283c0-.71.583-1.285 1.301-1.285zm-1.226 2.315l-.003.001-.001-.001h.004zm-45.557 0l-.001.001-.003-.001h.004zm64.345-2.819a1.39 1.39 0 0 1 1.399 1.381 1.39 1.39 0 0 1-1.399 1.38 1.39 1.39 0 0 1-1.398-1.38 1.39 1.39 0 0 1 1.398-1.381zm-83.135 0a1.39 1.39 0 0 1 1.398 1.381 1.39 1.39 0 0 1-1.398 1.38 1.39 1.39 0 0 1-1.399-1.38 1.39 1.39 0 0 1 1.399-1.381zm66.258.315l.031.016-.031-.016zm-49.384 0l-.03.016h-.002l.032-.016zm48.299-.093v.001l-.004-.001h.004zm-47.214 0h.003l-.002.001-.001-.001zm-.713-3.297c.849 0 1.537.679 1.537 1.517 0 .838-.688 1.518-1.537 1.518s-1.537-.68-1.537-1.518.688-1.517 1.537-1.517zm48.643 0c.849 0 1.537.679 1.537 1.517 0 .838-.688 1.518-1.537 1.518-.85 0-1.538-.68-1.538-1.518s.688-1.517 1.538-1.517zm-64.371-.208c.827 0 1.498.662 1.498 1.479 0 .817-.671 1.479-1.498 1.479a1.489 1.489 0 0 1-1.498-1.479c0-.817.671-1.479 1.498-1.479zm80.099 0c.827 0 1.498.662 1.498 1.479 0 .817-.671 1.479-1.498 1.479a1.489 1.489 0 0 1-1.498-1.479c0-.817.671-1.479 1.498-1.479zm-40.089 2.413l-.038.001-.037-.001h.075zm.079-2.516c.893 0 1.616.714 1.616 1.595 0 .22-.045.43-.127.621l-.1.021a3.605 3.605 0 0 0-1.308-.336l-.196-.007-.21.007a3.583 3.583 0 0 0-1.15.271l-.027.013a1.57 1.57 0 0 1-.114-.59c0-.881.723-1.595 1.616-1.595zm-.079 1.893h-.075l.039.001.036-.001zm37.953-4.384c.788 0 1.426.631 1.426 1.408 0 .777-.638 1.407-1.426 1.407-.787 0-1.425-.63-1.425-1.407s.638-1.408 1.425-1.408zm-75.828 0c.788 0 1.426.631 1.426 1.408 0 .777-.638 1.407-1.426 1.407-.787 0-1.425-.63-1.425-1.407s.638-1.408 1.425-1.408zm62.196-.856c.871 0 1.577.697 1.577 1.557 0 .859-.706 1.556-1.577 1.556a1.567 1.567 0 0 1-1.577-1.556c0-.86.706-1.557 1.577-1.557zm-48.563 0c.87 0 1.577.697 1.577 1.557 0 .859-.707 1.556-1.577 1.556a1.567 1.567 0 0 1-1.577-1.556c0-.86.706-1.557 1.577-1.557zm23.275 3.039l.001.001-.003-.001h.002zm2.01 0h.001l-.002.001.001-.001zm-.964-3.428c.893 0 1.616.715 1.616 1.596 0 .881-.723 1.595-1.616 1.595a1.605 1.605 0 0 1-1.616-1.595c0-.881.723-1.596 1.616-1.596zm-35.177-.521c.771 0 1.395.617 1.395 1.377s-.624 1.377-1.395 1.377c-.77 0-1.394-.617-1.394-1.377s.624-1.377 1.394-1.377zm70.275 0c.77 0 1.394.617 1.394 1.377s-.624 1.377-1.394 1.377a1.386 1.386 0 0 1-1.395-1.377c0-.76.624-1.377 1.395-1.377zm-67.054-1.45c.791 0 1.432.633 1.432 1.414 0 .78-.641 1.413-1.432 1.413a1.423 1.423 0 0 1-1.432-1.413c0-.781.641-1.414 1.432-1.414zm63.833 0c.79 0 1.432.633 1.432 1.414 0 .78-.642 1.413-1.432 1.413a1.423 1.423 0 0 1-1.432-1.413c0-.781.641-1.414 1.432-1.414zm-65.206 2.7l-.001.001v-.001h.001zm66.578 0l-.002.001.001-.001h.001zm-5.035-3.219c.762 0 1.38.61 1.38 1.362 0 .752-.618 1.362-1.38 1.362-.761 0-1.379-.61-1.379-1.362 0-.752.618-1.362 1.379-1.362zm-56.508 0c.762 0 1.38.61 1.38 1.362 0 .752-.618 1.362-1.38 1.362-.762 0-1.38-.61-1.38-1.362 0-.752.618-1.362 1.38-1.362zm51.957 2.585l-.001.001-.001-.001h.002zM40.67 7.44c.787 0 1.425.63 1.425 1.407s-.638 1.407-1.425 1.407-1.426-.63-1.426-1.407.639-1.407 1.426-1.407zm49.581 0c.787 0 1.426.63 1.426 1.407s-.639 1.407-1.426 1.407c-.787 0-1.425-.63-1.425-1.407s.638-1.407 1.425-1.407zM65.5 6.662c.893 0 1.616.714 1.616 1.595 0 .882-.723 1.596-1.616 1.596a1.605 1.605 0 0 1-1.616-1.596c0-.881.723-1.595 1.616-1.595zm21.273-.778c.871 0 1.577.697 1.577 1.556 0 .86-.706 1.557-1.577 1.557a1.567 1.567 0 0 1-1.577-1.557c0-.859.706-1.556 1.577-1.556zm-42.625 0c.871 0 1.577.697 1.577 1.556 0 .86-.706 1.557-1.577 1.557a1.567 1.567 0 0 1-1.577-1.557c0-.859.706-1.556 1.577-1.556zm-1.572 2.751v.004l-.002-.004h.002zm45.768 0l-.003.004.001-.004h.002zM47.676 4.276c.874 0 1.582.699 1.582 1.562 0 .863-.708 1.563-1.582 1.563-.875 0-1.583-.7-1.583-1.563s.708-1.562 1.583-1.562zm35.569 0c.874 0 1.583.699 1.583 1.562 0 .863-.709 1.563-1.583 1.563s-1.583-.7-1.583-1.563.709-1.562 1.583-1.562zm-32.12-.934c.864 0 1.564.691 1.564 1.543 0 .853-.7 1.544-1.564 1.544a1.554 1.554 0 0 1-1.563-1.544c0-.852.7-1.543 1.563-1.543zm28.67 0c.864 0 1.564.691 1.564 1.543 0 .853-.7 1.544-1.564 1.544a1.554 1.554 0 0 1-1.563-1.544c0-.852.7-1.543 1.563-1.543zm-18.105.156c.747 0 1.352.597 1.352 1.335s-.605 1.336-1.352 1.336a1.345 1.345 0 0 1-1.354-1.336c0-.738.606-1.335 1.354-1.335zm7.541 0c.748 0 1.354.597 1.354 1.335s-.606 1.336-1.354 1.336a1.345 1.345 0 0 1-1.353-1.336c0-.738.606-1.335 1.353-1.335zM49.582 6.126l-.001.003-.001-.003h.002zm31.756 0l-.002.002.001-.002h.001zM58.339 2.408a1.67 1.67 0 0 1 1.682 1.66 1.67 1.67 0 0 1-1.682 1.66 1.67 1.67 0 0 1-1.682-1.66c0-.917.753-1.66 1.682-1.66zm-3.811.156c.886 0 1.604.708 1.604 1.582 0 .874-.718 1.582-1.604 1.582a1.592 1.592 0 0 1-1.602-1.582c0-.874.717-1.582 1.602-1.582zm21.865 0c.885 0 1.602.708 1.602 1.582 0 .874-.717 1.582-1.602 1.582a1.592 1.592 0 0 1-1.603-1.582c0-.874.717-1.582 1.603-1.582zm-3.811-.156a1.67 1.67 0 0 1 1.681 1.66 1.67 1.67 0 0 1-1.681 1.66 1.67 1.67 0 0 1-1.682-1.66c0-.917.753-1.66 1.682-1.66zM65.408.748c1.35 0 2.444 1.08 2.444 2.412 0 1.333-1.094 2.413-2.444 2.413-1.35 0-2.444-1.08-2.444-2.413 0-1.332 1.094-2.412 2.444-2.412zm5.497 4.563l-.002.002h.001l.001-.002zm-10.892 0l.002.002h-.001l-.001-.002zm3.397-.079l.003.002-.001.001-.002-.003zm-7.034-.33l.017.021-.003.007-.014-.028zm18.167 0l-.015.028-.002-.007.017-.021z" fill="#F4D744"/></g></svg>