<svg xmlns="http://www.w3.org/2000/svg" viewBox="0 0 225 225"><path d="M0 225V0h225v225zM89.09 99.69c-4 .84-7.73 1.19-11.11 2.4-9.32 3.34-18.88 6.34-27.64 10.83-6.91 3.55-9.3 10.67-7.94 18.47s6.31 12.52 13.74 14.13c9.44 2 18.58 1.13 26.43-5.36 2.35-1.94 4.67-3.94 7.21-6.09 3.3 7.76 8.36 12.28 16.9 12.15 7.81-.13 12.77-3.91 15.42-11.46l2.82 2.51c12.15 10.75 33.89 12.72 47.7 4.32 12-7.3 14.21-22.5 4.88-33-5.17-5.84-12.1-7.94-19.29-9.6s-14.63-3-21.82-5c-3.78-1-7.34-3.4-7.14-7.88s3.54-6.94 7.67-8.14a29.78 29.78 0 0 1 4.87-1c11.71-1.39 20.9 2.49 27 12.94 1.51 2.59 3.11 5.33 7.06 3.45v-23c-2.54.86-4.95 1-6.31 2.29-2.87 2.68-5.21 2.08-8.44.65-11.38-5.06-22.92-5.59-34 .84-12.87 7.45-17.18 27.63-.92 36.81a64.39 64.39 0 0 0 14.67 5.91c6.88 1.87 14 2.79 21 4.3 3.65.8 6.46 2.84 7 6.87s-1.52 7-5 9a19.18 19.18 0 0 1-4.58 1.87c-14.31 3.66-28.64-2.35-36-15.74-2.39-4.33-5.06-4.93-9.69-3.61 0 3.85.15 7.66-.09 11.45-.07 1-1.3 1.95-2 2.93-1-.91-2.45-1.64-2.94-2.77-.55-1.29-.33-2.94-.34-4.43 0-11.33.05-22.65 0-34-.08-10.49-5.24-18.1-15.37-20.68A62.5 62.5 0 0 0 73 70.27C63.75 71 55 74 49.25 82.14a11.74 11.74 0 0 0 1 15.15c3.33 3.25 10.46 3.5 14.4.5 3.61-2.74 3.85-7.45 1.35-13.6-.59-1.46-.09-4.48 1-5.34 7.51-5.81 19.43-1.44 21.24 7.82.86 4.17.6 8.55.85 13.02z"/><path d="M89.09 99.69c-.25-4.47 0-8.85-.81-13C86.47 77.41 74.55 73 67 78.85c-1.12.86-1.62 3.88-1 5.34 2.5 6.15 2.26 10.86-1.35 13.6-3.94 3-11.07 2.75-14.4-.5a11.74 11.74 0 0 1-1-15.15C55 74 63.75 71 73 70.27a62.5 62.5 0 0 1 19.69 1.83c10.13 2.58 15.29 10.19 15.37 20.68.09 11.33 0 22.65 0 34 0 1.49-.21 3.14.34 4.43.49 1.13 1.93 1.86 2.94 2.77.7-1 1.93-1.92 2-2.93.24-3.79.09-7.6.09-11.45 4.63-1.32 7.3-.72 9.69 3.61 7.39 13.39 21.72 19.4 36 15.74a19.18 19.18 0 0 0 4.58-1.87c3.47-1.94 5.52-4.85 5-9s-3.33-6.07-7-6.87c-7-1.51-14.1-2.43-21-4.3a64.39 64.39 0 0 1-14.57-5.91c-16.26-9.18-11.95-29.36.92-36.81 11.1-6.43 22.64-5.9 34-.84 3.23 1.43 5.57 2 8.44-.65 1.36-1.27 3.77-1.43 6.31-2.29v23c-3.95 1.88-5.55-.86-7.06-3.45-6.07-10.45-15.26-14.33-27-12.94a29.78 29.78 0 0 0-4.87 1c-4.13 1.2-7.48 3.64-7.67 8.14s3.41 6.84 7.19 7.84c7.19 2 14.55 3.28 21.82 5s14.12 3.76 19.29 9.6c9.33 10.53 7.13 25.73-4.88 33-13.81 8.4-35.55 6.43-47.7-4.32l-2.82-2.51c-2.65 7.55-7.61 11.33-15.42 11.46-8.54.13-13.6-4.39-16.9-12.15-2.54 2.15-4.86 4.15-7.21 6.09-7.85 6.49-17 7.4-26.43 5.36-7.43-1.61-12.39-6.4-13.74-14.13s1-14.92 7.94-18.47c8.76-4.49 18.32-7.49 27.64-10.83 3.38-1.22 7.07-1.57 11.11-2.41zm.08 7.88l-1.48-1.64c-6.31 2.67-13 4.75-18.84 8.19-5.13 3-5.54 8.75-4.48 14.3.76 4 3.23 6.63 7.24 7.28 5.45.88 9.87-1.42 13-5.69a18.46 18.46 0 0 0 3.28-7.64c.8-4.88.89-9.86 1.28-14.8z" fill="#fff"/><path d="M89.17 107.57c-.39 4.94-.48 9.92-1.28 14.8a18.46 18.46 0 0 1-3.28 7.63c-3.13 4.27-7.55 6.57-13 5.69-4-.65-6.48-3.27-7.24-7.28-1.06-5.55-.65-11.29 4.48-14.3 5.86-3.44 12.53-5.52 18.84-8.19z"/></svg>